<?xml version="1.0" encoding="utf-8" standalone="no"?>
<!DOCTYPE svg PUBLIC "-//W3C//DTD SVG 1.1//EN"
  "http://www.w3.org/Graphics/SVG/1.1/DTD/svg11.dtd">
<svg xmlns:xlink="http://www.w3.org/1999/xlink" width="460.8pt" height="345.6pt" viewBox="0 0 460.8 345.6" xmlns="http://www.w3.org/2000/svg" version="1.1">
 <metadata>
  <rdf:RDF xmlns:dc="http://purl.org/dc/elements/1.1/" xmlns:cc="http://creativecommons.org/ns#" xmlns:rdf="http://www.w3.org/1999/02/22-rdf-syntax-ns#">
   <cc:Work>
    <dc:type rdf:resource="http://purl.org/dc/dcmitype/StillImage"/>
    <dc:date>2022-11-19T02:51:10.204521</dc:date>
    <dc:format>image/svg+xml</dc:format>
    <dc:creator>
     <cc:Agent>
      <dc:title>Matplotlib v3.6.2, https://matplotlib.org/</dc:title>
     </cc:Agent>
    </dc:creator>
   </cc:Work>
  </rdf:RDF>
 </metadata>
 <defs>
  <style type="text/css">*{stroke-linejoin: round; stroke-linecap: butt}</style>
 </defs>
 <g id="figure_1">
  <g id="patch_1">
   <path d="M 0 345.6 
L 460.8 345.6 
L 460.8 0 
L 0 0 
z
" style="fill: #ffffff"/>
  </g>
  <g id="axes_1">
   <g id="patch_2">
    <path d="M 82.944 79.488 
L 414.72 79.488 
L 414.72 41.472 
L 82.944 41.472 
z
" style="fill: #ffffff"/>
   </g>
   <g id="matplotlib.axis_1"/>
   <g id="matplotlib.axis_2">
    <g id="text_1">
     <!-- $s[i]$ -->
     <g transform="translate(61.544 58.400312) scale(0.1 -0.1)">
      <defs>
       <path id="DejaVuSans-Oblique-73" d="M 3200 3397 
L 3091 2853 
Q 2863 2978 2609 3040 
Q 2356 3103 2088 3103 
Q 1634 3103 1373 2948 
Q 1113 2794 1113 2528 
Q 1113 2219 1719 2053 
Q 1766 2041 1788 2034 
L 1972 1978 
Q 2547 1819 2739 1644 
Q 2931 1469 2931 1166 
Q 2931 609 2489 259 
Q 2047 -91 1331 -91 
Q 1053 -91 747 -37 
Q 441 16 72 128 
L 184 722 
Q 500 559 806 475 
Q 1113 391 1394 391 
Q 1816 391 2080 572 
Q 2344 753 2344 1031 
Q 2344 1331 1650 1516 
L 1591 1531 
L 1394 1581 
Q 956 1697 753 1886 
Q 550 2075 550 2369 
Q 550 2928 970 3256 
Q 1391 3584 2113 3584 
Q 2397 3584 2667 3537 
Q 2938 3491 3200 3397 
z
" transform="scale(0.015625)"/>
       <path id="DejaVuSans-5b" d="M 550 4863 
L 1875 4863 
L 1875 4416 
L 1125 4416 
L 1125 -397 
L 1875 -397 
L 1875 -844 
L 550 -844 
L 550 4863 
z
" transform="scale(0.015625)"/>
       <path id="DejaVuSans-Oblique-69" d="M 1172 4863 
L 1747 4863 
L 1606 4134 
L 1031 4134 
L 1172 4863 
z
M 909 3500 
L 1484 3500 
L 800 0 
L 225 0 
L 909 3500 
z
" transform="scale(0.015625)"/>
       <path id="DejaVuSans-5d" d="M 1947 4863 
L 1947 -844 
L 622 -844 
L 622 -397 
L 1369 -397 
L 1369 4416 
L 622 4416 
L 622 4863 
L 1947 4863 
z
" transform="scale(0.015625)"/>
      </defs>
      <use xlink:href="#DejaVuSans-Oblique-73" transform="translate(0 0.015625)"/>
      <use xlink:href="#DejaVuSans-5b" transform="translate(52.099609 0.015625)"/>
      <use xlink:href="#DejaVuSans-Oblique-69" transform="translate(91.113281 0.015625)"/>
      <use xlink:href="#DejaVuSans-5d" transform="translate(118.896484 0.015625)"/>
     </g>
    </g>
   </g>
   <g id="EventCollection_1">
    <path d="M 99.661395 51.84 
L 99.661395 69.12 
" clip-path="url(#pd98c137f7e)" style="fill: none; stroke: #1f77b4; stroke-width: 1.5"/>
    <path d="M 102.233302 51.84 
L 102.233302 69.12 
" clip-path="url(#pd98c137f7e)" style="fill: none; stroke: #1f77b4; stroke-width: 1.5"/>
    <path d="M 109.949023 51.84 
L 109.949023 69.12 
" clip-path="url(#pd98c137f7e)" style="fill: none; stroke: #1f77b4; stroke-width: 1.5"/>
    <path d="M 112.52093 51.84 
L 112.52093 69.12 
" clip-path="url(#pd98c137f7e)" style="fill: none; stroke: #1f77b4; stroke-width: 1.5"/>
    <path d="M 125.380465 51.84 
L 125.380465 69.12 
" clip-path="url(#pd98c137f7e)" style="fill: none; stroke: #1f77b4; stroke-width: 1.5"/>
    <path d="M 130.524279 51.84 
L 130.524279 69.12 
" clip-path="url(#pd98c137f7e)" style="fill: none; stroke: #1f77b4; stroke-width: 1.5"/>
    <path d="M 135.668093 51.84 
L 135.668093 69.12 
" clip-path="url(#pd98c137f7e)" style="fill: none; stroke: #1f77b4; stroke-width: 1.5"/>
    <path d="M 156.243349 51.84 
L 156.243349 69.12 
" clip-path="url(#pd98c137f7e)" style="fill: none; stroke: #1f77b4; stroke-width: 1.5"/>
    <path d="M 158.815256 51.84 
L 158.815256 69.12 
" clip-path="url(#pd98c137f7e)" style="fill: none; stroke: #1f77b4; stroke-width: 1.5"/>
    <path d="M 161.387163 51.84 
L 161.387163 69.12 
" clip-path="url(#pd98c137f7e)" style="fill: none; stroke: #1f77b4; stroke-width: 1.5"/>
    <path d="M 166.530977 51.84 
L 166.530977 69.12 
" clip-path="url(#pd98c137f7e)" style="fill: none; stroke: #1f77b4; stroke-width: 1.5"/>
    <path d="M 169.102884 51.84 
L 169.102884 69.12 
" clip-path="url(#pd98c137f7e)" style="fill: none; stroke: #1f77b4; stroke-width: 1.5"/>
    <path d="M 184.534326 51.84 
L 184.534326 69.12 
" clip-path="url(#pd98c137f7e)" style="fill: none; stroke: #1f77b4; stroke-width: 1.5"/>
    <path d="M 187.106233 51.84 
L 187.106233 69.12 
" clip-path="url(#pd98c137f7e)" style="fill: none; stroke: #1f77b4; stroke-width: 1.5"/>
    <path d="M 197.39386 51.84 
L 197.39386 69.12 
" clip-path="url(#pd98c137f7e)" style="fill: none; stroke: #1f77b4; stroke-width: 1.5"/>
    <path d="M 202.537674 51.84 
L 202.537674 69.12 
" clip-path="url(#pd98c137f7e)" style="fill: none; stroke: #1f77b4; stroke-width: 1.5"/>
    <path d="M 207.681488 51.84 
L 207.681488 69.12 
" clip-path="url(#pd98c137f7e)" style="fill: none; stroke: #1f77b4; stroke-width: 1.5"/>
    <path d="M 210.253395 51.84 
L 210.253395 69.12 
" clip-path="url(#pd98c137f7e)" style="fill: none; stroke: #1f77b4; stroke-width: 1.5"/>
    <path d="M 212.825302 51.84 
L 212.825302 69.12 
" clip-path="url(#pd98c137f7e)" style="fill: none; stroke: #1f77b4; stroke-width: 1.5"/>
    <path d="M 225.684837 51.84 
L 225.684837 69.12 
" clip-path="url(#pd98c137f7e)" style="fill: none; stroke: #1f77b4; stroke-width: 1.5"/>
    <path d="M 238.544372 51.84 
L 238.544372 69.12 
" clip-path="url(#pd98c137f7e)" style="fill: none; stroke: #1f77b4; stroke-width: 1.5"/>
    <path d="M 269.407256 51.84 
L 269.407256 69.12 
" clip-path="url(#pd98c137f7e)" style="fill: none; stroke: #1f77b4; stroke-width: 1.5"/>
    <path d="M 277.122977 51.84 
L 277.122977 69.12 
" clip-path="url(#pd98c137f7e)" style="fill: none; stroke: #1f77b4; stroke-width: 1.5"/>
    <path d="M 289.982512 51.84 
L 289.982512 69.12 
" clip-path="url(#pd98c137f7e)" style="fill: none; stroke: #1f77b4; stroke-width: 1.5"/>
    <path d="M 300.27014 51.84 
L 300.27014 69.12 
" clip-path="url(#pd98c137f7e)" style="fill: none; stroke: #1f77b4; stroke-width: 1.5"/>
    <path d="M 302.842047 51.84 
L 302.842047 69.12 
" clip-path="url(#pd98c137f7e)" style="fill: none; stroke: #1f77b4; stroke-width: 1.5"/>
    <path d="M 328.561116 51.84 
L 328.561116 69.12 
" clip-path="url(#pd98c137f7e)" style="fill: none; stroke: #1f77b4; stroke-width: 1.5"/>
    <path d="M 343.992558 51.84 
L 343.992558 69.12 
" clip-path="url(#pd98c137f7e)" style="fill: none; stroke: #1f77b4; stroke-width: 1.5"/>
    <path d="M 351.708279 51.84 
L 351.708279 69.12 
" clip-path="url(#pd98c137f7e)" style="fill: none; stroke: #1f77b4; stroke-width: 1.5"/>
    <path d="M 356.852093 51.84 
L 356.852093 69.12 
" clip-path="url(#pd98c137f7e)" style="fill: none; stroke: #1f77b4; stroke-width: 1.5"/>
    <path d="M 361.995907 51.84 
L 361.995907 69.12 
" clip-path="url(#pd98c137f7e)" style="fill: none; stroke: #1f77b4; stroke-width: 1.5"/>
    <path d="M 364.567814 51.84 
L 364.567814 69.12 
" clip-path="url(#pd98c137f7e)" style="fill: none; stroke: #1f77b4; stroke-width: 1.5"/>
    <path d="M 369.711628 51.84 
L 369.711628 69.12 
" clip-path="url(#pd98c137f7e)" style="fill: none; stroke: #1f77b4; stroke-width: 1.5"/>
    <path d="M 377.427349 51.84 
L 377.427349 69.12 
" clip-path="url(#pd98c137f7e)" style="fill: none; stroke: #1f77b4; stroke-width: 1.5"/>
    <path d="M 392.858791 51.84 
L 392.858791 69.12 
" clip-path="url(#pd98c137f7e)" style="fill: none; stroke: #1f77b4; stroke-width: 1.5"/>
    <path d="M 405.718326 51.84 
L 405.718326 69.12 
" clip-path="url(#pd98c137f7e)" style="fill: none; stroke: #1f77b4; stroke-width: 1.5"/>
    <path d="M 408.290233 51.84 
L 408.290233 69.12 
" clip-path="url(#pd98c137f7e)" style="fill: none; stroke: #1f77b4; stroke-width: 1.5"/>
   </g>
   <g id="patch_3">
    <path d="M 82.944 79.488 
L 82.944 41.472 
" style="fill: none; stroke: #000000; stroke-width: 0.8; stroke-linejoin: miter; stroke-linecap: square"/>
   </g>
   <g id="patch_4">
    <path d="M 414.72 79.488 
L 414.72 41.472 
" style="fill: none; stroke: #000000; stroke-width: 0.8; stroke-linejoin: miter; stroke-linecap: square"/>
   </g>
   <g id="patch_5">
    <path d="M 82.944 79.488 
L 414.72 79.488 
" style="fill: none; stroke: #000000; stroke-width: 0.8; stroke-linejoin: miter; stroke-linecap: square"/>
   </g>
   <g id="patch_6">
    <path d="M 82.944 41.472 
L 414.72 41.472 
" style="fill: none; stroke: #000000; stroke-width: 0.8; stroke-linejoin: miter; stroke-linecap: square"/>
   </g>
  </g>
  <g id="axes_2">
   <g id="patch_7">
    <path d="M 82.944 125.1072 
L 414.72 125.1072 
L 414.72 87.0912 
L 82.944 87.0912 
z
" style="fill: #ffffff"/>
   </g>
   <g id="matplotlib.axis_3"/>
   <g id="matplotlib.axis_4">
    <g id="ytick_1">
     <g id="line2d_1">
      <defs>
       <path id="m0912c56302" d="M 0 0 
L -3.5 0 
" style="stroke: #000000; stroke-width: 0.8"/>
      </defs>
      <g>
       <use xlink:href="#m0912c56302" x="82.944" y="123.3792" style="stroke: #000000; stroke-width: 0.8"/>
      </g>
     </g>
     <g id="text_2">
      <!-- 0.000 -->
      <g transform="translate(47.315875 127.178419) scale(0.1 -0.1)">
       <defs>
        <path id="DejaVuSans-30" d="M 2034 4250 
Q 1547 4250 1301 3770 
Q 1056 3291 1056 2328 
Q 1056 1369 1301 889 
Q 1547 409 2034 409 
Q 2525 409 2770 889 
Q 3016 1369 3016 2328 
Q 3016 3291 2770 3770 
Q 2525 4250 2034 4250 
z
M 2034 4750 
Q 2819 4750 3233 4129 
Q 3647 3509 3647 2328 
Q 3647 1150 3233 529 
Q 2819 -91 2034 -91 
Q 1250 -91 836 529 
Q 422 1150 422 2328 
Q 422 3509 836 4129 
Q 1250 4750 2034 4750 
z
" transform="scale(0.015625)"/>
        <path id="DejaVuSans-2e" d="M 684 794 
L 1344 794 
L 1344 0 
L 684 0 
L 684 794 
z
" transform="scale(0.015625)"/>
       </defs>
       <use xlink:href="#DejaVuSans-30"/>
       <use xlink:href="#DejaVuSans-2e" x="63.623047"/>
       <use xlink:href="#DejaVuSans-30" x="95.410156"/>
       <use xlink:href="#DejaVuSans-30" x="159.033203"/>
       <use xlink:href="#DejaVuSans-30" x="222.65625"/>
      </g>
     </g>
    </g>
    <g id="ytick_2">
     <g id="line2d_2">
      <g>
       <use xlink:href="#m0912c56302" x="82.944" y="88.8192" style="stroke: #000000; stroke-width: 0.8"/>
      </g>
     </g>
     <g id="text_3">
      <!-- 8.596 -->
      <g transform="translate(47.315875 92.618419) scale(0.1 -0.1)">
       <defs>
        <path id="DejaVuSans-38" d="M 2034 2216 
Q 1584 2216 1326 1975 
Q 1069 1734 1069 1313 
Q 1069 891 1326 650 
Q 1584 409 2034 409 
Q 2484 409 2743 651 
Q 3003 894 3003 1313 
Q 3003 1734 2745 1975 
Q 2488 2216 2034 2216 
z
M 1403 2484 
Q 997 2584 770 2862 
Q 544 3141 544 3541 
Q 544 4100 942 4425 
Q 1341 4750 2034 4750 
Q 2731 4750 3128 4425 
Q 3525 4100 3525 3541 
Q 3525 3141 3298 2862 
Q 3072 2584 2669 2484 
Q 3125 2378 3379 2068 
Q 3634 1759 3634 1313 
Q 3634 634 3220 271 
Q 2806 -91 2034 -91 
Q 1263 -91 848 271 
Q 434 634 434 1313 
Q 434 1759 690 2068 
Q 947 2378 1403 2484 
z
M 1172 3481 
Q 1172 3119 1398 2916 
Q 1625 2713 2034 2713 
Q 2441 2713 2670 2916 
Q 2900 3119 2900 3481 
Q 2900 3844 2670 4047 
Q 2441 4250 2034 4250 
Q 1625 4250 1398 4047 
Q 1172 3844 1172 3481 
z
" transform="scale(0.015625)"/>
        <path id="DejaVuSans-35" d="M 691 4666 
L 3169 4666 
L 3169 4134 
L 1269 4134 
L 1269 2991 
Q 1406 3038 1543 3061 
Q 1681 3084 1819 3084 
Q 2600 3084 3056 2656 
Q 3513 2228 3513 1497 
Q 3513 744 3044 326 
Q 2575 -91 1722 -91 
Q 1428 -91 1123 -41 
Q 819 9 494 109 
L 494 744 
Q 775 591 1075 516 
Q 1375 441 1709 441 
Q 2250 441 2565 725 
Q 2881 1009 2881 1497 
Q 2881 1984 2565 2268 
Q 2250 2553 1709 2553 
Q 1456 2553 1204 2497 
Q 953 2441 691 2322 
L 691 4666 
z
" transform="scale(0.015625)"/>
        <path id="DejaVuSans-39" d="M 703 97 
L 703 672 
Q 941 559 1184 500 
Q 1428 441 1663 441 
Q 2288 441 2617 861 
Q 2947 1281 2994 2138 
Q 2813 1869 2534 1725 
Q 2256 1581 1919 1581 
Q 1219 1581 811 2004 
Q 403 2428 403 3163 
Q 403 3881 828 4315 
Q 1253 4750 1959 4750 
Q 2769 4750 3195 4129 
Q 3622 3509 3622 2328 
Q 3622 1225 3098 567 
Q 2575 -91 1691 -91 
Q 1453 -91 1209 -44 
Q 966 3 703 97 
z
M 1959 2075 
Q 2384 2075 2632 2365 
Q 2881 2656 2881 3163 
Q 2881 3666 2632 3958 
Q 2384 4250 1959 4250 
Q 1534 4250 1286 3958 
Q 1038 3666 1038 3163 
Q 1038 2656 1286 2365 
Q 1534 2075 1959 2075 
z
" transform="scale(0.015625)"/>
        <path id="DejaVuSans-36" d="M 2113 2584 
Q 1688 2584 1439 2293 
Q 1191 2003 1191 1497 
Q 1191 994 1439 701 
Q 1688 409 2113 409 
Q 2538 409 2786 701 
Q 3034 994 3034 1497 
Q 3034 2003 2786 2293 
Q 2538 2584 2113 2584 
z
M 3366 4563 
L 3366 3988 
Q 3128 4100 2886 4159 
Q 2644 4219 2406 4219 
Q 1781 4219 1451 3797 
Q 1122 3375 1075 2522 
Q 1259 2794 1537 2939 
Q 1816 3084 2150 3084 
Q 2853 3084 3261 2657 
Q 3669 2231 3669 1497 
Q 3669 778 3244 343 
Q 2819 -91 2113 -91 
Q 1303 -91 875 529 
Q 447 1150 447 2328 
Q 447 3434 972 4092 
Q 1497 4750 2381 4750 
Q 2619 4750 2861 4703 
Q 3103 4656 3366 4563 
z
" transform="scale(0.015625)"/>
       </defs>
       <use xlink:href="#DejaVuSans-38"/>
       <use xlink:href="#DejaVuSans-2e" x="63.623047"/>
       <use xlink:href="#DejaVuSans-35" x="95.410156"/>
       <use xlink:href="#DejaVuSans-39" x="159.033203"/>
       <use xlink:href="#DejaVuSans-36" x="222.65625"/>
      </g>
     </g>
    </g>
    <g id="text_4">
     <!-- $tr_{pre}$ -->
     <g transform="translate(33.315875 102.9992) scale(0.1 -0.1)">
      <defs>
       <path id="DejaVuSans-Oblique-74" d="M 2706 3500 
L 2619 3053 
L 1472 3053 
L 1100 1153 
Q 1081 1047 1072 975 
Q 1063 903 1063 863 
Q 1063 663 1183 572 
Q 1303 481 1569 481 
L 2150 481 
L 2053 0 
L 1503 0 
Q 991 0 739 200 
Q 488 400 488 806 
Q 488 878 497 964 
Q 506 1050 525 1153 
L 897 3053 
L 409 3053 
L 500 3500 
L 978 3500 
L 1172 4494 
L 1747 4494 
L 1556 3500 
L 2706 3500 
z
" transform="scale(0.015625)"/>
       <path id="DejaVuSans-Oblique-72" d="M 2853 2969 
Q 2766 3016 2653 3041 
Q 2541 3066 2413 3066 
Q 1953 3066 1609 2717 
Q 1266 2369 1153 1784 
L 800 0 
L 225 0 
L 909 3500 
L 1484 3500 
L 1375 2956 
Q 1603 3259 1920 3421 
Q 2238 3584 2597 3584 
Q 2691 3584 2781 3573 
Q 2872 3563 2963 3538 
L 2853 2969 
z
" transform="scale(0.015625)"/>
       <path id="DejaVuSans-Oblique-70" d="M 3175 2156 
Q 3175 2616 2975 2859 
Q 2775 3103 2400 3103 
Q 2144 3103 1911 2972 
Q 1678 2841 1497 2591 
Q 1319 2344 1212 1994 
Q 1106 1644 1106 1300 
Q 1106 863 1306 627 
Q 1506 391 1875 391 
Q 2147 391 2380 519 
Q 2613 647 2778 891 
Q 2956 1147 3065 1494 
Q 3175 1841 3175 2156 
z
M 1394 2969 
Q 1625 3272 1939 3428 
Q 2253 3584 2638 3584 
Q 3175 3584 3472 3232 
Q 3769 2881 3769 2247 
Q 3769 1728 3584 1258 
Q 3400 788 3053 416 
Q 2822 169 2531 39 
Q 2241 -91 1919 -91 
Q 1547 -91 1294 64 
Q 1041 219 916 525 
L 556 -1331 
L -19 -1331 
L 922 3500 
L 1497 3500 
L 1394 2969 
z
" transform="scale(0.015625)"/>
       <path id="DejaVuSans-Oblique-65" d="M 3078 2063 
Q 3088 2113 3092 2166 
Q 3097 2219 3097 2272 
Q 3097 2653 2873 2875 
Q 2650 3097 2266 3097 
Q 1838 3097 1509 2826 
Q 1181 2556 1013 2059 
L 3078 2063 
z
M 3578 1613 
L 903 1613 
Q 884 1494 878 1425 
Q 872 1356 872 1306 
Q 872 872 1139 634 
Q 1406 397 1894 397 
Q 2269 397 2603 481 
Q 2938 566 3225 728 
L 3116 159 
Q 2806 34 2476 -28 
Q 2147 -91 1806 -91 
Q 1078 -91 686 257 
Q 294 606 294 1247 
Q 294 1794 489 2264 
Q 684 2734 1063 3103 
Q 1306 3334 1642 3459 
Q 1978 3584 2356 3584 
Q 2950 3584 3301 3228 
Q 3653 2872 3653 2272 
Q 3653 2128 3634 1964 
Q 3616 1800 3578 1613 
z
" transform="scale(0.015625)"/>
      </defs>
      <use xlink:href="#DejaVuSans-Oblique-74" transform="translate(0 0.78125)"/>
      <use xlink:href="#DejaVuSans-Oblique-72" transform="translate(39.208984 0.78125)"/>
      <use xlink:href="#DejaVuSans-Oblique-70" transform="translate(80.322266 -15.625) scale(0.7)"/>
      <use xlink:href="#DejaVuSans-Oblique-72" transform="translate(124.755859 -15.625) scale(0.7)"/>
      <use xlink:href="#DejaVuSans-Oblique-65" transform="translate(153.535156 -15.625) scale(0.7)"/>
     </g>
    </g>
   </g>
   <g id="line2d_3">
    <path d="M 84.229953 123.3792 
L 97.089488 123.3792 
L 102.233302 115.534677 
L 107.377116 116.281182 
L 112.52093 109.112124 
L 120.236651 111.099412 
L 122.808558 111.698304 
L 125.380465 108.24769 
L 127.952372 108.985662 
L 130.524279 105.667346 
L 133.096186 106.531162 
L 135.668093 103.332552 
L 140.811907 105.240241 
L 145.955721 106.96639 
L 153.671442 109.252562 
L 158.815256 102.752366 
L 161.387163 99.738049 
L 163.95907 100.891041 
L 169.102884 95.186549 
L 174.246698 97.869432 
L 179.390512 100.297006 
L 181.962419 101.422738 
L 187.106233 95.667648 
L 192.250047 98.304749 
L 194.821953 99.527644 
L 197.39386 96.6706 
L 199.965767 97.973193 
L 202.537674 95.191961 
L 205.109581 96.566668 
L 210.253395 91.273693 
L 212.825302 88.8192 
L 217.969116 92.108019 
L 223.11293 95.083863 
L 225.684837 92.443545 
L 230.828651 95.387461 
L 235.972465 98.051226 
L 238.544372 95.266188 
L 243.688186 97.941493 
L 248.832 100.362208 
L 253.975814 102.552563 
L 259.119628 104.53448 
L 264.263442 106.32779 
L 266.835349 107.159397 
L 269.407256 103.930149 
L 274.55107 105.78097 
L 277.122977 102.618948 
L 282.266791 104.594546 
L 287.410605 106.382142 
L 289.982512 103.190799 
L 295.126326 105.111977 
L 297.698233 106.002879 
L 302.842047 99.811929 
L 307.98586 102.05465 
L 313.129674 104.083948 
L 318.273488 105.920132 
L 323.417302 107.581581 
L 325.989209 108.352039 
L 328.561116 105.064623 
L 333.70493 106.807484 
L 341.420651 109.115791 
L 343.992558 105.791128 
L 349.136372 107.464853 
L 351.708279 104.220707 
L 354.280186 105.155077 
L 356.852093 102.023581 
L 359.424 103.065106 
L 364.567814 97.153722 
L 367.139721 98.432753 
L 369.711628 95.629106 
L 374.855442 98.269874 
L 377.427349 95.474172 
L 382.571163 98.129684 
L 387.714977 100.532492 
L 390.286884 101.646739 
L 392.858791 98.686345 
L 398.002605 101.036179 
L 403.146419 103.162397 
L 408.290233 97.241755 
L 410.86214 98.516492 
L 410.86214 98.516492 
" clip-path="url(#p80ea90365b)" style="fill: none; stroke: #ff7f0e; stroke-width: 1.5; stroke-linecap: square"/>
   </g>
   <g id="patch_8">
    <path d="M 82.944 125.1072 
L 82.944 87.0912 
" style="fill: none; stroke: #000000; stroke-width: 0.8; stroke-linejoin: miter; stroke-linecap: square"/>
   </g>
   <g id="patch_9">
    <path d="M 414.72 125.1072 
L 414.72 87.0912 
" style="fill: none; stroke: #000000; stroke-width: 0.8; stroke-linejoin: miter; stroke-linecap: square"/>
   </g>
   <g id="patch_10">
    <path d="M 82.944 125.1072 
L 414.72 125.1072 
" style="fill: none; stroke: #000000; stroke-width: 0.8; stroke-linejoin: miter; stroke-linecap: square"/>
   </g>
   <g id="patch_11">
    <path d="M 82.944 87.0912 
L 414.72 87.0912 
" style="fill: none; stroke: #000000; stroke-width: 0.8; stroke-linejoin: miter; stroke-linecap: square"/>
   </g>
  </g>
  <g id="axes_3">
   <g id="patch_12">
    <path d="M 82.944 170.7264 
L 414.72 170.7264 
L 414.72 132.7104 
L 82.944 132.7104 
z
" style="fill: #ffffff"/>
   </g>
   <g id="matplotlib.axis_5"/>
   <g id="matplotlib.axis_6">
    <g id="text_5">
     <!-- $s[j]$ -->
     <g transform="translate(61.544 149.6184) scale(0.1 -0.1)">
      <defs>
       <path id="DejaVuSans-Oblique-6a" d="M 928 3500 
L 1503 3500 
L 813 -63 
L 809 -78 
Q 694 -675 544 -897 
Q 403 -1106 132 -1218 
Q -138 -1331 -506 -1331 
L -722 -1331 
L -628 -844 
L -481 -844 
Q -144 -844 -1 -703 
Q 141 -563 238 -63 
L 928 3500 
z
M 1197 4863 
L 1772 4863 
L 1631 4134 
L 1056 4134 
L 1197 4863 
z
" transform="scale(0.015625)"/>
      </defs>
      <use xlink:href="#DejaVuSans-Oblique-73" transform="translate(0 0.015625)"/>
      <use xlink:href="#DejaVuSans-5b" transform="translate(52.099609 0.015625)"/>
      <use xlink:href="#DejaVuSans-Oblique-6a" transform="translate(91.113281 0.015625)"/>
      <use xlink:href="#DejaVuSans-5d" transform="translate(118.896484 0.015625)"/>
     </g>
    </g>
   </g>
   <g id="EventCollection_2">
    <path d="M 89.373767 143.0784 
L 89.373767 160.3584 
" clip-path="url(#pf576a25c31)" style="fill: none; stroke: #2ca02c; stroke-width: 1.5"/>
    <path d="M 91.945674 143.0784 
L 91.945674 160.3584 
" clip-path="url(#pf576a25c31)" style="fill: none; stroke: #2ca02c; stroke-width: 1.5"/>
    <path d="M 97.089488 143.0784 
L 97.089488 160.3584 
" clip-path="url(#pf576a25c31)" style="fill: none; stroke: #2ca02c; stroke-width: 1.5"/>
    <path d="M 102.233302 143.0784 
L 102.233302 160.3584 
" clip-path="url(#pf576a25c31)" style="fill: none; stroke: #2ca02c; stroke-width: 1.5"/>
    <path d="M 112.52093 143.0784 
L 112.52093 160.3584 
" clip-path="url(#pf576a25c31)" style="fill: none; stroke: #2ca02c; stroke-width: 1.5"/>
    <path d="M 125.380465 143.0784 
L 125.380465 160.3584 
" clip-path="url(#pf576a25c31)" style="fill: none; stroke: #2ca02c; stroke-width: 1.5"/>
    <path d="M 135.668093 143.0784 
L 135.668093 160.3584 
" clip-path="url(#pf576a25c31)" style="fill: none; stroke: #2ca02c; stroke-width: 1.5"/>
    <path d="M 140.811907 143.0784 
L 140.811907 160.3584 
" clip-path="url(#pf576a25c31)" style="fill: none; stroke: #2ca02c; stroke-width: 1.5"/>
    <path d="M 151.099535 143.0784 
L 151.099535 160.3584 
" clip-path="url(#pf576a25c31)" style="fill: none; stroke: #2ca02c; stroke-width: 1.5"/>
    <path d="M 158.815256 143.0784 
L 158.815256 160.3584 
" clip-path="url(#pf576a25c31)" style="fill: none; stroke: #2ca02c; stroke-width: 1.5"/>
    <path d="M 163.95907 143.0784 
L 163.95907 160.3584 
" clip-path="url(#pf576a25c31)" style="fill: none; stroke: #2ca02c; stroke-width: 1.5"/>
    <path d="M 171.674791 143.0784 
L 171.674791 160.3584 
" clip-path="url(#pf576a25c31)" style="fill: none; stroke: #2ca02c; stroke-width: 1.5"/>
    <path d="M 184.534326 143.0784 
L 184.534326 160.3584 
" clip-path="url(#pf576a25c31)" style="fill: none; stroke: #2ca02c; stroke-width: 1.5"/>
    <path d="M 189.67814 143.0784 
L 189.67814 160.3584 
" clip-path="url(#pf576a25c31)" style="fill: none; stroke: #2ca02c; stroke-width: 1.5"/>
    <path d="M 197.39386 143.0784 
L 197.39386 160.3584 
" clip-path="url(#pf576a25c31)" style="fill: none; stroke: #2ca02c; stroke-width: 1.5"/>
    <path d="M 202.537674 143.0784 
L 202.537674 160.3584 
" clip-path="url(#pf576a25c31)" style="fill: none; stroke: #2ca02c; stroke-width: 1.5"/>
    <path d="M 207.681488 143.0784 
L 207.681488 160.3584 
" clip-path="url(#pf576a25c31)" style="fill: none; stroke: #2ca02c; stroke-width: 1.5"/>
    <path d="M 210.253395 143.0784 
L 210.253395 160.3584 
" clip-path="url(#pf576a25c31)" style="fill: none; stroke: #2ca02c; stroke-width: 1.5"/>
    <path d="M 220.541023 143.0784 
L 220.541023 160.3584 
" clip-path="url(#pf576a25c31)" style="fill: none; stroke: #2ca02c; stroke-width: 1.5"/>
    <path d="M 225.684837 143.0784 
L 225.684837 160.3584 
" clip-path="url(#pf576a25c31)" style="fill: none; stroke: #2ca02c; stroke-width: 1.5"/>
    <path d="M 233.400558 143.0784 
L 233.400558 160.3584 
" clip-path="url(#pf576a25c31)" style="fill: none; stroke: #2ca02c; stroke-width: 1.5"/>
    <path d="M 235.972465 143.0784 
L 235.972465 160.3584 
" clip-path="url(#pf576a25c31)" style="fill: none; stroke: #2ca02c; stroke-width: 1.5"/>
    <path d="M 238.544372 143.0784 
L 238.544372 160.3584 
" clip-path="url(#pf576a25c31)" style="fill: none; stroke: #2ca02c; stroke-width: 1.5"/>
    <path d="M 241.116279 143.0784 
L 241.116279 160.3584 
" clip-path="url(#pf576a25c31)" style="fill: none; stroke: #2ca02c; stroke-width: 1.5"/>
    <path d="M 246.260093 143.0784 
L 246.260093 160.3584 
" clip-path="url(#pf576a25c31)" style="fill: none; stroke: #2ca02c; stroke-width: 1.5"/>
    <path d="M 256.547721 143.0784 
L 256.547721 160.3584 
" clip-path="url(#pf576a25c31)" style="fill: none; stroke: #2ca02c; stroke-width: 1.5"/>
    <path d="M 261.691535 143.0784 
L 261.691535 160.3584 
" clip-path="url(#pf576a25c31)" style="fill: none; stroke: #2ca02c; stroke-width: 1.5"/>
    <path d="M 269.407256 143.0784 
L 269.407256 160.3584 
" clip-path="url(#pf576a25c31)" style="fill: none; stroke: #2ca02c; stroke-width: 1.5"/>
    <path d="M 271.979163 143.0784 
L 271.979163 160.3584 
" clip-path="url(#pf576a25c31)" style="fill: none; stroke: #2ca02c; stroke-width: 1.5"/>
    <path d="M 277.122977 143.0784 
L 277.122977 160.3584 
" clip-path="url(#pf576a25c31)" style="fill: none; stroke: #2ca02c; stroke-width: 1.5"/>
    <path d="M 282.266791 143.0784 
L 282.266791 160.3584 
" clip-path="url(#pf576a25c31)" style="fill: none; stroke: #2ca02c; stroke-width: 1.5"/>
    <path d="M 287.410605 143.0784 
L 287.410605 160.3584 
" clip-path="url(#pf576a25c31)" style="fill: none; stroke: #2ca02c; stroke-width: 1.5"/>
    <path d="M 292.554419 143.0784 
L 292.554419 160.3584 
" clip-path="url(#pf576a25c31)" style="fill: none; stroke: #2ca02c; stroke-width: 1.5"/>
    <path d="M 297.698233 143.0784 
L 297.698233 160.3584 
" clip-path="url(#pf576a25c31)" style="fill: none; stroke: #2ca02c; stroke-width: 1.5"/>
    <path d="M 302.842047 143.0784 
L 302.842047 160.3584 
" clip-path="url(#pf576a25c31)" style="fill: none; stroke: #2ca02c; stroke-width: 1.5"/>
    <path d="M 310.557767 143.0784 
L 310.557767 160.3584 
" clip-path="url(#pf576a25c31)" style="fill: none; stroke: #2ca02c; stroke-width: 1.5"/>
    <path d="M 315.701581 143.0784 
L 315.701581 160.3584 
" clip-path="url(#pf576a25c31)" style="fill: none; stroke: #2ca02c; stroke-width: 1.5"/>
    <path d="M 323.417302 143.0784 
L 323.417302 160.3584 
" clip-path="url(#pf576a25c31)" style="fill: none; stroke: #2ca02c; stroke-width: 1.5"/>
    <path d="M 328.561116 143.0784 
L 328.561116 160.3584 
" clip-path="url(#pf576a25c31)" style="fill: none; stroke: #2ca02c; stroke-width: 1.5"/>
    <path d="M 338.848744 143.0784 
L 338.848744 160.3584 
" clip-path="url(#pf576a25c31)" style="fill: none; stroke: #2ca02c; stroke-width: 1.5"/>
    <path d="M 343.992558 143.0784 
L 343.992558 160.3584 
" clip-path="url(#pf576a25c31)" style="fill: none; stroke: #2ca02c; stroke-width: 1.5"/>
    <path d="M 351.708279 143.0784 
L 351.708279 160.3584 
" clip-path="url(#pf576a25c31)" style="fill: none; stroke: #2ca02c; stroke-width: 1.5"/>
    <path d="M 356.852093 143.0784 
L 356.852093 160.3584 
" clip-path="url(#pf576a25c31)" style="fill: none; stroke: #2ca02c; stroke-width: 1.5"/>
    <path d="M 364.567814 143.0784 
L 364.567814 160.3584 
" clip-path="url(#pf576a25c31)" style="fill: none; stroke: #2ca02c; stroke-width: 1.5"/>
    <path d="M 367.139721 143.0784 
L 367.139721 160.3584 
" clip-path="url(#pf576a25c31)" style="fill: none; stroke: #2ca02c; stroke-width: 1.5"/>
    <path d="M 369.711628 143.0784 
L 369.711628 160.3584 
" clip-path="url(#pf576a25c31)" style="fill: none; stroke: #2ca02c; stroke-width: 1.5"/>
    <path d="M 374.855442 143.0784 
L 374.855442 160.3584 
" clip-path="url(#pf576a25c31)" style="fill: none; stroke: #2ca02c; stroke-width: 1.5"/>
    <path d="M 379.999256 143.0784 
L 379.999256 160.3584 
" clip-path="url(#pf576a25c31)" style="fill: none; stroke: #2ca02c; stroke-width: 1.5"/>
    <path d="M 392.858791 143.0784 
L 392.858791 160.3584 
" clip-path="url(#pf576a25c31)" style="fill: none; stroke: #2ca02c; stroke-width: 1.5"/>
    <path d="M 398.002605 143.0784 
L 398.002605 160.3584 
" clip-path="url(#pf576a25c31)" style="fill: none; stroke: #2ca02c; stroke-width: 1.5"/>
    <path d="M 405.718326 143.0784 
L 405.718326 160.3584 
" clip-path="url(#pf576a25c31)" style="fill: none; stroke: #2ca02c; stroke-width: 1.5"/>
    <path d="M 408.290233 143.0784 
L 408.290233 160.3584 
" clip-path="url(#pf576a25c31)" style="fill: none; stroke: #2ca02c; stroke-width: 1.5"/>
   </g>
   <g id="patch_13">
    <path d="M 82.944 170.7264 
L 82.944 132.7104 
" style="fill: none; stroke: #000000; stroke-width: 0.8; stroke-linejoin: miter; stroke-linecap: square"/>
   </g>
   <g id="patch_14">
    <path d="M 414.72 170.7264 
L 414.72 132.7104 
" style="fill: none; stroke: #000000; stroke-width: 0.8; stroke-linejoin: miter; stroke-linecap: square"/>
   </g>
   <g id="patch_15">
    <path d="M 82.944 170.7264 
L 414.72 170.7264 
" style="fill: none; stroke: #000000; stroke-width: 0.8; stroke-linejoin: miter; stroke-linecap: square"/>
   </g>
   <g id="patch_16">
    <path d="M 82.944 132.7104 
L 414.72 132.7104 
" style="fill: none; stroke: #000000; stroke-width: 0.8; stroke-linejoin: miter; stroke-linecap: square"/>
   </g>
  </g>
  <g id="axes_4">
   <g id="patch_17">
    <path d="M 82.944 216.3456 
L 414.72 216.3456 
L 414.72 178.3296 
L 82.944 178.3296 
z
" style="fill: #ffffff"/>
   </g>
   <g id="matplotlib.axis_7"/>
   <g id="matplotlib.axis_8">
    <g id="ytick_3">
     <g id="line2d_4">
      <g>
       <use xlink:href="#m0912c56302" x="82.944" y="214.6176" style="stroke: #000000; stroke-width: 0.8"/>
      </g>
     </g>
     <g id="text_6">
      <!-- 0.00 -->
      <g transform="translate(53.678375 218.416819) scale(0.1 -0.1)">
       <use xlink:href="#DejaVuSans-30"/>
       <use xlink:href="#DejaVuSans-2e" x="63.623047"/>
       <use xlink:href="#DejaVuSans-30" x="95.410156"/>
       <use xlink:href="#DejaVuSans-30" x="159.033203"/>
      </g>
     </g>
    </g>
    <g id="ytick_4">
     <g id="line2d_5">
      <g>
       <use xlink:href="#m0912c56302" x="82.944" y="180.0576" style="stroke: #000000; stroke-width: 0.8"/>
      </g>
     </g>
     <g id="text_7">
      <!-- 9.84 -->
      <g transform="translate(53.678375 183.856819) scale(0.1 -0.1)">
       <defs>
        <path id="DejaVuSans-34" d="M 2419 4116 
L 825 1625 
L 2419 1625 
L 2419 4116 
z
M 2253 4666 
L 3047 4666 
L 3047 1625 
L 3713 1625 
L 3713 1100 
L 3047 1100 
L 3047 0 
L 2419 0 
L 2419 1100 
L 313 1100 
L 313 1709 
L 2253 4666 
z
" transform="scale(0.015625)"/>
       </defs>
       <use xlink:href="#DejaVuSans-39"/>
       <use xlink:href="#DejaVuSans-2e" x="63.623047"/>
       <use xlink:href="#DejaVuSans-38" x="95.410156"/>
       <use xlink:href="#DejaVuSans-34" x="159.033203"/>
      </g>
     </g>
    </g>
    <g id="text_8">
     <!-- $tr_{post}$ -->
     <g transform="translate(37.928375 194.2376) scale(0.1 -0.1)">
      <defs>
       <path id="DejaVuSans-Oblique-6f" d="M 1625 -91 
Q 1009 -91 651 289 
Q 294 669 294 1325 
Q 294 1706 417 2101 
Q 541 2497 738 2766 
Q 1047 3184 1428 3384 
Q 1809 3584 2291 3584 
Q 2888 3584 3255 3212 
Q 3622 2841 3622 2241 
Q 3622 1825 3500 1412 
Q 3378 1000 3181 728 
Q 2875 309 2494 109 
Q 2113 -91 1625 -91 
z
M 891 1344 
Q 891 869 1089 633 
Q 1288 397 1691 397 
Q 2269 397 2648 901 
Q 3028 1406 3028 2181 
Q 3028 2634 2825 2865 
Q 2622 3097 2228 3097 
Q 1903 3097 1650 2945 
Q 1397 2794 1197 2484 
Q 1050 2253 970 1956 
Q 891 1659 891 1344 
z
" transform="scale(0.015625)"/>
      </defs>
      <use xlink:href="#DejaVuSans-Oblique-74" transform="translate(0 0.78125)"/>
      <use xlink:href="#DejaVuSans-Oblique-72" transform="translate(39.208984 0.78125)"/>
      <use xlink:href="#DejaVuSans-Oblique-70" transform="translate(80.322266 -15.625) scale(0.7)"/>
      <use xlink:href="#DejaVuSans-Oblique-6f" transform="translate(124.755859 -15.625) scale(0.7)"/>
      <use xlink:href="#DejaVuSans-Oblique-73" transform="translate(167.583008 -15.625) scale(0.7)"/>
      <use xlink:href="#DejaVuSans-Oblique-74" transform="translate(204.052734 -15.625) scale(0.7)"/>
     </g>
    </g>
   </g>
   <g id="line2d_6">
    <path d="M 84.229953 214.6176 
L 86.80186 214.6176 
L 91.945674 207.765014 
L 94.517581 208.099219 
L 97.089488 204.905192 
L 99.661395 205.378872 
L 102.233302 202.317517 
L 109.949023 204.030819 
L 112.52093 201.03521 
L 120.236651 202.927128 
L 122.808558 203.497279 
L 125.380465 200.52769 
L 133.096186 202.490301 
L 135.668093 199.569825 
L 138.24 200.303713 
L 140.811907 197.489877 
L 145.955721 199.119794 
L 148.527628 199.87563 
L 151.099535 197.082673 
L 156.243349 198.751341 
L 158.815256 196.013215 
L 161.387163 196.920561 
L 163.95907 194.271723 
L 169.102884 196.207888 
L 171.674791 193.593808 
L 176.818605 195.594485 
L 181.962419 197.404772 
L 184.534326 194.732319 
L 187.106233 195.702134 
L 189.67814 193.11272 
L 194.821953 195.159179 
L 197.39386 192.596244 
L 199.965767 193.670238 
L 202.537674 191.179919 
L 205.109581 192.322988 
L 210.253395 187.592014 
L 215.397209 190.163839 
L 217.969116 191.356463 
L 220.541023 188.978988 
L 223.11293 190.229397 
L 225.684837 187.90689 
L 230.828651 190.448748 
L 235.972465 185.896132 
L 241.116279 181.776755 
L 243.688186 183.378421 
L 246.260093 181.390041 
L 251.403907 184.552059 
L 253.975814 186.018372 
L 256.547721 183.901241 
L 259.119628 185.399296 
L 261.691535 183.312358 
L 266.835349 186.291443 
L 271.979163 182.134447 
L 274.55107 183.718667 
L 277.122977 181.713692 
L 279.694884 183.318433 
L 282.266791 181.332977 
L 284.838698 182.956287 
L 287.410605 180.988494 
L 289.982512 182.628604 
L 292.554419 180.676791 
L 295.126326 182.332102 
L 297.698233 180.394751 
L 300.27014 182.063818 
L 302.842047 180.139553 
L 307.98586 183.420572 
L 310.557767 181.430135 
L 313.129674 183.048705 
L 315.701581 181.076405 
L 320.845395 184.268271 
L 323.417302 182.236491 
L 325.989209 183.815735 
L 328.561116 181.806027 
L 333.70493 184.928459 
L 336.276837 186.376416 
L 338.848744 184.241822 
L 341.420651 185.723264 
L 343.992558 183.620524 
L 349.136372 186.570284 
L 351.708279 184.426234 
L 354.280186 185.898684 
L 356.852093 183.787387 
L 361.995907 186.721269 
L 367.139721 182.523371 
L 369.711628 180.576692 
L 372.283535 182.236887 
L 374.855442 180.304181 
L 377.427349 181.977665 
L 379.999256 180.0576 
L 385.14307 183.346419 
L 390.286884 186.322266 
L 392.858791 184.190314 
L 395.430698 185.674268 
L 398.002605 183.57392 
L 403.146419 186.528115 
L 408.290233 182.348597 
L 410.86214 183.922375 
L 410.86214 183.922375 
" clip-path="url(#pdfff15fa02)" style="fill: none; stroke: #d62728; stroke-width: 1.5; stroke-linecap: square"/>
   </g>
   <g id="patch_18">
    <path d="M 82.944 216.3456 
L 82.944 178.3296 
" style="fill: none; stroke: #000000; stroke-width: 0.8; stroke-linejoin: miter; stroke-linecap: square"/>
   </g>
   <g id="patch_19">
    <path d="M 414.72 216.3456 
L 414.72 178.3296 
" style="fill: none; stroke: #000000; stroke-width: 0.8; stroke-linejoin: miter; stroke-linecap: square"/>
   </g>
   <g id="patch_20">
    <path d="M 82.944 216.3456 
L 414.72 216.3456 
" style="fill: none; stroke: #000000; stroke-width: 0.8; stroke-linejoin: miter; stroke-linecap: square"/>
   </g>
   <g id="patch_21">
    <path d="M 82.944 178.3296 
L 414.72 178.3296 
" style="fill: none; stroke: #000000; stroke-width: 0.8; stroke-linejoin: miter; stroke-linecap: square"/>
   </g>
  </g>
  <g id="axes_5">
   <g id="patch_22">
    <path d="M 82.944 261.9648 
L 414.72 261.9648 
L 414.72 223.9488 
L 82.944 223.9488 
z
" style="fill: #ffffff"/>
   </g>
   <g id="matplotlib.axis_9"/>
   <g id="matplotlib.axis_10">
    <g id="ytick_5">
     <g id="line2d_7">
      <g>
       <use xlink:href="#m0912c56302" x="82.944" y="260.2368" style="stroke: #000000; stroke-width: 0.8"/>
      </g>
     </g>
     <g id="text_9">
      <!-- 0.0183 -->
      <g transform="translate(40.953375 264.036019) scale(0.1 -0.1)">
       <defs>
        <path id="DejaVuSans-31" d="M 794 531 
L 1825 531 
L 1825 4091 
L 703 3866 
L 703 4441 
L 1819 4666 
L 2450 4666 
L 2450 531 
L 3481 531 
L 3481 0 
L 794 0 
L 794 531 
z
" transform="scale(0.015625)"/>
        <path id="DejaVuSans-33" d="M 2597 2516 
Q 3050 2419 3304 2112 
Q 3559 1806 3559 1356 
Q 3559 666 3084 287 
Q 2609 -91 1734 -91 
Q 1441 -91 1130 -33 
Q 819 25 488 141 
L 488 750 
Q 750 597 1062 519 
Q 1375 441 1716 441 
Q 2309 441 2620 675 
Q 2931 909 2931 1356 
Q 2931 1769 2642 2001 
Q 2353 2234 1838 2234 
L 1294 2234 
L 1294 2753 
L 1863 2753 
Q 2328 2753 2575 2939 
Q 2822 3125 2822 3475 
Q 2822 3834 2567 4026 
Q 2313 4219 1838 4219 
Q 1578 4219 1281 4162 
Q 984 4106 628 3988 
L 628 4550 
Q 988 4650 1302 4700 
Q 1616 4750 1894 4750 
Q 2613 4750 3031 4423 
Q 3450 4097 3450 3541 
Q 3450 3153 3228 2886 
Q 3006 2619 2597 2516 
z
" transform="scale(0.015625)"/>
       </defs>
       <use xlink:href="#DejaVuSans-30"/>
       <use xlink:href="#DejaVuSans-2e" x="63.623047"/>
       <use xlink:href="#DejaVuSans-30" x="95.410156"/>
       <use xlink:href="#DejaVuSans-31" x="159.033203"/>
       <use xlink:href="#DejaVuSans-38" x="222.65625"/>
       <use xlink:href="#DejaVuSans-33" x="286.279297"/>
      </g>
     </g>
    </g>
    <g id="ytick_6">
     <g id="line2d_8">
      <g>
       <use xlink:href="#m0912c56302" x="82.944" y="225.6768" style="stroke: #000000; stroke-width: 0.8"/>
      </g>
     </g>
     <g id="text_10">
      <!-- 0.9891 -->
      <g transform="translate(40.953375 229.476019) scale(0.1 -0.1)">
       <use xlink:href="#DejaVuSans-30"/>
       <use xlink:href="#DejaVuSans-2e" x="63.623047"/>
       <use xlink:href="#DejaVuSans-39" x="95.410156"/>
       <use xlink:href="#DejaVuSans-38" x="159.033203"/>
       <use xlink:href="#DejaVuSans-39" x="222.65625"/>
       <use xlink:href="#DejaVuSans-31" x="286.279297"/>
      </g>
     </g>
    </g>
    <g id="text_11">
     <!-- $reward$ -->
     <g transform="translate(19.403375 240.877112) scale(0.1 -0.1)">
      <defs>
       <path id="DejaVuSans-Oblique-77" d="M 544 3500 
L 1113 3500 
L 1259 684 
L 2566 3500 
L 3231 3500 
L 3425 684 
L 4666 3500 
L 5241 3500 
L 3641 0 
L 2969 0 
L 2797 2900 
L 1459 0 
L 781 0 
L 544 3500 
z
" transform="scale(0.015625)"/>
       <path id="DejaVuSans-Oblique-61" d="M 3438 1997 
L 3047 0 
L 2472 0 
L 2578 531 
Q 2325 219 2001 64 
Q 1678 -91 1281 -91 
Q 834 -91 548 182 
Q 263 456 263 884 
Q 263 1497 752 1853 
Q 1241 2209 2100 2209 
L 2900 2209 
L 2931 2363 
Q 2938 2388 2941 2417 
Q 2944 2447 2944 2509 
Q 2944 2788 2717 2942 
Q 2491 3097 2081 3097 
Q 1800 3097 1504 3025 
Q 1209 2953 897 2809 
L 997 3341 
Q 1322 3463 1633 3523 
Q 1944 3584 2234 3584 
Q 2853 3584 3176 3315 
Q 3500 3047 3500 2534 
Q 3500 2431 3484 2292 
Q 3469 2153 3438 1997 
z
M 2816 1759 
L 2241 1759 
Q 1534 1759 1195 1570 
Q 856 1381 856 984 
Q 856 709 1029 553 
Q 1203 397 1509 397 
Q 1978 397 2328 733 
Q 2678 1069 2791 1631 
L 2816 1759 
z
" transform="scale(0.015625)"/>
       <path id="DejaVuSans-Oblique-64" d="M 2675 525 
Q 2444 222 2128 65 
Q 1813 -91 1428 -91 
Q 903 -91 598 267 
Q 294 625 294 1247 
Q 294 1766 478 2236 
Q 663 2706 1013 3078 
Q 1244 3325 1534 3454 
Q 1825 3584 2144 3584 
Q 2481 3584 2739 3421 
Q 2997 3259 3138 2956 
L 3513 4863 
L 4091 4863 
L 3144 0 
L 2566 0 
L 2675 525 
z
M 891 1350 
Q 891 897 1095 644 
Q 1300 391 1663 391 
Q 1931 391 2161 520 
Q 2391 650 2566 903 
Q 2750 1166 2856 1509 
Q 2963 1853 2963 2188 
Q 2963 2622 2758 2865 
Q 2553 3109 2194 3109 
Q 1922 3109 1687 2981 
Q 1453 2853 1288 2613 
Q 1106 2353 998 2009 
Q 891 1666 891 1350 
z
" transform="scale(0.015625)"/>
      </defs>
      <use xlink:href="#DejaVuSans-Oblique-72" transform="translate(0 0.015625)"/>
      <use xlink:href="#DejaVuSans-Oblique-65" transform="translate(41.113281 0.015625)"/>
      <use xlink:href="#DejaVuSans-Oblique-77" transform="translate(102.636719 0.015625)"/>
      <use xlink:href="#DejaVuSans-Oblique-61" transform="translate(184.423828 0.015625)"/>
      <use xlink:href="#DejaVuSans-Oblique-72" transform="translate(245.703125 0.015625)"/>
      <use xlink:href="#DejaVuSans-Oblique-64" transform="translate(286.816406 0.015625)"/>
     </g>
    </g>
   </g>
   <g id="line2d_9">
    <path d="M 84.229953 256.685924 
L 86.80186 257.895426 
L 89.373767 254.425072 
L 91.945674 247.677918 
L 94.517581 234.537418 
L 97.089488 230.763786 
L 99.661395 260.2368 
L 102.233302 246.441412 
L 104.805209 231.785538 
L 107.377116 258.734331 
L 109.949023 228.472037 
L 112.52093 228.093561 
L 115.092837 252.908629 
L 117.664744 235.670031 
L 120.236651 250.524405 
L 122.808558 245.175821 
L 125.380465 236.112318 
L 127.952372 238.816451 
L 130.524279 234.264132 
L 133.096186 225.6768 
L 135.668093 260.140783 
L 138.24 228.549682 
L 140.811907 236.253462 
L 143.383814 236.598067 
L 148.527628 235.352172 
L 151.099535 244.185901 
L 153.671442 249.527707 
L 156.243349 250.227146 
L 158.815256 250.147676 
L 161.387163 242.710621 
L 163.95907 243.267174 
L 166.530977 244.688521 
L 169.102884 229.056395 
L 171.674791 255.153462 
L 174.246698 257.051383 
L 176.818605 237.64833 
L 179.390512 251.393214 
L 181.962419 249.980431 
L 184.534326 259.565068 
L 187.106233 240.831122 
L 189.67814 258.683594 
L 192.250047 245.955243 
L 194.821953 254.974937 
L 197.39386 259.874256 
L 199.965767 254.582894 
L 202.537674 236.093524 
L 205.109581 256.578824 
L 207.681488 239.761458 
L 210.253395 247.847278 
L 212.825302 244.736761 
L 215.397209 229.51444 
L 217.969116 244.356809 
L 220.541023 252.891552 
L 223.11293 234.487318 
L 225.684837 238.87165 
L 228.256744 234.241784 
L 230.828651 232.145971 
L 233.400558 258.051457 
L 235.972465 229.063317 
L 238.544372 251.029266 
L 241.116279 246.074442 
L 243.688186 260.212926 
L 246.260093 252.12881 
L 248.832 235.701768 
L 251.403907 240.219616 
L 253.975814 250.402889 
L 256.547721 248.99614 
L 259.119628 255.84935 
L 261.691535 248.581055 
L 264.263442 238.244094 
L 266.835349 247.374337 
L 269.407256 246.283327 
L 271.979163 228.70838 
L 274.55107 254.443276 
L 277.122977 246.342497 
L 279.694884 227.48712 
L 282.266791 243.860656 
L 284.838698 235.243286 
L 287.410605 243.58318 
L 289.982512 231.314257 
L 292.554419 233.872894 
L 295.126326 235.522804 
L 297.698233 226.538096 
L 300.27014 254.863734 
L 302.842047 254.440465 
L 305.413953 244.661509 
L 307.98586 251.010215 
L 310.557767 235.827267 
L 313.129674 259.686135 
L 315.701581 235.42615 
L 318.273488 254.144595 
L 320.845395 229.949819 
L 323.417302 246.855576 
L 325.989209 244.998085 
L 328.561116 255.175785 
L 331.133023 233.056992 
L 333.70493 228.554681 
L 336.276837 250.106678 
L 338.848744 234.218757 
L 341.420651 236.050324 
L 343.992558 231.869628 
L 346.564465 257.877339 
L 349.136372 236.677722 
L 351.708279 253.015732 
L 354.280186 255.841707 
L 356.852093 228.359329 
L 359.424 232.866041 
L 361.995907 234.977448 
L 364.567814 234.132122 
L 367.139721 229.293343 
L 369.711628 232.142211 
L 372.283535 259.649853 
L 374.855442 227.894135 
L 377.427349 237.248947 
L 379.999256 238.424261 
L 382.571163 228.515237 
L 385.14307 245.308144 
L 387.714977 259.677406 
L 390.286884 246.896507 
L 392.858791 226.647756 
L 395.430698 231.629627 
L 398.002605 256.38604 
L 400.574512 240.490217 
L 403.146419 233.936146 
L 405.718326 248.456728 
L 408.290233 247.86666 
L 410.86214 231.020393 
L 410.86214 231.020393 
" clip-path="url(#p4344db6c7d)" style="fill: none; stroke: #9467bd; stroke-width: 1.5; stroke-linecap: square"/>
   </g>
   <g id="patch_23">
    <path d="M 82.944 261.9648 
L 82.944 223.9488 
" style="fill: none; stroke: #000000; stroke-width: 0.8; stroke-linejoin: miter; stroke-linecap: square"/>
   </g>
   <g id="patch_24">
    <path d="M 414.72 261.9648 
L 414.72 223.9488 
" style="fill: none; stroke: #000000; stroke-width: 0.8; stroke-linejoin: miter; stroke-linecap: square"/>
   </g>
   <g id="patch_25">
    <path d="M 82.944 261.9648 
L 414.72 261.9648 
" style="fill: none; stroke: #000000; stroke-width: 0.8; stroke-linejoin: miter; stroke-linecap: square"/>
   </g>
   <g id="patch_26">
    <path d="M 82.944 223.9488 
L 414.72 223.9488 
" style="fill: none; stroke: #000000; stroke-width: 0.8; stroke-linejoin: miter; stroke-linecap: square"/>
   </g>
  </g>
  <g id="axes_6">
   <g id="patch_27">
    <path d="M 82.944 307.584 
L 414.72 307.584 
L 414.72 269.568 
L 82.944 269.568 
z
" style="fill: #ffffff"/>
   </g>
   <g id="matplotlib.axis_11">
    <g id="xtick_1">
     <g id="line2d_10">
      <defs>
       <path id="me4cac2e64d" d="M 0 0 
L 0 3.5 
" style="stroke: #000000; stroke-width: 0.8"/>
      </defs>
      <g>
       <use xlink:href="#me4cac2e64d" x="84.229953" y="307.584" style="stroke: #000000; stroke-width: 0.8"/>
      </g>
     </g>
     <g id="text_12">
      <!-- 0 -->
      <g transform="translate(81.048703 322.182437) scale(0.1 -0.1)">
       <use xlink:href="#DejaVuSans-30"/>
      </g>
     </g>
    </g>
    <g id="xtick_2">
     <g id="line2d_11">
      <g>
       <use xlink:href="#me4cac2e64d" x="135.668093" y="307.584" style="stroke: #000000; stroke-width: 0.8"/>
      </g>
     </g>
     <g id="text_13">
      <!-- 20 -->
      <g transform="translate(129.305593 322.182437) scale(0.1 -0.1)">
       <defs>
        <path id="DejaVuSans-32" d="M 1228 531 
L 3431 531 
L 3431 0 
L 469 0 
L 469 531 
Q 828 903 1448 1529 
Q 2069 2156 2228 2338 
Q 2531 2678 2651 2914 
Q 2772 3150 2772 3378 
Q 2772 3750 2511 3984 
Q 2250 4219 1831 4219 
Q 1534 4219 1204 4116 
Q 875 4013 500 3803 
L 500 4441 
Q 881 4594 1212 4672 
Q 1544 4750 1819 4750 
Q 2544 4750 2975 4387 
Q 3406 4025 3406 3419 
Q 3406 3131 3298 2873 
Q 3191 2616 2906 2266 
Q 2828 2175 2409 1742 
Q 1991 1309 1228 531 
z
" transform="scale(0.015625)"/>
       </defs>
       <use xlink:href="#DejaVuSans-32"/>
       <use xlink:href="#DejaVuSans-30" x="63.623047"/>
      </g>
     </g>
    </g>
    <g id="xtick_3">
     <g id="line2d_12">
      <g>
       <use xlink:href="#me4cac2e64d" x="187.106233" y="307.584" style="stroke: #000000; stroke-width: 0.8"/>
      </g>
     </g>
     <g id="text_14">
      <!-- 40 -->
      <g transform="translate(180.743733 322.182437) scale(0.1 -0.1)">
       <use xlink:href="#DejaVuSans-34"/>
       <use xlink:href="#DejaVuSans-30" x="63.623047"/>
      </g>
     </g>
    </g>
    <g id="xtick_4">
     <g id="line2d_13">
      <g>
       <use xlink:href="#me4cac2e64d" x="238.544372" y="307.584" style="stroke: #000000; stroke-width: 0.8"/>
      </g>
     </g>
     <g id="text_15">
      <!-- 60 -->
      <g transform="translate(232.181872 322.182437) scale(0.1 -0.1)">
       <use xlink:href="#DejaVuSans-36"/>
       <use xlink:href="#DejaVuSans-30" x="63.623047"/>
      </g>
     </g>
    </g>
    <g id="xtick_5">
     <g id="line2d_14">
      <g>
       <use xlink:href="#me4cac2e64d" x="289.982512" y="307.584" style="stroke: #000000; stroke-width: 0.8"/>
      </g>
     </g>
     <g id="text_16">
      <!-- 80 -->
      <g transform="translate(283.620012 322.182437) scale(0.1 -0.1)">
       <use xlink:href="#DejaVuSans-38"/>
       <use xlink:href="#DejaVuSans-30" x="63.623047"/>
      </g>
     </g>
    </g>
    <g id="xtick_6">
     <g id="line2d_15">
      <g>
       <use xlink:href="#me4cac2e64d" x="341.420651" y="307.584" style="stroke: #000000; stroke-width: 0.8"/>
      </g>
     </g>
     <g id="text_17">
      <!-- 100 -->
      <g transform="translate(331.876901 322.182437) scale(0.1 -0.1)">
       <use xlink:href="#DejaVuSans-31"/>
       <use xlink:href="#DejaVuSans-30" x="63.623047"/>
       <use xlink:href="#DejaVuSans-30" x="127.246094"/>
      </g>
     </g>
    </g>
    <g id="xtick_7">
     <g id="line2d_16">
      <g>
       <use xlink:href="#me4cac2e64d" x="392.858791" y="307.584" style="stroke: #000000; stroke-width: 0.8"/>
      </g>
     </g>
     <g id="text_18">
      <!-- 120 -->
      <g transform="translate(383.315041 322.182437) scale(0.1 -0.1)">
       <use xlink:href="#DejaVuSans-31"/>
       <use xlink:href="#DejaVuSans-32" x="63.623047"/>
       <use xlink:href="#DejaVuSans-30" x="127.246094"/>
      </g>
     </g>
    </g>
    <g id="text_19">
     <!-- time-step -->
     <g transform="translate(224.916375 335.860562) scale(0.1 -0.1)">
      <defs>
       <path id="DejaVuSans-74" d="M 1172 4494 
L 1172 3500 
L 2356 3500 
L 2356 3053 
L 1172 3053 
L 1172 1153 
Q 1172 725 1289 603 
Q 1406 481 1766 481 
L 2356 481 
L 2356 0 
L 1766 0 
Q 1100 0 847 248 
Q 594 497 594 1153 
L 594 3053 
L 172 3053 
L 172 3500 
L 594 3500 
L 594 4494 
L 1172 4494 
z
" transform="scale(0.015625)"/>
       <path id="DejaVuSans-69" d="M 603 3500 
L 1178 3500 
L 1178 0 
L 603 0 
L 603 3500 
z
M 603 4863 
L 1178 4863 
L 1178 4134 
L 603 4134 
L 603 4863 
z
" transform="scale(0.015625)"/>
       <path id="DejaVuSans-6d" d="M 3328 2828 
Q 3544 3216 3844 3400 
Q 4144 3584 4550 3584 
Q 5097 3584 5394 3201 
Q 5691 2819 5691 2113 
L 5691 0 
L 5113 0 
L 5113 2094 
Q 5113 2597 4934 2840 
Q 4756 3084 4391 3084 
Q 3944 3084 3684 2787 
Q 3425 2491 3425 1978 
L 3425 0 
L 2847 0 
L 2847 2094 
Q 2847 2600 2669 2842 
Q 2491 3084 2119 3084 
Q 1678 3084 1418 2786 
Q 1159 2488 1159 1978 
L 1159 0 
L 581 0 
L 581 3500 
L 1159 3500 
L 1159 2956 
Q 1356 3278 1631 3431 
Q 1906 3584 2284 3584 
Q 2666 3584 2933 3390 
Q 3200 3197 3328 2828 
z
" transform="scale(0.015625)"/>
       <path id="DejaVuSans-65" d="M 3597 1894 
L 3597 1613 
L 953 1613 
Q 991 1019 1311 708 
Q 1631 397 2203 397 
Q 2534 397 2845 478 
Q 3156 559 3463 722 
L 3463 178 
Q 3153 47 2828 -22 
Q 2503 -91 2169 -91 
Q 1331 -91 842 396 
Q 353 884 353 1716 
Q 353 2575 817 3079 
Q 1281 3584 2069 3584 
Q 2775 3584 3186 3129 
Q 3597 2675 3597 1894 
z
M 3022 2063 
Q 3016 2534 2758 2815 
Q 2500 3097 2075 3097 
Q 1594 3097 1305 2825 
Q 1016 2553 972 2059 
L 3022 2063 
z
" transform="scale(0.015625)"/>
       <path id="DejaVuSans-2d" d="M 313 2009 
L 1997 2009 
L 1997 1497 
L 313 1497 
L 313 2009 
z
" transform="scale(0.015625)"/>
       <path id="DejaVuSans-73" d="M 2834 3397 
L 2834 2853 
Q 2591 2978 2328 3040 
Q 2066 3103 1784 3103 
Q 1356 3103 1142 2972 
Q 928 2841 928 2578 
Q 928 2378 1081 2264 
Q 1234 2150 1697 2047 
L 1894 2003 
Q 2506 1872 2764 1633 
Q 3022 1394 3022 966 
Q 3022 478 2636 193 
Q 2250 -91 1575 -91 
Q 1294 -91 989 -36 
Q 684 19 347 128 
L 347 722 
Q 666 556 975 473 
Q 1284 391 1588 391 
Q 1994 391 2212 530 
Q 2431 669 2431 922 
Q 2431 1156 2273 1281 
Q 2116 1406 1581 1522 
L 1381 1569 
Q 847 1681 609 1914 
Q 372 2147 372 2553 
Q 372 3047 722 3315 
Q 1072 3584 1716 3584 
Q 2034 3584 2315 3537 
Q 2597 3491 2834 3397 
z
" transform="scale(0.015625)"/>
       <path id="DejaVuSans-70" d="M 1159 525 
L 1159 -1331 
L 581 -1331 
L 581 3500 
L 1159 3500 
L 1159 2969 
Q 1341 3281 1617 3432 
Q 1894 3584 2278 3584 
Q 2916 3584 3314 3078 
Q 3713 2572 3713 1747 
Q 3713 922 3314 415 
Q 2916 -91 2278 -91 
Q 1894 -91 1617 61 
Q 1341 213 1159 525 
z
M 3116 1747 
Q 3116 2381 2855 2742 
Q 2594 3103 2138 3103 
Q 1681 3103 1420 2742 
Q 1159 2381 1159 1747 
Q 1159 1113 1420 752 
Q 1681 391 2138 391 
Q 2594 391 2855 752 
Q 3116 1113 3116 1747 
z
" transform="scale(0.015625)"/>
      </defs>
      <use xlink:href="#DejaVuSans-74"/>
      <use xlink:href="#DejaVuSans-69" x="39.208984"/>
      <use xlink:href="#DejaVuSans-6d" x="66.992188"/>
      <use xlink:href="#DejaVuSans-65" x="164.404297"/>
      <use xlink:href="#DejaVuSans-2d" x="225.927734"/>
      <use xlink:href="#DejaVuSans-73" x="262.011719"/>
      <use xlink:href="#DejaVuSans-74" x="314.111328"/>
      <use xlink:href="#DejaVuSans-65" x="353.320312"/>
      <use xlink:href="#DejaVuSans-70" x="414.84375"/>
     </g>
    </g>
   </g>
   <g id="matplotlib.axis_12">
    <g id="ytick_7">
     <g id="line2d_17">
      <g>
       <use xlink:href="#m0912c56302" x="82.944" y="305.856" style="stroke: #000000; stroke-width: 0.8"/>
      </g>
     </g>
     <g id="text_20">
      <!-- 0.1567 -->
      <g transform="translate(40.953375 309.655219) scale(0.1 -0.1)">
       <defs>
        <path id="DejaVuSans-37" d="M 525 4666 
L 3525 4666 
L 3525 4397 
L 1831 0 
L 1172 0 
L 2766 4134 
L 525 4134 
L 525 4666 
z
" transform="scale(0.015625)"/>
       </defs>
       <use xlink:href="#DejaVuSans-30"/>
       <use xlink:href="#DejaVuSans-2e" x="63.623047"/>
       <use xlink:href="#DejaVuSans-31" x="95.410156"/>
       <use xlink:href="#DejaVuSans-35" x="159.033203"/>
       <use xlink:href="#DejaVuSans-36" x="222.65625"/>
       <use xlink:href="#DejaVuSans-37" x="286.279297"/>
      </g>
     </g>
    </g>
    <g id="ytick_8">
     <g id="line2d_18">
      <g>
       <use xlink:href="#m0912c56302" x="82.944" y="271.296" style="stroke: #000000; stroke-width: 0.8"/>
      </g>
     </g>
     <g id="text_21">
      <!-- 0.5063 -->
      <g transform="translate(40.953375 275.095219) scale(0.1 -0.1)">
       <use xlink:href="#DejaVuSans-30"/>
       <use xlink:href="#DejaVuSans-2e" x="63.623047"/>
       <use xlink:href="#DejaVuSans-35" x="95.410156"/>
       <use xlink:href="#DejaVuSans-30" x="159.033203"/>
       <use xlink:href="#DejaVuSans-36" x="222.65625"/>
       <use xlink:href="#DejaVuSans-33" x="286.279297"/>
      </g>
     </g>
    </g>
    <g id="text_22">
     <!-- $w[i][j]$ -->
     <g transform="translate(22.253375 286.476) scale(0.1 -0.1)">
      <use xlink:href="#DejaVuSans-Oblique-77" transform="translate(0 0.015625)"/>
      <use xlink:href="#DejaVuSans-5b" transform="translate(81.787109 0.015625)"/>
      <use xlink:href="#DejaVuSans-Oblique-69" transform="translate(120.800781 0.015625)"/>
      <use xlink:href="#DejaVuSans-5d" transform="translate(148.583984 0.015625)"/>
      <use xlink:href="#DejaVuSans-5b" transform="translate(187.597656 0.015625)"/>
      <use xlink:href="#DejaVuSans-Oblique-6a" transform="translate(226.611328 0.015625)"/>
      <use xlink:href="#DejaVuSans-5d" transform="translate(254.394531 0.015625)"/>
     </g>
    </g>
   </g>
   <g id="line2d_19">
    <path d="M 84.229953 281.807743 
L 99.661395 281.807743 
L 102.233302 283.112634 
L 104.805209 283.553104 
L 107.377116 283.553104 
L 109.949023 282.962959 
L 112.52093 286.537343 
L 115.092837 286.607973 
L 117.664744 285.013825 
L 125.380465 285.013825 
L 127.952372 284.565845 
L 130.524279 284.565845 
L 133.096186 288.115203 
L 135.668093 287.677484 
L 138.24 287.047475 
L 140.811907 287.548136 
L 143.383814 284.50498 
L 145.955721 282.941262 
L 151.099535 282.941262 
L 156.243349 280.559581 
L 158.815256 281.907055 
L 161.387163 281.991251 
L 163.95907 284.456914 
L 166.530977 281.94067 
L 169.102884 286.811603 
L 171.674791 286.832398 
L 174.246698 286.121538 
L 176.818605 288.131589 
L 184.534326 288.097917 
L 187.106233 288.373556 
L 189.67814 289.134128 
L 192.250047 286.264075 
L 197.39386 286.264075 
L 199.965767 285.761496 
L 202.537674 286.088641 
L 205.109581 283.284707 
L 207.681488 283.284707 
L 210.253395 284.037377 
L 212.825302 283.907092 
L 215.397209 290.284094 
L 217.969116 292.357054 
L 220.541023 294.101022 
L 223.11293 288.676912 
L 225.684837 288.130796 
L 230.828651 288.064823 
L 233.400558 289.186302 
L 235.972465 283.333564 
L 238.544372 281.608747 
L 241.116279 279.208188 
L 243.688186 281.471527 
L 246.260093 281.471527 
L 248.832 277.262214 
L 251.403907 275.047427 
L 256.547721 275.047427 
L 259.119628 274.667883 
L 261.691535 274.667883 
L 264.263442 272.868865 
L 269.407256 272.868865 
L 271.979163 276.233795 
L 274.55107 275.410149 
L 277.122977 275.410149 
L 279.694884 279.459002 
L 282.266791 279.459002 
L 284.838698 276.131752 
L 287.410605 276.131752 
L 289.982512 271.323373 
L 292.554419 278.156235 
L 295.126326 271.296 
L 297.698233 271.296 
L 300.27014 271.523824 
L 302.842047 276.205686 
L 305.413953 279.297929 
L 307.98586 278.055253 
L 310.557767 278.055253 
L 313.129674 277.904976 
L 315.701581 279.730982 
L 318.273488 278.875988 
L 320.845395 280.142212 
L 323.417302 284.876334 
L 325.989209 277.634891 
L 328.561116 277.634891 
L 331.133023 281.699929 
L 333.70493 281.699929 
L 336.276837 284.784822 
L 338.848744 284.855801 
L 341.420651 282.283425 
L 343.992558 281.779017 
L 346.564465 282.151299 
L 349.136372 282.151299 
L 351.708279 281.870372 
L 354.280186 282.407356 
L 356.852093 280.012716 
L 359.424 291.143168 
L 361.995907 291.143168 
L 367.139721 294.616286 
L 369.711628 289.663326 
L 372.283535 294.444243 
L 374.855442 294.444243 
L 377.427349 291.841169 
L 379.999256 305.856 
L 382.571163 300.792394 
L 385.14307 300.792394 
L 387.714977 299.149167 
L 392.858791 299.149167 
L 395.430698 302.526609 
L 398.002605 302.526609 
L 400.574512 299.378751 
L 405.718326 299.378751 
L 408.290233 301.436354 
L 410.86214 298.4452 
L 410.86214 298.4452 
" clip-path="url(#pb1a418ed40)" style="fill: none; stroke: #8c564b; stroke-width: 1.5; stroke-linecap: square"/>
   </g>
   <g id="patch_28">
    <path d="M 82.944 307.584 
L 82.944 269.568 
" style="fill: none; stroke: #000000; stroke-width: 0.8; stroke-linejoin: miter; stroke-linecap: square"/>
   </g>
   <g id="patch_29">
    <path d="M 414.72 307.584 
L 414.72 269.568 
" style="fill: none; stroke: #000000; stroke-width: 0.8; stroke-linejoin: miter; stroke-linecap: square"/>
   </g>
   <g id="patch_30">
    <path d="M 82.944 307.584 
L 414.72 307.584 
" style="fill: none; stroke: #000000; stroke-width: 0.8; stroke-linejoin: miter; stroke-linecap: square"/>
   </g>
   <g id="patch_31">
    <path d="M 82.944 269.568 
L 414.72 269.568 
" style="fill: none; stroke: #000000; stroke-width: 0.8; stroke-linejoin: miter; stroke-linecap: square"/>
   </g>
  </g>
 </g>
 <defs>
  <clipPath id="pd98c137f7e">
   <rect x="82.944" y="41.472" width="331.776" height="38.016"/>
  </clipPath>
  <clipPath id="p80ea90365b">
   <rect x="82.944" y="87.0912" width="331.776" height="38.016"/>
  </clipPath>
  <clipPath id="pf576a25c31">
   <rect x="82.944" y="132.7104" width="331.776" height="38.016"/>
  </clipPath>
  <clipPath id="pdfff15fa02">
   <rect x="82.944" y="178.3296" width="331.776" height="38.016"/>
  </clipPath>
  <clipPath id="p4344db6c7d">
   <rect x="82.944" y="223.9488" width="331.776" height="38.016"/>
  </clipPath>
  <clipPath id="pb1a418ed40">
   <rect x="82.944" y="269.568" width="331.776" height="38.016"/>
  </clipPath>
 </defs>
</svg>
