<?xml version="1.0" encoding="utf-8" standalone="no"?>
<!DOCTYPE svg PUBLIC "-//W3C//DTD SVG 1.1//EN"
  "http://www.w3.org/Graphics/SVG/1.1/DTD/svg11.dtd">
<!-- Created with matplotlib (https://matplotlib.org/) -->
<svg height="504.625304pt" version="1.1" viewBox="0 0 714.742709 504.625304" width="714.742709pt" xmlns="http://www.w3.org/2000/svg" xmlns:xlink="http://www.w3.org/1999/xlink">
 <metadata>
  <rdf:RDF xmlns:cc="http://creativecommons.org/ns#" xmlns:dc="http://purl.org/dc/elements/1.1/" xmlns:rdf="http://www.w3.org/1999/02/22-rdf-syntax-ns#">
   <cc:Work>
    <dc:type rdf:resource="http://purl.org/dc/dcmitype/StillImage"/>
    <dc:date>2021-04-14T19:35:49.274725</dc:date>
    <dc:format>image/svg+xml</dc:format>
    <dc:creator>
     <cc:Agent>
      <dc:title>Matplotlib v3.3.3, https://matplotlib.org/</dc:title>
     </cc:Agent>
    </dc:creator>
   </cc:Work>
  </rdf:RDF>
 </metadata>
 <defs>
  <style type="text/css">*{stroke-linecap:butt;stroke-linejoin:round;}</style>
 </defs>
 <g id="figure_1">
  <g id="patch_1">
   <path d="M 0 504.625304 
L 714.742709 504.625304 
L 714.742709 0 
L 0 0 
z
" style="fill:#ffffff;"/>
  </g>
  <g id="axes_1">
   <g id="patch_2">
    <path d="M 41.542709 466.956997 
L 711.142709 466.956997 
L 711.142709 23.436997 
L 41.542709 23.436997 
z
" style="fill:#ffffff;"/>
   </g>
   <g id="matplotlib.axis_1">
    <g id="xtick_1">
     <g id="line2d_1">
      <path clip-path="url(#p8b3a06fc9f)" d="M 71.979073 466.956997 
L 71.979073 23.436997 
" style="fill:none;stroke:#b0b0b0;stroke-dasharray:3.2,0.8,0.5,0.8;stroke-dashoffset:0;stroke-width:0.5;"/>
     </g>
     <g id="line2d_2">
      <defs>
       <path d="M 0 0 
L 0 -3 
" id="m685807c044" style="stroke:#000000;stroke-width:0.5;"/>
      </defs>
      <g>
       <use style="stroke:#000000;stroke-width:0.5;" x="71.979073" xlink:href="#m685807c044" y="466.956997"/>
      </g>
     </g>
     <g id="line2d_3">
      <defs>
       <path d="M 0 0 
L 0 3 
" id="mdfbeec1f3d" style="stroke:#000000;stroke-width:0.5;"/>
      </defs>
      <g>
       <use style="stroke:#000000;stroke-width:0.5;" x="71.979073" xlink:href="#mdfbeec1f3d" y="23.436997"/>
      </g>
     </g>
     <g id="text_1">
      <!-- $\mathdefault{0}$ -->
      <g transform="translate(69.488405 477.375495)scale(0.1 -0.1)">
       <defs>
        <path d="M 42 31.640625 
C 42 37.75 41.90625 48.125 37.703125 56.109375 
C 34 63.109375 28.09375 65.59375 22.90625 65.59375 
C 18.09375 65.59375 12 63.40625 8.203125 56.203125 
C 4.203125 48.71875 3.796875 39.4375 3.796875 31.640625 
C 3.796875 25.953125 3.90625 17.28125 7 9.671875 
C 11.296875 -0.609375 19 -2 22.90625 -2 
C 27.5 -2 34.5 -0.109375 38.59375 9.375 
C 41.59375 16.28125 42 24.359375 42 31.640625 
z
M 22.90625 -0.40625 
C 16.5 -0.40625 12.703125 5.078125 11.296875 12.6875 
C 10.203125 18.5625 10.203125 27.15625 10.203125 32.75 
C 10.203125 40.4375 10.203125 46.828125 11.5 52.921875 
C 13.40625 61.390625 19 64 22.90625 64 
C 27 64 32.296875 61.296875 34.203125 53.125 
C 35.5 47.4375 35.59375 40.734375 35.59375 32.75 
C 35.59375 26.25 35.59375 18.265625 34.40625 12.375 
C 32.296875 1.484375 26.40625 -0.40625 22.90625 -0.40625 
z
" id="CMR17-48"/>
       </defs>
       <use transform="scale(0.996264)" xlink:href="#CMR17-48"/>
      </g>
     </g>
    </g>
    <g id="xtick_2">
     <g id="line2d_4">
      <path clip-path="url(#p8b3a06fc9f)" d="M 191.337362 466.956997 
L 191.337362 23.436997 
" style="fill:none;stroke:#b0b0b0;stroke-dasharray:3.2,0.8,0.5,0.8;stroke-dashoffset:0;stroke-width:0.5;"/>
     </g>
     <g id="line2d_5">
      <g>
       <use style="stroke:#000000;stroke-width:0.5;" x="191.337362" xlink:href="#m685807c044" y="466.956997"/>
      </g>
     </g>
     <g id="line2d_6">
      <g>
       <use style="stroke:#000000;stroke-width:0.5;" x="191.337362" xlink:href="#mdfbeec1f3d" y="23.436997"/>
      </g>
     </g>
     <g id="text_2">
      <!-- $\mathdefault{50}$ -->
      <g transform="translate(186.356027 477.375495)scale(0.1 -0.1)">
       <defs>
        <path d="M 11.40625 57.6875 
C 12.40625 57.28125 16.5 56 20.703125 56 
C 30 56 35.09375 61.109375 38 64.0625 
C 38 64.953125 38 65.5 37.40625 65.5 
C 37.296875 65.5 37.09375 65.5 36.296875 65.046875 
C 32.796875 63.40625 28.703125 62.078125 23.703125 62.078125 
C 20.703125 62.078125 16.203125 62.484375 11.296875 64.671875 
C 10.203125 65.171875 10 65.171875 9.90625 65.171875 
C 9.40625 65.171875 9.296875 65.0625 9.296875 63.078125 
L 9.296875 34.421875 
C 9.296875 32.640625 9.296875 32.140625 10.296875 32.140625 
C 10.796875 32.140625 11 32.34375 11.5 33.03125 
C 14.703125 37.515625 19.09375 39.40625 24.09375 39.40625 
C 27.59375 39.40625 35.09375 37.21875 35.09375 20.140625 
C 35.09375 16.953125 35.09375 11.171875 32.09375 6.578125 
C 29.59375 2.484375 25.703125 0.390625 21.40625 0.390625 
C 14.796875 0.390625 8.09375 5 6.296875 12.71875 
C 6.703125 12.609375 7.5 12.421875 7.90625 12.421875 
C 9.203125 12.421875 11.703125 13.125 11.703125 16.21875 
C 11.703125 18.90625 9.796875 20 7.90625 20 
C 5.59375 20 4.09375 18.59375 4.09375 15.796875 
C 4.09375 7.09375 11 -2 21.59375 -2 
C 31.90625 -2 41.703125 6.875 41.703125 19.75 
C 41.703125 31.71875 33.90625 41 24.203125 41 
C 19.09375 41 14.796875 39.109375 11.40625 35.53125 
z
" id="CMR17-53"/>
       </defs>
       <use transform="scale(0.996264)" xlink:href="#CMR17-53"/>
       <use transform="translate(45.690477 0)scale(0.996264)" xlink:href="#CMR17-48"/>
      </g>
     </g>
    </g>
    <g id="xtick_3">
     <g id="line2d_7">
      <path clip-path="url(#p8b3a06fc9f)" d="M 310.695651 466.956997 
L 310.695651 23.436997 
" style="fill:none;stroke:#b0b0b0;stroke-dasharray:3.2,0.8,0.5,0.8;stroke-dashoffset:0;stroke-width:0.5;"/>
     </g>
     <g id="line2d_8">
      <g>
       <use style="stroke:#000000;stroke-width:0.5;" x="310.695651" xlink:href="#m685807c044" y="466.956997"/>
      </g>
     </g>
     <g id="line2d_9">
      <g>
       <use style="stroke:#000000;stroke-width:0.5;" x="310.695651" xlink:href="#mdfbeec1f3d" y="23.436997"/>
      </g>
     </g>
     <g id="text_3">
      <!-- $\mathdefault{100}$ -->
      <g transform="translate(303.223648 477.375495)scale(0.1 -0.1)">
       <defs>
        <path d="M 26.59375 63.40625 
C 26.59375 65.5 26.5 65.5 25.09375 65.5 
C 21.203125 61.1875 15.296875 59.796875 9.703125 59.796875 
C 9.40625 59.796875 8.90625 59.796875 8.796875 59.5 
C 8.703125 59.296875 8.703125 59.09375 8.703125 57 
C 11.796875 57 17 57.59375 21 59.984375 
L 21 7.203125 
C 21 3.6875 20.796875 2.5 12.203125 2.5 
L 9.203125 2.5 
L 9.203125 0 
C 14 0 19 0 23.796875 0 
C 28.59375 0 33.59375 0 38.40625 0 
L 38.40625 2.5 
L 35.40625 2.5 
C 26.796875 2.5 26.59375 3.59375 26.59375 7.15625 
z
" id="CMR17-49"/>
       </defs>
       <use transform="scale(0.996264)" xlink:href="#CMR17-49"/>
       <use transform="translate(45.690477 0)scale(0.996264)" xlink:href="#CMR17-48"/>
       <use transform="translate(91.380954 0)scale(0.996264)" xlink:href="#CMR17-48"/>
      </g>
     </g>
    </g>
    <g id="xtick_4">
     <g id="line2d_10">
      <path clip-path="url(#p8b3a06fc9f)" d="M 430.053939 466.956997 
L 430.053939 23.436997 
" style="fill:none;stroke:#b0b0b0;stroke-dasharray:3.2,0.8,0.5,0.8;stroke-dashoffset:0;stroke-width:0.5;"/>
     </g>
     <g id="line2d_11">
      <g>
       <use style="stroke:#000000;stroke-width:0.5;" x="430.053939" xlink:href="#m685807c044" y="466.956997"/>
      </g>
     </g>
     <g id="line2d_12">
      <g>
       <use style="stroke:#000000;stroke-width:0.5;" x="430.053939" xlink:href="#mdfbeec1f3d" y="23.436997"/>
      </g>
     </g>
     <g id="text_4">
      <!-- $\mathdefault{150}$ -->
      <g transform="translate(422.581936 477.375495)scale(0.1 -0.1)">
       <use transform="scale(0.996264)" xlink:href="#CMR17-49"/>
       <use transform="translate(45.690477 0)scale(0.996264)" xlink:href="#CMR17-53"/>
       <use transform="translate(91.380954 0)scale(0.996264)" xlink:href="#CMR17-48"/>
      </g>
     </g>
    </g>
    <g id="xtick_5">
     <g id="line2d_13">
      <path clip-path="url(#p8b3a06fc9f)" d="M 549.412228 466.956997 
L 549.412228 23.436997 
" style="fill:none;stroke:#b0b0b0;stroke-dasharray:3.2,0.8,0.5,0.8;stroke-dashoffset:0;stroke-width:0.5;"/>
     </g>
     <g id="line2d_14">
      <g>
       <use style="stroke:#000000;stroke-width:0.5;" x="549.412228" xlink:href="#m685807c044" y="466.956997"/>
      </g>
     </g>
     <g id="line2d_15">
      <g>
       <use style="stroke:#000000;stroke-width:0.5;" x="549.412228" xlink:href="#mdfbeec1f3d" y="23.436997"/>
      </g>
     </g>
     <g id="text_5">
      <!-- $\mathdefault{200}$ -->
      <g transform="translate(541.940225 477.375495)scale(0.1 -0.1)">
       <defs>
        <path d="M 41.703125 15.453125 
L 39.90625 15.453125 
C 38.90625 8.375 38.09375 7.171875 37.703125 6.5625 
C 37.203125 5.765625 30 5.765625 28.59375 5.765625 
L 9.40625 5.765625 
C 13 9.671875 20 16.75 28.5 24.953125 
C 34.59375 30.734375 41.703125 37.53125 41.703125 47.421875 
C 41.703125 59.21875 32.296875 66 21.796875 66 
C 10.796875 66 4.09375 56.3125 4.09375 47.34375 
C 4.09375 43.4375 7 42.9375 8.203125 42.9375 
C 9.203125 42.9375 12.203125 43.546875 12.203125 47.03125 
C 12.203125 50.109375 9.59375 51 8.203125 51 
C 7.59375 51 7 50.90625 6.59375 50.703125 
C 8.5 59.21875 14.296875 63.40625 20.40625 63.40625 
C 29.09375 63.40625 34.796875 56.515625 34.796875 47.421875 
C 34.796875 38.734375 29.703125 31.25 24 24.75 
L 4.09375 2.28125 
L 4.09375 0 
L 39.296875 0 
z
" id="CMR17-50"/>
       </defs>
       <use transform="scale(0.996264)" xlink:href="#CMR17-50"/>
       <use transform="translate(45.690477 0)scale(0.996264)" xlink:href="#CMR17-48"/>
       <use transform="translate(91.380954 0)scale(0.996264)" xlink:href="#CMR17-48"/>
      </g>
     </g>
    </g>
    <g id="xtick_6">
     <g id="line2d_16">
      <path clip-path="url(#p8b3a06fc9f)" d="M 668.770517 466.956997 
L 668.770517 23.436997 
" style="fill:none;stroke:#b0b0b0;stroke-dasharray:3.2,0.8,0.5,0.8;stroke-dashoffset:0;stroke-width:0.5;"/>
     </g>
     <g id="line2d_17">
      <g>
       <use style="stroke:#000000;stroke-width:0.5;" x="668.770517" xlink:href="#m685807c044" y="466.956997"/>
      </g>
     </g>
     <g id="line2d_18">
      <g>
       <use style="stroke:#000000;stroke-width:0.5;" x="668.770517" xlink:href="#mdfbeec1f3d" y="23.436997"/>
      </g>
     </g>
     <g id="text_6">
      <!-- $\mathdefault{250}$ -->
      <g transform="translate(661.298514 477.375495)scale(0.1 -0.1)">
       <use transform="scale(0.996264)" xlink:href="#CMR17-50"/>
       <use transform="translate(45.690477 0)scale(0.996264)" xlink:href="#CMR17-53"/>
       <use transform="translate(91.380954 0)scale(0.996264)" xlink:href="#CMR17-48"/>
      </g>
     </g>
    </g>
    <g id="xtick_7">
     <g id="line2d_19">
      <defs>
       <path d="M 0 0 
L 0 -1.5 
" id="m93e5050c3c" style="stroke:#000000;stroke-width:0.5;"/>
      </defs>
      <g>
       <use style="stroke:#000000;stroke-width:0.5;" x="48.107415" xlink:href="#m93e5050c3c" y="466.956997"/>
      </g>
     </g>
     <g id="line2d_20">
      <defs>
       <path d="M 0 0 
L 0 1.5 
" id="m8ccc5feae0" style="stroke:#000000;stroke-width:0.5;"/>
      </defs>
      <g>
       <use style="stroke:#000000;stroke-width:0.5;" x="48.107415" xlink:href="#m8ccc5feae0" y="23.436997"/>
      </g>
     </g>
    </g>
    <g id="xtick_8">
     <g id="line2d_21">
      <g>
       <use style="stroke:#000000;stroke-width:0.5;" x="95.850731" xlink:href="#m93e5050c3c" y="466.956997"/>
      </g>
     </g>
     <g id="line2d_22">
      <g>
       <use style="stroke:#000000;stroke-width:0.5;" x="95.850731" xlink:href="#m8ccc5feae0" y="23.436997"/>
      </g>
     </g>
    </g>
    <g id="xtick_9">
     <g id="line2d_23">
      <g>
       <use style="stroke:#000000;stroke-width:0.5;" x="119.722388" xlink:href="#m93e5050c3c" y="466.956997"/>
      </g>
     </g>
     <g id="line2d_24">
      <g>
       <use style="stroke:#000000;stroke-width:0.5;" x="119.722388" xlink:href="#m8ccc5feae0" y="23.436997"/>
      </g>
     </g>
    </g>
    <g id="xtick_10">
     <g id="line2d_25">
      <g>
       <use style="stroke:#000000;stroke-width:0.5;" x="143.594046" xlink:href="#m93e5050c3c" y="466.956997"/>
      </g>
     </g>
     <g id="line2d_26">
      <g>
       <use style="stroke:#000000;stroke-width:0.5;" x="143.594046" xlink:href="#m8ccc5feae0" y="23.436997"/>
      </g>
     </g>
    </g>
    <g id="xtick_11">
     <g id="line2d_27">
      <g>
       <use style="stroke:#000000;stroke-width:0.5;" x="167.465704" xlink:href="#m93e5050c3c" y="466.956997"/>
      </g>
     </g>
     <g id="line2d_28">
      <g>
       <use style="stroke:#000000;stroke-width:0.5;" x="167.465704" xlink:href="#m8ccc5feae0" y="23.436997"/>
      </g>
     </g>
    </g>
    <g id="xtick_12">
     <g id="line2d_29">
      <g>
       <use style="stroke:#000000;stroke-width:0.5;" x="215.20902" xlink:href="#m93e5050c3c" y="466.956997"/>
      </g>
     </g>
     <g id="line2d_30">
      <g>
       <use style="stroke:#000000;stroke-width:0.5;" x="215.20902" xlink:href="#m8ccc5feae0" y="23.436997"/>
      </g>
     </g>
    </g>
    <g id="xtick_13">
     <g id="line2d_31">
      <g>
       <use style="stroke:#000000;stroke-width:0.5;" x="239.080677" xlink:href="#m93e5050c3c" y="466.956997"/>
      </g>
     </g>
     <g id="line2d_32">
      <g>
       <use style="stroke:#000000;stroke-width:0.5;" x="239.080677" xlink:href="#m8ccc5feae0" y="23.436997"/>
      </g>
     </g>
    </g>
    <g id="xtick_14">
     <g id="line2d_33">
      <g>
       <use style="stroke:#000000;stroke-width:0.5;" x="262.952335" xlink:href="#m93e5050c3c" y="466.956997"/>
      </g>
     </g>
     <g id="line2d_34">
      <g>
       <use style="stroke:#000000;stroke-width:0.5;" x="262.952335" xlink:href="#m8ccc5feae0" y="23.436997"/>
      </g>
     </g>
    </g>
    <g id="xtick_15">
     <g id="line2d_35">
      <g>
       <use style="stroke:#000000;stroke-width:0.5;" x="286.823993" xlink:href="#m93e5050c3c" y="466.956997"/>
      </g>
     </g>
     <g id="line2d_36">
      <g>
       <use style="stroke:#000000;stroke-width:0.5;" x="286.823993" xlink:href="#m8ccc5feae0" y="23.436997"/>
      </g>
     </g>
    </g>
    <g id="xtick_16">
     <g id="line2d_37">
      <g>
       <use style="stroke:#000000;stroke-width:0.5;" x="334.567308" xlink:href="#m93e5050c3c" y="466.956997"/>
      </g>
     </g>
     <g id="line2d_38">
      <g>
       <use style="stroke:#000000;stroke-width:0.5;" x="334.567308" xlink:href="#m8ccc5feae0" y="23.436997"/>
      </g>
     </g>
    </g>
    <g id="xtick_17">
     <g id="line2d_39">
      <g>
       <use style="stroke:#000000;stroke-width:0.5;" x="358.438966" xlink:href="#m93e5050c3c" y="466.956997"/>
      </g>
     </g>
     <g id="line2d_40">
      <g>
       <use style="stroke:#000000;stroke-width:0.5;" x="358.438966" xlink:href="#m8ccc5feae0" y="23.436997"/>
      </g>
     </g>
    </g>
    <g id="xtick_18">
     <g id="line2d_41">
      <g>
       <use style="stroke:#000000;stroke-width:0.5;" x="382.310624" xlink:href="#m93e5050c3c" y="466.956997"/>
      </g>
     </g>
     <g id="line2d_42">
      <g>
       <use style="stroke:#000000;stroke-width:0.5;" x="382.310624" xlink:href="#m8ccc5feae0" y="23.436997"/>
      </g>
     </g>
    </g>
    <g id="xtick_19">
     <g id="line2d_43">
      <g>
       <use style="stroke:#000000;stroke-width:0.5;" x="406.182282" xlink:href="#m93e5050c3c" y="466.956997"/>
      </g>
     </g>
     <g id="line2d_44">
      <g>
       <use style="stroke:#000000;stroke-width:0.5;" x="406.182282" xlink:href="#m8ccc5feae0" y="23.436997"/>
      </g>
     </g>
    </g>
    <g id="xtick_20">
     <g id="line2d_45">
      <g>
       <use style="stroke:#000000;stroke-width:0.5;" x="453.925597" xlink:href="#m93e5050c3c" y="466.956997"/>
      </g>
     </g>
     <g id="line2d_46">
      <g>
       <use style="stroke:#000000;stroke-width:0.5;" x="453.925597" xlink:href="#m8ccc5feae0" y="23.436997"/>
      </g>
     </g>
    </g>
    <g id="xtick_21">
     <g id="line2d_47">
      <g>
       <use style="stroke:#000000;stroke-width:0.5;" x="477.797255" xlink:href="#m93e5050c3c" y="466.956997"/>
      </g>
     </g>
     <g id="line2d_48">
      <g>
       <use style="stroke:#000000;stroke-width:0.5;" x="477.797255" xlink:href="#m8ccc5feae0" y="23.436997"/>
      </g>
     </g>
    </g>
    <g id="xtick_22">
     <g id="line2d_49">
      <g>
       <use style="stroke:#000000;stroke-width:0.5;" x="501.668913" xlink:href="#m93e5050c3c" y="466.956997"/>
      </g>
     </g>
     <g id="line2d_50">
      <g>
       <use style="stroke:#000000;stroke-width:0.5;" x="501.668913" xlink:href="#m8ccc5feae0" y="23.436997"/>
      </g>
     </g>
    </g>
    <g id="xtick_23">
     <g id="line2d_51">
      <g>
       <use style="stroke:#000000;stroke-width:0.5;" x="525.54057" xlink:href="#m93e5050c3c" y="466.956997"/>
      </g>
     </g>
     <g id="line2d_52">
      <g>
       <use style="stroke:#000000;stroke-width:0.5;" x="525.54057" xlink:href="#m8ccc5feae0" y="23.436997"/>
      </g>
     </g>
    </g>
    <g id="xtick_24">
     <g id="line2d_53">
      <g>
       <use style="stroke:#000000;stroke-width:0.5;" x="573.283886" xlink:href="#m93e5050c3c" y="466.956997"/>
      </g>
     </g>
     <g id="line2d_54">
      <g>
       <use style="stroke:#000000;stroke-width:0.5;" x="573.283886" xlink:href="#m8ccc5feae0" y="23.436997"/>
      </g>
     </g>
    </g>
    <g id="xtick_25">
     <g id="line2d_55">
      <g>
       <use style="stroke:#000000;stroke-width:0.5;" x="597.155544" xlink:href="#m93e5050c3c" y="466.956997"/>
      </g>
     </g>
     <g id="line2d_56">
      <g>
       <use style="stroke:#000000;stroke-width:0.5;" x="597.155544" xlink:href="#m8ccc5feae0" y="23.436997"/>
      </g>
     </g>
    </g>
    <g id="xtick_26">
     <g id="line2d_57">
      <g>
       <use style="stroke:#000000;stroke-width:0.5;" x="621.027201" xlink:href="#m93e5050c3c" y="466.956997"/>
      </g>
     </g>
     <g id="line2d_58">
      <g>
       <use style="stroke:#000000;stroke-width:0.5;" x="621.027201" xlink:href="#m8ccc5feae0" y="23.436997"/>
      </g>
     </g>
    </g>
    <g id="xtick_27">
     <g id="line2d_59">
      <g>
       <use style="stroke:#000000;stroke-width:0.5;" x="644.898859" xlink:href="#m93e5050c3c" y="466.956997"/>
      </g>
     </g>
     <g id="line2d_60">
      <g>
       <use style="stroke:#000000;stroke-width:0.5;" x="644.898859" xlink:href="#m8ccc5feae0" y="23.436997"/>
      </g>
     </g>
    </g>
    <g id="xtick_28">
     <g id="line2d_61">
      <g>
       <use style="stroke:#000000;stroke-width:0.5;" x="692.642175" xlink:href="#m93e5050c3c" y="466.956997"/>
      </g>
     </g>
     <g id="line2d_62">
      <g>
       <use style="stroke:#000000;stroke-width:0.5;" x="692.642175" xlink:href="#m8ccc5feae0" y="23.436997"/>
      </g>
     </g>
    </g>
    <g id="text_7">
     <!-- iteration -->
     <g transform="translate(342.508087 497.14967)scale(0.2 -0.2)">
      <defs>
       <path d="M 15.5 61.078125 
C 15.5 63.265625 13.703125 65.15625 11.40625 65.15625 
C 9.203125 65.15625 7.296875 63.375 7.296875 61.078125 
C 7.296875 58.890625 9.09375 57 11.40625 57 
C 13.59375 57 15.5 58.796875 15.5 61.078125 
z
M 3.796875 42.28125 
L 3.796875 39.703125 
C 9.40625 39.703125 10.203125 39.09375 10.203125 34.328125 
L 10.203125 6.671875 
C 10.203125 2.875 9.796875 2.390625 3.40625 2.390625 
L 3.40625 -0.203125 
C 5.796875 0 10.09375 0 12.59375 0 
C 15 0 19.09375 0 21.40625 -0.203125 
L 21.40625 2.390625 
C 15.5 2.390625 15.296875 2.984375 15.296875 6.5625 
L 15.296875 43.375 
z
" id="CMR17-105"/>
       <path d="M 15.09375 40 
L 29.09375 40 
L 29.09375 42.578125 
L 15.09375 42.578125 
L 15.09375 61 
L 13.296875 61 
C 13.09375 50.703125 9.59375 41.6875 1.09375 41.6875 
L 1.09375 40 
L 9.796875 40 
L 9.796875 12.046875 
C 9.796875 10.15625 9.796875 -1 21.40625 -1 
C 27.296875 -1 30.703125 4.78125 30.703125 12.140625 
L 30.703125 17.8125 
L 28.90625 17.8125 
L 28.90625 12.234375 
C 28.90625 5.375 26.203125 0.796875 22 0.796875 
C 19.09375 0.796875 15.09375 2.78125 15.09375 11.84375 
z
" id="CMR17-116"/>
       <path d="M 38.09375 23 
C 38.5 23.40625 38.5 23.609375 38.5 24.625 
C 38.5 34.96875 33.09375 44 21.703125 44 
C 11.09375 44 2.703125 33.890625 2.703125 21.609375 
C 2.703125 8.609375 12.203125 -1 22.796875 -1 
C 34 -1 38.40625 9.484375 38.40625 11.5625 
C 38.40625 12.25 37.796875 12.25 37.59375 12.25 
C 36.90625 12.25 36.796875 12.046875 36.40625 10.875 
C 34.203125 4.140625 28.703125 0.796875 23.5 0.796875 
C 19.203125 0.796875 14.90625 3.171875 12.203125 7.5 
C 9.09375 12.546875 9.09375 18.375 9.09375 23 
z
M 9.203125 24.5 
C 9.90625 39.140625 17.59375 42.40625 21.59375 42.40625 
C 28.40625 42.40625 33 35.890625 33.09375 24.5 
z
" id="CMR17-101"/>
       <path d="M 15 23.390625 
C 15 33 19.09375 42 26.59375 42 
C 27.296875 42 28 41.90625 28.703125 41.59375 
C 28.703125 41.59375 26.5 40.890625 26.5 38.3125 
C 26.5 35.90625 28.40625 34.90625 29.90625 34.90625 
C 31.09375 34.90625 33.296875 35.609375 33.296875 38.40625 
C 33.296875 41.609375 30.09375 43.59375 26.703125 43.59375 
C 19.09375 43.59375 15.796875 36.203125 14.796875 32.703125 
L 14.703125 32.703125 
L 14.703125 43.59375 
L 3.09375 42.5 
L 3.09375 39.90625 
C 9 39.90625 9.90625 39.296875 9.90625 34.5 
L 9.90625 6.6875 
C 9.90625 2.875 9.5 2.390625 3.09375 2.390625 
L 3.09375 -0.203125 
C 5.5 0 10.09375 0 12.703125 0 
C 15.59375 0 20.703125 0 23.40625 -0.203125 
L 23.40625 2.390625 
C 16.203125 2.390625 15 2.390625 15 6.875 
z
" id="CMR17-114"/>
       <path d="M 36 25.828125 
C 36 32.375 36 35.84375 31.796875 39.734375 
C 28.09375 43 23.796875 44 20.40625 44 
C 12.5 44 6.796875 37.609375 6.796875 30.796875 
C 6.796875 27 9.796875 27 10.40625 27 
C 11.703125 27 14 27.78125 14 30.53125 
C 14 33 12.09375 34.078125 10.40625 34.078125 
C 10 34.078125 9.5 33.96875 9.203125 33.875 
C 11.296875 40.5 16.703125 42.40625 20.203125 42.40625 
C 25.203125 42.40625 30.703125 37.953125 30.703125 29.453125 
L 30.703125 25 
C 24.796875 25 17.703125 24.203125 12.09375 21.203125 
C 5.796875 17.703125 4 12.703125 4 8.90625 
C 4 1.203125 13 -1 18.296875 -1 
C 23.796875 -1 28.90625 2.171875 31.09375 7.984375 
C 31.296875 3.640625 34.09375 -0.28125 38.5 -0.28125 
C 40.59375 -0.28125 45.90625 1.09375 45.90625 8.859375 
L 45.90625 14.375 
L 44.09375 14.375 
L 44.09375 8.78125 
C 44.09375 2.78125 41.40625 2 40.09375 2 
C 36 2 36 7.15625 36 11.53125 
z
M 30.703125 13.59375 
C 30.703125 4.953125 24.5 0.59375 19 0.59375 
C 14 0.59375 10.09375 4.296875 10.09375 8.90625 
C 10.09375 11.890625 11.40625 17.1875 17.203125 20.390625 
C 22 23.09375 27.5 23.5 30.703125 23.5 
z
" id="CMR17-97"/>
       <path d="M 43.09375 21.1875 
C 43.09375 34 33.796875 44 22.90625 44 
C 12 44 2.703125 34 2.703125 21.1875 
C 2.703125 8.609375 12 -1 22.90625 -1 
C 33.796875 -1 43.09375 8.609375 43.09375 21.1875 
z
M 22.90625 0.796875 
C 18.203125 0.796875 14.203125 3.59375 11.90625 7.5 
C 9.40625 11.984375 9.09375 17.59375 9.09375 22 
C 9.09375 26.203125 9.296875 31.40625 11.90625 35.90625 
C 13.90625 39.203125 17.796875 42.40625 22.90625 42.40625 
C 27.40625 42.40625 31.203125 39.90625 33.59375 36.40625 
C 36.703125 31.703125 36.703125 25.109375 36.703125 22 
C 36.703125 18.09375 36.5 12.109375 33.796875 7.296875 
C 31 2.703125 26.703125 0.796875 22.90625 0.796875 
z
" id="CMR17-111"/>
       <path d="M 41.5 30.203125 
C 41.5 35.296875 40.5 43.59375 28.703125 43.59375 
C 20.796875 43.59375 16.703125 37.5 15.203125 33.5 
L 15.09375 33.5 
L 15.09375 43.59375 
L 3.296875 42.5 
L 3.296875 39.90625 
C 9.203125 39.90625 10.09375 39.296875 10.09375 34.5 
L 10.09375 6.6875 
C 10.09375 2.875 9.703125 2.390625 3.296875 2.390625 
L 3.296875 -0.203125 
C 5.703125 0 10.09375 0 12.703125 0 
C 15.296875 0 19.796875 0 22.203125 -0.203125 
L 22.203125 2.390625 
C 15.796875 2.390625 15.40625 2.78125 15.40625 6.6875 
L 15.40625 25.90625 
C 15.40625 35.109375 21 42 28 42 
C 35.40625 42 36.203125 35.40625 36.203125 30.59375 
L 36.203125 6.6875 
C 36.203125 2.875 35.796875 2.390625 29.40625 2.390625 
L 29.40625 -0.203125 
C 31.796875 0 36.203125 0 38.796875 0 
C 41.40625 0 45.90625 0 48.296875 -0.203125 
L 48.296875 2.390625 
C 41.90625 2.390625 41.5 2.78125 41.5 6.6875 
z
" id="CMR17-110"/>
      </defs>
      <use transform="scale(0.996264)" xlink:href="#CMR17-105"/>
      <use transform="translate(24.871058 0)scale(0.996264)" xlink:href="#CMR17-116"/>
      <use transform="translate(60.151826 0)scale(0.996264)" xlink:href="#CMR17-101"/>
      <use transform="translate(100.637487 0)scale(0.996264)" xlink:href="#CMR17-114"/>
      <use transform="translate(135.918255 0)scale(0.996264)" xlink:href="#CMR17-97"/>
      <use transform="translate(181.608732 0)scale(0.996264)" xlink:href="#CMR17-116"/>
      <use transform="translate(216.889499 0)scale(0.996264)" xlink:href="#CMR17-105"/>
      <use transform="translate(241.760558 0)scale(0.996264)" xlink:href="#CMR17-111"/>
      <use transform="translate(287.451035 0)scale(0.996264)" xlink:href="#CMR17-110"/>
     </g>
    </g>
   </g>
   <g id="matplotlib.axis_2">
    <g id="ytick_1">
     <g id="line2d_63">
      <path clip-path="url(#p8b3a06fc9f)" d="M 41.542709 453.107945 
L 711.142709 453.107945 
" style="fill:none;stroke:#b0b0b0;stroke-dasharray:3.2,0.8,0.5,0.8;stroke-dashoffset:0;stroke-width:0.5;"/>
     </g>
     <g id="line2d_64">
      <defs>
       <path d="M 0 0 
L 3 0 
" id="m42e3bb649d" style="stroke:#000000;stroke-width:0.5;"/>
      </defs>
      <g>
       <use style="stroke:#000000;stroke-width:0.5;" x="41.542709" xlink:href="#m42e3bb649d" y="453.107945"/>
      </g>
     </g>
     <g id="line2d_65">
      <defs>
       <path d="M 0 0 
L -3 0 
" id="m571e28ea31" style="stroke:#000000;stroke-width:0.5;"/>
      </defs>
      <g>
       <use style="stroke:#000000;stroke-width:0.5;" x="711.142709" xlink:href="#m571e28ea31" y="453.107945"/>
      </g>
     </g>
     <g id="text_8">
      <!-- $\mathdefault{0.4}$ -->
      <g transform="translate(25.31263 456.567195)scale(0.1 -0.1)">
       <defs>
        <path d="M 18.40625 4.796875 
C 18.40625 7.6875 16 9.671875 13.59375 9.671875 
C 10.703125 9.671875 8.703125 7.28125 8.703125 4.890625 
C 8.703125 2 11.09375 0 13.5 0 
C 16.40625 0 18.40625 2.390625 18.40625 4.796875 
z
" id="CMMI12-58"/>
        <path d="M 33.59375 64.40625 
C 33.59375 66.5 33.5 66.5 31.703125 66.5 
L 2 19.59375 
L 2 17 
L 27.796875 17 
L 27.796875 7.140625 
C 27.796875 3.5 27.59375 2.5 20.59375 2.5 
L 18.703125 2.5 
L 18.703125 0 
C 21.90625 0 27.296875 0 30.703125 0 
C 34.09375 0 39.5 0 42.703125 0 
L 42.703125 2.5 
L 40.796875 2.5 
C 33.796875 2.5 33.59375 3.5 33.59375 7.140625 
L 33.59375 17 
L 43.796875 17 
L 43.796875 19.59375 
L 33.59375 19.59375 
z
M 28.09375 57.859375 
L 28.09375 19.59375 
L 4 19.59375 
z
" id="CMR17-52"/>
       </defs>
       <use transform="scale(0.996264)" xlink:href="#CMR17-48"/>
       <use transform="translate(45.690477 0)scale(0.996264)" xlink:href="#CMMI12-58"/>
       <use transform="translate(72.787654 0)scale(0.996264)" xlink:href="#CMR17-52"/>
      </g>
     </g>
    </g>
    <g id="ytick_2">
     <g id="line2d_66">
      <path clip-path="url(#p8b3a06fc9f)" d="M 41.542709 384.856121 
L 711.142709 384.856121 
" style="fill:none;stroke:#b0b0b0;stroke-dasharray:3.2,0.8,0.5,0.8;stroke-dashoffset:0;stroke-width:0.5;"/>
     </g>
     <g id="line2d_67">
      <g>
       <use style="stroke:#000000;stroke-width:0.5;" x="41.542709" xlink:href="#m42e3bb649d" y="384.856121"/>
      </g>
     </g>
     <g id="line2d_68">
      <g>
       <use style="stroke:#000000;stroke-width:0.5;" x="711.142709" xlink:href="#m571e28ea31" y="384.856121"/>
      </g>
     </g>
     <g id="text_9">
      <!-- $\mathdefault{0.5}$ -->
      <g transform="translate(25.31263 388.31537)scale(0.1 -0.1)">
       <use transform="scale(0.996264)" xlink:href="#CMR17-48"/>
       <use transform="translate(45.690477 0)scale(0.996264)" xlink:href="#CMMI12-58"/>
       <use transform="translate(72.787654 0)scale(0.996264)" xlink:href="#CMR17-53"/>
      </g>
     </g>
    </g>
    <g id="ytick_3">
     <g id="line2d_69">
      <path clip-path="url(#p8b3a06fc9f)" d="M 41.542709 316.604296 
L 711.142709 316.604296 
" style="fill:none;stroke:#b0b0b0;stroke-dasharray:3.2,0.8,0.5,0.8;stroke-dashoffset:0;stroke-width:0.5;"/>
     </g>
     <g id="line2d_70">
      <g>
       <use style="stroke:#000000;stroke-width:0.5;" x="41.542709" xlink:href="#m42e3bb649d" y="316.604296"/>
      </g>
     </g>
     <g id="line2d_71">
      <g>
       <use style="stroke:#000000;stroke-width:0.5;" x="711.142709" xlink:href="#m571e28ea31" y="316.604296"/>
      </g>
     </g>
     <g id="text_10">
      <!-- $\mathdefault{0.6}$ -->
      <g transform="translate(25.31263 320.063545)scale(0.1 -0.1)">
       <defs>
        <path d="M 10.59375 34 
C 10.59375 57.65625 21.796875 63 28.296875 63 
C 30.40625 63 35.5 62.640625 37.5 59 
C 35.90625 59 32.90625 59 32.90625 55.515625 
C 32.90625 52.828125 35.09375 51.921875 36.5 51.921875 
C 37.40625 51.921875 40.09375 52.3125 40.09375 55.625 
C 40.09375 61.78125 35.09375 65.296875 28.203125 65.296875 
C 16.296875 65.296875 3.796875 52.96875 3.796875 31 
C 3.796875 3.953125 15.09375 -2 23.09375 -2 
C 32.796875 -2 42 6.671875 42 20.046875 
C 42 32.515625 33.90625 41.59375 23.703125 41.59375 
C 17.59375 41.59375 13.09375 37.609375 10.59375 30.625 
z
M 23.09375 0.390625 
C 10.796875 0.390625 10.796875 18.75 10.796875 22.4375 
C 10.796875 29.625 14.203125 40 23.5 40 
C 25.203125 40 30.09375 40 33.40625 33.125 
C 35.203125 29.21875 35.203125 25.140625 35.203125 20.140625 
C 35.203125 14.75 35.203125 10.78125 33.09375 6.78125 
C 30.90625 2.671875 27.703125 0.390625 23.09375 0.390625 
z
" id="CMR17-54"/>
       </defs>
       <use transform="scale(0.996264)" xlink:href="#CMR17-48"/>
       <use transform="translate(45.690477 0)scale(0.996264)" xlink:href="#CMMI12-58"/>
       <use transform="translate(72.787654 0)scale(0.996264)" xlink:href="#CMR17-54"/>
      </g>
     </g>
    </g>
    <g id="ytick_4">
     <g id="line2d_72">
      <path clip-path="url(#p8b3a06fc9f)" d="M 41.542709 248.352471 
L 711.142709 248.352471 
" style="fill:none;stroke:#b0b0b0;stroke-dasharray:3.2,0.8,0.5,0.8;stroke-dashoffset:0;stroke-width:0.5;"/>
     </g>
     <g id="line2d_73">
      <g>
       <use style="stroke:#000000;stroke-width:0.5;" x="41.542709" xlink:href="#m42e3bb649d" y="248.352471"/>
      </g>
     </g>
     <g id="line2d_74">
      <g>
       <use style="stroke:#000000;stroke-width:0.5;" x="711.142709" xlink:href="#m571e28ea31" y="248.352471"/>
      </g>
     </g>
     <g id="text_11">
      <!-- $\mathdefault{0.7}$ -->
      <g transform="translate(25.31263 251.81172)scale(0.1 -0.1)">
       <defs>
        <path d="M 45.09375 61.578125 
L 45.09375 63.765625 
L 21.59375 63.765625 
C 9.90625 63.765625 9.703125 65.078125 9.296875 67 
L 7.5 67 
L 4.59375 48.34375 
L 6.40625 48.34375 
C 6.703125 50.234375 7.40625 55.3125 8.59375 57.203125 
C 9.203125 58 16.59375 58 18.296875 58 
L 40.296875 58 
L 29.203125 41.578125 
C 21.796875 30.53125 16.703125 15.609375 16.703125 2.578125 
C 16.703125 1.390625 16.703125 -2 20.296875 -2 
C 23.90625 -2 23.90625 1.390625 23.90625 2.671875 
L 23.90625 7.265625 
C 23.90625 23.5625 26.703125 34.3125 31.296875 41.1875 
z
" id="CMR17-55"/>
       </defs>
       <use transform="scale(0.996264)" xlink:href="#CMR17-48"/>
       <use transform="translate(45.690477 0)scale(0.996264)" xlink:href="#CMMI12-58"/>
       <use transform="translate(72.787654 0)scale(0.996264)" xlink:href="#CMR17-55"/>
      </g>
     </g>
    </g>
    <g id="ytick_5">
     <g id="line2d_75">
      <path clip-path="url(#p8b3a06fc9f)" d="M 41.542709 180.100646 
L 711.142709 180.100646 
" style="fill:none;stroke:#b0b0b0;stroke-dasharray:3.2,0.8,0.5,0.8;stroke-dashoffset:0;stroke-width:0.5;"/>
     </g>
     <g id="line2d_76">
      <g>
       <use style="stroke:#000000;stroke-width:0.5;" x="41.542709" xlink:href="#m42e3bb649d" y="180.100646"/>
      </g>
     </g>
     <g id="line2d_77">
      <g>
       <use style="stroke:#000000;stroke-width:0.5;" x="711.142709" xlink:href="#m571e28ea31" y="180.100646"/>
      </g>
     </g>
     <g id="text_12">
      <!-- $\mathdefault{0.8}$ -->
      <g transform="translate(25.31263 183.559895)scale(0.1 -0.1)">
       <defs>
        <path d="M 27.203125 35.375 
C 33.5 38.546875 39.90625 43.328125 39.90625 50.984375 
C 39.90625 60.015625 31.09375 65.296875 23 65.296875 
C 13.90625 65.296875 5.90625 58.734375 5.90625 49.6875 
C 5.90625 47.203125 6.5 42.921875 10.40625 39.140625 
C 11.40625 38.15625 15.59375 35.171875 18.296875 33.28125 
C 13.796875 30.984375 3.296875 25.53125 3.296875 14.59375 
C 3.296875 4.359375 13.09375 -2 22.796875 -2 
C 33.5 -2 42.5 5.65625 42.5 15.78125 
C 42.5 24.84375 36.40625 29.015625 32.40625 31.703125 
z
M 14.09375 44.09375 
C 13.296875 44.59375 9.296875 47.671875 9.296875 52.359375 
C 9.296875 58.421875 15.59375 63 22.796875 63 
C 30.703125 63 36.5 57.4375 36.5 50.96875 
C 36.5 41.703125 26.09375 36.421875 25.59375 36.421875 
C 25.5 36.421875 25.40625 36.421875 24.59375 37.03125 
z
M 32.5 23.734375 
C 34 22.640625 38.796875 19.375 38.796875 13.296875 
C 38.796875 5.953125 31.40625 0.390625 23 0.390625 
C 13.90625 0.390625 7 6.84375 7 14.6875 
C 7 22.546875 13.09375 29.09375 20 32.1875 
z
" id="CMR17-56"/>
       </defs>
       <use transform="scale(0.996264)" xlink:href="#CMR17-48"/>
       <use transform="translate(45.690477 0)scale(0.996264)" xlink:href="#CMMI12-58"/>
       <use transform="translate(72.787654 0)scale(0.996264)" xlink:href="#CMR17-56"/>
      </g>
     </g>
    </g>
    <g id="ytick_6">
     <g id="line2d_78">
      <path clip-path="url(#p8b3a06fc9f)" d="M 41.542709 111.848822 
L 711.142709 111.848822 
" style="fill:none;stroke:#b0b0b0;stroke-dasharray:3.2,0.8,0.5,0.8;stroke-dashoffset:0;stroke-width:0.5;"/>
     </g>
     <g id="line2d_79">
      <g>
       <use style="stroke:#000000;stroke-width:0.5;" x="41.542709" xlink:href="#m42e3bb649d" y="111.848822"/>
      </g>
     </g>
     <g id="line2d_80">
      <g>
       <use style="stroke:#000000;stroke-width:0.5;" x="711.142709" xlink:href="#m571e28ea31" y="111.848822"/>
      </g>
     </g>
     <g id="text_13">
      <!-- $\mathdefault{0.9}$ -->
      <g transform="translate(25.31263 115.308071)scale(0.1 -0.1)">
       <defs>
        <path d="M 35.203125 29.125 
C 35.203125 7.25 26.09375 0.484375 18.59375 0.484375 
C 16.296875 0.484375 10.703125 0.484375 8.40625 4.59375 
C 11 4.1875 12.90625 5.578125 12.90625 8.09375 
C 12.90625 10.8125 10.703125 11.703125 9.296875 11.703125 
C 8.40625 11.703125 5.703125 11.296875 5.703125 7.90625 
C 5.703125 1.109375 11.59375 -2 18.796875 -2 
C 30.296875 -2 42 10.53125 42 32.390625 
C 42 59.640625 30.796875 65.296875 23.203125 65.296875 
C 13.296875 65.296875 3.796875 56.6875 3.796875 43.40625 
C 3.796875 31.109375 11.90625 22 22.09375 22 
C 30.5 22 34.203125 29.734375 35.203125 33 
z
M 22.296875 23.59375 
C 19.59375 23.59375 15.796875 24.09375 12.703125 30.03125 
C 10.59375 33.890625 10.59375 38.453125 10.59375 43.296875 
C 10.59375 49.15625 10.59375 53.203125 13.40625 57.5625 
C 14.796875 59.640625 17.40625 63 23.203125 63 
C 35 63 35 45.078125 35 41.125 
C 35 34.09375 31.796875 23.59375 22.296875 23.59375 
z
" id="CMR17-57"/>
       </defs>
       <use transform="scale(0.996264)" xlink:href="#CMR17-48"/>
       <use transform="translate(45.690477 0)scale(0.996264)" xlink:href="#CMMI12-58"/>
       <use transform="translate(72.787654 0)scale(0.996264)" xlink:href="#CMR17-57"/>
      </g>
     </g>
    </g>
    <g id="ytick_7">
     <g id="line2d_81">
      <path clip-path="url(#p8b3a06fc9f)" d="M 41.542709 43.596997 
L 711.142709 43.596997 
" style="fill:none;stroke:#b0b0b0;stroke-dasharray:3.2,0.8,0.5,0.8;stroke-dashoffset:0;stroke-width:0.5;"/>
     </g>
     <g id="line2d_82">
      <g>
       <use style="stroke:#000000;stroke-width:0.5;" x="41.542709" xlink:href="#m42e3bb649d" y="43.596997"/>
      </g>
     </g>
     <g id="line2d_83">
      <g>
       <use style="stroke:#000000;stroke-width:0.5;" x="711.142709" xlink:href="#m571e28ea31" y="43.596997"/>
      </g>
     </g>
     <g id="text_14">
      <!-- $\mathdefault{1.0}$ -->
      <g transform="translate(25.31263 47.056246)scale(0.1 -0.1)">
       <use transform="scale(0.996264)" xlink:href="#CMR17-49"/>
       <use transform="translate(45.690477 0)scale(0.996264)" xlink:href="#CMMI12-58"/>
       <use transform="translate(72.787654 0)scale(0.996264)" xlink:href="#CMR17-48"/>
      </g>
     </g>
    </g>
    <g id="ytick_8">
     <g id="line2d_84">
      <defs>
       <path d="M 0 0 
L 1.5 0 
" id="mac48f65ff3" style="stroke:#000000;stroke-width:0.5;"/>
      </defs>
      <g>
       <use style="stroke:#000000;stroke-width:0.5;" x="41.542709" xlink:href="#mac48f65ff3" y="466.75831"/>
      </g>
     </g>
     <g id="line2d_85">
      <defs>
       <path d="M 0 0 
L -1.5 0 
" id="mc104c08103" style="stroke:#000000;stroke-width:0.5;"/>
      </defs>
      <g>
       <use style="stroke:#000000;stroke-width:0.5;" x="711.142709" xlink:href="#mc104c08103" y="466.75831"/>
      </g>
     </g>
    </g>
    <g id="ytick_9">
     <g id="line2d_86">
      <g>
       <use style="stroke:#000000;stroke-width:0.5;" x="41.542709" xlink:href="#mac48f65ff3" y="439.45758"/>
      </g>
     </g>
     <g id="line2d_87">
      <g>
       <use style="stroke:#000000;stroke-width:0.5;" x="711.142709" xlink:href="#mc104c08103" y="439.45758"/>
      </g>
     </g>
    </g>
    <g id="ytick_10">
     <g id="line2d_88">
      <g>
       <use style="stroke:#000000;stroke-width:0.5;" x="41.542709" xlink:href="#mac48f65ff3" y="425.807215"/>
      </g>
     </g>
     <g id="line2d_89">
      <g>
       <use style="stroke:#000000;stroke-width:0.5;" x="711.142709" xlink:href="#mc104c08103" y="425.807215"/>
      </g>
     </g>
    </g>
    <g id="ytick_11">
     <g id="line2d_90">
      <g>
       <use style="stroke:#000000;stroke-width:0.5;" x="41.542709" xlink:href="#mac48f65ff3" y="412.15685"/>
      </g>
     </g>
     <g id="line2d_91">
      <g>
       <use style="stroke:#000000;stroke-width:0.5;" x="711.142709" xlink:href="#mc104c08103" y="412.15685"/>
      </g>
     </g>
    </g>
    <g id="ytick_12">
     <g id="line2d_92">
      <g>
       <use style="stroke:#000000;stroke-width:0.5;" x="41.542709" xlink:href="#mac48f65ff3" y="398.506486"/>
      </g>
     </g>
     <g id="line2d_93">
      <g>
       <use style="stroke:#000000;stroke-width:0.5;" x="711.142709" xlink:href="#mc104c08103" y="398.506486"/>
      </g>
     </g>
    </g>
    <g id="ytick_13">
     <g id="line2d_94">
      <g>
       <use style="stroke:#000000;stroke-width:0.5;" x="41.542709" xlink:href="#mac48f65ff3" y="371.205756"/>
      </g>
     </g>
     <g id="line2d_95">
      <g>
       <use style="stroke:#000000;stroke-width:0.5;" x="711.142709" xlink:href="#mc104c08103" y="371.205756"/>
      </g>
     </g>
    </g>
    <g id="ytick_14">
     <g id="line2d_96">
      <g>
       <use style="stroke:#000000;stroke-width:0.5;" x="41.542709" xlink:href="#mac48f65ff3" y="357.555391"/>
      </g>
     </g>
     <g id="line2d_97">
      <g>
       <use style="stroke:#000000;stroke-width:0.5;" x="711.142709" xlink:href="#mc104c08103" y="357.555391"/>
      </g>
     </g>
    </g>
    <g id="ytick_15">
     <g id="line2d_98">
      <g>
       <use style="stroke:#000000;stroke-width:0.5;" x="41.542709" xlink:href="#mac48f65ff3" y="343.905026"/>
      </g>
     </g>
     <g id="line2d_99">
      <g>
       <use style="stroke:#000000;stroke-width:0.5;" x="711.142709" xlink:href="#mc104c08103" y="343.905026"/>
      </g>
     </g>
    </g>
    <g id="ytick_16">
     <g id="line2d_100">
      <g>
       <use style="stroke:#000000;stroke-width:0.5;" x="41.542709" xlink:href="#mac48f65ff3" y="330.254661"/>
      </g>
     </g>
     <g id="line2d_101">
      <g>
       <use style="stroke:#000000;stroke-width:0.5;" x="711.142709" xlink:href="#mc104c08103" y="330.254661"/>
      </g>
     </g>
    </g>
    <g id="ytick_17">
     <g id="line2d_102">
      <g>
       <use style="stroke:#000000;stroke-width:0.5;" x="41.542709" xlink:href="#mac48f65ff3" y="302.953931"/>
      </g>
     </g>
     <g id="line2d_103">
      <g>
       <use style="stroke:#000000;stroke-width:0.5;" x="711.142709" xlink:href="#mc104c08103" y="302.953931"/>
      </g>
     </g>
    </g>
    <g id="ytick_18">
     <g id="line2d_104">
      <g>
       <use style="stroke:#000000;stroke-width:0.5;" x="41.542709" xlink:href="#mac48f65ff3" y="289.303566"/>
      </g>
     </g>
     <g id="line2d_105">
      <g>
       <use style="stroke:#000000;stroke-width:0.5;" x="711.142709" xlink:href="#mc104c08103" y="289.303566"/>
      </g>
     </g>
    </g>
    <g id="ytick_19">
     <g id="line2d_106">
      <g>
       <use style="stroke:#000000;stroke-width:0.5;" x="41.542709" xlink:href="#mac48f65ff3" y="275.653201"/>
      </g>
     </g>
     <g id="line2d_107">
      <g>
       <use style="stroke:#000000;stroke-width:0.5;" x="711.142709" xlink:href="#mc104c08103" y="275.653201"/>
      </g>
     </g>
    </g>
    <g id="ytick_20">
     <g id="line2d_108">
      <g>
       <use style="stroke:#000000;stroke-width:0.5;" x="41.542709" xlink:href="#mac48f65ff3" y="262.002836"/>
      </g>
     </g>
     <g id="line2d_109">
      <g>
       <use style="stroke:#000000;stroke-width:0.5;" x="711.142709" xlink:href="#mc104c08103" y="262.002836"/>
      </g>
     </g>
    </g>
    <g id="ytick_21">
     <g id="line2d_110">
      <g>
       <use style="stroke:#000000;stroke-width:0.5;" x="41.542709" xlink:href="#mac48f65ff3" y="234.702106"/>
      </g>
     </g>
     <g id="line2d_111">
      <g>
       <use style="stroke:#000000;stroke-width:0.5;" x="711.142709" xlink:href="#mc104c08103" y="234.702106"/>
      </g>
     </g>
    </g>
    <g id="ytick_22">
     <g id="line2d_112">
      <g>
       <use style="stroke:#000000;stroke-width:0.5;" x="41.542709" xlink:href="#mac48f65ff3" y="221.051741"/>
      </g>
     </g>
     <g id="line2d_113">
      <g>
       <use style="stroke:#000000;stroke-width:0.5;" x="711.142709" xlink:href="#mc104c08103" y="221.051741"/>
      </g>
     </g>
    </g>
    <g id="ytick_23">
     <g id="line2d_114">
      <g>
       <use style="stroke:#000000;stroke-width:0.5;" x="41.542709" xlink:href="#mac48f65ff3" y="207.401376"/>
      </g>
     </g>
     <g id="line2d_115">
      <g>
       <use style="stroke:#000000;stroke-width:0.5;" x="711.142709" xlink:href="#mc104c08103" y="207.401376"/>
      </g>
     </g>
    </g>
    <g id="ytick_24">
     <g id="line2d_116">
      <g>
       <use style="stroke:#000000;stroke-width:0.5;" x="41.542709" xlink:href="#mac48f65ff3" y="193.751011"/>
      </g>
     </g>
     <g id="line2d_117">
      <g>
       <use style="stroke:#000000;stroke-width:0.5;" x="711.142709" xlink:href="#mc104c08103" y="193.751011"/>
      </g>
     </g>
    </g>
    <g id="ytick_25">
     <g id="line2d_118">
      <g>
       <use style="stroke:#000000;stroke-width:0.5;" x="41.542709" xlink:href="#mac48f65ff3" y="166.450281"/>
      </g>
     </g>
     <g id="line2d_119">
      <g>
       <use style="stroke:#000000;stroke-width:0.5;" x="711.142709" xlink:href="#mc104c08103" y="166.450281"/>
      </g>
     </g>
    </g>
    <g id="ytick_26">
     <g id="line2d_120">
      <g>
       <use style="stroke:#000000;stroke-width:0.5;" x="41.542709" xlink:href="#mac48f65ff3" y="152.799916"/>
      </g>
     </g>
     <g id="line2d_121">
      <g>
       <use style="stroke:#000000;stroke-width:0.5;" x="711.142709" xlink:href="#mc104c08103" y="152.799916"/>
      </g>
     </g>
    </g>
    <g id="ytick_27">
     <g id="line2d_122">
      <g>
       <use style="stroke:#000000;stroke-width:0.5;" x="41.542709" xlink:href="#mac48f65ff3" y="139.149551"/>
      </g>
     </g>
     <g id="line2d_123">
      <g>
       <use style="stroke:#000000;stroke-width:0.5;" x="711.142709" xlink:href="#mc104c08103" y="139.149551"/>
      </g>
     </g>
    </g>
    <g id="ytick_28">
     <g id="line2d_124">
      <g>
       <use style="stroke:#000000;stroke-width:0.5;" x="41.542709" xlink:href="#mac48f65ff3" y="125.499186"/>
      </g>
     </g>
     <g id="line2d_125">
      <g>
       <use style="stroke:#000000;stroke-width:0.5;" x="711.142709" xlink:href="#mc104c08103" y="125.499186"/>
      </g>
     </g>
    </g>
    <g id="ytick_29">
     <g id="line2d_126">
      <g>
       <use style="stroke:#000000;stroke-width:0.5;" x="41.542709" xlink:href="#mac48f65ff3" y="98.198457"/>
      </g>
     </g>
     <g id="line2d_127">
      <g>
       <use style="stroke:#000000;stroke-width:0.5;" x="711.142709" xlink:href="#mc104c08103" y="98.198457"/>
      </g>
     </g>
    </g>
    <g id="ytick_30">
     <g id="line2d_128">
      <g>
       <use style="stroke:#000000;stroke-width:0.5;" x="41.542709" xlink:href="#mac48f65ff3" y="84.548092"/>
      </g>
     </g>
     <g id="line2d_129">
      <g>
       <use style="stroke:#000000;stroke-width:0.5;" x="711.142709" xlink:href="#mc104c08103" y="84.548092"/>
      </g>
     </g>
    </g>
    <g id="ytick_31">
     <g id="line2d_130">
      <g>
       <use style="stroke:#000000;stroke-width:0.5;" x="41.542709" xlink:href="#mac48f65ff3" y="70.897727"/>
      </g>
     </g>
     <g id="line2d_131">
      <g>
       <use style="stroke:#000000;stroke-width:0.5;" x="711.142709" xlink:href="#mc104c08103" y="70.897727"/>
      </g>
     </g>
    </g>
    <g id="ytick_32">
     <g id="line2d_132">
      <g>
       <use style="stroke:#000000;stroke-width:0.5;" x="41.542709" xlink:href="#mac48f65ff3" y="57.247362"/>
      </g>
     </g>
     <g id="line2d_133">
      <g>
       <use style="stroke:#000000;stroke-width:0.5;" x="711.142709" xlink:href="#mc104c08103" y="57.247362"/>
      </g>
     </g>
    </g>
    <g id="ytick_33">
     <g id="line2d_134">
      <g>
       <use style="stroke:#000000;stroke-width:0.5;" x="41.542709" xlink:href="#mac48f65ff3" y="29.946632"/>
      </g>
     </g>
     <g id="line2d_135">
      <g>
       <use style="stroke:#000000;stroke-width:0.5;" x="711.142709" xlink:href="#mc104c08103" y="29.946632"/>
      </g>
     </g>
    </g>
    <g id="text_15">
     <!-- accuracy -->
     <g transform="translate(17.436997 279.927673)rotate(-90)scale(0.2 -0.2)">
      <defs>
       <path d="M 34.90625 35 
C 33 35 30.203125 35 30.203125 31.515625 
C 30.203125 28.71875 32.5 27.921875 33.796875 27.921875 
C 34.5 27.921875 37.40625 28.234375 37.40625 31.625 
C 37.40625 38.546875 30.59375 43.796875 22.90625 43.796875 
C 12.296875 43.796875 3.296875 34.03125 3.296875 21.296875 
C 3.296875 8.0625 12.703125 -1 22.90625 -1 
C 35.296875 -1 38.40625 10.578125 38.40625 11.6875 
C 38.40625 12.09375 38.296875 12.390625 37.59375 12.390625 
C 36.90625 12.390625 36.796875 12.296875 36.40625 10.984375 
C 33.796875 2.8125 28.09375 0.796875 23.796875 0.796875 
C 17.40625 0.796875 9.703125 6.671875 9.703125 21.390625 
C 9.703125 36.53125 17.09375 42 23 42 
C 26.90625 42 32.703125 40.203125 34.90625 35 
z
" id="CMR17-99"/>
       <path d="M 29.40625 42.078125 
L 29.40625 39.5 
C 35.296875 39.5 36.203125 38.890625 36.203125 34.15625 
L 36.203125 16.125 
C 36.203125 7.8125 31.703125 0.59375 24.296875 0.59375 
C 16.09375 0.59375 15.40625 5.4375 15.40625 10.59375 
L 15.40625 43.171875 
L 3.296875 42.078125 
L 3.296875 39.5 
C 7.296875 39.5 10 39.5 10.09375 35.53125 
L 10.09375 16.53125 
C 10.09375 9.890625 10.09375 5.640625 12.703125 2.859375 
C 14 1.578125 16.5 -1 23.703125 -1 
C 32.203125 -1 35.5 5.890625 36.296875 7.90625 
L 36.40625 7.90625 
L 36.40625 -0.984375 
L 48.296875 -0.984375 
L 48.296875 2 
C 42.40625 2 41.5 2.59375 41.5 7.390625 
L 41.5 43.171875 
z
" id="CMR17-117"/>
       <path d="M 39 34.328125 
C 41.5 40.40625 46 40.40625 47.40625 40.40625 
L 47.40625 43 
C 45.5 43 43 43 41.09375 43 
C 39 43 35.703125 43 33.703125 43.09375 
L 33.703125 40.5 
C 37.5 40.203125 37.59375 37.40625 37.59375 36.609375 
C 37.59375 35.625 37.40625 35.125 36.90625 33.921875 
L 26 7.015625 
L 14.09375 36.03125 
C 13.59375 37.21875 13.59375 37.90625 13.59375 38.015625 
C 13.59375 40.203125 15.90625 40.40625 18.296875 40.40625 
L 18.296875 43.09375 
C 15.90625 43 11.59375 43 9.09375 43 
C 6.40625 43 3.203125 43 1 43.09375 
L 1 40.40625 
C 6.40625 40.40625 7 39.90625 8.296875 36.71875 
L 23.203125 0.234375 
C 18.703125 -11.53125 16.09375 -18.40625 9.796875 -18.40625 
C 8.703125 -18.40625 6.203125 -18.109375 4.40625 -16.3125 
C 6.703125 -16.109375 7.703125 -14.71875 7.703125 -13.015625 
C 7.703125 -11.328125 6.5 -9.828125 4.5 -9.828125 
C 2.296875 -9.828125 1.203125 -11.328125 1.203125 -13.125 
C 1.203125 -17.109375 5.296875 -20 9.796875 -20 
C 15.59375 -20 19.203125 -14.40625 21.203125 -9.4375 
z
" id="CMR17-121"/>
      </defs>
      <use transform="scale(0.996264)" xlink:href="#CMR17-97"/>
      <use transform="translate(45.690477 0)scale(0.996264)" xlink:href="#CMR17-99"/>
      <use transform="translate(86.176138 0)scale(0.996264)" xlink:href="#CMR17-99"/>
      <use transform="translate(126.661798 0)scale(0.996264)" xlink:href="#CMR17-117"/>
      <use transform="translate(177.557168 0)scale(0.996264)" xlink:href="#CMR17-114"/>
      <use transform="translate(212.837936 0)scale(0.996264)" xlink:href="#CMR17-97"/>
      <use transform="translate(258.528413 0)scale(0.996264)" xlink:href="#CMR17-99"/>
      <use transform="translate(299.014073 0)scale(0.996264)" xlink:href="#CMR17-121"/>
     </g>
    </g>
   </g>
   <g id="line2d_136">
    <path clip-path="url(#p8b3a06fc9f)" d="M 71.979073 446.796997 
L 74.366239 296.035266 
L 76.753405 277.336126 
L 79.14057 248.70307 
L 81.527736 243.44396 
L 83.914902 217.732632 
L 86.302068 197.864801 
L 88.689233 186.762194 
L 91.076399 179.750047 
L 93.463565 168.063095 
L 95.850731 158.713525 
L 98.237897 155.20741 
L 100.625062 146.442227 
L 103.012228 125.405704 
L 105.399394 121.315244 
L 107.78656 110.212638 
L 110.173725 101.447413 
L 112.560891 103.784836 
L 114.948057 90.929152 
L 117.335223 86.254387 
L 119.722388 78.073508 
L 122.109554 80.410891 
L 124.49672 64.049174 
L 126.883886 68.139593 
L 129.271052 67.555247 
L 131.658217 58.205677 
L 134.045383 54.699604 
L 136.432549 54.699604 
L 141.20688 52.362221 
L 145.981212 48.856107 
L 148.368378 48.856107 
L 150.755544 46.518725 
L 153.142709 48.271761 
L 155.529875 47.687416 
L 157.917041 48.856107 
L 160.304207 45.934379 
L 162.691372 44.181342 
L 165.078538 44.181342 
L 167.465704 44.765688 
L 169.85287 44.181342 
L 172.240036 44.765688 
L 179.401533 44.765688 
L 181.788699 44.181342 
L 184.175864 44.765688 
L 186.56303 44.181342 
L 208.047522 44.181342 
L 210.434688 44.765688 
L 212.821854 44.181342 
L 227.144848 44.181342 
L 229.532014 43.596997 
L 231.91918 44.181342 
L 236.693511 44.181342 
L 239.080677 45.350034 
L 241.467843 44.181342 
L 251.016506 44.181342 
L 253.403672 44.765688 
L 255.790838 44.181342 
L 270.113832 44.181342 
L 272.500998 44.765688 
L 274.888164 44.765688 
L 277.27533 44.181342 
L 279.662495 44.765688 
L 282.049661 44.765688 
L 284.436827 48.271761 
L 286.823993 45.350034 
L 289.211159 46.518725 
L 291.598324 44.765688 
L 293.98549 46.518725 
L 296.372656 44.765688 
L 298.759822 48.856107 
L 301.146987 50.024839 
L 303.534153 51.777876 
L 305.921319 46.518725 
L 308.308485 45.934379 
L 310.695651 44.181342 
L 313.082816 44.181342 
L 315.469982 43.596997 
L 320.244314 43.596997 
L 322.631479 52.362221 
L 325.018645 51.777876 
L 327.405811 44.765688 
L 329.792977 45.934379 
L 332.180143 43.596997 
L 334.567308 43.596997 
L 336.954474 47.687416 
L 339.34164 47.10307 
L 341.728806 48.856107 
L 344.115971 45.350034 
L 346.503137 45.350034 
L 348.890303 43.596997 
L 351.277469 44.765688 
L 353.664634 44.181342 
L 356.0518 44.181342 
L 358.438966 43.596997 
L 363.213298 43.596997 
L 365.600463 47.10307 
L 367.987629 53.530912 
L 370.374795 64.049174 
L 372.761961 43.596997 
L 375.149126 44.765688 
L 377.536292 43.596997 
L 379.923458 44.181342 
L 382.310624 43.596997 
L 387.084955 43.596997 
L 391.859287 45.934379 
L 394.246453 48.271761 
L 396.633618 45.934379 
L 399.020784 45.350034 
L 401.40795 45.934379 
L 403.795116 44.181342 
L 406.182282 44.181342 
L 408.569447 43.596997 
L 410.956613 43.596997 
L 413.343779 44.765688 
L 415.730945 43.596997 
L 422.892442 43.596997 
L 425.279608 48.856107 
L 427.666774 44.765688 
L 432.441105 43.596997 
L 589.994046 43.596997 
L 592.381212 44.181342 
L 594.768378 59.958755 
L 597.155544 43.596997 
L 601.929875 43.596997 
L 604.317041 44.765688 
L 606.704207 43.596997 
L 621.027201 43.596997 
L 623.414367 45.934379 
L 625.801533 48.856107 
L 628.188699 47.687416 
L 630.575864 48.856107 
L 632.96303 45.350034 
L 635.350196 43.596997 
L 637.737362 43.596997 
L 640.124528 48.271761 
L 642.511693 47.687416 
L 644.898859 47.687416 
L 647.286025 43.596997 
L 680.706346 43.596997 
L 680.706346 43.596997 
" style="fill:none;stroke:#0c5da5;stroke-linecap:square;"/>
   </g>
   <g id="patch_3">
    <path d="M 41.542709 466.956997 
L 41.542709 23.436997 
" style="fill:none;stroke:#000000;stroke-linecap:square;stroke-linejoin:miter;stroke-width:0.5;"/>
   </g>
   <g id="patch_4">
    <path d="M 711.142709 466.956997 
L 711.142709 23.436997 
" style="fill:none;stroke:#000000;stroke-linecap:square;stroke-linejoin:miter;stroke-width:0.5;"/>
   </g>
   <g id="patch_5">
    <path d="M 41.542709 466.956997 
L 711.142709 466.956997 
" style="fill:none;stroke:#000000;stroke-linecap:square;stroke-linejoin:miter;stroke-width:0.5;"/>
   </g>
   <g id="patch_6">
    <path d="M 41.542709 23.436997 
L 711.142709 23.436997 
" style="fill:none;stroke:#000000;stroke-linecap:square;stroke-linejoin:miter;stroke-width:0.5;"/>
   </g>
   <g id="text_16">
    <!-- Train accuracy -->
    <g transform="translate(317.060417 17.436997)scale(0.2 -0.2)">
     <defs>
      <path d="M 62.203125 67.59375 
L 4.5 67.59375 
L 2.796875 45.59375 
L 4.59375 45.59375 
C 5.90625 62.125 7.296875 65 22.703125 65 
C 24.5 65 27.40625 65 28.203125 64.90625 
C 30.09375 64.609375 30.09375 63.40625 30.09375 61.125 
L 30.09375 7.171875 
C 30.09375 3.59375 29.796875 2.5 21.5 2.5 
L 18.703125 2.5 
L 18.703125 0 
C 23.5 0 28.5 0 33.40625 0 
C 38.296875 0 43.296875 0 48.09375 0 
L 48.09375 2.5 
L 45.296875 2.5 
C 37 2.5 36.703125 3.59375 36.703125 7.171875 
L 36.703125 61.125 
C 36.703125 63.3125 36.703125 64.515625 38.5 64.90625 
C 39.296875 65 42.203125 65 44 65 
C 59.296875 65 60.796875 62.125 62.09375 45.59375 
L 63.90625 45.59375 
z
" id="CMR17-84"/>
     </defs>
     <use transform="scale(0.996264)" xlink:href="#CMR17-84"/>
     <use transform="translate(58.702625 0)scale(0.996264)" xlink:href="#CMR17-114"/>
     <use transform="translate(93.983393 0)scale(0.996264)" xlink:href="#CMR17-97"/>
     <use transform="translate(139.67387 0)scale(0.996264)" xlink:href="#CMR17-105"/>
     <use transform="translate(164.544929 0)scale(0.996264)" xlink:href="#CMR17-110"/>
     <use transform="translate(245.516265 0)scale(0.996264)" xlink:href="#CMR17-97"/>
     <use transform="translate(291.206742 0)scale(0.996264)" xlink:href="#CMR17-99"/>
     <use transform="translate(331.692402 0)scale(0.996264)" xlink:href="#CMR17-99"/>
     <use transform="translate(372.178063 0)scale(0.996264)" xlink:href="#CMR17-117"/>
     <use transform="translate(423.073433 0)scale(0.996264)" xlink:href="#CMR17-114"/>
     <use transform="translate(458.3542 0)scale(0.996264)" xlink:href="#CMR17-97"/>
     <use transform="translate(504.044677 0)scale(0.996264)" xlink:href="#CMR17-99"/>
     <use transform="translate(544.530338 0)scale(0.996264)" xlink:href="#CMR17-121"/>
    </g>
   </g>
  </g>
 </g>
 <defs>
  <clipPath id="p8b3a06fc9f">
   <rect height="443.52" width="669.6" x="41.542709" y="23.436997"/>
  </clipPath>
 </defs>
</svg>
