<svg viewBox="0 0 330 200" xmlns="http://www.w3.org/2000/svg"><g><g><g><g><g><line x1="40" y1="178" x2="35" y2="178" style="visibility: inherit;" fill="rgb(0, 0, 0)" stroke="rgb(204, 204, 204)" stroke-width="1px"></line><line x1="40" y1="165.28571428571428" x2="35" y2="165.28571428571428" style="visibility: inherit;" fill="rgb(0, 0, 0)" stroke="rgb(204, 204, 204)" stroke-width="1px"></line><line x1="40" y1="152.57142857142858" x2="35" y2="152.57142857142858" style="visibility: inherit;" fill="rgb(0, 0, 0)" stroke="rgb(204, 204, 204)" stroke-width="1px"></line><line x1="40" y1="139.85714285714286" x2="35" y2="139.85714285714286" style="visibility: inherit;" fill="rgb(0, 0, 0)" stroke="rgb(204, 204, 204)" stroke-width="1px"></line><line x1="40" y1="127.14285714285714" x2="35" y2="127.14285714285714" style="visibility: inherit;" fill="rgb(0, 0, 0)" stroke="rgb(204, 204, 204)" stroke-width="1px"></line><line x1="40" y1="114.42857142857143" x2="35" y2="114.42857142857143" style="visibility: inherit;" fill="rgb(0, 0, 0)" stroke="rgb(204, 204, 204)" stroke-width="1px"></line><line x1="40" y1="101.71428571428572" x2="35" y2="101.71428571428572" style="visibility: inherit;" fill="rgb(0, 0, 0)" stroke="rgb(204, 204, 204)" stroke-width="1px"></line><line x1="40" y1="89" x2="35" y2="89" style="visibility: inherit;" fill="rgb(0, 0, 0)" stroke="rgb(204, 204, 204)" stroke-width="1px"></line><line x1="40" y1="76.28571428571429" x2="35" y2="76.28571428571429" style="visibility: inherit;" fill="rgb(0, 0, 0)" stroke="rgb(204, 204, 204)" stroke-width="1px"></line><line x1="40" y1="63.57142857142857" x2="35" y2="63.57142857142857" style="visibility: inherit;" fill="rgb(0, 0, 0)" stroke="rgb(204, 204, 204)" stroke-width="1px"></line><line x1="40" y1="50.85714285714286" x2="35" y2="50.85714285714286" style="visibility: inherit;" fill="rgb(0, 0, 0)" stroke="rgb(204, 204, 204)" stroke-width="1px"></line><line x1="40" y1="38.14285714285714" x2="35" y2="38.14285714285714" style="visibility: inherit;" fill="rgb(0, 0, 0)" stroke="rgb(204, 204, 204)" stroke-width="1px"></line><line x1="40" y1="25.428571428571445" x2="35" y2="25.428571428571445" style="visibility: inherit;" fill="rgb(0, 0, 0)" stroke="rgb(204, 204, 204)" stroke-width="1px"></line><line x1="40" y1="12.714285714285722" x2="35" y2="12.714285714285722" style="visibility: inherit;" fill="rgb(0, 0, 0)" stroke="rgb(204, 204, 204)" stroke-width="1px"></line><line x1="40" y1="0" x2="35" y2="0" style="visibility: inherit;" fill="rgb(0, 0, 0)" stroke="rgb(204, 204, 204)" stroke-width="1px"></line></g><g transform="translate(30, 0)"><text x="0" y="178" dx="0em" dy="0.3em" style="text-anchor: end; visibility: hidden; font-family: &quot;Helvetica Neue&quot;, sans-serif; font-size: 12px; font-weight: 200;" fill="rgb(50, 49, 63)" stroke="none" stroke-width="1px">-20</text><text x="0" y="165.28571428571428" dx="0em" dy="0.3em" style="text-anchor: end; visibility: inherit; font-family: &quot;Helvetica Neue&quot;, sans-serif; font-size: 12px; font-weight: 200;" fill="rgb(50, 49, 63)" stroke="none" stroke-width="1px">-10</text><text x="0" y="152.57142857142858" dx="0em" dy="0.3em" style="text-anchor: end; visibility: hidden; font-family: &quot;Helvetica Neue&quot;, sans-serif; font-size: 12px; font-weight: 200;" fill="rgb(50, 49, 63)" stroke="none" stroke-width="1px">0</text><text x="0" y="139.85714285714286" dx="0em" dy="0.3em" style="text-anchor: end; visibility: inherit; font-family: &quot;Helvetica Neue&quot;, sans-serif; font-size: 12px; font-weight: 200;" fill="rgb(50, 49, 63)" stroke="none" stroke-width="1px">10</text><text x="0" y="127.14285714285714" dx="0em" dy="0.3em" style="text-anchor: end; visibility: hidden; font-family: &quot;Helvetica Neue&quot;, sans-serif; font-size: 12px; font-weight: 200;" fill="rgb(50, 49, 63)" stroke="none" stroke-width="1px">20</text><text x="0" y="114.42857142857143" dx="0em" dy="0.3em" style="text-anchor: end; visibility: inherit; font-family: &quot;Helvetica Neue&quot;, sans-serif; font-size: 12px; font-weight: 200;" fill="rgb(50, 49, 63)" stroke="none" stroke-width="1px">30</text><text x="0" y="101.71428571428572" dx="0em" dy="0.3em" style="text-anchor: end; visibility: hidden; font-family: &quot;Helvetica Neue&quot;, sans-serif; font-size: 12px; font-weight: 200;" fill="rgb(50, 49, 63)" stroke="none" stroke-width="1px">40</text><text x="0" y="89" dx="0em" dy="0.3em" style="text-anchor: end; visibility: inherit; font-family: &quot;Helvetica Neue&quot;, sans-serif; font-size: 12px; font-weight: 200;" fill="rgb(50, 49, 63)" stroke="none" stroke-width="1px">50</text><text x="0" y="76.28571428571429" dx="0em" dy="0.3em" style="text-anchor: end; visibility: hidden; font-family: &quot;Helvetica Neue&quot;, sans-serif; font-size: 12px; font-weight: 200;" fill="rgb(50, 49, 63)" stroke="none" stroke-width="1px">60</text><text x="0" y="63.57142857142857" dx="0em" dy="0.3em" style="text-anchor: end; visibility: inherit; font-family: &quot;Helvetica Neue&quot;, sans-serif; font-size: 12px; font-weight: 200;" fill="rgb(50, 49, 63)" stroke="none" stroke-width="1px">70</text><text x="0" y="50.85714285714286" dx="0em" dy="0.3em" style="text-anchor: end; visibility: hidden; font-family: &quot;Helvetica Neue&quot;, sans-serif; font-size: 12px; font-weight: 200;" fill="rgb(50, 49, 63)" stroke="none" stroke-width="1px">80</text><text x="0" y="38.14285714285714" dx="0em" dy="0.3em" style="text-anchor: end; visibility: inherit; font-family: &quot;Helvetica Neue&quot;, sans-serif; font-size: 12px; font-weight: 200;" fill="rgb(50, 49, 63)" stroke="none" stroke-width="1px">90</text><text x="0" y="25.428571428571445" dx="0em" dy="0.3em" style="text-anchor: end; visibility: hidden; font-family: &quot;Helvetica Neue&quot;, sans-serif; font-size: 12px; font-weight: 200;" fill="rgb(50, 49, 63)" stroke="none" stroke-width="1px">100</text><text x="0" y="12.714285714285722" dx="0em" dy="0.3em" style="text-anchor: end; visibility: inherit; font-family: &quot;Helvetica Neue&quot;, sans-serif; font-size: 12px; font-weight: 200;" fill="rgb(50, 49, 63)" stroke="none" stroke-width="1px">110</text><text x="0" y="0" dx="0em" dy="0.3em" style="text-anchor: end; visibility: hidden; font-family: &quot;Helvetica Neue&quot;, sans-serif; font-size: 12px; font-weight: 200;" fill="rgb(50, 49, 63)" stroke="none" stroke-width="1px">120</text></g><line x1="40" y1="0" x2="40" y2="178" fill="rgb(0, 0, 0)" stroke="rgb(204, 204, 204)" stroke-width="1px"></line></g></g><g transform="translate(40, 0)" clip-path="url(#clip_0)"><clipPath id="clip_0"><rect width="290" height="178"></rect></clipPath><g><g><g><line x1="0" y1="0" x2="0" y2="178" fill="rgb(0, 0, 0)" stroke="rgb(60, 60, 60)" stroke-width="1px" opacity="0.25"></line><line x1="24.166666666666664" y1="0" x2="24.166666666666664" y2="178" fill="rgb(0, 0, 0)" stroke="rgb(60, 60, 60)" stroke-width="1px" opacity="0.25"></line><line x1="48.33333333333333" y1="0" x2="48.33333333333333" y2="178" fill="rgb(0, 0, 0)" stroke="rgb(60, 60, 60)" stroke-width="1px" opacity="0.25"></line><line x1="72.5" y1="0" x2="72.5" y2="178" fill="rgb(0, 0, 0)" stroke="rgb(60, 60, 60)" stroke-width="1px" opacity="0.25"></line><line x1="96.66666666666666" y1="0" x2="96.66666666666666" y2="178" fill="rgb(0, 0, 0)" stroke="rgb(60, 60, 60)" stroke-width="1px" opacity="0.25"></line><line x1="120.83333333333334" y1="0" x2="120.83333333333334" y2="178" fill="rgb(0, 0, 0)" stroke="rgb(60, 60, 60)" stroke-width="1px" opacity="0.25"></line><line x1="145" y1="0" x2="145" y2="178" fill="rgb(0, 0, 0)" stroke="rgb(60, 60, 60)" stroke-width="1px" opacity="0.25"></line><line x1="169.16666666666669" y1="0" x2="169.16666666666669" y2="178" fill="rgb(0, 0, 0)" stroke="rgb(60, 60, 60)" stroke-width="1px" opacity="0.25"></line><line x1="193.33333333333331" y1="0" x2="193.33333333333331" y2="178" fill="rgb(0, 0, 0)" stroke="rgb(60, 60, 60)" stroke-width="1px" opacity="0.25"></line><line x1="217.5" y1="0" x2="217.5" y2="178" fill="rgb(0, 0, 0)" stroke="rgb(60, 60, 60)" stroke-width="1px" opacity="0.25"></line><line x1="241.66666666666669" y1="0" x2="241.66666666666669" y2="178" fill="rgb(0, 0, 0)" stroke="rgb(60, 60, 60)" stroke-width="1px" opacity="0.25"></line><line x1="265.8333333333333" y1="0" x2="265.8333333333333" y2="178" fill="rgb(0, 0, 0)" stroke="rgb(60, 60, 60)" stroke-width="1px" opacity="0.25"></line><line x1="290" y1="0" x2="290" y2="178" fill="rgb(0, 0, 0)" stroke="rgb(60, 60, 60)" stroke-width="1px" opacity="0.25"></line></g><g><line x1="0" y1="178" x2="290" y2="178" fill="rgb(0, 0, 0)" stroke="rgb(60, 60, 60)" stroke-width="1px" opacity="0.25"></line><line x1="0" y1="165.28571428571428" x2="290" y2="165.28571428571428" fill="rgb(0, 0, 0)" stroke="rgb(60, 60, 60)" stroke-width="1px" opacity="0.25"></line><line x1="0" y1="152.57142857142858" x2="290" y2="152.57142857142858" fill="rgb(0, 0, 0)" stroke="rgb(60, 60, 60)" stroke-width="1px" opacity="0.25"></line><line x1="0" y1="139.85714285714286" x2="290" y2="139.85714285714286" fill="rgb(0, 0, 0)" stroke="rgb(60, 60, 60)" stroke-width="1px" opacity="0.25"></line><line x1="0" y1="127.14285714285714" x2="290" y2="127.14285714285714" fill="rgb(0, 0, 0)" stroke="rgb(60, 60, 60)" stroke-width="1px" opacity="0.25"></line><line x1="0" y1="114.42857142857143" x2="290" y2="114.42857142857143" fill="rgb(0, 0, 0)" stroke="rgb(60, 60, 60)" stroke-width="1px" opacity="0.25"></line><line x1="0" y1="101.71428571428572" x2="290" y2="101.71428571428572" fill="rgb(0, 0, 0)" stroke="rgb(60, 60, 60)" stroke-width="1px" opacity="0.25"></line><line x1="0" y1="89" x2="290" y2="89" fill="rgb(0, 0, 0)" stroke="rgb(60, 60, 60)" stroke-width="1px" opacity="0.25"></line><line x1="0" y1="76.28571428571429" x2="290" y2="76.28571428571429" fill="rgb(0, 0, 0)" stroke="rgb(60, 60, 60)" stroke-width="1px" opacity="0.25"></line><line x1="0" y1="63.57142857142857" x2="290" y2="63.57142857142857" fill="rgb(0, 0, 0)" stroke="rgb(60, 60, 60)" stroke-width="1px" opacity="0.25"></line><line x1="0" y1="50.85714285714286" x2="290" y2="50.85714285714286" fill="rgb(0, 0, 0)" stroke="rgb(60, 60, 60)" stroke-width="1px" opacity="0.25"></line><line x1="0" y1="38.14285714285714" x2="290" y2="38.14285714285714" fill="rgb(0, 0, 0)" stroke="rgb(60, 60, 60)" stroke-width="1px" opacity="0.25"></line><line x1="0" y1="25.428571428571445" x2="290" y2="25.428571428571445" fill="rgb(0, 0, 0)" stroke="rgb(60, 60, 60)" stroke-width="1px" opacity="0.25"></line><line x1="0" y1="12.714285714285722" x2="290" y2="12.714285714285722" fill="rgb(0, 0, 0)" stroke="rgb(60, 60, 60)" stroke-width="1px" opacity="0.25"></line><line x1="0" y1="0" x2="290" y2="0" fill="rgb(0, 0, 0)" stroke="rgb(60, 60, 60)" stroke-width="1px" opacity="0.25"></line></g></g></g><g><g><line x1="0" y1="152.57142857142858" x2="290" y2="152.57142857142858" fill="rgb(0, 0, 0)" stroke="rgb(153, 153, 153)" stroke-width="1.5px"></line></g></g><g><g><line x1="24.166666666666664" y1="0" x2="24.166666666666664" y2="178" fill="rgb(0, 0, 0)" stroke="rgb(153, 153, 153)" stroke-width="1.5px"></line></g></g><g><g><g><g><g><path stroke="rgb(187, 187, 187)" stroke-width="2px" d="M24.166666666666664,101.71428571428572L24.650000000000002,111.89080254412862L25.133333333333333,114.85874007287376L25.616666666666667,120.16272000761748L26.099999999999998,122.83551625567003L26.583333333333332,124.19250865031867L27.066666666666666,126.43703590735838L27.55,127.80145807177402L28.03333333333333,128.29533044277846L28.516666666666666,128.81814379579473L29,129.7105534382263L29.483333333333334,130.34769039321267L29.966666666666665,131.08358596069576L30.45,131.8057603310932L30.933333333333334,132.26092968137914L31.416666666666668,132.3389540369613L31.9,132.7093589973892L32.38333333333333,132.9673696976455L32.86666666666667,133.2657422409619L33.35,133.59845415067647L33.833333333333336,133.89947820743407L34.31666666666666,134.17313548209643L34.8,134.19943551040717L35.28333333333334,134.49148355895903L35.766666666666666,134.60575646451144L36.25,134.8597840506223L36.733333333333334,134.85646888531593L37.21666666666666,135.0374870825803L37.7,135.20602047897242L38.18333333333333,135.36331755458366L38.666666666666664,135.34393643548844L39.150000000000006,135.527523629673L39.63333333333333,135.62168723925413L40.11666666666667,135.63428017349284L40.6,135.72004902157488L41.083333333333336,135.80105246066765L41.56666666666667,135.87767687528705L42.05,136.0184312916892L42.53333333333333,136.1519666863383L43.01666666666667,136.31123425903883L43.5,136.3361916487431L43.983333333333334,136.48354897532542L44.46666666666666,136.59385789611704L44.95,136.66962998790459L45.43333333333334,136.74203389969006L45.916666666666664,136.75475625592279L46.4,136.82229482181077L46.88333333333333,136.8327874706297L47.36666666666667,136.8694272217596L47.85,136.9046010953138L48.33333333333333,136.93839531938784L48.81666666666667,136.99596903760153L49.300000000000004,136.9775140199917L49.78333333333333,136.95974267868328L50.266666666666666,136.966364589276L50.75,136.92608118852144L51.233333333333334,136.93308433542293L51.71666666666667,136.93984593020392L52.199999999999996,136.85765494145858L52.68333333333334,136.84367029458056L53.166666666666664,136.8086694478382L53.65,136.81707589230282L54.13333333333333,136.72114685286041L54.61666666666667,136.73070974710464L55.1,136.61881872832927L55.583333333333336,136.5501138145076L56.06666666666666,136.4638506554042L56.550000000000004,136.38012558384003L57.03333333333333,136.24164730519473L57.516666666666666,136.20111367829193L58,136.14318057419905L58.483333333333334,136.03197765409766L58.96666666666667,135.97797740400574L59.449999999999996,135.83635509503992L59.93333333333333,135.62816081344204L60.41666666666667,135.37335368344088L60.9,134.73077147630138L61.38333333333333,134.595823480366L61.86666666666667,134.28026280848164L62.35,134.1709444464221L62.833333333333336,133.9826612301312L63.31666666666666,133.75054713444635L63.8,133.31661076713698L64.28333333333333,132.95610449440326L64.76666666666667,132.5728952016294L65.25,132.09065263339858L65.73333333333333,131.77202034855912L66.21666666666667,131.41537662081882L66.7,131.00705760549224L67.18333333333334,130.51922723566537L67.66666666666667,130.11517614995677L68.14999999999999,129.47412147196576L68.63333333333333,128.87548256149213L69.11666666666667,128.09128325027638L69.6,127.42176327913873L70.08333333333333,126.64125220578956L70.56666666666668,125.94558114217449L71.05,125.16882485472402L71.53333333333333,124.29991307439155L72.01666666666667,123.14124605854755L72.5,122.25688387200955L72.98333333333333,120.77392868855321L73.46666666666667,119.64440410757186L73.95,118.52375428800805L74.43333333333332,117.52646629665306L74.91666666666667,116.64909667382591L75.4,115.71299997112418L75.88333333333333,114.43425574478391L76.36666666666666,113.41280972618772L76.85000000000001,112.37335358502361L77.33333333333333,111.54618210040809L77.81666666666666,110.06213547409178L78.30000000000001,108.84225527080669L78.78333333333333,107.9504716925217L79.26666666666667,107.0625157819982L79.75,105.65614276328638L80.23333333333333,104.82629740292259L80.71666666666667,103.89635663688672L81.2,102.6648999368831L81.68333333333334,101.33036946398404L82.16666666666667,100.46396190463668L82.64999999999999,99.52325512477343L83.13333333333334,98.32335326970231L83.61666666666666,96.96847394191606L84.1,95.90568284432075L84.58333333333334,94.79537490751194L85.06666666666666,92.86079727772908L85.55,91.90844904852648L86.03333333333335,91.17039526816035L86.51666666666667,89.06763556207491L87,88.03205445778443L87.48333333333333,86.97107857658693L87.96666666666667,86.0587405667303L88.45,85.28164079056204L88.93333333333332,84.0430955993682L89.41666666666667,83.13261170280765L89.9,81.98728759275477L90.38333333333333,81.05576780300036L90.86666666666667,80.39228609925519L91.35,79.71884258420538L91.83333333333333,78.42684786902434L92.31666666666668,77.83468069329147L92.8,77.17450915972555L93.28333333333333,76.09710564583175L93.76666666666667,75.40177992456614L94.25,74.01435238392811L94.73333333333333,73.09204945626843L95.21666666666665,72.17299455188626L95.7,71.69777307626701L96.18333333333334,69.91510678249647L96.66666666666666,68.89963597210229L97.15,68.66359731435627L97.63333333333334,68.00067747006018L98.11666666666666,67.48884660755043L98.60000000000001,66.13395605018522L99.08333333333333,65.32437156521893L99.56666666666666,64.7787716290257L100.05,63.84010150502456L100.53333333333333,63.34551143764166L101.01666666666667,62.435955688647184L101.5,61.7000947684314L101.98333333333333,61.27924011994749L102.46666666666667,60.64387980050725L102.94999999999999,60.083499458338494L103.43333333333334,59.5884115451115L103.91666666666667,58.999597831166554L104.39999999999999,58.36001125766025L104.88333333333334,58.5662676616472L105.36666666666667,58.20613324799385L105.85,57.76895595938731L106.33333333333333,57.078172297758925L106.81666666666668,56.74125800367035L107.3,56.49624455975719L107.78333333333333,56.174478783781L108.26666666666667,55.895979203071136L108.75,55.549779450107636L109.23333333333333,55.317178828965964L109.71666666666667,54.92352745935936L110.2,54.53428598219898L110.68333333333332,54.2342430903342L111.16666666666667,54.02963463783877L111.65,53.82728073708368L112.13333333333333,53.482757250578274L112.61666666666666,53.2024825076672L113.10000000000001,52.94781966002803L113.58333333333333,52.65097705941032L114.06666666666666,52.49889132248563L114.55000000000001,52.185294526091184L115.03333333333333,51.845507906032L115.51666666666667,51.50196435587873L116,51.23512203139795L116.48333333333333,50.99289202480372L116.96666666666667,50.615608846145804L117.45,50.28546766716293L117.93333333333334,50.023282443656484L118.41666666666667,49.69237987135733L118.89999999999999,49.42881319563631L119.38333333333334,49.16791737881621L119.86666666666666,48.909652156355634L120.35,48.59088028413578L120.83333333333334,48.26133207663952L121.31666666666666,47.84473149816745L121.8,47.54984303451073L122.28333333333335,47.27851561824991L122.76666666666667,46.89328531010452L123.25,46.63468393041211L123.73333333333333,46.385386647210424L124.21666666666667,45.976079100578346L124.7,45.77958667244394L125.18333333333332,45.52458820380525L125.66666666666667,45.14508081832807L126.15,44.92217386308974L126.63333333333333,44.4628879123388L127.11666666666667,44.17942382584445L127.6,43.786931051540165L128.08333333333334,43.00557280135695L128.56666666666666,42.50506914736599L129.05,42.31411730522592L129.53333333333333,42.015068693234724L130.01666666666665,41.66083139686313L130.5,41.32904068885426L130.98333333333332,40.99386767938606L131.46666666666667,40.6744289102289L131.95000000000002,39.54094585933646L132.43333333333334,38.87802862077788L132.91666666666666,37.78750122485434L133.4,37.05081067378322L133.88333333333333,36.644752730741374L134.36666666666667,36.2174193159467L134.85,35.97319055107698L135.33333333333334,35.67563257921182L135.81666666666666,35.27630783300998L136.29999999999998,34.61750527060377L136.78333333333333,33.891264044056186L137.26666666666665,33.12268582729914L137.75,32.74151250819423L138.23333333333335,32.57436901605149L138.71666666666667,32.26462739564252L139.2,31.808036190733134L139.68333333333334,31.295706939412042L140.16666666666666,30.80545241413313L140.65,30.490733124554936L141.13333333333335,30.143270418124445L141.61666666666667,30.03345856189145L142.1,29.70230194282857L142.58333333333331,29.461264908727003L143.06666666666666,28.734419795623012L143.55,28.221767092271023L144.03333333333333,27.938114140566285L144.51666666666668,27.702704961642468L145,27.537883839530167L145.48333333333335,27.414314255715823L145.96666666666667,27.23487264201276L146.45,26.88687950702817L146.93333333333334,26.637616039957692L147.41666666666666,26.367803028655857L147.9,26.29076113418847L148.38333333333335,26.102548004644945L148.86666666666665,25.804402793487043L149.35,25.547420139760135L149.83333333333334,25.35327291920629L150.31666666666666,25.039312299094092L150.8,24.93658079639556L151.28333333333333,24.779859269541333L151.76666666666665,24.515143045073245L152.25,24.36669596146905L152.73333333333332,24.273602446909763L153.21666666666667,24.13796094100377L153.70000000000002,23.971003942468542L154.1833333333333,23.880484261897465L154.66666666666666,23.833466095654614L155.15,23.690737959556202L155.63333333333333,23.59693769919801L156.11666666666667,23.46670777553433L156.60000000000002,23.300429625655937L157.08333333333331,23.209133540719364L157.56666666666666,23.165775458874663L158.05,23.13320397798421L158.53333333333333,23.0695470971863L159.01666666666668,23.037571261866532L159.5,22.959133782759523L159.98333333333332,22.93297549897511L160.46666666666667,22.845130009067105L160.95000000000002,22.742486056855626L161.43333333333334,22.676440883965142L161.91666666666666,22.585314070295368L162.4,22.489732653046957L162.88333333333333,22.486235711181592L163.36666666666667,22.477699622237566L163.85,22.36320521879574L164.33333333333334,22.36527379851222L164.81666666666666,22.30710426362114L165.29999999999998,22.349412722676476L165.78333333333333,22.381452799319135L166.26666666666668,22.368501683052983L166.75,22.400281090282277L167.23333333333332,22.4417367685449L167.71666666666667,22.69004200409782L168.2,22.754726380160946L168.68333333333334,22.80426599446929L169.16666666666669,22.858363459282856L169.64999999999998,22.838965933382667L170.13333333333333,22.892624718011433L170.61666666666667,22.907142756579645L171.1,22.955406570868234L171.58333333333334,22.998531480552344L172.0666666666667,23.05579605329544L172.54999999999998,23.448284270547674L173.03333333333333,23.436606779201213L173.51666666666668,23.458380207580092L174,23.494276834523305L174.48333333333335,23.90454276484209L174.96666666666667,23.891295629731815L175.45,24.269566207782674L175.93333333333334,24.626602156385957L176.41666666666666,25.004813032506576L176.9,25.385296012073013L177.38333333333335,25.768031626031785L177.86666666666665,26.15765379831595L178.35,26.154992595333027L178.83333333333334,26.51337420174582L179.31666666666666,26.846429042956544L179.8,27.200425062507605L180.28333333333333,27.543032597000177L180.76666666666665,27.837711034499392L181.25,28.217364393255963L181.73333333333335,28.55822296592163L182.21666666666667,28.9106190538989L182.7,29.251787546494967L183.18333333333334,29.572783693456756L183.66666666666666,29.846722842024576L184.15,29.85358332659635L184.63333333333335,30.187963698012652L185.11666666666665,30.180160806598735L185.6,30.225979782740154L186.08333333333334,30.209176075508424L186.56666666666666,30.19691529708706L187.05,30.211315058816183L187.53333333333333,30.212368362787913L188.01666666666665,30.23987128698002L188.5,30.548712613572917L188.98333333333332,30.56614447071098L189.46666666666667,30.59660451181759L189.95000000000002,30.635618276845292L190.4333333333333,30.643913956663084L190.91666666666666,30.652161210808913L191.4,30.682033715103643L191.88333333333333,30.677138957203283L192.36666666666667,30.650703155553458L192.85000000000002,30.624419942908077L193.33333333333331,30.933168386276776L193.81666666666666,30.86322673709742L194.3,30.89196526355468L194.78333333333333,30.848069222000788L195.26666666666668,30.834193810932987L195.75,30.79918209097886L196.23333333333332,30.806699793970267L196.71666666666667,30.797281919365417L197.20000000000002,30.783703568858613L197.68333333333334,30.765997686774767L198.16666666666666,30.773555558323352L198.65,30.801993631082468L199.13333333333333,30.75929973732653L199.61666666666667,30.7460008197541L200.1,30.761867185877037L200.58333333333334,30.74447359445253L201.06666666666666,30.73545020823579L201.54999999999998,30.734732165572126L202.03333333333333,30.742255307484896L202.51666666666668,30.725080792224674L203,30.74080207124507L203.48333333333332,30.764620195855315L203.96666666666667,30.763816459106437L204.45,30.734505302339215L204.93333333333334,30.73380136477971L205.41666666666669,30.737156461845075L205.89999999999998,30.732400777279423L206.38333333333333,30.735745701315324L206.86666666666667,30.718928716944106L207.35,30.722301753574612L207.83333333333334,30.709611196129515L208.3166666666667,30.7210046380593L208.79999999999998,30.712366803280645L209.28333333333333,30.711745858308234L209.76666666666668,30.69521943375591L210.25,30.69862339279075L210.73333333333335,30.70993021964219L211.21666666666667,30.740937941930895L211.7,30.728403922955692L212.18333333333334,30.743482751888195L212.66666666666666,30.715284647277542L213.15,30.706827138376212L213.63333333333335,30.710145729484168L214.11666666666665,30.70173905417414L214.6,30.708954191320373L215.08333333333334,30.677265860451712L215.56666666666666,30.665132633409087L216.05,30.653061174816173L216.53333333333333,30.633325334662374L217.01666666666665,30.648384347469317L217.5,30.63258991113338L217.98333333333335,30.624553882632682L218.46666666666667,30.601231665817153L218.95,30.551258805149928L219.43333333333334,30.825920658874793L219.91666666666666,30.783091805589606L220.4,30.759481695369658L220.88333333333335,30.74736951072319L221.36666666666665,30.723959304345613L221.85,30.69688632961558L222.33333333333334,30.647320254206704L222.81666666666666,30.590470735882263L223.3,30.590245652344436L223.78333333333333,30.556280462344034L224.26666666666665,30.533706483451482L224.75,30.473897824208706L225.23333333333332,30.451652690562156L225.71666666666667,30.429515528638348L226.20000000000002,30.377782211203964L226.6833333333333,30.374474271670437L227.16666666666666,30.382278440548475L227.65,30.32728663034618L228.13333333333333,30.287297308343256L228.61666666666667,30.232788699302716L229.10000000000002,30.215247747302982L229.58333333333331,30.186798927247622L230.06666666666666,30.151171489350475L230.55,30.097462610826454L231.03333333333333,30.02943483901288L231.51666666666668,29.97627426102349L232,29.963291255727256L232.48333333333332,30.25832569019306L232.96666666666667,30.222890438784702L233.45000000000002,30.191230694044947L233.93333333333334,30.174130963372136L234.41666666666666,30.149918005198117L234.9,30.13299737762867L235.38333333333333,30.123321937309697L235.86666666666667,30.088653355833486L236.35,30.0612856223062L236.83333333333334,30.0340439988465L237.31666666666666,30.017600169484382L237.79999999999998,30.01543629496686L238.28333333333333,29.977834601878016L238.76666666666668,29.9970197987017L239.25,29.99139251658528L239.73333333333332,30.285490482810616L240.21666666666667,30.588812662827593L240.7,30.58860671745768L241.18333333333334,30.584894462486176L241.66666666666669,30.58119894636144L242.14999999999998,30.51461087540102L242.63333333333333,30.511121130007012L243.11666666666667,30.514612577666213L243.6,30.50418148764618L244.08333333333334,30.49379693362505L244.5666666666667,30.469599734397576L245.04999999999998,30.459345039593387L245.53333333333333,30.445682992700853L246.01666666666668,30.425187587121826L246.5,30.707591601353982L246.98333333333335,30.700199029172893L247.46666666666667,30.699697581474368L247.95,30.70604533861541L248.43333333333334,30.671352695761527L248.91666666666666,30.67093119672603L249.4,30.95663428719962L249.88333333333335,30.941849144455148L250.36666666666665,30.937312682855634L250.85,30.932795877488616L251.33333333333334,30.924915070331508L251.81666666666666,30.88328905707968L252.3,30.882310313492752L252.78333333333333,30.87796900537765L253.26666666666665,30.860201391088594L253.75,30.855932690676838L254.23333333333335,30.861732895762856L254.71666666666667,30.847439844315574L255.2,30.859922078829754L255.68333333333334,31.1357284076949L256.1666666666667,31.137430013425757L256.65,31.10921642032548L257.1333333333333,31.10434620753165L257.6166666666667,31.099496508878644L258.1,31.081438727419766L258.58333333333337,31.046947552546413L259.06666666666666,31.055456163691503L259.55,31.067220541797866L260.0333333333333,31.062505336356224L260.51666666666665,31.041405235017095L261,31.023668519496027L261.4833333333333,30.98311134426669L261.96666666666664,30.965580063493462L262.45,30.95790216163286L262.93333333333334,30.940490213894435L263.4166666666667,30.936150544169692L263.90000000000003,30.925338473709616L264.3833333333333,30.921050875427994L264.8666666666667,30.894135315499312L265.35,30.889940219350166" style="fill: none;" fill="none"></path></g></g></g></g><g opacity="0.2"><g><g><g><path stroke="rgb(187, 187, 187)" stroke-width="2px" d="M24.166666666666664,101.71428571428572L24.650000000000002,122.05714285714285L25.133333333333333,120.78571428571428L25.616666666666667,136.04285714285714L26.099999999999998,133.5L26.583333333333332,130.95714285714286L27.066666666666666,139.85714285714286L27.55,137.31428571428572L28.03333333333333,132.22857142857143L28.516666666666666,133.5L29,138.5857142857143L29.483333333333334,137.31428571428572L29.966666666666665,139.85714285714286L30.45,141.12857142857143L30.933333333333334,138.5857142857143L31.416666666666668,133.5L31.9,138.5857142857143L32.38333333333333,137.31428571428572L32.86666666666667,138.5857142857143L33.35,139.85714285714286L33.833333333333336,139.85714285714286L34.31666666666666,139.85714285714286L34.8,134.77142857142857L35.28333333333334,141.12857142857143L35.766666666666666,137.31428571428572L36.25,141.12857142857143L36.733333333333334,134.77142857142857L37.21666666666666,139.85714285714286L37.7,139.85714285714286L38.18333333333333,139.85714285714286L38.666666666666664,134.77142857142857L39.150000000000006,141.12857142857143L39.63333333333333,138.5857142857143L40.11666666666667,136.04285714285714L40.6,138.5857142857143L41.083333333333336,138.5857142857143L41.56666666666667,138.5857142857143L42.05,141.12857142857143L42.53333333333333,141.12857142857143L43.01666666666667,142.4L43.5,137.31428571428572L43.983333333333334,142.4L44.46666666666666,141.12857142857143L44.95,139.85714285714286L45.43333333333334,139.85714285714286L45.916666666666664,137.31428571428572L46.4,139.85714285714286L46.88333333333333,137.31428571428572L47.36666666666667,138.5857142857143L47.85,138.5857142857143L48.33333333333333,138.5857142857143L48.81666666666667,139.85714285714286L49.300000000000004,136.04285714285714L49.78333333333333,136.04285714285714L50.266666666666666,137.31428571428572L50.75,134.77142857142857L51.233333333333334,137.31428571428572L51.71666666666667,137.31428571428572L52.199999999999996,132.22857142857143L52.68333333333334,136.04285714285714L53.166666666666664,134.77142857142857L53.65,137.31428571428572L54.13333333333333,130.95714285714286L54.61666666666667,137.31428571428572L55.1,129.68571428571428L55.583333333333336,132.22857142857143L56.06666666666666,130.95714285714286L56.550000000000004,130.95714285714286L57.03333333333333,127.14285714285714L57.516666666666666,133.5L58,132.22857142857143L58.483333333333334,128.4142857142857L58.96666666666667,132.22857142857143L59.449999999999996,125.87142857142857L59.93333333333333,120.78571428571428L60.41666666666667,116.97142857142856L60.9,87.72857142857143L61.38333333333333,124.6L61.86666666666667,110.61428571428571L62.35,125.87142857142857L62.833333333333336,119.5142857142857L63.31666666666666,115.7L63.8,99.17142857142858L64.28333333333333,104.25714285714285L64.76666666666667,101.71428571428572L65.25,92.81428571428572L65.73333333333333,105.52857142857142L66.21666666666667,101.71428571428572L66.7,96.62857142857143L67.18333333333334,89L67.66666666666667,95.35714285714286L68.14999999999999,73.74285714285713L68.63333333333333,76.28571428571429L69.11666666666667,58.485714285714295L69.6,67.38571428571429L70.08333333333333,55.942857142857136L70.56666666666668,62.3L71.05,53.400000000000006L71.53333333333333,43.22857142857143L72.01666666666667,13.985714285714295L72.5,38.14285714285714L72.98333333333333,-21.614285714285728L73.46666666666667,10.171428571428578L73.95,8.900000000000006L74.43333333333332,19.071428571428555L74.91666666666667,29.242857142857133L75.4,21.614285714285728L75.88333333333333,-15.257142857142838L76.36666666666666,8.900000000000006L76.85000000000001,5.085714285714289L77.33333333333333,25.428571428571445L77.81666666666666,-45.77142857142857L78.30000000000001,-20.342857142857156L78.78333333333333,12.714285714285722L79.26666666666667,11.44285714285715L79.75,-47.042857142857144L80.23333333333333,13.985714285714295L80.71666666666667,1.2714285714285722L81.2,-34.32857142857142L81.68333333333334,-48.31428571428569L82.16666666666667,2.5428571428571445L82.64999999999999,-7.628571428571433L85.55,-21.614285714285728L86.03333333333335,2.5428571428571445L86.51666666666667,-165.28571428571428L91.83333333333333,-90.27142857142854L92.31666666666668,0L92.8,-10.171428571428578L95.21666666666665,-53.400000000000006L95.7,6.357142857142861L96.18333333333334,-176.72857142857146L96.66666666666666,-72.47142857142859L97.15,35.599999999999994L97.63333333333334,-25.428571428571416L104.39999999999999,-39.41428571428574L104.88333333333334,90.27142857142857L105.36666666666667,2.5428571428571445L105.85,-10.171428571428578L106.33333333333333,-50.85714285714286L106.81666666666668,3.8142857142857167L107.3,17.799999999999983L107.78333333333333,5.085714285714289L108.26666666666667,11.44285714285715L108.75,0L109.23333333333333,17.799999999999983L109.71666666666667,-8.900000000000006L110.2,-8.900000000000006L110.68333333333332,5.085714285714289L111.16666666666667,20.342857142857156L111.65,20.342857142857156L112.13333333333333,-3.8142857142856883L112.61666666666666,6.357142857142861L113.10000000000001,10.171428571428578L113.58333333333333,2.5428571428571445L114.06666666666666,26.700000000000017L114.55000000000001,-1.2714285714285722L115.51666666666667,-7.628571428571433L116,5.085714285714289L116.48333333333333,8.900000000000006L116.96666666666667,-15.257142857142838L117.45,-7.628571428571433L117.93333333333334,3.8142857142857167L118.41666666666667,-8.900000000000006L118.89999999999999,2.5428571428571445L119.38333333333334,2.5428571428571445L119.86666666666666,2.5428571428571445L120.35,-8.900000000000006L123.25,-1.2714285714285722L123.73333333333333,0L124.21666666666667,-30.514285714285734L124.7,8.900000000000006L125.18333333333332,-2.5428571428571445L125.66666666666667,-26.69999999999999L126.15,2.5428571428571445L126.63333333333333,-43.22857142857143L128.56666666666666,-54.67142857142858L129.05,5.085714285714289L129.53333333333333,-16.52857142857141L141.13333333333335,-44.5L141.61666666666667,6.357142857142861L142.1,-41.957142857142856L145,-8.900000000000006L145.48333333333335,0L145.96666666666667,-12.714285714285722L147.41666666666666,-34.32857142857142L147.9,8.900000000000006L148.38333333333335,-16.52857142857141L150.31666666666666,-47.042857142857144L150.8,1.2714285714285722L151.28333333333333,-11.44285714285715L152.25,-10.171428571428578L152.73333333333332,2.5428571428571445L153.21666666666667,-7.628571428571433L153.70000000000002,-15.257142857142838L154.1833333333333,2.5428571428571445L154.66666666666666,12.714285714285722L155.15,-10.171428571428578L155.63333333333333,1.2714285714285722L156.11666666666667,-7.628571428571433L156.60000000000002,-16.52857142857141L157.08333333333331,1.2714285714285722L157.56666666666666,12.714285714285722L158.05,15.257142857142867L158.53333333333333,7.628571428571433L159.01666666666668,15.257142857142867L159.5,3.8142857142857167L159.98333333333332,16.52857142857144L160.46666666666667,1.2714285714285722L160.95000000000002,-2.5428571428571445L161.43333333333334,6.357142857142861L161.91666666666666,0L162.4,-1.2714285714285722L162.88333333333333,21.614285714285728L163.36666666666667,20.342857142857156L163.85,-6.357142857142861L164.33333333333334,22.885714285714272L164.81666666666666,7.628571428571433L165.29999999999998,33.05714285714285L165.78333333333333,30.514285714285705L166.26666666666668,19.071428571428555L166.75,30.514285714285705L167.23333333333332,33.05714285714285L167.71666666666667,86.45714285714287L168.2,39.41428571428571L168.68333333333334,35.599999999999994L169.16666666666669,36.87142857142857L169.64999999999998,17.799999999999983L170.13333333333333,36.87142857142857L170.61666666666667,26.700000000000017L171.1,35.599999999999994L171.58333333333334,34.32857142857142L172.0666666666667,38.14285714285714L172.54999999999998,127.14285714285714L173.03333333333333,20.342857142857156L173.51666666666668,29.242857142857133L174,33.05714285714285L174.48333333333335,133.5L174.96666666666667,20.342857142857156L175.45,125.87142857142857L175.93333333333334,120.78571428571428L176.41666666666666,127.14285714285714L176.9,128.4142857142857L177.38333333333335,129.68571428571428L177.86666666666665,132.22857142857143L178.35,25.428571428571445L178.83333333333334,124.6L179.31666666666666,118.24285714285715L179.8,124.6L180.28333333333333,122.05714285714285L180.76666666666665,109.34285714285714L181.25,133.5L181.73333333333335,123.32857142857142L182.21666666666667,127.14285714285714L182.7,124.6L183.18333333333334,119.5142857142857L183.66666666666666,106.8L184.15,31.785714285714278L184.63333333333335,124.6L185.11666666666665,27.97142857142856L185.6,43.22857142857143L186.08333333333334,25.428571428571445L186.56666666666666,26.700000000000017L187.05,34.32857142857142L187.53333333333333,30.514285714285705L188.01666666666665,38.14285714285714L188.5,119.5142857142857L188.98333333333332,35.599999999999994L189.46666666666667,39.41428571428571L189.95000000000002,41.957142857142856L190.4333333333333,33.05714285714285L190.91666666666666,33.05714285714285L191.4,39.41428571428571L191.88333333333333,29.242857142857133L192.36666666666667,22.885714285714272L192.85000000000002,22.885714285714272L193.33333333333331,122.05714285714285L193.81666666666666,10.171428571428578L194.3,39.41428571428571L194.78333333333333,17.799999999999983L195.26666666666668,26.700000000000017L195.75,20.342857142857156L196.23333333333332,33.05714285714285L196.71666666666667,27.97142857142856L197.20000000000002,26.700000000000017L197.68333333333334,25.428571428571445L198.16666666666666,33.05714285714285L198.65,39.41428571428571L199.13333333333333,17.799999999999983L199.61666666666667,26.700000000000017L200.1,35.599999999999994L200.58333333333334,25.428571428571445L201.06666666666666,27.97142857142856L201.54999999999998,30.514285714285705L202.03333333333333,33.05714285714285L202.51666666666668,25.428571428571445L203,35.599999999999994L203.48333333333332,38.14285714285714L203.96666666666667,30.514285714285705L204.45,21.614285714285728L204.93333333333334,30.514285714285705L205.41666666666669,31.785714285714278L205.89999999999998,29.242857142857133L206.38333333333333,31.785714285714278L206.86666666666667,25.428571428571445L207.35,31.785714285714278L207.83333333333334,26.700000000000017L208.3166666666667,34.32857142857142L208.79999999999998,27.97142857142856L209.28333333333333,30.514285714285705L209.76666666666668,25.428571428571445L210.25,31.785714285714278L210.73333333333335,34.32857142857142L211.21666666666667,40.68571428571428L211.7,26.700000000000017L212.18333333333334,35.599999999999994L212.66666666666666,21.614285714285728L213.15,27.97142857142856L213.63333333333335,31.785714285714278L214.11666666666665,27.97142857142856L214.6,33.05714285714285L215.08333333333334,20.342857142857156L215.56666666666666,26.700000000000017L216.05,26.700000000000017L216.53333333333333,24.157142857142844L217.01666666666665,35.599999999999994L217.5,25.428571428571445L217.98333333333335,27.97142857142856L218.46666666666667,22.885714285714272L218.95,13.985714285714295L219.43333333333334,122.05714285714285L219.91666666666666,16.52857142857144L220.4,22.885714285714272L220.88333333333335,26.700000000000017L221.36666666666665,22.885714285714272L221.85,21.614285714285728L222.33333333333334,13.985714285714295L222.81666666666666,11.44285714285715L223.3,30.514285714285705L223.78333333333333,19.071428571428555L224.26666666666665,22.885714285714272L224.75,10.171428571428578L225.23333333333332,22.885714285714272L225.71666666666667,22.885714285714272L226.20000000000002,12.714285714285722L226.6833333333333,29.242857142857133L227.16666666666666,33.05714285714285L227.65,11.44285714285715L228.13333333333333,16.52857142857144L228.61666666666667,11.44285714285715L229.10000000000002,24.157142857142844L229.58333333333331,20.342857142857156L230.06666666666666,17.799999999999983L230.55,11.44285714285715L231.03333333333333,6.357142857142861L231.51666666666668,11.44285714285715L232,25.428571428571445L232.48333333333332,133.5L232.96666666666667,17.799999999999983L233.45000000000002,19.071428571428555L233.93333333333334,24.157142857142844L234.41666666666666,21.614285714285728L234.9,24.157142857142844L235.38333333333333,26.700000000000017L235.86666666666667,17.799999999999983L236.35,20.342857142857156L236.83333333333334,20.342857142857156L237.31666666666666,24.157142857142844L237.79999999999998,29.242857142857133L238.28333333333333,16.52857142857144L238.76666666666668,36.87142857142857L239.25,27.97142857142856L239.73333333333332,136.04285714285714L240.21666666666667,139.85714285714286L240.7,30.514285714285705L241.18333333333334,29.242857142857133L241.66666666666669,29.242857142857133L242.14999999999998,6.357142857142861L242.63333333333333,29.242857142857133L243.11666666666667,31.785714285714278L243.6,26.700000000000017L244.08333333333334,26.700000000000017L244.5666666666667,21.614285714285728L245.04999999999998,26.700000000000017L245.53333333333333,25.428571428571445L246.01666666666668,22.885714285714272L246.5,134.77142857142857L246.98333333333335,27.97142857142856L247.46666666666667,30.514285714285705L247.95,33.05714285714285L248.43333333333334,17.799999999999983L248.91666666666666,30.514285714285705L249.4,137.31428571428572L249.88333333333335,25.428571428571445L250.36666666666665,29.242857142857133L250.85,29.242857142857133L251.33333333333334,27.97142857142856L251.81666666666666,15.257142857142867L252.3,30.514285714285705L252.78333333333333,29.242857142857133L253.26666666666665,24.157142857142844L253.75,29.242857142857133L254.23333333333335,33.05714285714285L254.71666666666667,25.428571428571445L255.2,35.599999999999994L255.68333333333334,136.04285714285714L256.1666666666667,31.785714285714278L256.65,20.342857142857156L257.1333333333333,29.242857142857133L257.6166666666667,29.242857142857133L258.1,24.157142857142844L258.58333333333337,17.799999999999983L259.06666666666666,34.32857142857142L259.55,35.599999999999994L260.0333333333333,29.242857142857133L260.51666666666665,22.885714285714272L261,24.157142857142844L261.4833333333333,15.257142857142867L261.96666666666664,24.157142857142844L262.45,27.97142857142856L262.93333333333334,24.157142857142844L263.4166666666667,29.242857142857133L263.90000000000003,26.700000000000017L264.3833333333333,29.242857142857133L264.8666666666667,20.342857142857156L265.35,29.242857142857133" style="fill: none;" fill="none"></path></g></g></g></g></g></g><g transform="translate(40, 178)" clip-path="url(#clip_1)"><clipPath id="clip_1"><rect width="290" height="22"></rect></clipPath><g><g><line x1="0" y1="0" x2="0" y2="5" style="visibility: inherit;" fill="rgb(0, 0, 0)" stroke="rgb(204, 204, 204)" stroke-width="1px"></line><line x1="24.166666666666664" y1="0" x2="24.166666666666664" y2="5" style="visibility: inherit;" fill="rgb(0, 0, 0)" stroke="rgb(204, 204, 204)" stroke-width="1px"></line><line x1="48.33333333333333" y1="0" x2="48.33333333333333" y2="5" style="visibility: inherit;" fill="rgb(0, 0, 0)" stroke="rgb(204, 204, 204)" stroke-width="1px"></line><line x1="72.5" y1="0" x2="72.5" y2="5" style="visibility: inherit;" fill="rgb(0, 0, 0)" stroke="rgb(204, 204, 204)" stroke-width="1px"></line><line x1="96.66666666666666" y1="0" x2="96.66666666666666" y2="5" style="visibility: inherit;" fill="rgb(0, 0, 0)" stroke="rgb(204, 204, 204)" stroke-width="1px"></line><line x1="120.83333333333334" y1="0" x2="120.83333333333334" y2="5" style="visibility: inherit;" fill="rgb(0, 0, 0)" stroke="rgb(204, 204, 204)" stroke-width="1px"></line><line x1="145" y1="0" x2="145" y2="5" style="visibility: inherit;" fill="rgb(0, 0, 0)" stroke="rgb(204, 204, 204)" stroke-width="1px"></line><line x1="169.16666666666669" y1="0" x2="169.16666666666669" y2="5" style="visibility: inherit;" fill="rgb(0, 0, 0)" stroke="rgb(204, 204, 204)" stroke-width="1px"></line><line x1="193.33333333333331" y1="0" x2="193.33333333333331" y2="5" style="visibility: inherit;" fill="rgb(0, 0, 0)" stroke="rgb(204, 204, 204)" stroke-width="1px"></line><line x1="217.5" y1="0" x2="217.5" y2="5" style="visibility: inherit;" fill="rgb(0, 0, 0)" stroke="rgb(204, 204, 204)" stroke-width="1px"></line><line x1="241.66666666666669" y1="0" x2="241.66666666666669" y2="5" style="visibility: inherit;" fill="rgb(0, 0, 0)" stroke="rgb(204, 204, 204)" stroke-width="1px"></line><line x1="265.8333333333333" y1="0" x2="265.8333333333333" y2="5" style="visibility: inherit;" fill="rgb(0, 0, 0)" stroke="rgb(204, 204, 204)" stroke-width="1px"></line><line x1="290" y1="0" x2="290" y2="5" style="visibility: inherit;" fill="rgb(0, 0, 0)" stroke="rgb(204, 204, 204)" stroke-width="1px"></line></g><g transform="translate(0, 8)"><text x="0" y="0" dx="0em" dy="0.95em" style="text-anchor: middle; visibility: hidden; font-family: &quot;Helvetica Neue&quot;, sans-serif; font-size: 12px; font-weight: 200;" fill="rgb(50, 49, 63)" stroke="none" stroke-width="1px">-50</text><text x="24.166666666666664" y="0" dx="0em" dy="0.95em" style="text-anchor: middle; visibility: inherit; font-family: &quot;Helvetica Neue&quot;, sans-serif; font-size: 12px; font-weight: 200;" fill="rgb(50, 49, 63)" stroke="none" stroke-width="1px">0</text><text x="48.33333333333333" y="0" dx="0em" dy="0.95em" style="text-anchor: middle; visibility: hidden; font-family: &quot;Helvetica Neue&quot;, sans-serif; font-size: 12px; font-weight: 200;" fill="rgb(50, 49, 63)" stroke="none" stroke-width="1px">50</text><text x="72.5" y="0" dx="0em" dy="0.95em" style="text-anchor: middle; visibility: inherit; font-family: &quot;Helvetica Neue&quot;, sans-serif; font-size: 12px; font-weight: 200;" fill="rgb(50, 49, 63)" stroke="none" stroke-width="1px">100</text><text x="96.66666666666666" y="0" dx="0em" dy="0.95em" style="text-anchor: middle; visibility: hidden; font-family: &quot;Helvetica Neue&quot;, sans-serif; font-size: 12px; font-weight: 200;" fill="rgb(50, 49, 63)" stroke="none" stroke-width="1px">150</text><text x="120.83333333333334" y="0" dx="0em" dy="0.95em" style="text-anchor: middle; visibility: inherit; font-family: &quot;Helvetica Neue&quot;, sans-serif; font-size: 12px; font-weight: 200;" fill="rgb(50, 49, 63)" stroke="none" stroke-width="1px">200</text><text x="145" y="0" dx="0em" dy="0.95em" style="text-anchor: middle; visibility: hidden; font-family: &quot;Helvetica Neue&quot;, sans-serif; font-size: 12px; font-weight: 200;" fill="rgb(50, 49, 63)" stroke="none" stroke-width="1px">250</text><text x="169.16666666666669" y="0" dx="0em" dy="0.95em" style="text-anchor: middle; visibility: inherit; font-family: &quot;Helvetica Neue&quot;, sans-serif; font-size: 12px; font-weight: 200;" fill="rgb(50, 49, 63)" stroke="none" stroke-width="1px">300</text><text x="193.33333333333331" y="0" dx="0em" dy="0.95em" style="text-anchor: middle; visibility: hidden; font-family: &quot;Helvetica Neue&quot;, sans-serif; font-size: 12px; font-weight: 200;" fill="rgb(50, 49, 63)" stroke="none" stroke-width="1px">350</text><text x="217.5" y="0" dx="0em" dy="0.95em" style="text-anchor: middle; visibility: inherit; font-family: &quot;Helvetica Neue&quot;, sans-serif; font-size: 12px; font-weight: 200;" fill="rgb(50, 49, 63)" stroke="none" stroke-width="1px">400</text><text x="241.66666666666669" y="0" dx="0em" dy="0.95em" style="text-anchor: middle; visibility: hidden; font-family: &quot;Helvetica Neue&quot;, sans-serif; font-size: 12px; font-weight: 200;" fill="rgb(50, 49, 63)" stroke="none" stroke-width="1px">450</text><text x="265.8333333333333" y="0" dx="0em" dy="0.95em" style="text-anchor: middle; visibility: inherit; font-family: &quot;Helvetica Neue&quot;, sans-serif; font-size: 12px; font-weight: 200;" fill="rgb(50, 49, 63)" stroke="none" stroke-width="1px">500</text><text x="290" y="0" dx="0em" dy="0.95em" style="text-anchor: middle; visibility: hidden; font-family: &quot;Helvetica Neue&quot;, sans-serif; font-size: 12px; font-weight: 200;" fill="rgb(50, 49, 63)" stroke="none" stroke-width="1px">550</text></g><line x1="0" y1="0" x2="290" y2="0" fill="rgb(0, 0, 0)" stroke="rgb(204, 204, 204)" stroke-width="1px"></line></g></g></g></g></svg>