<?xml version="1.0" encoding="utf-8" standalone="no"?>
<!DOCTYPE svg PUBLIC "-//W3C//DTD SVG 1.1//EN"
  "http://www.w3.org/Graphics/SVG/1.1/DTD/svg11.dtd">
<svg height="345.6pt" version="1.1" viewBox="0 0 460.8 345.6" width="460.8pt" xmlns="http://www.w3.org/2000/svg" xmlns:xlink="http://www.w3.org/1999/xlink">
 <metadata>
  <rdf:RDF xmlns:cc="http://creativecommons.org/ns#" xmlns:dc="http://purl.org/dc/elements/1.1/" xmlns:rdf="http://www.w3.org/1999/02/22-rdf-syntax-ns#">
   <cc:Work>
    <dc:type rdf:resource="http://purl.org/dc/dcmitype/StillImage"/>
    <dc:date>2021-10-20T11:40:17.482211</dc:date>
    <dc:format>image/svg+xml</dc:format>
    <dc:creator>
     <cc:Agent>
      <dc:title>Matplotlib v3.4.1, https://matplotlib.org/</dc:title>
     </cc:Agent>
    </dc:creator>
   </cc:Work>
  </rdf:RDF>
 </metadata>
 <defs>
  <style type="text/css">*{stroke-linecap:butt;stroke-linejoin:round;}</style>
 </defs>
 <g id="figure_1">
  <g id="patch_1">
   <path d="M 0 345.6 
L 460.8 345.6 
L 460.8 0 
L 0 0 
z
" style="fill:#ffffff;"/>
  </g>
  <g id="axes_1">
   <g id="patch_2">
    <path d="M 57.6 307.584 
L 414.72 307.584 
L 414.72 41.472 
L 57.6 41.472 
z
" style="fill:#ffffff;"/>
   </g>
   <g id="matplotlib.axis_1">
    <g id="xtick_1">
     <g id="line2d_1">
      <path clip-path="url(#p48c50e1517)" d="M 57.6 307.584 
L 57.6 41.472 
" style="fill:none;stroke:#b0b0b0;stroke-dasharray:2.96,1.28;stroke-dashoffset:0;stroke-width:0.8;"/>
     </g>
     <g id="line2d_2">
      <defs>
       <path d="M 0 0 
L 0 3.5 
" id="m015a697087" style="stroke:#000000;stroke-width:0.8;"/>
      </defs>
      <g>
       <use style="stroke:#000000;stroke-width:0.8;" x="57.6" xlink:href="#m015a697087" y="307.584"/>
      </g>
     </g>
     <g id="text_1">
      <!-- −2.0 -->
      <g transform="translate(45.458594 322.182437)scale(0.1 -0.1)">
       <defs>
        <path d="M 678 2272 
L 4684 2272 
L 4684 1741 
L 678 1741 
L 678 2272 
z
" id="DejaVuSans-2212" transform="scale(0.015625)"/>
        <path d="M 1228 531 
L 3431 531 
L 3431 0 
L 469 0 
L 469 531 
Q 828 903 1448 1529 
Q 2069 2156 2228 2338 
Q 2531 2678 2651 2914 
Q 2772 3150 2772 3378 
Q 2772 3750 2511 3984 
Q 2250 4219 1831 4219 
Q 1534 4219 1204 4116 
Q 875 4013 500 3803 
L 500 4441 
Q 881 4594 1212 4672 
Q 1544 4750 1819 4750 
Q 2544 4750 2975 4387 
Q 3406 4025 3406 3419 
Q 3406 3131 3298 2873 
Q 3191 2616 2906 2266 
Q 2828 2175 2409 1742 
Q 1991 1309 1228 531 
z
" id="DejaVuSans-32" transform="scale(0.015625)"/>
        <path d="M 684 794 
L 1344 794 
L 1344 0 
L 684 0 
L 684 794 
z
" id="DejaVuSans-2e" transform="scale(0.015625)"/>
        <path d="M 2034 4250 
Q 1547 4250 1301 3770 
Q 1056 3291 1056 2328 
Q 1056 1369 1301 889 
Q 1547 409 2034 409 
Q 2525 409 2770 889 
Q 3016 1369 3016 2328 
Q 3016 3291 2770 3770 
Q 2525 4250 2034 4250 
z
M 2034 4750 
Q 2819 4750 3233 4129 
Q 3647 3509 3647 2328 
Q 3647 1150 3233 529 
Q 2819 -91 2034 -91 
Q 1250 -91 836 529 
Q 422 1150 422 2328 
Q 422 3509 836 4129 
Q 1250 4750 2034 4750 
z
" id="DejaVuSans-30" transform="scale(0.015625)"/>
       </defs>
       <use xlink:href="#DejaVuSans-2212"/>
       <use x="83.789062" xlink:href="#DejaVuSans-32"/>
       <use x="147.412109" xlink:href="#DejaVuSans-2e"/>
       <use x="179.199219" xlink:href="#DejaVuSans-30"/>
      </g>
     </g>
    </g>
    <g id="xtick_2">
     <g id="line2d_3">
      <path clip-path="url(#p48c50e1517)" d="M 102.24 307.584 
L 102.24 41.472 
" style="fill:none;stroke:#b0b0b0;stroke-dasharray:2.96,1.28;stroke-dashoffset:0;stroke-width:0.8;"/>
     </g>
     <g id="line2d_4">
      <g>
       <use style="stroke:#000000;stroke-width:0.8;" x="102.24" xlink:href="#m015a697087" y="307.584"/>
      </g>
     </g>
     <g id="text_2">
      <!-- −1.5 -->
      <g transform="translate(90.098594 322.182437)scale(0.1 -0.1)">
       <defs>
        <path d="M 794 531 
L 1825 531 
L 1825 4091 
L 703 3866 
L 703 4441 
L 1819 4666 
L 2450 4666 
L 2450 531 
L 3481 531 
L 3481 0 
L 794 0 
L 794 531 
z
" id="DejaVuSans-31" transform="scale(0.015625)"/>
        <path d="M 691 4666 
L 3169 4666 
L 3169 4134 
L 1269 4134 
L 1269 2991 
Q 1406 3038 1543 3061 
Q 1681 3084 1819 3084 
Q 2600 3084 3056 2656 
Q 3513 2228 3513 1497 
Q 3513 744 3044 326 
Q 2575 -91 1722 -91 
Q 1428 -91 1123 -41 
Q 819 9 494 109 
L 494 744 
Q 775 591 1075 516 
Q 1375 441 1709 441 
Q 2250 441 2565 725 
Q 2881 1009 2881 1497 
Q 2881 1984 2565 2268 
Q 2250 2553 1709 2553 
Q 1456 2553 1204 2497 
Q 953 2441 691 2322 
L 691 4666 
z
" id="DejaVuSans-35" transform="scale(0.015625)"/>
       </defs>
       <use xlink:href="#DejaVuSans-2212"/>
       <use x="83.789062" xlink:href="#DejaVuSans-31"/>
       <use x="147.412109" xlink:href="#DejaVuSans-2e"/>
       <use x="179.199219" xlink:href="#DejaVuSans-35"/>
      </g>
     </g>
    </g>
    <g id="xtick_3">
     <g id="line2d_5">
      <path clip-path="url(#p48c50e1517)" d="M 146.88 307.584 
L 146.88 41.472 
" style="fill:none;stroke:#b0b0b0;stroke-dasharray:2.96,1.28;stroke-dashoffset:0;stroke-width:0.8;"/>
     </g>
     <g id="line2d_6">
      <g>
       <use style="stroke:#000000;stroke-width:0.8;" x="146.88" xlink:href="#m015a697087" y="307.584"/>
      </g>
     </g>
     <g id="text_3">
      <!-- −1.0 -->
      <g transform="translate(134.738594 322.182437)scale(0.1 -0.1)">
       <use xlink:href="#DejaVuSans-2212"/>
       <use x="83.789062" xlink:href="#DejaVuSans-31"/>
       <use x="147.412109" xlink:href="#DejaVuSans-2e"/>
       <use x="179.199219" xlink:href="#DejaVuSans-30"/>
      </g>
     </g>
    </g>
    <g id="xtick_4">
     <g id="line2d_7">
      <path clip-path="url(#p48c50e1517)" d="M 191.52 307.584 
L 191.52 41.472 
" style="fill:none;stroke:#b0b0b0;stroke-dasharray:2.96,1.28;stroke-dashoffset:0;stroke-width:0.8;"/>
     </g>
     <g id="line2d_8">
      <g>
       <use style="stroke:#000000;stroke-width:0.8;" x="191.52" xlink:href="#m015a697087" y="307.584"/>
      </g>
     </g>
     <g id="text_4">
      <!-- −0.5 -->
      <g transform="translate(179.378594 322.182437)scale(0.1 -0.1)">
       <use xlink:href="#DejaVuSans-2212"/>
       <use x="83.789062" xlink:href="#DejaVuSans-30"/>
       <use x="147.412109" xlink:href="#DejaVuSans-2e"/>
       <use x="179.199219" xlink:href="#DejaVuSans-35"/>
      </g>
     </g>
    </g>
    <g id="xtick_5">
     <g id="line2d_9">
      <path clip-path="url(#p48c50e1517)" d="M 236.16 307.584 
L 236.16 41.472 
" style="fill:none;stroke:#b0b0b0;stroke-dasharray:2.96,1.28;stroke-dashoffset:0;stroke-width:0.8;"/>
     </g>
     <g id="line2d_10">
      <g>
       <use style="stroke:#000000;stroke-width:0.8;" x="236.16" xlink:href="#m015a697087" y="307.584"/>
      </g>
     </g>
     <g id="text_5">
      <!-- 0.0 -->
      <g transform="translate(228.208438 322.182437)scale(0.1 -0.1)">
       <use xlink:href="#DejaVuSans-30"/>
       <use x="63.623047" xlink:href="#DejaVuSans-2e"/>
       <use x="95.410156" xlink:href="#DejaVuSans-30"/>
      </g>
     </g>
    </g>
    <g id="xtick_6">
     <g id="line2d_11">
      <path clip-path="url(#p48c50e1517)" d="M 280.8 307.584 
L 280.8 41.472 
" style="fill:none;stroke:#b0b0b0;stroke-dasharray:2.96,1.28;stroke-dashoffset:0;stroke-width:0.8;"/>
     </g>
     <g id="line2d_12">
      <g>
       <use style="stroke:#000000;stroke-width:0.8;" x="280.8" xlink:href="#m015a697087" y="307.584"/>
      </g>
     </g>
     <g id="text_6">
      <!-- 0.5 -->
      <g transform="translate(272.848437 322.182437)scale(0.1 -0.1)">
       <use xlink:href="#DejaVuSans-30"/>
       <use x="63.623047" xlink:href="#DejaVuSans-2e"/>
       <use x="95.410156" xlink:href="#DejaVuSans-35"/>
      </g>
     </g>
    </g>
    <g id="xtick_7">
     <g id="line2d_13">
      <path clip-path="url(#p48c50e1517)" d="M 325.44 307.584 
L 325.44 41.472 
" style="fill:none;stroke:#b0b0b0;stroke-dasharray:2.96,1.28;stroke-dashoffset:0;stroke-width:0.8;"/>
     </g>
     <g id="line2d_14">
      <g>
       <use style="stroke:#000000;stroke-width:0.8;" x="325.44" xlink:href="#m015a697087" y="307.584"/>
      </g>
     </g>
     <g id="text_7">
      <!-- 1.0 -->
      <g transform="translate(317.488437 322.182437)scale(0.1 -0.1)">
       <use xlink:href="#DejaVuSans-31"/>
       <use x="63.623047" xlink:href="#DejaVuSans-2e"/>
       <use x="95.410156" xlink:href="#DejaVuSans-30"/>
      </g>
     </g>
    </g>
    <g id="xtick_8">
     <g id="line2d_15">
      <path clip-path="url(#p48c50e1517)" d="M 370.08 307.584 
L 370.08 41.472 
" style="fill:none;stroke:#b0b0b0;stroke-dasharray:2.96,1.28;stroke-dashoffset:0;stroke-width:0.8;"/>
     </g>
     <g id="line2d_16">
      <g>
       <use style="stroke:#000000;stroke-width:0.8;" x="370.08" xlink:href="#m015a697087" y="307.584"/>
      </g>
     </g>
     <g id="text_8">
      <!-- 1.5 -->
      <g transform="translate(362.128438 322.182437)scale(0.1 -0.1)">
       <use xlink:href="#DejaVuSans-31"/>
       <use x="63.623047" xlink:href="#DejaVuSans-2e"/>
       <use x="95.410156" xlink:href="#DejaVuSans-35"/>
      </g>
     </g>
    </g>
    <g id="xtick_9">
     <g id="line2d_17">
      <path clip-path="url(#p48c50e1517)" d="M 414.72 307.584 
L 414.72 41.472 
" style="fill:none;stroke:#b0b0b0;stroke-dasharray:2.96,1.28;stroke-dashoffset:0;stroke-width:0.8;"/>
     </g>
     <g id="line2d_18">
      <g>
       <use style="stroke:#000000;stroke-width:0.8;" x="414.72" xlink:href="#m015a697087" y="307.584"/>
      </g>
     </g>
     <g id="text_9">
      <!-- 2.0 -->
      <g transform="translate(406.768438 322.182437)scale(0.1 -0.1)">
       <use xlink:href="#DejaVuSans-32"/>
       <use x="63.623047" xlink:href="#DejaVuSans-2e"/>
       <use x="95.410156" xlink:href="#DejaVuSans-30"/>
      </g>
     </g>
    </g>
    <g id="text_10">
     <!-- Input -->
     <g transform="translate(223.213125 335.860562)scale(0.1 -0.1)">
      <defs>
       <path d="M 628 4666 
L 1259 4666 
L 1259 0 
L 628 0 
L 628 4666 
z
" id="DejaVuSans-49" transform="scale(0.015625)"/>
       <path d="M 3513 2113 
L 3513 0 
L 2938 0 
L 2938 2094 
Q 2938 2591 2744 2837 
Q 2550 3084 2163 3084 
Q 1697 3084 1428 2787 
Q 1159 2491 1159 1978 
L 1159 0 
L 581 0 
L 581 3500 
L 1159 3500 
L 1159 2956 
Q 1366 3272 1645 3428 
Q 1925 3584 2291 3584 
Q 2894 3584 3203 3211 
Q 3513 2838 3513 2113 
z
" id="DejaVuSans-6e" transform="scale(0.015625)"/>
       <path d="M 1159 525 
L 1159 -1331 
L 581 -1331 
L 581 3500 
L 1159 3500 
L 1159 2969 
Q 1341 3281 1617 3432 
Q 1894 3584 2278 3584 
Q 2916 3584 3314 3078 
Q 3713 2572 3713 1747 
Q 3713 922 3314 415 
Q 2916 -91 2278 -91 
Q 1894 -91 1617 61 
Q 1341 213 1159 525 
z
M 3116 1747 
Q 3116 2381 2855 2742 
Q 2594 3103 2138 3103 
Q 1681 3103 1420 2742 
Q 1159 2381 1159 1747 
Q 1159 1113 1420 752 
Q 1681 391 2138 391 
Q 2594 391 2855 752 
Q 3116 1113 3116 1747 
z
" id="DejaVuSans-70" transform="scale(0.015625)"/>
       <path d="M 544 1381 
L 544 3500 
L 1119 3500 
L 1119 1403 
Q 1119 906 1312 657 
Q 1506 409 1894 409 
Q 2359 409 2629 706 
Q 2900 1003 2900 1516 
L 2900 3500 
L 3475 3500 
L 3475 0 
L 2900 0 
L 2900 538 
Q 2691 219 2414 64 
Q 2138 -91 1772 -91 
Q 1169 -91 856 284 
Q 544 659 544 1381 
z
M 1991 3584 
L 1991 3584 
z
" id="DejaVuSans-75" transform="scale(0.015625)"/>
       <path d="M 1172 4494 
L 1172 3500 
L 2356 3500 
L 2356 3053 
L 1172 3053 
L 1172 1153 
Q 1172 725 1289 603 
Q 1406 481 1766 481 
L 2356 481 
L 2356 0 
L 1766 0 
Q 1100 0 847 248 
Q 594 497 594 1153 
L 594 3053 
L 172 3053 
L 172 3500 
L 594 3500 
L 594 4494 
L 1172 4494 
z
" id="DejaVuSans-74" transform="scale(0.015625)"/>
      </defs>
      <use xlink:href="#DejaVuSans-49"/>
      <use x="29.492188" xlink:href="#DejaVuSans-6e"/>
      <use x="92.871094" xlink:href="#DejaVuSans-70"/>
      <use x="156.347656" xlink:href="#DejaVuSans-75"/>
      <use x="219.726562" xlink:href="#DejaVuSans-74"/>
     </g>
    </g>
   </g>
   <g id="matplotlib.axis_2">
    <g id="ytick_1">
     <g id="line2d_19">
      <path clip-path="url(#p48c50e1517)" d="M 57.6 251.698494 
L 414.72 251.698494 
" style="fill:none;stroke:#b0b0b0;stroke-dasharray:2.96,1.28;stroke-dashoffset:0;stroke-width:0.8;"/>
     </g>
     <g id="line2d_20">
      <defs>
       <path d="M 0 0 
L -3.5 0 
" id="m55cc9f3902" style="stroke:#000000;stroke-width:0.8;"/>
      </defs>
      <g>
       <use style="stroke:#000000;stroke-width:0.8;" x="57.6" xlink:href="#m55cc9f3902" y="251.698494"/>
      </g>
     </g>
     <g id="text_11">
      <!-- 0 -->
      <g transform="translate(44.2375 255.497713)scale(0.1 -0.1)">
       <use xlink:href="#DejaVuSans-30"/>
      </g>
     </g>
    </g>
    <g id="ytick_2">
     <g id="line2d_21">
      <path clip-path="url(#p48c50e1517)" d="M 57.6 195.089781 
L 414.72 195.089781 
" style="fill:none;stroke:#b0b0b0;stroke-dasharray:2.96,1.28;stroke-dashoffset:0;stroke-width:0.8;"/>
     </g>
     <g id="line2d_22">
      <g>
       <use style="stroke:#000000;stroke-width:0.8;" x="57.6" xlink:href="#m55cc9f3902" y="195.089781"/>
      </g>
     </g>
     <g id="text_12">
      <!-- 1 -->
      <g transform="translate(44.2375 198.889)scale(0.1 -0.1)">
       <use xlink:href="#DejaVuSans-31"/>
      </g>
     </g>
    </g>
    <g id="ytick_3">
     <g id="line2d_23">
      <path clip-path="url(#p48c50e1517)" d="M 57.6 138.481069 
L 414.72 138.481069 
" style="fill:none;stroke:#b0b0b0;stroke-dasharray:2.96,1.28;stroke-dashoffset:0;stroke-width:0.8;"/>
     </g>
     <g id="line2d_24">
      <g>
       <use style="stroke:#000000;stroke-width:0.8;" x="57.6" xlink:href="#m55cc9f3902" y="138.481069"/>
      </g>
     </g>
     <g id="text_13">
      <!-- 2 -->
      <g transform="translate(44.2375 142.280288)scale(0.1 -0.1)">
       <use xlink:href="#DejaVuSans-32"/>
      </g>
     </g>
    </g>
    <g id="ytick_4">
     <g id="line2d_25">
      <path clip-path="url(#p48c50e1517)" d="M 57.6 81.872356 
L 414.72 81.872356 
" style="fill:none;stroke:#b0b0b0;stroke-dasharray:2.96,1.28;stroke-dashoffset:0;stroke-width:0.8;"/>
     </g>
     <g id="line2d_26">
      <g>
       <use style="stroke:#000000;stroke-width:0.8;" x="57.6" xlink:href="#m55cc9f3902" y="81.872356"/>
      </g>
     </g>
     <g id="text_14">
      <!-- 3 -->
      <g transform="translate(44.2375 85.671575)scale(0.1 -0.1)">
       <defs>
        <path d="M 2597 2516 
Q 3050 2419 3304 2112 
Q 3559 1806 3559 1356 
Q 3559 666 3084 287 
Q 2609 -91 1734 -91 
Q 1441 -91 1130 -33 
Q 819 25 488 141 
L 488 750 
Q 750 597 1062 519 
Q 1375 441 1716 441 
Q 2309 441 2620 675 
Q 2931 909 2931 1356 
Q 2931 1769 2642 2001 
Q 2353 2234 1838 2234 
L 1294 2234 
L 1294 2753 
L 1863 2753 
Q 2328 2753 2575 2939 
Q 2822 3125 2822 3475 
Q 2822 3834 2567 4026 
Q 2313 4219 1838 4219 
Q 1578 4219 1281 4162 
Q 984 4106 628 3988 
L 628 4550 
Q 988 4650 1302 4700 
Q 1616 4750 1894 4750 
Q 2613 4750 3031 4423 
Q 3450 4097 3450 3541 
Q 3450 3153 3228 2886 
Q 3006 2619 2597 2516 
z
" id="DejaVuSans-33" transform="scale(0.015625)"/>
       </defs>
       <use xlink:href="#DejaVuSans-33"/>
      </g>
     </g>
    </g>
    <g id="text_15">
     <!-- Output -->
     <g transform="translate(38.157812 191.895969)rotate(-90)scale(0.1 -0.1)">
      <defs>
       <path d="M 2522 4238 
Q 1834 4238 1429 3725 
Q 1025 3213 1025 2328 
Q 1025 1447 1429 934 
Q 1834 422 2522 422 
Q 3209 422 3611 934 
Q 4013 1447 4013 2328 
Q 4013 3213 3611 3725 
Q 3209 4238 2522 4238 
z
M 2522 4750 
Q 3503 4750 4090 4092 
Q 4678 3434 4678 2328 
Q 4678 1225 4090 567 
Q 3503 -91 2522 -91 
Q 1538 -91 948 565 
Q 359 1222 359 2328 
Q 359 3434 948 4092 
Q 1538 4750 2522 4750 
z
" id="DejaVuSans-4f" transform="scale(0.015625)"/>
      </defs>
      <use xlink:href="#DejaVuSans-4f"/>
      <use x="78.710938" xlink:href="#DejaVuSans-75"/>
      <use x="142.089844" xlink:href="#DejaVuSans-74"/>
      <use x="181.298828" xlink:href="#DejaVuSans-70"/>
      <use x="244.775391" xlink:href="#DejaVuSans-75"/>
      <use x="308.154297" xlink:href="#DejaVuSans-74"/>
     </g>
    </g>
   </g>
   <g id="line2d_27">
    <path clip-path="url(#p48c50e1517)" d="M 57.510726 251.720724 
L 90.544316 243.609905 
L 108.132479 239.526533 
L 123.042244 236.289051 
L 136.434241 233.605282 
L 148.844156 231.341477 
L 160.629119 229.415664 
L 171.878403 227.800335 
L 182.770561 226.458974 
L 193.39488 225.373593 
L 203.840641 224.530437 
L 214.107839 223.925064 
L 224.28576 223.548419 
L 234.3744 223.39763 
L 244.46304 223.469609 
L 254.55168 223.763787 
L 264.729602 224.283371 
L 274.9968 225.030025 
L 285.442559 226.012732 
L 296.156159 227.245697 
L 307.137601 228.734634 
L 318.476159 230.496511 
L 330.350406 232.567246 
L 342.938878 234.989755 
L 356.598729 237.848996 
L 371.776325 241.258301 
L 389.90016 245.56749 
L 414.809295 251.720727 
L 414.809295 251.720727 
" style="fill:none;stroke:#ff7f0e;stroke-linecap:square;stroke-width:1.5;"/>
   </g>
   <g id="line2d_28">
    <path clip-path="url(#p48c50e1517)" d="M 57.510726 251.765177 
L 65.188803 246.167843 
L 69.2064 243.518311 
L 72.599038 241.540418 
L 75.634562 240.024644 
L 78.402244 238.884968 
L 80.991357 238.05046 
L 83.491207 237.472958 
L 85.901763 237.139301 
L 88.312318 237.032147 
L 90.6336 237.146949 
L 93.044167 237.493561 
L 95.454712 238.069794 
L 97.954562 238.904241 
L 100.543675 240.01268 
L 103.222083 241.405442 
L 106.079038 243.143819 
L 109.203846 245.308658 
L 112.775043 248.061152 
L 117.239038 251.801241 
L 131.077447 263.609465 
L 134.470085 266.088296 
L 137.416314 267.970514 
L 140.094722 269.417339 
L 142.505278 270.473053 
L 144.82656 271.245367 
L 146.969284 271.728215 
L 149.022719 271.970533 
L 151.076165 271.986359 
L 153.040321 271.781265 
L 155.004482 271.354303 
L 156.968638 270.700549 
L 158.932804 269.816622 
L 160.986239 268.64449 
L 163.039679 267.218664 
L 165.182399 265.46233 
L 167.414396 263.345827 
L 169.735678 260.842048 
L 172.235518 257.813809 
L 174.913921 254.207923 
L 177.770876 249.980317 
L 180.895678 244.951895 
L 184.46688 238.763124 
L 188.66304 231.02172 
L 194.555521 219.633386 
L 203.75136 201.871085 
L 207.947519 194.278442 
L 211.429439 188.428314 
L 214.46496 183.751732 
L 217.23264 179.890384 
L 219.73248 176.772009 
L 222.053759 174.217594 
L 224.28576 172.091716 
L 226.3392 170.436301 
L 228.30336 169.132586 
L 230.17824 168.150623 
L 231.96384 167.458823 
L 233.74944 167.007997 
L 235.44576 166.804982 
L 237.14208 166.822392 
L 238.8384 167.060154 
L 240.53472 167.517209 
L 242.320321 168.232932 
L 244.10592 169.185797 
L 245.9808 170.436301 
L 247.94496 172.013665 
L 249.9984 173.945031 
L 252.230401 176.35703 
L 254.64096 179.306826 
L 257.23008 182.844419 
L 259.997759 187.008481 
L 263.122561 192.124767 
L 266.693761 198.416561 
L 271.06848 206.59946 
L 278.389439 220.856067 
L 285.085438 233.704003 
L 289.281603 241.289447 
L 292.852804 247.299586 
L 295.977596 252.14107 
L 298.834557 256.176075 
L 301.512959 259.585438 
L 304.012799 262.4188 
L 306.42336 264.816609 
L 308.655358 266.734583 
L 310.798082 268.296955 
L 312.940801 269.583416 
L 314.994241 270.557027 
L 316.958397 271.252424 
L 318.922564 271.720303 
L 320.88672 271.965306 
L 322.850881 271.993576 
L 324.904316 271.799647 
L 327.047041 271.364692 
L 329.279038 270.673328 
L 331.600321 269.714568 
L 334.10016 268.432834 
L 336.778558 266.80495 
L 339.814081 264.688948 
L 343.295994 261.980662 
L 347.849274 258.134478 
L 360.259199 247.490336 
L 363.919679 244.728047 
L 367.133761 242.574218 
L 370.08 240.866885 
L 372.758408 239.56381 
L 375.347521 238.548176 
L 377.847361 237.807579 
L 380.257917 237.324439 
L 382.668483 237.072154 
L 384.989754 237.048124 
L 387.400321 237.248234 
L 389.810876 237.672266 
L 392.310726 238.339467 
L 394.89984 239.261191 
L 397.667521 240.486207 
L 400.613761 242.034006 
L 403.917126 244.024524 
L 407.845438 246.666066 
L 413.202244 250.56587 
L 414.809295 251.765194 
L 414.809295 251.765194 
" style="fill:none;stroke:#2ca02c;stroke-linecap:square;stroke-width:1.5;"/>
   </g>
   <g id="line2d_29">
    <path clip-path="url(#p48c50e1517)" d="M 57.510726 251.854162 
L 61.260481 245.529178 
L 63.224637 242.649438 
L 64.831677 240.673235 
L 66.170876 239.348421 
L 67.420801 238.410396 
L 68.581442 237.817593 
L 69.652799 237.519476 
L 70.634882 237.461279 
L 71.616966 237.610129 
L 72.688323 238.006574 
L 73.759679 238.641129 
L 74.920321 239.585301 
L 76.259519 240.982944 
L 77.777286 242.921802 
L 79.562874 245.599543 
L 81.884156 249.523007 
L 87.776645 259.673224 
L 89.562233 262.212292 
L 91.08 263.995046 
L 92.419199 265.226459 
L 93.57984 266.005575 
L 94.651197 266.471156 
L 95.63328 266.675474 
L 96.615363 266.662685 
L 97.597436 266.431608 
L 98.668803 265.932903 
L 99.74016 265.18357 
L 100.900801 264.101841 
L 102.24 262.530103 
L 103.757767 260.377246 
L 105.543355 257.431285 
L 107.953921 252.976546 
L 113.310716 242.934197 
L 115.096325 240.116202 
L 116.614081 238.117329 
L 117.95328 236.719936 
L 119.113921 235.821306 
L 120.185288 235.269328 
L 121.16735 235.008566 
L 122.149434 234.988895 
L 123.131517 235.213253 
L 124.1136 235.681179 
L 125.184968 236.464677 
L 126.345609 237.623585 
L 127.595513 239.211106 
L 129.023996 241.416335 
L 130.631047 244.32335 
L 132.684477 248.534077 
L 136.702073 257.451581 
L 139.201923 262.694538 
L 140.987521 265.95043 
L 142.415994 268.130927 
L 143.665919 269.664337 
L 144.82656 270.735315 
L 145.808643 271.354347 
L 146.701442 271.67649 
L 147.594241 271.761751 
L 148.487041 271.605378 
L 149.37984 271.205269 
L 150.272639 270.562176 
L 151.254722 269.578532 
L 152.326079 268.185467 
L 153.576004 266.160617 
L 154.915198 263.553645 
L 156.522238 259.908026 
L 158.4864 254.856885 
L 161.700475 245.850375 
L 164.825278 237.317453 
L 166.70016 232.84096 
L 168.128638 229.957067 
L 169.378558 227.899652 
L 170.44992 226.532232 
L 171.432003 225.630819 
L 172.324797 225.1228 
L 173.128317 224.930794 
L 173.842559 224.977499 
L 174.5568 225.232887 
L 175.360321 225.772655 
L 176.163841 226.580898 
L 177.05664 227.79241 
L 178.038718 229.500122 
L 179.199359 232.008447 
L 180.449279 235.270607 
L 181.877762 239.646643 
L 183.574081 245.609596 
L 185.7168 254.026603 
L 192.59136 281.746398 
L 194.109119 286.65923 
L 195.359038 290.034759 
L 196.430401 292.35467 
L 197.3232 293.833216 
L 198.12672 294.779255 
L 198.840962 295.294425 
L 199.465919 295.481269 
L 200.090879 295.412102 
L 200.715839 295.078669 
L 201.340801 294.473675 
L 202.05504 293.441694 
L 202.85856 291.837424 
L 203.75136 289.495048 
L 204.73344 286.230275 
L 205.8048 281.844437 
L 206.965441 276.130978 
L 208.304639 268.325275 
L 209.73312 258.630949 
L 211.34016 246.163236 
L 213.21504 229.779029 
L 215.447039 208.206489 
L 218.66112 174.71443 
L 223.57152 123.66849 
L 225.80352 102.879739 
L 227.58912 88.210925 
L 229.10688 77.449558 
L 230.44608 69.444014 
L 231.60672 63.739959 
L 232.67808 59.554835 
L 233.57088 56.891746 
L 234.3744 55.153037 
L 235.08864 54.139485 
L 235.62432 53.710969 
L 236.16 53.568 
L 236.6064 53.667281 
L 237.14208 54.048275 
L 237.67776 54.713953 
L 238.30272 55.848029 
L 239.01696 57.610573 
L 239.82048 60.178282 
L 240.80256 64.136259 
L 241.87392 69.444014 
L 243.123839 76.870663 
L 244.55232 86.858191 
L 246.15936 99.789699 
L 248.03424 116.766196 
L 250.4448 140.782153 
L 259.55136 233.841973 
L 261.515521 250.492633 
L 263.21184 263.040368 
L 264.729602 272.647342 
L 266.068798 279.764477 
L 267.318718 285.214341 
L 268.39008 288.955219 
L 269.372161 291.629837 
L 270.26496 293.441694 
L 271.06848 294.576985 
L 271.782719 295.20134 
L 272.407682 295.45848 
L 273.032639 295.453617 
L 273.657599 295.19529 
L 274.282559 294.692934 
L 274.9968 293.833216 
L 275.800321 292.521839 
L 276.782399 290.460268 
L 277.94304 287.43814 
L 279.282241 283.272974 
L 280.889279 277.510268 
L 283.121277 268.583695 
L 288.924482 244.947956 
L 290.71008 238.777415 
L 292.227842 234.281806 
L 293.567041 230.982393 
L 294.727682 228.675784 
L 295.799038 227.02611 
L 296.781122 225.929075 
L 297.584642 225.329667 
L 298.388157 224.997945 
L 299.102399 224.925344 
L 299.81664 225.058101 
L 300.62016 225.446551 
L 301.423681 226.07925 
L 302.31648 227.055008 
L 303.387842 228.580054 
L 304.548478 230.628305 
L 305.976955 233.639275 
L 307.67328 237.776403 
L 309.994562 244.084234 
L 315.262078 258.586466 
L 317.13696 262.982649 
L 318.654722 266.000376 
L 319.993921 268.185467 
L 321.154562 269.679719 
L 322.225919 270.710101 
L 323.208002 271.350888 
L 324.100801 271.677829 
L 324.9936 271.7614 
L 325.8864 271.604421 
L 326.779199 271.212555 
L 327.761282 270.519965 
L 328.832639 269.468552 
L 329.99328 268.007393 
L 331.332479 265.95043 
L 332.939519 263.04247 
L 334.992959 258.814426 
L 342.581752 242.657944 
L 344.188803 239.991889 
L 345.617286 238.042416 
L 346.86719 236.704024 
L 348.027842 235.79218 
L 349.099199 235.245788 
L 350.081282 234.999193 
L 351.063365 234.996736 
L 352.045449 235.235798 
L 353.027521 235.710393 
L 354.098878 236.485813 
L 355.259519 237.610881 
L 356.598729 239.243919 
L 358.116474 241.469778 
L 359.991357 244.651382 
L 362.669754 249.696471 
L 366.865919 257.587369 
L 368.830075 260.783107 
L 370.437115 262.981232 
L 371.776325 264.463566 
L 373.026239 265.525627 
L 374.18688 266.214101 
L 375.258237 266.584651 
L 376.240321 266.696725 
L 377.222404 266.590723 
L 378.204487 266.269541 
L 379.275833 265.680624 
L 380.436474 264.775014 
L 381.6864 263.510998 
L 383.114882 261.739442 
L 384.811197 259.258136 
L 386.953921 255.701546 
L 393.828483 243.947332 
L 395.524797 241.627037 
L 396.95328 240.015975 
L 398.292479 238.835888 
L 399.45312 238.096028 
L 400.524477 237.659365 
L 401.595844 237.466257 
L 402.577917 237.505639 
L 403.649284 237.78354 
L 404.72063 238.301348 
L 405.881282 239.122254 
L 407.131197 240.289458 
L 408.559679 241.947903 
L 410.16672 244.165772 
L 412.22016 247.408925 
L 414.809295 251.854179 
L 414.809295 251.854179 
" style="fill:none;stroke:#d62728;stroke-linecap:square;stroke-width:1.5;"/>
   </g>
   <g id="patch_3">
    <path d="M 57.6 307.584 
L 57.6 41.472 
" style="fill:none;stroke:#000000;stroke-linecap:square;stroke-linejoin:miter;stroke-width:0.8;"/>
   </g>
   <g id="patch_4">
    <path d="M 414.72 307.584 
L 414.72 41.472 
" style="fill:none;stroke:#000000;stroke-linecap:square;stroke-linejoin:miter;stroke-width:0.8;"/>
   </g>
   <g id="patch_5">
    <path d="M 57.6 307.584 
L 414.72 307.584 
" style="fill:none;stroke:#000000;stroke-linecap:square;stroke-linejoin:miter;stroke-width:0.8;"/>
   </g>
   <g id="patch_6">
    <path d="M 57.6 41.472 
L 414.72 41.472 
" style="fill:none;stroke:#000000;stroke-linecap:square;stroke-linejoin:miter;stroke-width:0.8;"/>
   </g>
   <g id="text_16">
    <!-- SquarewaveFourierSeries surrogate function -->
    <g transform="translate(102.615938 35.472)scale(0.12 -0.12)">
     <defs>
      <path d="M 3425 4513 
L 3425 3897 
Q 3066 4069 2747 4153 
Q 2428 4238 2131 4238 
Q 1616 4238 1336 4038 
Q 1056 3838 1056 3469 
Q 1056 3159 1242 3001 
Q 1428 2844 1947 2747 
L 2328 2669 
Q 3034 2534 3370 2195 
Q 3706 1856 3706 1288 
Q 3706 609 3251 259 
Q 2797 -91 1919 -91 
Q 1588 -91 1214 -16 
Q 841 59 441 206 
L 441 856 
Q 825 641 1194 531 
Q 1563 422 1919 422 
Q 2459 422 2753 634 
Q 3047 847 3047 1241 
Q 3047 1584 2836 1778 
Q 2625 1972 2144 2069 
L 1759 2144 
Q 1053 2284 737 2584 
Q 422 2884 422 3419 
Q 422 4038 858 4394 
Q 1294 4750 2059 4750 
Q 2388 4750 2728 4690 
Q 3069 4631 3425 4513 
z
" id="DejaVuSans-53" transform="scale(0.015625)"/>
      <path d="M 947 1747 
Q 947 1113 1208 752 
Q 1469 391 1925 391 
Q 2381 391 2643 752 
Q 2906 1113 2906 1747 
Q 2906 2381 2643 2742 
Q 2381 3103 1925 3103 
Q 1469 3103 1208 2742 
Q 947 2381 947 1747 
z
M 2906 525 
Q 2725 213 2448 61 
Q 2172 -91 1784 -91 
Q 1150 -91 751 415 
Q 353 922 353 1747 
Q 353 2572 751 3078 
Q 1150 3584 1784 3584 
Q 2172 3584 2448 3432 
Q 2725 3281 2906 2969 
L 2906 3500 
L 3481 3500 
L 3481 -1331 
L 2906 -1331 
L 2906 525 
z
" id="DejaVuSans-71" transform="scale(0.015625)"/>
      <path d="M 2194 1759 
Q 1497 1759 1228 1600 
Q 959 1441 959 1056 
Q 959 750 1161 570 
Q 1363 391 1709 391 
Q 2188 391 2477 730 
Q 2766 1069 2766 1631 
L 2766 1759 
L 2194 1759 
z
M 3341 1997 
L 3341 0 
L 2766 0 
L 2766 531 
Q 2569 213 2275 61 
Q 1981 -91 1556 -91 
Q 1019 -91 701 211 
Q 384 513 384 1019 
Q 384 1609 779 1909 
Q 1175 2209 1959 2209 
L 2766 2209 
L 2766 2266 
Q 2766 2663 2505 2880 
Q 2244 3097 1772 3097 
Q 1472 3097 1187 3025 
Q 903 2953 641 2809 
L 641 3341 
Q 956 3463 1253 3523 
Q 1550 3584 1831 3584 
Q 2591 3584 2966 3190 
Q 3341 2797 3341 1997 
z
" id="DejaVuSans-61" transform="scale(0.015625)"/>
      <path d="M 2631 2963 
Q 2534 3019 2420 3045 
Q 2306 3072 2169 3072 
Q 1681 3072 1420 2755 
Q 1159 2438 1159 1844 
L 1159 0 
L 581 0 
L 581 3500 
L 1159 3500 
L 1159 2956 
Q 1341 3275 1631 3429 
Q 1922 3584 2338 3584 
Q 2397 3584 2469 3576 
Q 2541 3569 2628 3553 
L 2631 2963 
z
" id="DejaVuSans-72" transform="scale(0.015625)"/>
      <path d="M 3597 1894 
L 3597 1613 
L 953 1613 
Q 991 1019 1311 708 
Q 1631 397 2203 397 
Q 2534 397 2845 478 
Q 3156 559 3463 722 
L 3463 178 
Q 3153 47 2828 -22 
Q 2503 -91 2169 -91 
Q 1331 -91 842 396 
Q 353 884 353 1716 
Q 353 2575 817 3079 
Q 1281 3584 2069 3584 
Q 2775 3584 3186 3129 
Q 3597 2675 3597 1894 
z
M 3022 2063 
Q 3016 2534 2758 2815 
Q 2500 3097 2075 3097 
Q 1594 3097 1305 2825 
Q 1016 2553 972 2059 
L 3022 2063 
z
" id="DejaVuSans-65" transform="scale(0.015625)"/>
      <path d="M 269 3500 
L 844 3500 
L 1563 769 
L 2278 3500 
L 2956 3500 
L 3675 769 
L 4391 3500 
L 4966 3500 
L 4050 0 
L 3372 0 
L 2619 2869 
L 1863 0 
L 1184 0 
L 269 3500 
z
" id="DejaVuSans-77" transform="scale(0.015625)"/>
      <path d="M 191 3500 
L 800 3500 
L 1894 563 
L 2988 3500 
L 3597 3500 
L 2284 0 
L 1503 0 
L 191 3500 
z
" id="DejaVuSans-76" transform="scale(0.015625)"/>
      <path d="M 628 4666 
L 3309 4666 
L 3309 4134 
L 1259 4134 
L 1259 2759 
L 3109 2759 
L 3109 2228 
L 1259 2228 
L 1259 0 
L 628 0 
L 628 4666 
z
" id="DejaVuSans-46" transform="scale(0.015625)"/>
      <path d="M 1959 3097 
Q 1497 3097 1228 2736 
Q 959 2375 959 1747 
Q 959 1119 1226 758 
Q 1494 397 1959 397 
Q 2419 397 2687 759 
Q 2956 1122 2956 1747 
Q 2956 2369 2687 2733 
Q 2419 3097 1959 3097 
z
M 1959 3584 
Q 2709 3584 3137 3096 
Q 3566 2609 3566 1747 
Q 3566 888 3137 398 
Q 2709 -91 1959 -91 
Q 1206 -91 779 398 
Q 353 888 353 1747 
Q 353 2609 779 3096 
Q 1206 3584 1959 3584 
z
" id="DejaVuSans-6f" transform="scale(0.015625)"/>
      <path d="M 603 3500 
L 1178 3500 
L 1178 0 
L 603 0 
L 603 3500 
z
M 603 4863 
L 1178 4863 
L 1178 4134 
L 603 4134 
L 603 4863 
z
" id="DejaVuSans-69" transform="scale(0.015625)"/>
      <path d="M 2834 3397 
L 2834 2853 
Q 2591 2978 2328 3040 
Q 2066 3103 1784 3103 
Q 1356 3103 1142 2972 
Q 928 2841 928 2578 
Q 928 2378 1081 2264 
Q 1234 2150 1697 2047 
L 1894 2003 
Q 2506 1872 2764 1633 
Q 3022 1394 3022 966 
Q 3022 478 2636 193 
Q 2250 -91 1575 -91 
Q 1294 -91 989 -36 
Q 684 19 347 128 
L 347 722 
Q 666 556 975 473 
Q 1284 391 1588 391 
Q 1994 391 2212 530 
Q 2431 669 2431 922 
Q 2431 1156 2273 1281 
Q 2116 1406 1581 1522 
L 1381 1569 
Q 847 1681 609 1914 
Q 372 2147 372 2553 
Q 372 3047 722 3315 
Q 1072 3584 1716 3584 
Q 2034 3584 2315 3537 
Q 2597 3491 2834 3397 
z
" id="DejaVuSans-73" transform="scale(0.015625)"/>
      <path id="DejaVuSans-20" transform="scale(0.015625)"/>
      <path d="M 2906 1791 
Q 2906 2416 2648 2759 
Q 2391 3103 1925 3103 
Q 1463 3103 1205 2759 
Q 947 2416 947 1791 
Q 947 1169 1205 825 
Q 1463 481 1925 481 
Q 2391 481 2648 825 
Q 2906 1169 2906 1791 
z
M 3481 434 
Q 3481 -459 3084 -895 
Q 2688 -1331 1869 -1331 
Q 1566 -1331 1297 -1286 
Q 1028 -1241 775 -1147 
L 775 -588 
Q 1028 -725 1275 -790 
Q 1522 -856 1778 -856 
Q 2344 -856 2625 -561 
Q 2906 -266 2906 331 
L 2906 616 
Q 2728 306 2450 153 
Q 2172 0 1784 0 
Q 1141 0 747 490 
Q 353 981 353 1791 
Q 353 2603 747 3093 
Q 1141 3584 1784 3584 
Q 2172 3584 2450 3431 
Q 2728 3278 2906 2969 
L 2906 3500 
L 3481 3500 
L 3481 434 
z
" id="DejaVuSans-67" transform="scale(0.015625)"/>
      <path d="M 2375 4863 
L 2375 4384 
L 1825 4384 
Q 1516 4384 1395 4259 
Q 1275 4134 1275 3809 
L 1275 3500 
L 2222 3500 
L 2222 3053 
L 1275 3053 
L 1275 0 
L 697 0 
L 697 3053 
L 147 3053 
L 147 3500 
L 697 3500 
L 697 3744 
Q 697 4328 969 4595 
Q 1241 4863 1831 4863 
L 2375 4863 
z
" id="DejaVuSans-66" transform="scale(0.015625)"/>
      <path d="M 3122 3366 
L 3122 2828 
Q 2878 2963 2633 3030 
Q 2388 3097 2138 3097 
Q 1578 3097 1268 2742 
Q 959 2388 959 1747 
Q 959 1106 1268 751 
Q 1578 397 2138 397 
Q 2388 397 2633 464 
Q 2878 531 3122 666 
L 3122 134 
Q 2881 22 2623 -34 
Q 2366 -91 2075 -91 
Q 1284 -91 818 406 
Q 353 903 353 1747 
Q 353 2603 823 3093 
Q 1294 3584 2113 3584 
Q 2378 3584 2631 3529 
Q 2884 3475 3122 3366 
z
" id="DejaVuSans-63" transform="scale(0.015625)"/>
     </defs>
     <use xlink:href="#DejaVuSans-53"/>
     <use x="63.476562" xlink:href="#DejaVuSans-71"/>
     <use x="126.953125" xlink:href="#DejaVuSans-75"/>
     <use x="190.332031" xlink:href="#DejaVuSans-61"/>
     <use x="251.611328" xlink:href="#DejaVuSans-72"/>
     <use x="290.474609" xlink:href="#DejaVuSans-65"/>
     <use x="351.998047" xlink:href="#DejaVuSans-77"/>
     <use x="433.785156" xlink:href="#DejaVuSans-61"/>
     <use x="495.064453" xlink:href="#DejaVuSans-76"/>
     <use x="554.244141" xlink:href="#DejaVuSans-65"/>
     <use x="615.767578" xlink:href="#DejaVuSans-46"/>
     <use x="669.662109" xlink:href="#DejaVuSans-6f"/>
     <use x="730.84375" xlink:href="#DejaVuSans-75"/>
     <use x="794.222656" xlink:href="#DejaVuSans-72"/>
     <use x="835.335938" xlink:href="#DejaVuSans-69"/>
     <use x="863.119141" xlink:href="#DejaVuSans-65"/>
     <use x="924.642578" xlink:href="#DejaVuSans-72"/>
     <use x="965.755859" xlink:href="#DejaVuSans-53"/>
     <use x="1029.232422" xlink:href="#DejaVuSans-65"/>
     <use x="1090.755859" xlink:href="#DejaVuSans-72"/>
     <use x="1131.869141" xlink:href="#DejaVuSans-69"/>
     <use x="1159.652344" xlink:href="#DejaVuSans-65"/>
     <use x="1221.175781" xlink:href="#DejaVuSans-73"/>
     <use x="1273.275391" xlink:href="#DejaVuSans-20"/>
     <use x="1305.0625" xlink:href="#DejaVuSans-73"/>
     <use x="1357.162109" xlink:href="#DejaVuSans-75"/>
     <use x="1420.541016" xlink:href="#DejaVuSans-72"/>
     <use x="1459.904297" xlink:href="#DejaVuSans-72"/>
     <use x="1498.767578" xlink:href="#DejaVuSans-6f"/>
     <use x="1559.949219" xlink:href="#DejaVuSans-67"/>
     <use x="1623.425781" xlink:href="#DejaVuSans-61"/>
     <use x="1684.705078" xlink:href="#DejaVuSans-74"/>
     <use x="1723.914062" xlink:href="#DejaVuSans-65"/>
     <use x="1785.4375" xlink:href="#DejaVuSans-20"/>
     <use x="1817.224609" xlink:href="#DejaVuSans-66"/>
     <use x="1852.429688" xlink:href="#DejaVuSans-75"/>
     <use x="1915.808594" xlink:href="#DejaVuSans-6e"/>
     <use x="1979.1875" xlink:href="#DejaVuSans-63"/>
     <use x="2034.167969" xlink:href="#DejaVuSans-74"/>
     <use x="2073.376953" xlink:href="#DejaVuSans-69"/>
     <use x="2101.160156" xlink:href="#DejaVuSans-6f"/>
     <use x="2162.341797" xlink:href="#DejaVuSans-6e"/>
    </g>
   </g>
   <g id="legend_1">
    <g id="patch_7">
     <path d="M 300.82 93.506375 
L 407.72 93.506375 
Q 409.72 93.506375 409.72 91.506375 
L 409.72 48.472 
Q 409.72 46.472 407.72 46.472 
L 300.82 46.472 
Q 298.82 46.472 298.82 48.472 
L 298.82 91.506375 
Q 298.82 93.506375 300.82 93.506375 
z
" style="fill:#ffffff;opacity:0.8;stroke:#cccccc;stroke-linejoin:miter;"/>
    </g>
    <g id="line2d_30">
     <path d="M 302.82 54.570438 
L 322.82 54.570438 
" style="fill:none;stroke:#ff7f0e;stroke-linecap:square;stroke-width:1.5;"/>
    </g>
    <g id="line2d_31"/>
    <g id="text_17">
     <!-- Gradient, $n=2$ -->
     <g transform="translate(330.82 58.070438)scale(0.1 -0.1)">
      <defs>
       <path d="M 3809 666 
L 3809 1919 
L 2778 1919 
L 2778 2438 
L 4434 2438 
L 4434 434 
Q 4069 175 3628 42 
Q 3188 -91 2688 -91 
Q 1594 -91 976 548 
Q 359 1188 359 2328 
Q 359 3472 976 4111 
Q 1594 4750 2688 4750 
Q 3144 4750 3555 4637 
Q 3966 4525 4313 4306 
L 4313 3634 
Q 3963 3931 3569 4081 
Q 3175 4231 2741 4231 
Q 1884 4231 1454 3753 
Q 1025 3275 1025 2328 
Q 1025 1384 1454 906 
Q 1884 428 2741 428 
Q 3075 428 3337 486 
Q 3600 544 3809 666 
z
" id="DejaVuSans-47" transform="scale(0.015625)"/>
       <path d="M 2906 2969 
L 2906 4863 
L 3481 4863 
L 3481 0 
L 2906 0 
L 2906 525 
Q 2725 213 2448 61 
Q 2172 -91 1784 -91 
Q 1150 -91 751 415 
Q 353 922 353 1747 
Q 353 2572 751 3078 
Q 1150 3584 1784 3584 
Q 2172 3584 2448 3432 
Q 2725 3281 2906 2969 
z
M 947 1747 
Q 947 1113 1208 752 
Q 1469 391 1925 391 
Q 2381 391 2643 752 
Q 2906 1113 2906 1747 
Q 2906 2381 2643 2742 
Q 2381 3103 1925 3103 
Q 1469 3103 1208 2742 
Q 947 2381 947 1747 
z
" id="DejaVuSans-64" transform="scale(0.015625)"/>
       <path d="M 750 794 
L 1409 794 
L 1409 256 
L 897 -744 
L 494 -744 
L 750 256 
L 750 794 
z
" id="DejaVuSans-2c" transform="scale(0.015625)"/>
       <path d="M 3566 2113 
L 3156 0 
L 2578 0 
L 2988 2091 
Q 3016 2238 3031 2350 
Q 3047 2463 3047 2528 
Q 3047 2791 2881 2937 
Q 2716 3084 2419 3084 
Q 1956 3084 1622 2776 
Q 1288 2469 1184 1941 
L 800 0 
L 225 0 
L 903 3500 
L 1478 3500 
L 1363 2950 
Q 1603 3253 1940 3418 
Q 2278 3584 2650 3584 
Q 3113 3584 3367 3334 
Q 3622 3084 3622 2631 
Q 3622 2519 3608 2391 
Q 3594 2263 3566 2113 
z
" id="DejaVuSans-Oblique-6e" transform="scale(0.015625)"/>
       <path d="M 678 2906 
L 4684 2906 
L 4684 2381 
L 678 2381 
L 678 2906 
z
M 678 1631 
L 4684 1631 
L 4684 1100 
L 678 1100 
L 678 1631 
z
" id="DejaVuSans-3d" transform="scale(0.015625)"/>
      </defs>
      <use transform="translate(0 0.015625)" xlink:href="#DejaVuSans-47"/>
      <use transform="translate(77.490234 0.015625)" xlink:href="#DejaVuSans-72"/>
      <use transform="translate(118.603516 0.015625)" xlink:href="#DejaVuSans-61"/>
      <use transform="translate(179.882812 0.015625)" xlink:href="#DejaVuSans-64"/>
      <use transform="translate(243.359375 0.015625)" xlink:href="#DejaVuSans-69"/>
      <use transform="translate(271.142578 0.015625)" xlink:href="#DejaVuSans-65"/>
      <use transform="translate(332.666016 0.015625)" xlink:href="#DejaVuSans-6e"/>
      <use transform="translate(396.044922 0.015625)" xlink:href="#DejaVuSans-74"/>
      <use transform="translate(435.253906 0.015625)" xlink:href="#DejaVuSans-2c"/>
      <use transform="translate(467.041016 0.015625)" xlink:href="#DejaVuSans-20"/>
      <use transform="translate(498.828125 0.015625)" xlink:href="#DejaVuSans-Oblique-6e"/>
      <use transform="translate(581.689453 0.015625)" xlink:href="#DejaVuSans-3d"/>
      <use transform="translate(684.960938 0.015625)" xlink:href="#DejaVuSans-32"/>
     </g>
    </g>
    <g id="line2d_32">
     <path d="M 302.82 69.248563 
L 322.82 69.248563 
" style="fill:none;stroke:#2ca02c;stroke-linecap:square;stroke-width:1.5;"/>
    </g>
    <g id="line2d_33"/>
    <g id="text_18">
     <!-- Gradient, $n=4$ -->
     <g transform="translate(330.82 72.748563)scale(0.1 -0.1)">
      <defs>
       <path d="M 2419 4116 
L 825 1625 
L 2419 1625 
L 2419 4116 
z
M 2253 4666 
L 3047 4666 
L 3047 1625 
L 3713 1625 
L 3713 1100 
L 3047 1100 
L 3047 0 
L 2419 0 
L 2419 1100 
L 313 1100 
L 313 1709 
L 2253 4666 
z
" id="DejaVuSans-34" transform="scale(0.015625)"/>
      </defs>
      <use transform="translate(0 0.015625)" xlink:href="#DejaVuSans-47"/>
      <use transform="translate(77.490234 0.015625)" xlink:href="#DejaVuSans-72"/>
      <use transform="translate(118.603516 0.015625)" xlink:href="#DejaVuSans-61"/>
      <use transform="translate(179.882812 0.015625)" xlink:href="#DejaVuSans-64"/>
      <use transform="translate(243.359375 0.015625)" xlink:href="#DejaVuSans-69"/>
      <use transform="translate(271.142578 0.015625)" xlink:href="#DejaVuSans-65"/>
      <use transform="translate(332.666016 0.015625)" xlink:href="#DejaVuSans-6e"/>
      <use transform="translate(396.044922 0.015625)" xlink:href="#DejaVuSans-74"/>
      <use transform="translate(435.253906 0.015625)" xlink:href="#DejaVuSans-2c"/>
      <use transform="translate(467.041016 0.015625)" xlink:href="#DejaVuSans-20"/>
      <use transform="translate(498.828125 0.015625)" xlink:href="#DejaVuSans-Oblique-6e"/>
      <use transform="translate(581.689453 0.015625)" xlink:href="#DejaVuSans-3d"/>
      <use transform="translate(684.960938 0.015625)" xlink:href="#DejaVuSans-34"/>
     </g>
    </g>
    <g id="line2d_34">
     <path d="M 302.82 83.926688 
L 322.82 83.926688 
" style="fill:none;stroke:#d62728;stroke-linecap:square;stroke-width:1.5;"/>
    </g>
    <g id="line2d_35"/>
    <g id="text_19">
     <!-- Gradient, $n=8$ -->
     <g transform="translate(330.82 87.426688)scale(0.1 -0.1)">
      <defs>
       <path d="M 2034 2216 
Q 1584 2216 1326 1975 
Q 1069 1734 1069 1313 
Q 1069 891 1326 650 
Q 1584 409 2034 409 
Q 2484 409 2743 651 
Q 3003 894 3003 1313 
Q 3003 1734 2745 1975 
Q 2488 2216 2034 2216 
z
M 1403 2484 
Q 997 2584 770 2862 
Q 544 3141 544 3541 
Q 544 4100 942 4425 
Q 1341 4750 2034 4750 
Q 2731 4750 3128 4425 
Q 3525 4100 3525 3541 
Q 3525 3141 3298 2862 
Q 3072 2584 2669 2484 
Q 3125 2378 3379 2068 
Q 3634 1759 3634 1313 
Q 3634 634 3220 271 
Q 2806 -91 2034 -91 
Q 1263 -91 848 271 
Q 434 634 434 1313 
Q 434 1759 690 2068 
Q 947 2378 1403 2484 
z
M 1172 3481 
Q 1172 3119 1398 2916 
Q 1625 2713 2034 2713 
Q 2441 2713 2670 2916 
Q 2900 3119 2900 3481 
Q 2900 3844 2670 4047 
Q 2441 4250 2034 4250 
Q 1625 4250 1398 4047 
Q 1172 3844 1172 3481 
z
" id="DejaVuSans-38" transform="scale(0.015625)"/>
      </defs>
      <use transform="translate(0 0.015625)" xlink:href="#DejaVuSans-47"/>
      <use transform="translate(77.490234 0.015625)" xlink:href="#DejaVuSans-72"/>
      <use transform="translate(118.603516 0.015625)" xlink:href="#DejaVuSans-61"/>
      <use transform="translate(179.882812 0.015625)" xlink:href="#DejaVuSans-64"/>
      <use transform="translate(243.359375 0.015625)" xlink:href="#DejaVuSans-69"/>
      <use transform="translate(271.142578 0.015625)" xlink:href="#DejaVuSans-65"/>
      <use transform="translate(332.666016 0.015625)" xlink:href="#DejaVuSans-6e"/>
      <use transform="translate(396.044922 0.015625)" xlink:href="#DejaVuSans-74"/>
      <use transform="translate(435.253906 0.015625)" xlink:href="#DejaVuSans-2c"/>
      <use transform="translate(467.041016 0.015625)" xlink:href="#DejaVuSans-20"/>
      <use transform="translate(498.828125 0.015625)" xlink:href="#DejaVuSans-Oblique-6e"/>
      <use transform="translate(581.689453 0.015625)" xlink:href="#DejaVuSans-3d"/>
      <use transform="translate(684.960938 0.015625)" xlink:href="#DejaVuSans-38"/>
     </g>
    </g>
   </g>
  </g>
 </g>
 <defs>
  <clipPath id="p48c50e1517">
   <rect height="266.112" width="357.12" x="57.6" y="41.472"/>
  </clipPath>
 </defs>
</svg>
