<?xml version="1.0" encoding="utf-8" standalone="no"?>
<!DOCTYPE svg PUBLIC "-//W3C//DTD SVG 1.1//EN"
  "http://www.w3.org/Graphics/SVG/1.1/DTD/svg11.dtd">
<!-- Created with matplotlib (https://matplotlib.org/) -->
<svg height="352.195677pt" version="1.1" viewBox="0 0 598.609075 352.195677" width="598.609075pt" xmlns="http://www.w3.org/2000/svg" xmlns:xlink="http://www.w3.org/1999/xlink">
 <metadata>
  <rdf:RDF xmlns:cc="http://creativecommons.org/ns#" xmlns:dc="http://purl.org/dc/elements/1.1/" xmlns:rdf="http://www.w3.org/1999/02/22-rdf-syntax-ns#">
   <cc:Work>
    <dc:type rdf:resource="http://purl.org/dc/dcmitype/StillImage"/>
    <dc:date>2020-12-22T11:32:58.214476</dc:date>
    <dc:format>image/svg+xml</dc:format>
    <dc:creator>
     <cc:Agent>
      <dc:title>Matplotlib v3.3.1, https://matplotlib.org/</dc:title>
     </cc:Agent>
    </dc:creator>
   </cc:Work>
  </rdf:RDF>
 </metadata>
 <defs>
  <style type="text/css">*{stroke-linecap:butt;stroke-linejoin:round;}</style>
 </defs>
 <g id="figure_1">
  <g id="patch_1">
   <path d="M 0 352.195677 
L 598.609075 352.195677 
L 598.609075 0 
L 0 0 
z
" style="fill:#ffffff;"/>
  </g>
  <g id="axes_1">
   <g id="patch_2">
    <path d="M 37.009075 60.951724 
L 595.009075 60.951724 
L 595.009075 3.6 
L 37.009075 3.6 
z
" style="fill:#ffffff;"/>
   </g>
   <g id="matplotlib.axis_1"/>
   <g id="matplotlib.axis_2">
    <g id="text_1">
     <!-- $S_{pre}$ -->
     <g transform="translate(18.054328 29.425467)scale(0.1 -0.1)">
      <defs>
       <path d="M 63.5 69.09375 
C 63.5 70 62.796875 70 62.59375 70 
C 62.203125 70 62.09375 69.890625 60.90625 68.390625 
C 60.296875 67.6875 56.203125 62.53125 56.09375 62.4375 
C 52.796875 68.890625 46.203125 70 42 70 
C 29.296875 70 17.796875 58.46875 17.796875 47.25 
C 17.796875 39.796875 22.296875 35.4375 27.203125 33.75 
C 28.296875 33.34375 34.203125 31.765625 37.203125 31.0625 
C 42.296875 29.671875 43.59375 29.28125 45.703125 27.09375 
C 46.09375 26.59375 48.09375 24.3125 48.09375 19.65625 
C 48.09375 10.421875 39.5 0.890625 29.5 0.890625 
C 21.296875 0.890625 12.203125 4.359375 12.203125 15.484375 
C 12.203125 17.375 12.59375 19.75 12.90625 20.75 
C 12.90625 21.046875 13 21.53125 13 21.734375 
C 13 22.140625 12.796875 22.625 12 22.625 
C 11.09375 22.625 11 22.4375 10.59375 20.75 
L 5.5 0.390625 
C 5.5 0.296875 5.09375 -1 5.09375 -1.109375 
C 5.09375 -2 5.90625 -2 6.09375 -2 
C 6.5 -2 6.59375 -1.90625 7.796875 -0.40625 
L 12.40625 5.5625 
C 14.796875 1.984375 20 -2 29.296875 -2 
C 42.203125 -2 54 10.421875 54 22.828125 
C 54 27 53 30.671875 49.203125 34.34375 
C 47.09375 36.421875 45.296875 36.921875 36.09375 39.3125 
C 29.40625 41.09375 28.5 41.390625 26.703125 42.984375 
C 25 44.671875 23.703125 47.046875 23.703125 50.421875 
C 23.703125 58.765625 32.203125 67.296875 41.703125 67.296875 
C 51.5 67.296875 56.09375 61.34375 56.09375 51.90625 
C 56.09375 49.328125 55.59375 46.65625 55.59375 46.25 
C 55.59375 45.359375 56.40625 45.359375 56.703125 45.359375 
C 57.59375 45.359375 57.703125 45.65625 58.09375 47.25 
z
" id="CMMI12-83"/>
       <path d="M 4.296875 -12.40625 
C 3.59375 -15.328125 3.203125 -16.109375 -0.90625 -16.109375 
C -2.109375 -16.109375 -3.109375 -16.109375 -3.109375 -18 
C -3.109375 -18.203125 -3 -19 -1.90625 -19 
C -0.609375 -19 0.796875 -18.8125 2.09375 -18.8125 
L 6.40625 -18.8125 
C 8.5 -18.8125 13.59375 -19 15.703125 -19 
C 16.296875 -19 17.5 -19 17.5 -17.203125 
C 17.5 -16.109375 16.796875 -16.109375 15.09375 -16.109375 
C 10.5 -16.109375 10.203125 -15.421875 10.203125 -14.640625 
C 10.203125 -13.484375 14.703125 3.390625 15.296875 5.6875 
C 16.40625 2.890625 19.09375 -1 24.296875 -1 
C 35.59375 -1 47.796875 13.65625 47.796875 28.328125 
C 47.796875 37.5 42.59375 44 35.09375 44 
C 28.703125 44 23.296875 37.796875 22.203125 36.40625 
C 21.40625 41.390625 17.5 44 13.5 44 
C 10.59375 44 8.296875 42.59375 6.40625 38.796875 
C 4.59375 35.203125 3.203125 29.125 3.203125 28.71875 
C 3.203125 28.328125 3.59375 27.828125 4.296875 27.828125 
C 5.09375 27.828125 5.203125 27.921875 5.796875 30.21875 
C 7.296875 36.109375 9.203125 41.984375 13.203125 41.984375 
C 15.5 41.984375 16.296875 40.390625 16.296875 37.40625 
C 16.296875 35.015625 16 34.015625 15.59375 32.21875 
z
M 21.59375 31.125 
C 22.296875 33.90625 25.09375 36.8125 26.703125 38.203125 
C 27.796875 39.203125 31.09375 41.984375 34.90625 41.984375 
C 39.296875 41.984375 41.296875 37.609375 41.296875 32.421875 
C 41.296875 27.625 38.5 16.359375 36 11.171875 
C 33.5 5.78125 28.90625 1 24.296875 1 
C 17.5 1 16.40625 9.578125 16.40625 9.96875 
C 16.40625 10.265625 16.59375 11.0625 16.703125 11.5625 
z
" id="CMMI12-112"/>
       <path d="M 38.90625 41.140625 
C 35.796875 40.59375 34.203125 38.390625 34.203125 36.1875 
C 34.203125 33.796875 36.09375 32.984375 37.5 32.984375 
C 40.296875 32.984375 42.59375 35.390625 42.59375 38.390625 
C 42.59375 41.421875 39.5 44 34.5 44 
C 30.5 44 25.90625 42.1875 21.703125 36.484375 
C 21 41.5625 17 44 13 44 
C 9.09375 44 7.09375 41.28125 5.90625 39.1875 
C 4.203125 35.59375 2.703125 29.5625 2.703125 29.0625 
C 2.703125 28.65625 3.09375 28.140625 3.796875 28.140625 
C 4.59375 28.140625 4.703125 28.25 5.296875 30.578125 
C 6.796875 36.59375 8.703125 41.984375 12.703125 41.984375 
C 15.09375 41.984375 15.796875 40.6875 15.796875 37.796875 
C 15.796875 35.59375 14.796875 31.6875 14.09375 28.546875 
L 11.296875 17.65625 
C 10.90625 15.734375 9.796875 11.1875 9.296875 9.375 
C 8.59375 6.75 7.5 2 7.5 1.5 
C 7.5 0.09375 8.59375 -1 10.09375 -1 
C 11.203125 -1 13.09375 -0.3125 13.703125 1.703125 
C 14 2.5 17.703125 17.75 18.296875 20.078125 
C 18.796875 22.296875 19.40625 24.40625 19.90625 26.640625 
C 20.296875 28.046875 20.703125 29.65625 21 30.96875 
C 21.296875 31.875 24 36.796875 26.5 38.984375 
C 27.703125 40.09375 30.296875 41.984375 34.40625 41.984375 
C 36 41.984375 37.59375 41.78125 38.90625 41.140625 
z
" id="CMMI12-114"/>
       <path d="M 17.90625 23 
C 20.59375 23 27.40625 23.1875 32.203125 25 
C 39.796875 27.90625 40.5 33.75 40.5 35.546875 
C 40.5 39.984375 36.703125 44 30.09375 44 
C 19.59375 44 4.5 34.453125 4.5 16.65625 
C 4.5 6.25 10.5 -1 19.59375 -1 
C 33.203125 -1 41.796875 9.515625 41.796875 10.796875 
C 41.796875 11.390625 41.203125 11.890625 40.796875 11.890625 
C 40.5 11.890625 40.40625 11.796875 39.5 10.90625 
C 33.09375 2.484375 23.59375 1 19.796875 1 
C 14.09375 1 11.09375 5.453125 11.09375 12.78125 
C 11.09375 14.171875 11.09375 16.65625 12.59375 23 
z
M 13.09375 25 
C 17.40625 40.484375 26.90625 41.984375 30.09375 41.984375 
C 34.5 41.984375 37.5 39.375 37.5 35.546875 
C 37.5 25 21.5 25 17.296875 25 
z
" id="CMMI12-101"/>
      </defs>
      <use transform="scale(0.996264)" xlink:href="#CMMI12-83"/>
      <use transform="translate(59.994488 -14.943915)scale(0.697382)" xlink:href="#CMMI12-112"/>
      <use transform="translate(94.265994 -14.943915)scale(0.697382)" xlink:href="#CMMI12-114"/>
      <use transform="translate(126.935263 -14.943915)scale(0.697382)" xlink:href="#CMMI12-101"/>
     </g>
    </g>
   </g>
   <g id="EventCollection_1">
    <path clip-path="url(#p965461a724)" d="M 104.579388 19.241379 
L 104.579388 45.310345 
" style="fill:none;stroke:#ff0000;"/>
    <path clip-path="url(#p965461a724)" d="M 202.665325 19.241379 
L 202.665325 45.310345 
" style="fill:none;stroke:#ff0000;"/>
    <path clip-path="url(#p965461a724)" d="M 209.204388 19.241379 
L 209.204388 45.310345 
" style="fill:none;stroke:#ff0000;"/>
    <path clip-path="url(#p965461a724)" d="M 213.563763 19.241379 
L 213.563763 45.310345 
" style="fill:none;stroke:#ff0000;"/>
    <path clip-path="url(#p965461a724)" d="M 228.821575 19.241379 
L 228.821575 45.310345 
" style="fill:none;stroke:#ff0000;"/>
    <path clip-path="url(#p965461a724)" d="M 237.540325 19.241379 
L 237.540325 45.310345 
" style="fill:none;stroke:#ff0000;"/>
    <path clip-path="url(#p965461a724)" d="M 305.110638 19.241379 
L 305.110638 45.310345 
" style="fill:none;stroke:#ff0000;"/>
    <path clip-path="url(#p965461a724)" d="M 316.009075 19.241379 
L 316.009075 45.310345 
" style="fill:none;stroke:#ff0000;"/>
    <path clip-path="url(#p965461a724)" d="M 324.727825 19.241379 
L 324.727825 45.310345 
" style="fill:none;stroke:#ff0000;"/>
    <path clip-path="url(#p965461a724)" d="M 326.907513 19.241379 
L 326.907513 45.310345 
" style="fill:none;stroke:#ff0000;"/>
    <path clip-path="url(#p965461a724)" d="M 329.0872 19.241379 
L 329.0872 45.310345 
" style="fill:none;stroke:#ff0000;"/>
    <path clip-path="url(#p965461a724)" d="M 344.345013 19.241379 
L 344.345013 45.310345 
" style="fill:none;stroke:#ff0000;"/>
    <path clip-path="url(#p965461a724)" d="M 355.24345 19.241379 
L 355.24345 45.310345 
" style="fill:none;stroke:#ff0000;"/>
    <path clip-path="url(#p965461a724)" d="M 372.68095 19.241379 
L 372.68095 45.310345 
" style="fill:none;stroke:#ff0000;"/>
    <path clip-path="url(#p965461a724)" d="M 379.220013 19.241379 
L 379.220013 45.310345 
" style="fill:none;stroke:#ff0000;"/>
    <path clip-path="url(#p965461a724)" d="M 398.8372 19.241379 
L 398.8372 45.310345 
" style="fill:none;stroke:#ff0000;"/>
    <path clip-path="url(#p965461a724)" d="M 403.196575 19.241379 
L 403.196575 45.310345 
" style="fill:none;stroke:#ff0000;"/>
    <path clip-path="url(#p965461a724)" d="M 405.376263 19.241379 
L 405.376263 45.310345 
" style="fill:none;stroke:#ff0000;"/>
    <path clip-path="url(#p965461a724)" d="M 420.634075 19.241379 
L 420.634075 45.310345 
" style="fill:none;stroke:#ff0000;"/>
    <path clip-path="url(#p965461a724)" d="M 422.813763 19.241379 
L 422.813763 45.310345 
" style="fill:none;stroke:#ff0000;"/>
    <path clip-path="url(#p965461a724)" d="M 431.532513 19.241379 
L 431.532513 45.310345 
" style="fill:none;stroke:#ff0000;"/>
    <path clip-path="url(#p965461a724)" d="M 433.7122 19.241379 
L 433.7122 45.310345 
" style="fill:none;stroke:#ff0000;"/>
    <path clip-path="url(#p965461a724)" d="M 438.071575 19.241379 
L 438.071575 45.310345 
" style="fill:none;stroke:#ff0000;"/>
    <path clip-path="url(#p965461a724)" d="M 440.251263 19.241379 
L 440.251263 45.310345 
" style="fill:none;stroke:#ff0000;"/>
    <path clip-path="url(#p965461a724)" d="M 442.43095 19.241379 
L 442.43095 45.310345 
" style="fill:none;stroke:#ff0000;"/>
    <path clip-path="url(#p965461a724)" d="M 444.610638 19.241379 
L 444.610638 45.310345 
" style="fill:none;stroke:#ff0000;"/>
    <path clip-path="url(#p965461a724)" d="M 446.790325 19.241379 
L 446.790325 45.310345 
" style="fill:none;stroke:#ff0000;"/>
    <path clip-path="url(#p965461a724)" d="M 459.86845 19.241379 
L 459.86845 45.310345 
" style="fill:none;stroke:#ff0000;"/>
    <path clip-path="url(#p965461a724)" d="M 479.485638 19.241379 
L 479.485638 45.310345 
" style="fill:none;stroke:#ff0000;"/>
    <path clip-path="url(#p965461a724)" d="M 488.204388 19.241379 
L 488.204388 45.310345 
" style="fill:none;stroke:#ff0000;"/>
    <path clip-path="url(#p965461a724)" d="M 490.384075 19.241379 
L 490.384075 45.310345 
" style="fill:none;stroke:#ff0000;"/>
    <path clip-path="url(#p965461a724)" d="M 499.102825 19.241379 
L 499.102825 45.310345 
" style="fill:none;stroke:#ff0000;"/>
    <path clip-path="url(#p965461a724)" d="M 516.540325 19.241379 
L 516.540325 45.310345 
" style="fill:none;stroke:#ff0000;"/>
    <path clip-path="url(#p965461a724)" d="M 520.8997 19.241379 
L 520.8997 45.310345 
" style="fill:none;stroke:#ff0000;"/>
    <path clip-path="url(#p965461a724)" d="M 527.438763 19.241379 
L 527.438763 45.310345 
" style="fill:none;stroke:#ff0000;"/>
    <path clip-path="url(#p965461a724)" d="M 555.7747 19.241379 
L 555.7747 45.310345 
" style="fill:none;stroke:#ff0000;"/>
    <path clip-path="url(#p965461a724)" d="M 568.852825 19.241379 
L 568.852825 45.310345 
" style="fill:none;stroke:#ff0000;"/>
   </g>
   <g id="patch_3">
    <path d="M 37.009075 60.951724 
L 37.009075 3.6 
" style="fill:none;stroke:#000000;stroke-linecap:square;stroke-linejoin:miter;stroke-width:0.5;"/>
   </g>
   <g id="patch_4">
    <path d="M 595.009075 60.951724 
L 595.009075 3.6 
" style="fill:none;stroke:#000000;stroke-linecap:square;stroke-linejoin:miter;stroke-width:0.5;"/>
   </g>
   <g id="patch_5">
    <path d="M 37.009075 60.951724 
L 595.009075 60.951724 
" style="fill:none;stroke:#000000;stroke-linecap:square;stroke-linejoin:miter;stroke-width:0.5;"/>
   </g>
   <g id="patch_6">
    <path d="M 37.009075 3.6 
L 595.009075 3.6 
" style="fill:none;stroke:#000000;stroke-linecap:square;stroke-linejoin:miter;stroke-width:0.5;"/>
   </g>
  </g>
  <g id="axes_2">
   <g id="patch_7">
    <path d="M 37.009075 129.773793 
L 595.009075 129.773793 
L 595.009075 72.422069 
L 37.009075 72.422069 
z
" style="fill:#ffffff;"/>
   </g>
   <g id="matplotlib.axis_3"/>
   <g id="matplotlib.axis_4">
    <g id="ytick_1">
     <g id="line2d_1">
      <defs>
       <path d="M 0 0 
L 3 0 
" id="m7af56aed06" style="stroke:#000000;stroke-width:0.5;"/>
      </defs>
      <g>
       <use style="stroke:#000000;stroke-width:0.5;" x="37.009075" xlink:href="#m7af56aed06" y="127.166897"/>
      </g>
     </g>
     <g id="line2d_2">
      <defs>
       <path d="M 0 0 
L -3 0 
" id="ma8de645163" style="stroke:#000000;stroke-width:0.5;"/>
      </defs>
      <g>
       <use style="stroke:#000000;stroke-width:0.5;" x="595.009075" xlink:href="#ma8de645163" y="127.166897"/>
      </g>
     </g>
     <g id="text_2">
      <!-- $\mathdefault{0}$ -->
      <g transform="translate(28.52774 130.626146)scale(0.1 -0.1)">
       <defs>
        <path d="M 42 31.84375 
C 42 37.96875 41.90625 48.421875 37.703125 56.453125 
C 34 63.484375 28.09375 66 22.90625 66 
C 18.09375 66 12 63.78125 8.203125 56.5625 
C 4.203125 49.015625 3.796875 39.671875 3.796875 31.84375 
C 3.796875 26.109375 3.90625 17.375 7 9.734375 
C 11.296875 -0.609375 19 -2 22.90625 -2 
C 27.5 -2 34.5 -0.109375 38.59375 9.4375 
C 41.59375 16.375 42 24.5 42 31.84375 
z
M 22.90625 -0.40625 
C 16.5 -0.40625 12.703125 5.125 11.296875 12.75 
C 10.203125 18.6875 10.203125 27.328125 10.203125 32.953125 
C 10.203125 40.6875 10.203125 47.109375 11.5 53.234375 
C 13.40625 61.78125 19 64.390625 22.90625 64.390625 
C 27 64.390625 32.296875 61.671875 34.203125 53.4375 
C 35.5 47.71875 35.59375 40.984375 35.59375 32.953125 
C 35.59375 26.421875 35.59375 18.375 34.40625 12.453125 
C 32.296875 1.5 26.40625 -0.40625 22.90625 -0.40625 
z
" id="CMR17-48"/>
       </defs>
       <use transform="scale(0.996264)" xlink:href="#CMR17-48"/>
      </g>
     </g>
    </g>
    <g id="ytick_2">
     <g id="line2d_3">
      <g>
       <use style="stroke:#000000;stroke-width:0.5;" x="37.009075" xlink:href="#m7af56aed06" y="74.355838"/>
      </g>
     </g>
     <g id="line2d_4">
      <g>
       <use style="stroke:#000000;stroke-width:0.5;" x="595.009075" xlink:href="#ma8de645163" y="74.355838"/>
      </g>
     </g>
     <g id="text_3">
      <!-- $\mathdefault{20}$ -->
      <g transform="translate(23.546405 77.815087)scale(0.1 -0.1)">
       <defs>
        <path d="M 41.703125 15.46875 
L 39.90625 15.46875 
C 38.90625 8.390625 38.09375 7.1875 37.703125 6.59375 
C 37.203125 5.796875 30 5.796875 28.59375 5.796875 
L 9.40625 5.796875 
C 13 9.6875 20 16.765625 28.5 24.9375 
C 34.59375 30.71875 41.703125 37.5 41.703125 47.390625 
C 41.703125 59.1875 32.296875 66 21.796875 66 
C 10.796875 66 4.09375 56.296875 4.09375 47.296875 
C 4.09375 43.390625 7 42.890625 8.203125 42.890625 
C 9.203125 42.890625 12.203125 43.484375 12.203125 46.984375 
C 12.203125 50.09375 9.59375 51 8.203125 51 
C 7.59375 51 7 50.890625 6.59375 50.6875 
C 8.5 59.1875 14.296875 63.390625 20.40625 63.390625 
C 29.09375 63.390625 34.796875 56.5 34.796875 47.390625 
C 34.796875 38.703125 29.703125 31.21875 24 24.734375 
L 4.09375 2.296875 
L 4.09375 0 
L 39.296875 0 
z
" id="CMR17-50"/>
       </defs>
       <use transform="scale(0.996264)" xlink:href="#CMR17-50"/>
       <use transform="translate(45.690477 0)scale(0.996264)" xlink:href="#CMR17-48"/>
      </g>
     </g>
    </g>
    <g id="ytick_3">
     <g id="line2d_5">
      <defs>
       <path d="M 0 0 
L 1.5 0 
" id="md6efb8f8df" style="stroke:#000000;stroke-width:0.5;"/>
      </defs>
      <g>
       <use style="stroke:#000000;stroke-width:0.5;" x="37.009075" xlink:href="#md6efb8f8df" y="113.964132"/>
      </g>
     </g>
     <g id="line2d_6">
      <defs>
       <path d="M 0 0 
L -1.5 0 
" id="mcd48a67c11" style="stroke:#000000;stroke-width:0.5;"/>
      </defs>
      <g>
       <use style="stroke:#000000;stroke-width:0.5;" x="595.009075" xlink:href="#mcd48a67c11" y="113.964132"/>
      </g>
     </g>
    </g>
    <g id="ytick_4">
     <g id="line2d_7">
      <g>
       <use style="stroke:#000000;stroke-width:0.5;" x="37.009075" xlink:href="#md6efb8f8df" y="100.761367"/>
      </g>
     </g>
     <g id="line2d_8">
      <g>
       <use style="stroke:#000000;stroke-width:0.5;" x="595.009075" xlink:href="#mcd48a67c11" y="100.761367"/>
      </g>
     </g>
    </g>
    <g id="ytick_5">
     <g id="line2d_9">
      <g>
       <use style="stroke:#000000;stroke-width:0.5;" x="37.009075" xlink:href="#md6efb8f8df" y="87.558603"/>
      </g>
     </g>
     <g id="line2d_10">
      <g>
       <use style="stroke:#000000;stroke-width:0.5;" x="595.009075" xlink:href="#mcd48a67c11" y="87.558603"/>
      </g>
     </g>
    </g>
    <g id="text_4">
     <!-- $tr_{pre}$ -->
     <g transform="translate(3.6 98.247536)scale(0.1 -0.1)">
      <defs>
       <path d="M 20.09375 40.09375 
L 29.296875 40.09375 
C 31.203125 40.09375 32.203125 40.09375 32.203125 41.890625 
C 32.203125 43 31.59375 43 29.59375 43 
L 20.796875 43 
L 24.5 57.25 
C 24.90625 58.625 24.90625 58.8125 24.90625 59.5 
C 24.90625 61.09375 23.59375 62 22.296875 62 
C 21.5 62 19.203125 61.6875 18.40625 58.53125 
L 14.5 43 
L 5.09375 43 
C 3.09375 43 2.203125 43 2.203125 41.09375 
C 2.203125 40.09375 2.90625 40.09375 4.796875 40.09375 
L 13.703125 40.09375 
L 7.09375 13.765625 
C 6.296875 10.265625 6 9.265625 6 7.96875 
C 6 3.28125 9.296875 -1 14.90625 -1 
C 25 -1 30.40625 13.5625 30.40625 14.265625 
C 30.40625 14.859375 30 15.15625 29.40625 15.15625 
C 29.203125 15.15625 28.796875 15.15625 28.59375 14.75 
C 28.5 14.65625 28.40625 14.5625 27.703125 12.96875 
C 25.59375 7.96875 21 1 15.203125 1 
C 12.203125 1 12 3.484375 12 5.6875 
C 12 5.78125 12 7.671875 12.296875 8.875 
z
" id="CMMI12-116"/>
      </defs>
      <use transform="scale(0.996264)" xlink:href="#CMMI12-116"/>
      <use transform="translate(35.22633 0)scale(0.996264)" xlink:href="#CMMI12-114"/>
      <use transform="translate(79.187225 -14.943915)scale(0.697382)" xlink:href="#CMMI12-112"/>
      <use transform="translate(113.458731 -14.943915)scale(0.697382)" xlink:href="#CMMI12-114"/>
      <use transform="translate(146.128 -14.943915)scale(0.697382)" xlink:href="#CMMI12-101"/>
     </g>
    </g>
   </g>
   <g id="line2d_11">
    <path clip-path="url(#p9535bcce44)" d="M 37.009075 127.166897 
L 102.3997 127.166897 
L 104.579388 124.526344 
L 169.970013 125.213679 
L 200.485638 125.470047 
L 202.665325 122.846462 
L 207.0247 122.932439 
L 209.204388 120.334231 
L 211.384075 120.402557 
L 213.563763 117.829648 
L 226.641888 118.376062 
L 228.821575 115.823417 
L 235.360638 116.16033 
L 237.540325 113.629842 
L 265.876263 115.287847 
L 296.391888 116.847023 
L 302.93095 117.153534 
L 305.110638 114.613114 
L 313.829388 115.107782 
L 316.009075 112.587821 
L 322.548138 113.020834 
L 329.0872 105.598278 
L 342.165325 106.860472 
L 344.345013 104.422984 
L 353.063763 105.319185 
L 355.24345 102.897109 
L 370.501263 104.54587 
L 372.68095 102.131527 
L 377.040325 102.629731 
L 379.220013 100.234549 
L 396.657513 102.315215 
L 398.8372 99.923178 
L 401.016888 100.195615 
L 405.376263 95.477643 
L 418.454388 97.332093 
L 422.813763 92.671103 
L 429.352825 93.695662 
L 433.7122 89.107038 
L 435.891888 89.487636 
L 444.610638 80.56752 
L 446.790325 78.39296 
L 457.688763 80.783372 
L 459.86845 78.606657 
L 475.126263 81.90558 
L 477.30595 82.358191 
L 479.485638 80.165727 
L 486.0247 81.561711 
L 490.384075 77.214555 
L 496.923138 78.698194 
L 499.102825 76.54233 
L 514.360638 79.981493 
L 516.540325 77.812796 
L 518.720013 78.306338 
L 520.8997 76.154392 
L 525.259075 77.169545 
L 527.438763 75.028966 
L 542.696575 78.570938 
L 553.595013 80.952622 
L 555.7747 78.774214 
L 566.673138 81.145942 
L 568.852825 78.9656 
L 584.110638 82.240137 
L 592.829388 84.01043 
L 592.829388 84.01043 
" style="fill:none;stroke:#0c5da5;stroke-linecap:square;"/>
   </g>
   <g id="patch_8">
    <path d="M 37.009075 129.773793 
L 37.009075 72.422069 
" style="fill:none;stroke:#000000;stroke-linecap:square;stroke-linejoin:miter;stroke-width:0.5;"/>
   </g>
   <g id="patch_9">
    <path d="M 595.009075 129.773793 
L 595.009075 72.422069 
" style="fill:none;stroke:#000000;stroke-linecap:square;stroke-linejoin:miter;stroke-width:0.5;"/>
   </g>
   <g id="patch_10">
    <path d="M 37.009075 129.773793 
L 595.009075 129.773793 
" style="fill:none;stroke:#000000;stroke-linecap:square;stroke-linejoin:miter;stroke-width:0.5;"/>
   </g>
   <g id="patch_11">
    <path d="M 37.009075 72.422069 
L 595.009075 72.422069 
" style="fill:none;stroke:#000000;stroke-linecap:square;stroke-linejoin:miter;stroke-width:0.5;"/>
   </g>
  </g>
  <g id="axes_3">
   <g id="patch_12">
    <path d="M 37.009075 198.595862 
L 595.009075 198.595862 
L 595.009075 141.244138 
L 37.009075 141.244138 
z
" style="fill:#ffffff;"/>
   </g>
   <g id="matplotlib.axis_5"/>
   <g id="matplotlib.axis_6">
    <g id="text_5">
     <!-- $S_{post}$ -->
     <g transform="translate(16.54996 167.069605)scale(0.1 -0.1)">
      <defs>
       <path d="M 45.59375 27.421875 
C 45.59375 36.90625 39.40625 44 30.296875 44 
C 17.09375 44 4.09375 29.625 4.09375 15.5625 
C 4.09375 6.078125 10.296875 -1 19.40625 -1 
C 32.703125 -1 45.59375 13.359375 45.59375 27.421875 
z
M 19.5 1 
C 14.5 1 10.796875 4.984375 10.796875 11.96875 
C 10.796875 16.5625 13.203125 26.734375 16 31.71875 
C 20.5 39.40625 26.09375 41.984375 30.203125 41.984375 
C 35.09375 41.984375 38.90625 38 38.90625 31.015625 
C 38.90625 27.03125 36.796875 16.359375 33 10.265625 
C 28.90625 3.59375 23.40625 1 19.5 1 
z
" id="CMMI12-111"/>
       <path d="M 22.796875 20.15625 
C 24.5 19.859375 27.203125 19.265625 27.796875 19.171875 
C 29.09375 18.765625 33.59375 17.171875 33.59375 12.390625 
C 33.59375 9.296875 30.796875 1 19.203125 1 
C 17.09375 1 9.59375 1.296875 7.59375 6.984375 
C 11.59375 6.46875 13.59375 9.59375 13.59375 11.796875 
C 13.59375 13.890625 12.203125 15 10.203125 15 
C 8 15 5.09375 13.296875 5.09375 8.796875 
C 5.09375 2.75 11.09375 -1 19.09375 -1 
C 34.296875 -1 38.796875 10.390625 38.796875 15.59375 
C 38.796875 17.078125 38.796875 19.859375 35.59375 23.046875 
C 33.09375 25.421875 30.703125 25.921875 25.296875 27.015625 
C 22.59375 27.609375 18.296875 28.5 18.296875 32.984375 
C 18.296875 34.984375 20.09375 41.984375 29.59375 41.984375 
C 33.796875 41.984375 37.90625 40.453125 38.90625 37 
C 34.5 37 34.296875 33.1875 34.296875 33.09375 
C 34.296875 30.984375 36.203125 30.390625 37.09375 30.390625 
C 38.5 30.390625 41.296875 31.484375 41.296875 35.6875 
C 41.296875 39.78125 37.5 44 29.703125 44 
C 16.59375 44 13.09375 33.890625 13.09375 29.796875 
C 13.09375 22.25 20.5 20.65625 22.796875 20.15625 
z
" id="CMMI12-115"/>
      </defs>
      <use transform="scale(0.996264)" xlink:href="#CMMI12-83"/>
      <use transform="translate(59.994488 -14.943915)scale(0.697382)" xlink:href="#CMMI12-112"/>
      <use transform="translate(94.265994 -14.943915)scale(0.697382)" xlink:href="#CMMI12-111"/>
      <use transform="translate(127.092556 -14.943915)scale(0.697382)" xlink:href="#CMMI12-115"/>
      <use transform="translate(159.257445 -14.943915)scale(0.697382)" xlink:href="#CMMI12-116"/>
     </g>
    </g>
   </g>
   <g id="EventCollection_2">
    <path clip-path="url(#p2d27b11316)" d="M 84.9622 156.885517 
L 84.9622 182.954483 
" style="fill:none;stroke:#ff0000;"/>
    <path clip-path="url(#p2d27b11316)" d="M 113.298138 156.885517 
L 113.298138 182.954483 
" style="fill:none;stroke:#ff0000;"/>
    <path clip-path="url(#p2d27b11316)" d="M 115.477825 156.885517 
L 115.477825 182.954483 
" style="fill:none;stroke:#ff0000;"/>
    <path clip-path="url(#p2d27b11316)" d="M 130.735638 156.885517 
L 130.735638 182.954483 
" style="fill:none;stroke:#ff0000;"/>
    <path clip-path="url(#p2d27b11316)" d="M 139.454388 156.885517 
L 139.454388 182.954483 
" style="fill:none;stroke:#ff0000;"/>
    <path clip-path="url(#p2d27b11316)" d="M 141.634075 156.885517 
L 141.634075 182.954483 
" style="fill:none;stroke:#ff0000;"/>
    <path clip-path="url(#p2d27b11316)" d="M 169.970013 156.885517 
L 169.970013 182.954483 
" style="fill:none;stroke:#ff0000;"/>
    <path clip-path="url(#p2d27b11316)" d="M 174.329388 156.885517 
L 174.329388 182.954483 
" style="fill:none;stroke:#ff0000;"/>
    <path clip-path="url(#p2d27b11316)" d="M 185.227825 156.885517 
L 185.227825 182.954483 
" style="fill:none;stroke:#ff0000;"/>
    <path clip-path="url(#p2d27b11316)" d="M 224.4622 156.885517 
L 224.4622 182.954483 
" style="fill:none;stroke:#ff0000;"/>
    <path clip-path="url(#p2d27b11316)" d="M 268.05595 156.885517 
L 268.05595 182.954483 
" style="fill:none;stroke:#ff0000;"/>
    <path clip-path="url(#p2d27b11316)" d="M 285.49345 156.885517 
L 285.49345 182.954483 
" style="fill:none;stroke:#ff0000;"/>
    <path clip-path="url(#p2d27b11316)" d="M 357.423138 156.885517 
L 357.423138 182.954483 
" style="fill:none;stroke:#ff0000;"/>
    <path clip-path="url(#p2d27b11316)" d="M 387.938763 156.885517 
L 387.938763 182.954483 
" style="fill:none;stroke:#ff0000;"/>
    <path clip-path="url(#p2d27b11316)" d="M 398.8372 156.885517 
L 398.8372 182.954483 
" style="fill:none;stroke:#ff0000;"/>
    <path clip-path="url(#p2d27b11316)" d="M 416.2747 156.885517 
L 416.2747 182.954483 
" style="fill:none;stroke:#ff0000;"/>
    <path clip-path="url(#p2d27b11316)" d="M 490.384075 156.885517 
L 490.384075 182.954483 
" style="fill:none;stroke:#ff0000;"/>
    <path clip-path="url(#p2d27b11316)" d="M 501.282513 156.885517 
L 501.282513 182.954483 
" style="fill:none;stroke:#ff0000;"/>
    <path clip-path="url(#p2d27b11316)" d="M 575.391888 156.885517 
L 575.391888 182.954483 
" style="fill:none;stroke:#ff0000;"/>
    <path clip-path="url(#p2d27b11316)" d="M 586.290325 156.885517 
L 586.290325 182.954483 
" style="fill:none;stroke:#ff0000;"/>
    <path clip-path="url(#p2d27b11316)" d="M 590.6497 156.885517 
L 590.6497 182.954483 
" style="fill:none;stroke:#ff0000;"/>
   </g>
   <g id="patch_13">
    <path d="M 37.009075 198.595862 
L 37.009075 141.244138 
" style="fill:none;stroke:#000000;stroke-linecap:square;stroke-linejoin:miter;stroke-width:0.5;"/>
   </g>
   <g id="patch_14">
    <path d="M 595.009075 198.595862 
L 595.009075 141.244138 
" style="fill:none;stroke:#000000;stroke-linecap:square;stroke-linejoin:miter;stroke-width:0.5;"/>
   </g>
   <g id="patch_15">
    <path d="M 37.009075 198.595862 
L 595.009075 198.595862 
" style="fill:none;stroke:#000000;stroke-linecap:square;stroke-linejoin:miter;stroke-width:0.5;"/>
   </g>
   <g id="patch_16">
    <path d="M 37.009075 141.244138 
L 595.009075 141.244138 
" style="fill:none;stroke:#000000;stroke-linecap:square;stroke-linejoin:miter;stroke-width:0.5;"/>
   </g>
  </g>
  <g id="axes_4">
   <g id="patch_17">
    <path d="M 37.009075 267.417931 
L 595.009075 267.417931 
L 595.009075 210.066207 
L 37.009075 210.066207 
z
" style="fill:#ffffff;"/>
   </g>
   <g id="matplotlib.axis_7"/>
   <g id="matplotlib.axis_8">
    <g id="ytick_6">
     <g id="line2d_12">
      <g>
       <use style="stroke:#000000;stroke-width:0.5;" x="37.009075" xlink:href="#m7af56aed06" y="264.811034"/>
      </g>
     </g>
     <g id="line2d_13">
      <g>
       <use style="stroke:#000000;stroke-width:0.5;" x="595.009075" xlink:href="#ma8de645163" y="264.811034"/>
      </g>
     </g>
     <g id="text_6">
      <!-- $\mathdefault{0}$ -->
      <g transform="translate(28.52774 268.270284)scale(0.1 -0.1)">
       <use transform="scale(0.996264)" xlink:href="#CMR17-48"/>
      </g>
     </g>
    </g>
    <g id="ytick_7">
     <g id="line2d_14">
      <g>
       <use style="stroke:#000000;stroke-width:0.5;" x="37.009075" xlink:href="#m7af56aed06" y="230.462194"/>
      </g>
     </g>
     <g id="line2d_15">
      <g>
       <use style="stroke:#000000;stroke-width:0.5;" x="595.009075" xlink:href="#ma8de645163" y="230.462194"/>
      </g>
     </g>
     <g id="text_7">
      <!-- $\mathdefault{5}$ -->
      <g transform="translate(28.52774 233.921443)scale(0.1 -0.1)">
       <defs>
        <path d="M 11.40625 58.59375 
C 12.40625 58.1875 16.5 56.890625 20.703125 56.890625 
C 30 56.890625 35.09375 61.890625 38 64.6875 
C 38 65.484375 38 66 37.40625 66 
C 37.296875 66 37.09375 66 36.296875 65.59375 
C 32.796875 64.09375 28.703125 63 23.703125 63 
C 20.703125 63 16.203125 63.359375 11.296875 65.484375 
C 10.203125 66 10 66 9.90625 66 
C 9.40625 66 9.296875 65.890625 9.296875 63.90625 
L 9.296875 34.859375 
C 9.296875 33.015625 9.296875 32.5 10.296875 32.5 
C 10.796875 32.5 11 32.703125 11.5 33.421875 
C 14.703125 38.046875 19.09375 40 24.09375 40 
C 27.59375 40 35.09375 37.734375 35.09375 20.203125 
C 35.09375 16.984375 35.09375 11.1875 32.09375 6.59375 
C 29.59375 2.484375 25.703125 0.390625 21.40625 0.390625 
C 14.796875 0.390625 8.09375 4.984375 6.296875 12.6875 
C 6.703125 12.59375 7.5 12.390625 7.90625 12.390625 
C 9.203125 12.390625 11.703125 13.09375 11.703125 16.1875 
C 11.703125 18.890625 9.796875 20 7.90625 20 
C 5.59375 20 4.09375 18.59375 4.09375 15.796875 
C 4.09375 7.09375 11 -2 21.59375 -2 
C 31.90625 -2 41.703125 6.890625 41.703125 19.796875 
C 41.703125 32.09375 33.90625 41.59375 24.203125 41.59375 
C 19.09375 41.59375 14.796875 39.6875 11.40625 36 
z
" id="CMR17-53"/>
       </defs>
       <use transform="scale(0.996264)" xlink:href="#CMR17-53"/>
      </g>
     </g>
    </g>
    <g id="ytick_8">
     <g id="line2d_16">
      <g>
       <use style="stroke:#000000;stroke-width:0.5;" x="37.009075" xlink:href="#md6efb8f8df" y="257.941266"/>
      </g>
     </g>
     <g id="line2d_17">
      <g>
       <use style="stroke:#000000;stroke-width:0.5;" x="595.009075" xlink:href="#mcd48a67c11" y="257.941266"/>
      </g>
     </g>
    </g>
    <g id="ytick_9">
     <g id="line2d_18">
      <g>
       <use style="stroke:#000000;stroke-width:0.5;" x="37.009075" xlink:href="#md6efb8f8df" y="251.071498"/>
      </g>
     </g>
     <g id="line2d_19">
      <g>
       <use style="stroke:#000000;stroke-width:0.5;" x="595.009075" xlink:href="#mcd48a67c11" y="251.071498"/>
      </g>
     </g>
    </g>
    <g id="ytick_10">
     <g id="line2d_20">
      <g>
       <use style="stroke:#000000;stroke-width:0.5;" x="37.009075" xlink:href="#md6efb8f8df" y="244.20173"/>
      </g>
     </g>
     <g id="line2d_21">
      <g>
       <use style="stroke:#000000;stroke-width:0.5;" x="595.009075" xlink:href="#mcd48a67c11" y="244.20173"/>
      </g>
     </g>
    </g>
    <g id="ytick_11">
     <g id="line2d_22">
      <g>
       <use style="stroke:#000000;stroke-width:0.5;" x="37.009075" xlink:href="#md6efb8f8df" y="237.331962"/>
      </g>
     </g>
     <g id="line2d_23">
      <g>
       <use style="stroke:#000000;stroke-width:0.5;" x="595.009075" xlink:href="#mcd48a67c11" y="237.331962"/>
      </g>
     </g>
    </g>
    <g id="ytick_12">
     <g id="line2d_24">
      <g>
       <use style="stroke:#000000;stroke-width:0.5;" x="37.009075" xlink:href="#md6efb8f8df" y="223.592426"/>
      </g>
     </g>
     <g id="line2d_25">
      <g>
       <use style="stroke:#000000;stroke-width:0.5;" x="595.009075" xlink:href="#mcd48a67c11" y="223.592426"/>
      </g>
     </g>
    </g>
    <g id="ytick_13">
     <g id="line2d_26">
      <g>
       <use style="stroke:#000000;stroke-width:0.5;" x="37.009075" xlink:href="#md6efb8f8df" y="216.722658"/>
      </g>
     </g>
     <g id="line2d_27">
      <g>
       <use style="stroke:#000000;stroke-width:0.5;" x="595.009075" xlink:href="#mcd48a67c11" y="216.722658"/>
      </g>
     </g>
    </g>
    <g id="text_8">
     <!-- $tr_{post}$ -->
     <g transform="translate(7.076967 235.891674)scale(0.1 -0.1)">
      <use transform="scale(0.996264)" xlink:href="#CMMI12-116"/>
      <use transform="translate(35.22633 0)scale(0.996264)" xlink:href="#CMMI12-114"/>
      <use transform="translate(79.187225 -14.943915)scale(0.697382)" xlink:href="#CMMI12-112"/>
      <use transform="translate(113.458731 -14.943915)scale(0.697382)" xlink:href="#CMMI12-111"/>
      <use transform="translate(146.285292 -14.943915)scale(0.697382)" xlink:href="#CMMI12-115"/>
      <use transform="translate(178.450181 -14.943915)scale(0.697382)" xlink:href="#CMMI12-116"/>
     </g>
    </g>
   </g>
   <g id="line2d_28">
    <path clip-path="url(#p80f1354e3a)" d="M 37.009075 264.811034 
L 82.782513 264.811034 
L 84.9622 257.941266 
L 111.11845 258.721776 
L 115.477825 245.172114 
L 128.55595 246.321378 
L 130.735638 239.636507 
L 137.2747 240.384216 
L 141.634075 227.199471 
L 159.071575 230.105172 
L 167.790325 231.47272 
L 169.970013 224.936336 
L 172.1497 225.335085 
L 174.329388 218.860075 
L 183.048138 220.670726 
L 185.227825 214.24236 
L 200.485638 217.677722 
L 215.74345 220.879706 
L 222.282513 222.18451 
L 224.4622 215.741007 
L 239.720013 219.074559 
L 254.977825 222.181647 
L 265.876263 224.270911 
L 268.05595 217.806545 
L 283.313763 220.999779 
L 285.49345 214.568124 
L 300.751263 217.981359 
L 316.009075 221.162716 
L 331.266888 224.127951 
L 348.704388 227.270935 
L 355.24345 228.385915 
L 357.423138 221.880399 
L 372.68095 224.796871 
L 385.759075 227.138493 
L 387.938763 220.64545 
L 396.657513 222.385747 
L 398.8372 215.940233 
L 414.095013 219.260252 
L 416.2747 212.845992 
L 431.532513 216.376217 
L 446.790325 219.666623 
L 462.048138 222.733492 
L 477.30595 225.592016 
L 488.204388 227.514137 
L 490.384075 221.017337 
L 499.102825 222.742982 
L 501.282513 216.293893 
L 516.540325 219.589889 
L 531.798138 222.661972 
L 547.05595 225.525354 
L 564.49345 228.560379 
L 573.2122 229.988801 
L 575.391888 223.467256 
L 584.110638 225.096367 
L 586.290325 218.623746 
L 588.470013 219.085618 
L 590.6497 212.673103 
L 592.829388 213.194483 
L 592.829388 213.194483 
" style="fill:none;stroke:#0c5da5;stroke-linecap:square;"/>
   </g>
   <g id="patch_18">
    <path d="M 37.009075 267.417931 
L 37.009075 210.066207 
" style="fill:none;stroke:#000000;stroke-linecap:square;stroke-linejoin:miter;stroke-width:0.5;"/>
   </g>
   <g id="patch_19">
    <path d="M 595.009075 267.417931 
L 595.009075 210.066207 
" style="fill:none;stroke:#000000;stroke-linecap:square;stroke-linejoin:miter;stroke-width:0.5;"/>
   </g>
   <g id="patch_20">
    <path d="M 37.009075 267.417931 
L 595.009075 267.417931 
" style="fill:none;stroke:#000000;stroke-linecap:square;stroke-linejoin:miter;stroke-width:0.5;"/>
   </g>
   <g id="patch_21">
    <path d="M 37.009075 210.066207 
L 595.009075 210.066207 
" style="fill:none;stroke:#000000;stroke-linecap:square;stroke-linejoin:miter;stroke-width:0.5;"/>
   </g>
  </g>
  <g id="axes_5">
   <g id="patch_22">
    <path d="M 37.009075 336.24 
L 595.009075 336.24 
L 595.009075 278.888276 
L 37.009075 278.888276 
z
" style="fill:#ffffff;"/>
   </g>
   <g id="matplotlib.axis_9">
    <g id="xtick_1">
     <g id="line2d_29">
      <defs>
       <path d="M 0 0 
L 0 -3 
" id="m3182276a83" style="stroke:#000000;stroke-width:0.5;"/>
      </defs>
      <g>
       <use style="stroke:#000000;stroke-width:0.5;" x="37.009075" xlink:href="#m3182276a83" y="336.24"/>
      </g>
     </g>
     <g id="line2d_30">
      <defs>
       <path d="M 0 0 
L 0 3 
" id="m2bb2893c89" style="stroke:#000000;stroke-width:0.5;"/>
      </defs>
      <g>
       <use style="stroke:#000000;stroke-width:0.5;" x="37.009075" xlink:href="#m2bb2893c89" y="278.888276"/>
      </g>
     </g>
     <g id="text_9">
      <!-- $\mathdefault{0}$ -->
      <g transform="translate(34.518407 346.658498)scale(0.1 -0.1)">
       <use transform="scale(0.996264)" xlink:href="#CMR17-48"/>
      </g>
     </g>
    </g>
    <g id="xtick_2">
     <g id="line2d_31">
      <g>
       <use style="stroke:#000000;stroke-width:0.5;" x="145.99345" xlink:href="#m3182276a83" y="336.24"/>
      </g>
     </g>
     <g id="line2d_32">
      <g>
       <use style="stroke:#000000;stroke-width:0.5;" x="145.99345" xlink:href="#m2bb2893c89" y="278.888276"/>
      </g>
     </g>
     <g id="text_10">
      <!-- $\mathdefault{50}$ -->
      <g transform="translate(141.012115 346.658498)scale(0.1 -0.1)">
       <use transform="scale(0.996264)" xlink:href="#CMR17-53"/>
       <use transform="translate(45.690477 0)scale(0.996264)" xlink:href="#CMR17-48"/>
      </g>
     </g>
    </g>
    <g id="xtick_3">
     <g id="line2d_33">
      <g>
       <use style="stroke:#000000;stroke-width:0.5;" x="254.977825" xlink:href="#m3182276a83" y="336.24"/>
      </g>
     </g>
     <g id="line2d_34">
      <g>
       <use style="stroke:#000000;stroke-width:0.5;" x="254.977825" xlink:href="#m2bb2893c89" y="278.888276"/>
      </g>
     </g>
     <g id="text_11">
      <!-- $\mathdefault{100}$ -->
      <g transform="translate(247.505822 346.658498)scale(0.1 -0.1)">
       <defs>
        <path d="M 26.59375 63.796875 
C 26.59375 65.890625 26.5 66 25.09375 66 
C 21.203125 61.359375 15.296875 59.890625 9.703125 59.6875 
C 9.40625 59.6875 8.90625 59.6875 8.796875 59.5 
C 8.703125 59.296875 8.703125 59.09375 8.703125 57 
C 11.796875 57 17 57.59375 21 59.984375 
L 21 7.296875 
C 21 3.796875 20.796875 2.59375 12.203125 2.59375 
L 9.203125 2.59375 
L 9.203125 0 
C 14 0.09375 19 0.1875 23.796875 0.1875 
C 28.59375 0.1875 33.59375 0.09375 38.40625 0 
L 38.40625 2.59375 
L 35.40625 2.59375 
C 26.796875 2.59375 26.59375 3.6875 26.59375 7.296875 
z
" id="CMR17-49"/>
       </defs>
       <use transform="scale(0.996264)" xlink:href="#CMR17-49"/>
       <use transform="translate(45.690477 0)scale(0.996264)" xlink:href="#CMR17-48"/>
       <use transform="translate(91.380954 0)scale(0.996264)" xlink:href="#CMR17-48"/>
      </g>
     </g>
    </g>
    <g id="xtick_4">
     <g id="line2d_35">
      <g>
       <use style="stroke:#000000;stroke-width:0.5;" x="363.9622" xlink:href="#m3182276a83" y="336.24"/>
      </g>
     </g>
     <g id="line2d_36">
      <g>
       <use style="stroke:#000000;stroke-width:0.5;" x="363.9622" xlink:href="#m2bb2893c89" y="278.888276"/>
      </g>
     </g>
     <g id="text_12">
      <!-- $\mathdefault{150}$ -->
      <g transform="translate(356.490197 346.658498)scale(0.1 -0.1)">
       <use transform="scale(0.996264)" xlink:href="#CMR17-49"/>
       <use transform="translate(45.690477 0)scale(0.996264)" xlink:href="#CMR17-53"/>
       <use transform="translate(91.380954 0)scale(0.996264)" xlink:href="#CMR17-48"/>
      </g>
     </g>
    </g>
    <g id="xtick_5">
     <g id="line2d_37">
      <g>
       <use style="stroke:#000000;stroke-width:0.5;" x="472.946575" xlink:href="#m3182276a83" y="336.24"/>
      </g>
     </g>
     <g id="line2d_38">
      <g>
       <use style="stroke:#000000;stroke-width:0.5;" x="472.946575" xlink:href="#m2bb2893c89" y="278.888276"/>
      </g>
     </g>
     <g id="text_13">
      <!-- $\mathdefault{200}$ -->
      <g transform="translate(465.474572 346.658498)scale(0.1 -0.1)">
       <use transform="scale(0.996264)" xlink:href="#CMR17-50"/>
       <use transform="translate(45.690477 0)scale(0.996264)" xlink:href="#CMR17-48"/>
       <use transform="translate(91.380954 0)scale(0.996264)" xlink:href="#CMR17-48"/>
      </g>
     </g>
    </g>
    <g id="xtick_6">
     <g id="line2d_39">
      <g>
       <use style="stroke:#000000;stroke-width:0.5;" x="581.93095" xlink:href="#m3182276a83" y="336.24"/>
      </g>
     </g>
     <g id="line2d_40">
      <g>
       <use style="stroke:#000000;stroke-width:0.5;" x="581.93095" xlink:href="#m2bb2893c89" y="278.888276"/>
      </g>
     </g>
     <g id="text_14">
      <!-- $\mathdefault{250}$ -->
      <g transform="translate(574.458947 346.658498)scale(0.1 -0.1)">
       <use transform="scale(0.996264)" xlink:href="#CMR17-50"/>
       <use transform="translate(45.690477 0)scale(0.996264)" xlink:href="#CMR17-53"/>
       <use transform="translate(91.380954 0)scale(0.996264)" xlink:href="#CMR17-48"/>
      </g>
     </g>
    </g>
    <g id="xtick_7">
     <g id="line2d_41">
      <defs>
       <path d="M 0 0 
L 0 -1.5 
" id="me6272e931a" style="stroke:#000000;stroke-width:0.5;"/>
      </defs>
      <g>
       <use style="stroke:#000000;stroke-width:0.5;" x="58.80595" xlink:href="#me6272e931a" y="336.24"/>
      </g>
     </g>
     <g id="line2d_42">
      <defs>
       <path d="M 0 0 
L 0 1.5 
" id="m4ec58c5b0b" style="stroke:#000000;stroke-width:0.5;"/>
      </defs>
      <g>
       <use style="stroke:#000000;stroke-width:0.5;" x="58.80595" xlink:href="#m4ec58c5b0b" y="278.888276"/>
      </g>
     </g>
    </g>
    <g id="xtick_8">
     <g id="line2d_43">
      <g>
       <use style="stroke:#000000;stroke-width:0.5;" x="80.602825" xlink:href="#me6272e931a" y="336.24"/>
      </g>
     </g>
     <g id="line2d_44">
      <g>
       <use style="stroke:#000000;stroke-width:0.5;" x="80.602825" xlink:href="#m4ec58c5b0b" y="278.888276"/>
      </g>
     </g>
    </g>
    <g id="xtick_9">
     <g id="line2d_45">
      <g>
       <use style="stroke:#000000;stroke-width:0.5;" x="102.3997" xlink:href="#me6272e931a" y="336.24"/>
      </g>
     </g>
     <g id="line2d_46">
      <g>
       <use style="stroke:#000000;stroke-width:0.5;" x="102.3997" xlink:href="#m4ec58c5b0b" y="278.888276"/>
      </g>
     </g>
    </g>
    <g id="xtick_10">
     <g id="line2d_47">
      <g>
       <use style="stroke:#000000;stroke-width:0.5;" x="124.196575" xlink:href="#me6272e931a" y="336.24"/>
      </g>
     </g>
     <g id="line2d_48">
      <g>
       <use style="stroke:#000000;stroke-width:0.5;" x="124.196575" xlink:href="#m4ec58c5b0b" y="278.888276"/>
      </g>
     </g>
    </g>
    <g id="xtick_11">
     <g id="line2d_49">
      <g>
       <use style="stroke:#000000;stroke-width:0.5;" x="167.790325" xlink:href="#me6272e931a" y="336.24"/>
      </g>
     </g>
     <g id="line2d_50">
      <g>
       <use style="stroke:#000000;stroke-width:0.5;" x="167.790325" xlink:href="#m4ec58c5b0b" y="278.888276"/>
      </g>
     </g>
    </g>
    <g id="xtick_12">
     <g id="line2d_51">
      <g>
       <use style="stroke:#000000;stroke-width:0.5;" x="189.5872" xlink:href="#me6272e931a" y="336.24"/>
      </g>
     </g>
     <g id="line2d_52">
      <g>
       <use style="stroke:#000000;stroke-width:0.5;" x="189.5872" xlink:href="#m4ec58c5b0b" y="278.888276"/>
      </g>
     </g>
    </g>
    <g id="xtick_13">
     <g id="line2d_53">
      <g>
       <use style="stroke:#000000;stroke-width:0.5;" x="211.384075" xlink:href="#me6272e931a" y="336.24"/>
      </g>
     </g>
     <g id="line2d_54">
      <g>
       <use style="stroke:#000000;stroke-width:0.5;" x="211.384075" xlink:href="#m4ec58c5b0b" y="278.888276"/>
      </g>
     </g>
    </g>
    <g id="xtick_14">
     <g id="line2d_55">
      <g>
       <use style="stroke:#000000;stroke-width:0.5;" x="233.18095" xlink:href="#me6272e931a" y="336.24"/>
      </g>
     </g>
     <g id="line2d_56">
      <g>
       <use style="stroke:#000000;stroke-width:0.5;" x="233.18095" xlink:href="#m4ec58c5b0b" y="278.888276"/>
      </g>
     </g>
    </g>
    <g id="xtick_15">
     <g id="line2d_57">
      <g>
       <use style="stroke:#000000;stroke-width:0.5;" x="276.7747" xlink:href="#me6272e931a" y="336.24"/>
      </g>
     </g>
     <g id="line2d_58">
      <g>
       <use style="stroke:#000000;stroke-width:0.5;" x="276.7747" xlink:href="#m4ec58c5b0b" y="278.888276"/>
      </g>
     </g>
    </g>
    <g id="xtick_16">
     <g id="line2d_59">
      <g>
       <use style="stroke:#000000;stroke-width:0.5;" x="298.571575" xlink:href="#me6272e931a" y="336.24"/>
      </g>
     </g>
     <g id="line2d_60">
      <g>
       <use style="stroke:#000000;stroke-width:0.5;" x="298.571575" xlink:href="#m4ec58c5b0b" y="278.888276"/>
      </g>
     </g>
    </g>
    <g id="xtick_17">
     <g id="line2d_61">
      <g>
       <use style="stroke:#000000;stroke-width:0.5;" x="320.36845" xlink:href="#me6272e931a" y="336.24"/>
      </g>
     </g>
     <g id="line2d_62">
      <g>
       <use style="stroke:#000000;stroke-width:0.5;" x="320.36845" xlink:href="#m4ec58c5b0b" y="278.888276"/>
      </g>
     </g>
    </g>
    <g id="xtick_18">
     <g id="line2d_63">
      <g>
       <use style="stroke:#000000;stroke-width:0.5;" x="342.165325" xlink:href="#me6272e931a" y="336.24"/>
      </g>
     </g>
     <g id="line2d_64">
      <g>
       <use style="stroke:#000000;stroke-width:0.5;" x="342.165325" xlink:href="#m4ec58c5b0b" y="278.888276"/>
      </g>
     </g>
    </g>
    <g id="xtick_19">
     <g id="line2d_65">
      <g>
       <use style="stroke:#000000;stroke-width:0.5;" x="385.759075" xlink:href="#me6272e931a" y="336.24"/>
      </g>
     </g>
     <g id="line2d_66">
      <g>
       <use style="stroke:#000000;stroke-width:0.5;" x="385.759075" xlink:href="#m4ec58c5b0b" y="278.888276"/>
      </g>
     </g>
    </g>
    <g id="xtick_20">
     <g id="line2d_67">
      <g>
       <use style="stroke:#000000;stroke-width:0.5;" x="407.55595" xlink:href="#me6272e931a" y="336.24"/>
      </g>
     </g>
     <g id="line2d_68">
      <g>
       <use style="stroke:#000000;stroke-width:0.5;" x="407.55595" xlink:href="#m4ec58c5b0b" y="278.888276"/>
      </g>
     </g>
    </g>
    <g id="xtick_21">
     <g id="line2d_69">
      <g>
       <use style="stroke:#000000;stroke-width:0.5;" x="429.352825" xlink:href="#me6272e931a" y="336.24"/>
      </g>
     </g>
     <g id="line2d_70">
      <g>
       <use style="stroke:#000000;stroke-width:0.5;" x="429.352825" xlink:href="#m4ec58c5b0b" y="278.888276"/>
      </g>
     </g>
    </g>
    <g id="xtick_22">
     <g id="line2d_71">
      <g>
       <use style="stroke:#000000;stroke-width:0.5;" x="451.1497" xlink:href="#me6272e931a" y="336.24"/>
      </g>
     </g>
     <g id="line2d_72">
      <g>
       <use style="stroke:#000000;stroke-width:0.5;" x="451.1497" xlink:href="#m4ec58c5b0b" y="278.888276"/>
      </g>
     </g>
    </g>
    <g id="xtick_23">
     <g id="line2d_73">
      <g>
       <use style="stroke:#000000;stroke-width:0.5;" x="494.74345" xlink:href="#me6272e931a" y="336.24"/>
      </g>
     </g>
     <g id="line2d_74">
      <g>
       <use style="stroke:#000000;stroke-width:0.5;" x="494.74345" xlink:href="#m4ec58c5b0b" y="278.888276"/>
      </g>
     </g>
    </g>
    <g id="xtick_24">
     <g id="line2d_75">
      <g>
       <use style="stroke:#000000;stroke-width:0.5;" x="516.540325" xlink:href="#me6272e931a" y="336.24"/>
      </g>
     </g>
     <g id="line2d_76">
      <g>
       <use style="stroke:#000000;stroke-width:0.5;" x="516.540325" xlink:href="#m4ec58c5b0b" y="278.888276"/>
      </g>
     </g>
    </g>
    <g id="xtick_25">
     <g id="line2d_77">
      <g>
       <use style="stroke:#000000;stroke-width:0.5;" x="538.3372" xlink:href="#me6272e931a" y="336.24"/>
      </g>
     </g>
     <g id="line2d_78">
      <g>
       <use style="stroke:#000000;stroke-width:0.5;" x="538.3372" xlink:href="#m4ec58c5b0b" y="278.888276"/>
      </g>
     </g>
    </g>
    <g id="xtick_26">
     <g id="line2d_79">
      <g>
       <use style="stroke:#000000;stroke-width:0.5;" x="560.134075" xlink:href="#me6272e931a" y="336.24"/>
      </g>
     </g>
     <g id="line2d_80">
      <g>
       <use style="stroke:#000000;stroke-width:0.5;" x="560.134075" xlink:href="#m4ec58c5b0b" y="278.888276"/>
      </g>
     </g>
    </g>
   </g>
   <g id="matplotlib.axis_10">
    <g id="ytick_14">
     <g id="line2d_81">
      <g>
       <use style="stroke:#000000;stroke-width:0.5;" x="37.009075" xlink:href="#m7af56aed06" y="335.830062"/>
      </g>
     </g>
     <g id="line2d_82">
      <g>
       <use style="stroke:#000000;stroke-width:0.5;" x="595.009075" xlink:href="#ma8de645163" y="335.830062"/>
      </g>
     </g>
     <g id="text_15">
      <!-- $\mathdefault{0.3}$ -->
      <g transform="translate(20.778996 339.289311)scale(0.1 -0.1)">
       <defs>
        <path d="M 18.40625 4.796875 
C 18.40625 7.6875 16 9.6875 13.59375 9.6875 
C 10.703125 9.6875 8.703125 7.296875 8.703125 4.890625 
C 8.703125 2 11.09375 0 13.5 0 
C 16.40625 0 18.40625 2.390625 18.40625 4.796875 
z
" id="CMMI12-58"/>
        <path d="M 22.09375 34 
C 31 34 34.90625 26.140625 34.90625 17.09375 
C 34.90625 5.03125 28.5 0.390625 22.703125 0.390625 
C 17.40625 0.390625 8.796875 3.015625 6.09375 10.796875 
C 6.59375 10.59375 7.09375 10.59375 7.59375 10.59375 
C 10 10.59375 11.796875 12.1875 11.796875 14.796875 
C 11.796875 17.6875 9.59375 19 7.59375 19 
C 5.90625 19 3.296875 18.1875 3.296875 14.484375 
C 3.296875 5.234375 12.296875 -2 22.90625 -2 
C 34 -2 42.5 6.75 42.5 16.984375 
C 42.5 26.84375 34.5 34 25 35.09375 
C 32.59375 36.671875 39.90625 43.375 39.90625 52.390625 
C 39.90625 60.25 32 66 23 66 
C 13.90625 66 5.90625 60.34375 5.90625 52.296875 
C 5.90625 48.796875 8.5 48.1875 9.796875 48.1875 
C 11.90625 48.1875 13.703125 49.484375 13.703125 52.09375 
C 13.703125 54.6875 11.90625 56 9.796875 56 
C 9.40625 56 8.90625 56 8.5 55.796875 
C 11.40625 62.484375 19.296875 63.6875 22.796875 63.6875 
C 26.296875 63.6875 32.90625 61.96875 32.90625 52.296875 
C 32.90625 49.484375 32.5 44.546875 29.09375 40.21875 
C 26.09375 36.390625 22.703125 36.1875 19.40625 35.890625 
C 18.90625 35.890625 16.59375 35.6875 16.203125 35.6875 
C 15.5 35.59375 15.09375 35.5 15.09375 34.796875 
C 15.09375 34.09375 15.203125 34 17.203125 34 
z
" id="CMR17-51"/>
       </defs>
       <use transform="scale(0.996264)" xlink:href="#CMR17-48"/>
       <use transform="translate(45.690477 0)scale(0.996264)" xlink:href="#CMMI12-58"/>
       <use transform="translate(72.787654 0)scale(0.996264)" xlink:href="#CMR17-51"/>
      </g>
     </g>
    </g>
    <g id="ytick_15">
     <g id="line2d_83">
      <g>
       <use style="stroke:#000000;stroke-width:0.5;" x="37.009075" xlink:href="#m7af56aed06" y="293.96223"/>
      </g>
     </g>
     <g id="line2d_84">
      <g>
       <use style="stroke:#000000;stroke-width:0.5;" x="595.009075" xlink:href="#ma8de645163" y="293.96223"/>
      </g>
     </g>
     <g id="text_16">
      <!-- $\mathdefault{0.4}$ -->
      <g transform="translate(20.778996 297.421479)scale(0.1 -0.1)">
       <defs>
        <path d="M 33.59375 64.796875 
C 33.59375 66.890625 33.5 67 31.703125 67 
L 2 19.59375 
L 2 17 
L 27.796875 17 
L 27.796875 7.1875 
C 27.796875 3.59375 27.59375 2.59375 20.59375 2.59375 
L 18.703125 2.59375 
L 18.703125 0 
C 21.90625 0.1875 27.296875 0.1875 30.703125 0.1875 
C 34.09375 0.1875 39.5 0.1875 42.703125 0 
L 42.703125 2.59375 
L 40.796875 2.59375 
C 33.796875 2.59375 33.59375 3.59375 33.59375 7.1875 
L 33.59375 17 
L 43.796875 17 
L 43.796875 19.59375 
L 33.59375 19.59375 
z
M 28.09375 58.171875 
L 28.09375 19.59375 
L 4 19.59375 
z
" id="CMR17-52"/>
       </defs>
       <use transform="scale(0.996264)" xlink:href="#CMR17-48"/>
       <use transform="translate(45.690477 0)scale(0.996264)" xlink:href="#CMMI12-58"/>
       <use transform="translate(72.787654 0)scale(0.996264)" xlink:href="#CMR17-52"/>
      </g>
     </g>
    </g>
    <g id="ytick_16">
     <g id="line2d_85">
      <g>
       <use style="stroke:#000000;stroke-width:0.5;" x="37.009075" xlink:href="#md6efb8f8df" y="327.456496"/>
      </g>
     </g>
     <g id="line2d_86">
      <g>
       <use style="stroke:#000000;stroke-width:0.5;" x="595.009075" xlink:href="#mcd48a67c11" y="327.456496"/>
      </g>
     </g>
    </g>
    <g id="ytick_17">
     <g id="line2d_87">
      <g>
       <use style="stroke:#000000;stroke-width:0.5;" x="37.009075" xlink:href="#md6efb8f8df" y="319.082929"/>
      </g>
     </g>
     <g id="line2d_88">
      <g>
       <use style="stroke:#000000;stroke-width:0.5;" x="595.009075" xlink:href="#mcd48a67c11" y="319.082929"/>
      </g>
     </g>
    </g>
    <g id="ytick_18">
     <g id="line2d_89">
      <g>
       <use style="stroke:#000000;stroke-width:0.5;" x="37.009075" xlink:href="#md6efb8f8df" y="310.709363"/>
      </g>
     </g>
     <g id="line2d_90">
      <g>
       <use style="stroke:#000000;stroke-width:0.5;" x="595.009075" xlink:href="#mcd48a67c11" y="310.709363"/>
      </g>
     </g>
    </g>
    <g id="ytick_19">
     <g id="line2d_91">
      <g>
       <use style="stroke:#000000;stroke-width:0.5;" x="37.009075" xlink:href="#md6efb8f8df" y="302.335796"/>
      </g>
     </g>
     <g id="line2d_92">
      <g>
       <use style="stroke:#000000;stroke-width:0.5;" x="595.009075" xlink:href="#mcd48a67c11" y="302.335796"/>
      </g>
     </g>
    </g>
    <g id="ytick_20">
     <g id="line2d_93">
      <g>
       <use style="stroke:#000000;stroke-width:0.5;" x="37.009075" xlink:href="#md6efb8f8df" y="285.588664"/>
      </g>
     </g>
     <g id="line2d_94">
      <g>
       <use style="stroke:#000000;stroke-width:0.5;" x="595.009075" xlink:href="#mcd48a67c11" y="285.588664"/>
      </g>
     </g>
    </g>
    <g id="text_17">
     <!-- $w$ -->
     <g transform="translate(7.212787 305.62696)scale(0.1 -0.1)">
      <defs>
       <path d="M 34.40625 6.078125 
C 36.59375 0.09375 42.796875 -1 46.59375 -1 
C 54.203125 -1 58.703125 5.578125 61.5 12.46875 
C 63.796875 18.25 67.5 31.421875 67.5 37.3125 
C 67.5 43.390625 64.40625 44 63.5 44 
C 61.09375 44 58.90625 41.59375 58.90625 39.59375 
C 58.90625 38.40625 59.59375 37.703125 60.09375 37.3125 
C 61 36.40625 63.59375 33.71875 63.59375 28.53125 
C 63.59375 25.140625 60.796875 15.75 58.703125 11.0625 
C 55.90625 4.984375 52.203125 1 47 1 
C 41.40625 1 39.59375 5.1875 39.59375 9.765625 
C 39.59375 12.65625 40.5 16.15625 40.90625 17.84375 
L 45.09375 34.609375 
C 45.59375 36.609375 46.5 40.09375 46.5 40.484375 
C 46.5 41.984375 45.296875 43 43.796875 43 
C 40.90625 43 40.203125 40.484375 39.59375 38.09375 
C 38.59375 34.203125 34.40625 17.34375 34 15.15625 
C 33.59375 13.453125 33.59375 12.359375 33.59375 10.171875 
C 33.59375 7.78125 30.40625 3.984375 30.296875 3.78125 
C 29.203125 2.6875 27.59375 1 24.5 1 
C 16.59375 1 16.59375 8.46875 16.59375 10.171875 
C 16.59375 13.359375 17.296875 17.75 21.796875 29.625 
C 23 32.71875 23.5 34.015625 23.5 36.015625 
C 23.5 40.203125 20.5 44 15.59375 44 
C 6.40625 44 2.703125 29.53125 2.703125 28.71875 
C 2.703125 28.328125 3.09375 27.828125 3.796875 27.828125 
C 4.703125 27.828125 4.796875 28.234375 5.203125 29.625 
C 7.703125 38.40625 11.59375 41.984375 15.296875 41.984375 
C 16.296875 41.984375 17.90625 41.890625 17.90625 38.703125 
C 17.90625 38.203125 17.90625 36.109375 16.203125 31.71875 
C 11.5 19.25 10.5 15.15625 10.5 11.375 
C 10.5 0.890625 19.09375 -1 24.203125 -1 
C 25.90625 -1 30.40625 -1 34.40625 6.078125 
z
" id="CMMI12-119"/>
      </defs>
      <use transform="scale(0.996264)" xlink:href="#CMMI12-119"/>
     </g>
    </g>
   </g>
   <g id="line2d_95">
    <path clip-path="url(#pa531c1b057)" d="M 37.009075 319.409529 
L 82.782513 319.409529 
L 84.9622 321.24845 
L 102.3997 321.24845 
L 104.579388 319.427921 
L 111.11845 319.427921 
L 115.477825 323.086998 
L 128.55595 323.086998 
L 130.735638 324.889135 
L 137.2747 324.889135 
L 141.634075 328.439533 
L 167.790325 328.439533 
L 169.970013 330.188154 
L 172.1497 330.188154 
L 174.329388 331.919282 
L 183.048138 331.919282 
L 185.227825 333.633103 
L 200.485638 333.633103 
L 202.665325 331.936426 
L 207.0247 331.936426 
L 209.204388 330.222779 
L 211.384075 330.222779 
L 213.563763 328.491989 
L 222.282513 328.491989 
L 224.4622 330.240086 
L 226.641888 330.240086 
L 228.821575 328.50947 
L 235.360638 328.50947 
L 237.540325 326.761547 
L 265.876263 326.761547 
L 268.05595 328.526951 
L 283.313763 328.526951 
L 285.49345 330.274699 
L 302.93095 330.274699 
L 305.110638 328.544432 
L 313.829388 328.544432 
L 316.009075 326.796859 
L 322.548138 326.796859 
L 329.0872 321.448591 
L 342.165325 321.448591 
L 344.345013 319.630057 
L 353.063763 319.630057 
L 355.24345 317.793344 
L 357.423138 319.648424 
L 370.501263 319.648424 
L 372.68095 317.811898 
L 377.040325 317.811898 
L 379.220013 315.957005 
L 385.759075 315.957005 
L 387.938763 317.830453 
L 401.016888 317.830453 
L 405.376263 314.102487 
L 414.095013 314.102487 
L 416.2747 315.994476 
L 418.454388 315.994476 
L 422.813763 312.229601 
L 429.352825 312.229601 
L 433.7122 308.389062 
L 435.891888 308.389062 
L 444.610638 300.474841 
L 446.790325 298.446572 
L 457.688763 298.446572 
L 459.86845 296.398027 
L 477.30595 296.398027 
L 479.485638 294.328994 
L 486.0247 294.328994 
L 488.204388 292.239273 
L 496.923138 292.239273 
L 499.102825 290.128651 
L 501.282513 292.260385 
L 514.360638 292.260385 
L 516.540325 290.149976 
L 518.720013 290.149976 
L 520.8997 288.018467 
L 525.259075 288.018467 
L 527.438763 285.865634 
L 553.595013 285.865634 
L 555.7747 283.691278 
L 566.673138 283.691278 
L 568.852825 281.495172 
L 573.2122 281.495172 
L 575.391888 283.713238 
L 584.110638 283.713238 
L 586.290325 285.909119 
L 588.470013 285.909119 
L 590.6497 288.083038 
L 592.829388 288.083038 
L 592.829388 288.083038 
" style="fill:none;stroke:#0c5da5;stroke-linecap:square;"/>
   </g>
   <g id="patch_23">
    <path d="M 37.009075 336.24 
L 37.009075 278.888276 
" style="fill:none;stroke:#000000;stroke-linecap:square;stroke-linejoin:miter;stroke-width:0.5;"/>
   </g>
   <g id="patch_24">
    <path d="M 595.009075 336.24 
L 595.009075 278.888276 
" style="fill:none;stroke:#000000;stroke-linecap:square;stroke-linejoin:miter;stroke-width:0.5;"/>
   </g>
   <g id="patch_25">
    <path d="M 37.009075 336.24 
L 595.009075 336.24 
" style="fill:none;stroke:#000000;stroke-linecap:square;stroke-linejoin:miter;stroke-width:0.5;"/>
   </g>
   <g id="patch_26">
    <path d="M 37.009075 278.888276 
L 595.009075 278.888276 
" style="fill:none;stroke:#000000;stroke-linecap:square;stroke-linejoin:miter;stroke-width:0.5;"/>
   </g>
  </g>
 </g>
 <defs>
  <clipPath id="p965461a724">
   <rect height="57.351724" width="558" x="37.009075" y="3.6"/>
  </clipPath>
  <clipPath id="p9535bcce44">
   <rect height="57.351724" width="558" x="37.009075" y="72.422069"/>
  </clipPath>
  <clipPath id="p2d27b11316">
   <rect height="57.351724" width="558" x="37.009075" y="141.244138"/>
  </clipPath>
  <clipPath id="p80f1354e3a">
   <rect height="57.351724" width="558" x="37.009075" y="210.066207"/>
  </clipPath>
  <clipPath id="pa531c1b057">
   <rect height="57.351724" width="558" x="37.009075" y="278.888276"/>
  </clipPath>
 </defs>
</svg>
