<svg viewBox="0 0 1707.2222900390625 400.0000305175781" xmlns="http://www.w3.org/2000/svg"><g><g><g><g><g><line x1="41.171875" y1="315.98306359051327" x2="36.171875" y2="315.98306359051327" style="visibility: inherit;" fill="rgb(0, 0, 0)" stroke="rgb(204, 204, 204)" stroke-width="1px"></line><line x1="41.171875" y1="248.61815026546932" x2="36.171875" y2="248.61815026546932" style="visibility: inherit;" fill="rgb(0, 0, 0)" stroke="rgb(204, 204, 204)" stroke-width="1px"></line><line x1="41.171875" y1="193.57700837104204" x2="36.171875" y2="193.57700837104204" style="visibility: inherit;" fill="rgb(0, 0, 0)" stroke="rgb(204, 204, 204)" stroke-width="1px"></line><line x1="41.171875" y1="147.04038598423782" x2="36.171875" y2="147.04038598423782" style="visibility: inherit;" fill="rgb(0, 0, 0)" stroke="rgb(204, 204, 204)" stroke-width="1px"></line><line x1="41.171875" y1="106.72853006303755" x2="36.171875" y2="106.72853006303755" style="visibility: inherit;" fill="rgb(0, 0, 0)" stroke="rgb(204, 204, 204)" stroke-width="1px"></line><line x1="41.171875" y1="71.17095315157088" x2="36.171875" y2="71.17095315157088" style="visibility: inherit;" fill="rgb(0, 0, 0)" stroke="rgb(204, 204, 204)" stroke-width="1px"></line><line x1="41.171875" y1="39.363616737993624" x2="36.171875" y2="39.363616737993624" style="visibility: inherit;" fill="rgb(0, 0, 0)" stroke="rgb(204, 204, 204)" stroke-width="1px"></line></g><g transform="translate(31.171875, 0)"><text x="0" y="315.98306359051327" dx="0em" dy="0.3em" style="text-anchor: end; visibility: inherit; font-family: Roboto, sans-serif; font-size: 12px; font-weight: 200;" fill="rgb(33, 33, 33)" stroke="none" stroke-width="1px">0.4</text><text x="0" y="248.61815026546932" dx="0em" dy="0.3em" style="text-anchor: end; visibility: inherit; font-family: Roboto, sans-serif; font-size: 12px; font-weight: 200;" fill="rgb(33, 33, 33)" stroke="none" stroke-width="1px">0.5</text><text x="0" y="193.57700837104204" dx="0em" dy="0.3em" style="text-anchor: end; visibility: inherit; font-family: Roboto, sans-serif; font-size: 12px; font-weight: 200;" fill="rgb(33, 33, 33)" stroke="none" stroke-width="1px">0.6</text><text x="0" y="147.04038598423782" dx="0em" dy="0.3em" style="text-anchor: end; visibility: inherit; font-family: Roboto, sans-serif; font-size: 12px; font-weight: 200;" fill="rgb(33, 33, 33)" stroke="none" stroke-width="1px">0.7</text><text x="0" y="106.72853006303755" dx="0em" dy="0.3em" style="text-anchor: end; visibility: inherit; font-family: Roboto, sans-serif; font-size: 12px; font-weight: 200;" fill="rgb(33, 33, 33)" stroke="none" stroke-width="1px">0.8</text><text x="0" y="71.17095315157088" dx="0em" dy="0.3em" style="text-anchor: end; visibility: inherit; font-family: Roboto, sans-serif; font-size: 12px; font-weight: 200;" fill="rgb(33, 33, 33)" stroke="none" stroke-width="1px">0.9</text><text x="0" y="39.363616737993624" dx="0em" dy="0.3em" style="text-anchor: end; visibility: inherit; font-family: Roboto, sans-serif; font-size: 12px; font-weight: 200;" fill="rgb(33, 33, 33)" stroke="none" stroke-width="1px">1</text></g><line x1="41.171875" y1="0" x2="41.171875" y2="377" fill="rgb(0, 0, 0)" stroke="rgb(204, 204, 204)" stroke-width="1px"></line></g></g><g transform="translate(41, 0)" clip-path="url(#clip_0)"><clipPath id="clip_0"><rect width="1666" height="376"></rect></clipPath><g><g><g><line x1="0" y1="0" x2="0" y2="377" fill="rgb(0, 0, 0)" stroke="rgb(66, 66, 66)" stroke-width="1px" opacity="0.25"></line><line x1="151.45892045454545" y1="0" x2="151.45892045454545" y2="377" fill="rgb(0, 0, 0)" stroke="rgb(66, 66, 66)" stroke-width="1px" opacity="0.25"></line><line x1="302.9178409090909" y1="0" x2="302.9178409090909" y2="377" fill="rgb(0, 0, 0)" stroke="rgb(66, 66, 66)" stroke-width="1px" opacity="0.25"></line><line x1="454.3767613636363" y1="0" x2="454.3767613636363" y2="377" fill="rgb(0, 0, 0)" stroke="rgb(66, 66, 66)" stroke-width="1px" opacity="0.25"></line><line x1="605.8356818181818" y1="0" x2="605.8356818181818" y2="377" fill="rgb(0, 0, 0)" stroke="rgb(66, 66, 66)" stroke-width="1px" opacity="0.25"></line><line x1="757.2946022727273" y1="0" x2="757.2946022727273" y2="377" fill="rgb(0, 0, 0)" stroke="rgb(66, 66, 66)" stroke-width="1px" opacity="0.25"></line><line x1="908.7535227272726" y1="0" x2="908.7535227272726" y2="377" fill="rgb(0, 0, 0)" stroke="rgb(66, 66, 66)" stroke-width="1px" opacity="0.25"></line><line x1="1060.2124431818181" y1="0" x2="1060.2124431818181" y2="377" fill="rgb(0, 0, 0)" stroke="rgb(66, 66, 66)" stroke-width="1px" opacity="0.25"></line><line x1="1211.6713636363636" y1="0" x2="1211.6713636363636" y2="377" fill="rgb(0, 0, 0)" stroke="rgb(66, 66, 66)" stroke-width="1px" opacity="0.25"></line><line x1="1363.1302840909093" y1="0" x2="1363.1302840909093" y2="377" fill="rgb(0, 0, 0)" stroke="rgb(66, 66, 66)" stroke-width="1px" opacity="0.25"></line><line x1="1514.5892045454545" y1="0" x2="1514.5892045454545" y2="377" fill="rgb(0, 0, 0)" stroke="rgb(66, 66, 66)" stroke-width="1px" opacity="0.25"></line><line x1="1666.048125" y1="0" x2="1666.048125" y2="377" fill="rgb(0, 0, 0)" stroke="rgb(66, 66, 66)" stroke-width="1px" opacity="0.25"></line></g><g><line x1="0" y1="315.98306359051327" x2="1666.048125" y2="315.98306359051327" fill="rgb(0, 0, 0)" stroke="rgb(66, 66, 66)" stroke-width="1px" opacity="0.25"></line><line x1="0" y1="248.61815026546932" x2="1666.048125" y2="248.61815026546932" fill="rgb(0, 0, 0)" stroke="rgb(66, 66, 66)" stroke-width="1px" opacity="0.25"></line><line x1="0" y1="193.57700837104204" x2="1666.048125" y2="193.57700837104204" fill="rgb(0, 0, 0)" stroke="rgb(66, 66, 66)" stroke-width="1px" opacity="0.25"></line><line x1="0" y1="147.04038598423782" x2="1666.048125" y2="147.04038598423782" fill="rgb(0, 0, 0)" stroke="rgb(66, 66, 66)" stroke-width="1px" opacity="0.25"></line><line x1="0" y1="106.72853006303755" x2="1666.048125" y2="106.72853006303755" fill="rgb(0, 0, 0)" stroke="rgb(66, 66, 66)" stroke-width="1px" opacity="0.25"></line><line x1="0" y1="71.17095315157088" x2="1666.048125" y2="71.17095315157088" fill="rgb(0, 0, 0)" stroke="rgb(66, 66, 66)" stroke-width="1px" opacity="0.25"></line><line x1="0" y1="39.363616737993624" x2="1666.048125" y2="39.363616737993624" fill="rgb(0, 0, 0)" stroke="rgb(66, 66, 66)" stroke-width="1px" opacity="0.25"></line></g></g></g><g><g><line x1="151.45892045454545" y1="0" x2="151.45892045454545" y2="377" fill="rgb(0, 0, 0)" stroke="rgb(153, 153, 153)" stroke-width="1.5px"></line></g></g><g><g><g><g><g><path stroke="rgb(255, 112, 67)" stroke-width="2px" d="M154.06401388636365,323.14285714285717L155.15451811363636,278.33627088208556L155.3817064943182,248.61815026546932L157.5475690568182,258.2027799693011L158.5017602556818,248.61815026546932L159.1833253977273,213.06057335400263L159.88003643181818,188.89644208974306L161.42491742045456,268.1017152484299L163.6362176590909,159.420317861078L166.99860569318182,204.78908394502366L167.16521050568184,213.06057335400263L168.60407025,132.56791880812693L169.39165663636365,152.4800012197486L170.7093492443182,159.420317861078L172.92064948295453,173.7987723272984L173.54163105681818,166.5239509671984L174.08688317045454,221.5650928616257L174.32921744318182,145.69566002895868L174.9047613409091,166.5239509671984L175.16224150568183,196.7381940912049L180.84195102272727,159.420317861078L181.14486886363636,145.69566002895868L188.3543134772727,139.0604373780264L188.43004293750002,152.4800012197486L188.74810667045455,139.0604373780264L189.3690882443182,113.88832361538147L190.48988425568183,119.98732858039413L192.11049470454546,152.4800012197486L192.24680773295455,181.25323694042538L192.47399611363636,119.98732858039413L192.61030914204545,126.21209504599814L193.38274963636363,119.98732858039413L198.15370563068183,126.21209504599814L198.48691525568182,173.7987723272984L199.0927509375,166.5239509671984L200.54675657386363,139.0604373780264L200.91025798295456,119.98732858039413L202.28853415909091,126.21209504599814L204.46954261363638,139.0604373780264L205.46917148863636,113.88832361538147L205.98413181818182,139.0604373780264L206.2264660909091,132.56791880812693L206.80200998863637,152.4800012197486L207.0140524772727,113.88832361538147L207.05949015340912,166.5239509671984L209.74031304545454,113.88832361538147L210.7550878125,159.420317861078L212.39084415340906,166.5239509671984L213.69339086931816,132.56791880812693L213.87514157386366,113.88832361538147L214.78389509659092,159.420317861078L214.9504999090909,126.21209504599814L215.48060613068182,159.420317861078L216.8588823068182,119.98732858039413L217.01034122727273,126.21209504599814L220.58477175,119.98732858039413L224.64387081818182,113.88832361538147L228.5515109659091,119.98732858039413L229.248222,113.88832361538147L230.02066249431817,107.91009899917073L230.2175590909091,132.56791880812693L231.15660439772725,119.98732858039413L231.6564188352273,96.29749510073901L232.67119360227272,145.69566002895868L234.06461567045454,85.11508789470469L237.2906906761364,139.0604373780264L239.78976286363638,152.4800012197486L240.30472319318181,119.98732858039413L240.50161978977275,113.88832361538147L242.0465007784091,113.88832361538147L242.28883505113637,132.56791880812693L243.13700500568183,173.7987723272984L244.42440582954544,85.11508789470469L245.7420984375,139.0604373780264L246.55997660795455,126.21209504599814L247.39300067045454,126.21209504599814L247.92310689204547,173.7987723272984L250.95228530113636,107.91009899917073L253.39077392045454,139.0604373780264L253.69369176136365,126.21209504599814L255.20828096590907,126.21209504599814L256.2533475170454,119.98732858039413L257.34385174431816,113.88832361538147L258.2980429431818,126.21209504599814L261.3120754602273,173.7987723272984L264.0837737045455,102.04796378173853L264.50785868181816,107.91009899917073L265.7043841534091,107.91009899917073L267.23411925,145.69566002895868L268.4912282897728,107.91009899917073L268.5366659659091,102.04796378173853L268.9304591590909,107.91009899917073L269.5060030568182,139.0604373780264L272.41401432954547,113.88832361538147L274.4738556477273,173.7987723272984L277.0335114034091,113.88832361538147L280.9260056590909,113.88832361538147L281.01688101136364,102.04796378173853L281.98621810227274,119.98732858039413L282.60719967613636,113.88832361538147L283.1373058977273,139.0604373780264L283.5916826590909,113.88832361538147L284.01576763636365,85.11508789470469L284.3792690454545,145.69566002895868L284.40956082954546,107.91009899917073L285.0911259715909,119.98732858039413L285.2425848920455,102.04796378173853L285.90900414204543,79.67547265919389L288.65041060227276,113.88832361538147L290.0741244545455,79.67547265919389L291.5887136590909,113.88832361538147L292.17940344886364,126.21209504599814L292.7246555625,102.04796378173853L293.20932410795456,102.04796378173853L296.0567518125,102.04796378173853L298.55582400000003,119.98732858039413L299.17680557386365,159.420317861078L299.1919514659091,102.04796378173853L300.4490605056818,113.88832361538147L300.9034372670455,119.98732858039413L301.31237635227274,132.56791880812693L301.6607318693182,107.91009899917073L302.1454004147727,119.98732858039413L302.50890182386365,119.98732858039413L302.59977717613634,90.6545181345314L303.87203210795457,132.56791880812693L304.2809711931818,145.69566002895868L304.7504938465909,96.29749510073901L305.8107062897727,145.69566002895868L308.0977359886364,126.21209504599814L308.9004682670455,102.04796378173853L309.6577628693182,102.04796378173853L309.8546594659091,113.88832361538147L310.50593282386365,119.98732858039413L310.7634129886364,107.91009899917073L311.4146863465909,132.56791880812693L312.6566494943182,113.88832361538147L312.68694127840905,90.6545181345314L313.6259865852273,96.29749510073901L313.88346675,113.88832361538147L318.41208847159095,90.6545181345314L318.6089850681818,132.56791880812693L319.4874468068182,126.21209504599814L319.85094821590906,132.56791880812693L321.36553742045453,90.6545181345314L323.07702322159093,85.11508789470469L324.03121442045455,102.04796378173853L330.46821853977275,113.88832361538147L331.19522135795455,132.56791880812693L333.61856408522726,119.98732858039413L334.36071279545456,107.91009899917073L337.9957268863636,113.88832361538147L338.5712707840909,145.69566002895868L339.2376900340909,119.98732858039413L339.26798181818185,119.98732858039413L340.41906961363634,79.67547265919389L342.3123061193182,119.98732858039413L343.93291656818184,126.21209504599814L346.85607373295454,96.29749510073901L346.91665730113635,113.88832361538147L347.5073470909091,79.67547265919389L352.95986822727275,113.88832361538147L354.2321231590909,113.88832361538147L354.6864999204546,119.98732858039413L356.2616726931818,139.0604373780264L356.68575767045456,102.04796378173853L357.79140778977273,102.04796378173853L358.07917973863636,152.4800012197486L358.1549091988636,139.0604373780264L360.50252246590907,107.91009899917073L361.21437939204543,69.08173735460987L363.0621782215909,113.88832361538147L363.19849125,96.29749510073901L364.198120125,107.91009899917073L366.34883679545453,102.04796378173853L366.6214628522727,102.04796378173853L367.51507048295457,96.29749510073901L368.86305487500005,102.04796378173853L368.9690761193182,126.21209504599814L372.9372998352273,113.88832361538147L373.2705094602273,102.04796378173853L374.78509866477276,107.91009899917073L376.3905632215909,113.88832361538147L376.58745981818186,126.21209504599814L378.93507308522726,126.21209504599814L379.6317841193182,119.98732858039413L379.7075135795455,79.67547265919389L380.52539175,79.67547265919389L381.4492911647728,119.98732858039413L384.2664270852273,96.29749510073901L386.0687882386364,102.04796378173853L387.8862952840909,119.98732858039413L388.3103802613636,96.29749510073901L394.94428097727274,79.67547265919389L397.44335316477276,107.91009899917073L398.53385739204543,139.0604373780264L399.7303828636364,113.88832361538147L400.2604890852273,96.29749510073901L406.4248671477273,119.98732858039413L406.90953569318185,102.04796378173853L407.12157818181817,85.11508789470469L407.1670158579546,119.98732858039413L407.53051726704547,139.0604373780264L408.13635294886365,113.88832361538147L410.7565922727273,96.29749510073901L410.84746762500004,107.91009899917073L410.8626135170455,85.11508789470469L412.92245483522726,90.6545181345314L414.90656669318184,113.88832361538147L417.4662224488637,159.420317861078L418.511289,113.88832361538147L419.4957719829545,113.88832361538147L420.0107323125,159.420317861078L424.16070673295457,79.67547265919389L425.9176302102273,119.98732858039413L426.03879734659097,90.6545181345314L426.0993809147727,107.91009899917073L426.15996448295454,79.67547265919389L430.2190635511364,107.91009899917073L431.37015134659094,145.69566002895868L435.58070933522725,113.88832361538147L435.6715846875,102.04796378173853L435.8987730681818,139.0604373780264L436.1259614488636,107.91009899917073L437.7768636818182,107.91009899917073L440.88177155113635,102.04796378173853L440.9423551193182,107.91009899917073L442.3963607556818,126.21209504599814L444.0624088806818,102.04796378173853L444.94087061931816,119.98732858039413L446.81896123295456,96.29749510073901L447.500526375,90.6545181345314L448.5758847102273,139.0604373780264L451.9685645284091,119.98732858039413L453.19538178409096,113.88832361538147L454.3616154715909,113.88832361538147L461.84368614204544,107.91009899917073L463.13108696590905,126.21209504599814L463.7369226477273,107.91009899917073L464.161007625,113.88832361538147L464.4336336818182,102.04796378173853L464.4639254659091,102.04796378173853L465.8876393181818,69.08173735460987L467.11445657386366,96.29749510073901L469.0379848636364,79.67547265919389L469.2045896761364,96.29749510073901L469.5226534090909,102.04796378173853L470.06790552272724,107.91009899917073L470.31023979545455,107.91009899917073L471.47647348295453,69.08173735460987L473.56660658522725,113.88832361538147L474.23302583522724,107.91009899917073L479.7612764318182,113.88832361538147L479.7915682159091,107.91009899917073L485.6227366534091,113.88832361538147L487.1221799659091,90.6545181345314L489.31833431250004,126.21209504599814L490.4239844318182,90.6545181345314L495.30096167045457,126.21209504599814L496.1188398409091,79.67547265919389L500.8897958352273,126.21209504599814L501.4199020568182,90.6545181345314L504.812581875,126.21209504599814L505.9636696704545,107.91009899917073L505.9788155625001,85.11508789470469L507.3873835227273,113.88832361538147L508.7353679147727,102.04796378173853L520.6854767386363,107.91009899917073L522.0637529147727,113.88832361538147L522.1243364829546,96.29749510073901L522.4121084318182,139.0604373780264L525.6230375454546,126.21209504599814L525.8350800340909,119.98732858039413L526.4409157159091,74.33213887173368L527.5011281590909,107.91009899917073L527.7283165397728,102.04796378173853L528.2129850852273,126.21209504599814L528.3190063295455,113.88832361538147L529.1671762840909,107.91009899917073L529.9699085625,107.91009899917073L530.9089538693182,119.98732858039413L531.8025615,96.29749510073901L533.8775487102273,96.29749510073901L536.8309976590908,107.91009899917073L539.9359055284091,107.91009899917073L540.7537836988637,132.56791880812693L540.9052426193182,113.88832361538147L540.9355344034091,96.29749510073901L541.5716618693182,107.91009899917073L543.9950045965909,113.88832361538147L544.1767553011364,113.88832361538147L547.5694351193182,107.91009899917073L549.2354832443182,107.91009899917073L549.8413189261364,132.56791880812693L550.9621149375,119.98732858039413L551.6285341875,107.91009899917073L555.0363598977273,113.88832361538147L555.7482168238637,96.29749510073901L557.6111615454546,102.04796378173853L559.9436289204546,79.67547265919389L560.6100481704545,113.88832361538147L560.8372365511364,102.04796378173853L561.9731784545454,107.91009899917073L565.0629404318182,107.91009899917073L567.2742406704546,107.91009899917073L568.2890154375,74.33213887173368L569.8793341022728,90.6545181345314L570.2579814034091,96.29749510073901L572.3935521818182,102.04796378173853L573.0145337556819,119.98732858039413L573.9384331704546,85.11508789470469L575.6347730795455,96.29749510073901L576.2254628693182,102.04796378173853L577.0887787159091,90.6545181345314L582.3898409318182,90.6545181345314L584.8586213352273,107.91009899917073L587.5697360113636,113.88832361538147L588.478489534091,102.04796378173853L588.9025745113637,107.91009899917073L590.2657047954546,90.6545181345314L590.4474555,96.29749510073901L594.6125758125,96.29749510073901L595.3850163068182,79.67547265919389L597.2176692443182,102.04796378173853L598.1112768749999,139.0604373780264L599.2472187784091,113.88832361538147L600.080242840909,96.29749510073901L600.3225771136364,102.04796378173853L600.8526833352273,126.21209504599814L600.9435586875001,119.98732858039413L602.5641691363636,126.21209504599814L603.2760260625,85.11508789470469L603.5335062272727,96.29749510073901L603.9272994204546,85.11508789470469L605.441888625,126.21209504599814L606.6687058806818,90.6545181345314L606.8504565852272,85.11508789470469L607.0473531818183,102.04796378173853L610.3794494318182,113.88832361538147L610.8792638693182,69.08173735460987L616.4832439261363,102.04796378173853L619.3458175227273,96.29749510073901L619.7547566079545,107.91009899917073L620.3605922897727,102.04796378173853L620.4817594261364,113.88832361538147L621.072449215909,90.6545181345314L624.6771715227272,113.88832361538147L625.7373839659091,107.91009899917073L626.6764292727273,119.98732858039413L627.1913896022727,96.29749510073901L628.0849972329546,85.11508789470469L630.1751303352273,96.29749510073901L630.9778626136364,79.67547265919389L631.5836982954546,139.0604373780264L634.6431684886363,107.91009899917073L634.8855027613637,113.88832361538147L635.4156089829546,79.67547265919389L635.7639645,119.98732858039413L636.3395083977273,74.33213887173368L643.8064331761364,90.6545181345314L644.7454784829546,96.29749510073901L648.4107843579545,74.33213887173368L648.6076809545455,85.11508789470469L648.622826846591,107.91009899917073L649.7890605340909,132.56791880812693L650.758397625,85.11508789470469L651.4551086590909,85.11508789470469L655.4990618352273,126.21209504599814L657.4528819090909,90.6545181345314L657.7255079659091,126.21209504599814L661.890628278409,107.91009899917073L663.4355092670454,90.6545181345314L664.3594086818182,74.33213887173368L664.3897004659091,74.33213887173368L664.6926183068182,96.29749510073901L666.7373137329546,79.67547265919389L668.0398604488636,107.91009899917073L673.4469439090909,96.29749510073901L673.9770501306818,85.11508789470469L675.8551407443182,107.91009899917073L680.5200754943182,139.0604373780264L680.7927015511364,102.04796378173853L680.8229933352272,119.98732858039413L681.0653276079546,85.11508789470469L683.6855669318182,113.88832361538147L684.8518006193182,102.04796378173853L687.275143346591,96.29749510073901L688.5928359545454,85.11508789470469L688.7897325511365,79.67547265919389L689.9105285625001,69.08173735460987L690.3346135397728,102.04796378173853L691.1827834943182,102.04796378173853L692.2278500454545,85.11508789470469L694.8026516931818,113.88832361538147L695.3933414829546,107.91009899917073L695.9234477045455,90.6545181345314L696.8322012272727,74.33213887173368L704.2991260056818,79.67547265919389L705.9803200227273,96.29749510073901L706.2680919715909,113.88832361538147L707.1011160340909,96.29749510073901L707.2222831704546,85.11508789470469L710.1302944431818,96.29749510073901L710.1605862272727,96.29749510073901L710.2060239034091,119.98732858039413L710.3877746079546,96.29749510073901L710.5998170965909,74.33213887173368L711.7963425681818,107.91009899917073L712.8414091193182,107.91009899917073L713.0534516079546,79.67547265919389L713.6138496136364,126.21209504599814L714.6134784886364,79.67547265919389L719.399580375,79.67547265919389L721.6563182897728,102.04796378173853L722.065257375,119.98732858039413L723.2011992784091,79.67547265919389L724.0948069090908,96.29749510073901L726.0486269829546,119.98732858039413L732.8491325113636,90.6545181345314L732.8642784034091,96.29749510073901L733.1823421363637,96.29749510073901L734.3788676079545,113.88832361538147L734.8483902613636,96.29749510073901L735.5299554034091,79.67547265919389L739.1952612784091,119.98732858039413L739.7102216079546,85.11508789470469L740.3312031818182,74.33213887173368L740.6038292386363,85.11508789470469L742.5273575284091,90.6545181345314L745.7534325340908,79.67547265919389L749.3733007329545,96.29749510073901L750.4940967443182,102.04796378173853L751.05449475,90.6545181345314L752.9325853636363,107.91009899917073L757.748979034091,69.08173735460987L758.9606503977272,132.56791880812693L759.9299874886364,113.88832361538147L760.8690327954546,85.11508789470469L761.0659293920454,85.11508789470469L761.6111815056818,119.98732858039413L762.2321630795454,102.04796378173853L762.3230384318182,107.91009899917073L763.5952933636364,90.6545181345314L765.2007579204545,96.29749510073901L765.4733839772728,107.91009899917073L766.2761162556818,85.11508789470469L766.6396176647727,85.11508789470469L769.3052946647728,96.29749510073901L769.4264618011364,102.04796378173853L770.1534646193182,126.21209504599814L771.5620325795455,96.29749510073901L773.0917676761364,96.29749510073901L773.5007067613636,102.04796378173853L773.5461444375,96.29749510073901L773.6067280056818,102.04796378173853L776.8479489034091,113.88832361538147L778.1050579431818,79.67547265919389L779.6045012556818,69.08173735460987L780.5586924545455,85.11508789470469L780.6344219147727,69.08173735460987L781.0130692159091,107.91009899917073L782.3459077159091,79.67547265919389L784.1331229772727,79.67547265919389L786.2535478636364,90.6545181345314L787.1017178181819,79.67547265919389L787.7681370681818,102.04796378173853L789.373601625,102.04796378173853L789.5250605454545,63.92109069998856L789.5704982215909,107.91009899917073L794.5686425965908,74.33213887173368L795.6894386079546,107.91009899917073L800.5361240625,74.33213887173368L800.7481665511364,113.88832361538147L801.2176892045454,113.88832361538147L801.9901296988637,90.6545181345314L804.8224115113636,96.29749510073901L806.2309794715909,102.04796378173853L806.2764171477273,85.11508789470469L807.2154624545454,96.29749510073901L811.1231026022728,90.6545181345314L811.9864184488637,102.04796378173853L814.5006365284091,74.33213887173368L816.0606634090909,90.6545181345314L820.6044310227273,96.29749510073901L821.7403729261364,90.6545181345314L822.1644579034091,85.11508789470469L823.1640867784091,74.33213887173368L823.3761292670455,107.91009899917073L824.8907184715908,107.91009899917073L825.0270315,102.04796378173853L825.2087822045455,90.6545181345314L825.7843261022728,74.33213887173368L827.3292070909091,85.11508789470469L828.6468996988636,102.04796378173853L828.8437962954546,119.98732858039413L828.9346716477273,79.67547265919389L829.4041943011364,126.21209504599814L832.660561090909,96.29749510073901L833.2361049886364,85.11508789470469L833.7056276420454,102.04796378173853L838.8552309375,79.67547265919389L839.4913584034091,102.04796378173853L841.051385284091,126.21209504599814L841.6723668579547,79.67547265919389L844.4895027784091,96.29749510073901L852.3199289659091,79.67547265919389L855.6217334318181,96.29749510073901L855.8034841363636,102.04796378173853L857.4089486931819,102.04796378173853L859.1052886022728,113.88832361538147L861.4074641931818,90.6545181345314L861.6497984659092,85.11508789470469L861.9527163068182,102.04796378173853L863.5733267556818,107.91009899917073L864.0125576249999,90.6545181345314L864.2700377897728,102.04796378173853L864.3306213579546,119.98732858039413L864.5729556306818,107.91009899917073L865.0121865,102.04796378173853L865.7240434261364,102.04796378173853L866.0118153750001,90.6545181345314L867.9201977727274,96.29749510073901L868.5866170227273,79.67547265919389L870.2678110397727,119.98732858039413L871.5855036477274,74.33213887173368L872.5699866306819,63.92109069998856L872.782029119318,96.29749510073901L875.0842047102274,139.0604373780264L878.4465927443182,113.88832361538147L881.3243122329545,96.29749510073901L881.4606252613636,102.04796378173853L882.2027739715909,85.11508789470469L884.2929070738637,107.91009899917073L886.1861435795454,63.92109069998856L888.0793800852274,85.11508789470469L889.0032795,85.11508789470469L889.3213432329545,96.29749510073901L891.2297256306819,96.29749510073901L895.0161986420454,113.88832361538147L896.1067028693182,85.11508789470469L896.6519549829545,90.6545181345314L897.66672975,96.29749510073901L898.3634407840909,90.6545181345314L899.0752977102272,102.04796378173853L900.9230965397728,102.04796378173853L901.5895157897727,166.5239509671984L904.0734420852273,69.08173735460987L904.2400468977272,107.91009899917073L904.9973415000001,90.6545181345314L906.527076596591,90.6545181345314L906.6936814090909,102.04796378173853L908.1628329375001,96.29749510073901L908.3748754261364,90.6545181345314L908.9049816477273,79.67547265919389L912.7066005511364,85.11508789470469L913.6304999659092,102.04796378173853L916.4021982102272,90.6545181345314L917.8107661704546,90.6545181345314L917.8864956306819,74.33213887173368L918.4317477443183,102.04796378173853L919.3102094829546,79.67547265919389L920.1432335454544,119.98732858039413L920.2795465738636,96.29749510073901L921.1580083124999,113.88832361538147L922.3696796761365,63.92109069998856L925.323128625,107.91009899917073L930.98769225,85.11508789470469L932.9869500000001,132.56791880812693L935.9706907329546,85.11508789470469L937.9850943749999,113.88832361538147L938.0759697272728,107.91009899917073L938.2880122159091,145.69566002895868L938.6060759488636,107.91009899917073L939.2422034147728,74.33213887173368L942.5137160965909,90.6545181345314L943.0286764261364,85.11508789470469L944.3766608181818,96.29749510073901L944.5584115227273,119.98732858039413L945.0885177443183,113.88832361538147L947.2089426306818,102.04796378173853L947.3301097670455,102.04796378173853L948.7538236193183,79.67547265919389L949.1324709204547,63.92109069998856L953.6913844261363,102.04796378173853L955.4331620113636,90.6545181345314L958.0382554431819,74.33213887173368L963.6270896079545,96.29749510073901L966.4593714204545,90.6545181345314L969.0644648522726,74.33213887173368L969.9580724829545,85.11508789470469L971.5635370397728,53.857142857142875L976.273909465909,113.88832361538147L978.2428754318181,74.33213887173368L978.3034590000001,119.98732858039413L978.500355596591,102.04796378173853L980.9388442159091,85.11508789470469L985.4674659375,119.98732858039413L985.6795084261365,85.11508789470469L986.30049,85.11508789470469L986.7245749772728,85.11508789470469L986.8608880056819,69.08173735460987L988.436060778409,102.04796378173853L990.0415253352272,90.6545181345314L992.0407830852272,107.91009899917073L993.3130380170455,85.11508789470469L993.3584756931818,85.11508789470469L993.6765394261363,96.29749510073901L994.0097490511363,90.6545181345314L995.3577334431818,119.98732858039413L997.6599090340909,74.33213887173368L999.3562489431818,102.04796378173853L999.7954798124999,90.6545181345314L1001.62813275,90.6545181345314L1002.1733848636363,74.33213887173368L1002.8095123295456,90.6545181345314L1004.0363295852273,90.6545181345314L1006.8534655056819,96.29749510073901L1006.9140490738637,90.6545181345314L1007.0049244261363,113.88832361538147L1011.1548988465909,96.29749510073901L1011.6092756079546,96.29749510073901L1011.6395673920455,90.6545181345314L1013.7448463863636,74.33213887173368L1014.1537854715909,79.67547265919389L1015.7743959204545,85.11508789470469L1019.3336805511365,90.6545181345314L1021.0148745681818,96.29749510073901L1021.6055643579546,85.11508789470469L1023.6351138920454,63.92109069998856L1026.6037087329546,96.29749510073901L1026.7703135454547,96.29749510073901L1028.3757781022728,85.11508789470469L1029.0724891363636,119.98732858039413L1029.4056987613635,85.11508789470469L1029.5874494659092,69.08173735460987L1032.4954607386362,90.6545181345314L1035.479201471591,102.04796378173853L1035.9335782329545,85.11508789470469L1036.0547453693182,119.98732858039413L1036.6908728352273,85.11508789470469L1039.2353826988635,79.67547265919389L1039.8412183806818,79.67547265919389L1040.977160284091,107.91009899917073L1041.5224123977273,69.08173735460987L1043.0218557102273,126.21209504599814L1045.9298669829545,79.67547265919389L1050.2161544318183,74.33213887173368L1052.4123087784092,96.29749510073901L1053.4422294375,96.29749510073901L1053.4725212215908,107.91009899917073L1059.7883582045456,79.67547265919389L1060.2275890738638,96.29749510073901L1062.9235578579544,69.08173735460987L1064.4532929545453,69.08173735460987L1066.740322653409,132.56791880812693L1074.7222077613635,96.29749510073901L1078.0543040113637,85.11508789470469L1078.6752855852274,90.6545181345314L1081.2046495568184,102.04796378173853L1081.3864002613636,113.88832361538147L1085.354623977273,69.08173735460987L1086.3391069602274,107.91009899917073L1086.596587125,119.98732858039413L1089.0502216363636,58.84718172095417L1089.0805134204545,90.6545181345314L1089.6106196420453,90.6545181345314L1090.0347046193183,69.08173735460987L1090.3527683522727,90.6545181345314L1091.2918136590908,69.08173735460987L1091.731044528409,79.67547265919389L1095.7144141363638,96.29749510073901L1096.3505416022726,119.98732858039413L1098.9556350340908,139.0604373780264L1098.985926818182,102.04796378173853L1101.0003304602271,79.67547265919389L1102.9238587500001,53.857142857142875L1105.1654507727274,79.67547265919389L1106.7254776534091,96.29749510073901L1107.9220031250002,74.33213887173368L1108.0886079375,107.91009899917073L1109.4063005454545,102.04796378173853L1114.252986,90.6545181345314L1115.0708641704546,85.11508789470469L1116.055347153409,74.33213887173368L1119.357151619318,102.04796378173853L1122.1742875397726,107.91009899917073L1122.7346855454546,107.91009899917073L1128.3538114943183,79.67547265919389L1129.8532548068183,90.6545181345314L1130.3227774602274,79.67547265919389L1134.3364388522727,102.04796378173853L1134.8513991818184,79.67547265919389L1140.8643183238637,107.91009899917073L1141.57617525,74.33213887173368L1142.2577403920454,74.33213887173368L1142.6818253693182,96.29749510073901L1142.7272630454545,96.29749510073901L1144.3933111704546,96.29749510073901L1146.301693568182,96.29749510073901L1146.877237465909,69.08173735460987L1147.346760119318,102.04796378173853L1148.6795986193183,74.33213887173368L1148.937078784091,63.92109069998856L1150.0730206875,96.29749510073901L1150.4213762045456,96.29749510073901L1150.8908988579547,74.33213887173368L1152.799281255682,85.11508789470469L1154.268432784091,74.33213887173368L1154.571350625,102.04796378173853L1154.7833931136363,79.67547265919389L1155.5103959318183,90.6545181345314L1158.797054505682,132.56791880812693L1160.6751451193181,96.29749510073901L1160.9629170681817,96.29749510073901L1161.1446677727272,85.11508789470469L1161.3870020454547,102.04796378173853L1161.6444822102271,63.92109069998856L1162.2806096761365,107.91009899917073L1162.3260473522728,126.21209504599814L1162.90159125,79.67547265919389L1167.596817784091,74.33213887173368L1169.8232639147727,69.08173735460987L1170.4896831647727,79.67547265919389L1172.0800018295454,79.67547265919389L1173.9732383352273,85.11508789470469L1174.1549890397728,119.98732858039413L1178.8653614659092,79.67547265919389L1179.2591546590909,113.88832361538147L1179.8346985568182,96.29749510073901L1181.288704193182,79.67547265919389L1182.424646096591,90.6545181345314L1184.22700725,85.11508789470469L1186.0899519715908,96.29749510073901L1186.9532678181818,79.67547265919389L1188.0134802613636,69.08173735460987L1188.286106318182,90.6545181345314L1190.2702181761363,79.67547265919389L1190.754886721591,74.33213887173368L1190.8154702897727,107.91009899917073L1191.4364518636364,85.11508789470469L1193.890086375,102.04796378173853L1194.0566911875,69.08173735460987L1197.5251004659092,85.11508789470469L1197.6008299261364,107.91009899917073L1200.0696103295454,102.04796378173853L1201.614491318182,102.04796378173853L1202.9927674943183,90.6545181345314L1203.4925819318182,90.6545181345314L1204.5376484829546,90.6545181345314L1206.2188425,69.08173735460987L1206.748948721591,74.33213887173368L1208.414996846591,102.04796378173853L1208.9753948522728,63.92109069998856L1214.6248125852273,79.67547265919389L1216.8058210397728,85.11508789470469L1217.1238847727273,102.04796378173853L1220.577148159091,85.11508789470469L1220.6528776193184,74.33213887173368L1221.3192968693181,90.6545181345314L1221.516193465909,119.98732858039413L1222.8944696420456,79.67547265919389L1224.9240191761364,79.67547265919389L1226.075106971591,85.11508789470469L1226.1811282159092,74.33213887173368L1227.014152278409,79.67547265919389L1228.0440729375,90.6545181345314L1229.2254525170454,85.11508789470469L1229.937309443182,74.33213887173368L1230.1947896079546,85.11508789470469L1230.6946040454545,102.04796378173853L1232.20919325,69.08173735460987L1237.3285047613635,96.29749510073901L1238.4493007727272,63.92109069998856L1239.1157200227274,58.84718172095417L1239.4337837556818,102.04796378173853L1240.6757469034092,90.6545181345314L1240.7969140397727,63.92109069998856L1243.508028715909,74.33213887173368L1246.3403105284092,90.6545181345314L1250.2933883522728,79.67547265919389L1250.8234945738636,85.11508789470469L1251.3536007954547,107.91009899917073L1251.7473939886363,90.6545181345314L1258.9871303863636,113.88832361538147L1260.19880175,126.21209504599814L1260.7743456477272,113.88832361538147L1263.9701288693182,96.29749510073901L1264.560818659091,96.29749510073901L1265.6664687784091,85.11508789470469L1267.4991217159093,85.11508789470469L1269.8012973068182,126.21209504599814L1270.5131542329545,58.84718172095417L1270.9675309943182,85.11508789470469L1271.0735522386362,113.88832361538147L1271.391615971591,102.04796378173853L1272.7698921477274,79.67547265919389L1272.8001839318183,90.6545181345314L1274.5268156250002,74.33213887173368L1275.162943090909,90.6545181345314L1276.8895747840909,102.04796378173853L1278.495039340909,79.67547265919389L1279.5552517840908,96.29749510073901L1281.2515916931818,79.67547265919389L1283.1296823068183,69.08173735460987L1283.7052262045454,96.29749510073901L1284.9017516761364,96.29749510073901L1285.2349613011363,74.33213887173368L1287.4765533238638,79.67547265919389L1288.8699753920455,102.04796378173853L1289.0668719886364,102.04796378173853L1289.6121241022727,119.98732858039413L1290.187668,126.21209504599814L1290.5057317329547,85.11508789470469L1292.9896580284092,96.29749510073901L1294.0953081477273,96.29749510073901L1294.9283322102274,96.29749510073901L1295.9582528693181,107.91009899917073L1296.6701097954547,145.69566002895868L1297.7757599147728,69.08173735460987L1300.820084215909,107.91009899917073L1301.9408802272726,102.04796378173853L1302.622445369318,113.88832361538147L1305.8485203750001,90.6545181345314L1305.8636662670456,90.6545181345314L1307.181358875,96.29749510073901L1309.9227653352273,90.6545181345314L1310.5891845852273,113.88832361538147L1311.4373545397727,85.11508789470469L1314.5574083011363,69.08173735460987L1316.7384167556818,102.04796378173853L1317.874358659091,96.29749510073901L1317.9803799034091,90.6545181345314L1318.1772765,74.33213887173368L1319.8887623011365,79.67547265919389L1325.3564293295456,96.29749510073901L1326.0985780397727,79.67547265919389L1326.1440157159093,85.11508789470469L1326.9164562102274,119.98732858039413L1329.9001969431818,63.92109069998856L1332.0812053977272,79.67547265919389L1333.4291897897726,159.420317861078L1333.7472535227273,107.91009899917073L1334.1864843920455,96.29749510073901L1335.0195084545453,79.67547265919389L1335.6556359204546,79.67547265919389L1336.3069092784092,53.857142857142875L1337.0036203125,90.6545181345314L1337.8214984829547,96.29749510073901L1338.1244163238637,107.91009899917073L1338.169854,69.08173735460987L1339.2452123352273,96.29749510073901L1339.4269630397728,85.11508789470469L1340.6689261875,85.11508789470469L1340.7143638636364,96.29749510073901L1341.7745763068183,74.33213887173368L1342.501579125,107.91009899917073L1344.1221895738638,90.6545181345314L1344.2736484943182,132.56791880812693L1347.0453467386365,90.6545181345314L1348.8931455681818,79.67547265919389L1350.2259840681818,96.29749510073901L1350.2411299602275,74.33213887173368L1350.6803608295454,74.33213887173368L1351.4679472159091,69.08173735460987L1356.3752162386363,85.11508789470469L1356.7235717556819,74.33213887173368L1361.0855886647728,79.67547265919389L1361.9943421875,79.67547265919389L1366.9016112102274,79.67547265919389L1367.5074468920454,69.08173735460987L1370.2942910284091,85.11508789470469L1370.5972088693181,79.67547265919389L1371.3847952556819,90.6545181345314L1380.4268928068182,96.29749510073901L1383.0471321306818,79.67547265919389L1383.1985910511364,102.04796378173853L1383.849864409091,113.88832361538147L1383.8650103011364,107.91009899917073L1384.8949309602272,58.84718172095417L1386.2277694602274,79.67547265919389L1387.5908997443182,85.11508789470469L1389.1963643011363,90.6545181345314L1392.0589378977274,74.33213887173368L1395.1335539829545,102.04796378173853L1397.2236870852273,102.04796378173853L1400.7223881477273,85.11508789470469L1401.8583300511364,85.11508789470469L1404.1453597500001,96.29749510073901L1404.7511954318181,102.04796378173853L1407.810665625,107.91009899917073L1410.839844034091,74.33213887173368L1411.1276159829547,58.84718172095417L1411.2336372272728,74.33213887173368L1413.47522925,85.11508789470469L1418.3976441647728,85.11508789470469L1420.6089444034092,69.08173735460987L1420.669527971591,96.29749510073901L1422.0932418238635,69.08173735460987L1422.2598466363636,126.21209504599814L1422.9111199943181,63.92109069998856L1423.2594755113637,107.91009899917073L1423.5472474602273,119.98732858039413L1424.3045420625,85.11508789470469L1427.9698479375,107.91009899917073L1429.6813337386363,102.04796378173853L1430.5749413693184,96.29749510073901L1430.6809626136362,69.08173735460987L1431.7866127329546,69.08173735460987L1433.1800348011363,85.11508789470469L1433.3012019374999,74.33213887173368L1433.5586821022728,69.08173735460987L1436.163775534091,96.29749510073901L1436.3152344545456,102.04796378173853L1436.7090276477272,119.98732858039413L1438.6779936136363,79.67547265919389L1439.3141210795457,126.21209504599814L1440.7832726079546,113.88832361538147L1441.3588165056817,96.29749510073901L1441.8434850511364,113.88832361538147L1442.9491351704546,69.08173735460987L1445.2210189772727,107.91009899917073L1445.6451039545454,79.67547265919389L1447.129401375,79.67547265919389L1447.6897993806817,107.91009899917073L1448.0230090056818,69.08173735460987L1449.2195344772726,90.6545181345314L1450.7341236818183,107.91009899917073L1450.8855826022727,79.67547265919389L1451.8852114772728,96.29749510073901L1453.1423205170456,107.91009899917073L1457.3680243977271,74.33213887173368L1460.0034096136364,107.91009899917073L1460.094284965909,79.67547265919389L1460.3820569147729,119.98732858039413L1462.9720044545456,85.11508789470469L1463.7747367329546,96.29749510073901L1463.9716333295455,85.11508789470469L1464.1685299261362,85.11508789470469L1464.8500950681819,74.33213887173368L1467.1371247670454,74.33213887173368L1467.5460638522727,85.11508789470469L1468.2276289943181,113.88832361538147L1470.3026162045455,90.6545181345314L1471.7263300568181,107.91009899917073L1474.013359755682,85.11508789470469L1474.2859858125,96.29749510073901L1477.8604163352275,102.04796378173853L1479.5719021363636,96.29749510073901L1481.1319290170454,85.11508789470469L1481.1622208011365,113.88832361538147L1481.1773666931817,107.91009899917073L1482.9191442784092,85.11508789470469L1483.0706031988636,74.33213887173368L1485.7665719829545,90.6545181345314L1487.6901002727275,69.08173735460987L1489.0380846647727,90.6545181345314L1492.3550350227272,69.08173735460987L1492.7336823238636,85.11508789470469L1496.8988026363638,90.6545181345314L1504.9261254204546,85.11508789470469L1506.1983803522728,90.6545181345314L1509.1821210852272,79.67547265919389L1510.8481692102273,119.98732858039413L1515.2556237954545,90.6545181345314L1516.7247753238635,126.21209504599814L1517.1942979772728,102.04796378173853L1517.4517781420454,79.67547265919389L1518.4211152329547,90.6545181345314L1521.5260231022728,102.04796378173853L1521.5714607784091,90.6545181345314L1523.3283842556818,74.33213887173368L1523.4344055,63.92109069998856L1524.4946179431818,96.29749510073901L1526.796793534091,69.08173735460987L1527.0391278068182,74.33213887173368L1528.2205073863636,79.67547265919389L1528.9778019886364,96.29749510073901L1529.629075346591,85.11508789470469L1529.7502424829545,85.11508789470469L1530.9467679545455,90.6545181345314L1536.0963712500002,85.11508789470469L1537.398917965909,85.11508789470469L1540.897619028409,79.67547265919389L1541.064223840909,58.84718172095417L1542.6091048295455,90.6545181345314L1544.7749673920455,90.6545181345314L1547.7132704488636,85.11508789470469L1548.7128993238637,63.92109069998856L1548.728045215909,74.33213887173368L1548.8037746761365,96.29749510073901L1548.9097959204546,96.29749510073901L1550.727302965909,107.91009899917073L1556.2555535625002,113.88832361538147L1556.6342008636364,132.56791880812693L1557.3460577897729,85.11508789470469L1560.6478622556817,113.88832361538147L1562.0412843238637,90.6545181345314L1565.4036723579547,96.29749510073901L1568.0087657897727,69.08173735460987L1570.613859221591,85.11508789470469" style="fill: none;" fill="none"></path></g></g></g></g></g></g><g transform="translate(41, 377)" clip-path="url(#clip_1)"><clipPath id="clip_1"><rect width="1666" height="22"></rect></clipPath><g><g><line x1="0" y1="0" x2="0" y2="5" style="visibility: inherit;" fill="rgb(0, 0, 0)" stroke="rgb(204, 204, 204)" stroke-width="1px"></line><line x1="151.45892045454545" y1="0" x2="151.45892045454545" y2="5" style="visibility: inherit;" fill="rgb(0, 0, 0)" stroke="rgb(204, 204, 204)" stroke-width="1px"></line><line x1="302.9178409090909" y1="0" x2="302.9178409090909" y2="5" style="visibility: inherit;" fill="rgb(0, 0, 0)" stroke="rgb(204, 204, 204)" stroke-width="1px"></line><line x1="454.3767613636363" y1="0" x2="454.3767613636363" y2="5" style="visibility: inherit;" fill="rgb(0, 0, 0)" stroke="rgb(204, 204, 204)" stroke-width="1px"></line><line x1="605.8356818181818" y1="0" x2="605.8356818181818" y2="5" style="visibility: inherit;" fill="rgb(0, 0, 0)" stroke="rgb(204, 204, 204)" stroke-width="1px"></line><line x1="757.2946022727273" y1="0" x2="757.2946022727273" y2="5" style="visibility: inherit;" fill="rgb(0, 0, 0)" stroke="rgb(204, 204, 204)" stroke-width="1px"></line><line x1="908.7535227272726" y1="0" x2="908.7535227272726" y2="5" style="visibility: inherit;" fill="rgb(0, 0, 0)" stroke="rgb(204, 204, 204)" stroke-width="1px"></line><line x1="1060.2124431818181" y1="0" x2="1060.2124431818181" y2="5" style="visibility: inherit;" fill="rgb(0, 0, 0)" stroke="rgb(204, 204, 204)" stroke-width="1px"></line><line x1="1211.6713636363636" y1="0" x2="1211.6713636363636" y2="5" style="visibility: inherit;" fill="rgb(0, 0, 0)" stroke="rgb(204, 204, 204)" stroke-width="1px"></line><line x1="1363.1302840909093" y1="0" x2="1363.1302840909093" y2="5" style="visibility: inherit;" fill="rgb(0, 0, 0)" stroke="rgb(204, 204, 204)" stroke-width="1px"></line><line x1="1514.5892045454545" y1="0" x2="1514.5892045454545" y2="5" style="visibility: inherit;" fill="rgb(0, 0, 0)" stroke="rgb(204, 204, 204)" stroke-width="1px"></line><line x1="1666.048125" y1="0" x2="1666.048125" y2="5" style="visibility: inherit;" fill="rgb(0, 0, 0)" stroke="rgb(204, 204, 204)" stroke-width="1px"></line></g><g transform="translate(0, 8)"><text x="0" y="0" dx="0em" dy="0.95em" style="text-anchor: middle; visibility: hidden; font-family: Roboto, sans-serif; font-size: 12px; font-weight: 200;" fill="rgb(33, 33, 33)" stroke="none" stroke-width="1px">-10k</text><text x="151.45892045454545" y="0" dx="0em" dy="0.95em" style="text-anchor: middle; visibility: inherit; font-family: Roboto, sans-serif; font-size: 12px; font-weight: 200;" fill="rgb(33, 33, 33)" stroke="none" stroke-width="1px">0</text><text x="302.9178409090909" y="0" dx="0em" dy="0.95em" style="text-anchor: middle; visibility: inherit; font-family: Roboto, sans-serif; font-size: 12px; font-weight: 200;" fill="rgb(33, 33, 33)" stroke="none" stroke-width="1px">10k</text><text x="454.3767613636363" y="0" dx="0em" dy="0.95em" style="text-anchor: middle; visibility: inherit; font-family: Roboto, sans-serif; font-size: 12px; font-weight: 200;" fill="rgb(33, 33, 33)" stroke="none" stroke-width="1px">20k</text><text x="605.8356818181818" y="0" dx="0em" dy="0.95em" style="text-anchor: middle; visibility: inherit; font-family: Roboto, sans-serif; font-size: 12px; font-weight: 200;" fill="rgb(33, 33, 33)" stroke="none" stroke-width="1px">30k</text><text x="757.2946022727273" y="0" dx="0em" dy="0.95em" style="text-anchor: middle; visibility: inherit; font-family: Roboto, sans-serif; font-size: 12px; font-weight: 200;" fill="rgb(33, 33, 33)" stroke="none" stroke-width="1px">40k</text><text x="908.7535227272726" y="0" dx="0em" dy="0.95em" style="text-anchor: middle; visibility: inherit; font-family: Roboto, sans-serif; font-size: 12px; font-weight: 200;" fill="rgb(33, 33, 33)" stroke="none" stroke-width="1px">50k</text><text x="1060.2124431818181" y="0" dx="0em" dy="0.95em" style="text-anchor: middle; visibility: inherit; font-family: Roboto, sans-serif; font-size: 12px; font-weight: 200;" fill="rgb(33, 33, 33)" stroke="none" stroke-width="1px">60k</text><text x="1211.6713636363636" y="0" dx="0em" dy="0.95em" style="text-anchor: middle; visibility: inherit; font-family: Roboto, sans-serif; font-size: 12px; font-weight: 200;" fill="rgb(33, 33, 33)" stroke="none" stroke-width="1px">70k</text><text x="1363.1302840909093" y="0" dx="0em" dy="0.95em" style="text-anchor: middle; visibility: inherit; font-family: Roboto, sans-serif; font-size: 12px; font-weight: 200;" fill="rgb(33, 33, 33)" stroke="none" stroke-width="1px">80k</text><text x="1514.5892045454545" y="0" dx="0em" dy="0.95em" style="text-anchor: middle; visibility: inherit; font-family: Roboto, sans-serif; font-size: 12px; font-weight: 200;" fill="rgb(33, 33, 33)" stroke="none" stroke-width="1px">90k</text><text x="1666.048125" y="0" dx="0em" dy="0.95em" style="text-anchor: middle; visibility: hidden; font-family: Roboto, sans-serif; font-size: 12px; font-weight: 200;" fill="rgb(33, 33, 33)" stroke="none" stroke-width="1px">100k</text></g><line x1="0" y1="0" x2="1666.048125" y2="0" fill="rgb(0, 0, 0)" stroke="rgb(204, 204, 204)" stroke-width="1px"></line></g></g></g></g></svg>