<?xml version="1.0" encoding="utf-8" standalone="no"?>
<!DOCTYPE svg PUBLIC "-//W3C//DTD SVG 1.1//EN"
  "http://www.w3.org/Graphics/SVG/1.1/DTD/svg11.dtd">
<svg height="282.865304pt" version="1.1" viewBox="0 0 491.542709 282.865304" width="491.542709pt" xmlns="http://www.w3.org/2000/svg" xmlns:xlink="http://www.w3.org/1999/xlink">
 <metadata>
  <rdf:RDF xmlns:cc="http://creativecommons.org/ns#" xmlns:dc="http://purl.org/dc/elements/1.1/" xmlns:rdf="http://www.w3.org/1999/02/22-rdf-syntax-ns#">
   <cc:Work>
    <dc:type rdf:resource="http://purl.org/dc/dcmitype/StillImage"/>
    <dc:date>2021-07-17T10:16:01.919906</dc:date>
    <dc:format>image/svg+xml</dc:format>
    <dc:creator>
     <cc:Agent>
      <dc:title>Matplotlib v3.4.1, https://matplotlib.org/</dc:title>
     </cc:Agent>
    </dc:creator>
   </cc:Work>
  </rdf:RDF>
 </metadata>
 <defs>
  <style type="text/css">*{stroke-linecap:butt;stroke-linejoin:round;}</style>
 </defs>
 <g id="figure_1">
  <g id="patch_1">
   <path d="M 0 282.865304 
L 491.542709 282.865304 
L 491.542709 0 
L 0 0 
z
" style="fill:#ffffff;"/>
  </g>
  <g id="axes_1">
   <g id="patch_2">
    <path d="M 41.542709 245.196997 
L 487.942709 245.196997 
L 487.942709 23.436997 
L 41.542709 23.436997 
z
" style="fill:#ffffff;"/>
   </g>
   <g id="matplotlib.axis_1">
    <g id="xtick_1">
     <g id="line2d_1">
      <path clip-path="url(#pea2fc7d645)" d="M 61.833618 245.196997 
L 61.833618 23.436997 
" style="fill:none;stroke:#b0b0b0;stroke-dasharray:3.2,0.8,0.5,0.8;stroke-dashoffset:0;stroke-width:0.5;"/>
     </g>
     <g id="line2d_2">
      <defs>
       <path d="M 0 0 
L 0 -3 
" id="m7cc9819bb9" style="stroke:#000000;stroke-width:0.5;"/>
      </defs>
      <g>
       <use style="stroke:#000000;stroke-width:0.5;" x="61.833618" xlink:href="#m7cc9819bb9" y="245.196997"/>
      </g>
     </g>
     <g id="line2d_3">
      <defs>
       <path d="M 0 0 
L 0 3 
" id="m37003a15ac" style="stroke:#000000;stroke-width:0.5;"/>
      </defs>
      <g>
       <use style="stroke:#000000;stroke-width:0.5;" x="61.833618" xlink:href="#m37003a15ac" y="23.436997"/>
      </g>
     </g>
     <g id="text_1">
      <!-- $\mathdefault{0}$ -->
      <g transform="translate(59.342951 255.615495)scale(0.1 -0.1)">
       <defs>
        <path d="M 2688 2025 
C 2688 2416 2682 3080 2413 3591 
C 2176 4039 1798 4198 1466 4198 
C 1158 4198 768 4058 525 3597 
C 269 3118 243 2524 243 2025 
C 243 1661 250 1106 448 619 
C 723 -39 1216 -128 1466 -128 
C 1760 -128 2208 -7 2470 600 
C 2662 1042 2688 1559 2688 2025 
z
M 1466 -26 
C 1056 -26 813 325 723 812 
C 653 1188 653 1738 653 2096 
C 653 2588 653 2997 736 3387 
C 858 3929 1216 4096 1466 4096 
C 1728 4096 2067 3923 2189 3400 
C 2272 3036 2278 2607 2278 2096 
C 2278 1680 2278 1169 2202 792 
C 2067 95 1690 -26 1466 -26 
z
" id="CMR17-30" transform="scale(0.015625)"/>
       </defs>
       <use transform="scale(0.996264)" xlink:href="#CMR17-30"/>
      </g>
     </g>
    </g>
    <g id="xtick_2">
     <g id="line2d_4">
      <path clip-path="url(#pea2fc7d645)" d="M 148.45806 245.196997 
L 148.45806 23.436997 
" style="fill:none;stroke:#b0b0b0;stroke-dasharray:3.2,0.8,0.5,0.8;stroke-dashoffset:0;stroke-width:0.5;"/>
     </g>
     <g id="line2d_5">
      <g>
       <use style="stroke:#000000;stroke-width:0.5;" x="148.45806" xlink:href="#m7cc9819bb9" y="245.196997"/>
      </g>
     </g>
     <g id="line2d_6">
      <g>
       <use style="stroke:#000000;stroke-width:0.5;" x="148.45806" xlink:href="#m37003a15ac" y="23.436997"/>
      </g>
     </g>
     <g id="text_2">
      <!-- $\mathdefault{20000}$ -->
      <g transform="translate(136.004721 255.615495)scale(0.1 -0.1)">
       <defs>
        <path d="M 2669 989 
L 2554 989 
C 2490 536 2438 459 2413 420 
C 2381 369 1920 369 1830 369 
L 602 369 
C 832 619 1280 1072 1824 1597 
C 2214 1967 2669 2402 2669 3035 
C 2669 3790 2067 4224 1395 4224 
C 691 4224 262 3604 262 3030 
C 262 2780 448 2748 525 2748 
C 589 2748 781 2787 781 3010 
C 781 3207 614 3264 525 3264 
C 486 3264 448 3258 422 3245 
C 544 3790 915 4058 1306 4058 
C 1862 4058 2227 3617 2227 3035 
C 2227 2479 1901 2000 1536 1584 
L 262 146 
L 262 0 
L 2515 0 
L 2669 989 
z
" id="CMR17-32" transform="scale(0.015625)"/>
       </defs>
       <use transform="scale(0.996264)" xlink:href="#CMR17-32"/>
       <use transform="translate(45.690477 0)scale(0.996264)" xlink:href="#CMR17-30"/>
       <use transform="translate(91.380954 0)scale(0.996264)" xlink:href="#CMR17-30"/>
       <use transform="translate(137.071431 0)scale(0.996264)" xlink:href="#CMR17-30"/>
       <use transform="translate(182.761908 0)scale(0.996264)" xlink:href="#CMR17-30"/>
      </g>
     </g>
    </g>
    <g id="xtick_3">
     <g id="line2d_7">
      <path clip-path="url(#pea2fc7d645)" d="M 235.082501 245.196997 
L 235.082501 23.436997 
" style="fill:none;stroke:#b0b0b0;stroke-dasharray:3.2,0.8,0.5,0.8;stroke-dashoffset:0;stroke-width:0.5;"/>
     </g>
     <g id="line2d_8">
      <g>
       <use style="stroke:#000000;stroke-width:0.5;" x="235.082501" xlink:href="#m7cc9819bb9" y="245.196997"/>
      </g>
     </g>
     <g id="line2d_9">
      <g>
       <use style="stroke:#000000;stroke-width:0.5;" x="235.082501" xlink:href="#m37003a15ac" y="23.436997"/>
      </g>
     </g>
     <g id="text_3">
      <!-- $\mathdefault{40000}$ -->
      <g transform="translate(222.629163 255.615495)scale(0.1 -0.1)">
       <defs>
        <path d="M 2150 4122 
C 2150 4256 2144 4256 2029 4256 
L 128 1254 
L 128 1088 
L 1779 1088 
L 1779 457 
C 1779 224 1766 160 1318 160 
L 1197 160 
L 1197 0 
C 1402 0 1747 0 1965 0 
C 2182 0 2528 0 2733 0 
L 2733 160 
L 2611 160 
C 2163 160 2150 224 2150 457 
L 2150 1088 
L 2803 1088 
L 2803 1254 
L 2150 1254 
L 2150 4122 
z
M 1798 3703 
L 1798 1254 
L 256 1254 
L 1798 3703 
z
" id="CMR17-34" transform="scale(0.015625)"/>
       </defs>
       <use transform="scale(0.996264)" xlink:href="#CMR17-34"/>
       <use transform="translate(45.690477 0)scale(0.996264)" xlink:href="#CMR17-30"/>
       <use transform="translate(91.380954 0)scale(0.996264)" xlink:href="#CMR17-30"/>
       <use transform="translate(137.071431 0)scale(0.996264)" xlink:href="#CMR17-30"/>
       <use transform="translate(182.761908 0)scale(0.996264)" xlink:href="#CMR17-30"/>
      </g>
     </g>
    </g>
    <g id="xtick_4">
     <g id="line2d_10">
      <path clip-path="url(#pea2fc7d645)" d="M 321.706942 245.196997 
L 321.706942 23.436997 
" style="fill:none;stroke:#b0b0b0;stroke-dasharray:3.2,0.8,0.5,0.8;stroke-dashoffset:0;stroke-width:0.5;"/>
     </g>
     <g id="line2d_11">
      <g>
       <use style="stroke:#000000;stroke-width:0.5;" x="321.706942" xlink:href="#m7cc9819bb9" y="245.196997"/>
      </g>
     </g>
     <g id="line2d_12">
      <g>
       <use style="stroke:#000000;stroke-width:0.5;" x="321.706942" xlink:href="#m37003a15ac" y="23.436997"/>
      </g>
     </g>
     <g id="text_4">
      <!-- $\mathdefault{60000}$ -->
      <g transform="translate(309.253604 255.615495)scale(0.1 -0.1)">
       <defs>
        <path d="M 678 2176 
C 678 3690 1395 4032 1811 4032 
C 1946 4032 2272 4009 2400 3776 
C 2298 3776 2106 3776 2106 3553 
C 2106 3381 2246 3323 2336 3323 
C 2394 3323 2566 3348 2566 3560 
C 2566 3954 2246 4179 1805 4179 
C 1043 4179 243 3390 243 1984 
C 243 253 966 -128 1478 -128 
C 2099 -128 2688 427 2688 1283 
C 2688 2081 2170 2662 1517 2662 
C 1126 2662 838 2407 678 1960 
L 678 2176 
z
M 1478 25 
C 691 25 691 1200 691 1436 
C 691 1896 909 2560 1504 2560 
C 1613 2560 1926 2560 2138 2120 
C 2253 1870 2253 1609 2253 1289 
C 2253 944 2253 690 2118 434 
C 1978 171 1773 25 1478 25 
z
" id="CMR17-36" transform="scale(0.015625)"/>
       </defs>
       <use transform="scale(0.996264)" xlink:href="#CMR17-36"/>
       <use transform="translate(45.690477 0)scale(0.996264)" xlink:href="#CMR17-30"/>
       <use transform="translate(91.380954 0)scale(0.996264)" xlink:href="#CMR17-30"/>
       <use transform="translate(137.071431 0)scale(0.996264)" xlink:href="#CMR17-30"/>
       <use transform="translate(182.761908 0)scale(0.996264)" xlink:href="#CMR17-30"/>
      </g>
     </g>
    </g>
    <g id="xtick_5">
     <g id="line2d_13">
      <path clip-path="url(#pea2fc7d645)" d="M 408.331383 245.196997 
L 408.331383 23.436997 
" style="fill:none;stroke:#b0b0b0;stroke-dasharray:3.2,0.8,0.5,0.8;stroke-dashoffset:0;stroke-width:0.5;"/>
     </g>
     <g id="line2d_14">
      <g>
       <use style="stroke:#000000;stroke-width:0.5;" x="408.331383" xlink:href="#m7cc9819bb9" y="245.196997"/>
      </g>
     </g>
     <g id="line2d_15">
      <g>
       <use style="stroke:#000000;stroke-width:0.5;" x="408.331383" xlink:href="#m37003a15ac" y="23.436997"/>
      </g>
     </g>
     <g id="text_5">
      <!-- $\mathdefault{80000}$ -->
      <g transform="translate(395.878045 255.615495)scale(0.1 -0.1)">
       <defs>
        <path d="M 1741 2264 
C 2144 2467 2554 2773 2554 3263 
C 2554 3841 1990 4179 1472 4179 
C 890 4179 378 3759 378 3180 
C 378 3021 416 2747 666 2505 
C 730 2442 998 2251 1171 2130 
C 883 1983 211 1634 211 934 
C 211 279 838 -128 1459 -128 
C 2144 -128 2720 362 2720 1010 
C 2720 1590 2330 1857 2074 2029 
L 1741 2264 
z
M 902 2822 
C 851 2854 595 3051 595 3351 
C 595 3739 998 4032 1459 4032 
C 1965 4032 2336 3676 2336 3262 
C 2336 2669 1670 2331 1638 2331 
C 1632 2331 1626 2331 1574 2370 
L 902 2822 
z
M 2080 1519 
C 2176 1449 2483 1240 2483 851 
C 2483 381 2010 25 1472 25 
C 890 25 448 438 448 940 
C 448 1443 838 1862 1280 2060 
L 2080 1519 
z
" id="CMR17-38" transform="scale(0.015625)"/>
       </defs>
       <use transform="scale(0.996264)" xlink:href="#CMR17-38"/>
       <use transform="translate(45.690477 0)scale(0.996264)" xlink:href="#CMR17-30"/>
       <use transform="translate(91.380954 0)scale(0.996264)" xlink:href="#CMR17-30"/>
       <use transform="translate(137.071431 0)scale(0.996264)" xlink:href="#CMR17-30"/>
       <use transform="translate(182.761908 0)scale(0.996264)" xlink:href="#CMR17-30"/>
      </g>
     </g>
    </g>
    <g id="xtick_6">
     <g id="line2d_16">
      <defs>
       <path d="M 0 0 
L 0 -1.5 
" id="m598c5ec39c" style="stroke:#000000;stroke-width:0.5;"/>
      </defs>
      <g>
       <use style="stroke:#000000;stroke-width:0.5;" x="83.489729" xlink:href="#m598c5ec39c" y="245.196997"/>
      </g>
     </g>
     <g id="line2d_17">
      <defs>
       <path d="M 0 0 
L 0 1.5 
" id="mdef646e909" style="stroke:#000000;stroke-width:0.5;"/>
      </defs>
      <g>
       <use style="stroke:#000000;stroke-width:0.5;" x="83.489729" xlink:href="#mdef646e909" y="23.436997"/>
      </g>
     </g>
    </g>
    <g id="xtick_7">
     <g id="line2d_18">
      <g>
       <use style="stroke:#000000;stroke-width:0.5;" x="105.145839" xlink:href="#m598c5ec39c" y="245.196997"/>
      </g>
     </g>
     <g id="line2d_19">
      <g>
       <use style="stroke:#000000;stroke-width:0.5;" x="105.145839" xlink:href="#mdef646e909" y="23.436997"/>
      </g>
     </g>
    </g>
    <g id="xtick_8">
     <g id="line2d_20">
      <g>
       <use style="stroke:#000000;stroke-width:0.5;" x="126.801949" xlink:href="#m598c5ec39c" y="245.196997"/>
      </g>
     </g>
     <g id="line2d_21">
      <g>
       <use style="stroke:#000000;stroke-width:0.5;" x="126.801949" xlink:href="#mdef646e909" y="23.436997"/>
      </g>
     </g>
    </g>
    <g id="xtick_9">
     <g id="line2d_22">
      <g>
       <use style="stroke:#000000;stroke-width:0.5;" x="170.11417" xlink:href="#m598c5ec39c" y="245.196997"/>
      </g>
     </g>
     <g id="line2d_23">
      <g>
       <use style="stroke:#000000;stroke-width:0.5;" x="170.11417" xlink:href="#mdef646e909" y="23.436997"/>
      </g>
     </g>
    </g>
    <g id="xtick_10">
     <g id="line2d_24">
      <g>
       <use style="stroke:#000000;stroke-width:0.5;" x="191.77028" xlink:href="#m598c5ec39c" y="245.196997"/>
      </g>
     </g>
     <g id="line2d_25">
      <g>
       <use style="stroke:#000000;stroke-width:0.5;" x="191.77028" xlink:href="#mdef646e909" y="23.436997"/>
      </g>
     </g>
    </g>
    <g id="xtick_11">
     <g id="line2d_26">
      <g>
       <use style="stroke:#000000;stroke-width:0.5;" x="213.42639" xlink:href="#m598c5ec39c" y="245.196997"/>
      </g>
     </g>
     <g id="line2d_27">
      <g>
       <use style="stroke:#000000;stroke-width:0.5;" x="213.42639" xlink:href="#mdef646e909" y="23.436997"/>
      </g>
     </g>
    </g>
    <g id="xtick_12">
     <g id="line2d_28">
      <g>
       <use style="stroke:#000000;stroke-width:0.5;" x="256.738611" xlink:href="#m598c5ec39c" y="245.196997"/>
      </g>
     </g>
     <g id="line2d_29">
      <g>
       <use style="stroke:#000000;stroke-width:0.5;" x="256.738611" xlink:href="#mdef646e909" y="23.436997"/>
      </g>
     </g>
    </g>
    <g id="xtick_13">
     <g id="line2d_30">
      <g>
       <use style="stroke:#000000;stroke-width:0.5;" x="278.394721" xlink:href="#m598c5ec39c" y="245.196997"/>
      </g>
     </g>
     <g id="line2d_31">
      <g>
       <use style="stroke:#000000;stroke-width:0.5;" x="278.394721" xlink:href="#mdef646e909" y="23.436997"/>
      </g>
     </g>
    </g>
    <g id="xtick_14">
     <g id="line2d_32">
      <g>
       <use style="stroke:#000000;stroke-width:0.5;" x="300.050832" xlink:href="#m598c5ec39c" y="245.196997"/>
      </g>
     </g>
     <g id="line2d_33">
      <g>
       <use style="stroke:#000000;stroke-width:0.5;" x="300.050832" xlink:href="#mdef646e909" y="23.436997"/>
      </g>
     </g>
    </g>
    <g id="xtick_15">
     <g id="line2d_34">
      <g>
       <use style="stroke:#000000;stroke-width:0.5;" x="343.363052" xlink:href="#m598c5ec39c" y="245.196997"/>
      </g>
     </g>
     <g id="line2d_35">
      <g>
       <use style="stroke:#000000;stroke-width:0.5;" x="343.363052" xlink:href="#mdef646e909" y="23.436997"/>
      </g>
     </g>
    </g>
    <g id="xtick_16">
     <g id="line2d_36">
      <g>
       <use style="stroke:#000000;stroke-width:0.5;" x="365.019162" xlink:href="#m598c5ec39c" y="245.196997"/>
      </g>
     </g>
     <g id="line2d_37">
      <g>
       <use style="stroke:#000000;stroke-width:0.5;" x="365.019162" xlink:href="#mdef646e909" y="23.436997"/>
      </g>
     </g>
    </g>
    <g id="xtick_17">
     <g id="line2d_38">
      <g>
       <use style="stroke:#000000;stroke-width:0.5;" x="386.675273" xlink:href="#m598c5ec39c" y="245.196997"/>
      </g>
     </g>
     <g id="line2d_39">
      <g>
       <use style="stroke:#000000;stroke-width:0.5;" x="386.675273" xlink:href="#mdef646e909" y="23.436997"/>
      </g>
     </g>
    </g>
    <g id="xtick_18">
     <g id="line2d_40">
      <g>
       <use style="stroke:#000000;stroke-width:0.5;" x="429.987493" xlink:href="#m598c5ec39c" y="245.196997"/>
      </g>
     </g>
     <g id="line2d_41">
      <g>
       <use style="stroke:#000000;stroke-width:0.5;" x="429.987493" xlink:href="#mdef646e909" y="23.436997"/>
      </g>
     </g>
    </g>
    <g id="xtick_19">
     <g id="line2d_42">
      <g>
       <use style="stroke:#000000;stroke-width:0.5;" x="451.643604" xlink:href="#m598c5ec39c" y="245.196997"/>
      </g>
     </g>
     <g id="line2d_43">
      <g>
       <use style="stroke:#000000;stroke-width:0.5;" x="451.643604" xlink:href="#mdef646e909" y="23.436997"/>
      </g>
     </g>
    </g>
    <g id="xtick_20">
     <g id="line2d_44">
      <g>
       <use style="stroke:#000000;stroke-width:0.5;" x="473.299714" xlink:href="#m598c5ec39c" y="245.196997"/>
      </g>
     </g>
     <g id="line2d_45">
      <g>
       <use style="stroke:#000000;stroke-width:0.5;" x="473.299714" xlink:href="#mdef646e909" y="23.436997"/>
      </g>
     </g>
    </g>
    <g id="text_6">
     <!-- iteration -->
     <g transform="translate(230.908087 275.38967)scale(0.2 -0.2)">
      <defs>
       <path d="M 992 3909 
C 992 4049 877 4170 730 4170 
C 589 4170 467 4056 467 3909 
C 467 3769 582 3648 730 3648 
C 870 3648 992 3763 992 3909 
z
M 243 2706 
L 243 2541 
C 602 2541 653 2502 653 2197 
L 653 427 
C 653 184 627 153 218 153 
L 218 -13 
C 371 0 646 0 806 0 
C 960 0 1222 0 1370 -13 
L 1370 153 
C 992 153 979 191 979 420 
L 979 2776 
L 243 2706 
z
" id="CMR17-69" transform="scale(0.015625)"/>
       <path d="M 966 2560 
L 1862 2560 
L 1862 2725 
L 966 2725 
L 966 3904 
L 851 3904 
C 838 3245 614 2668 70 2668 
L 70 2560 
L 627 2560 
L 627 771 
C 627 650 627 -64 1370 -64 
C 1747 -64 1965 306 1965 777 
L 1965 1140 
L 1850 1140 
L 1850 783 
C 1850 344 1677 51 1408 51 
C 1222 51 966 178 966 758 
L 966 2560 
z
" id="CMR17-74" transform="scale(0.015625)"/>
       <path d="M 2438 1472 
C 2464 1498 2464 1511 2464 1576 
C 2464 2238 2118 2816 1389 2816 
C 710 2816 173 2169 173 1383 
C 173 551 781 -64 1459 -64 
C 2176 -64 2458 607 2458 740 
C 2458 784 2419 784 2406 784 
C 2362 784 2355 771 2330 696 
C 2189 265 1837 51 1504 51 
C 1229 51 954 203 781 480 
C 582 803 582 1176 582 1472 
L 2438 1472 
z
M 589 1568 
C 634 2505 1126 2714 1382 2714 
C 1818 2714 2112 2297 2118 1568 
L 589 1568 
z
" id="CMR17-65" transform="scale(0.015625)"/>
       <path d="M 960 1497 
C 960 2112 1222 2688 1702 2688 
C 1747 2688 1792 2682 1837 2662 
C 1837 2662 1696 2617 1696 2452 
C 1696 2298 1818 2234 1914 2234 
C 1990 2234 2131 2279 2131 2458 
C 2131 2663 1926 2790 1709 2790 
C 1222 2790 1011 2317 947 2093 
L 941 2093 
L 941 2790 
L 198 2720 
L 198 2554 
C 576 2554 634 2515 634 2208 
L 634 428 
C 634 184 608 153 198 153 
L 198 -13 
C 352 0 646 0 813 0 
C 998 0 1325 0 1498 -13 
L 1498 153 
C 1037 153 960 153 960 440 
L 960 1497 
z
" id="CMR17-72" transform="scale(0.015625)"/>
       <path d="M 2304 1653 
C 2304 2072 2304 2294 2035 2543 
C 1798 2752 1523 2816 1306 2816 
C 800 2816 435 2407 435 1971 
C 435 1728 627 1728 666 1728 
C 749 1728 896 1778 896 1954 
C 896 2112 774 2181 666 2181 
C 640 2181 608 2174 589 2168 
C 723 2592 1069 2714 1293 2714 
C 1613 2714 1965 2429 1965 1885 
L 1965 1600 
C 1587 1600 1133 1549 774 1357 
C 371 1133 256 813 256 570 
C 256 77 832 -64 1171 -64 
C 1523 -64 1850 139 1990 511 
C 2003 233 2182 -18 2464 -18 
C 2598 -18 2938 70 2938 567 
L 2938 920 
L 2822 920 
L 2822 562 
C 2822 178 2650 128 2566 128 
C 2304 128 2304 458 2304 738 
L 2304 1653 
z
M 1965 870 
C 1965 317 1568 38 1216 38 
C 896 38 646 275 646 570 
C 646 761 730 1100 1101 1305 
C 1408 1478 1760 1504 1965 1504 
L 1965 870 
z
" id="CMR17-61" transform="scale(0.015625)"/>
       <path d="M 2758 1356 
C 2758 2176 2163 2816 1466 2816 
C 768 2816 173 2176 173 1356 
C 173 551 768 -64 1466 -64 
C 2163 -64 2758 551 2758 1356 
z
M 1466 51 
C 1165 51 909 230 762 480 
C 602 767 582 1126 582 1408 
C 582 1677 595 2010 762 2298 
C 890 2509 1139 2714 1466 2714 
C 1754 2714 1997 2554 2150 2330 
C 2349 2029 2349 1607 2349 1408 
C 2349 1158 2336 775 2163 467 
C 1984 173 1709 51 1466 51 
z
" id="CMR17-6f" transform="scale(0.015625)"/>
       <path d="M 2656 1933 
C 2656 2259 2592 2790 1837 2790 
C 1331 2790 1069 2400 973 2144 
L 966 2144 
L 966 2790 
L 211 2720 
L 211 2554 
C 589 2554 646 2515 646 2208 
L 646 428 
C 646 184 621 153 211 153 
L 211 -13 
C 365 0 646 0 813 0 
C 979 0 1267 0 1421 -13 
L 1421 153 
C 1011 153 986 178 986 428 
L 986 1658 
C 986 2247 1344 2688 1792 2688 
C 2266 2688 2317 2266 2317 1958 
L 2317 428 
C 2317 184 2291 153 1882 153 
L 1882 -13 
C 2035 0 2317 0 2483 0 
C 2650 0 2938 0 3091 -13 
L 3091 153 
C 2682 153 2656 178 2656 428 
L 2656 1933 
z
" id="CMR17-6e" transform="scale(0.015625)"/>
      </defs>
      <use transform="scale(0.996264)" xlink:href="#CMR17-69"/>
      <use transform="translate(24.871058 0)scale(0.996264)" xlink:href="#CMR17-74"/>
      <use transform="translate(60.151826 0)scale(0.996264)" xlink:href="#CMR17-65"/>
      <use transform="translate(100.637487 0)scale(0.996264)" xlink:href="#CMR17-72"/>
      <use transform="translate(135.918255 0)scale(0.996264)" xlink:href="#CMR17-61"/>
      <use transform="translate(181.608732 0)scale(0.996264)" xlink:href="#CMR17-74"/>
      <use transform="translate(216.889499 0)scale(0.996264)" xlink:href="#CMR17-69"/>
      <use transform="translate(241.760558 0)scale(0.996264)" xlink:href="#CMR17-6f"/>
      <use transform="translate(287.451035 0)scale(0.996264)" xlink:href="#CMR17-6e"/>
     </g>
    </g>
   </g>
   <g id="matplotlib.axis_2">
    <g id="ytick_1">
     <g id="line2d_46">
      <path clip-path="url(#pea2fc7d645)" d="M 41.542709 199.195542 
L 487.942709 199.195542 
" style="fill:none;stroke:#b0b0b0;stroke-dasharray:3.2,0.8,0.5,0.8;stroke-dashoffset:0;stroke-width:0.5;"/>
     </g>
     <g id="line2d_47">
      <defs>
       <path d="M 0 0 
L 3 0 
" id="mc3fd83353a" style="stroke:#000000;stroke-width:0.5;"/>
      </defs>
      <g>
       <use style="stroke:#000000;stroke-width:0.5;" x="41.542709" xlink:href="#mc3fd83353a" y="199.195542"/>
      </g>
     </g>
     <g id="line2d_48">
      <defs>
       <path d="M 0 0 
L -3 0 
" id="m31d4734aff" style="stroke:#000000;stroke-width:0.5;"/>
      </defs>
      <g>
       <use style="stroke:#000000;stroke-width:0.5;" x="487.942709" xlink:href="#m31d4734aff" y="199.195542"/>
      </g>
     </g>
     <g id="text_7">
      <!-- $\mathdefault{0.2}$ -->
      <g transform="translate(25.31263 202.654791)scale(0.1 -0.1)">
       <defs>
        <path d="M 1178 307 
C 1178 492 1024 619 870 619 
C 685 619 557 466 557 313 
C 557 128 710 0 864 0 
C 1050 0 1178 153 1178 307 
z
" id="CMMI12-3a" transform="scale(0.015625)"/>
       </defs>
       <use transform="scale(0.996264)" xlink:href="#CMR17-30"/>
       <use transform="translate(45.690477 0)scale(0.996264)" xlink:href="#CMMI12-3a"/>
       <use transform="translate(72.787654 0)scale(0.996264)" xlink:href="#CMR17-32"/>
      </g>
     </g>
    </g>
    <g id="ytick_2">
     <g id="line2d_49">
      <path clip-path="url(#pea2fc7d645)" d="M 41.542709 152.277724 
L 487.942709 152.277724 
" style="fill:none;stroke:#b0b0b0;stroke-dasharray:3.2,0.8,0.5,0.8;stroke-dashoffset:0;stroke-width:0.5;"/>
     </g>
     <g id="line2d_50">
      <g>
       <use style="stroke:#000000;stroke-width:0.5;" x="41.542709" xlink:href="#mc3fd83353a" y="152.277724"/>
      </g>
     </g>
     <g id="line2d_51">
      <g>
       <use style="stroke:#000000;stroke-width:0.5;" x="487.942709" xlink:href="#m31d4734aff" y="152.277724"/>
      </g>
     </g>
     <g id="text_8">
      <!-- $\mathdefault{0.4}$ -->
      <g transform="translate(25.31263 155.736973)scale(0.1 -0.1)">
       <use transform="scale(0.996264)" xlink:href="#CMR17-30"/>
       <use transform="translate(45.690477 0)scale(0.996264)" xlink:href="#CMMI12-3a"/>
       <use transform="translate(72.787654 0)scale(0.996264)" xlink:href="#CMR17-34"/>
      </g>
     </g>
    </g>
    <g id="ytick_3">
     <g id="line2d_52">
      <path clip-path="url(#pea2fc7d645)" d="M 41.542709 105.359906 
L 487.942709 105.359906 
" style="fill:none;stroke:#b0b0b0;stroke-dasharray:3.2,0.8,0.5,0.8;stroke-dashoffset:0;stroke-width:0.5;"/>
     </g>
     <g id="line2d_53">
      <g>
       <use style="stroke:#000000;stroke-width:0.5;" x="41.542709" xlink:href="#mc3fd83353a" y="105.359906"/>
      </g>
     </g>
     <g id="line2d_54">
      <g>
       <use style="stroke:#000000;stroke-width:0.5;" x="487.942709" xlink:href="#m31d4734aff" y="105.359906"/>
      </g>
     </g>
     <g id="text_9">
      <!-- $\mathdefault{0.6}$ -->
      <g transform="translate(25.31263 108.819155)scale(0.1 -0.1)">
       <use transform="scale(0.996264)" xlink:href="#CMR17-30"/>
       <use transform="translate(45.690477 0)scale(0.996264)" xlink:href="#CMMI12-3a"/>
       <use transform="translate(72.787654 0)scale(0.996264)" xlink:href="#CMR17-36"/>
      </g>
     </g>
    </g>
    <g id="ytick_4">
     <g id="line2d_55">
      <path clip-path="url(#pea2fc7d645)" d="M 41.542709 58.442088 
L 487.942709 58.442088 
" style="fill:none;stroke:#b0b0b0;stroke-dasharray:3.2,0.8,0.5,0.8;stroke-dashoffset:0;stroke-width:0.5;"/>
     </g>
     <g id="line2d_56">
      <g>
       <use style="stroke:#000000;stroke-width:0.5;" x="41.542709" xlink:href="#mc3fd83353a" y="58.442088"/>
      </g>
     </g>
     <g id="line2d_57">
      <g>
       <use style="stroke:#000000;stroke-width:0.5;" x="487.942709" xlink:href="#m31d4734aff" y="58.442088"/>
      </g>
     </g>
     <g id="text_10">
      <!-- $\mathdefault{0.8}$ -->
      <g transform="translate(25.31263 61.901337)scale(0.1 -0.1)">
       <use transform="scale(0.996264)" xlink:href="#CMR17-30"/>
       <use transform="translate(45.690477 0)scale(0.996264)" xlink:href="#CMMI12-3a"/>
       <use transform="translate(72.787654 0)scale(0.996264)" xlink:href="#CMR17-38"/>
      </g>
     </g>
    </g>
    <g id="ytick_5">
     <g id="line2d_58">
      <defs>
       <path d="M 0 0 
L 1.5 0 
" id="m7c50cffe23" style="stroke:#000000;stroke-width:0.5;"/>
      </defs>
      <g>
       <use style="stroke:#000000;stroke-width:0.5;" x="41.542709" xlink:href="#m7c50cffe23" y="234.383906"/>
      </g>
     </g>
     <g id="line2d_59">
      <defs>
       <path d="M 0 0 
L -1.5 0 
" id="m8607d72414" style="stroke:#000000;stroke-width:0.5;"/>
      </defs>
      <g>
       <use style="stroke:#000000;stroke-width:0.5;" x="487.942709" xlink:href="#m8607d72414" y="234.383906"/>
      </g>
     </g>
    </g>
    <g id="ytick_6">
     <g id="line2d_60">
      <g>
       <use style="stroke:#000000;stroke-width:0.5;" x="41.542709" xlink:href="#m7c50cffe23" y="222.654451"/>
      </g>
     </g>
     <g id="line2d_61">
      <g>
       <use style="stroke:#000000;stroke-width:0.5;" x="487.942709" xlink:href="#m8607d72414" y="222.654451"/>
      </g>
     </g>
    </g>
    <g id="ytick_7">
     <g id="line2d_62">
      <g>
       <use style="stroke:#000000;stroke-width:0.5;" x="41.542709" xlink:href="#m7c50cffe23" y="210.924997"/>
      </g>
     </g>
     <g id="line2d_63">
      <g>
       <use style="stroke:#000000;stroke-width:0.5;" x="487.942709" xlink:href="#m8607d72414" y="210.924997"/>
      </g>
     </g>
    </g>
    <g id="ytick_8">
     <g id="line2d_64">
      <g>
       <use style="stroke:#000000;stroke-width:0.5;" x="41.542709" xlink:href="#m7c50cffe23" y="187.466088"/>
      </g>
     </g>
     <g id="line2d_65">
      <g>
       <use style="stroke:#000000;stroke-width:0.5;" x="487.942709" xlink:href="#m8607d72414" y="187.466088"/>
      </g>
     </g>
    </g>
    <g id="ytick_9">
     <g id="line2d_66">
      <g>
       <use style="stroke:#000000;stroke-width:0.5;" x="41.542709" xlink:href="#m7c50cffe23" y="175.736633"/>
      </g>
     </g>
     <g id="line2d_67">
      <g>
       <use style="stroke:#000000;stroke-width:0.5;" x="487.942709" xlink:href="#m8607d72414" y="175.736633"/>
      </g>
     </g>
    </g>
    <g id="ytick_10">
     <g id="line2d_68">
      <g>
       <use style="stroke:#000000;stroke-width:0.5;" x="41.542709" xlink:href="#m7c50cffe23" y="164.007179"/>
      </g>
     </g>
     <g id="line2d_69">
      <g>
       <use style="stroke:#000000;stroke-width:0.5;" x="487.942709" xlink:href="#m8607d72414" y="164.007179"/>
      </g>
     </g>
    </g>
    <g id="ytick_11">
     <g id="line2d_70">
      <g>
       <use style="stroke:#000000;stroke-width:0.5;" x="41.542709" xlink:href="#m7c50cffe23" y="140.548269"/>
      </g>
     </g>
     <g id="line2d_71">
      <g>
       <use style="stroke:#000000;stroke-width:0.5;" x="487.942709" xlink:href="#m8607d72414" y="140.548269"/>
      </g>
     </g>
    </g>
    <g id="ytick_12">
     <g id="line2d_72">
      <g>
       <use style="stroke:#000000;stroke-width:0.5;" x="41.542709" xlink:href="#m7c50cffe23" y="128.818815"/>
      </g>
     </g>
     <g id="line2d_73">
      <g>
       <use style="stroke:#000000;stroke-width:0.5;" x="487.942709" xlink:href="#m8607d72414" y="128.818815"/>
      </g>
     </g>
    </g>
    <g id="ytick_13">
     <g id="line2d_74">
      <g>
       <use style="stroke:#000000;stroke-width:0.5;" x="41.542709" xlink:href="#m7c50cffe23" y="117.08936"/>
      </g>
     </g>
     <g id="line2d_75">
      <g>
       <use style="stroke:#000000;stroke-width:0.5;" x="487.942709" xlink:href="#m8607d72414" y="117.08936"/>
      </g>
     </g>
    </g>
    <g id="ytick_14">
     <g id="line2d_76">
      <g>
       <use style="stroke:#000000;stroke-width:0.5;" x="41.542709" xlink:href="#m7c50cffe23" y="93.630451"/>
      </g>
     </g>
     <g id="line2d_77">
      <g>
       <use style="stroke:#000000;stroke-width:0.5;" x="487.942709" xlink:href="#m8607d72414" y="93.630451"/>
      </g>
     </g>
    </g>
    <g id="ytick_15">
     <g id="line2d_78">
      <g>
       <use style="stroke:#000000;stroke-width:0.5;" x="41.542709" xlink:href="#m7c50cffe23" y="81.900997"/>
      </g>
     </g>
     <g id="line2d_79">
      <g>
       <use style="stroke:#000000;stroke-width:0.5;" x="487.942709" xlink:href="#m8607d72414" y="81.900997"/>
      </g>
     </g>
    </g>
    <g id="ytick_16">
     <g id="line2d_80">
      <g>
       <use style="stroke:#000000;stroke-width:0.5;" x="41.542709" xlink:href="#m7c50cffe23" y="70.171542"/>
      </g>
     </g>
     <g id="line2d_81">
      <g>
       <use style="stroke:#000000;stroke-width:0.5;" x="487.942709" xlink:href="#m8607d72414" y="70.171542"/>
      </g>
     </g>
    </g>
    <g id="ytick_17">
     <g id="line2d_82">
      <g>
       <use style="stroke:#000000;stroke-width:0.5;" x="41.542709" xlink:href="#m7c50cffe23" y="46.712633"/>
      </g>
     </g>
     <g id="line2d_83">
      <g>
       <use style="stroke:#000000;stroke-width:0.5;" x="487.942709" xlink:href="#m8607d72414" y="46.712633"/>
      </g>
     </g>
    </g>
    <g id="ytick_18">
     <g id="line2d_84">
      <g>
       <use style="stroke:#000000;stroke-width:0.5;" x="41.542709" xlink:href="#m7c50cffe23" y="34.983179"/>
      </g>
     </g>
     <g id="line2d_85">
      <g>
       <use style="stroke:#000000;stroke-width:0.5;" x="487.942709" xlink:href="#m8607d72414" y="34.983179"/>
      </g>
     </g>
    </g>
    <g id="text_11">
     <!-- accuracy -->
     <g transform="translate(17.436997 169.047673)rotate(-90)scale(0.2 -0.2)">
      <defs>
       <path d="M 2234 2240 
C 2112 2240 1933 2240 1933 2017 
C 1933 1838 2080 1787 2163 1787 
C 2208 1787 2394 1807 2394 2024 
C 2394 2467 1958 2803 1466 2803 
C 787 2803 211 2178 211 1363 
C 211 516 813 -64 1466 -64 
C 2259 -64 2458 677 2458 748 
C 2458 774 2451 793 2406 793 
C 2362 793 2355 787 2330 703 
C 2163 180 1798 51 1523 51 
C 1114 51 621 427 621 1369 
C 621 2338 1094 2688 1472 2688 
C 1722 2688 2093 2573 2234 2240 
z
" id="CMR17-63" transform="scale(0.015625)"/>
       <path d="M 1882 2693 
L 1882 2528 
C 2259 2528 2317 2489 2317 2186 
L 2317 1032 
C 2317 500 2029 38 1555 38 
C 1030 38 986 348 986 678 
L 986 2763 
L 211 2693 
L 211 2528 
C 467 2528 640 2528 646 2274 
L 646 1058 
C 646 633 646 361 813 183 
C 896 101 1056 -64 1517 -64 
C 2061 -64 2272 377 2323 506 
L 2330 506 
L 2330 -63 
L 3091 -63 
L 3091 128 
C 2714 128 2656 166 2656 473 
L 2656 2763 
L 1882 2693 
z
" id="CMR17-75" transform="scale(0.015625)"/>
       <path d="M 2496 2197 
C 2656 2586 2944 2586 3034 2586 
L 3034 2752 
C 2912 2752 2752 2752 2630 2752 
C 2496 2752 2285 2752 2157 2758 
L 2157 2592 
C 2400 2573 2406 2394 2406 2343 
C 2406 2280 2394 2248 2362 2171 
L 1664 449 
L 902 2306 
C 870 2382 870 2426 870 2433 
C 870 2573 1018 2586 1171 2586 
L 1171 2758 
C 1018 2752 742 2752 582 2752 
C 410 2752 205 2752 64 2758 
L 64 2586 
C 410 2586 448 2554 531 2350 
L 1485 15 
C 1197 -738 1030 -1178 627 -1178 
C 557 -1178 397 -1159 282 -1044 
C 429 -1031 493 -942 493 -833 
C 493 -725 416 -629 288 -629 
C 147 -629 77 -725 77 -840 
C 77 -1095 339 -1280 627 -1280 
C 998 -1280 1229 -922 1357 -604 
L 2496 2197 
z
" id="CMR17-79" transform="scale(0.015625)"/>
      </defs>
      <use transform="scale(0.996264)" xlink:href="#CMR17-61"/>
      <use transform="translate(45.690477 0)scale(0.996264)" xlink:href="#CMR17-63"/>
      <use transform="translate(86.176138 0)scale(0.996264)" xlink:href="#CMR17-63"/>
      <use transform="translate(126.661798 0)scale(0.996264)" xlink:href="#CMR17-75"/>
      <use transform="translate(177.557168 0)scale(0.996264)" xlink:href="#CMR17-72"/>
      <use transform="translate(212.837936 0)scale(0.996264)" xlink:href="#CMR17-61"/>
      <use transform="translate(258.528413 0)scale(0.996264)" xlink:href="#CMR17-63"/>
      <use transform="translate(299.014073 0)scale(0.996264)" xlink:href="#CMR17-79"/>
     </g>
    </g>
   </g>
   <g id="line2d_86">
    <path clip-path="url(#pea2fc7d645)" d="M 61.833618 235.116997 
L 62.942411 106.826088 
L 64.051204 106.826088 
L 65.159997 99.495179 
L 66.26879 88.498815 
L 67.377583 128.818815 
L 68.486376 128.818815 
L 69.595168 106.826088 
L 70.703961 92.164269 
L 71.812754 81.167906 
L 74.03034 73.836997 
L 75.139133 103.160633 
L 76.247925 81.167906 
L 77.356718 77.502451 
L 78.465511 66.506088 
L 79.574304 73.836997 
L 80.683097 73.836997 
L 81.79189 66.506088 
L 82.900683 73.836997 
L 84.009475 62.840633 
L 85.118268 77.502451 
L 86.227061 81.167906 
L 87.335854 99.495179 
L 88.444647 99.495179 
L 89.55344 51.844269 
L 90.662232 70.171542 
L 91.771025 84.83336 
L 92.879818 106.826088 
L 93.988611 73.836997 
L 95.097404 59.175179 
L 96.206197 77.502451 
L 98.423782 62.840633 
L 99.532575 88.498815 
L 100.641368 84.83336 
L 101.750161 95.829724 
L 102.858954 81.167906 
L 103.967747 77.502451 
L 105.076539 59.175179 
L 106.185332 81.167906 
L 107.294125 73.836997 
L 108.402918 59.175179 
L 109.511711 70.171542 
L 111.729297 62.840633 
L 112.838089 81.167906 
L 113.946882 81.167906 
L 115.055675 62.840633 
L 116.164468 92.164269 
L 117.273261 70.171542 
L 119.490846 84.83336 
L 120.599639 48.178815 
L 121.708432 62.840633 
L 122.817225 81.167906 
L 123.926018 55.509724 
L 125.034811 62.840633 
L 126.143604 44.51336 
L 127.252396 81.167906 
L 128.361189 73.836997 
L 129.469982 59.175179 
L 130.578775 62.840633 
L 131.687568 84.83336 
L 133.905153 62.840633 
L 135.013946 55.509724 
L 136.122739 73.836997 
L 137.231532 51.844269 
L 139.449118 81.167906 
L 140.557911 55.509724 
L 141.666703 66.506088 
L 142.775496 66.506088 
L 144.993082 51.844269 
L 146.101875 59.175179 
L 147.210668 62.840633 
L 148.31946 59.175179 
L 149.428253 70.171542 
L 150.537046 48.178815 
L 151.645839 84.83336 
L 152.754632 92.164269 
L 153.863425 81.167906 
L 154.972218 55.509724 
L 156.08101 70.171542 
L 157.189803 88.498815 
L 158.298596 44.51336 
L 159.407389 62.840633 
L 160.516182 73.836997 
L 161.624975 77.502451 
L 162.733767 95.829724 
L 163.84256 66.506088 
L 164.951353 62.840633 
L 166.060146 77.502451 
L 167.168939 51.844269 
L 168.277732 55.509724 
L 170.495317 77.502451 
L 171.60411 66.506088 
L 172.712903 73.836997 
L 173.821696 55.509724 
L 174.930489 77.502451 
L 176.039282 84.83336 
L 177.148074 88.498815 
L 178.256867 73.836997 
L 179.36566 55.509724 
L 180.474453 77.502451 
L 181.583246 55.509724 
L 182.692039 51.844269 
L 183.800832 81.167906 
L 184.909624 70.171542 
L 186.018417 51.844269 
L 187.12721 62.840633 
L 188.236003 51.844269 
L 189.344796 59.175179 
L 191.562381 66.506088 
L 192.671174 48.178815 
L 193.779967 59.175179 
L 194.88876 73.836997 
L 195.997553 48.178815 
L 197.106346 59.175179 
L 198.215139 81.167906 
L 200.432724 51.844269 
L 201.541517 59.175179 
L 202.65031 62.840633 
L 203.759103 44.51336 
L 204.867896 66.506088 
L 205.976688 48.178815 
L 207.085481 70.171542 
L 208.194274 70.171542 
L 210.41186 77.502451 
L 211.520653 55.509724 
L 212.629446 73.836997 
L 213.738238 59.175179 
L 214.847031 81.167906 
L 215.955824 70.171542 
L 217.064617 62.840633 
L 218.17341 66.506088 
L 219.282203 55.509724 
L 220.390995 73.836997 
L 221.499788 88.498815 
L 222.608581 73.836997 
L 223.717374 77.502451 
L 224.826167 70.171542 
L 225.93496 70.171542 
L 227.043753 66.506088 
L 228.152545 51.844269 
L 229.261338 66.506088 
L 230.370131 55.509724 
L 231.478924 37.182451 
L 232.587717 48.178815 
L 233.69651 66.506088 
L 234.805302 51.844269 
L 235.914095 55.509724 
L 237.022888 51.844269 
L 238.131681 77.502451 
L 239.240474 37.182451 
L 240.349267 62.840633 
L 241.45806 73.836997 
L 242.566852 59.175179 
L 243.675645 73.836997 
L 244.784438 59.175179 
L 245.893231 81.167906 
L 247.002024 81.167906 
L 248.110817 48.178815 
L 249.219609 33.516997 
L 250.328402 48.178815 
L 251.437195 73.836997 
L 252.545988 88.498815 
L 254.763574 66.506088 
L 255.872367 66.506088 
L 256.981159 51.844269 
L 258.089952 55.509724 
L 260.307538 70.171542 
L 261.416331 81.167906 
L 262.525124 73.836997 
L 263.633917 55.509724 
L 264.742709 70.171542 
L 265.851502 66.506088 
L 266.960295 59.175179 
L 268.069088 62.840633 
L 269.177881 55.509724 
L 270.286674 66.506088 
L 271.395466 62.840633 
L 272.504259 48.178815 
L 273.613052 62.840633 
L 274.721845 73.836997 
L 275.830638 62.840633 
L 276.939431 48.178815 
L 278.048224 48.178815 
L 279.157016 51.844269 
L 280.265809 62.840633 
L 281.374602 62.840633 
L 283.592188 55.509724 
L 284.700981 62.840633 
L 285.809773 59.175179 
L 286.918566 81.167906 
L 288.027359 92.164269 
L 289.136152 62.840633 
L 291.353738 62.840633 
L 292.462531 70.171542 
L 293.571323 40.847906 
L 294.680116 88.498815 
L 295.788909 62.840633 
L 296.897702 44.51336 
L 298.006495 70.171542 
L 299.115288 70.171542 
L 300.22408 51.844269 
L 301.332873 70.171542 
L 302.441666 55.509724 
L 303.550459 66.506088 
L 304.659252 66.506088 
L 305.768045 48.178815 
L 306.876838 62.840633 
L 307.98563 62.840633 
L 309.094423 77.502451 
L 310.203216 48.178815 
L 311.312009 59.175179 
L 312.420802 62.840633 
L 315.74718 62.840633 
L 316.855973 44.51336 
L 317.964766 59.175179 
L 319.073559 77.502451 
L 320.182352 51.844269 
L 321.291145 55.509724 
L 322.399937 51.844269 
L 323.50873 62.840633 
L 324.617523 48.178815 
L 325.726316 66.506088 
L 326.835109 51.844269 
L 327.943902 51.844269 
L 329.052694 44.51336 
L 331.27028 66.506088 
L 332.379073 70.171542 
L 333.487866 55.509724 
L 334.596659 73.836997 
L 335.705452 40.847906 
L 336.814244 51.844269 
L 337.923037 84.83336 
L 339.03183 59.175179 
L 340.140623 59.175179 
L 341.249416 88.498815 
L 342.358209 70.171542 
L 343.467001 62.840633 
L 344.575794 62.840633 
L 345.684587 70.171542 
L 346.79338 48.178815 
L 347.902173 84.83336 
L 349.010966 62.840633 
L 350.119759 55.509724 
L 351.228551 55.509724 
L 352.337344 44.51336 
L 353.446137 73.836997 
L 354.55493 84.83336 
L 355.663723 77.502451 
L 356.772516 73.836997 
L 357.881308 59.175179 
L 358.990101 66.506088 
L 360.098894 62.840633 
L 361.207687 66.506088 
L 362.31648 66.506088 
L 363.425273 33.516997 
L 364.534066 55.509724 
L 365.642858 66.506088 
L 366.751651 66.506088 
L 368.969237 51.844269 
L 370.07803 59.175179 
L 372.295615 59.175179 
L 373.404408 62.840633 
L 374.513201 62.840633 
L 375.621994 73.836997 
L 376.730787 70.171542 
L 377.83958 55.509724 
L 378.948373 48.178815 
L 380.057165 66.506088 
L 381.165958 62.840633 
L 382.274751 62.840633 
L 383.383544 73.836997 
L 384.492337 73.836997 
L 385.60113 70.171542 
L 386.709922 40.847906 
L 387.818715 73.836997 
L 390.036301 44.51336 
L 391.145094 103.160633 
L 392.253887 55.509724 
L 393.36268 44.51336 
L 394.471472 70.171542 
L 395.580265 51.844269 
L 396.689058 92.164269 
L 397.797851 62.840633 
L 398.906644 70.171542 
L 400.015437 55.509724 
L 401.124229 66.506088 
L 402.233022 55.509724 
L 403.341815 66.506088 
L 404.450608 55.509724 
L 405.559401 51.844269 
L 406.668194 73.836997 
L 407.776987 51.844269 
L 408.885779 62.840633 
L 409.994572 77.502451 
L 411.103365 73.836997 
L 412.212158 59.175179 
L 413.320951 55.509724 
L 414.429744 70.171542 
L 415.538536 48.178815 
L 416.647329 59.175179 
L 417.756122 62.840633 
L 419.973708 62.840633 
L 421.082501 66.506088 
L 422.191294 66.506088 
L 423.300086 59.175179 
L 424.408879 99.495179 
L 425.517672 51.844269 
L 426.626465 55.509724 
L 427.735258 66.506088 
L 428.844051 66.506088 
L 429.952843 73.836997 
L 431.061636 62.840633 
L 432.170429 81.167906 
L 433.279222 73.836997 
L 434.388015 62.840633 
L 435.496808 81.167906 
L 437.714393 66.506088 
L 438.823186 66.506088 
L 439.931979 40.847906 
L 442.149565 48.178815 
L 443.258358 59.175179 
L 444.36715 62.840633 
L 445.475943 62.840633 
L 446.584736 48.178815 
L 447.693529 59.175179 
L 448.802322 81.167906 
L 449.911115 48.178815 
L 451.019908 48.178815 
L 452.1287 59.175179 
L 453.237493 62.840633 
L 455.455079 55.509724 
L 456.563872 59.175179 
L 457.672665 40.847906 
L 458.781457 70.171542 
L 459.89025 70.171542 
L 460.999043 66.506088 
L 462.107836 55.509724 
L 463.216629 62.840633 
L 464.325422 59.175179 
L 465.434215 66.506088 
L 466.543007 51.844269 
L 467.6518 62.840633 
L 467.6518 62.840633 
" style="fill:none;stroke:#0c5da5;stroke-linecap:square;"/>
   </g>
   <g id="patch_3">
    <path d="M 41.542709 245.196997 
L 41.542709 23.436997 
" style="fill:none;stroke:#000000;stroke-linecap:square;stroke-linejoin:miter;stroke-width:0.5;"/>
   </g>
   <g id="patch_4">
    <path d="M 487.942709 245.196997 
L 487.942709 23.436997 
" style="fill:none;stroke:#000000;stroke-linecap:square;stroke-linejoin:miter;stroke-width:0.5;"/>
   </g>
   <g id="patch_5">
    <path d="M 41.542709 245.196997 
L 487.942709 245.196997 
" style="fill:none;stroke:#000000;stroke-linecap:square;stroke-linejoin:miter;stroke-width:0.5;"/>
   </g>
   <g id="patch_6">
    <path d="M 41.542709 23.436997 
L 487.942709 23.436997 
" style="fill:none;stroke:#000000;stroke-linecap:square;stroke-linejoin:miter;stroke-width:0.5;"/>
   </g>
   <g id="text_12">
    <!-- Accuracy on training batch -->
    <g transform="translate(155.580443 17.436997)scale(0.2 -0.2)">
     <defs>
      <path d="M 2323 4378 
C 2291 4461 2278 4480 2214 4480 
C 2150 4480 2138 4461 2106 4378 
L 749 566 
C 627 223 371 153 147 153 
L 147 -13 
C 262 0 518 0 640 0 
C 800 0 1056 0 1210 -13 
L 1210 153 
C 909 153 864 361 864 439 
C 864 497 877 530 890 569 
L 1229 1536 
L 2906 1536 
L 3290 442 
C 3322 365 3322 352 3322 327 
C 3322 153 3046 153 2925 153 
L 2925 0 
C 3110 0 3443 0 3642 0 
C 3808 0 4128 0 4282 -13 
L 4282 153 
C 3942 153 3827 153 3744 387 
L 2323 4378 
z
M 2067 3893 
L 2848 1702 
L 1286 1702 
L 2067 3893 
z
" id="CMR17-41" transform="scale(0.015625)"/>
      <path d="M 710 1164 
C 832 1068 1043 960 1299 960 
C 1805 960 2240 1357 2240 1888 
C 2240 2054 2189 2310 1997 2509 
C 2176 2692 2438 2752 2586 2752 
C 2611 2752 2650 2752 2682 2734 
C 2656 2728 2598 2703 2598 2605 
C 2598 2527 2656 2471 2739 2471 
C 2835 2471 2886 2533 2886 2614 
C 2886 2731 2790 2854 2586 2854 
C 2330 2854 2106 2738 1926 2580 
C 1734 2753 1504 2816 1299 2816 
C 794 2816 358 2419 358 1888 
C 358 1522 570 1292 634 1228 
C 442 1004 442 743 442 711 
C 442 545 506 302 723 168 
C 390 85 128 -169 128 -486 
C 128 -943 736 -1280 1466 -1280 
C 2170 -1280 2803 -956 2803 -479 
C 2803 384 1856 384 1363 384 
C 1216 384 954 384 922 391 
C 723 423 589 602 589 826 
C 589 883 589 1024 710 1164 
z
M 1299 1068 
C 736 1068 736 1760 736 1889 
C 736 2016 736 2708 1299 2708 
C 1862 2708 1862 2016 1862 1889 
C 1862 1760 1862 1068 1299 1068 
z
M 1466 -1171 
C 826 -1171 384 -835 384 -486 
C 384 -289 493 -105 634 -4 
C 794 104 858 104 1293 104 
C 1818 104 2547 104 2547 -486 
C 2547 -835 2106 -1171 1466 -1171 
z
" id="CMR17-67" transform="scale(0.015625)"/>
      <path d="M 960 4396 
L 198 4326 
L 198 4160 
C 576 4160 634 4122 634 3817 
L 634 -13 
L 749 -13 
L 934 441 
C 1120 141 1395 -64 1766 -64 
C 2406 -64 3053 500 3053 1370 
C 3053 2188 2477 2790 1830 2790 
C 1434 2790 1152 2579 960 2330 
L 960 4396 
z
M 973 2004 
C 973 2118 973 2138 1062 2272 
C 1312 2657 1670 2688 1792 2688 
C 1984 2688 2643 2585 2643 1376 
C 2643 108 1888 38 1734 38 
C 1536 38 1248 114 1043 486 
C 973 608 973 621 973 735 
L 973 2004 
z
" id="CMR17-62" transform="scale(0.015625)"/>
      <path d="M 2656 1933 
C 2656 2259 2592 2790 1837 2790 
C 1312 2790 1056 2368 979 2157 
L 973 2157 
L 973 4396 
L 211 4326 
L 211 4160 
C 589 4160 646 4122 646 3817 
L 646 426 
C 646 184 621 153 211 153 
L 211 -13 
C 365 0 646 0 813 0 
C 979 0 1267 0 1421 -13 
L 1421 153 
C 1011 153 986 178 986 428 
L 986 1658 
C 986 2247 1344 2688 1792 2688 
C 2266 2688 2317 2266 2317 1958 
L 2317 428 
C 2317 184 2291 153 1882 153 
L 1882 -13 
C 2035 0 2317 0 2483 0 
C 2650 0 2938 0 3091 -13 
L 3091 153 
C 2682 153 2656 178 2656 428 
L 2656 1933 
z
" id="CMR17-68" transform="scale(0.015625)"/>
     </defs>
     <use transform="scale(0.996264)" xlink:href="#CMR17-41"/>
     <use transform="translate(69.07243 0)scale(0.996264)" xlink:href="#CMR17-63"/>
     <use transform="translate(109.55809 0)scale(0.996264)" xlink:href="#CMR17-63"/>
     <use transform="translate(150.043751 0)scale(0.996264)" xlink:href="#CMR17-75"/>
     <use transform="translate(200.939121 0)scale(0.996264)" xlink:href="#CMR17-72"/>
     <use transform="translate(236.219888 0)scale(0.996264)" xlink:href="#CMR17-61"/>
     <use transform="translate(281.910365 0)scale(0.996264)" xlink:href="#CMR17-63"/>
     <use transform="translate(322.396026 0)scale(0.996264)" xlink:href="#CMR17-79"/>
     <use transform="translate(400.764908 0)scale(0.996264)" xlink:href="#CMR17-6f"/>
     <use transform="translate(446.455385 0)scale(0.996264)" xlink:href="#CMR17-6e"/>
     <use transform="translate(527.426721 0)scale(0.996264)" xlink:href="#CMR17-74"/>
     <use transform="translate(562.707489 0)scale(0.996264)" xlink:href="#CMR17-72"/>
     <use transform="translate(597.988257 0)scale(0.996264)" xlink:href="#CMR17-61"/>
     <use transform="translate(643.678734 0)scale(0.996264)" xlink:href="#CMR17-69"/>
     <use transform="translate(668.549793 0)scale(0.996264)" xlink:href="#CMR17-6e"/>
     <use transform="translate(719.445162 0)scale(0.996264)" xlink:href="#CMR17-69"/>
     <use transform="translate(744.316221 0)scale(0.996264)" xlink:href="#CMR17-6e"/>
     <use transform="translate(795.211591 0)scale(0.996264)" xlink:href="#CMR17-67"/>
     <use transform="translate(870.978034 0)scale(0.996264)" xlink:href="#CMR17-62"/>
     <use transform="translate(921.873404 0)scale(0.996264)" xlink:href="#CMR17-61"/>
     <use transform="translate(967.563881 0)scale(0.996264)" xlink:href="#CMR17-74"/>
     <use transform="translate(1002.844649 0)scale(0.996264)" xlink:href="#CMR17-63"/>
     <use transform="translate(1040.727855 0)scale(0.996264)" xlink:href="#CMR17-68"/>
    </g>
   </g>
  </g>
 </g>
 <defs>
  <clipPath id="pea2fc7d645">
   <rect height="221.76" width="446.4" x="41.542709" y="23.436997"/>
  </clipPath>
 </defs>
</svg>
