<?xml version="1.0" encoding="utf-8" standalone="no"?>
<!DOCTYPE svg PUBLIC "-//W3C//DTD SVG 1.1//EN"
  "http://www.w3.org/Graphics/SVG/1.1/DTD/svg11.dtd">
<svg xmlns:xlink="http://www.w3.org/1999/xlink" width="460.8pt" height="345.6pt" viewBox="0 0 460.8 345.6" xmlns="http://www.w3.org/2000/svg" version="1.1">
 <metadata>
  <rdf:RDF xmlns:dc="http://purl.org/dc/elements/1.1/" xmlns:cc="http://creativecommons.org/ns#" xmlns:rdf="http://www.w3.org/1999/02/22-rdf-syntax-ns#">
   <cc:Work>
    <dc:type rdf:resource="http://purl.org/dc/dcmitype/StillImage"/>
    <dc:date>2022-11-19T02:50:57.388797</dc:date>
    <dc:format>image/svg+xml</dc:format>
    <dc:creator>
     <cc:Agent>
      <dc:title>Matplotlib v3.6.2, https://matplotlib.org/</dc:title>
     </cc:Agent>
    </dc:creator>
   </cc:Work>
  </rdf:RDF>
 </metadata>
 <defs>
  <style type="text/css">*{stroke-linejoin: round; stroke-linecap: butt}</style>
 </defs>
 <g id="figure_1">
  <g id="patch_1">
   <path d="M 0 345.6 
L 460.8 345.6 
L 460.8 0 
L 0 0 
z
" style="fill: #ffffff"/>
  </g>
  <g id="axes_1">
   <g id="patch_2">
    <path d="M 82.944 87.353379 
L 414.72 87.353379 
L 414.72 41.472 
L 82.944 41.472 
z
" style="fill: #ffffff"/>
   </g>
   <g id="matplotlib.axis_1"/>
   <g id="matplotlib.axis_2">
    <g id="text_1">
     <!-- $s[i]$ -->
     <g transform="translate(61.544 62.333002) scale(0.1 -0.1)">
      <defs>
       <path id="DejaVuSans-Oblique-73" d="M 3200 3397 
L 3091 2853 
Q 2863 2978 2609 3040 
Q 2356 3103 2088 3103 
Q 1634 3103 1373 2948 
Q 1113 2794 1113 2528 
Q 1113 2219 1719 2053 
Q 1766 2041 1788 2034 
L 1972 1978 
Q 2547 1819 2739 1644 
Q 2931 1469 2931 1166 
Q 2931 609 2489 259 
Q 2047 -91 1331 -91 
Q 1053 -91 747 -37 
Q 441 16 72 128 
L 184 722 
Q 500 559 806 475 
Q 1113 391 1394 391 
Q 1816 391 2080 572 
Q 2344 753 2344 1031 
Q 2344 1331 1650 1516 
L 1591 1531 
L 1394 1581 
Q 956 1697 753 1886 
Q 550 2075 550 2369 
Q 550 2928 970 3256 
Q 1391 3584 2113 3584 
Q 2397 3584 2667 3537 
Q 2938 3491 3200 3397 
z
" transform="scale(0.015625)"/>
       <path id="DejaVuSans-5b" d="M 550 4863 
L 1875 4863 
L 1875 4416 
L 1125 4416 
L 1125 -397 
L 1875 -397 
L 1875 -844 
L 550 -844 
L 550 4863 
z
" transform="scale(0.015625)"/>
       <path id="DejaVuSans-Oblique-69" d="M 1172 4863 
L 1747 4863 
L 1606 4134 
L 1031 4134 
L 1172 4863 
z
M 909 3500 
L 1484 3500 
L 800 0 
L 225 0 
L 909 3500 
z
" transform="scale(0.015625)"/>
       <path id="DejaVuSans-5d" d="M 1947 4863 
L 1947 -844 
L 622 -844 
L 622 -397 
L 1369 -397 
L 1369 4416 
L 622 4416 
L 622 4863 
L 1947 4863 
z
" transform="scale(0.015625)"/>
      </defs>
      <use xlink:href="#DejaVuSans-Oblique-73" transform="translate(0 0.015625)"/>
      <use xlink:href="#DejaVuSans-5b" transform="translate(52.099609 0.015625)"/>
      <use xlink:href="#DejaVuSans-Oblique-69" transform="translate(91.113281 0.015625)"/>
      <use xlink:href="#DejaVuSans-5d" transform="translate(118.896484 0.015625)"/>
     </g>
    </g>
   </g>
   <g id="EventCollection_1">
    <path d="M 99.661395 53.985103 
L 99.661395 74.840276 
" clip-path="url(#p442ef6060c)" style="fill: none; stroke: #1f77b4; stroke-width: 1.5"/>
    <path d="M 102.233302 53.985103 
L 102.233302 74.840276 
" clip-path="url(#p442ef6060c)" style="fill: none; stroke: #1f77b4; stroke-width: 1.5"/>
    <path d="M 109.949023 53.985103 
L 109.949023 74.840276 
" clip-path="url(#p442ef6060c)" style="fill: none; stroke: #1f77b4; stroke-width: 1.5"/>
    <path d="M 112.52093 53.985103 
L 112.52093 74.840276 
" clip-path="url(#p442ef6060c)" style="fill: none; stroke: #1f77b4; stroke-width: 1.5"/>
    <path d="M 125.380465 53.985103 
L 125.380465 74.840276 
" clip-path="url(#p442ef6060c)" style="fill: none; stroke: #1f77b4; stroke-width: 1.5"/>
    <path d="M 130.524279 53.985103 
L 130.524279 74.840276 
" clip-path="url(#p442ef6060c)" style="fill: none; stroke: #1f77b4; stroke-width: 1.5"/>
    <path d="M 135.668093 53.985103 
L 135.668093 74.840276 
" clip-path="url(#p442ef6060c)" style="fill: none; stroke: #1f77b4; stroke-width: 1.5"/>
    <path d="M 156.243349 53.985103 
L 156.243349 74.840276 
" clip-path="url(#p442ef6060c)" style="fill: none; stroke: #1f77b4; stroke-width: 1.5"/>
    <path d="M 158.815256 53.985103 
L 158.815256 74.840276 
" clip-path="url(#p442ef6060c)" style="fill: none; stroke: #1f77b4; stroke-width: 1.5"/>
    <path d="M 161.387163 53.985103 
L 161.387163 74.840276 
" clip-path="url(#p442ef6060c)" style="fill: none; stroke: #1f77b4; stroke-width: 1.5"/>
    <path d="M 166.530977 53.985103 
L 166.530977 74.840276 
" clip-path="url(#p442ef6060c)" style="fill: none; stroke: #1f77b4; stroke-width: 1.5"/>
    <path d="M 169.102884 53.985103 
L 169.102884 74.840276 
" clip-path="url(#p442ef6060c)" style="fill: none; stroke: #1f77b4; stroke-width: 1.5"/>
    <path d="M 184.534326 53.985103 
L 184.534326 74.840276 
" clip-path="url(#p442ef6060c)" style="fill: none; stroke: #1f77b4; stroke-width: 1.5"/>
    <path d="M 187.106233 53.985103 
L 187.106233 74.840276 
" clip-path="url(#p442ef6060c)" style="fill: none; stroke: #1f77b4; stroke-width: 1.5"/>
    <path d="M 197.39386 53.985103 
L 197.39386 74.840276 
" clip-path="url(#p442ef6060c)" style="fill: none; stroke: #1f77b4; stroke-width: 1.5"/>
    <path d="M 202.537674 53.985103 
L 202.537674 74.840276 
" clip-path="url(#p442ef6060c)" style="fill: none; stroke: #1f77b4; stroke-width: 1.5"/>
    <path d="M 207.681488 53.985103 
L 207.681488 74.840276 
" clip-path="url(#p442ef6060c)" style="fill: none; stroke: #1f77b4; stroke-width: 1.5"/>
    <path d="M 210.253395 53.985103 
L 210.253395 74.840276 
" clip-path="url(#p442ef6060c)" style="fill: none; stroke: #1f77b4; stroke-width: 1.5"/>
    <path d="M 212.825302 53.985103 
L 212.825302 74.840276 
" clip-path="url(#p442ef6060c)" style="fill: none; stroke: #1f77b4; stroke-width: 1.5"/>
    <path d="M 225.684837 53.985103 
L 225.684837 74.840276 
" clip-path="url(#p442ef6060c)" style="fill: none; stroke: #1f77b4; stroke-width: 1.5"/>
    <path d="M 238.544372 53.985103 
L 238.544372 74.840276 
" clip-path="url(#p442ef6060c)" style="fill: none; stroke: #1f77b4; stroke-width: 1.5"/>
    <path d="M 269.407256 53.985103 
L 269.407256 74.840276 
" clip-path="url(#p442ef6060c)" style="fill: none; stroke: #1f77b4; stroke-width: 1.5"/>
    <path d="M 277.122977 53.985103 
L 277.122977 74.840276 
" clip-path="url(#p442ef6060c)" style="fill: none; stroke: #1f77b4; stroke-width: 1.5"/>
    <path d="M 289.982512 53.985103 
L 289.982512 74.840276 
" clip-path="url(#p442ef6060c)" style="fill: none; stroke: #1f77b4; stroke-width: 1.5"/>
    <path d="M 300.27014 53.985103 
L 300.27014 74.840276 
" clip-path="url(#p442ef6060c)" style="fill: none; stroke: #1f77b4; stroke-width: 1.5"/>
    <path d="M 302.842047 53.985103 
L 302.842047 74.840276 
" clip-path="url(#p442ef6060c)" style="fill: none; stroke: #1f77b4; stroke-width: 1.5"/>
    <path d="M 328.561116 53.985103 
L 328.561116 74.840276 
" clip-path="url(#p442ef6060c)" style="fill: none; stroke: #1f77b4; stroke-width: 1.5"/>
    <path d="M 343.992558 53.985103 
L 343.992558 74.840276 
" clip-path="url(#p442ef6060c)" style="fill: none; stroke: #1f77b4; stroke-width: 1.5"/>
    <path d="M 351.708279 53.985103 
L 351.708279 74.840276 
" clip-path="url(#p442ef6060c)" style="fill: none; stroke: #1f77b4; stroke-width: 1.5"/>
    <path d="M 356.852093 53.985103 
L 356.852093 74.840276 
" clip-path="url(#p442ef6060c)" style="fill: none; stroke: #1f77b4; stroke-width: 1.5"/>
    <path d="M 361.995907 53.985103 
L 361.995907 74.840276 
" clip-path="url(#p442ef6060c)" style="fill: none; stroke: #1f77b4; stroke-width: 1.5"/>
    <path d="M 364.567814 53.985103 
L 364.567814 74.840276 
" clip-path="url(#p442ef6060c)" style="fill: none; stroke: #1f77b4; stroke-width: 1.5"/>
    <path d="M 369.711628 53.985103 
L 369.711628 74.840276 
" clip-path="url(#p442ef6060c)" style="fill: none; stroke: #1f77b4; stroke-width: 1.5"/>
    <path d="M 377.427349 53.985103 
L 377.427349 74.840276 
" clip-path="url(#p442ef6060c)" style="fill: none; stroke: #1f77b4; stroke-width: 1.5"/>
    <path d="M 392.858791 53.985103 
L 392.858791 74.840276 
" clip-path="url(#p442ef6060c)" style="fill: none; stroke: #1f77b4; stroke-width: 1.5"/>
    <path d="M 405.718326 53.985103 
L 405.718326 74.840276 
" clip-path="url(#p442ef6060c)" style="fill: none; stroke: #1f77b4; stroke-width: 1.5"/>
    <path d="M 408.290233 53.985103 
L 408.290233 74.840276 
" clip-path="url(#p442ef6060c)" style="fill: none; stroke: #1f77b4; stroke-width: 1.5"/>
   </g>
   <g id="patch_3">
    <path d="M 82.944 87.353379 
L 82.944 41.472 
" style="fill: none; stroke: #000000; stroke-width: 0.8; stroke-linejoin: miter; stroke-linecap: square"/>
   </g>
   <g id="patch_4">
    <path d="M 414.72 87.353379 
L 414.72 41.472 
" style="fill: none; stroke: #000000; stroke-width: 0.8; stroke-linejoin: miter; stroke-linecap: square"/>
   </g>
   <g id="patch_5">
    <path d="M 82.944 87.353379 
L 414.72 87.353379 
" style="fill: none; stroke: #000000; stroke-width: 0.8; stroke-linejoin: miter; stroke-linecap: square"/>
   </g>
   <g id="patch_6">
    <path d="M 82.944 41.472 
L 414.72 41.472 
" style="fill: none; stroke: #000000; stroke-width: 0.8; stroke-linejoin: miter; stroke-linecap: square"/>
   </g>
  </g>
  <g id="axes_2">
   <g id="patch_7">
    <path d="M 82.944 142.411034 
L 414.72 142.411034 
L 414.72 96.529655 
L 82.944 96.529655 
z
" style="fill: #ffffff"/>
   </g>
   <g id="matplotlib.axis_3"/>
   <g id="matplotlib.axis_4">
    <g id="ytick_1">
     <g id="line2d_1">
      <defs>
       <path id="m4e62c29088" d="M 0 0 
L -3.5 0 
" style="stroke: #000000; stroke-width: 0.8"/>
      </defs>
      <g>
       <use xlink:href="#m4e62c29088" x="82.944" y="140.325517" style="stroke: #000000; stroke-width: 0.8"/>
      </g>
     </g>
     <g id="text_2">
      <!-- 0.00 -->
      <g transform="translate(53.678375 144.124736) scale(0.1 -0.1)">
       <defs>
        <path id="DejaVuSans-30" d="M 2034 4250 
Q 1547 4250 1301 3770 
Q 1056 3291 1056 2328 
Q 1056 1369 1301 889 
Q 1547 409 2034 409 
Q 2525 409 2770 889 
Q 3016 1369 3016 2328 
Q 3016 3291 2770 3770 
Q 2525 4250 2034 4250 
z
M 2034 4750 
Q 2819 4750 3233 4129 
Q 3647 3509 3647 2328 
Q 3647 1150 3233 529 
Q 2819 -91 2034 -91 
Q 1250 -91 836 529 
Q 422 1150 422 2328 
Q 422 3509 836 4129 
Q 1250 4750 2034 4750 
z
" transform="scale(0.015625)"/>
        <path id="DejaVuSans-2e" d="M 684 794 
L 1344 794 
L 1344 0 
L 684 0 
L 684 794 
z
" transform="scale(0.015625)"/>
       </defs>
       <use xlink:href="#DejaVuSans-30"/>
       <use xlink:href="#DejaVuSans-2e" x="63.623047"/>
       <use xlink:href="#DejaVuSans-30" x="95.410156"/>
       <use xlink:href="#DejaVuSans-30" x="159.033203"/>
      </g>
     </g>
    </g>
    <g id="ytick_2">
     <g id="line2d_2">
      <g>
       <use xlink:href="#m4e62c29088" x="82.944" y="98.615172" style="stroke: #000000; stroke-width: 0.8"/>
      </g>
     </g>
     <g id="text_3">
      <!-- 1.83 -->
      <g transform="translate(53.678375 102.414391) scale(0.1 -0.1)">
       <defs>
        <path id="DejaVuSans-31" d="M 794 531 
L 1825 531 
L 1825 4091 
L 703 3866 
L 703 4441 
L 1819 4666 
L 2450 4666 
L 2450 531 
L 3481 531 
L 3481 0 
L 794 0 
L 794 531 
z
" transform="scale(0.015625)"/>
        <path id="DejaVuSans-38" d="M 2034 2216 
Q 1584 2216 1326 1975 
Q 1069 1734 1069 1313 
Q 1069 891 1326 650 
Q 1584 409 2034 409 
Q 2484 409 2743 651 
Q 3003 894 3003 1313 
Q 3003 1734 2745 1975 
Q 2488 2216 2034 2216 
z
M 1403 2484 
Q 997 2584 770 2862 
Q 544 3141 544 3541 
Q 544 4100 942 4425 
Q 1341 4750 2034 4750 
Q 2731 4750 3128 4425 
Q 3525 4100 3525 3541 
Q 3525 3141 3298 2862 
Q 3072 2584 2669 2484 
Q 3125 2378 3379 2068 
Q 3634 1759 3634 1313 
Q 3634 634 3220 271 
Q 2806 -91 2034 -91 
Q 1263 -91 848 271 
Q 434 634 434 1313 
Q 434 1759 690 2068 
Q 947 2378 1403 2484 
z
M 1172 3481 
Q 1172 3119 1398 2916 
Q 1625 2713 2034 2713 
Q 2441 2713 2670 2916 
Q 2900 3119 2900 3481 
Q 2900 3844 2670 4047 
Q 2441 4250 2034 4250 
Q 1625 4250 1398 4047 
Q 1172 3844 1172 3481 
z
" transform="scale(0.015625)"/>
        <path id="DejaVuSans-33" d="M 2597 2516 
Q 3050 2419 3304 2112 
Q 3559 1806 3559 1356 
Q 3559 666 3084 287 
Q 2609 -91 1734 -91 
Q 1441 -91 1130 -33 
Q 819 25 488 141 
L 488 750 
Q 750 597 1062 519 
Q 1375 441 1716 441 
Q 2309 441 2620 675 
Q 2931 909 2931 1356 
Q 2931 1769 2642 2001 
Q 2353 2234 1838 2234 
L 1294 2234 
L 1294 2753 
L 1863 2753 
Q 2328 2753 2575 2939 
Q 2822 3125 2822 3475 
Q 2822 3834 2567 4026 
Q 2313 4219 1838 4219 
Q 1578 4219 1281 4162 
Q 984 4106 628 3988 
L 628 4550 
Q 988 4650 1302 4700 
Q 1616 4750 1894 4750 
Q 2613 4750 3031 4423 
Q 3450 4097 3450 3541 
Q 3450 3153 3228 2886 
Q 3006 2619 2597 2516 
z
" transform="scale(0.015625)"/>
       </defs>
       <use xlink:href="#DejaVuSans-31"/>
       <use xlink:href="#DejaVuSans-2e" x="63.623047"/>
       <use xlink:href="#DejaVuSans-38" x="95.410156"/>
       <use xlink:href="#DejaVuSans-33" x="159.033203"/>
      </g>
     </g>
    </g>
    <g id="text_4">
     <!-- $tr_{pre}$ -->
     <g transform="translate(39.678375 116.370345) scale(0.1 -0.1)">
      <defs>
       <path id="DejaVuSans-Oblique-74" d="M 2706 3500 
L 2619 3053 
L 1472 3053 
L 1100 1153 
Q 1081 1047 1072 975 
Q 1063 903 1063 863 
Q 1063 663 1183 572 
Q 1303 481 1569 481 
L 2150 481 
L 2053 0 
L 1503 0 
Q 991 0 739 200 
Q 488 400 488 806 
Q 488 878 497 964 
Q 506 1050 525 1153 
L 897 3053 
L 409 3053 
L 500 3500 
L 978 3500 
L 1172 4494 
L 1747 4494 
L 1556 3500 
L 2706 3500 
z
" transform="scale(0.015625)"/>
       <path id="DejaVuSans-Oblique-72" d="M 2853 2969 
Q 2766 3016 2653 3041 
Q 2541 3066 2413 3066 
Q 1953 3066 1609 2717 
Q 1266 2369 1153 1784 
L 800 0 
L 225 0 
L 909 3500 
L 1484 3500 
L 1375 2956 
Q 1603 3259 1920 3421 
Q 2238 3584 2597 3584 
Q 2691 3584 2781 3573 
Q 2872 3563 2963 3538 
L 2853 2969 
z
" transform="scale(0.015625)"/>
       <path id="DejaVuSans-Oblique-70" d="M 3175 2156 
Q 3175 2616 2975 2859 
Q 2775 3103 2400 3103 
Q 2144 3103 1911 2972 
Q 1678 2841 1497 2591 
Q 1319 2344 1212 1994 
Q 1106 1644 1106 1300 
Q 1106 863 1306 627 
Q 1506 391 1875 391 
Q 2147 391 2380 519 
Q 2613 647 2778 891 
Q 2956 1147 3065 1494 
Q 3175 1841 3175 2156 
z
M 1394 2969 
Q 1625 3272 1939 3428 
Q 2253 3584 2638 3584 
Q 3175 3584 3472 3232 
Q 3769 2881 3769 2247 
Q 3769 1728 3584 1258 
Q 3400 788 3053 416 
Q 2822 169 2531 39 
Q 2241 -91 1919 -91 
Q 1547 -91 1294 64 
Q 1041 219 916 525 
L 556 -1331 
L -19 -1331 
L 922 3500 
L 1497 3500 
L 1394 2969 
z
" transform="scale(0.015625)"/>
       <path id="DejaVuSans-Oblique-65" d="M 3078 2063 
Q 3088 2113 3092 2166 
Q 3097 2219 3097 2272 
Q 3097 2653 2873 2875 
Q 2650 3097 2266 3097 
Q 1838 3097 1509 2826 
Q 1181 2556 1013 2059 
L 3078 2063 
z
M 3578 1613 
L 903 1613 
Q 884 1494 878 1425 
Q 872 1356 872 1306 
Q 872 872 1139 634 
Q 1406 397 1894 397 
Q 2269 397 2603 481 
Q 2938 566 3225 728 
L 3116 159 
Q 2806 34 2476 -28 
Q 2147 -91 1806 -91 
Q 1078 -91 686 257 
Q 294 606 294 1247 
Q 294 1794 489 2264 
Q 684 2734 1063 3103 
Q 1306 3334 1642 3459 
Q 1978 3584 2356 3584 
Q 2950 3584 3301 3228 
Q 3653 2872 3653 2272 
Q 3653 2128 3634 1964 
Q 3616 1800 3578 1613 
z
" transform="scale(0.015625)"/>
      </defs>
      <use xlink:href="#DejaVuSans-Oblique-74" transform="translate(0 0.78125)"/>
      <use xlink:href="#DejaVuSans-Oblique-72" transform="translate(39.208984 0.78125)"/>
      <use xlink:href="#DejaVuSans-Oblique-70" transform="translate(80.322266 -15.625) scale(0.7)"/>
      <use xlink:href="#DejaVuSans-Oblique-72" transform="translate(124.755859 -15.625) scale(0.7)"/>
      <use xlink:href="#DejaVuSans-Oblique-65" transform="translate(153.535156 -15.625) scale(0.7)"/>
     </g>
    </g>
   </g>
   <g id="line2d_3">
    <path d="M 84.229953 140.325517 
L 97.089488 140.325517 
L 99.661395 117.528033 
L 102.233302 106.129291 
L 104.805209 123.227404 
L 107.377116 131.776461 
L 109.949023 113.253505 
L 112.52093 103.992027 
L 115.092837 122.158772 
L 117.664744 131.242145 
L 120.236651 135.783831 
L 122.808558 138.054674 
L 125.380465 116.392611 
L 127.952372 128.359064 
L 130.524279 111.544806 
L 133.096186 125.935162 
L 135.668093 110.332855 
L 138.24 125.329186 
L 140.811907 132.827352 
L 143.383814 136.576434 
L 145.955721 138.450976 
L 148.527628 139.388247 
L 151.099535 139.856882 
L 153.671442 140.0912 
L 156.243349 117.410874 
L 158.815256 106.070711 
L 161.387163 100.400629 
L 163.95907 120.363073 
L 166.530977 107.546812 
L 169.102884 101.13868 
L 171.674791 120.732099 
L 174.246698 130.528808 
L 176.818605 135.427163 
L 179.390512 137.87634 
L 181.962419 139.100929 
L 184.534326 116.915739 
L 187.106233 105.823145 
L 189.67814 123.074331 
L 192.250047 131.699924 
L 194.821953 136.012721 
L 197.39386 115.371634 
L 199.965767 127.848575 
L 202.537674 111.289563 
L 205.109581 125.80754 
L 207.681488 110.269044 
L 210.253395 102.499796 
L 212.825302 98.615172 
L 215.397209 119.470345 
L 217.969116 129.897931 
L 220.541023 135.111724 
L 223.11293 137.718621 
L 225.684837 116.224586 
L 228.256744 128.275052 
L 230.828651 134.300284 
L 233.400558 137.312901 
L 235.972465 138.819209 
L 238.544372 116.774879 
L 241.116279 128.550198 
L 243.688186 134.437858 
L 246.260093 137.381687 
L 248.832 138.853602 
L 251.403907 139.58956 
L 253.975814 139.957539 
L 259.119628 140.233523 
L 266.835349 140.314018 
L 269.407256 117.522282 
L 271.979163 128.9239 
L 274.55107 134.624708 
L 277.122977 114.67763 
L 279.694884 127.501574 
L 282.266791 133.913545 
L 284.838698 137.119531 
L 287.410605 138.722524 
L 289.982512 116.726537 
L 292.554419 128.526027 
L 295.126326 134.425772 
L 297.698233 137.375645 
L 300.27014 116.053098 
L 302.842047 105.391823 
L 305.413953 122.85867 
L 307.98586 131.592094 
L 310.557767 135.958805 
L 313.129674 138.142161 
L 315.701581 139.233839 
L 318.273488 139.779678 
L 320.845395 140.052598 
L 325.989209 140.257287 
L 328.561116 117.493918 
L 331.133023 128.909718 
L 333.70493 134.617617 
L 336.276837 137.471567 
L 338.848744 138.898542 
L 341.420651 139.61203 
L 343.992558 117.17129 
L 346.564465 128.748403 
L 349.136372 134.53696 
L 351.708279 114.633756 
L 354.280186 127.479636 
L 356.852093 111.105092 
L 359.424 125.715305 
L 361.995907 110.222925 
L 364.567814 102.476737 
L 367.139721 121.401127 
L 369.711628 108.065838 
L 372.283535 124.195678 
L 374.855442 132.260598 
L 377.427349 113.495573 
L 379.999256 126.910545 
L 382.571163 133.618031 
L 385.14307 136.971774 
L 387.714977 138.648646 
L 390.286884 139.487081 
L 392.858791 117.108816 
L 395.430698 128.717166 
L 398.002605 134.521342 
L 400.574512 137.42343 
L 403.146419 138.874473 
L 405.718326 116.802512 
L 408.290233 105.76653 
L 410.86214 123.046024 
L 410.86214 123.046024 
" clip-path="url(#p65dcf71a17)" style="fill: none; stroke: #ff7f0e; stroke-width: 1.5; stroke-linecap: square"/>
   </g>
   <g id="patch_8">
    <path d="M 82.944 142.411034 
L 82.944 96.529655 
" style="fill: none; stroke: #000000; stroke-width: 0.8; stroke-linejoin: miter; stroke-linecap: square"/>
   </g>
   <g id="patch_9">
    <path d="M 414.72 142.411034 
L 414.72 96.529655 
" style="fill: none; stroke: #000000; stroke-width: 0.8; stroke-linejoin: miter; stroke-linecap: square"/>
   </g>
   <g id="patch_10">
    <path d="M 82.944 142.411034 
L 414.72 142.411034 
" style="fill: none; stroke: #000000; stroke-width: 0.8; stroke-linejoin: miter; stroke-linecap: square"/>
   </g>
   <g id="patch_11">
    <path d="M 82.944 96.529655 
L 414.72 96.529655 
" style="fill: none; stroke: #000000; stroke-width: 0.8; stroke-linejoin: miter; stroke-linecap: square"/>
   </g>
  </g>
  <g id="axes_3">
   <g id="patch_12">
    <path d="M 82.944 197.46869 
L 414.72 197.46869 
L 414.72 151.58731 
L 82.944 151.58731 
z
" style="fill: #ffffff"/>
   </g>
   <g id="matplotlib.axis_5"/>
   <g id="matplotlib.axis_6">
    <g id="text_5">
     <!-- $s[j]$ -->
     <g transform="translate(61.544 172.428) scale(0.1 -0.1)">
      <defs>
       <path id="DejaVuSans-Oblique-6a" d="M 928 3500 
L 1503 3500 
L 813 -63 
L 809 -78 
Q 694 -675 544 -897 
Q 403 -1106 132 -1218 
Q -138 -1331 -506 -1331 
L -722 -1331 
L -628 -844 
L -481 -844 
Q -144 -844 -1 -703 
Q 141 -563 238 -63 
L 928 3500 
z
M 1197 4863 
L 1772 4863 
L 1631 4134 
L 1056 4134 
L 1197 4863 
z
" transform="scale(0.015625)"/>
      </defs>
      <use xlink:href="#DejaVuSans-Oblique-73" transform="translate(0 0.015625)"/>
      <use xlink:href="#DejaVuSans-5b" transform="translate(52.099609 0.015625)"/>
      <use xlink:href="#DejaVuSans-Oblique-6a" transform="translate(91.113281 0.015625)"/>
      <use xlink:href="#DejaVuSans-5d" transform="translate(118.896484 0.015625)"/>
     </g>
    </g>
   </g>
   <g id="EventCollection_2">
    <path d="M 89.373767 164.100414 
L 89.373767 184.955586 
" clip-path="url(#p2ee9d2f0f7)" style="fill: none; stroke: #2ca02c; stroke-width: 1.5"/>
    <path d="M 91.945674 164.100414 
L 91.945674 184.955586 
" clip-path="url(#p2ee9d2f0f7)" style="fill: none; stroke: #2ca02c; stroke-width: 1.5"/>
    <path d="M 97.089488 164.100414 
L 97.089488 184.955586 
" clip-path="url(#p2ee9d2f0f7)" style="fill: none; stroke: #2ca02c; stroke-width: 1.5"/>
    <path d="M 102.233302 164.100414 
L 102.233302 184.955586 
" clip-path="url(#p2ee9d2f0f7)" style="fill: none; stroke: #2ca02c; stroke-width: 1.5"/>
    <path d="M 112.52093 164.100414 
L 112.52093 184.955586 
" clip-path="url(#p2ee9d2f0f7)" style="fill: none; stroke: #2ca02c; stroke-width: 1.5"/>
    <path d="M 125.380465 164.100414 
L 125.380465 184.955586 
" clip-path="url(#p2ee9d2f0f7)" style="fill: none; stroke: #2ca02c; stroke-width: 1.5"/>
    <path d="M 135.668093 164.100414 
L 135.668093 184.955586 
" clip-path="url(#p2ee9d2f0f7)" style="fill: none; stroke: #2ca02c; stroke-width: 1.5"/>
    <path d="M 140.811907 164.100414 
L 140.811907 184.955586 
" clip-path="url(#p2ee9d2f0f7)" style="fill: none; stroke: #2ca02c; stroke-width: 1.5"/>
    <path d="M 151.099535 164.100414 
L 151.099535 184.955586 
" clip-path="url(#p2ee9d2f0f7)" style="fill: none; stroke: #2ca02c; stroke-width: 1.5"/>
    <path d="M 158.815256 164.100414 
L 158.815256 184.955586 
" clip-path="url(#p2ee9d2f0f7)" style="fill: none; stroke: #2ca02c; stroke-width: 1.5"/>
    <path d="M 163.95907 164.100414 
L 163.95907 184.955586 
" clip-path="url(#p2ee9d2f0f7)" style="fill: none; stroke: #2ca02c; stroke-width: 1.5"/>
    <path d="M 171.674791 164.100414 
L 171.674791 184.955586 
" clip-path="url(#p2ee9d2f0f7)" style="fill: none; stroke: #2ca02c; stroke-width: 1.5"/>
    <path d="M 184.534326 164.100414 
L 184.534326 184.955586 
" clip-path="url(#p2ee9d2f0f7)" style="fill: none; stroke: #2ca02c; stroke-width: 1.5"/>
    <path d="M 189.67814 164.100414 
L 189.67814 184.955586 
" clip-path="url(#p2ee9d2f0f7)" style="fill: none; stroke: #2ca02c; stroke-width: 1.5"/>
    <path d="M 197.39386 164.100414 
L 197.39386 184.955586 
" clip-path="url(#p2ee9d2f0f7)" style="fill: none; stroke: #2ca02c; stroke-width: 1.5"/>
    <path d="M 202.537674 164.100414 
L 202.537674 184.955586 
" clip-path="url(#p2ee9d2f0f7)" style="fill: none; stroke: #2ca02c; stroke-width: 1.5"/>
    <path d="M 207.681488 164.100414 
L 207.681488 184.955586 
" clip-path="url(#p2ee9d2f0f7)" style="fill: none; stroke: #2ca02c; stroke-width: 1.5"/>
    <path d="M 210.253395 164.100414 
L 210.253395 184.955586 
" clip-path="url(#p2ee9d2f0f7)" style="fill: none; stroke: #2ca02c; stroke-width: 1.5"/>
    <path d="M 220.541023 164.100414 
L 220.541023 184.955586 
" clip-path="url(#p2ee9d2f0f7)" style="fill: none; stroke: #2ca02c; stroke-width: 1.5"/>
    <path d="M 225.684837 164.100414 
L 225.684837 184.955586 
" clip-path="url(#p2ee9d2f0f7)" style="fill: none; stroke: #2ca02c; stroke-width: 1.5"/>
    <path d="M 233.400558 164.100414 
L 233.400558 184.955586 
" clip-path="url(#p2ee9d2f0f7)" style="fill: none; stroke: #2ca02c; stroke-width: 1.5"/>
    <path d="M 235.972465 164.100414 
L 235.972465 184.955586 
" clip-path="url(#p2ee9d2f0f7)" style="fill: none; stroke: #2ca02c; stroke-width: 1.5"/>
    <path d="M 241.116279 164.100414 
L 241.116279 184.955586 
" clip-path="url(#p2ee9d2f0f7)" style="fill: none; stroke: #2ca02c; stroke-width: 1.5"/>
    <path d="M 248.832 164.100414 
L 248.832 184.955586 
" clip-path="url(#p2ee9d2f0f7)" style="fill: none; stroke: #2ca02c; stroke-width: 1.5"/>
    <path d="M 261.691535 164.100414 
L 261.691535 184.955586 
" clip-path="url(#p2ee9d2f0f7)" style="fill: none; stroke: #2ca02c; stroke-width: 1.5"/>
    <path d="M 269.407256 164.100414 
L 269.407256 184.955586 
" clip-path="url(#p2ee9d2f0f7)" style="fill: none; stroke: #2ca02c; stroke-width: 1.5"/>
    <path d="M 271.979163 164.100414 
L 271.979163 184.955586 
" clip-path="url(#p2ee9d2f0f7)" style="fill: none; stroke: #2ca02c; stroke-width: 1.5"/>
    <path d="M 277.122977 164.100414 
L 277.122977 184.955586 
" clip-path="url(#p2ee9d2f0f7)" style="fill: none; stroke: #2ca02c; stroke-width: 1.5"/>
    <path d="M 284.838698 164.100414 
L 284.838698 184.955586 
" clip-path="url(#p2ee9d2f0f7)" style="fill: none; stroke: #2ca02c; stroke-width: 1.5"/>
    <path d="M 289.982512 164.100414 
L 289.982512 184.955586 
" clip-path="url(#p2ee9d2f0f7)" style="fill: none; stroke: #2ca02c; stroke-width: 1.5"/>
    <path d="M 297.698233 164.100414 
L 297.698233 184.955586 
" clip-path="url(#p2ee9d2f0f7)" style="fill: none; stroke: #2ca02c; stroke-width: 1.5"/>
    <path d="M 302.842047 164.100414 
L 302.842047 184.955586 
" clip-path="url(#p2ee9d2f0f7)" style="fill: none; stroke: #2ca02c; stroke-width: 1.5"/>
    <path d="M 310.557767 164.100414 
L 310.557767 184.955586 
" clip-path="url(#p2ee9d2f0f7)" style="fill: none; stroke: #2ca02c; stroke-width: 1.5"/>
    <path d="M 318.273488 164.100414 
L 318.273488 184.955586 
" clip-path="url(#p2ee9d2f0f7)" style="fill: none; stroke: #2ca02c; stroke-width: 1.5"/>
    <path d="M 328.561116 164.100414 
L 328.561116 184.955586 
" clip-path="url(#p2ee9d2f0f7)" style="fill: none; stroke: #2ca02c; stroke-width: 1.5"/>
    <path d="M 338.848744 164.100414 
L 338.848744 184.955586 
" clip-path="url(#p2ee9d2f0f7)" style="fill: none; stroke: #2ca02c; stroke-width: 1.5"/>
    <path d="M 343.992558 164.100414 
L 343.992558 184.955586 
" clip-path="url(#p2ee9d2f0f7)" style="fill: none; stroke: #2ca02c; stroke-width: 1.5"/>
    <path d="M 351.708279 164.100414 
L 351.708279 184.955586 
" clip-path="url(#p2ee9d2f0f7)" style="fill: none; stroke: #2ca02c; stroke-width: 1.5"/>
    <path d="M 356.852093 164.100414 
L 356.852093 184.955586 
" clip-path="url(#p2ee9d2f0f7)" style="fill: none; stroke: #2ca02c; stroke-width: 1.5"/>
    <path d="M 364.567814 164.100414 
L 364.567814 184.955586 
" clip-path="url(#p2ee9d2f0f7)" style="fill: none; stroke: #2ca02c; stroke-width: 1.5"/>
    <path d="M 369.711628 164.100414 
L 369.711628 184.955586 
" clip-path="url(#p2ee9d2f0f7)" style="fill: none; stroke: #2ca02c; stroke-width: 1.5"/>
    <path d="M 377.427349 164.100414 
L 377.427349 184.955586 
" clip-path="url(#p2ee9d2f0f7)" style="fill: none; stroke: #2ca02c; stroke-width: 1.5"/>
    <path d="M 379.999256 164.100414 
L 379.999256 184.955586 
" clip-path="url(#p2ee9d2f0f7)" style="fill: none; stroke: #2ca02c; stroke-width: 1.5"/>
    <path d="M 392.858791 164.100414 
L 392.858791 184.955586 
" clip-path="url(#p2ee9d2f0f7)" style="fill: none; stroke: #2ca02c; stroke-width: 1.5"/>
    <path d="M 403.146419 164.100414 
L 403.146419 184.955586 
" clip-path="url(#p2ee9d2f0f7)" style="fill: none; stroke: #2ca02c; stroke-width: 1.5"/>
    <path d="M 408.290233 164.100414 
L 408.290233 184.955586 
" clip-path="url(#p2ee9d2f0f7)" style="fill: none; stroke: #2ca02c; stroke-width: 1.5"/>
   </g>
   <g id="patch_13">
    <path d="M 82.944 197.46869 
L 82.944 151.58731 
" style="fill: none; stroke: #000000; stroke-width: 0.8; stroke-linejoin: miter; stroke-linecap: square"/>
   </g>
   <g id="patch_14">
    <path d="M 414.72 197.46869 
L 414.72 151.58731 
" style="fill: none; stroke: #000000; stroke-width: 0.8; stroke-linejoin: miter; stroke-linecap: square"/>
   </g>
   <g id="patch_15">
    <path d="M 82.944 197.46869 
L 414.72 197.46869 
" style="fill: none; stroke: #000000; stroke-width: 0.8; stroke-linejoin: miter; stroke-linecap: square"/>
   </g>
   <g id="patch_16">
    <path d="M 82.944 151.58731 
L 414.72 151.58731 
" style="fill: none; stroke: #000000; stroke-width: 0.8; stroke-linejoin: miter; stroke-linecap: square"/>
   </g>
  </g>
  <g id="axes_4">
   <g id="patch_17">
    <path d="M 82.944 252.526345 
L 414.72 252.526345 
L 414.72 206.644966 
L 82.944 206.644966 
z
" style="fill: #ffffff"/>
   </g>
   <g id="matplotlib.axis_7"/>
   <g id="matplotlib.axis_8">
    <g id="ytick_3">
     <g id="line2d_4">
      <g>
       <use xlink:href="#m4e62c29088" x="82.944" y="250.440828" style="stroke: #000000; stroke-width: 0.8"/>
      </g>
     </g>
     <g id="text_6">
      <!-- 0.000 -->
      <g transform="translate(47.315875 254.240046) scale(0.1 -0.1)">
       <use xlink:href="#DejaVuSans-30"/>
       <use xlink:href="#DejaVuSans-2e" x="63.623047"/>
       <use xlink:href="#DejaVuSans-30" x="95.410156"/>
       <use xlink:href="#DejaVuSans-30" x="159.033203"/>
       <use xlink:href="#DejaVuSans-30" x="222.65625"/>
      </g>
     </g>
    </g>
    <g id="ytick_4">
     <g id="line2d_5">
      <g>
       <use xlink:href="#m4e62c29088" x="82.944" y="208.730483" style="stroke: #000000; stroke-width: 0.8"/>
      </g>
     </g>
     <g id="text_7">
      <!-- 1.661 -->
      <g transform="translate(47.315875 212.529702) scale(0.1 -0.1)">
       <defs>
        <path id="DejaVuSans-36" d="M 2113 2584 
Q 1688 2584 1439 2293 
Q 1191 2003 1191 1497 
Q 1191 994 1439 701 
Q 1688 409 2113 409 
Q 2538 409 2786 701 
Q 3034 994 3034 1497 
Q 3034 2003 2786 2293 
Q 2538 2584 2113 2584 
z
M 3366 4563 
L 3366 3988 
Q 3128 4100 2886 4159 
Q 2644 4219 2406 4219 
Q 1781 4219 1451 3797 
Q 1122 3375 1075 2522 
Q 1259 2794 1537 2939 
Q 1816 3084 2150 3084 
Q 2853 3084 3261 2657 
Q 3669 2231 3669 1497 
Q 3669 778 3244 343 
Q 2819 -91 2113 -91 
Q 1303 -91 875 529 
Q 447 1150 447 2328 
Q 447 3434 972 4092 
Q 1497 4750 2381 4750 
Q 2619 4750 2861 4703 
Q 3103 4656 3366 4563 
z
" transform="scale(0.015625)"/>
       </defs>
       <use xlink:href="#DejaVuSans-31"/>
       <use xlink:href="#DejaVuSans-2e" x="63.623047"/>
       <use xlink:href="#DejaVuSans-36" x="95.410156"/>
       <use xlink:href="#DejaVuSans-36" x="159.033203"/>
       <use xlink:href="#DejaVuSans-31" x="222.65625"/>
      </g>
     </g>
    </g>
    <g id="text_8">
     <!-- $tr_{post}$ -->
     <g transform="translate(31.565875 226.485655) scale(0.1 -0.1)">
      <defs>
       <path id="DejaVuSans-Oblique-6f" d="M 1625 -91 
Q 1009 -91 651 289 
Q 294 669 294 1325 
Q 294 1706 417 2101 
Q 541 2497 738 2766 
Q 1047 3184 1428 3384 
Q 1809 3584 2291 3584 
Q 2888 3584 3255 3212 
Q 3622 2841 3622 2241 
Q 3622 1825 3500 1412 
Q 3378 1000 3181 728 
Q 2875 309 2494 109 
Q 2113 -91 1625 -91 
z
M 891 1344 
Q 891 869 1089 633 
Q 1288 397 1691 397 
Q 2269 397 2648 901 
Q 3028 1406 3028 2181 
Q 3028 2634 2825 2865 
Q 2622 3097 2228 3097 
Q 1903 3097 1650 2945 
Q 1397 2794 1197 2484 
Q 1050 2253 970 1956 
Q 891 1659 891 1344 
z
" transform="scale(0.015625)"/>
      </defs>
      <use xlink:href="#DejaVuSans-Oblique-74" transform="translate(0 0.78125)"/>
      <use xlink:href="#DejaVuSans-Oblique-72" transform="translate(39.208984 0.78125)"/>
      <use xlink:href="#DejaVuSans-Oblique-70" transform="translate(80.322266 -15.625) scale(0.7)"/>
      <use xlink:href="#DejaVuSans-Oblique-6f" transform="translate(124.755859 -15.625) scale(0.7)"/>
      <use xlink:href="#DejaVuSans-Oblique-73" transform="translate(167.583008 -15.625) scale(0.7)"/>
      <use xlink:href="#DejaVuSans-Oblique-74" transform="translate(204.052734 -15.625) scale(0.7)"/>
     </g>
    </g>
   </g>
   <g id="line2d_6">
    <path d="M 84.229953 250.440828 
L 86.80186 250.440828 
L 89.373767 225.331784 
L 91.945674 212.777263 
L 94.517581 231.609045 
L 97.089488 215.915893 
L 99.661395 233.17836 
L 102.233302 216.700551 
L 104.805209 233.570689 
L 107.377116 242.005758 
L 109.949023 246.223293 
L 112.52093 223.223017 
L 115.092837 236.831922 
L 117.664744 243.636375 
L 120.236651 247.038601 
L 122.808558 248.739714 
L 125.380465 224.481228 
L 127.952372 237.461028 
L 130.524279 243.950928 
L 133.096186 247.195878 
L 135.668093 223.709309 
L 138.24 237.075068 
L 140.811907 218.648905 
L 143.383814 234.544866 
L 145.955721 242.492847 
L 148.527628 246.466837 
L 151.099535 223.344788 
L 153.671442 236.892808 
L 156.243349 243.666818 
L 158.815256 221.944778 
L 161.387163 236.192803 
L 163.95907 218.207771 
L 166.530977 234.324299 
L 169.102884 242.382563 
L 171.674791 221.302653 
L 174.246698 235.87174 
L 176.818605 243.156284 
L 179.390512 246.798556 
L 181.962419 248.619692 
L 184.534326 224.421216 
L 187.106233 237.431022 
L 189.67814 218.826882 
L 192.250047 234.633855 
L 194.821953 242.537341 
L 197.39386 221.380043 
L 199.965767 235.910435 
L 202.537674 218.066589 
L 205.109581 234.253709 
L 207.681488 217.238225 
L 210.253395 208.730483 
L 212.825302 229.585655 
L 215.397209 240.013241 
L 217.969116 245.227034 
L 220.541023 222.724886 
L 223.11293 236.582857 
L 225.684837 218.402798 
L 228.256744 234.421813 
L 230.828651 242.43132 
L 233.400558 221.327029 
L 235.972465 210.774887 
L 238.544372 230.607857 
L 241.116279 215.415299 
L 243.688186 232.928063 
L 246.260093 241.684445 
L 248.832 220.953594 
L 251.403907 235.697211 
L 253.975814 243.069019 
L 256.547721 246.754923 
L 259.119628 248.597875 
L 261.691535 224.410309 
L 264.263442 237.425568 
L 266.835349 243.933198 
L 269.407256 222.077968 
L 271.979163 211.150355 
L 274.55107 230.795591 
L 277.122977 215.509167 
L 279.694884 232.974997 
L 282.266791 241.707912 
L 284.838698 220.965327 
L 287.410605 235.703077 
L 289.982512 217.96291 
L 292.554419 234.201869 
L 295.126326 242.321348 
L 297.698233 221.272044 
L 300.27014 235.856436 
L 302.842047 218.039588 
L 305.413953 234.240208 
L 307.98586 242.340518 
L 310.557767 221.281628 
L 313.129674 235.861228 
L 315.701581 243.151028 
L 318.273488 221.686885 
L 320.845395 236.063856 
L 323.417302 243.252342 
L 325.989209 246.846585 
L 328.561116 223.534663 
L 331.133023 236.987745 
L 333.70493 243.714286 
L 336.276837 247.077557 
L 338.848744 223.650148 
L 341.420651 237.045488 
L 343.992558 218.634115 
L 346.564465 234.537471 
L 349.136372 242.489149 
L 351.708279 221.355944 
L 354.280186 235.898386 
L 356.852093 218.060564 
L 359.424 234.250696 
L 361.995907 242.345762 
L 364.567814 221.28425 
L 367.139721 235.862539 
L 369.711628 218.042641 
L 372.283535 234.241734 
L 374.855442 242.341281 
L 377.427349 221.282011 
L 379.999256 210.752378 
L 382.571163 230.596603 
L 385.14307 240.518715 
L 387.714977 245.479771 
L 390.286884 247.960299 
L 392.858791 224.091521 
L 395.430698 237.266174 
L 398.002605 243.853501 
L 400.574512 247.147164 
L 403.146419 223.684953 
L 405.718326 237.06289 
L 408.290233 218.642816 
L 410.86214 234.541822 
L 410.86214 234.541822 
" clip-path="url(#paeac883f98)" style="fill: none; stroke: #d62728; stroke-width: 1.5; stroke-linecap: square"/>
   </g>
   <g id="patch_18">
    <path d="M 82.944 252.526345 
L 82.944 206.644966 
" style="fill: none; stroke: #000000; stroke-width: 0.8; stroke-linejoin: miter; stroke-linecap: square"/>
   </g>
   <g id="patch_19">
    <path d="M 414.72 252.526345 
L 414.72 206.644966 
" style="fill: none; stroke: #000000; stroke-width: 0.8; stroke-linejoin: miter; stroke-linecap: square"/>
   </g>
   <g id="patch_20">
    <path d="M 82.944 252.526345 
L 414.72 252.526345 
" style="fill: none; stroke: #000000; stroke-width: 0.8; stroke-linejoin: miter; stroke-linecap: square"/>
   </g>
   <g id="patch_21">
    <path d="M 82.944 206.644966 
L 414.72 206.644966 
" style="fill: none; stroke: #000000; stroke-width: 0.8; stroke-linejoin: miter; stroke-linecap: square"/>
   </g>
  </g>
  <g id="axes_5">
   <g id="patch_22">
    <path d="M 82.944 307.584 
L 414.72 307.584 
L 414.72 261.702621 
L 82.944 261.702621 
z
" style="fill: #ffffff"/>
   </g>
   <g id="matplotlib.axis_9">
    <g id="xtick_1">
     <g id="line2d_7">
      <defs>
       <path id="m2041b9cb46" d="M 0 0 
L 0 3.5 
" style="stroke: #000000; stroke-width: 0.8"/>
      </defs>
      <g>
       <use xlink:href="#m2041b9cb46" x="84.229953" y="307.584" style="stroke: #000000; stroke-width: 0.8"/>
      </g>
     </g>
     <g id="text_9">
      <!-- 0 -->
      <g transform="translate(81.048703 322.182437) scale(0.1 -0.1)">
       <use xlink:href="#DejaVuSans-30"/>
      </g>
     </g>
    </g>
    <g id="xtick_2">
     <g id="line2d_8">
      <g>
       <use xlink:href="#m2041b9cb46" x="135.668093" y="307.584" style="stroke: #000000; stroke-width: 0.8"/>
      </g>
     </g>
     <g id="text_10">
      <!-- 20 -->
      <g transform="translate(129.305593 322.182437) scale(0.1 -0.1)">
       <defs>
        <path id="DejaVuSans-32" d="M 1228 531 
L 3431 531 
L 3431 0 
L 469 0 
L 469 531 
Q 828 903 1448 1529 
Q 2069 2156 2228 2338 
Q 2531 2678 2651 2914 
Q 2772 3150 2772 3378 
Q 2772 3750 2511 3984 
Q 2250 4219 1831 4219 
Q 1534 4219 1204 4116 
Q 875 4013 500 3803 
L 500 4441 
Q 881 4594 1212 4672 
Q 1544 4750 1819 4750 
Q 2544 4750 2975 4387 
Q 3406 4025 3406 3419 
Q 3406 3131 3298 2873 
Q 3191 2616 2906 2266 
Q 2828 2175 2409 1742 
Q 1991 1309 1228 531 
z
" transform="scale(0.015625)"/>
       </defs>
       <use xlink:href="#DejaVuSans-32"/>
       <use xlink:href="#DejaVuSans-30" x="63.623047"/>
      </g>
     </g>
    </g>
    <g id="xtick_3">
     <g id="line2d_9">
      <g>
       <use xlink:href="#m2041b9cb46" x="187.106233" y="307.584" style="stroke: #000000; stroke-width: 0.8"/>
      </g>
     </g>
     <g id="text_11">
      <!-- 40 -->
      <g transform="translate(180.743733 322.182437) scale(0.1 -0.1)">
       <defs>
        <path id="DejaVuSans-34" d="M 2419 4116 
L 825 1625 
L 2419 1625 
L 2419 4116 
z
M 2253 4666 
L 3047 4666 
L 3047 1625 
L 3713 1625 
L 3713 1100 
L 3047 1100 
L 3047 0 
L 2419 0 
L 2419 1100 
L 313 1100 
L 313 1709 
L 2253 4666 
z
" transform="scale(0.015625)"/>
       </defs>
       <use xlink:href="#DejaVuSans-34"/>
       <use xlink:href="#DejaVuSans-30" x="63.623047"/>
      </g>
     </g>
    </g>
    <g id="xtick_4">
     <g id="line2d_10">
      <g>
       <use xlink:href="#m2041b9cb46" x="238.544372" y="307.584" style="stroke: #000000; stroke-width: 0.8"/>
      </g>
     </g>
     <g id="text_12">
      <!-- 60 -->
      <g transform="translate(232.181872 322.182437) scale(0.1 -0.1)">
       <use xlink:href="#DejaVuSans-36"/>
       <use xlink:href="#DejaVuSans-30" x="63.623047"/>
      </g>
     </g>
    </g>
    <g id="xtick_5">
     <g id="line2d_11">
      <g>
       <use xlink:href="#m2041b9cb46" x="289.982512" y="307.584" style="stroke: #000000; stroke-width: 0.8"/>
      </g>
     </g>
     <g id="text_13">
      <!-- 80 -->
      <g transform="translate(283.620012 322.182437) scale(0.1 -0.1)">
       <use xlink:href="#DejaVuSans-38"/>
       <use xlink:href="#DejaVuSans-30" x="63.623047"/>
      </g>
     </g>
    </g>
    <g id="xtick_6">
     <g id="line2d_12">
      <g>
       <use xlink:href="#m2041b9cb46" x="341.420651" y="307.584" style="stroke: #000000; stroke-width: 0.8"/>
      </g>
     </g>
     <g id="text_14">
      <!-- 100 -->
      <g transform="translate(331.876901 322.182437) scale(0.1 -0.1)">
       <use xlink:href="#DejaVuSans-31"/>
       <use xlink:href="#DejaVuSans-30" x="63.623047"/>
       <use xlink:href="#DejaVuSans-30" x="127.246094"/>
      </g>
     </g>
    </g>
    <g id="xtick_7">
     <g id="line2d_13">
      <g>
       <use xlink:href="#m2041b9cb46" x="392.858791" y="307.584" style="stroke: #000000; stroke-width: 0.8"/>
      </g>
     </g>
     <g id="text_15">
      <!-- 120 -->
      <g transform="translate(383.315041 322.182437) scale(0.1 -0.1)">
       <use xlink:href="#DejaVuSans-31"/>
       <use xlink:href="#DejaVuSans-32" x="63.623047"/>
       <use xlink:href="#DejaVuSans-30" x="127.246094"/>
      </g>
     </g>
    </g>
    <g id="text_16">
     <!-- time-step -->
     <g transform="translate(224.916375 335.860562) scale(0.1 -0.1)">
      <defs>
       <path id="DejaVuSans-74" d="M 1172 4494 
L 1172 3500 
L 2356 3500 
L 2356 3053 
L 1172 3053 
L 1172 1153 
Q 1172 725 1289 603 
Q 1406 481 1766 481 
L 2356 481 
L 2356 0 
L 1766 0 
Q 1100 0 847 248 
Q 594 497 594 1153 
L 594 3053 
L 172 3053 
L 172 3500 
L 594 3500 
L 594 4494 
L 1172 4494 
z
" transform="scale(0.015625)"/>
       <path id="DejaVuSans-69" d="M 603 3500 
L 1178 3500 
L 1178 0 
L 603 0 
L 603 3500 
z
M 603 4863 
L 1178 4863 
L 1178 4134 
L 603 4134 
L 603 4863 
z
" transform="scale(0.015625)"/>
       <path id="DejaVuSans-6d" d="M 3328 2828 
Q 3544 3216 3844 3400 
Q 4144 3584 4550 3584 
Q 5097 3584 5394 3201 
Q 5691 2819 5691 2113 
L 5691 0 
L 5113 0 
L 5113 2094 
Q 5113 2597 4934 2840 
Q 4756 3084 4391 3084 
Q 3944 3084 3684 2787 
Q 3425 2491 3425 1978 
L 3425 0 
L 2847 0 
L 2847 2094 
Q 2847 2600 2669 2842 
Q 2491 3084 2119 3084 
Q 1678 3084 1418 2786 
Q 1159 2488 1159 1978 
L 1159 0 
L 581 0 
L 581 3500 
L 1159 3500 
L 1159 2956 
Q 1356 3278 1631 3431 
Q 1906 3584 2284 3584 
Q 2666 3584 2933 3390 
Q 3200 3197 3328 2828 
z
" transform="scale(0.015625)"/>
       <path id="DejaVuSans-65" d="M 3597 1894 
L 3597 1613 
L 953 1613 
Q 991 1019 1311 708 
Q 1631 397 2203 397 
Q 2534 397 2845 478 
Q 3156 559 3463 722 
L 3463 178 
Q 3153 47 2828 -22 
Q 2503 -91 2169 -91 
Q 1331 -91 842 396 
Q 353 884 353 1716 
Q 353 2575 817 3079 
Q 1281 3584 2069 3584 
Q 2775 3584 3186 3129 
Q 3597 2675 3597 1894 
z
M 3022 2063 
Q 3016 2534 2758 2815 
Q 2500 3097 2075 3097 
Q 1594 3097 1305 2825 
Q 1016 2553 972 2059 
L 3022 2063 
z
" transform="scale(0.015625)"/>
       <path id="DejaVuSans-2d" d="M 313 2009 
L 1997 2009 
L 1997 1497 
L 313 1497 
L 313 2009 
z
" transform="scale(0.015625)"/>
       <path id="DejaVuSans-73" d="M 2834 3397 
L 2834 2853 
Q 2591 2978 2328 3040 
Q 2066 3103 1784 3103 
Q 1356 3103 1142 2972 
Q 928 2841 928 2578 
Q 928 2378 1081 2264 
Q 1234 2150 1697 2047 
L 1894 2003 
Q 2506 1872 2764 1633 
Q 3022 1394 3022 966 
Q 3022 478 2636 193 
Q 2250 -91 1575 -91 
Q 1294 -91 989 -36 
Q 684 19 347 128 
L 347 722 
Q 666 556 975 473 
Q 1284 391 1588 391 
Q 1994 391 2212 530 
Q 2431 669 2431 922 
Q 2431 1156 2273 1281 
Q 2116 1406 1581 1522 
L 1381 1569 
Q 847 1681 609 1914 
Q 372 2147 372 2553 
Q 372 3047 722 3315 
Q 1072 3584 1716 3584 
Q 2034 3584 2315 3537 
Q 2597 3491 2834 3397 
z
" transform="scale(0.015625)"/>
       <path id="DejaVuSans-70" d="M 1159 525 
L 1159 -1331 
L 581 -1331 
L 581 3500 
L 1159 3500 
L 1159 2969 
Q 1341 3281 1617 3432 
Q 1894 3584 2278 3584 
Q 2916 3584 3314 3078 
Q 3713 2572 3713 1747 
Q 3713 922 3314 415 
Q 2916 -91 2278 -91 
Q 1894 -91 1617 61 
Q 1341 213 1159 525 
z
M 3116 1747 
Q 3116 2381 2855 2742 
Q 2594 3103 2138 3103 
Q 1681 3103 1420 2742 
Q 1159 2381 1159 1747 
Q 1159 1113 1420 752 
Q 1681 391 2138 391 
Q 2594 391 2855 752 
Q 3116 1113 3116 1747 
z
" transform="scale(0.015625)"/>
      </defs>
      <use xlink:href="#DejaVuSans-74"/>
      <use xlink:href="#DejaVuSans-69" x="39.208984"/>
      <use xlink:href="#DejaVuSans-6d" x="66.992188"/>
      <use xlink:href="#DejaVuSans-65" x="164.404297"/>
      <use xlink:href="#DejaVuSans-2d" x="225.927734"/>
      <use xlink:href="#DejaVuSans-73" x="262.011719"/>
      <use xlink:href="#DejaVuSans-74" x="314.111328"/>
      <use xlink:href="#DejaVuSans-65" x="353.320312"/>
      <use xlink:href="#DejaVuSans-70" x="414.84375"/>
     </g>
    </g>
   </g>
   <g id="matplotlib.axis_10">
    <g id="ytick_5">
     <g id="line2d_14">
      <g>
       <use xlink:href="#m4e62c29088" x="82.944" y="305.498483" style="stroke: #000000; stroke-width: 0.8"/>
      </g>
     </g>
     <g id="text_17">
      <!-- 0.38750 -->
      <g transform="translate(34.590875 309.297702) scale(0.1 -0.1)">
       <defs>
        <path id="DejaVuSans-37" d="M 525 4666 
L 3525 4666 
L 3525 4397 
L 1831 0 
L 1172 0 
L 2766 4134 
L 525 4134 
L 525 4666 
z
" transform="scale(0.015625)"/>
        <path id="DejaVuSans-35" d="M 691 4666 
L 3169 4666 
L 3169 4134 
L 1269 4134 
L 1269 2991 
Q 1406 3038 1543 3061 
Q 1681 3084 1819 3084 
Q 2600 3084 3056 2656 
Q 3513 2228 3513 1497 
Q 3513 744 3044 326 
Q 2575 -91 1722 -91 
Q 1428 -91 1123 -41 
Q 819 9 494 109 
L 494 744 
Q 775 591 1075 516 
Q 1375 441 1709 441 
Q 2250 441 2565 725 
Q 2881 1009 2881 1497 
Q 2881 1984 2565 2268 
Q 2250 2553 1709 2553 
Q 1456 2553 1204 2497 
Q 953 2441 691 2322 
L 691 4666 
z
" transform="scale(0.015625)"/>
       </defs>
       <use xlink:href="#DejaVuSans-30"/>
       <use xlink:href="#DejaVuSans-2e" x="63.623047"/>
       <use xlink:href="#DejaVuSans-33" x="95.410156"/>
       <use xlink:href="#DejaVuSans-38" x="159.033203"/>
       <use xlink:href="#DejaVuSans-37" x="222.65625"/>
       <use xlink:href="#DejaVuSans-35" x="286.279297"/>
       <use xlink:href="#DejaVuSans-30" x="349.902344"/>
      </g>
     </g>
    </g>
    <g id="ytick_6">
     <g id="line2d_15">
      <g>
       <use xlink:href="#m4e62c29088" x="82.944" y="263.788138" style="stroke: #000000; stroke-width: 0.8"/>
      </g>
     </g>
     <g id="text_18">
      <!-- 0.42066 -->
      <g transform="translate(34.590875 267.587357) scale(0.1 -0.1)">
       <use xlink:href="#DejaVuSans-30"/>
       <use xlink:href="#DejaVuSans-2e" x="63.623047"/>
       <use xlink:href="#DejaVuSans-34" x="95.410156"/>
       <use xlink:href="#DejaVuSans-32" x="159.033203"/>
       <use xlink:href="#DejaVuSans-30" x="222.65625"/>
       <use xlink:href="#DejaVuSans-36" x="286.279297"/>
       <use xlink:href="#DejaVuSans-36" x="349.902344"/>
      </g>
     </g>
    </g>
    <g id="text_19">
     <!-- $w[i][j]$ -->
     <g transform="translate(15.890875 282.54331) scale(0.1 -0.1)">
      <defs>
       <path id="DejaVuSans-Oblique-77" d="M 544 3500 
L 1113 3500 
L 1259 684 
L 2566 3500 
L 3231 3500 
L 3425 684 
L 4666 3500 
L 5241 3500 
L 3641 0 
L 2969 0 
L 2797 2900 
L 1459 0 
L 781 0 
L 544 3500 
z
" transform="scale(0.015625)"/>
      </defs>
      <use xlink:href="#DejaVuSans-Oblique-77" transform="translate(0 0.015625)"/>
      <use xlink:href="#DejaVuSans-5b" transform="translate(81.787109 0.015625)"/>
      <use xlink:href="#DejaVuSans-Oblique-69" transform="translate(120.800781 0.015625)"/>
      <use xlink:href="#DejaVuSans-5d" transform="translate(148.583984 0.015625)"/>
      <use xlink:href="#DejaVuSans-5b" transform="translate(187.597656 0.015625)"/>
      <use xlink:href="#DejaVuSans-Oblique-6a" transform="translate(226.611328 0.015625)"/>
      <use xlink:href="#DejaVuSans-5d" transform="translate(254.394531 0.015625)"/>
     </g>
    </g>
   </g>
   <g id="line2d_16">
    <path d="M 84.229953 289.773897 
L 97.089488 289.773897 
L 99.661395 301.566258 
L 102.233302 293.311609 
L 104.805209 293.311609 
L 107.377116 291.739297 
L 109.949023 301.910201 
L 112.52093 295.498106 
L 115.092837 292.156938 
L 122.808558 292.156938 
L 125.380465 291.747731 
L 127.952372 291.747731 
L 130.524279 294.998894 
L 133.096186 294.972803 
L 135.668093 291.815657 
L 138.24 295.38186 
L 140.811907 291.244732 
L 143.383814 288.098458 
L 148.527628 288.098458 
L 153.671442 287.643217 
L 156.243349 291.03668 
L 158.815256 286.411848 
L 161.387163 293.549463 
L 163.95907 282.535179 
L 166.530977 290.608842 
L 169.102884 294.642618 
L 171.674791 283.831963 
L 174.246698 287.029032 
L 176.818605 280.739407 
L 181.962419 280.739407 
L 184.534326 282.629871 
L 187.106233 283.350894 
L 189.67814 264.202106 
L 194.821953 264.202106 
L 197.39386 263.788138 
L 199.965767 270.682426 
L 202.537674 264.289675 
L 205.109581 264.289675 
L 207.681488 268.345456 
L 210.253395 268.370122 
L 212.825302 278.817642 
L 215.397209 279.31843 
L 217.969116 286.747206 
L 220.541023 283.870499 
L 223.11293 278.931265 
L 225.684837 281.683215 
L 228.256744 281.683215 
L 230.828651 282.870274 
L 233.400558 281.208068 
L 235.972465 280.376947 
L 238.544372 288.662898 
L 241.116279 289.354044 
L 246.260093 289.354044 
L 248.832 286.866526 
L 253.975814 286.866526 
L 256.547721 288.551149 
L 259.119628 282.157199 
L 261.691535 285.645241 
L 266.835349 285.645241 
L 269.407256 285.300137 
L 271.979163 279.009313 
L 274.55107 279.009313 
L 277.122977 283.984497 
L 282.266791 283.984497 
L 284.838698 282.215603 
L 287.410605 282.215603 
L 289.982512 285.064082 
L 295.126326 284.963879 
L 297.698233 291.254329 
L 300.27014 296.205184 
L 302.842047 301.430856 
L 305.413953 301.430856 
L 307.98586 295.924632 
L 310.557767 300.838151 
L 313.129674 296.833764 
L 315.701581 296.833764 
L 318.273488 295.531507 
L 320.845395 303.850747 
L 323.417302 293.151577 
L 325.989209 293.151577 
L 328.561116 298.217555 
L 331.133023 298.217555 
L 333.70493 295.450348 
L 336.276837 302.262652 
L 338.848744 301.475315 
L 341.420651 296.281695 
L 343.992558 299.440077 
L 354.280186 299.51029 
L 356.852093 302.976777 
L 359.424 302.976777 
L 361.995907 303.867128 
L 364.567814 297.590212 
L 367.139721 297.590212 
L 369.711628 297.302913 
L 372.283535 297.302913 
L 374.855442 297.623388 
L 377.427349 305.498483 
L 379.999256 291.887632 
L 385.14307 291.887632 
L 387.714977 289.03473 
L 390.286884 289.03473 
L 392.858791 292.375336 
L 400.574512 292.375336 
L 403.146419 291.574729 
L 405.718326 298.784057 
L 408.290233 289.148578 
L 410.86214 289.148578 
L 410.86214 289.148578 
" clip-path="url(#p9b75ffc0d5)" style="fill: none; stroke: #9467bd; stroke-width: 1.5; stroke-linecap: square"/>
   </g>
   <g id="patch_23">
    <path d="M 82.944 307.584 
L 82.944 261.702621 
" style="fill: none; stroke: #000000; stroke-width: 0.8; stroke-linejoin: miter; stroke-linecap: square"/>
   </g>
   <g id="patch_24">
    <path d="M 414.72 307.584 
L 414.72 261.702621 
" style="fill: none; stroke: #000000; stroke-width: 0.8; stroke-linejoin: miter; stroke-linecap: square"/>
   </g>
   <g id="patch_25">
    <path d="M 82.944 307.584 
L 414.72 307.584 
" style="fill: none; stroke: #000000; stroke-width: 0.8; stroke-linejoin: miter; stroke-linecap: square"/>
   </g>
   <g id="patch_26">
    <path d="M 82.944 261.702621 
L 414.72 261.702621 
" style="fill: none; stroke: #000000; stroke-width: 0.8; stroke-linejoin: miter; stroke-linecap: square"/>
   </g>
  </g>
 </g>
 <defs>
  <clipPath id="p442ef6060c">
   <rect x="82.944" y="41.472" width="331.776" height="45.881379"/>
  </clipPath>
  <clipPath id="p65dcf71a17">
   <rect x="82.944" y="96.529655" width="331.776" height="45.881379"/>
  </clipPath>
  <clipPath id="p2ee9d2f0f7">
   <rect x="82.944" y="151.58731" width="331.776" height="45.881379"/>
  </clipPath>
  <clipPath id="paeac883f98">
   <rect x="82.944" y="206.644966" width="331.776" height="45.881379"/>
  </clipPath>
  <clipPath id="p9b75ffc0d5">
   <rect x="82.944" y="261.702621" width="331.776" height="45.881379"/>
  </clipPath>
 </defs>
</svg>
