<?xml version="1.0" encoding="utf-8" standalone="no"?>
<!DOCTYPE svg PUBLIC "-//W3C//DTD SVG 1.1//EN"
  "http://www.w3.org/Graphics/SVG/1.1/DTD/svg11.dtd">
<svg xmlns:xlink="http://www.w3.org/1999/xlink" width="576pt" height="432pt" viewBox="0 0 576 432" xmlns="http://www.w3.org/2000/svg" version="1.1">
 <metadata>
  <rdf:RDF xmlns:dc="http://purl.org/dc/elements/1.1/" xmlns:cc="http://creativecommons.org/ns#" xmlns:rdf="http://www.w3.org/1999/02/22-rdf-syntax-ns#">
   <cc:Work>
    <dc:type rdf:resource="http://purl.org/dc/dcmitype/StillImage"/>
    <dc:date>2022-10-17T16:36:11.139787</dc:date>
    <dc:format>image/svg+xml</dc:format>
    <dc:creator>
     <cc:Agent>
      <dc:title>Matplotlib v3.5.2, https://matplotlib.org/</dc:title>
     </cc:Agent>
    </dc:creator>
   </cc:Work>
  </rdf:RDF>
 </metadata>
 <defs>
  <style type="text/css">*{stroke-linejoin: round; stroke-linecap: butt}</style>
 </defs>
 <g id="figure_1">
  <g id="patch_1">
   <path d="M 0 432 
L 576 432 
L 576 0 
L 0 0 
z
" style="fill: #ffffff"/>
  </g>
  <g id="axes_1">
   <g id="patch_2">
    <path d="M 72 109.191724 
L 518.4 109.191724 
L 518.4 51.84 
L 72 51.84 
z
" style="fill: #ffffff"/>
   </g>
   <g id="matplotlib.axis_1"/>
   <g id="matplotlib.axis_2">
    <g id="text_1">
     <!-- $s[i]$ -->
     <g transform="translate(50.6 78.436175)scale(0.1 -0.1)">
      <defs>
       <path id="DejaVuSans-Oblique-73" d="M 3200 3397 
L 3091 2853 
Q 2863 2978 2609 3040 
Q 2356 3103 2088 3103 
Q 1634 3103 1373 2948 
Q 1113 2794 1113 2528 
Q 1113 2219 1719 2053 
Q 1766 2041 1788 2034 
L 1972 1978 
Q 2547 1819 2739 1644 
Q 2931 1469 2931 1166 
Q 2931 609 2489 259 
Q 2047 -91 1331 -91 
Q 1053 -91 747 -37 
Q 441 16 72 128 
L 184 722 
Q 500 559 806 475 
Q 1113 391 1394 391 
Q 1816 391 2080 572 
Q 2344 753 2344 1031 
Q 2344 1331 1650 1516 
L 1591 1531 
L 1394 1581 
Q 956 1697 753 1886 
Q 550 2075 550 2369 
Q 550 2928 970 3256 
Q 1391 3584 2113 3584 
Q 2397 3584 2667 3537 
Q 2938 3491 3200 3397 
z
" transform="scale(0.015625)"/>
       <path id="DejaVuSans-5b" d="M 550 4863 
L 1875 4863 
L 1875 4416 
L 1125 4416 
L 1125 -397 
L 1875 -397 
L 1875 -844 
L 550 -844 
L 550 4863 
z
" transform="scale(0.015625)"/>
       <path id="DejaVuSans-Oblique-69" d="M 1172 4863 
L 1747 4863 
L 1606 4134 
L 1031 4134 
L 1172 4863 
z
M 909 3500 
L 1484 3500 
L 800 0 
L 225 0 
L 909 3500 
z
" transform="scale(0.015625)"/>
       <path id="DejaVuSans-5d" d="M 1947 4863 
L 1947 -844 
L 622 -844 
L 622 -397 
L 1369 -397 
L 1369 4416 
L 622 4416 
L 622 4863 
L 1947 4863 
z
" transform="scale(0.015625)"/>
      </defs>
      <use xlink:href="#DejaVuSans-Oblique-73" transform="translate(0 0.015625)"/>
      <use xlink:href="#DejaVuSans-5b" transform="translate(52.099609 0.015625)"/>
      <use xlink:href="#DejaVuSans-Oblique-69" transform="translate(91.113281 0.015625)"/>
      <use xlink:href="#DejaVuSans-5d" transform="translate(118.896484 0.015625)"/>
     </g>
    </g>
   </g>
   <g id="EventCollection_1">
    <path d="M 73.730233 67.481379 
L 73.730233 93.550345 
" clip-path="url(#pdfc9c96f06)" style="fill: none; stroke: #1f77b4; stroke-width: 1.5"/>
    <path d="M 94.493023 67.481379 
L 94.493023 93.550345 
" clip-path="url(#pdfc9c96f06)" style="fill: none; stroke: #1f77b4; stroke-width: 1.5"/>
    <path d="M 129.097674 67.481379 
L 129.097674 93.550345 
" clip-path="url(#pdfc9c96f06)" style="fill: none; stroke: #1f77b4; stroke-width: 1.5"/>
    <path d="M 142.939535 67.481379 
L 142.939535 93.550345 
" clip-path="url(#pdfc9c96f06)" style="fill: none; stroke: #1f77b4; stroke-width: 1.5"/>
    <path d="M 149.860465 67.481379 
L 149.860465 93.550345 
" clip-path="url(#pdfc9c96f06)" style="fill: none; stroke: #1f77b4; stroke-width: 1.5"/>
    <path d="M 160.24186 67.481379 
L 160.24186 93.550345 
" clip-path="url(#pdfc9c96f06)" style="fill: none; stroke: #1f77b4; stroke-width: 1.5"/>
    <path d="M 177.544186 67.481379 
L 177.544186 93.550345 
" clip-path="url(#pdfc9c96f06)" style="fill: none; stroke: #1f77b4; stroke-width: 1.5"/>
    <path d="M 198.306977 67.481379 
L 198.306977 93.550345 
" clip-path="url(#pdfc9c96f06)" style="fill: none; stroke: #1f77b4; stroke-width: 1.5"/>
    <path d="M 201.767442 67.481379 
L 201.767442 93.550345 
" clip-path="url(#pdfc9c96f06)" style="fill: none; stroke: #1f77b4; stroke-width: 1.5"/>
    <path d="M 205.227907 67.481379 
L 205.227907 93.550345 
" clip-path="url(#pdfc9c96f06)" style="fill: none; stroke: #1f77b4; stroke-width: 1.5"/>
    <path d="M 229.451163 67.481379 
L 229.451163 93.550345 
" clip-path="url(#pdfc9c96f06)" style="fill: none; stroke: #1f77b4; stroke-width: 1.5"/>
    <path d="M 232.911628 67.481379 
L 232.911628 93.550345 
" clip-path="url(#pdfc9c96f06)" style="fill: none; stroke: #1f77b4; stroke-width: 1.5"/>
    <path d="M 243.293023 67.481379 
L 243.293023 93.550345 
" clip-path="url(#pdfc9c96f06)" style="fill: none; stroke: #1f77b4; stroke-width: 1.5"/>
    <path d="M 246.753488 67.481379 
L 246.753488 93.550345 
" clip-path="url(#pdfc9c96f06)" style="fill: none; stroke: #1f77b4; stroke-width: 1.5"/>
    <path d="M 257.134884 67.481379 
L 257.134884 93.550345 
" clip-path="url(#pdfc9c96f06)" style="fill: none; stroke: #1f77b4; stroke-width: 1.5"/>
    <path d="M 277.897674 67.481379 
L 277.897674 93.550345 
" clip-path="url(#pdfc9c96f06)" style="fill: none; stroke: #1f77b4; stroke-width: 1.5"/>
    <path d="M 281.35814 67.481379 
L 281.35814 93.550345 
" clip-path="url(#pdfc9c96f06)" style="fill: none; stroke: #1f77b4; stroke-width: 1.5"/>
    <path d="M 291.739535 67.481379 
L 291.739535 93.550345 
" clip-path="url(#pdfc9c96f06)" style="fill: none; stroke: #1f77b4; stroke-width: 1.5"/>
    <path d="M 305.581395 67.481379 
L 305.581395 93.550345 
" clip-path="url(#pdfc9c96f06)" style="fill: none; stroke: #1f77b4; stroke-width: 1.5"/>
    <path d="M 309.04186 67.481379 
L 309.04186 93.550345 
" clip-path="url(#pdfc9c96f06)" style="fill: none; stroke: #1f77b4; stroke-width: 1.5"/>
    <path d="M 322.883721 67.481379 
L 322.883721 93.550345 
" clip-path="url(#pdfc9c96f06)" style="fill: none; stroke: #1f77b4; stroke-width: 1.5"/>
    <path d="M 326.344186 67.481379 
L 326.344186 93.550345 
" clip-path="url(#pdfc9c96f06)" style="fill: none; stroke: #1f77b4; stroke-width: 1.5"/>
    <path d="M 329.804651 67.481379 
L 329.804651 93.550345 
" clip-path="url(#pdfc9c96f06)" style="fill: none; stroke: #1f77b4; stroke-width: 1.5"/>
    <path d="M 350.567442 67.481379 
L 350.567442 93.550345 
" clip-path="url(#pdfc9c96f06)" style="fill: none; stroke: #1f77b4; stroke-width: 1.5"/>
    <path d="M 354.027907 67.481379 
L 354.027907 93.550345 
" clip-path="url(#pdfc9c96f06)" style="fill: none; stroke: #1f77b4; stroke-width: 1.5"/>
    <path d="M 385.172093 67.481379 
L 385.172093 93.550345 
" clip-path="url(#pdfc9c96f06)" style="fill: none; stroke: #1f77b4; stroke-width: 1.5"/>
    <path d="M 388.632558 67.481379 
L 388.632558 93.550345 
" clip-path="url(#pdfc9c96f06)" style="fill: none; stroke: #1f77b4; stroke-width: 1.5"/>
    <path d="M 402.474419 67.481379 
L 402.474419 93.550345 
" clip-path="url(#pdfc9c96f06)" style="fill: none; stroke: #1f77b4; stroke-width: 1.5"/>
    <path d="M 416.316279 67.481379 
L 416.316279 93.550345 
" clip-path="url(#pdfc9c96f06)" style="fill: none; stroke: #1f77b4; stroke-width: 1.5"/>
    <path d="M 419.776744 67.481379 
L 419.776744 93.550345 
" clip-path="url(#pdfc9c96f06)" style="fill: none; stroke: #1f77b4; stroke-width: 1.5"/>
    <path d="M 454.381395 67.481379 
L 454.381395 93.550345 
" clip-path="url(#pdfc9c96f06)" style="fill: none; stroke: #1f77b4; stroke-width: 1.5"/>
    <path d="M 461.302326 67.481379 
L 461.302326 93.550345 
" clip-path="url(#pdfc9c96f06)" style="fill: none; stroke: #1f77b4; stroke-width: 1.5"/>
    <path d="M 464.762791 67.481379 
L 464.762791 93.550345 
" clip-path="url(#pdfc9c96f06)" style="fill: none; stroke: #1f77b4; stroke-width: 1.5"/>
    <path d="M 495.906977 67.481379 
L 495.906977 93.550345 
" clip-path="url(#pdfc9c96f06)" style="fill: none; stroke: #1f77b4; stroke-width: 1.5"/>
   </g>
   <g id="patch_3">
    <path d="M 72 109.191724 
L 72 51.84 
" style="fill: none; stroke: #000000; stroke-width: 0.8; stroke-linejoin: miter; stroke-linecap: square"/>
   </g>
   <g id="patch_4">
    <path d="M 518.4 109.191724 
L 518.4 51.84 
" style="fill: none; stroke: #000000; stroke-width: 0.8; stroke-linejoin: miter; stroke-linecap: square"/>
   </g>
   <g id="patch_5">
    <path d="M 72 109.191724 
L 518.4 109.191724 
" style="fill: none; stroke: #000000; stroke-width: 0.8; stroke-linejoin: miter; stroke-linecap: square"/>
   </g>
   <g id="patch_6">
    <path d="M 72 51.84 
L 518.4 51.84 
" style="fill: none; stroke: #000000; stroke-width: 0.8; stroke-linejoin: miter; stroke-linecap: square"/>
   </g>
  </g>
  <g id="axes_2">
   <g id="patch_7">
    <path d="M 72 178.013793 
L 518.4 178.013793 
L 518.4 120.662069 
L 72 120.662069 
z
" style="fill: #ffffff"/>
   </g>
   <g id="matplotlib.axis_3"/>
   <g id="matplotlib.axis_4">
    <g id="ytick_1">
     <g id="line2d_1">
      <defs>
       <path id="m328aaf5b92" d="M 0 0 
L -3.5 0 
" style="stroke: #000000; stroke-width: 0.8"/>
      </defs>
      <g>
       <use xlink:href="#m328aaf5b92" x="72" y="175.406897" style="stroke: #000000; stroke-width: 0.8"/>
      </g>
     </g>
     <g id="text_2">
      <!-- 0.002 -->
      <g transform="translate(36.371875 179.206115)scale(0.1 -0.1)">
       <defs>
        <path id="DejaVuSans-30" d="M 2034 4250 
Q 1547 4250 1301 3770 
Q 1056 3291 1056 2328 
Q 1056 1369 1301 889 
Q 1547 409 2034 409 
Q 2525 409 2770 889 
Q 3016 1369 3016 2328 
Q 3016 3291 2770 3770 
Q 2525 4250 2034 4250 
z
M 2034 4750 
Q 2819 4750 3233 4129 
Q 3647 3509 3647 2328 
Q 3647 1150 3233 529 
Q 2819 -91 2034 -91 
Q 1250 -91 836 529 
Q 422 1150 422 2328 
Q 422 3509 836 4129 
Q 1250 4750 2034 4750 
z
" transform="scale(0.015625)"/>
        <path id="DejaVuSans-2e" d="M 684 794 
L 1344 794 
L 1344 0 
L 684 0 
L 684 794 
z
" transform="scale(0.015625)"/>
        <path id="DejaVuSans-32" d="M 1228 531 
L 3431 531 
L 3431 0 
L 469 0 
L 469 531 
Q 828 903 1448 1529 
Q 2069 2156 2228 2338 
Q 2531 2678 2651 2914 
Q 2772 3150 2772 3378 
Q 2772 3750 2511 3984 
Q 2250 4219 1831 4219 
Q 1534 4219 1204 4116 
Q 875 4013 500 3803 
L 500 4441 
Q 881 4594 1212 4672 
Q 1544 4750 1819 4750 
Q 2544 4750 2975 4387 
Q 3406 4025 3406 3419 
Q 3406 3131 3298 2873 
Q 3191 2616 2906 2266 
Q 2828 2175 2409 1742 
Q 1991 1309 1228 531 
z
" transform="scale(0.015625)"/>
       </defs>
       <use xlink:href="#DejaVuSans-30"/>
       <use xlink:href="#DejaVuSans-2e" x="63.623047"/>
       <use xlink:href="#DejaVuSans-30" x="95.410156"/>
       <use xlink:href="#DejaVuSans-30" x="159.033203"/>
       <use xlink:href="#DejaVuSans-32" x="222.65625"/>
      </g>
     </g>
    </g>
    <g id="ytick_2">
     <g id="line2d_2">
      <g>
       <use xlink:href="#m328aaf5b92" x="72" y="123.268966" style="stroke: #000000; stroke-width: 0.8"/>
      </g>
     </g>
     <g id="text_3">
      <!-- 1.774 -->
      <g transform="translate(36.371875 127.068184)scale(0.1 -0.1)">
       <defs>
        <path id="DejaVuSans-31" d="M 794 531 
L 1825 531 
L 1825 4091 
L 703 3866 
L 703 4441 
L 1819 4666 
L 2450 4666 
L 2450 531 
L 3481 531 
L 3481 0 
L 794 0 
L 794 531 
z
" transform="scale(0.015625)"/>
        <path id="DejaVuSans-37" d="M 525 4666 
L 3525 4666 
L 3525 4397 
L 1831 0 
L 1172 0 
L 2766 4134 
L 525 4134 
L 525 4666 
z
" transform="scale(0.015625)"/>
        <path id="DejaVuSans-34" d="M 2419 4116 
L 825 1625 
L 2419 1625 
L 2419 4116 
z
M 2253 4666 
L 3047 4666 
L 3047 1625 
L 3713 1625 
L 3713 1100 
L 3047 1100 
L 3047 0 
L 2419 0 
L 2419 1100 
L 313 1100 
L 313 1709 
L 2253 4666 
z
" transform="scale(0.015625)"/>
       </defs>
       <use xlink:href="#DejaVuSans-31"/>
       <use xlink:href="#DejaVuSans-2e" x="63.623047"/>
       <use xlink:href="#DejaVuSans-37" x="95.410156"/>
       <use xlink:href="#DejaVuSans-37" x="159.033203"/>
       <use xlink:href="#DejaVuSans-34" x="222.65625"/>
      </g>
     </g>
    </g>
    <g id="text_4">
     <!-- $tr_{pre}$ -->
     <g transform="translate(22.371875 146.237931)scale(0.1 -0.1)">
      <defs>
       <path id="DejaVuSans-Oblique-74" d="M 2706 3500 
L 2619 3053 
L 1472 3053 
L 1100 1153 
Q 1081 1047 1072 975 
Q 1063 903 1063 863 
Q 1063 663 1183 572 
Q 1303 481 1569 481 
L 2150 481 
L 2053 0 
L 1503 0 
Q 991 0 739 200 
Q 488 400 488 806 
Q 488 878 497 964 
Q 506 1050 525 1153 
L 897 3053 
L 409 3053 
L 500 3500 
L 978 3500 
L 1172 4494 
L 1747 4494 
L 1556 3500 
L 2706 3500 
z
" transform="scale(0.015625)"/>
       <path id="DejaVuSans-Oblique-72" d="M 2853 2969 
Q 2766 3016 2653 3041 
Q 2541 3066 2413 3066 
Q 1953 3066 1609 2717 
Q 1266 2369 1153 1784 
L 800 0 
L 225 0 
L 909 3500 
L 1484 3500 
L 1375 2956 
Q 1603 3259 1920 3421 
Q 2238 3584 2597 3584 
Q 2691 3584 2781 3573 
Q 2872 3563 2963 3538 
L 2853 2969 
z
" transform="scale(0.015625)"/>
       <path id="DejaVuSans-Oblique-70" d="M 3175 2156 
Q 3175 2616 2975 2859 
Q 2775 3103 2400 3103 
Q 2144 3103 1911 2972 
Q 1678 2841 1497 2591 
Q 1319 2344 1212 1994 
Q 1106 1644 1106 1300 
Q 1106 863 1306 627 
Q 1506 391 1875 391 
Q 2147 391 2380 519 
Q 2613 647 2778 891 
Q 2956 1147 3065 1494 
Q 3175 1841 3175 2156 
z
M 1394 2969 
Q 1625 3272 1939 3428 
Q 2253 3584 2638 3584 
Q 3175 3584 3472 3232 
Q 3769 2881 3769 2247 
Q 3769 1728 3584 1258 
Q 3400 788 3053 416 
Q 2822 169 2531 39 
Q 2241 -91 1919 -91 
Q 1547 -91 1294 64 
Q 1041 219 916 525 
L 556 -1331 
L -19 -1331 
L 922 3500 
L 1497 3500 
L 1394 2969 
z
" transform="scale(0.015625)"/>
       <path id="DejaVuSans-Oblique-65" d="M 3078 2063 
Q 3088 2113 3092 2166 
Q 3097 2219 3097 2272 
Q 3097 2653 2873 2875 
Q 2650 3097 2266 3097 
Q 1838 3097 1509 2826 
Q 1181 2556 1013 2059 
L 3078 2063 
z
M 3578 1613 
L 903 1613 
Q 884 1494 878 1425 
Q 872 1356 872 1306 
Q 872 872 1139 634 
Q 1406 397 1894 397 
Q 2269 397 2603 481 
Q 2938 566 3225 728 
L 3116 159 
Q 2806 34 2476 -28 
Q 2147 -91 1806 -91 
Q 1078 -91 686 257 
Q 294 606 294 1247 
Q 294 1794 489 2264 
Q 684 2734 1063 3103 
Q 1306 3334 1642 3459 
Q 1978 3584 2356 3584 
Q 2950 3584 3301 3228 
Q 3653 2872 3653 2272 
Q 3653 2128 3634 1964 
Q 3616 1800 3578 1613 
z
" transform="scale(0.015625)"/>
      </defs>
      <use xlink:href="#DejaVuSans-Oblique-74" transform="translate(0 0.78125)"/>
      <use xlink:href="#DejaVuSans-Oblique-72" transform="translate(39.208984 0.78125)"/>
      <use xlink:href="#DejaVuSans-Oblique-70" transform="translate(80.322266 -15.625)scale(0.7)"/>
      <use xlink:href="#DejaVuSans-Oblique-72" transform="translate(124.755859 -15.625)scale(0.7)"/>
      <use xlink:href="#DejaVuSans-Oblique-65" transform="translate(153.535156 -15.625)scale(0.7)"/>
     </g>
    </g>
   </g>
   <g id="line2d_3">
    <path d="M 73.730233 146.042618 
L 77.190698 160.753939 
L 80.651163 168.1096 
L 84.111628 171.78743 
L 87.572093 173.626345 
L 91.032558 174.545803 
L 94.493023 145.582889 
L 97.953488 160.524075 
L 101.413953 167.994668 
L 104.874419 171.729964 
L 108.334884 173.597612 
L 111.795349 174.531436 
L 115.255814 174.998349 
L 118.716279 175.231805 
L 125.637209 175.406897 
L 129.097674 146.013436 
L 132.55814 160.739348 
L 136.018605 168.102304 
L 139.47907 171.783783 
L 142.939535 144.201879 
L 146.4 159.83357 
L 149.860465 138.226773 
L 153.32093 156.846017 
L 156.781395 166.155639 
L 160.24186 141.387808 
L 163.702326 158.426534 
L 167.162791 166.945897 
L 170.623256 171.205579 
L 174.083721 173.33542 
L 177.544186 144.9777 
L 181.004651 160.22148 
L 184.465116 167.84337 
L 187.925581 171.654315 
L 191.386047 173.559788 
L 194.846512 174.512524 
L 198.306977 145.56625 
L 201.767442 131.093113 
L 205.227907 123.856544 
L 208.688372 149.660903 
L 212.148837 162.563082 
L 215.609302 169.014171 
L 219.069767 172.239716 
L 222.530233 173.852488 
L 225.990698 174.658874 
L 229.451163 145.639426 
L 232.911628 131.129703 
L 236.372093 153.297482 
L 239.832558 164.381371 
L 243.293023 140.500675 
L 246.753488 128.560326 
L 250.213953 152.012793 
L 253.674419 163.739027 
L 257.134884 140.179501 
L 260.595349 157.822381 
L 264.055814 166.643821 
L 267.516279 171.054541 
L 270.976744 173.259901 
L 274.437209 174.362581 
L 277.897674 145.491278 
L 281.35814 131.055625 
L 284.818605 153.260443 
L 288.27907 164.362852 
L 291.739535 140.491416 
L 295.2 157.978338 
L 298.660465 166.721799 
L 302.12093 171.09353 
L 305.581395 143.856753 
L 309.04186 130.238364 
L 312.502326 152.851812 
L 315.962791 164.158537 
L 319.423256 169.811899 
L 322.883721 143.215938 
L 326.344186 129.917955 
L 329.804651 123.268966 
L 333.265116 149.367113 
L 336.725581 162.416187 
L 340.186047 168.940724 
L 343.646512 172.202992 
L 347.106977 173.834126 
L 350.567442 145.227051 
L 354.027907 130.923514 
L 357.488372 153.194387 
L 360.948837 164.329824 
L 364.409302 169.897542 
L 367.869767 172.681401 
L 371.330233 174.073331 
L 374.790698 174.769296 
L 378.251163 175.117278 
L 381.711628 175.291269 
L 385.172093 145.955623 
L 388.632558 131.287798 
L 392.093023 153.376529 
L 395.553488 164.420895 
L 399.013953 169.943078 
L 402.474419 143.281527 
L 405.934884 159.373394 
L 409.395349 167.419327 
L 412.855814 171.442294 
L 416.316279 144.031136 
L 419.776744 130.325556 
L 423.237209 152.895408 
L 426.697674 164.180334 
L 430.15814 169.822798 
L 433.618605 172.644029 
L 437.07907 174.054645 
L 440.539535 174.759953 
L 444 175.112607 
L 450.92093 175.377097 
L 454.381395 145.998537 
L 457.84186 160.731899 
L 461.302326 138.675937 
L 464.762791 127.647957 
L 468.223256 151.556609 
L 471.683721 163.510935 
L 475.144186 169.488098 
L 478.604651 172.476679 
L 482.065116 173.97097 
L 485.525581 174.718115 
L 488.986047 175.091688 
L 492.446512 175.278474 
L 495.906977 145.949225 
L 499.367442 160.707243 
L 502.827907 168.086252 
L 506.288372 171.775756 
L 509.748837 173.620508 
L 513.209302 174.542884 
L 513.209302 174.542884 
" clip-path="url(#p19c3c91dc9)" style="fill: none; stroke: #ff7f0e; stroke-width: 1.5; stroke-linecap: square"/>
   </g>
   <g id="patch_8">
    <path d="M 72 178.013793 
L 72 120.662069 
" style="fill: none; stroke: #000000; stroke-width: 0.8; stroke-linejoin: miter; stroke-linecap: square"/>
   </g>
   <g id="patch_9">
    <path d="M 518.4 178.013793 
L 518.4 120.662069 
" style="fill: none; stroke: #000000; stroke-width: 0.8; stroke-linejoin: miter; stroke-linecap: square"/>
   </g>
   <g id="patch_10">
    <path d="M 72 178.013793 
L 518.4 178.013793 
" style="fill: none; stroke: #000000; stroke-width: 0.8; stroke-linejoin: miter; stroke-linecap: square"/>
   </g>
   <g id="patch_11">
    <path d="M 72 120.662069 
L 518.4 120.662069 
" style="fill: none; stroke: #000000; stroke-width: 0.8; stroke-linejoin: miter; stroke-linecap: square"/>
   </g>
  </g>
  <g id="axes_3">
   <g id="patch_12">
    <path d="M 72 246.835862 
L 518.4 246.835862 
L 518.4 189.484138 
L 72 189.484138 
z
" style="fill: #ffffff"/>
   </g>
   <g id="matplotlib.axis_5"/>
   <g id="matplotlib.axis_6">
    <g id="text_5">
     <!-- $s[j]$ -->
     <g transform="translate(50.6 216.06)scale(0.1 -0.1)">
      <defs>
       <path id="DejaVuSans-Oblique-6a" d="M 928 3500 
L 1503 3500 
L 813 -63 
L 809 -78 
Q 694 -675 544 -897 
Q 403 -1106 132 -1218 
Q -138 -1331 -506 -1331 
L -722 -1331 
L -628 -844 
L -481 -844 
Q -144 -844 -1 -703 
Q 141 -563 238 -63 
L 928 3500 
z
M 1197 4863 
L 1772 4863 
L 1631 4134 
L 1056 4134 
L 1197 4863 
z
" transform="scale(0.015625)"/>
      </defs>
      <use xlink:href="#DejaVuSans-Oblique-73" transform="translate(0 0.015625)"/>
      <use xlink:href="#DejaVuSans-5b" transform="translate(52.099609 0.015625)"/>
      <use xlink:href="#DejaVuSans-Oblique-6a" transform="translate(91.113281 0.015625)"/>
      <use xlink:href="#DejaVuSans-5d" transform="translate(118.896484 0.015625)"/>
     </g>
    </g>
   </g>
   <g id="EventCollection_2">
    <path d="M 129.097674 205.125517 
L 129.097674 231.194483 
" clip-path="url(#p2e1c0dfe52)" style="fill: none; stroke: #2ca02c; stroke-width: 1.5"/>
    <path d="M 160.24186 205.125517 
L 160.24186 231.194483 
" clip-path="url(#p2e1c0dfe52)" style="fill: none; stroke: #2ca02c; stroke-width: 1.5"/>
    <path d="M 201.767442 205.125517 
L 201.767442 231.194483 
" clip-path="url(#p2e1c0dfe52)" style="fill: none; stroke: #2ca02c; stroke-width: 1.5"/>
    <path d="M 232.911628 205.125517 
L 232.911628 231.194483 
" clip-path="url(#p2e1c0dfe52)" style="fill: none; stroke: #2ca02c; stroke-width: 1.5"/>
    <path d="M 257.134884 205.125517 
L 257.134884 231.194483 
" clip-path="url(#p2e1c0dfe52)" style="fill: none; stroke: #2ca02c; stroke-width: 1.5"/>
    <path d="M 291.739535 205.125517 
L 291.739535 231.194483 
" clip-path="url(#p2e1c0dfe52)" style="fill: none; stroke: #2ca02c; stroke-width: 1.5"/>
    <path d="M 322.883721 205.125517 
L 322.883721 231.194483 
" clip-path="url(#p2e1c0dfe52)" style="fill: none; stroke: #2ca02c; stroke-width: 1.5"/>
    <path d="M 350.567442 205.125517 
L 350.567442 231.194483 
" clip-path="url(#p2e1c0dfe52)" style="fill: none; stroke: #2ca02c; stroke-width: 1.5"/>
    <path d="M 388.632558 205.125517 
L 388.632558 231.194483 
" clip-path="url(#p2e1c0dfe52)" style="fill: none; stroke: #2ca02c; stroke-width: 1.5"/>
    <path d="M 419.776744 205.125517 
L 419.776744 231.194483 
" clip-path="url(#p2e1c0dfe52)" style="fill: none; stroke: #2ca02c; stroke-width: 1.5"/>
    <path d="M 464.762791 205.125517 
L 464.762791 231.194483 
" clip-path="url(#p2e1c0dfe52)" style="fill: none; stroke: #2ca02c; stroke-width: 1.5"/>
   </g>
   <g id="patch_13">
    <path d="M 72 246.835862 
L 72 189.484138 
" style="fill: none; stroke: #000000; stroke-width: 0.8; stroke-linejoin: miter; stroke-linecap: square"/>
   </g>
   <g id="patch_14">
    <path d="M 518.4 246.835862 
L 518.4 189.484138 
" style="fill: none; stroke: #000000; stroke-width: 0.8; stroke-linejoin: miter; stroke-linecap: square"/>
   </g>
   <g id="patch_15">
    <path d="M 72 246.835862 
L 518.4 246.835862 
" style="fill: none; stroke: #000000; stroke-width: 0.8; stroke-linejoin: miter; stroke-linecap: square"/>
   </g>
   <g id="patch_16">
    <path d="M 72 189.484138 
L 518.4 189.484138 
" style="fill: none; stroke: #000000; stroke-width: 0.8; stroke-linejoin: miter; stroke-linecap: square"/>
   </g>
  </g>
  <g id="axes_4">
   <g id="patch_17">
    <path d="M 72 315.657931 
L 518.4 315.657931 
L 518.4 258.306207 
L 72 258.306207 
z
" style="fill: #ffffff"/>
   </g>
   <g id="matplotlib.axis_7"/>
   <g id="matplotlib.axis_8">
    <g id="ytick_3">
     <g id="line2d_4">
      <g>
       <use xlink:href="#m328aaf5b92" x="72" y="313.051034" style="stroke: #000000; stroke-width: 0.8"/>
      </g>
     </g>
     <g id="text_6">
      <!-- 0.000 -->
      <g transform="translate(36.371875 316.850253)scale(0.1 -0.1)">
       <use xlink:href="#DejaVuSans-30"/>
       <use xlink:href="#DejaVuSans-2e" x="63.623047"/>
       <use xlink:href="#DejaVuSans-30" x="95.410156"/>
       <use xlink:href="#DejaVuSans-30" x="159.033203"/>
       <use xlink:href="#DejaVuSans-30" x="222.65625"/>
      </g>
     </g>
    </g>
    <g id="ytick_4">
     <g id="line2d_5">
      <g>
       <use xlink:href="#m328aaf5b92" x="72" y="260.913103" style="stroke: #000000; stroke-width: 0.8"/>
      </g>
     </g>
     <g id="text_7">
      <!-- 1.008 -->
      <g transform="translate(36.371875 264.712322)scale(0.1 -0.1)">
       <defs>
        <path id="DejaVuSans-38" d="M 2034 2216 
Q 1584 2216 1326 1975 
Q 1069 1734 1069 1313 
Q 1069 891 1326 650 
Q 1584 409 2034 409 
Q 2484 409 2743 651 
Q 3003 894 3003 1313 
Q 3003 1734 2745 1975 
Q 2488 2216 2034 2216 
z
M 1403 2484 
Q 997 2584 770 2862 
Q 544 3141 544 3541 
Q 544 4100 942 4425 
Q 1341 4750 2034 4750 
Q 2731 4750 3128 4425 
Q 3525 4100 3525 3541 
Q 3525 3141 3298 2862 
Q 3072 2584 2669 2484 
Q 3125 2378 3379 2068 
Q 3634 1759 3634 1313 
Q 3634 634 3220 271 
Q 2806 -91 2034 -91 
Q 1263 -91 848 271 
Q 434 634 434 1313 
Q 434 1759 690 2068 
Q 947 2378 1403 2484 
z
M 1172 3481 
Q 1172 3119 1398 2916 
Q 1625 2713 2034 2713 
Q 2441 2713 2670 2916 
Q 2900 3119 2900 3481 
Q 2900 3844 2670 4047 
Q 2441 4250 2034 4250 
Q 1625 4250 1398 4047 
Q 1172 3844 1172 3481 
z
" transform="scale(0.015625)"/>
       </defs>
       <use xlink:href="#DejaVuSans-31"/>
       <use xlink:href="#DejaVuSans-2e" x="63.623047"/>
       <use xlink:href="#DejaVuSans-30" x="95.410156"/>
       <use xlink:href="#DejaVuSans-30" x="159.033203"/>
       <use xlink:href="#DejaVuSans-38" x="222.65625"/>
      </g>
     </g>
    </g>
    <g id="text_8">
     <!-- $tr_{post}$ -->
     <g transform="translate(20.621875 283.882069)scale(0.1 -0.1)">
      <defs>
       <path id="DejaVuSans-Oblique-6f" d="M 1625 -91 
Q 1009 -91 651 289 
Q 294 669 294 1325 
Q 294 1706 417 2101 
Q 541 2497 738 2766 
Q 1047 3184 1428 3384 
Q 1809 3584 2291 3584 
Q 2888 3584 3255 3212 
Q 3622 2841 3622 2241 
Q 3622 1825 3500 1412 
Q 3378 1000 3181 728 
Q 2875 309 2494 109 
Q 2113 -91 1625 -91 
z
M 891 1344 
Q 891 869 1089 633 
Q 1288 397 1691 397 
Q 2269 397 2648 901 
Q 3028 1406 3028 2181 
Q 3028 2634 2825 2865 
Q 2622 3097 2228 3097 
Q 1903 3097 1650 2945 
Q 1397 2794 1197 2484 
Q 1050 2253 970 1956 
Q 891 1659 891 1344 
z
" transform="scale(0.015625)"/>
      </defs>
      <use xlink:href="#DejaVuSans-Oblique-74" transform="translate(0 0.78125)"/>
      <use xlink:href="#DejaVuSans-Oblique-72" transform="translate(39.208984 0.78125)"/>
      <use xlink:href="#DejaVuSans-Oblique-70" transform="translate(80.322266 -15.625)scale(0.7)"/>
      <use xlink:href="#DejaVuSans-Oblique-6f" transform="translate(124.755859 -15.625)scale(0.7)"/>
      <use xlink:href="#DejaVuSans-Oblique-73" transform="translate(167.583008 -15.625)scale(0.7)"/>
      <use xlink:href="#DejaVuSans-Oblique-74" transform="translate(204.052734 -15.625)scale(0.7)"/>
     </g>
    </g>
   </g>
   <g id="line2d_6">
    <path d="M 73.730233 313.051034 
L 125.637209 313.051034 
L 129.097674 261.318057 
L 132.55814 287.184546 
L 136.018605 300.11779 
L 139.47907 306.584412 
L 142.939535 309.817723 
L 146.4 311.434379 
L 149.860465 312.242707 
L 153.32093 312.646871 
L 156.781395 312.848953 
L 160.24186 261.217016 
L 163.702326 287.134025 
L 167.162791 300.09253 
L 170.623256 306.571782 
L 174.083721 309.811408 
L 177.544186 311.431221 
L 181.004651 312.241128 
L 184.465116 312.646081 
L 191.386047 312.949796 
L 198.306977 313.025725 
L 201.767442 261.305402 
L 205.227907 287.178218 
L 208.688372 300.114626 
L 212.148837 306.58283 
L 215.609302 309.816932 
L 219.069767 311.433983 
L 222.530233 312.242509 
L 225.990698 312.646772 
L 229.451163 312.848903 
L 232.911628 261.216991 
L 236.372093 287.134013 
L 239.832558 300.092524 
L 243.293023 306.571779 
L 246.753488 309.811407 
L 250.213953 311.431221 
L 253.674419 312.241128 
L 257.134884 260.913103 
L 260.595349 286.982069 
L 264.055814 300.016552 
L 267.516279 306.533793 
L 270.976744 309.792414 
L 274.437209 311.421724 
L 277.897674 312.236379 
L 281.35814 312.643707 
L 288.27907 312.949203 
L 291.739535 261.267142 
L 295.2 287.159088 
L 298.660465 300.105061 
L 302.12093 306.578048 
L 305.581395 309.814541 
L 309.04186 311.432788 
L 312.502326 312.241911 
L 315.962791 312.646473 
L 319.423256 312.848754 
L 322.883721 261.216917 
L 326.344186 287.133976 
L 329.804651 300.092505 
L 333.265116 306.57177 
L 336.725581 309.811402 
L 340.186047 311.431218 
L 343.646512 312.241126 
L 347.106977 312.64608 
L 350.567442 261.11558 
L 354.027907 287.083307 
L 357.488372 300.067171 
L 360.948837 306.559103 
L 364.409302 309.805069 
L 367.869767 311.428052 
L 371.330233 312.239543 
L 374.790698 312.645289 
L 381.711628 312.949598 
L 385.172093 313.000316 
L 388.632558 261.292698 
L 392.093023 287.171866 
L 395.553488 300.11145 
L 399.013953 306.581242 
L 402.474419 309.816138 
L 405.934884 311.433586 
L 409.395349 312.24231 
L 412.855814 312.646672 
L 416.316279 312.848853 
L 419.776744 261.216966 
L 423.237209 287.134 
L 426.697674 300.092517 
L 430.15814 306.571776 
L 433.618605 309.811405 
L 437.07907 311.43122 
L 440.539535 312.241127 
L 444 312.646081 
L 450.92093 312.949796 
L 461.302326 313.03838 
L 464.762791 261.311729 
L 468.223256 287.181382 
L 471.683721 300.116208 
L 475.144186 306.583621 
L 478.604651 309.817328 
L 482.065116 311.434181 
L 485.525581 312.242608 
L 488.986047 312.646821 
L 495.906977 312.949981 
L 509.748837 313.044719 
L 513.209302 313.047877 
L 513.209302 313.047877 
" clip-path="url(#p3a772a5714)" style="fill: none; stroke: #d62728; stroke-width: 1.5; stroke-linecap: square"/>
   </g>
   <g id="patch_18">
    <path d="M 72 315.657931 
L 72 258.306207 
" style="fill: none; stroke: #000000; stroke-width: 0.8; stroke-linejoin: miter; stroke-linecap: square"/>
   </g>
   <g id="patch_19">
    <path d="M 518.4 315.657931 
L 518.4 258.306207 
" style="fill: none; stroke: #000000; stroke-width: 0.8; stroke-linejoin: miter; stroke-linecap: square"/>
   </g>
   <g id="patch_20">
    <path d="M 72 315.657931 
L 518.4 315.657931 
" style="fill: none; stroke: #000000; stroke-width: 0.8; stroke-linejoin: miter; stroke-linecap: square"/>
   </g>
   <g id="patch_21">
    <path d="M 72 258.306207 
L 518.4 258.306207 
" style="fill: none; stroke: #000000; stroke-width: 0.8; stroke-linejoin: miter; stroke-linecap: square"/>
   </g>
  </g>
  <g id="axes_5">
   <g id="patch_22">
    <path d="M 72 384.48 
L 518.4 384.48 
L 518.4 327.128276 
L 72 327.128276 
z
" style="fill: #ffffff"/>
   </g>
   <g id="matplotlib.axis_9">
    <g id="xtick_1">
     <g id="line2d_7">
      <defs>
       <path id="m613acfb892" d="M 0 0 
L 0 3.5 
" style="stroke: #000000; stroke-width: 0.8"/>
      </defs>
      <g>
       <use xlink:href="#m613acfb892" x="73.730233" y="384.48" style="stroke: #000000; stroke-width: 0.8"/>
      </g>
     </g>
     <g id="text_9">
      <!-- 0 -->
      <g transform="translate(70.548983 399.078438)scale(0.1 -0.1)">
       <use xlink:href="#DejaVuSans-30"/>
      </g>
     </g>
    </g>
    <g id="xtick_2">
     <g id="line2d_8">
      <g>
       <use xlink:href="#m613acfb892" x="142.939535" y="384.48" style="stroke: #000000; stroke-width: 0.8"/>
      </g>
     </g>
     <g id="text_10">
      <!-- 20 -->
      <g transform="translate(136.577035 399.078438)scale(0.1 -0.1)">
       <use xlink:href="#DejaVuSans-32"/>
       <use xlink:href="#DejaVuSans-30" x="63.623047"/>
      </g>
     </g>
    </g>
    <g id="xtick_3">
     <g id="line2d_9">
      <g>
       <use xlink:href="#m613acfb892" x="212.148837" y="384.48" style="stroke: #000000; stroke-width: 0.8"/>
      </g>
     </g>
     <g id="text_11">
      <!-- 40 -->
      <g transform="translate(205.786337 399.078438)scale(0.1 -0.1)">
       <use xlink:href="#DejaVuSans-34"/>
       <use xlink:href="#DejaVuSans-30" x="63.623047"/>
      </g>
     </g>
    </g>
    <g id="xtick_4">
     <g id="line2d_10">
      <g>
       <use xlink:href="#m613acfb892" x="281.35814" y="384.48" style="stroke: #000000; stroke-width: 0.8"/>
      </g>
     </g>
     <g id="text_12">
      <!-- 60 -->
      <g transform="translate(274.99564 399.078438)scale(0.1 -0.1)">
       <defs>
        <path id="DejaVuSans-36" d="M 2113 2584 
Q 1688 2584 1439 2293 
Q 1191 2003 1191 1497 
Q 1191 994 1439 701 
Q 1688 409 2113 409 
Q 2538 409 2786 701 
Q 3034 994 3034 1497 
Q 3034 2003 2786 2293 
Q 2538 2584 2113 2584 
z
M 3366 4563 
L 3366 3988 
Q 3128 4100 2886 4159 
Q 2644 4219 2406 4219 
Q 1781 4219 1451 3797 
Q 1122 3375 1075 2522 
Q 1259 2794 1537 2939 
Q 1816 3084 2150 3084 
Q 2853 3084 3261 2657 
Q 3669 2231 3669 1497 
Q 3669 778 3244 343 
Q 2819 -91 2113 -91 
Q 1303 -91 875 529 
Q 447 1150 447 2328 
Q 447 3434 972 4092 
Q 1497 4750 2381 4750 
Q 2619 4750 2861 4703 
Q 3103 4656 3366 4563 
z
" transform="scale(0.015625)"/>
       </defs>
       <use xlink:href="#DejaVuSans-36"/>
       <use xlink:href="#DejaVuSans-30" x="63.623047"/>
      </g>
     </g>
    </g>
    <g id="xtick_5">
     <g id="line2d_11">
      <g>
       <use xlink:href="#m613acfb892" x="350.567442" y="384.48" style="stroke: #000000; stroke-width: 0.8"/>
      </g>
     </g>
     <g id="text_13">
      <!-- 80 -->
      <g transform="translate(344.204942 399.078438)scale(0.1 -0.1)">
       <use xlink:href="#DejaVuSans-38"/>
       <use xlink:href="#DejaVuSans-30" x="63.623047"/>
      </g>
     </g>
    </g>
    <g id="xtick_6">
     <g id="line2d_12">
      <g>
       <use xlink:href="#m613acfb892" x="419.776744" y="384.48" style="stroke: #000000; stroke-width: 0.8"/>
      </g>
     </g>
     <g id="text_14">
      <!-- 100 -->
      <g transform="translate(410.232994 399.078438)scale(0.1 -0.1)">
       <use xlink:href="#DejaVuSans-31"/>
       <use xlink:href="#DejaVuSans-30" x="63.623047"/>
       <use xlink:href="#DejaVuSans-30" x="127.246094"/>
      </g>
     </g>
    </g>
    <g id="xtick_7">
     <g id="line2d_13">
      <g>
       <use xlink:href="#m613acfb892" x="488.986047" y="384.48" style="stroke: #000000; stroke-width: 0.8"/>
      </g>
     </g>
     <g id="text_15">
      <!-- 120 -->
      <g transform="translate(479.442297 399.078438)scale(0.1 -0.1)">
       <use xlink:href="#DejaVuSans-31"/>
       <use xlink:href="#DejaVuSans-32" x="63.623047"/>
       <use xlink:href="#DejaVuSans-30" x="127.246094"/>
      </g>
     </g>
    </g>
    <g id="text_16">
     <!-- time-step -->
     <g transform="translate(271.284375 412.756563)scale(0.1 -0.1)">
      <defs>
       <path id="DejaVuSans-74" d="M 1172 4494 
L 1172 3500 
L 2356 3500 
L 2356 3053 
L 1172 3053 
L 1172 1153 
Q 1172 725 1289 603 
Q 1406 481 1766 481 
L 2356 481 
L 2356 0 
L 1766 0 
Q 1100 0 847 248 
Q 594 497 594 1153 
L 594 3053 
L 172 3053 
L 172 3500 
L 594 3500 
L 594 4494 
L 1172 4494 
z
" transform="scale(0.015625)"/>
       <path id="DejaVuSans-69" d="M 603 3500 
L 1178 3500 
L 1178 0 
L 603 0 
L 603 3500 
z
M 603 4863 
L 1178 4863 
L 1178 4134 
L 603 4134 
L 603 4863 
z
" transform="scale(0.015625)"/>
       <path id="DejaVuSans-6d" d="M 3328 2828 
Q 3544 3216 3844 3400 
Q 4144 3584 4550 3584 
Q 5097 3584 5394 3201 
Q 5691 2819 5691 2113 
L 5691 0 
L 5113 0 
L 5113 2094 
Q 5113 2597 4934 2840 
Q 4756 3084 4391 3084 
Q 3944 3084 3684 2787 
Q 3425 2491 3425 1978 
L 3425 0 
L 2847 0 
L 2847 2094 
Q 2847 2600 2669 2842 
Q 2491 3084 2119 3084 
Q 1678 3084 1418 2786 
Q 1159 2488 1159 1978 
L 1159 0 
L 581 0 
L 581 3500 
L 1159 3500 
L 1159 2956 
Q 1356 3278 1631 3431 
Q 1906 3584 2284 3584 
Q 2666 3584 2933 3390 
Q 3200 3197 3328 2828 
z
" transform="scale(0.015625)"/>
       <path id="DejaVuSans-65" d="M 3597 1894 
L 3597 1613 
L 953 1613 
Q 991 1019 1311 708 
Q 1631 397 2203 397 
Q 2534 397 2845 478 
Q 3156 559 3463 722 
L 3463 178 
Q 3153 47 2828 -22 
Q 2503 -91 2169 -91 
Q 1331 -91 842 396 
Q 353 884 353 1716 
Q 353 2575 817 3079 
Q 1281 3584 2069 3584 
Q 2775 3584 3186 3129 
Q 3597 2675 3597 1894 
z
M 3022 2063 
Q 3016 2534 2758 2815 
Q 2500 3097 2075 3097 
Q 1594 3097 1305 2825 
Q 1016 2553 972 2059 
L 3022 2063 
z
" transform="scale(0.015625)"/>
       <path id="DejaVuSans-2d" d="M 313 2009 
L 1997 2009 
L 1997 1497 
L 313 1497 
L 313 2009 
z
" transform="scale(0.015625)"/>
       <path id="DejaVuSans-73" d="M 2834 3397 
L 2834 2853 
Q 2591 2978 2328 3040 
Q 2066 3103 1784 3103 
Q 1356 3103 1142 2972 
Q 928 2841 928 2578 
Q 928 2378 1081 2264 
Q 1234 2150 1697 2047 
L 1894 2003 
Q 2506 1872 2764 1633 
Q 3022 1394 3022 966 
Q 3022 478 2636 193 
Q 2250 -91 1575 -91 
Q 1294 -91 989 -36 
Q 684 19 347 128 
L 347 722 
Q 666 556 975 473 
Q 1284 391 1588 391 
Q 1994 391 2212 530 
Q 2431 669 2431 922 
Q 2431 1156 2273 1281 
Q 2116 1406 1581 1522 
L 1381 1569 
Q 847 1681 609 1914 
Q 372 2147 372 2553 
Q 372 3047 722 3315 
Q 1072 3584 1716 3584 
Q 2034 3584 2315 3537 
Q 2597 3491 2834 3397 
z
" transform="scale(0.015625)"/>
       <path id="DejaVuSans-70" d="M 1159 525 
L 1159 -1331 
L 581 -1331 
L 581 3500 
L 1159 3500 
L 1159 2969 
Q 1341 3281 1617 3432 
Q 1894 3584 2278 3584 
Q 2916 3584 3314 3078 
Q 3713 2572 3713 1747 
Q 3713 922 3314 415 
Q 2916 -91 2278 -91 
Q 1894 -91 1617 61 
Q 1341 213 1159 525 
z
M 3116 1747 
Q 3116 2381 2855 2742 
Q 2594 3103 2138 3103 
Q 1681 3103 1420 2742 
Q 1159 2381 1159 1747 
Q 1159 1113 1420 752 
Q 1681 391 2138 391 
Q 2594 391 2855 752 
Q 3116 1113 3116 1747 
z
" transform="scale(0.015625)"/>
      </defs>
      <use xlink:href="#DejaVuSans-74"/>
      <use xlink:href="#DejaVuSans-69" x="39.208984"/>
      <use xlink:href="#DejaVuSans-6d" x="66.992188"/>
      <use xlink:href="#DejaVuSans-65" x="164.404297"/>
      <use xlink:href="#DejaVuSans-2d" x="225.927734"/>
      <use xlink:href="#DejaVuSans-73" x="262.011719"/>
      <use xlink:href="#DejaVuSans-74" x="314.111328"/>
      <use xlink:href="#DejaVuSans-65" x="353.320312"/>
      <use xlink:href="#DejaVuSans-70" x="414.84375"/>
     </g>
    </g>
   </g>
   <g id="matplotlib.axis_10">
    <g id="ytick_5">
     <g id="line2d_14">
      <g>
       <use xlink:href="#m328aaf5b92" x="72" y="381.873103" style="stroke: #000000; stroke-width: 0.8"/>
      </g>
     </g>
     <g id="text_17">
      <!-- 0.397949 -->
      <g transform="translate(17.284375 385.672322)scale(0.1 -0.1)">
       <defs>
        <path id="DejaVuSans-33" d="M 2597 2516 
Q 3050 2419 3304 2112 
Q 3559 1806 3559 1356 
Q 3559 666 3084 287 
Q 2609 -91 1734 -91 
Q 1441 -91 1130 -33 
Q 819 25 488 141 
L 488 750 
Q 750 597 1062 519 
Q 1375 441 1716 441 
Q 2309 441 2620 675 
Q 2931 909 2931 1356 
Q 2931 1769 2642 2001 
Q 2353 2234 1838 2234 
L 1294 2234 
L 1294 2753 
L 1863 2753 
Q 2328 2753 2575 2939 
Q 2822 3125 2822 3475 
Q 2822 3834 2567 4026 
Q 2313 4219 1838 4219 
Q 1578 4219 1281 4162 
Q 984 4106 628 3988 
L 628 4550 
Q 988 4650 1302 4700 
Q 1616 4750 1894 4750 
Q 2613 4750 3031 4423 
Q 3450 4097 3450 3541 
Q 3450 3153 3228 2886 
Q 3006 2619 2597 2516 
z
" transform="scale(0.015625)"/>
        <path id="DejaVuSans-39" d="M 703 97 
L 703 672 
Q 941 559 1184 500 
Q 1428 441 1663 441 
Q 2288 441 2617 861 
Q 2947 1281 2994 2138 
Q 2813 1869 2534 1725 
Q 2256 1581 1919 1581 
Q 1219 1581 811 2004 
Q 403 2428 403 3163 
Q 403 3881 828 4315 
Q 1253 4750 1959 4750 
Q 2769 4750 3195 4129 
Q 3622 3509 3622 2328 
Q 3622 1225 3098 567 
Q 2575 -91 1691 -91 
Q 1453 -91 1209 -44 
Q 966 3 703 97 
z
M 1959 2075 
Q 2384 2075 2632 2365 
Q 2881 2656 2881 3163 
Q 2881 3666 2632 3958 
Q 2384 4250 1959 4250 
Q 1534 4250 1286 3958 
Q 1038 3666 1038 3163 
Q 1038 2656 1286 2365 
Q 1534 2075 1959 2075 
z
" transform="scale(0.015625)"/>
       </defs>
       <use xlink:href="#DejaVuSans-30"/>
       <use xlink:href="#DejaVuSans-2e" x="63.623047"/>
       <use xlink:href="#DejaVuSans-33" x="95.410156"/>
       <use xlink:href="#DejaVuSans-39" x="159.033203"/>
       <use xlink:href="#DejaVuSans-37" x="222.65625"/>
       <use xlink:href="#DejaVuSans-39" x="286.279297"/>
       <use xlink:href="#DejaVuSans-34" x="349.902344"/>
       <use xlink:href="#DejaVuSans-39" x="413.525391"/>
      </g>
     </g>
    </g>
    <g id="ytick_6">
     <g id="line2d_15">
      <g>
       <use xlink:href="#m328aaf5b92" x="72" y="329.735172" style="stroke: #000000; stroke-width: 0.8"/>
      </g>
     </g>
     <g id="text_18">
      <!-- 0.404311 -->
      <g transform="translate(17.284375 333.534391)scale(0.1 -0.1)">
       <use xlink:href="#DejaVuSans-30"/>
       <use xlink:href="#DejaVuSans-2e" x="63.623047"/>
       <use xlink:href="#DejaVuSans-34" x="95.410156"/>
       <use xlink:href="#DejaVuSans-30" x="159.033203"/>
       <use xlink:href="#DejaVuSans-34" x="222.65625"/>
       <use xlink:href="#DejaVuSans-33" x="286.279297"/>
       <use xlink:href="#DejaVuSans-31" x="349.902344"/>
       <use xlink:href="#DejaVuSans-31" x="413.525391"/>
      </g>
     </g>
    </g>
    <g id="text_19">
     <!-- $w[i][j]$ -->
     <g transform="translate(-1.415625 353.704138)scale(0.1 -0.1)">
      <defs>
       <path id="DejaVuSans-Oblique-77" d="M 544 3500 
L 1113 3500 
L 1259 684 
L 2566 3500 
L 3231 3500 
L 3425 684 
L 4666 3500 
L 5241 3500 
L 3641 0 
L 2969 0 
L 2797 2900 
L 1459 0 
L 781 0 
L 544 3500 
z
" transform="scale(0.015625)"/>
      </defs>
      <use xlink:href="#DejaVuSans-Oblique-77" transform="translate(0 0.015625)"/>
      <use xlink:href="#DejaVuSans-5b" transform="translate(81.787109 0.015625)"/>
      <use xlink:href="#DejaVuSans-Oblique-69" transform="translate(120.800781 0.015625)"/>
      <use xlink:href="#DejaVuSans-5d" transform="translate(148.583984 0.015625)"/>
      <use xlink:href="#DejaVuSans-5b" transform="translate(187.597656 0.015625)"/>
      <use xlink:href="#DejaVuSans-Oblique-6a" transform="translate(226.611328 0.015625)"/>
      <use xlink:href="#DejaVuSans-5d" transform="translate(254.394531 0.015625)"/>
     </g>
    </g>
   </g>
   <g id="line2d_16">
    <path d="M 73.730233 365.067038 
L 139.47907 365.034553 
L 142.939535 367.083531 
L 146.4 367.083531 
L 149.860465 367.595471 
L 156.781395 367.595471 
L 160.24186 362.477055 
L 174.083721 362.477055 
L 177.544186 363.504353 
L 198.306977 363.520474 
L 201.767442 346.864131 
L 205.227907 363.350234 
L 225.990698 363.350234 
L 229.451163 363.478463 
L 232.911628 346.918842 
L 239.832558 346.918842 
L 243.293023 351.047329 
L 246.753488 353.109008 
L 253.674419 353.109008 
L 257.134884 346.810152 
L 274.437209 346.810152 
L 277.897674 347.329175 
L 281.35814 347.588808 
L 288.27907 347.588808 
L 291.739535 341.403283 
L 302.12093 341.403283 
L 305.581395 343.46887 
L 309.04186 344.501053 
L 319.423256 344.501053 
L 322.883721 341.396444 
L 326.344186 357.938236 
L 329.804651 366.16761 
L 347.106977 366.16761 
L 350.567442 365.387489 
L 354.027907 381.841107 
L 385.172093 381.873103 
L 388.632558 365.533792 
L 399.013953 365.533792 
L 402.474419 367.583503 
L 412.855814 367.583503 
L 416.316279 367.711487 
L 419.776744 350.277954 
L 461.302326 350.318255 
L 464.762791 329.735172 
L 513.209302 329.799898 
L 513.209302 329.799898 
" clip-path="url(#p2ad006f85c)" style="fill: none; stroke: #9467bd; stroke-width: 1.5; stroke-linecap: square"/>
   </g>
   <g id="patch_23">
    <path d="M 72 384.48 
L 72 327.128276 
" style="fill: none; stroke: #000000; stroke-width: 0.8; stroke-linejoin: miter; stroke-linecap: square"/>
   </g>
   <g id="patch_24">
    <path d="M 518.4 384.48 
L 518.4 327.128276 
" style="fill: none; stroke: #000000; stroke-width: 0.8; stroke-linejoin: miter; stroke-linecap: square"/>
   </g>
   <g id="patch_25">
    <path d="M 72 384.48 
L 518.4 384.48 
" style="fill: none; stroke: #000000; stroke-width: 0.8; stroke-linejoin: miter; stroke-linecap: square"/>
   </g>
   <g id="patch_26">
    <path d="M 72 327.128276 
L 518.4 327.128276 
" style="fill: none; stroke: #000000; stroke-width: 0.8; stroke-linejoin: miter; stroke-linecap: square"/>
   </g>
  </g>
 </g>
 <defs>
  <clipPath id="pdfc9c96f06">
   <rect x="72" y="51.84" width="446.4" height="57.351724"/>
  </clipPath>
  <clipPath id="p19c3c91dc9">
   <rect x="72" y="120.662069" width="446.4" height="57.351724"/>
  </clipPath>
  <clipPath id="p2e1c0dfe52">
   <rect x="72" y="189.484138" width="446.4" height="57.351724"/>
  </clipPath>
  <clipPath id="p3a772a5714">
   <rect x="72" y="258.306207" width="446.4" height="57.351724"/>
  </clipPath>
  <clipPath id="p2ad006f85c">
   <rect x="72" y="327.128276" width="446.4" height="57.351724"/>
  </clipPath>
 </defs>
</svg>
