<svg viewBox="0 0 330 200" xmlns="http://www.w3.org/2000/svg"><g><g><g><g><g><line x1="40" y1="178" x2="35" y2="178" style="visibility: inherit;" fill="rgb(0, 0, 0)" stroke="rgb(204, 204, 204)" stroke-width="1px"></line><line x1="40" y1="155.75" x2="35" y2="155.75" style="visibility: inherit;" fill="rgb(0, 0, 0)" stroke="rgb(204, 204, 204)" stroke-width="1px"></line><line x1="40" y1="133.5" x2="35" y2="133.5" style="visibility: inherit;" fill="rgb(0, 0, 0)" stroke="rgb(204, 204, 204)" stroke-width="1px"></line><line x1="40" y1="111.25" x2="35" y2="111.25" style="visibility: inherit;" fill="rgb(0, 0, 0)" stroke="rgb(204, 204, 204)" stroke-width="1px"></line><line x1="40" y1="89" x2="35" y2="89" style="visibility: inherit;" fill="rgb(0, 0, 0)" stroke="rgb(204, 204, 204)" stroke-width="1px"></line><line x1="40" y1="66.75" x2="35" y2="66.75" style="visibility: inherit;" fill="rgb(0, 0, 0)" stroke="rgb(204, 204, 204)" stroke-width="1px"></line><line x1="40" y1="44.5" x2="35" y2="44.5" style="visibility: inherit;" fill="rgb(0, 0, 0)" stroke="rgb(204, 204, 204)" stroke-width="1px"></line><line x1="40" y1="22.25" x2="35" y2="22.25" style="visibility: inherit;" fill="rgb(0, 0, 0)" stroke="rgb(204, 204, 204)" stroke-width="1px"></line><line x1="40" y1="0" x2="35" y2="0" style="visibility: inherit;" fill="rgb(0, 0, 0)" stroke="rgb(204, 204, 204)" stroke-width="1px"></line></g><g transform="translate(30, 0)"><text x="0" y="178" dx="0em" dy="0.3em" style="text-anchor: end; visibility: hidden; font-family: &quot;Helvetica Neue&quot;, sans-serif; font-size: 12px; font-weight: 200;" fill="rgb(50, 49, 63)" stroke="none" stroke-width="1px">-50</text><text x="0" y="155.75" dx="0em" dy="0.3em" style="text-anchor: end; visibility: inherit; font-family: &quot;Helvetica Neue&quot;, sans-serif; font-size: 12px; font-weight: 200;" fill="rgb(50, 49, 63)" stroke="none" stroke-width="1px">0</text><text x="0" y="133.5" dx="0em" dy="0.3em" style="text-anchor: end; visibility: hidden; font-family: &quot;Helvetica Neue&quot;, sans-serif; font-size: 12px; font-weight: 200;" fill="rgb(50, 49, 63)" stroke="none" stroke-width="1px">50</text><text x="0" y="111.25" dx="0em" dy="0.3em" style="text-anchor: end; visibility: inherit; font-family: &quot;Helvetica Neue&quot;, sans-serif; font-size: 12px; font-weight: 200;" fill="rgb(50, 49, 63)" stroke="none" stroke-width="1px">100</text><text x="0" y="89" dx="0em" dy="0.3em" style="text-anchor: end; visibility: hidden; font-family: &quot;Helvetica Neue&quot;, sans-serif; font-size: 12px; font-weight: 200;" fill="rgb(50, 49, 63)" stroke="none" stroke-width="1px">150</text><text x="0" y="66.75" dx="0em" dy="0.3em" style="text-anchor: end; visibility: inherit; font-family: &quot;Helvetica Neue&quot;, sans-serif; font-size: 12px; font-weight: 200;" fill="rgb(50, 49, 63)" stroke="none" stroke-width="1px">200</text><text x="0" y="44.5" dx="0em" dy="0.3em" style="text-anchor: end; visibility: hidden; font-family: &quot;Helvetica Neue&quot;, sans-serif; font-size: 12px; font-weight: 200;" fill="rgb(50, 49, 63)" stroke="none" stroke-width="1px">250</text><text x="0" y="22.25" dx="0em" dy="0.3em" style="text-anchor: end; visibility: inherit; font-family: &quot;Helvetica Neue&quot;, sans-serif; font-size: 12px; font-weight: 200;" fill="rgb(50, 49, 63)" stroke="none" stroke-width="1px">300</text><text x="0" y="0" dx="0em" dy="0.3em" style="text-anchor: end; visibility: hidden; font-family: &quot;Helvetica Neue&quot;, sans-serif; font-size: 12px; font-weight: 200;" fill="rgb(50, 49, 63)" stroke="none" stroke-width="1px">350</text></g><line x1="40" y1="0" x2="40" y2="178" fill="rgb(0, 0, 0)" stroke="rgb(204, 204, 204)" stroke-width="1px"></line></g></g><g transform="translate(40, 0)" clip-path="url(#clip_0)"><clipPath id="clip_0"><rect width="290" height="178"></rect></clipPath><g><g><g><line x1="0" y1="0" x2="0" y2="178" fill="rgb(0, 0, 0)" stroke="rgb(60, 60, 60)" stroke-width="1px" opacity="0.25"></line><line x1="24.166666666666664" y1="0" x2="24.166666666666664" y2="178" fill="rgb(0, 0, 0)" stroke="rgb(60, 60, 60)" stroke-width="1px" opacity="0.25"></line><line x1="48.33333333333333" y1="0" x2="48.33333333333333" y2="178" fill="rgb(0, 0, 0)" stroke="rgb(60, 60, 60)" stroke-width="1px" opacity="0.25"></line><line x1="72.5" y1="0" x2="72.5" y2="178" fill="rgb(0, 0, 0)" stroke="rgb(60, 60, 60)" stroke-width="1px" opacity="0.25"></line><line x1="96.66666666666666" y1="0" x2="96.66666666666666" y2="178" fill="rgb(0, 0, 0)" stroke="rgb(60, 60, 60)" stroke-width="1px" opacity="0.25"></line><line x1="120.83333333333334" y1="0" x2="120.83333333333334" y2="178" fill="rgb(0, 0, 0)" stroke="rgb(60, 60, 60)" stroke-width="1px" opacity="0.25"></line><line x1="145" y1="0" x2="145" y2="178" fill="rgb(0, 0, 0)" stroke="rgb(60, 60, 60)" stroke-width="1px" opacity="0.25"></line><line x1="169.16666666666669" y1="0" x2="169.16666666666669" y2="178" fill="rgb(0, 0, 0)" stroke="rgb(60, 60, 60)" stroke-width="1px" opacity="0.25"></line><line x1="193.33333333333331" y1="0" x2="193.33333333333331" y2="178" fill="rgb(0, 0, 0)" stroke="rgb(60, 60, 60)" stroke-width="1px" opacity="0.25"></line><line x1="217.5" y1="0" x2="217.5" y2="178" fill="rgb(0, 0, 0)" stroke="rgb(60, 60, 60)" stroke-width="1px" opacity="0.25"></line><line x1="241.66666666666669" y1="0" x2="241.66666666666669" y2="178" fill="rgb(0, 0, 0)" stroke="rgb(60, 60, 60)" stroke-width="1px" opacity="0.25"></line><line x1="265.8333333333333" y1="0" x2="265.8333333333333" y2="178" fill="rgb(0, 0, 0)" stroke="rgb(60, 60, 60)" stroke-width="1px" opacity="0.25"></line><line x1="290" y1="0" x2="290" y2="178" fill="rgb(0, 0, 0)" stroke="rgb(60, 60, 60)" stroke-width="1px" opacity="0.25"></line></g><g><line x1="0" y1="178" x2="290" y2="178" fill="rgb(0, 0, 0)" stroke="rgb(60, 60, 60)" stroke-width="1px" opacity="0.25"></line><line x1="0" y1="155.75" x2="290" y2="155.75" fill="rgb(0, 0, 0)" stroke="rgb(60, 60, 60)" stroke-width="1px" opacity="0.25"></line><line x1="0" y1="133.5" x2="290" y2="133.5" fill="rgb(0, 0, 0)" stroke="rgb(60, 60, 60)" stroke-width="1px" opacity="0.25"></line><line x1="0" y1="111.25" x2="290" y2="111.25" fill="rgb(0, 0, 0)" stroke="rgb(60, 60, 60)" stroke-width="1px" opacity="0.25"></line><line x1="0" y1="89" x2="290" y2="89" fill="rgb(0, 0, 0)" stroke="rgb(60, 60, 60)" stroke-width="1px" opacity="0.25"></line><line x1="0" y1="66.75" x2="290" y2="66.75" fill="rgb(0, 0, 0)" stroke="rgb(60, 60, 60)" stroke-width="1px" opacity="0.25"></line><line x1="0" y1="44.5" x2="290" y2="44.5" fill="rgb(0, 0, 0)" stroke="rgb(60, 60, 60)" stroke-width="1px" opacity="0.25"></line><line x1="0" y1="22.25" x2="290" y2="22.25" fill="rgb(0, 0, 0)" stroke="rgb(60, 60, 60)" stroke-width="1px" opacity="0.25"></line><line x1="0" y1="0" x2="290" y2="0" fill="rgb(0, 0, 0)" stroke="rgb(60, 60, 60)" stroke-width="1px" opacity="0.25"></line></g></g></g><g><g><line x1="0" y1="155.75" x2="290" y2="155.75" fill="rgb(0, 0, 0)" stroke="rgb(153, 153, 153)" stroke-width="1.5px"></line></g></g><g><g><line x1="24.166666666666664" y1="0" x2="24.166666666666664" y2="178" fill="rgb(0, 0, 0)" stroke="rgb(153, 153, 153)" stroke-width="1.5px"></line></g></g><g><g><g><g><g><path stroke="rgb(0, 153, 136)" stroke-width="2px" d="M24.166666666666664,137.95L24.650000000000002,141.2891695847922L25.133333333333333,141.21437161682627L25.616666666666667,143.07106189180595L26.099999999999998,144.6309662038198L26.583333333333332,145.07608314626185L27.066666666666666,146.0316474738748L27.55,146.58085994359908L28.03333333333333,147.1569522837552L28.516666666666666,147.61782546387875L29,147.7103023307507L29.483333333333334,147.78736624505217L29.966666666666665,147.8181374086767L30.45,147.94049114918957L30.933333333333334,148.07640569734716L31.416666666666668,147.99917883396427L31.9,147.8254916222136L32.38333333333333,147.54643829301466L32.86666666666667,147.6512479245128L33.35,147.67818994832385L33.833333333333336,147.40292176729756L34.31666666666666,147.5001668949562L34.8,147.7063246220551L35.28333333333334,147.82027867453323L35.766666666666666,147.81702882672667L36.25,147.6580563685162L36.733333333333334,147.4440733220118L37.21666666666666,147.42256860436788L37.7,147.2780612255644L38.18333333333333,147.23348549536408L38.666666666666664,147.04607272509395L39.150000000000006,147.03984995710613L39.63333333333333,146.92438972356865L40.11666666666667,146.80241641521167L40.6,146.6098233062078L41.083333333333336,146.46566717194543L41.56666666666667,146.39052850638512L42.05,146.23584488743106L42.53333333333333,146.13560868115582L43.01666666666667,146.06307174597137L43.5,145.91656789474618L43.983333333333334,145.8202973630558L44.46666666666666,145.58055657204827L44.95,145.63069793193162L45.43333333333334,145.58763741689498L45.916666666666664,145.42773002449061L46.4,145.44900506887268L46.88333333333333,145.08977437457412L47.36666666666667,145.05215541375563L47.85,145.12548035788427L48.33333333333333,144.77548984099911L48.81666666666667,144.55307530653542L49.300000000000004,144.26150718480258L49.78333333333333,143.77767341077097L50.266666666666666,143.0205386711023L50.75,142.65796760983267L51.233333333333334,142.58909209122808L51.71666666666667,142.12003755735972L52.199999999999996,141.79110020099625L52.68333333333334,141.59533349195527L53.166666666666664,141.31579289608L53.65,141.1710492053443L54.13333333333333,140.84878207714442L54.61666666666667,140.99575849965322L55.1,141.08166991657214L55.583333333333336,140.78892099908404L56.06666666666666,140.55982162413272L56.550000000000004,140.26303840587005L57.03333333333333,139.6946742481971L57.516666666666666,139.4517712734603L58,139.25465102452142L58.483333333333334,139.33191931434308L58.96666666666667,139.12907555528324L59.449999999999996,138.47650660065807L59.93333333333333,137.58281008642473L60.41666666666667,137.326485894037L60.9,136.86076189716997L61.38333333333333,136.5907431033885L61.86666666666667,136.29243050160275L62.35,136.05364622294147L62.833333333333336,135.62068049537953L63.31666666666666,135.4073179393789L63.8,134.66300250125096L64.28333333333333,133.96954243524416L64.76666666666667,133.76728321534256L65.25,133.54274289271316L65.73333333333333,133.22194343407622L66.21666666666667,132.96652001489315L66.7,132.74295661909122L67.18333333333334,132.50369330192652L67.66666666666667,132.25435141159033L68.14999999999999,132.28369802849363L68.63333333333333,132.10205595430236L69.11666666666667,131.99368863379016L69.6,131.94159120794106L70.08333333333333,131.84198835544655L70.56666666666668,131.76368646405953L71.05,131.5535727451544L71.53333333333333,131.50342995951942L72.01666666666667,131.36081115710053L72.5,131.559007646608L72.98333333333333,131.45516959551915L73.46666666666667,131.39879503578743L73.95,131.31198410221117L74.43333333333332,131.24914004158094L74.91666666666667,131.1697930143805L75.4,131.1269966287864L75.88333333333333,131.00244201326697L76.36666666666666,130.80695480785974L76.85000000000001,130.59794535736606L77.33333333333333,130.52818150095726L77.81666666666666,130.4512689325006L78.30000000000001,130.18006861777985L78.78333333333333,129.72785838264997L79.26666666666667,129.61926158527962L79.75,129.15922424822136L80.23333333333333,128.5459252777209L80.71666666666667,127.72324320597161L81.2,127.19985051029826L81.68333333333334,127.10606825310944L82.16666666666667,126.93187842620833L82.64999999999999,127.0781124897454L83.13333333333334,126.9990637561217L83.61666666666666,126.90222152522293L84.1,126.82964287823103L84.58333333333334,126.69058900003662L85.06666666666666,126.55745721834505L85.55,126.4708332567426L86.03333333333335,126.41863067204841L86.51666666666667,126.30885331815412L87,126.16452823060334L87.48333333333333,126.11591297110445L87.96666666666667,126.02874195232498L88.45,125.98898106280541L88.93333333333332,125.8934556172488L89.41666666666667,125.80283504364425L89.9,125.72048768796296L90.38333333333333,125.66003948765399L90.86666666666667,125.52505756285387L91.35,125.40562573350665L91.83333333333333,125.31833033920344L92.31666666666668,125.26586650488113L92.8,125.21079951988744L93.28333333333333,125.17639808840354L93.76666666666667,125.06997518353674L94.25,125.01085336796035L94.73333333333333,124.90373261520162L95.21666666666665,124.80776175740579L95.7,124.66488478932868L96.18333333333334,124.61971373889332L96.66666666666666,124.53705833911542L97.15,124.4586468692585L97.63333333333334,124.41574973033113L98.11666666666666,124.36406164709577L98.60000000000001,124.33162850023328L99.08333333333333,124.29345314428889L99.56666666666666,124.21596817814739L100.05,124.29772319574406L100.53333333333333,124.25439241217924L101.01666666666667,124.22363756960803L101.5,124.18728345764654L101.98333333333333,124.100820313782L102.46666666666667,124.05090726675652L102.94999999999999,123.9986636159083L103.43333333333334,123.94120615283768L103.91666666666667,123.90479877896561L104.39999999999999,123.84280013616069L104.88333333333334,123.74990291250687L105.36666666666667,123.63236235708325L105.85,123.54750447045669L106.33333333333333,123.47213108849076L106.81666666666668,123.38074750226566L107.3,123.2736236638336L107.78333333333333,123.17051933339629L108.26666666666667,123.09353147059858L108.75,123.00915217718864L109.23333333333333,122.90653525604552L109.71666666666667,122.82689713210277L110.2,122.74815115686906L110.68333333333332,122.66218197920347L111.16666666666667,122.55835946815301L111.65,122.46904636788219L112.13333333333333,122.38869133916675L112.61666666666666,122.3012723847565L113.10000000000001,122.2148011531049L113.58333333333333,122.13712437922405L114.06666666666666,122.03159360191114L114.55000000000001,121.9531418339417L115.03333333333333,121.89101964446124L115.51666666666667,121.81670091410926L116,121.72013838032521L116.48333333333333,121.64750026553958L116.96666666666667,121.58575398914786L117.45,121.519601517546L117.93333333333334,121.44157644883654L118.41666666666667,121.37684526553274L118.89999999999999,121.29038532374283L119.38333333333334,121.19737294915049L119.86666666666666,121.10776335288625L120.35,121.03377561233673L120.83333333333334,120.9629692863586L121.31666666666666,120.81747876088038L121.8,120.66132124851373L122.28333333333335,120.46572405655903L122.76666666666667,120.33683487866506L123.25,120.48157608301442L123.73333333333333,120.3156623586087L124.21666666666667,120.16792958269068L124.7,119.9579395882692L125.18333333333332,119.80161876433783L125.66666666666667,119.66549125709521L126.15,119.44915988342893L126.63333333333333,119.32297240949842L127.11666666666667,119.00171788274224L127.6,118.76163603114566L128.08333333333334,118.47112344269605L128.56666666666666,118.14225496445812L129.05,117.65745623770287L129.53333333333333,117.1160400676495L130.01666666666665,116.68993165543652L130.5,116.10618015371053L130.98333333333332,115.77794296315449L131.46666666666667,115.47268920340804L131.95000000000002,115.17903783953616L132.43333333333334,114.9409906876808L132.91666666666666,114.68087087940185L133.4,114.42743316234686L133.88333333333333,114.13259348362939L134.36666666666667,113.87728515698669L134.85,113.53761292458027L135.33333333333334,113.24618112266262L135.81666666666666,112.91001141687246L136.29999999999998,113.04541179833501L136.78333333333333,112.80016574699303L137.26666666666665,112.58462683261605L137.75,112.34341621368544L138.23333333333335,112.47947152263359L138.71666666666667,112.17545001031704L139.2,112.31128623861363L139.68333333333334,112.43764659112283L140.16666666666666,112.19117342256018L140.65,111.88880402832856L141.13333333333335,111.39099615170291L141.61666666666667,111.13149052968441L142.1,110.74515284528475L142.58333333333331,110.40888386013448L143.06666666666666,110.0286067892901L143.55,109.77494610741843L144.03333333333333,109.51122535850345L144.51666666666668,108.98620051958011L145,108.6878053725764L145.48333333333335,108.30393031639136L145.96666666666667,107.00377644893794L146.45,106.72326451798199L146.93333333333334,106.29675125546929L147.41666666666666,105.76330172911385L147.9,105.2673916388928L148.38333333333335,104.65994257281993L148.86666666666665,104.16637577293932L149.35,103.62028505237397L149.83333333333334,103.35916603240602L150.31666666666666,103.17338523001933L150.8,102.73128756637506L151.28333333333333,102.11427301792178L151.76666666666665,100.73574098754698L152.25,99.97325039204512L152.73333333333332,99.68346887894863L153.21666666666667,98.2019799114945L153.70000000000002,97.67264358117342L154.1833333333333,97.41794722834418L154.66666666666666,97.13141375129482L155.15,97.11969740028995L155.63333333333333,95.96862272626402L156.11666666666667,96.01565227974707L156.60000000000002,96.01423603683155L157.08333333333331,96.05155915419289L157.56666666666666,95.61061177184352L158.05,95.6200405528578L158.53333333333333,95.65863366985847L159.01666666666668,95.27803518244338L159.5,95.05631769878082L159.98333333333332,95.0081495088643L160.46666666666667,95.04694658421081L160.95000000000002,95.0980626086066L161.43333333333334,95.17572275863064L161.91666666666666,95.26893053277804L162.4,95.3169123427817L162.88333333333333,95.33789561582503L163.36666666666667,95.39772173382623L163.85,95.4624332769583L164.33333333333334,95.50203279387694L164.81666666666666,95.56243752096493L165.29999999999998,95.65220025203811L165.78333333333333,95.71166190756828L166.26666666666668,95.78464673600246L166.75,95.83977393418846L167.23333333333332,95.89279613516963L167.71666666666667,95.99724233190524L168.2,96.08893685269736L168.68333333333334,96.2520961681971L169.16666666666669,96.35255586382785L169.64999999999998,96.41480312187663L170.13333333333333,96.45621675088532L170.61666666666667,96.47529685537127L171.1,96.53486093215551L171.58333333333334,96.60753154774274L172.0666666666667,96.65280251628145L172.54999999999998,96.69609922552992L173.03333333333333,96.74748026797319L173.51666666666668,96.74345846890496L174,96.76109698524142L174.48333333333335,96.20107173946701L174.96666666666667,95.97071016418741L175.45,96.00922816966097L175.93333333333334,96.06231505238134L176.41666666666666,96.1052128046634L176.9,94.25836449189086L177.38333333333335,94.16068706887562L177.86666666666665,94.0945706256128L178.35,94.05648369383748L178.83333333333334,94.01701609213244L179.31666666666666,93.88246809061116L179.8,91.25418451745203L180.28333333333333,90.28971713262064L180.76666666666665,90.31873575438604L181.25,90.34117909934616L181.73333333333335,89.50389406511836L182.21666666666667,89.17600418965344L182.7,88.89613652660232L183.18333333333334,88.7319225705575L183.66666666666666,88.28300187559513L184.15,88.030471943192L184.63333333333335,87.8171645890299L185.11666666666665,87.66624126687995L185.6,87.43653473137141L186.08333333333334,87.2471753658432L186.56666666666666,87.1149229154271L187.05,86.83767333339523L187.53333333333333,86.18922833523985L188.01666666666665,86.15576482463219L188.5,86.1332756843204L188.98333333333332,85.96502943901167L189.46666666666667,85.90654065804983L189.95000000000002,85.85909261867495L190.4333333333333,85.57867616134826L190.91666666666666,84.78434688628086L191.4,83.78831196591257L191.88333333333333,83.66982400132395L192.36666666666667,83.61241612919427L192.85000000000002,83.53425209138386L193.33333333333331,79.54358962300769L193.81666666666666,79.59493451929734L194.3,64.60959881190294L194.78333333333333,64.90026299992019L195.26666666666668,65.18778407183731L195.75,65.39199491695963L196.23333333333332,65.62171835457985L196.71666666666667,65.67867952462298L197.20000000000002,41.3064926920907L197.68333333333334,41.66575454920226L198.16666666666666,42.02740843091908L198.65,42.38704261154123L199.13333333333333,42.741751342894446L199.61666666666667,42.867058745425396L200.1,43.0949472019756L200.58333333333334,43.244658331645326L201.06666666666666,43.46160116419372L201.54999999999998,43.67735177884012L202.03333333333333,43.86885557217434L202.51666666666668,44.08520186979584L203,44.26305617411751L203.48333333333332,44.30677585979757L203.96666666666667,44.393120627008244L204.45,44.4690192069223L204.93333333333334,44.59144927403497L205.41666666666669,44.704704498837316L205.89999999999998,44.78477843547208L206.38333333333333,44.899752481534705L206.86666666666667,44.98732102587266L207.35,45.05894583801424L207.83333333333334,45.15125011022113L208.3166666666667,45.17441739699973L208.79999999999998,45.179288575687224L209.28333333333333,45.27759819317461L209.76666666666668,45.305790103261415L210.25,45.417177688870964L210.73333333333335,45.48224060102501L211.21666666666667,45.530365650698L211.7,45.59204301071449L212.18333333333334,45.69058958547336L212.66666666666666,45.758386541597815L213.15,45.85875264246249L213.63333333333335,45.89016181696698L214.11666666666665,46.0662009772245L214.6,46.248152997821194L215.08333333333334,46.45774108894312L215.56666666666666,46.142250252551634L216.05,46.19956949568598L216.53333333333333,46.0159425434683L217.01666666666665,45.985710534815354L217.5,44.92285904111688L217.98333333333335,44.854392789661915L218.46666666666667,45.037052438434586L218.95,45.214780496330945L219.43333333333334,45.35822646611513L219.91666666666666,45.54627931284148L220.4,45.3316212045967L220.88333333333335,45.47253546100967L221.36666666666665,45.65912991026977L221.85,45.12536566258282L222.33333333333334,45.13934947655352L222.81666666666666,45.0254863746419L223.3,45.196162528991096L223.78333333333333,44.859509450760356L224.26666666666665,39.29524453012195L224.75,38.849137575386294L225.23333333333332,38.0138391223806L225.71666666666667,38.310148181033185L226.20000000000002,37.982551459088285L226.6833333333333,34.13509805042102L227.16666666666666,34.368495387414384L227.65,34.60077030908994L228.13333333333333,34.48759935037981L228.61666666666667,34.72508518805947L229.10000000000002,34.239403793669766L229.58333333333331,34.474145097567515L230.06666666666666,34.725689347020506L230.55,34.847009747155624L231.03333333333333,34.97795711793708L231.51666666666668,35.19483455996732L232,35.41831261909792L232.48333333333332,35.49618175222986L232.96666666666667,35.53824563028803L233.45000000000002,35.66602281070263L233.93333333333334,35.481720144888925L234.41666666666666,34.004273828318645L234.9,33.74492287325771L235.38333333333333,33.22214453086136L235.86666666666667,28.703229605690694L236.35,28.273979577895574L236.83333333333334,28.051276988634896L237.31666666666666,28.224304471087237L237.79999999999998,28.39156655163083L238.28333333333333,28.582876340845814L238.76666666666668,28.743589306868444L239.25,28.807142118041725L239.73333333333332,29.049344208018283L240.21666666666667,29.182042285489047L240.7,29.363327386472065L241.18333333333334,29.56343384749553L241.66666666666669,29.750384220470863L242.14999999999998,30.056370365283186L242.63333333333333,30.332897416750654L243.11666666666667,30.592338907848813L243.6,30.86643963104413L244.08333333333334,31.06400306217853L244.5666666666667,31.334658720018723L245.04999999999998,31.51453031593158L245.53333333333333,31.801159623391698L246.01666666666668,31.98759495524908L246.5,32.176820323245835L246.98333333333335,32.359200584493635L247.46666666666667,32.54918089618039L247.95,32.717957928325745L248.43333333333334,32.90872389732658L248.91666666666666,33.035364628404864L249.4,33.19125768648058L249.88333333333335,33.375036799451976L250.36666666666665,33.51761950863872L250.85,33.68449480369242L251.33333333333334,33.823411078655994L251.81666666666666,33.98064425585457L252.3,34.27529739825616L252.78333333333333,34.439063533263095L253.26666666666665,34.63389091682188L253.75,34.75389084805204L254.23333333333335,34.86751528992832L254.71666666666667,35.00289796647968L255.2,35.08277301849719L255.68333333333334,35.01178391618808L256.1666666666667,35.21020387453558L256.65,35.41708943050833L257.1333333333333,35.63006910546159L257.6166666666667,35.74592568933963L258.1,35.63326948222121L258.58333333333337,35.84697663595452L259.06666666666666,35.78287736867691L259.55,35.81005107941931L260.0333333333333,35.98547902797779L260.51666666666665,36.173956547426116L261,36.36738357737826L261.4833333333333,34.56021758562741L261.96666666666664,32.03478661838005L262.45,32.204825880604915L262.93333333333334,29.491656471126902L263.4166666666667,27.8464392128636L263.90000000000003,28.010474036544537L264.3833333333333,28.174970623536325L264.8666666666667,28.32633932516154L265.35,28.498570103443825L265.8333333333333,27.369732961153517L266.31666666666666,25.20859322267546" style="fill: none;" fill="none"></path></g></g></g></g><g opacity="0.2"><g><g><g><path stroke="rgb(0, 153, 136)" stroke-width="2px" d="M24.166666666666664,137.95L24.650000000000002,144.625L25.133333333333333,141.065L25.616666666666667,148.63L26.099999999999998,150.855L26.583333333333332,147.29500000000002L27.066666666666666,151.745L27.55,150.41L28.03333333333333,151.745L28.516666666666666,151.745L29,148.63L29.483333333333334,148.63L29.966666666666665,148.185L30.45,149.52L30.933333333333334,149.965L31.416666666666668,146.85L31.9,145.07L32.38333333333333,142.845L32.86666666666667,149.52L33.35,148.185L33.833333333333336,141.95499999999998L34.31666666666666,149.52L34.8,152.19L35.28333333333334,150.41L35.766666666666666,147.74L36.25,143.735L36.733333333333334,141.95499999999998L37.21666666666666,146.85L37.7,143.29L38.18333333333333,145.96L38.666666666666664,141.51L39.150000000000006,146.85L39.63333333333333,143.29L40.11666666666667,142.845L40.6,140.175L41.083333333333336,141.51L41.56666666666667,143.735L42.05,140.62L42.53333333333333,142.4L43.01666666666667,143.29L43.5,140.175L43.983333333333334,141.95499999999998L44.46666666666666,135.725L44.95,147.74L45.43333333333334,143.735L45.916666666666664,138.39499999999998L46.4,146.405L46.88333333333333,128.605L47.36666666666667,143.29L47.85,148.63L48.33333333333333,127.715L48.81666666666667,133.5L49.300000000000004,129.495L49.78333333333333,118.815L50.266666666666666,103.24000000000001L50.75,123.265L51.233333333333334,138.84L51.71666666666667,116.14500000000001L52.199999999999996,123.265L52.68333333333334,130.385L53.166666666666664,125.045L53.65,132.61L54.13333333333333,121.485L54.61666666666667,149.965L55.1,146.405L55.583333333333336,122.375L56.06666666666666,125.935L56.550000000000004,121.03999999999999L57.03333333333333,102.35000000000001L57.516666666666666,123.265L58,125.935L58.483333333333334,144.625L58.96666666666667,125.045L59.449999999999996,92.56L59.93333333333333,73.87L60.41666666666667,118.815L60.9,102.795L61.38333333333333,116.59L61.86666666666667,113.92L62.35,117.925L62.833333333333336,102.35000000000001L63.31666666666666,118.815L63.8,76.095L64.28333333333333,78.765L64.76666666666667,117.47999999999999L65.25,115.255L65.73333333333333,106.8L66.21666666666667,111.69500000000001L66.7,113.92L67.18333333333334,112.14L67.66666666666667,110.80499999999999L68.14999999999999,134.835L68.63333333333333,116.14500000000001L69.11666666666667,122.375L69.6,127.27000000000001L70.08333333333333,122.82L70.56666666666668,124.6L71.05,112.14L71.53333333333333,126.825L72.01666666666667,117.925L72.5,150.41L72.98333333333333,121.485L73.46666666666667,125.935L73.95,122.82L74.43333333333332,125.045L74.91666666666667,123.265L75.4,126.825L75.88333333333333,118.37L76.36666666666666,110.80499999999999L76.85000000000001,109.02499999999999L77.33333333333333,123.265L77.81666666666666,122.375L78.30000000000001,101.46000000000001L78.78333333333333,81.435L79.26666666666667,117.925L79.75,79.21L80.23333333333333,61.41L80.71666666666667,36.935L81.2,68.975L81.68333333333334,116.59L82.16666666666667,107.24499999999999L82.64999999999999,143.735L83.13333333333334,117.925L83.61666666666666,115.7L84.1,118.37L84.58333333333334,110.36L85.06666666666666,110.80499999999999L85.55,116.14500000000001L86.03333333333335,120.15L86.51666666666667,113.03L87,108.58L87.48333333333333,120.15L87.96666666666667,115.255L88.45,121.03999999999999L88.93333333333332,113.92L89.41666666666667,114.36500000000001L89.9,115.255L90.38333333333333,117.925L90.86666666666667,108.13499999999999L91.35,109.91499999999999L91.83333333333333,113.92L92.31666666666668,118.37L92.8,117.925L93.28333333333333,120.595L93.76666666666667,110.80499999999999L94.25,117.035L94.73333333333333,110.36L95.21666666666665,111.69500000000001L95.7,105.02000000000001L96.18333333333334,118.37L96.66666666666666,113.03L97.15,113.47500000000001L97.63333333333334,118.37L98.11666666666666,117.035L98.60000000000001,119.705L99.08333333333333,118.815L99.56666666666666,113.03L100.05,136.17000000000002L100.53333333333333,117.925L101.01666666666667,119.705L101.5,118.815L101.98333333333333,111.25L102.46666666666667,116.59L102.94999999999999,116.14500000000001L103.43333333333334,115.255L103.91666666666667,118.37L104.39999999999999,114.36500000000001L104.88333333333334,109.47L105.36666666666667,105.465L105.85,110.36L106.33333333333333,111.69500000000001L106.81666666666668,109.02499999999999L107.3,106.35499999999999L107.78333333333333,106.8L108.26666666666667,110.80499999999999L108.75,109.47L109.23333333333333,106.35499999999999L109.71666666666667,109.91499999999999L110.2,109.91499999999999L110.68333333333332,108.58L111.16666666666667,105.465L111.65,107.69L112.13333333333333,109.02499999999999L112.61666666666666,107.69L113.10000000000001,107.69L113.58333333333333,109.02499999999999L114.06666666666666,104.13000000000001L114.55000000000001,108.58L115.03333333333333,111.25L115.51666666666667,109.02499999999999L116,105.02000000000001L116.48333333333333,109.02499999999999L116.96666666666667,110.80499999999999L117.45,109.91499999999999L117.93333333333334,107.69L118.41666666666667,109.91499999999999L118.89999999999999,105.91L119.38333333333334,104.575L119.86666666666666,105.02000000000001L120.35,107.69L120.83333333333334,108.13499999999999L121.31666666666666,94.34L121.8,92.11500000000001L122.28333333333335,84.55L122.76666666666667,96.565L123.25,147.29500000000002L123.73333333333333,89.44500000000001L124.21666666666667,92.56L124.7,80.545L125.18333333333332,90.33500000000001L125.66666666666667,93.89500000000001L126.15,78.32L126.63333333333333,95.22999999999999L127.11666666666667,57.405L127.6,72.535L128.08333333333334,62.3L128.56666666666666,54.290000000000006L129.05,23.140000000000015L129.53333333333333,11.125L130.01666666666665,32.93000000000001L130.5,0.8900000000000148L130.98333333333332,50.730000000000004L131.46666666666667,54.735L131.95000000000002,56.515L132.43333333333334,67.195L132.91666666666666,62.3L133.4,63.19L133.88333333333333,54.290000000000006L134.36666666666667,61.855000000000004L134.85,44.05500000000001L135.33333333333334,53.400000000000006L135.81666666666666,43.609999999999985L136.29999999999998,141.065L136.78333333333333,61.855000000000004L137.26666666666665,67.64L137.75,61.855000000000004L138.23333333333335,141.065L138.71666666666667,48.06L139.2,141.065L139.68333333333334,139.285L140.16666666666666,59.629999999999995L140.65,47.170000000000016L141.13333333333335,4.450000000000017L141.61666666666667,55.18000000000001L142.1,27.144999999999982L142.58333333333331,37.379999999999995L143.06666666666666,27.144999999999982L143.55,54.290000000000006L144.03333333333333,51.620000000000005L144.51666666666668,-6.675000000000011L145,42.72L145.48333333333335,23.140000000000015L145.96666666666667,-182.45L146.45,44.05500000000001L146.93333333333334,10.680000000000007L147.41666666666666,-14.240000000000009L149.35,-20.914999999999992L149.83333333333334,43.609999999999985L150.31666666666666,60.519999999999996L150.8,0.8900000000000148L151.28333333333333,-40.495000000000005L152.25,-77.43L152.73333333333332,32.04000000000002L153.21666666666667,-248.755L153.70000000000002,-26.69999999999999L154.1833333333333,37.379999999999995L154.66666666666666,29.370000000000005L155.15,94.34L155.63333333333333,-178L156.11666666666667,107.24499999999999L156.60000000000002,95.675L157.08333333333331,105.02000000000001L157.56666666666666,-10.680000000000007L158.05,97.89999999999999L158.53333333333333,105.02000000000001L159.01666666666668,2.670000000000016L159.5,40.94L159.98333333333332,83.215L160.46666666666667,104.575L160.95000000000002,107.69L161.43333333333334,114.36500000000001L161.91666666666666,118.37L162.4,107.24499999999999L162.88333333333333,100.57000000000001L163.36666666666667,110.36L163.85,111.69500000000001L164.33333333333334,105.465L164.81666666666666,110.80499999999999L165.29999999999998,118.37L165.78333333333333,110.80499999999999L166.26666666666668,114.36500000000001L166.75,109.91499999999999L167.23333333333332,109.47L167.71666666666667,122.82L168.2,119.705L168.68333333333334,138.39499999999998L169.16666666666669,122.375L169.64999999999998,112.58500000000001L170.13333333333333,107.24499999999999L170.61666666666667,101.46000000000001L171.1,112.14L171.58333333333334,115.7L172.0666666666667,108.58L172.54999999999998,108.13499999999999L173.03333333333333,110.36L173.51666666666668,95.675L174,101.46000000000001L174.48333333333335,-53.400000000000006L174.96666666666667,34.265000000000015L175.45,106.35499999999999L175.93333333333334,110.36L176.41666666666666,107.69L176.9,-405.8399999999999L177.38333333333335,67.64L177.86666666666665,76.095L178.35,83.66L178.83333333333334,83.215L179.31666666666666,56.959999999999994L179.8,-631.9L180.28333333333333,-175.77500000000003L180.76666666666665,98.345L181.25,96.565L181.73333333333335,-143.28999999999996L182.21666666666667,-2.2249999999999943L182.7,10.680000000000007L183.18333333333334,42.72L183.66666666666666,-37.82499999999999L184.15,16.909999999999997L184.63333333333335,27.590000000000003L185.11666666666665,44.94499999999999L185.6,22.25L186.08333333333334,33.375L186.56666666666666,49.39499999999998L187.05,7.564999999999998L187.53333333333333,-99.68L188.01666666666665,76.54L188.5,79.655L188.98333333333332,37.379999999999995L189.46666666666667,68.975L189.95000000000002,72.09L190.4333333333333,4.0049999999999955L190.91666666666666,-146.84999999999997L191.4,-207.37L191.88333333333333,48.95000000000002L192.36666666666667,66.75L192.85000000000002,60.519999999999996L193.33333333333331,-1098.26L193.81666666666666,94.785L194.3,-4379.245L194.78333333333333,151.3L195.26666666666668,150.855L195.75,126.38L196.23333333333332,134.39L196.71666666666667,82.77L197.20000000000002,-7288.655L197.68333333333334,149.965L198.16666666666666,151.3L198.65,151.3L199.13333333333333,150.41L199.61666666666667,80.99L200.1,112.58500000000001L200.58333333333334,89L201.06666666666666,109.91499999999999L201.54999999999998,109.91499999999999L202.03333333333333,102.795L202.51666666666668,110.80499999999999L203,99.235L203.48333333333332,57.849999999999994L203.96666666666667,71.2L204.45,68.085L204.93333333333334,82.77L205.41666666666669,80.1L205.89999999999998,69.865L206.38333333333333,80.99L206.86666666666667,72.535L207.35,67.64L207.83333333333334,74.315L208.3166666666667,52.510000000000005L208.79999999999998,46.724999999999994L209.28333333333333,76.54L209.76666666666668,54.290000000000006L210.25,80.99L210.73333333333335,66.305L211.21666666666667,60.965L211.7,65.415L212.18333333333334,77.43L212.66666666666666,67.64L213.15,78.32L213.63333333333335,56.06999999999999L214.11666666666665,103.24000000000001L214.6,105.465L215.08333333333334,114.81L215.56666666666666,-56.96000000000001L216.05,64.97L216.53333333333333,-14.240000000000009L217.01666666666665,36.045000000000016L217.5,-305.27L217.98333333333335,22.25L218.46666666666667,105.465L218.95,104.13000000000001L219.43333333333334,93.00500000000001L219.91666666666666,108.13499999999999L220.4,-26.254999999999995L220.88333333333335,92.56L221.36666666666665,108.13499999999999L221.85,-133.945L222.33333333333334,49.84L222.81666666666666,6.674999999999983L223.3,102.795L223.78333333333333,-68.975L225.23333333333332,-246.08499999999998L225.71666666666667,139.285L226.20000000000002,-73.87L226.6833333333333,-1282.045L227.16666666666666,114.36500000000001L227.65,114.36500000000001L228.13333333333333,-4.449999999999989L228.61666666666667,116.59L229.10000000000002,-133.5L229.58333333333331,115.7L230.06666666666666,121.93L230.55,76.985L231.03333333333333,80.545L231.51666666666668,110.80499999999999L232,113.47500000000001L232.48333333333332,62.745000000000005L232.96666666666667,50.285L233.45000000000002,80.545L233.93333333333334,-29.370000000000005L236.83333333333334,-51.17500000000001L237.31666666666666,89.89L237.79999999999998,88.11L238.28333333333333,97.00999999999999L238.76666666666668,86.33L239.25,51.620000000000005L239.73333333333332,116.14500000000001L240.21666666666667,76.985L240.7,94.785L241.18333333333334,101.905L241.66666666666669,97.455L242.14999999999998,141.065L242.63333333333333,130.82999999999998L243.11666666666667,125.045L243.6,130.82999999999998L244.08333333333334,103.24000000000001L244.5666666666667,130.385L245.04999999999998,97.455L245.53333333333333,137.06L246.01666666666668,100.57000000000001L246.5,101.905L246.98333333333335,99.67999999999999L247.46666666666667,102.795L247.95,95.22999999999999L248.43333333333334,103.685L248.91666666666666,80.1L249.4,91.22500000000001L249.88333333333335,101.905L250.36666666666665,86.775L250.85,96.11999999999999L251.33333333333334,85.885L251.81666666666666,93.00500000000001L252.3,145.07L252.78333333333333,96.11999999999999L253.26666666666665,108.13499999999999L253.75,80.1L254.23333333333335,77.875L254.71666666666667,86.33L255.2,65.415L255.68333333333334,8.01000000000002L256.1666666666667,110.80499999999999L256.65,114.36500000000001L257.1333333333333,117.035L257.6166666666667,80.1L258.1,-7.564999999999998L258.58333333333337,117.925L259.06666666666666,11.125L259.55,46.28L260.0333333333333,103.685L260.51666666666665,109.02499999999999L261,111.25L261.4833333333333,-666.165L261.96666666666664,-948.74L262.45,98.345L262.93333333333334,-1027.5049999999999L263.4166666666667,-614.1L263.90000000000003,92.11500000000001L264.3833333333333,92.56L264.8666666666667,87.665L265.35,96.11999999999999L265.8333333333333,-416.52" style="fill: none;" fill="none"></path></g></g></g></g></g></g><g transform="translate(40, 178)" clip-path="url(#clip_1)"><clipPath id="clip_1"><rect width="290" height="22"></rect></clipPath><g><g><line x1="0" y1="0" x2="0" y2="5" style="visibility: inherit;" fill="rgb(0, 0, 0)" stroke="rgb(204, 204, 204)" stroke-width="1px"></line><line x1="24.166666666666664" y1="0" x2="24.166666666666664" y2="5" style="visibility: inherit;" fill="rgb(0, 0, 0)" stroke="rgb(204, 204, 204)" stroke-width="1px"></line><line x1="48.33333333333333" y1="0" x2="48.33333333333333" y2="5" style="visibility: inherit;" fill="rgb(0, 0, 0)" stroke="rgb(204, 204, 204)" stroke-width="1px"></line><line x1="72.5" y1="0" x2="72.5" y2="5" style="visibility: inherit;" fill="rgb(0, 0, 0)" stroke="rgb(204, 204, 204)" stroke-width="1px"></line><line x1="96.66666666666666" y1="0" x2="96.66666666666666" y2="5" style="visibility: inherit;" fill="rgb(0, 0, 0)" stroke="rgb(204, 204, 204)" stroke-width="1px"></line><line x1="120.83333333333334" y1="0" x2="120.83333333333334" y2="5" style="visibility: inherit;" fill="rgb(0, 0, 0)" stroke="rgb(204, 204, 204)" stroke-width="1px"></line><line x1="145" y1="0" x2="145" y2="5" style="visibility: inherit;" fill="rgb(0, 0, 0)" stroke="rgb(204, 204, 204)" stroke-width="1px"></line><line x1="169.16666666666669" y1="0" x2="169.16666666666669" y2="5" style="visibility: inherit;" fill="rgb(0, 0, 0)" stroke="rgb(204, 204, 204)" stroke-width="1px"></line><line x1="193.33333333333331" y1="0" x2="193.33333333333331" y2="5" style="visibility: inherit;" fill="rgb(0, 0, 0)" stroke="rgb(204, 204, 204)" stroke-width="1px"></line><line x1="217.5" y1="0" x2="217.5" y2="5" style="visibility: inherit;" fill="rgb(0, 0, 0)" stroke="rgb(204, 204, 204)" stroke-width="1px"></line><line x1="241.66666666666669" y1="0" x2="241.66666666666669" y2="5" style="visibility: inherit;" fill="rgb(0, 0, 0)" stroke="rgb(204, 204, 204)" stroke-width="1px"></line><line x1="265.8333333333333" y1="0" x2="265.8333333333333" y2="5" style="visibility: inherit;" fill="rgb(0, 0, 0)" stroke="rgb(204, 204, 204)" stroke-width="1px"></line><line x1="290" y1="0" x2="290" y2="5" style="visibility: inherit;" fill="rgb(0, 0, 0)" stroke="rgb(204, 204, 204)" stroke-width="1px"></line></g><g transform="translate(0, 8)"><text x="0" y="0" dx="0em" dy="0.95em" style="text-anchor: middle; visibility: hidden; font-family: &quot;Helvetica Neue&quot;, sans-serif; font-size: 12px; font-weight: 200;" fill="rgb(50, 49, 63)" stroke="none" stroke-width="1px">-50</text><text x="24.166666666666664" y="0" dx="0em" dy="0.95em" style="text-anchor: middle; visibility: inherit; font-family: &quot;Helvetica Neue&quot;, sans-serif; font-size: 12px; font-weight: 200;" fill="rgb(50, 49, 63)" stroke="none" stroke-width="1px">0</text><text x="48.33333333333333" y="0" dx="0em" dy="0.95em" style="text-anchor: middle; visibility: hidden; font-family: &quot;Helvetica Neue&quot;, sans-serif; font-size: 12px; font-weight: 200;" fill="rgb(50, 49, 63)" stroke="none" stroke-width="1px">50</text><text x="72.5" y="0" dx="0em" dy="0.95em" style="text-anchor: middle; visibility: inherit; font-family: &quot;Helvetica Neue&quot;, sans-serif; font-size: 12px; font-weight: 200;" fill="rgb(50, 49, 63)" stroke="none" stroke-width="1px">100</text><text x="96.66666666666666" y="0" dx="0em" dy="0.95em" style="text-anchor: middle; visibility: hidden; font-family: &quot;Helvetica Neue&quot;, sans-serif; font-size: 12px; font-weight: 200;" fill="rgb(50, 49, 63)" stroke="none" stroke-width="1px">150</text><text x="120.83333333333334" y="0" dx="0em" dy="0.95em" style="text-anchor: middle; visibility: inherit; font-family: &quot;Helvetica Neue&quot;, sans-serif; font-size: 12px; font-weight: 200;" fill="rgb(50, 49, 63)" stroke="none" stroke-width="1px">200</text><text x="145" y="0" dx="0em" dy="0.95em" style="text-anchor: middle; visibility: hidden; font-family: &quot;Helvetica Neue&quot;, sans-serif; font-size: 12px; font-weight: 200;" fill="rgb(50, 49, 63)" stroke="none" stroke-width="1px">250</text><text x="169.16666666666669" y="0" dx="0em" dy="0.95em" style="text-anchor: middle; visibility: inherit; font-family: &quot;Helvetica Neue&quot;, sans-serif; font-size: 12px; font-weight: 200;" fill="rgb(50, 49, 63)" stroke="none" stroke-width="1px">300</text><text x="193.33333333333331" y="0" dx="0em" dy="0.95em" style="text-anchor: middle; visibility: hidden; font-family: &quot;Helvetica Neue&quot;, sans-serif; font-size: 12px; font-weight: 200;" fill="rgb(50, 49, 63)" stroke="none" stroke-width="1px">350</text><text x="217.5" y="0" dx="0em" dy="0.95em" style="text-anchor: middle; visibility: inherit; font-family: &quot;Helvetica Neue&quot;, sans-serif; font-size: 12px; font-weight: 200;" fill="rgb(50, 49, 63)" stroke="none" stroke-width="1px">400</text><text x="241.66666666666669" y="0" dx="0em" dy="0.95em" style="text-anchor: middle; visibility: hidden; font-family: &quot;Helvetica Neue&quot;, sans-serif; font-size: 12px; font-weight: 200;" fill="rgb(50, 49, 63)" stroke="none" stroke-width="1px">450</text><text x="265.8333333333333" y="0" dx="0em" dy="0.95em" style="text-anchor: middle; visibility: inherit; font-family: &quot;Helvetica Neue&quot;, sans-serif; font-size: 12px; font-weight: 200;" fill="rgb(50, 49, 63)" stroke="none" stroke-width="1px">500</text><text x="290" y="0" dx="0em" dy="0.95em" style="text-anchor: middle; visibility: hidden; font-family: &quot;Helvetica Neue&quot;, sans-serif; font-size: 12px; font-weight: 200;" fill="rgb(50, 49, 63)" stroke="none" stroke-width="1px">550</text></g><line x1="0" y1="0" x2="290" y2="0" fill="rgb(0, 0, 0)" stroke="rgb(204, 204, 204)" stroke-width="1px"></line></g></g></g></g></svg>