<?xml version="1.0" encoding="utf-8" standalone="no"?>
<!DOCTYPE svg PUBLIC "-//W3C//DTD SVG 1.1//EN"
  "http://www.w3.org/Graphics/SVG/1.1/DTD/svg11.dtd">
<!-- Created with matplotlib (https://matplotlib.org/) -->
<svg height="282.865304pt" version="1.1" viewBox="0 0 491.542709 282.865304" width="491.542709pt" xmlns="http://www.w3.org/2000/svg" xmlns:xlink="http://www.w3.org/1999/xlink">
 <metadata>
  <rdf:RDF xmlns:cc="http://creativecommons.org/ns#" xmlns:dc="http://purl.org/dc/elements/1.1/" xmlns:rdf="http://www.w3.org/1999/02/22-rdf-syntax-ns#">
   <cc:Work>
    <dc:type rdf:resource="http://purl.org/dc/dcmitype/StillImage"/>
    <dc:date>2020-10-31T16:53:25.470649</dc:date>
    <dc:format>image/svg+xml</dc:format>
    <dc:creator>
     <cc:Agent>
      <dc:title>Matplotlib v3.3.2, https://matplotlib.org/</dc:title>
     </cc:Agent>
    </dc:creator>
   </cc:Work>
  </rdf:RDF>
 </metadata>
 <defs>
  <style type="text/css">*{stroke-linecap:butt;stroke-linejoin:round;}</style>
 </defs>
 <g id="figure_1">
  <g id="patch_1">
   <path d="M 0 282.865304 
L 491.542709 282.865304 
L 491.542709 0 
L 0 0 
z
" style="fill:#ffffff;"/>
  </g>
  <g id="axes_1">
   <g id="patch_2">
    <path d="M 41.542709 245.196997 
L 487.942709 245.196997 
L 487.942709 23.436997 
L 41.542709 23.436997 
z
" style="fill:#ffffff;"/>
   </g>
   <g id="matplotlib.axis_1">
    <g id="xtick_1">
     <g id="line2d_1">
      <path clip-path="url(#pc59a02ecec)" d="M 61.833618 245.196997 
L 61.833618 23.436997 
" style="fill:none;stroke:#b0b0b0;stroke-dasharray:3.2,0.8,0.5,0.8;stroke-dashoffset:0;stroke-width:0.5;"/>
     </g>
     <g id="line2d_2">
      <defs>
       <path d="M 0 0 
L 0 -3 
" id="m10e0c7676d" style="stroke:#000000;stroke-width:0.5;"/>
      </defs>
      <g>
       <use style="stroke:#000000;stroke-width:0.5;" x="61.833618" xlink:href="#m10e0c7676d" y="245.196997"/>
      </g>
     </g>
     <g id="line2d_3">
      <defs>
       <path d="M 0 0 
L 0 3 
" id="m1ab1bf032b" style="stroke:#000000;stroke-width:0.5;"/>
      </defs>
      <g>
       <use style="stroke:#000000;stroke-width:0.5;" x="61.833618" xlink:href="#m1ab1bf032b" y="23.436997"/>
      </g>
     </g>
     <g id="text_1">
      <!-- $\mathdefault{0}$ -->
      <g transform="translate(59.342951 255.615495)scale(0.1 -0.1)">
       <defs>
        <path d="M 42 31.640625 
C 42 37.75 41.90625 48.125 37.703125 56.109375 
C 34 63.109375 28.09375 65.59375 22.90625 65.59375 
C 18.09375 65.59375 12 63.40625 8.203125 56.203125 
C 4.203125 48.71875 3.796875 39.4375 3.796875 31.640625 
C 3.796875 25.953125 3.90625 17.28125 7 9.671875 
C 11.296875 -0.609375 19 -2 22.90625 -2 
C 27.5 -2 34.5 -0.109375 38.59375 9.375 
C 41.59375 16.28125 42 24.359375 42 31.640625 
z
M 22.90625 -0.40625 
C 16.5 -0.40625 12.703125 5.078125 11.296875 12.6875 
C 10.203125 18.5625 10.203125 27.15625 10.203125 32.75 
C 10.203125 40.4375 10.203125 46.828125 11.5 52.921875 
C 13.40625 61.390625 19 64 22.90625 64 
C 27 64 32.296875 61.296875 34.203125 53.125 
C 35.5 47.4375 35.59375 40.734375 35.59375 32.75 
C 35.59375 26.25 35.59375 18.265625 34.40625 12.375 
C 32.296875 1.484375 26.40625 -0.40625 22.90625 -0.40625 
z
" id="CMR17-48"/>
       </defs>
       <use transform="scale(0.996264)" xlink:href="#CMR17-48"/>
      </g>
     </g>
    </g>
    <g id="xtick_2">
     <g id="line2d_4">
      <path clip-path="url(#pc59a02ecec)" d="M 148.45806 245.196997 
L 148.45806 23.436997 
" style="fill:none;stroke:#b0b0b0;stroke-dasharray:3.2,0.8,0.5,0.8;stroke-dashoffset:0;stroke-width:0.5;"/>
     </g>
     <g id="line2d_5">
      <g>
       <use style="stroke:#000000;stroke-width:0.5;" x="148.45806" xlink:href="#m10e0c7676d" y="245.196997"/>
      </g>
     </g>
     <g id="line2d_6">
      <g>
       <use style="stroke:#000000;stroke-width:0.5;" x="148.45806" xlink:href="#m1ab1bf032b" y="23.436997"/>
      </g>
     </g>
     <g id="text_2">
      <!-- $\mathdefault{20000}$ -->
      <g transform="translate(136.004721 255.615495)scale(0.1 -0.1)">
       <defs>
        <path d="M 41.703125 15.453125 
L 39.90625 15.453125 
C 38.90625 8.375 38.09375 7.171875 37.703125 6.5625 
C 37.203125 5.765625 30 5.765625 28.59375 5.765625 
L 9.40625 5.765625 
C 13 9.671875 20 16.75 28.5 24.953125 
C 34.59375 30.734375 41.703125 37.53125 41.703125 47.421875 
C 41.703125 59.21875 32.296875 66 21.796875 66 
C 10.796875 66 4.09375 56.3125 4.09375 47.34375 
C 4.09375 43.4375 7 42.9375 8.203125 42.9375 
C 9.203125 42.9375 12.203125 43.546875 12.203125 47.03125 
C 12.203125 50.109375 9.59375 51 8.203125 51 
C 7.59375 51 7 50.90625 6.59375 50.703125 
C 8.5 59.21875 14.296875 63.40625 20.40625 63.40625 
C 29.09375 63.40625 34.796875 56.515625 34.796875 47.421875 
C 34.796875 38.734375 29.703125 31.25 24 24.75 
L 4.09375 2.28125 
L 4.09375 0 
L 39.296875 0 
z
" id="CMR17-50"/>
       </defs>
       <use transform="scale(0.996264)" xlink:href="#CMR17-50"/>
       <use transform="translate(45.690477 0)scale(0.996264)" xlink:href="#CMR17-48"/>
       <use transform="translate(91.380954 0)scale(0.996264)" xlink:href="#CMR17-48"/>
       <use transform="translate(137.071431 0)scale(0.996264)" xlink:href="#CMR17-48"/>
       <use transform="translate(182.761908 0)scale(0.996264)" xlink:href="#CMR17-48"/>
      </g>
     </g>
    </g>
    <g id="xtick_3">
     <g id="line2d_7">
      <path clip-path="url(#pc59a02ecec)" d="M 235.082501 245.196997 
L 235.082501 23.436997 
" style="fill:none;stroke:#b0b0b0;stroke-dasharray:3.2,0.8,0.5,0.8;stroke-dashoffset:0;stroke-width:0.5;"/>
     </g>
     <g id="line2d_8">
      <g>
       <use style="stroke:#000000;stroke-width:0.5;" x="235.082501" xlink:href="#m10e0c7676d" y="245.196997"/>
      </g>
     </g>
     <g id="line2d_9">
      <g>
       <use style="stroke:#000000;stroke-width:0.5;" x="235.082501" xlink:href="#m1ab1bf032b" y="23.436997"/>
      </g>
     </g>
     <g id="text_3">
      <!-- $\mathdefault{40000}$ -->
      <g transform="translate(222.629163 255.615495)scale(0.1 -0.1)">
       <defs>
        <path d="M 33.59375 64.40625 
C 33.59375 66.5 33.5 66.5 31.703125 66.5 
L 2 19.59375 
L 2 17 
L 27.796875 17 
L 27.796875 7.140625 
C 27.796875 3.5 27.59375 2.5 20.59375 2.5 
L 18.703125 2.5 
L 18.703125 0 
C 21.90625 0 27.296875 0 30.703125 0 
C 34.09375 0 39.5 0 42.703125 0 
L 42.703125 2.5 
L 40.796875 2.5 
C 33.796875 2.5 33.59375 3.5 33.59375 7.140625 
L 33.59375 17 
L 43.796875 17 
L 43.796875 19.59375 
L 33.59375 19.59375 
z
M 28.09375 57.859375 
L 28.09375 19.59375 
L 4 19.59375 
z
" id="CMR17-52"/>
       </defs>
       <use transform="scale(0.996264)" xlink:href="#CMR17-52"/>
       <use transform="translate(45.690477 0)scale(0.996264)" xlink:href="#CMR17-48"/>
       <use transform="translate(91.380954 0)scale(0.996264)" xlink:href="#CMR17-48"/>
       <use transform="translate(137.071431 0)scale(0.996264)" xlink:href="#CMR17-48"/>
       <use transform="translate(182.761908 0)scale(0.996264)" xlink:href="#CMR17-48"/>
      </g>
     </g>
    </g>
    <g id="xtick_4">
     <g id="line2d_10">
      <path clip-path="url(#pc59a02ecec)" d="M 321.706942 245.196997 
L 321.706942 23.436997 
" style="fill:none;stroke:#b0b0b0;stroke-dasharray:3.2,0.8,0.5,0.8;stroke-dashoffset:0;stroke-width:0.5;"/>
     </g>
     <g id="line2d_11">
      <g>
       <use style="stroke:#000000;stroke-width:0.5;" x="321.706942" xlink:href="#m10e0c7676d" y="245.196997"/>
      </g>
     </g>
     <g id="line2d_12">
      <g>
       <use style="stroke:#000000;stroke-width:0.5;" x="321.706942" xlink:href="#m1ab1bf032b" y="23.436997"/>
      </g>
     </g>
     <g id="text_4">
      <!-- $\mathdefault{60000}$ -->
      <g transform="translate(309.253604 255.615495)scale(0.1 -0.1)">
       <defs>
        <path d="M 10.59375 34 
C 10.59375 57.65625 21.796875 63 28.296875 63 
C 30.40625 63 35.5 62.640625 37.5 59 
C 35.90625 59 32.90625 59 32.90625 55.515625 
C 32.90625 52.828125 35.09375 51.921875 36.5 51.921875 
C 37.40625 51.921875 40.09375 52.3125 40.09375 55.625 
C 40.09375 61.78125 35.09375 65.296875 28.203125 65.296875 
C 16.296875 65.296875 3.796875 52.96875 3.796875 31 
C 3.796875 3.953125 15.09375 -2 23.09375 -2 
C 32.796875 -2 42 6.671875 42 20.046875 
C 42 32.515625 33.90625 41.59375 23.703125 41.59375 
C 17.59375 41.59375 13.09375 37.609375 10.59375 30.625 
z
M 23.09375 0.390625 
C 10.796875 0.390625 10.796875 18.75 10.796875 22.4375 
C 10.796875 29.625 14.203125 40 23.5 40 
C 25.203125 40 30.09375 40 33.40625 33.125 
C 35.203125 29.21875 35.203125 25.140625 35.203125 20.140625 
C 35.203125 14.75 35.203125 10.78125 33.09375 6.78125 
C 30.90625 2.671875 27.703125 0.390625 23.09375 0.390625 
z
" id="CMR17-54"/>
       </defs>
       <use transform="scale(0.996264)" xlink:href="#CMR17-54"/>
       <use transform="translate(45.690477 0)scale(0.996264)" xlink:href="#CMR17-48"/>
       <use transform="translate(91.380954 0)scale(0.996264)" xlink:href="#CMR17-48"/>
       <use transform="translate(137.071431 0)scale(0.996264)" xlink:href="#CMR17-48"/>
       <use transform="translate(182.761908 0)scale(0.996264)" xlink:href="#CMR17-48"/>
      </g>
     </g>
    </g>
    <g id="xtick_5">
     <g id="line2d_13">
      <path clip-path="url(#pc59a02ecec)" d="M 408.331383 245.196997 
L 408.331383 23.436997 
" style="fill:none;stroke:#b0b0b0;stroke-dasharray:3.2,0.8,0.5,0.8;stroke-dashoffset:0;stroke-width:0.5;"/>
     </g>
     <g id="line2d_14">
      <g>
       <use style="stroke:#000000;stroke-width:0.5;" x="408.331383" xlink:href="#m10e0c7676d" y="245.196997"/>
      </g>
     </g>
     <g id="line2d_15">
      <g>
       <use style="stroke:#000000;stroke-width:0.5;" x="408.331383" xlink:href="#m1ab1bf032b" y="23.436997"/>
      </g>
     </g>
     <g id="text_5">
      <!-- $\mathdefault{80000}$ -->
      <g transform="translate(395.878045 255.615495)scale(0.1 -0.1)">
       <defs>
        <path d="M 27.203125 35.375 
C 33.5 38.546875 39.90625 43.328125 39.90625 50.984375 
C 39.90625 60.015625 31.09375 65.296875 23 65.296875 
C 13.90625 65.296875 5.90625 58.734375 5.90625 49.6875 
C 5.90625 47.203125 6.5 42.921875 10.40625 39.140625 
C 11.40625 38.15625 15.59375 35.171875 18.296875 33.28125 
C 13.796875 30.984375 3.296875 25.53125 3.296875 14.59375 
C 3.296875 4.359375 13.09375 -2 22.796875 -2 
C 33.5 -2 42.5 5.65625 42.5 15.78125 
C 42.5 24.84375 36.40625 29.015625 32.40625 31.703125 
z
M 14.09375 44.09375 
C 13.296875 44.59375 9.296875 47.671875 9.296875 52.359375 
C 9.296875 58.421875 15.59375 63 22.796875 63 
C 30.703125 63 36.5 57.4375 36.5 50.96875 
C 36.5 41.703125 26.09375 36.421875 25.59375 36.421875 
C 25.5 36.421875 25.40625 36.421875 24.59375 37.03125 
z
M 32.5 23.734375 
C 34 22.640625 38.796875 19.375 38.796875 13.296875 
C 38.796875 5.953125 31.40625 0.390625 23 0.390625 
C 13.90625 0.390625 7 6.84375 7 14.6875 
C 7 22.546875 13.09375 29.09375 20 32.1875 
z
" id="CMR17-56"/>
       </defs>
       <use transform="scale(0.996264)" xlink:href="#CMR17-56"/>
       <use transform="translate(45.690477 0)scale(0.996264)" xlink:href="#CMR17-48"/>
       <use transform="translate(91.380954 0)scale(0.996264)" xlink:href="#CMR17-48"/>
       <use transform="translate(137.071431 0)scale(0.996264)" xlink:href="#CMR17-48"/>
       <use transform="translate(182.761908 0)scale(0.996264)" xlink:href="#CMR17-48"/>
      </g>
     </g>
    </g>
    <g id="xtick_6">
     <g id="line2d_16">
      <defs>
       <path d="M 0 0 
L 0 -1.5 
" id="mb321b1402f" style="stroke:#000000;stroke-width:0.5;"/>
      </defs>
      <g>
       <use style="stroke:#000000;stroke-width:0.5;" x="83.489729" xlink:href="#mb321b1402f" y="245.196997"/>
      </g>
     </g>
     <g id="line2d_17">
      <defs>
       <path d="M 0 0 
L 0 1.5 
" id="me02115b56f" style="stroke:#000000;stroke-width:0.5;"/>
      </defs>
      <g>
       <use style="stroke:#000000;stroke-width:0.5;" x="83.489729" xlink:href="#me02115b56f" y="23.436997"/>
      </g>
     </g>
    </g>
    <g id="xtick_7">
     <g id="line2d_18">
      <g>
       <use style="stroke:#000000;stroke-width:0.5;" x="105.145839" xlink:href="#mb321b1402f" y="245.196997"/>
      </g>
     </g>
     <g id="line2d_19">
      <g>
       <use style="stroke:#000000;stroke-width:0.5;" x="105.145839" xlink:href="#me02115b56f" y="23.436997"/>
      </g>
     </g>
    </g>
    <g id="xtick_8">
     <g id="line2d_20">
      <g>
       <use style="stroke:#000000;stroke-width:0.5;" x="126.801949" xlink:href="#mb321b1402f" y="245.196997"/>
      </g>
     </g>
     <g id="line2d_21">
      <g>
       <use style="stroke:#000000;stroke-width:0.5;" x="126.801949" xlink:href="#me02115b56f" y="23.436997"/>
      </g>
     </g>
    </g>
    <g id="xtick_9">
     <g id="line2d_22">
      <g>
       <use style="stroke:#000000;stroke-width:0.5;" x="170.11417" xlink:href="#mb321b1402f" y="245.196997"/>
      </g>
     </g>
     <g id="line2d_23">
      <g>
       <use style="stroke:#000000;stroke-width:0.5;" x="170.11417" xlink:href="#me02115b56f" y="23.436997"/>
      </g>
     </g>
    </g>
    <g id="xtick_10">
     <g id="line2d_24">
      <g>
       <use style="stroke:#000000;stroke-width:0.5;" x="191.77028" xlink:href="#mb321b1402f" y="245.196997"/>
      </g>
     </g>
     <g id="line2d_25">
      <g>
       <use style="stroke:#000000;stroke-width:0.5;" x="191.77028" xlink:href="#me02115b56f" y="23.436997"/>
      </g>
     </g>
    </g>
    <g id="xtick_11">
     <g id="line2d_26">
      <g>
       <use style="stroke:#000000;stroke-width:0.5;" x="213.42639" xlink:href="#mb321b1402f" y="245.196997"/>
      </g>
     </g>
     <g id="line2d_27">
      <g>
       <use style="stroke:#000000;stroke-width:0.5;" x="213.42639" xlink:href="#me02115b56f" y="23.436997"/>
      </g>
     </g>
    </g>
    <g id="xtick_12">
     <g id="line2d_28">
      <g>
       <use style="stroke:#000000;stroke-width:0.5;" x="256.738611" xlink:href="#mb321b1402f" y="245.196997"/>
      </g>
     </g>
     <g id="line2d_29">
      <g>
       <use style="stroke:#000000;stroke-width:0.5;" x="256.738611" xlink:href="#me02115b56f" y="23.436997"/>
      </g>
     </g>
    </g>
    <g id="xtick_13">
     <g id="line2d_30">
      <g>
       <use style="stroke:#000000;stroke-width:0.5;" x="278.394721" xlink:href="#mb321b1402f" y="245.196997"/>
      </g>
     </g>
     <g id="line2d_31">
      <g>
       <use style="stroke:#000000;stroke-width:0.5;" x="278.394721" xlink:href="#me02115b56f" y="23.436997"/>
      </g>
     </g>
    </g>
    <g id="xtick_14">
     <g id="line2d_32">
      <g>
       <use style="stroke:#000000;stroke-width:0.5;" x="300.050832" xlink:href="#mb321b1402f" y="245.196997"/>
      </g>
     </g>
     <g id="line2d_33">
      <g>
       <use style="stroke:#000000;stroke-width:0.5;" x="300.050832" xlink:href="#me02115b56f" y="23.436997"/>
      </g>
     </g>
    </g>
    <g id="xtick_15">
     <g id="line2d_34">
      <g>
       <use style="stroke:#000000;stroke-width:0.5;" x="343.363052" xlink:href="#mb321b1402f" y="245.196997"/>
      </g>
     </g>
     <g id="line2d_35">
      <g>
       <use style="stroke:#000000;stroke-width:0.5;" x="343.363052" xlink:href="#me02115b56f" y="23.436997"/>
      </g>
     </g>
    </g>
    <g id="xtick_16">
     <g id="line2d_36">
      <g>
       <use style="stroke:#000000;stroke-width:0.5;" x="365.019162" xlink:href="#mb321b1402f" y="245.196997"/>
      </g>
     </g>
     <g id="line2d_37">
      <g>
       <use style="stroke:#000000;stroke-width:0.5;" x="365.019162" xlink:href="#me02115b56f" y="23.436997"/>
      </g>
     </g>
    </g>
    <g id="xtick_17">
     <g id="line2d_38">
      <g>
       <use style="stroke:#000000;stroke-width:0.5;" x="386.675273" xlink:href="#mb321b1402f" y="245.196997"/>
      </g>
     </g>
     <g id="line2d_39">
      <g>
       <use style="stroke:#000000;stroke-width:0.5;" x="386.675273" xlink:href="#me02115b56f" y="23.436997"/>
      </g>
     </g>
    </g>
    <g id="xtick_18">
     <g id="line2d_40">
      <g>
       <use style="stroke:#000000;stroke-width:0.5;" x="429.987493" xlink:href="#mb321b1402f" y="245.196997"/>
      </g>
     </g>
     <g id="line2d_41">
      <g>
       <use style="stroke:#000000;stroke-width:0.5;" x="429.987493" xlink:href="#me02115b56f" y="23.436997"/>
      </g>
     </g>
    </g>
    <g id="xtick_19">
     <g id="line2d_42">
      <g>
       <use style="stroke:#000000;stroke-width:0.5;" x="451.643604" xlink:href="#mb321b1402f" y="245.196997"/>
      </g>
     </g>
     <g id="line2d_43">
      <g>
       <use style="stroke:#000000;stroke-width:0.5;" x="451.643604" xlink:href="#me02115b56f" y="23.436997"/>
      </g>
     </g>
    </g>
    <g id="xtick_20">
     <g id="line2d_44">
      <g>
       <use style="stroke:#000000;stroke-width:0.5;" x="473.299714" xlink:href="#mb321b1402f" y="245.196997"/>
      </g>
     </g>
     <g id="line2d_45">
      <g>
       <use style="stroke:#000000;stroke-width:0.5;" x="473.299714" xlink:href="#me02115b56f" y="23.436997"/>
      </g>
     </g>
    </g>
    <g id="text_6">
     <!-- iteration -->
     <g transform="translate(230.908087 275.38967)scale(0.2 -0.2)">
      <defs>
       <path d="M 15.5 61.078125 
C 15.5 63.265625 13.703125 65.15625 11.40625 65.15625 
C 9.203125 65.15625 7.296875 63.375 7.296875 61.078125 
C 7.296875 58.890625 9.09375 57 11.40625 57 
C 13.59375 57 15.5 58.796875 15.5 61.078125 
z
M 3.796875 42.28125 
L 3.796875 39.703125 
C 9.40625 39.703125 10.203125 39.09375 10.203125 34.328125 
L 10.203125 6.671875 
C 10.203125 2.875 9.796875 2.390625 3.40625 2.390625 
L 3.40625 -0.203125 
C 5.796875 0 10.09375 0 12.59375 0 
C 15 0 19.09375 0 21.40625 -0.203125 
L 21.40625 2.390625 
C 15.5 2.390625 15.296875 2.984375 15.296875 6.5625 
L 15.296875 43.375 
z
" id="CMR17-105"/>
       <path d="M 15.09375 40 
L 29.09375 40 
L 29.09375 42.578125 
L 15.09375 42.578125 
L 15.09375 61 
L 13.296875 61 
C 13.09375 50.703125 9.59375 41.6875 1.09375 41.6875 
L 1.09375 40 
L 9.796875 40 
L 9.796875 12.046875 
C 9.796875 10.15625 9.796875 -1 21.40625 -1 
C 27.296875 -1 30.703125 4.78125 30.703125 12.140625 
L 30.703125 17.8125 
L 28.90625 17.8125 
L 28.90625 12.234375 
C 28.90625 5.375 26.203125 0.796875 22 0.796875 
C 19.09375 0.796875 15.09375 2.78125 15.09375 11.84375 
z
" id="CMR17-116"/>
       <path d="M 38.09375 23 
C 38.5 23.40625 38.5 23.609375 38.5 24.625 
C 38.5 34.96875 33.09375 44 21.703125 44 
C 11.09375 44 2.703125 33.890625 2.703125 21.609375 
C 2.703125 8.609375 12.203125 -1 22.796875 -1 
C 34 -1 38.40625 9.484375 38.40625 11.5625 
C 38.40625 12.25 37.796875 12.25 37.59375 12.25 
C 36.90625 12.25 36.796875 12.046875 36.40625 10.875 
C 34.203125 4.140625 28.703125 0.796875 23.5 0.796875 
C 19.203125 0.796875 14.90625 3.171875 12.203125 7.5 
C 9.09375 12.546875 9.09375 18.375 9.09375 23 
z
M 9.203125 24.5 
C 9.90625 39.140625 17.59375 42.40625 21.59375 42.40625 
C 28.40625 42.40625 33 35.890625 33.09375 24.5 
z
" id="CMR17-101"/>
       <path d="M 15 23.390625 
C 15 33 19.09375 42 26.59375 42 
C 27.296875 42 28 41.90625 28.703125 41.59375 
C 28.703125 41.59375 26.5 40.890625 26.5 38.3125 
C 26.5 35.90625 28.40625 34.90625 29.90625 34.90625 
C 31.09375 34.90625 33.296875 35.609375 33.296875 38.40625 
C 33.296875 41.609375 30.09375 43.59375 26.703125 43.59375 
C 19.09375 43.59375 15.796875 36.203125 14.796875 32.703125 
L 14.703125 32.703125 
L 14.703125 43.59375 
L 3.09375 42.5 
L 3.09375 39.90625 
C 9 39.90625 9.90625 39.296875 9.90625 34.5 
L 9.90625 6.6875 
C 9.90625 2.875 9.5 2.390625 3.09375 2.390625 
L 3.09375 -0.203125 
C 5.5 0 10.09375 0 12.703125 0 
C 15.59375 0 20.703125 0 23.40625 -0.203125 
L 23.40625 2.390625 
C 16.203125 2.390625 15 2.390625 15 6.875 
z
" id="CMR17-114"/>
       <path d="M 36 25.828125 
C 36 32.375 36 35.84375 31.796875 39.734375 
C 28.09375 43 23.796875 44 20.40625 44 
C 12.5 44 6.796875 37.609375 6.796875 30.796875 
C 6.796875 27 9.796875 27 10.40625 27 
C 11.703125 27 14 27.78125 14 30.53125 
C 14 33 12.09375 34.078125 10.40625 34.078125 
C 10 34.078125 9.5 33.96875 9.203125 33.875 
C 11.296875 40.5 16.703125 42.40625 20.203125 42.40625 
C 25.203125 42.40625 30.703125 37.953125 30.703125 29.453125 
L 30.703125 25 
C 24.796875 25 17.703125 24.203125 12.09375 21.203125 
C 5.796875 17.703125 4 12.703125 4 8.90625 
C 4 1.203125 13 -1 18.296875 -1 
C 23.796875 -1 28.90625 2.171875 31.09375 7.984375 
C 31.296875 3.640625 34.09375 -0.28125 38.5 -0.28125 
C 40.59375 -0.28125 45.90625 1.09375 45.90625 8.859375 
L 45.90625 14.375 
L 44.09375 14.375 
L 44.09375 8.78125 
C 44.09375 2.78125 41.40625 2 40.09375 2 
C 36 2 36 7.15625 36 11.53125 
z
M 30.703125 13.59375 
C 30.703125 4.953125 24.5 0.59375 19 0.59375 
C 14 0.59375 10.09375 4.296875 10.09375 8.90625 
C 10.09375 11.890625 11.40625 17.1875 17.203125 20.390625 
C 22 23.09375 27.5 23.5 30.703125 23.5 
z
" id="CMR17-97"/>
       <path d="M 43.09375 21.1875 
C 43.09375 34 33.796875 44 22.90625 44 
C 12 44 2.703125 34 2.703125 21.1875 
C 2.703125 8.609375 12 -1 22.90625 -1 
C 33.796875 -1 43.09375 8.609375 43.09375 21.1875 
z
M 22.90625 0.796875 
C 18.203125 0.796875 14.203125 3.59375 11.90625 7.5 
C 9.40625 11.984375 9.09375 17.59375 9.09375 22 
C 9.09375 26.203125 9.296875 31.40625 11.90625 35.90625 
C 13.90625 39.203125 17.796875 42.40625 22.90625 42.40625 
C 27.40625 42.40625 31.203125 39.90625 33.59375 36.40625 
C 36.703125 31.703125 36.703125 25.109375 36.703125 22 
C 36.703125 18.09375 36.5 12.109375 33.796875 7.296875 
C 31 2.703125 26.703125 0.796875 22.90625 0.796875 
z
" id="CMR17-111"/>
       <path d="M 41.5 30.203125 
C 41.5 35.296875 40.5 43.59375 28.703125 43.59375 
C 20.796875 43.59375 16.703125 37.5 15.203125 33.5 
L 15.09375 33.5 
L 15.09375 43.59375 
L 3.296875 42.5 
L 3.296875 39.90625 
C 9.203125 39.90625 10.09375 39.296875 10.09375 34.5 
L 10.09375 6.6875 
C 10.09375 2.875 9.703125 2.390625 3.296875 2.390625 
L 3.296875 -0.203125 
C 5.703125 0 10.09375 0 12.703125 0 
C 15.296875 0 19.796875 0 22.203125 -0.203125 
L 22.203125 2.390625 
C 15.796875 2.390625 15.40625 2.78125 15.40625 6.6875 
L 15.40625 25.90625 
C 15.40625 35.109375 21 42 28 42 
C 35.40625 42 36.203125 35.40625 36.203125 30.59375 
L 36.203125 6.6875 
C 36.203125 2.875 35.796875 2.390625 29.40625 2.390625 
L 29.40625 -0.203125 
C 31.796875 0 36.203125 0 38.796875 0 
C 41.40625 0 45.90625 0 48.296875 -0.203125 
L 48.296875 2.390625 
C 41.90625 2.390625 41.5 2.78125 41.5 6.6875 
z
" id="CMR17-110"/>
      </defs>
      <use transform="scale(0.996264)" xlink:href="#CMR17-105"/>
      <use transform="translate(24.871058 0)scale(0.996264)" xlink:href="#CMR17-116"/>
      <use transform="translate(60.151826 0)scale(0.996264)" xlink:href="#CMR17-101"/>
      <use transform="translate(100.637487 0)scale(0.996264)" xlink:href="#CMR17-114"/>
      <use transform="translate(135.918255 0)scale(0.996264)" xlink:href="#CMR17-97"/>
      <use transform="translate(181.608732 0)scale(0.996264)" xlink:href="#CMR17-116"/>
      <use transform="translate(216.889499 0)scale(0.996264)" xlink:href="#CMR17-105"/>
      <use transform="translate(241.760558 0)scale(0.996264)" xlink:href="#CMR17-111"/>
      <use transform="translate(287.451035 0)scale(0.996264)" xlink:href="#CMR17-110"/>
     </g>
    </g>
   </g>
   <g id="matplotlib.axis_2">
    <g id="ytick_1">
     <g id="line2d_46">
      <path clip-path="url(#pc59a02ecec)" d="M 41.542709 220.09582 
L 487.942709 220.09582 
" style="fill:none;stroke:#b0b0b0;stroke-dasharray:3.2,0.8,0.5,0.8;stroke-dashoffset:0;stroke-width:0.5;"/>
     </g>
     <g id="line2d_47">
      <defs>
       <path d="M 0 0 
L 3 0 
" id="m691503189c" style="stroke:#000000;stroke-width:0.5;"/>
      </defs>
      <g>
       <use style="stroke:#000000;stroke-width:0.5;" x="41.542709" xlink:href="#m691503189c" y="220.09582"/>
      </g>
     </g>
     <g id="line2d_48">
      <defs>
       <path d="M 0 0 
L -3 0 
" id="ma81942f87b" style="stroke:#000000;stroke-width:0.5;"/>
      </defs>
      <g>
       <use style="stroke:#000000;stroke-width:0.5;" x="487.942709" xlink:href="#ma81942f87b" y="220.09582"/>
      </g>
     </g>
     <g id="text_7">
      <!-- $\mathdefault{0.2}$ -->
      <g transform="translate(25.31263 223.555069)scale(0.1 -0.1)">
       <defs>
        <path d="M 18.40625 4.796875 
C 18.40625 7.6875 16 9.671875 13.59375 9.671875 
C 10.703125 9.671875 8.703125 7.28125 8.703125 4.890625 
C 8.703125 2 11.09375 0 13.5 0 
C 16.40625 0 18.40625 2.390625 18.40625 4.796875 
z
" id="CMMI12-58"/>
       </defs>
       <use transform="scale(0.996264)" xlink:href="#CMR17-48"/>
       <use transform="translate(45.690477 0)scale(0.996264)" xlink:href="#CMMI12-58"/>
       <use transform="translate(72.787654 0)scale(0.996264)" xlink:href="#CMR17-50"/>
      </g>
     </g>
    </g>
    <g id="ytick_2">
     <g id="line2d_49">
      <path clip-path="url(#pc59a02ecec)" d="M 41.542709 194.796997 
L 487.942709 194.796997 
" style="fill:none;stroke:#b0b0b0;stroke-dasharray:3.2,0.8,0.5,0.8;stroke-dashoffset:0;stroke-width:0.5;"/>
     </g>
     <g id="line2d_50">
      <g>
       <use style="stroke:#000000;stroke-width:0.5;" x="41.542709" xlink:href="#m691503189c" y="194.796997"/>
      </g>
     </g>
     <g id="line2d_51">
      <g>
       <use style="stroke:#000000;stroke-width:0.5;" x="487.942709" xlink:href="#ma81942f87b" y="194.796997"/>
      </g>
     </g>
     <g id="text_8">
      <!-- $\mathdefault{0.3}$ -->
      <g transform="translate(25.31263 198.256246)scale(0.1 -0.1)">
       <defs>
        <path d="M 22.09375 33.703125 
C 31 33.703125 34.90625 25.96875 34.90625 17.03125 
C 34.90625 5 28.5 0.390625 22.703125 0.390625 
C 17.40625 0.390625 8.796875 3.03125 6.09375 10.828125 
C 6.59375 10.625 7.09375 10.625 7.59375 10.625 
C 10 10.625 11.796875 12.21875 11.796875 14.8125 
C 11.796875 17.703125 9.59375 19 7.59375 19 
C 5.90625 19 3.296875 18.203125 3.296875 14.46875 
C 3.296875 5.234375 12.296875 -2 22.90625 -2 
C 34 -2 42.5 6.71875 42.5 16.953125 
C 42.5 26.671875 34.5 33.703125 25 34.796875 
C 32.59375 36.375 39.90625 43.0625 39.90625 52.015625 
C 39.90625 59.6875 32 65.296875 23 65.296875 
C 13.90625 65.296875 5.90625 59.828125 5.90625 52.015625 
C 5.90625 48.59375 8.5 48 9.796875 48 
C 11.90625 48 13.703125 49.296875 13.703125 51.890625 
C 13.703125 54.46875 11.90625 55.765625 9.796875 55.765625 
C 9.40625 55.765625 8.90625 55.765625 8.5 55.578125 
C 11.40625 61.859375 19.296875 63 22.796875 63 
C 26.296875 63 32.90625 61.328125 32.90625 51.875 
C 32.90625 49.109375 32.5 44.1875 29.09375 39.84375 
C 26.09375 36 22.703125 36 19.40625 35.6875 
C 18.90625 35.6875 16.59375 35.453125 16.203125 35.453125 
C 15.5 35.359375 15.09375 35.265625 15.09375 34.5 
C 15.09375 33.796875 15.203125 33.703125 17.203125 33.703125 
z
" id="CMR17-51"/>
       </defs>
       <use transform="scale(0.996264)" xlink:href="#CMR17-48"/>
       <use transform="translate(45.690477 0)scale(0.996264)" xlink:href="#CMMI12-58"/>
       <use transform="translate(72.787654 0)scale(0.996264)" xlink:href="#CMR17-51"/>
      </g>
     </g>
    </g>
    <g id="ytick_3">
     <g id="line2d_52">
      <path clip-path="url(#pc59a02ecec)" d="M 41.542709 169.498173 
L 487.942709 169.498173 
" style="fill:none;stroke:#b0b0b0;stroke-dasharray:3.2,0.8,0.5,0.8;stroke-dashoffset:0;stroke-width:0.5;"/>
     </g>
     <g id="line2d_53">
      <g>
       <use style="stroke:#000000;stroke-width:0.5;" x="41.542709" xlink:href="#m691503189c" y="169.498173"/>
      </g>
     </g>
     <g id="line2d_54">
      <g>
       <use style="stroke:#000000;stroke-width:0.5;" x="487.942709" xlink:href="#ma81942f87b" y="169.498173"/>
      </g>
     </g>
     <g id="text_9">
      <!-- $\mathdefault{0.4}$ -->
      <g transform="translate(25.31263 172.957422)scale(0.1 -0.1)">
       <use transform="scale(0.996264)" xlink:href="#CMR17-48"/>
       <use transform="translate(45.690477 0)scale(0.996264)" xlink:href="#CMMI12-58"/>
       <use transform="translate(72.787654 0)scale(0.996264)" xlink:href="#CMR17-52"/>
      </g>
     </g>
    </g>
    <g id="ytick_4">
     <g id="line2d_55">
      <path clip-path="url(#pc59a02ecec)" d="M 41.542709 144.19935 
L 487.942709 144.19935 
" style="fill:none;stroke:#b0b0b0;stroke-dasharray:3.2,0.8,0.5,0.8;stroke-dashoffset:0;stroke-width:0.5;"/>
     </g>
     <g id="line2d_56">
      <g>
       <use style="stroke:#000000;stroke-width:0.5;" x="41.542709" xlink:href="#m691503189c" y="144.19935"/>
      </g>
     </g>
     <g id="line2d_57">
      <g>
       <use style="stroke:#000000;stroke-width:0.5;" x="487.942709" xlink:href="#ma81942f87b" y="144.19935"/>
      </g>
     </g>
     <g id="text_10">
      <!-- $\mathdefault{0.5}$ -->
      <g transform="translate(25.31263 147.658599)scale(0.1 -0.1)">
       <defs>
        <path d="M 11.40625 57.6875 
C 12.40625 57.28125 16.5 56 20.703125 56 
C 30 56 35.09375 61.109375 38 64.0625 
C 38 64.953125 38 65.5 37.40625 65.5 
C 37.296875 65.5 37.09375 65.5 36.296875 65.046875 
C 32.796875 63.40625 28.703125 62.078125 23.703125 62.078125 
C 20.703125 62.078125 16.203125 62.484375 11.296875 64.671875 
C 10.203125 65.171875 10 65.171875 9.90625 65.171875 
C 9.40625 65.171875 9.296875 65.0625 9.296875 63.078125 
L 9.296875 34.421875 
C 9.296875 32.640625 9.296875 32.140625 10.296875 32.140625 
C 10.796875 32.140625 11 32.34375 11.5 33.03125 
C 14.703125 37.515625 19.09375 39.40625 24.09375 39.40625 
C 27.59375 39.40625 35.09375 37.21875 35.09375 20.140625 
C 35.09375 16.953125 35.09375 11.171875 32.09375 6.578125 
C 29.59375 2.484375 25.703125 0.390625 21.40625 0.390625 
C 14.796875 0.390625 8.09375 5 6.296875 12.71875 
C 6.703125 12.609375 7.5 12.421875 7.90625 12.421875 
C 9.203125 12.421875 11.703125 13.125 11.703125 16.21875 
C 11.703125 18.90625 9.796875 20 7.90625 20 
C 5.59375 20 4.09375 18.59375 4.09375 15.796875 
C 4.09375 7.09375 11 -2 21.59375 -2 
C 31.90625 -2 41.703125 6.875 41.703125 19.75 
C 41.703125 31.71875 33.90625 41 24.203125 41 
C 19.09375 41 14.796875 39.109375 11.40625 35.53125 
z
" id="CMR17-53"/>
       </defs>
       <use transform="scale(0.996264)" xlink:href="#CMR17-48"/>
       <use transform="translate(45.690477 0)scale(0.996264)" xlink:href="#CMMI12-58"/>
       <use transform="translate(72.787654 0)scale(0.996264)" xlink:href="#CMR17-53"/>
      </g>
     </g>
    </g>
    <g id="ytick_5">
     <g id="line2d_58">
      <path clip-path="url(#pc59a02ecec)" d="M 41.542709 118.900526 
L 487.942709 118.900526 
" style="fill:none;stroke:#b0b0b0;stroke-dasharray:3.2,0.8,0.5,0.8;stroke-dashoffset:0;stroke-width:0.5;"/>
     </g>
     <g id="line2d_59">
      <g>
       <use style="stroke:#000000;stroke-width:0.5;" x="41.542709" xlink:href="#m691503189c" y="118.900526"/>
      </g>
     </g>
     <g id="line2d_60">
      <g>
       <use style="stroke:#000000;stroke-width:0.5;" x="487.942709" xlink:href="#ma81942f87b" y="118.900526"/>
      </g>
     </g>
     <g id="text_11">
      <!-- $\mathdefault{0.6}$ -->
      <g transform="translate(25.31263 122.359775)scale(0.1 -0.1)">
       <use transform="scale(0.996264)" xlink:href="#CMR17-48"/>
       <use transform="translate(45.690477 0)scale(0.996264)" xlink:href="#CMMI12-58"/>
       <use transform="translate(72.787654 0)scale(0.996264)" xlink:href="#CMR17-54"/>
      </g>
     </g>
    </g>
    <g id="ytick_6">
     <g id="line2d_61">
      <path clip-path="url(#pc59a02ecec)" d="M 41.542709 93.601703 
L 487.942709 93.601703 
" style="fill:none;stroke:#b0b0b0;stroke-dasharray:3.2,0.8,0.5,0.8;stroke-dashoffset:0;stroke-width:0.5;"/>
     </g>
     <g id="line2d_62">
      <g>
       <use style="stroke:#000000;stroke-width:0.5;" x="41.542709" xlink:href="#m691503189c" y="93.601703"/>
      </g>
     </g>
     <g id="line2d_63">
      <g>
       <use style="stroke:#000000;stroke-width:0.5;" x="487.942709" xlink:href="#ma81942f87b" y="93.601703"/>
      </g>
     </g>
     <g id="text_12">
      <!-- $\mathdefault{0.7}$ -->
      <g transform="translate(25.31263 97.060952)scale(0.1 -0.1)">
       <defs>
        <path d="M 45.09375 61.578125 
L 45.09375 63.765625 
L 21.59375 63.765625 
C 9.90625 63.765625 9.703125 65.078125 9.296875 67 
L 7.5 67 
L 4.59375 48.34375 
L 6.40625 48.34375 
C 6.703125 50.234375 7.40625 55.3125 8.59375 57.203125 
C 9.203125 58 16.59375 58 18.296875 58 
L 40.296875 58 
L 29.203125 41.578125 
C 21.796875 30.53125 16.703125 15.609375 16.703125 2.578125 
C 16.703125 1.390625 16.703125 -2 20.296875 -2 
C 23.90625 -2 23.90625 1.390625 23.90625 2.671875 
L 23.90625 7.265625 
C 23.90625 23.5625 26.703125 34.3125 31.296875 41.1875 
z
" id="CMR17-55"/>
       </defs>
       <use transform="scale(0.996264)" xlink:href="#CMR17-48"/>
       <use transform="translate(45.690477 0)scale(0.996264)" xlink:href="#CMMI12-58"/>
       <use transform="translate(72.787654 0)scale(0.996264)" xlink:href="#CMR17-55"/>
      </g>
     </g>
    </g>
    <g id="ytick_7">
     <g id="line2d_64">
      <path clip-path="url(#pc59a02ecec)" d="M 41.542709 68.302879 
L 487.942709 68.302879 
" style="fill:none;stroke:#b0b0b0;stroke-dasharray:3.2,0.8,0.5,0.8;stroke-dashoffset:0;stroke-width:0.5;"/>
     </g>
     <g id="line2d_65">
      <g>
       <use style="stroke:#000000;stroke-width:0.5;" x="41.542709" xlink:href="#m691503189c" y="68.302879"/>
      </g>
     </g>
     <g id="line2d_66">
      <g>
       <use style="stroke:#000000;stroke-width:0.5;" x="487.942709" xlink:href="#ma81942f87b" y="68.302879"/>
      </g>
     </g>
     <g id="text_13">
      <!-- $\mathdefault{0.8}$ -->
      <g transform="translate(25.31263 71.762128)scale(0.1 -0.1)">
       <use transform="scale(0.996264)" xlink:href="#CMR17-48"/>
       <use transform="translate(45.690477 0)scale(0.996264)" xlink:href="#CMMI12-58"/>
       <use transform="translate(72.787654 0)scale(0.996264)" xlink:href="#CMR17-56"/>
      </g>
     </g>
    </g>
    <g id="ytick_8">
     <g id="line2d_67">
      <path clip-path="url(#pc59a02ecec)" d="M 41.542709 43.004056 
L 487.942709 43.004056 
" style="fill:none;stroke:#b0b0b0;stroke-dasharray:3.2,0.8,0.5,0.8;stroke-dashoffset:0;stroke-width:0.5;"/>
     </g>
     <g id="line2d_68">
      <g>
       <use style="stroke:#000000;stroke-width:0.5;" x="41.542709" xlink:href="#m691503189c" y="43.004056"/>
      </g>
     </g>
     <g id="line2d_69">
      <g>
       <use style="stroke:#000000;stroke-width:0.5;" x="487.942709" xlink:href="#ma81942f87b" y="43.004056"/>
      </g>
     </g>
     <g id="text_14">
      <!-- $\mathdefault{0.9}$ -->
      <g transform="translate(25.31263 46.463305)scale(0.1 -0.1)">
       <defs>
        <path d="M 35.203125 29.125 
C 35.203125 7.25 26.09375 0.484375 18.59375 0.484375 
C 16.296875 0.484375 10.703125 0.484375 8.40625 4.59375 
C 11 4.1875 12.90625 5.578125 12.90625 8.09375 
C 12.90625 10.8125 10.703125 11.703125 9.296875 11.703125 
C 8.40625 11.703125 5.703125 11.296875 5.703125 7.90625 
C 5.703125 1.109375 11.59375 -2 18.796875 -2 
C 30.296875 -2 42 10.53125 42 32.390625 
C 42 59.640625 30.796875 65.296875 23.203125 65.296875 
C 13.296875 65.296875 3.796875 56.6875 3.796875 43.40625 
C 3.796875 31.109375 11.90625 22 22.09375 22 
C 30.5 22 34.203125 29.734375 35.203125 33 
z
M 22.296875 23.59375 
C 19.59375 23.59375 15.796875 24.09375 12.703125 30.03125 
C 10.59375 33.890625 10.59375 38.453125 10.59375 43.296875 
C 10.59375 49.15625 10.59375 53.203125 13.40625 57.5625 
C 14.796875 59.640625 17.40625 63 23.203125 63 
C 35 63 35 45.078125 35 41.125 
C 35 34.09375 31.796875 23.59375 22.296875 23.59375 
z
" id="CMR17-57"/>
       </defs>
       <use transform="scale(0.996264)" xlink:href="#CMR17-48"/>
       <use transform="translate(45.690477 0)scale(0.996264)" xlink:href="#CMMI12-58"/>
       <use transform="translate(72.787654 0)scale(0.996264)" xlink:href="#CMR17-57"/>
      </g>
     </g>
    </g>
    <g id="ytick_9">
     <g id="line2d_70">
      <defs>
       <path d="M 0 0 
L 1.5 0 
" id="m5923dc6b79" style="stroke:#000000;stroke-width:0.5;"/>
      </defs>
      <g>
       <use style="stroke:#000000;stroke-width:0.5;" x="41.542709" xlink:href="#m5923dc6b79" y="240.334879"/>
      </g>
     </g>
     <g id="line2d_71">
      <defs>
       <path d="M 0 0 
L -1.5 0 
" id="mf32cbdffcc" style="stroke:#000000;stroke-width:0.5;"/>
      </defs>
      <g>
       <use style="stroke:#000000;stroke-width:0.5;" x="487.942709" xlink:href="#mf32cbdffcc" y="240.334879"/>
      </g>
     </g>
    </g>
    <g id="ytick_10">
     <g id="line2d_72">
      <g>
       <use style="stroke:#000000;stroke-width:0.5;" x="41.542709" xlink:href="#m5923dc6b79" y="235.275114"/>
      </g>
     </g>
     <g id="line2d_73">
      <g>
       <use style="stroke:#000000;stroke-width:0.5;" x="487.942709" xlink:href="#mf32cbdffcc" y="235.275114"/>
      </g>
     </g>
    </g>
    <g id="ytick_11">
     <g id="line2d_74">
      <g>
       <use style="stroke:#000000;stroke-width:0.5;" x="41.542709" xlink:href="#m5923dc6b79" y="230.21535"/>
      </g>
     </g>
     <g id="line2d_75">
      <g>
       <use style="stroke:#000000;stroke-width:0.5;" x="487.942709" xlink:href="#mf32cbdffcc" y="230.21535"/>
      </g>
     </g>
    </g>
    <g id="ytick_12">
     <g id="line2d_76">
      <g>
       <use style="stroke:#000000;stroke-width:0.5;" x="41.542709" xlink:href="#m5923dc6b79" y="225.155585"/>
      </g>
     </g>
     <g id="line2d_77">
      <g>
       <use style="stroke:#000000;stroke-width:0.5;" x="487.942709" xlink:href="#mf32cbdffcc" y="225.155585"/>
      </g>
     </g>
    </g>
    <g id="ytick_13">
     <g id="line2d_78">
      <g>
       <use style="stroke:#000000;stroke-width:0.5;" x="41.542709" xlink:href="#m5923dc6b79" y="215.036056"/>
      </g>
     </g>
     <g id="line2d_79">
      <g>
       <use style="stroke:#000000;stroke-width:0.5;" x="487.942709" xlink:href="#mf32cbdffcc" y="215.036056"/>
      </g>
     </g>
    </g>
    <g id="ytick_14">
     <g id="line2d_80">
      <g>
       <use style="stroke:#000000;stroke-width:0.5;" x="41.542709" xlink:href="#m5923dc6b79" y="209.976291"/>
      </g>
     </g>
     <g id="line2d_81">
      <g>
       <use style="stroke:#000000;stroke-width:0.5;" x="487.942709" xlink:href="#mf32cbdffcc" y="209.976291"/>
      </g>
     </g>
    </g>
    <g id="ytick_15">
     <g id="line2d_82">
      <g>
       <use style="stroke:#000000;stroke-width:0.5;" x="41.542709" xlink:href="#m5923dc6b79" y="204.916526"/>
      </g>
     </g>
     <g id="line2d_83">
      <g>
       <use style="stroke:#000000;stroke-width:0.5;" x="487.942709" xlink:href="#mf32cbdffcc" y="204.916526"/>
      </g>
     </g>
    </g>
    <g id="ytick_16">
     <g id="line2d_84">
      <g>
       <use style="stroke:#000000;stroke-width:0.5;" x="41.542709" xlink:href="#m5923dc6b79" y="199.856761"/>
      </g>
     </g>
     <g id="line2d_85">
      <g>
       <use style="stroke:#000000;stroke-width:0.5;" x="487.942709" xlink:href="#mf32cbdffcc" y="199.856761"/>
      </g>
     </g>
    </g>
    <g id="ytick_17">
     <g id="line2d_86">
      <g>
       <use style="stroke:#000000;stroke-width:0.5;" x="41.542709" xlink:href="#m5923dc6b79" y="189.737232"/>
      </g>
     </g>
     <g id="line2d_87">
      <g>
       <use style="stroke:#000000;stroke-width:0.5;" x="487.942709" xlink:href="#mf32cbdffcc" y="189.737232"/>
      </g>
     </g>
    </g>
    <g id="ytick_18">
     <g id="line2d_88">
      <g>
       <use style="stroke:#000000;stroke-width:0.5;" x="41.542709" xlink:href="#m5923dc6b79" y="184.677467"/>
      </g>
     </g>
     <g id="line2d_89">
      <g>
       <use style="stroke:#000000;stroke-width:0.5;" x="487.942709" xlink:href="#mf32cbdffcc" y="184.677467"/>
      </g>
     </g>
    </g>
    <g id="ytick_19">
     <g id="line2d_90">
      <g>
       <use style="stroke:#000000;stroke-width:0.5;" x="41.542709" xlink:href="#m5923dc6b79" y="179.617703"/>
      </g>
     </g>
     <g id="line2d_91">
      <g>
       <use style="stroke:#000000;stroke-width:0.5;" x="487.942709" xlink:href="#mf32cbdffcc" y="179.617703"/>
      </g>
     </g>
    </g>
    <g id="ytick_20">
     <g id="line2d_92">
      <g>
       <use style="stroke:#000000;stroke-width:0.5;" x="41.542709" xlink:href="#m5923dc6b79" y="174.557938"/>
      </g>
     </g>
     <g id="line2d_93">
      <g>
       <use style="stroke:#000000;stroke-width:0.5;" x="487.942709" xlink:href="#mf32cbdffcc" y="174.557938"/>
      </g>
     </g>
    </g>
    <g id="ytick_21">
     <g id="line2d_94">
      <g>
       <use style="stroke:#000000;stroke-width:0.5;" x="41.542709" xlink:href="#m5923dc6b79" y="164.438409"/>
      </g>
     </g>
     <g id="line2d_95">
      <g>
       <use style="stroke:#000000;stroke-width:0.5;" x="487.942709" xlink:href="#mf32cbdffcc" y="164.438409"/>
      </g>
     </g>
    </g>
    <g id="ytick_22">
     <g id="line2d_96">
      <g>
       <use style="stroke:#000000;stroke-width:0.5;" x="41.542709" xlink:href="#m5923dc6b79" y="159.378644"/>
      </g>
     </g>
     <g id="line2d_97">
      <g>
       <use style="stroke:#000000;stroke-width:0.5;" x="487.942709" xlink:href="#mf32cbdffcc" y="159.378644"/>
      </g>
     </g>
    </g>
    <g id="ytick_23">
     <g id="line2d_98">
      <g>
       <use style="stroke:#000000;stroke-width:0.5;" x="41.542709" xlink:href="#m5923dc6b79" y="154.318879"/>
      </g>
     </g>
     <g id="line2d_99">
      <g>
       <use style="stroke:#000000;stroke-width:0.5;" x="487.942709" xlink:href="#mf32cbdffcc" y="154.318879"/>
      </g>
     </g>
    </g>
    <g id="ytick_24">
     <g id="line2d_100">
      <g>
       <use style="stroke:#000000;stroke-width:0.5;" x="41.542709" xlink:href="#m5923dc6b79" y="149.259114"/>
      </g>
     </g>
     <g id="line2d_101">
      <g>
       <use style="stroke:#000000;stroke-width:0.5;" x="487.942709" xlink:href="#mf32cbdffcc" y="149.259114"/>
      </g>
     </g>
    </g>
    <g id="ytick_25">
     <g id="line2d_102">
      <g>
       <use style="stroke:#000000;stroke-width:0.5;" x="41.542709" xlink:href="#m5923dc6b79" y="139.139585"/>
      </g>
     </g>
     <g id="line2d_103">
      <g>
       <use style="stroke:#000000;stroke-width:0.5;" x="487.942709" xlink:href="#mf32cbdffcc" y="139.139585"/>
      </g>
     </g>
    </g>
    <g id="ytick_26">
     <g id="line2d_104">
      <g>
       <use style="stroke:#000000;stroke-width:0.5;" x="41.542709" xlink:href="#m5923dc6b79" y="134.07982"/>
      </g>
     </g>
     <g id="line2d_105">
      <g>
       <use style="stroke:#000000;stroke-width:0.5;" x="487.942709" xlink:href="#mf32cbdffcc" y="134.07982"/>
      </g>
     </g>
    </g>
    <g id="ytick_27">
     <g id="line2d_106">
      <g>
       <use style="stroke:#000000;stroke-width:0.5;" x="41.542709" xlink:href="#m5923dc6b79" y="129.020056"/>
      </g>
     </g>
     <g id="line2d_107">
      <g>
       <use style="stroke:#000000;stroke-width:0.5;" x="487.942709" xlink:href="#mf32cbdffcc" y="129.020056"/>
      </g>
     </g>
    </g>
    <g id="ytick_28">
     <g id="line2d_108">
      <g>
       <use style="stroke:#000000;stroke-width:0.5;" x="41.542709" xlink:href="#m5923dc6b79" y="123.960291"/>
      </g>
     </g>
     <g id="line2d_109">
      <g>
       <use style="stroke:#000000;stroke-width:0.5;" x="487.942709" xlink:href="#mf32cbdffcc" y="123.960291"/>
      </g>
     </g>
    </g>
    <g id="ytick_29">
     <g id="line2d_110">
      <g>
       <use style="stroke:#000000;stroke-width:0.5;" x="41.542709" xlink:href="#m5923dc6b79" y="113.840761"/>
      </g>
     </g>
     <g id="line2d_111">
      <g>
       <use style="stroke:#000000;stroke-width:0.5;" x="487.942709" xlink:href="#mf32cbdffcc" y="113.840761"/>
      </g>
     </g>
    </g>
    <g id="ytick_30">
     <g id="line2d_112">
      <g>
       <use style="stroke:#000000;stroke-width:0.5;" x="41.542709" xlink:href="#m5923dc6b79" y="108.780997"/>
      </g>
     </g>
     <g id="line2d_113">
      <g>
       <use style="stroke:#000000;stroke-width:0.5;" x="487.942709" xlink:href="#mf32cbdffcc" y="108.780997"/>
      </g>
     </g>
    </g>
    <g id="ytick_31">
     <g id="line2d_114">
      <g>
       <use style="stroke:#000000;stroke-width:0.5;" x="41.542709" xlink:href="#m5923dc6b79" y="103.721232"/>
      </g>
     </g>
     <g id="line2d_115">
      <g>
       <use style="stroke:#000000;stroke-width:0.5;" x="487.942709" xlink:href="#mf32cbdffcc" y="103.721232"/>
      </g>
     </g>
    </g>
    <g id="ytick_32">
     <g id="line2d_116">
      <g>
       <use style="stroke:#000000;stroke-width:0.5;" x="41.542709" xlink:href="#m5923dc6b79" y="98.661467"/>
      </g>
     </g>
     <g id="line2d_117">
      <g>
       <use style="stroke:#000000;stroke-width:0.5;" x="487.942709" xlink:href="#mf32cbdffcc" y="98.661467"/>
      </g>
     </g>
    </g>
    <g id="ytick_33">
     <g id="line2d_118">
      <g>
       <use style="stroke:#000000;stroke-width:0.5;" x="41.542709" xlink:href="#m5923dc6b79" y="88.541938"/>
      </g>
     </g>
     <g id="line2d_119">
      <g>
       <use style="stroke:#000000;stroke-width:0.5;" x="487.942709" xlink:href="#mf32cbdffcc" y="88.541938"/>
      </g>
     </g>
    </g>
    <g id="ytick_34">
     <g id="line2d_120">
      <g>
       <use style="stroke:#000000;stroke-width:0.5;" x="41.542709" xlink:href="#m5923dc6b79" y="83.482173"/>
      </g>
     </g>
     <g id="line2d_121">
      <g>
       <use style="stroke:#000000;stroke-width:0.5;" x="487.942709" xlink:href="#mf32cbdffcc" y="83.482173"/>
      </g>
     </g>
    </g>
    <g id="ytick_35">
     <g id="line2d_122">
      <g>
       <use style="stroke:#000000;stroke-width:0.5;" x="41.542709" xlink:href="#m5923dc6b79" y="78.422409"/>
      </g>
     </g>
     <g id="line2d_123">
      <g>
       <use style="stroke:#000000;stroke-width:0.5;" x="487.942709" xlink:href="#mf32cbdffcc" y="78.422409"/>
      </g>
     </g>
    </g>
    <g id="ytick_36">
     <g id="line2d_124">
      <g>
       <use style="stroke:#000000;stroke-width:0.5;" x="41.542709" xlink:href="#m5923dc6b79" y="73.362644"/>
      </g>
     </g>
     <g id="line2d_125">
      <g>
       <use style="stroke:#000000;stroke-width:0.5;" x="487.942709" xlink:href="#mf32cbdffcc" y="73.362644"/>
      </g>
     </g>
    </g>
    <g id="ytick_37">
     <g id="line2d_126">
      <g>
       <use style="stroke:#000000;stroke-width:0.5;" x="41.542709" xlink:href="#m5923dc6b79" y="63.243114"/>
      </g>
     </g>
     <g id="line2d_127">
      <g>
       <use style="stroke:#000000;stroke-width:0.5;" x="487.942709" xlink:href="#mf32cbdffcc" y="63.243114"/>
      </g>
     </g>
    </g>
    <g id="ytick_38">
     <g id="line2d_128">
      <g>
       <use style="stroke:#000000;stroke-width:0.5;" x="41.542709" xlink:href="#m5923dc6b79" y="58.18335"/>
      </g>
     </g>
     <g id="line2d_129">
      <g>
       <use style="stroke:#000000;stroke-width:0.5;" x="487.942709" xlink:href="#mf32cbdffcc" y="58.18335"/>
      </g>
     </g>
    </g>
    <g id="ytick_39">
     <g id="line2d_130">
      <g>
       <use style="stroke:#000000;stroke-width:0.5;" x="41.542709" xlink:href="#m5923dc6b79" y="53.123585"/>
      </g>
     </g>
     <g id="line2d_131">
      <g>
       <use style="stroke:#000000;stroke-width:0.5;" x="487.942709" xlink:href="#mf32cbdffcc" y="53.123585"/>
      </g>
     </g>
    </g>
    <g id="ytick_40">
     <g id="line2d_132">
      <g>
       <use style="stroke:#000000;stroke-width:0.5;" x="41.542709" xlink:href="#m5923dc6b79" y="48.06382"/>
      </g>
     </g>
     <g id="line2d_133">
      <g>
       <use style="stroke:#000000;stroke-width:0.5;" x="487.942709" xlink:href="#mf32cbdffcc" y="48.06382"/>
      </g>
     </g>
    </g>
    <g id="ytick_41">
     <g id="line2d_134">
      <g>
       <use style="stroke:#000000;stroke-width:0.5;" x="41.542709" xlink:href="#m5923dc6b79" y="37.944291"/>
      </g>
     </g>
     <g id="line2d_135">
      <g>
       <use style="stroke:#000000;stroke-width:0.5;" x="487.942709" xlink:href="#mf32cbdffcc" y="37.944291"/>
      </g>
     </g>
    </g>
    <g id="ytick_42">
     <g id="line2d_136">
      <g>
       <use style="stroke:#000000;stroke-width:0.5;" x="41.542709" xlink:href="#m5923dc6b79" y="32.884526"/>
      </g>
     </g>
     <g id="line2d_137">
      <g>
       <use style="stroke:#000000;stroke-width:0.5;" x="487.942709" xlink:href="#mf32cbdffcc" y="32.884526"/>
      </g>
     </g>
    </g>
    <g id="ytick_43">
     <g id="line2d_138">
      <g>
       <use style="stroke:#000000;stroke-width:0.5;" x="41.542709" xlink:href="#m5923dc6b79" y="27.824761"/>
      </g>
     </g>
     <g id="line2d_139">
      <g>
       <use style="stroke:#000000;stroke-width:0.5;" x="487.942709" xlink:href="#mf32cbdffcc" y="27.824761"/>
      </g>
     </g>
    </g>
    <g id="text_15">
     <!-- accuracy -->
     <g transform="translate(17.436997 169.047673)rotate(-90)scale(0.2 -0.2)">
      <defs>
       <path d="M 34.90625 35 
C 33 35 30.203125 35 30.203125 31.515625 
C 30.203125 28.71875 32.5 27.921875 33.796875 27.921875 
C 34.5 27.921875 37.40625 28.234375 37.40625 31.625 
C 37.40625 38.546875 30.59375 43.796875 22.90625 43.796875 
C 12.296875 43.796875 3.296875 34.03125 3.296875 21.296875 
C 3.296875 8.0625 12.703125 -1 22.90625 -1 
C 35.296875 -1 38.40625 10.578125 38.40625 11.6875 
C 38.40625 12.09375 38.296875 12.390625 37.59375 12.390625 
C 36.90625 12.390625 36.796875 12.296875 36.40625 10.984375 
C 33.796875 2.8125 28.09375 0.796875 23.796875 0.796875 
C 17.40625 0.796875 9.703125 6.671875 9.703125 21.390625 
C 9.703125 36.53125 17.09375 42 23 42 
C 26.90625 42 32.703125 40.203125 34.90625 35 
z
" id="CMR17-99"/>
       <path d="M 29.40625 42.078125 
L 29.40625 39.5 
C 35.296875 39.5 36.203125 38.890625 36.203125 34.15625 
L 36.203125 16.125 
C 36.203125 7.8125 31.703125 0.59375 24.296875 0.59375 
C 16.09375 0.59375 15.40625 5.4375 15.40625 10.59375 
L 15.40625 43.171875 
L 3.296875 42.078125 
L 3.296875 39.5 
C 7.296875 39.5 10 39.5 10.09375 35.53125 
L 10.09375 16.53125 
C 10.09375 9.890625 10.09375 5.640625 12.703125 2.859375 
C 14 1.578125 16.5 -1 23.703125 -1 
C 32.203125 -1 35.5 5.890625 36.296875 7.90625 
L 36.40625 7.90625 
L 36.40625 -0.984375 
L 48.296875 -0.984375 
L 48.296875 2 
C 42.40625 2 41.5 2.59375 41.5 7.390625 
L 41.5 43.171875 
z
" id="CMR17-117"/>
       <path d="M 39 34.328125 
C 41.5 40.40625 46 40.40625 47.40625 40.40625 
L 47.40625 43 
C 45.5 43 43 43 41.09375 43 
C 39 43 35.703125 43 33.703125 43.09375 
L 33.703125 40.5 
C 37.5 40.203125 37.59375 37.40625 37.59375 36.609375 
C 37.59375 35.625 37.40625 35.125 36.90625 33.921875 
L 26 7.015625 
L 14.09375 36.03125 
C 13.59375 37.21875 13.59375 37.90625 13.59375 38.015625 
C 13.59375 40.203125 15.90625 40.40625 18.296875 40.40625 
L 18.296875 43.09375 
C 15.90625 43 11.59375 43 9.09375 43 
C 6.40625 43 3.203125 43 1 43.09375 
L 1 40.40625 
C 6.40625 40.40625 7 39.90625 8.296875 36.71875 
L 23.203125 0.234375 
C 18.703125 -11.53125 16.09375 -18.40625 9.796875 -18.40625 
C 8.703125 -18.40625 6.203125 -18.109375 4.40625 -16.3125 
C 6.703125 -16.109375 7.703125 -14.71875 7.703125 -13.015625 
C 7.703125 -11.328125 6.5 -9.828125 4.5 -9.828125 
C 2.296875 -9.828125 1.203125 -11.328125 1.203125 -13.125 
C 1.203125 -17.109375 5.296875 -20 9.796875 -20 
C 15.59375 -20 19.203125 -14.40625 21.203125 -9.4375 
z
" id="CMR17-121"/>
      </defs>
      <use transform="scale(0.996264)" xlink:href="#CMR17-97"/>
      <use transform="translate(45.690477 0)scale(0.996264)" xlink:href="#CMR17-99"/>
      <use transform="translate(86.176138 0)scale(0.996264)" xlink:href="#CMR17-99"/>
      <use transform="translate(126.661798 0)scale(0.996264)" xlink:href="#CMR17-117"/>
      <use transform="translate(177.557168 0)scale(0.996264)" xlink:href="#CMR17-114"/>
      <use transform="translate(212.837936 0)scale(0.996264)" xlink:href="#CMR17-97"/>
      <use transform="translate(258.528413 0)scale(0.996264)" xlink:href="#CMR17-99"/>
      <use transform="translate(299.014073 0)scale(0.996264)" xlink:href="#CMR17-121"/>
     </g>
    </g>
   </g>
   <g id="line2d_140">
    <path clip-path="url(#pc59a02ecec)" d="M 61.833618 235.116997 
L 62.942411 108.622879 
L 64.051204 96.764056 
L 65.159997 163.964056 
L 66.26879 136.293467 
L 67.377583 152.105232 
L 68.486376 128.387585 
L 69.595168 100.716997 
L 70.703961 96.764056 
L 71.812754 120.481703 
L 72.921547 112.57582 
L 74.03034 96.764056 
L 75.139133 69.093467 
L 76.247925 92.811114 
L 77.356718 84.905232 
L 78.465511 92.811114 
L 79.574304 65.140526 
L 80.683097 104.669938 
L 81.79189 53.281703 
L 82.900683 116.528761 
L 84.009475 80.952291 
L 85.118268 76.99935 
L 86.227061 76.99935 
L 87.335854 88.858173 
L 88.444647 80.952291 
L 89.55344 92.811114 
L 90.662232 49.328761 
L 91.771025 76.99935 
L 92.879818 84.905232 
L 93.988611 73.046409 
L 95.097404 65.140526 
L 96.206197 92.811114 
L 97.31499 80.952291 
L 99.532575 73.046409 
L 100.641368 73.046409 
L 101.750161 65.140526 
L 102.858954 61.187585 
L 103.967747 73.046409 
L 105.076539 76.99935 
L 107.294125 76.99935 
L 108.402918 61.187585 
L 109.511711 76.99935 
L 110.620504 53.281703 
L 111.729297 92.811114 
L 112.838089 96.764056 
L 115.055675 88.858173 
L 117.273261 73.046409 
L 118.382054 69.093467 
L 120.599639 69.093467 
L 121.708432 37.469938 
L 122.817225 69.093467 
L 123.926018 80.952291 
L 125.034811 108.622879 
L 126.143604 69.093467 
L 127.252396 76.99935 
L 128.361189 61.187585 
L 129.469982 80.952291 
L 130.578775 53.281703 
L 131.687568 84.905232 
L 132.796361 57.234644 
L 135.013946 73.046409 
L 136.122739 53.281703 
L 137.231532 69.093467 
L 138.340325 88.858173 
L 139.449118 57.234644 
L 140.557911 53.281703 
L 141.666703 69.093467 
L 144.993082 69.093467 
L 146.101875 65.140526 
L 147.210668 65.140526 
L 148.31946 96.764056 
L 149.428253 76.99935 
L 150.537046 84.905232 
L 151.645839 57.234644 
L 152.754632 100.716997 
L 153.863425 69.093467 
L 156.08101 61.187585 
L 157.189803 45.37582 
L 158.298596 57.234644 
L 159.407389 53.281703 
L 160.516182 73.046409 
L 161.624975 61.187585 
L 162.733767 84.905232 
L 163.84256 92.811114 
L 164.951353 65.140526 
L 166.060146 69.093467 
L 167.168939 65.140526 
L 168.277732 65.140526 
L 169.386525 76.99935 
L 170.495317 41.422879 
L 171.60411 69.093467 
L 172.712903 69.093467 
L 173.821696 49.328761 
L 174.930489 73.046409 
L 176.039282 53.281703 
L 177.148074 57.234644 
L 178.256867 69.093467 
L 179.36566 57.234644 
L 180.474453 53.281703 
L 181.583246 41.422879 
L 182.692039 65.140526 
L 183.800832 53.281703 
L 184.909624 69.093467 
L 186.018417 53.281703 
L 187.12721 57.234644 
L 188.236003 57.234644 
L 189.344796 76.99935 
L 190.453589 76.99935 
L 191.562381 80.952291 
L 192.671174 73.046409 
L 193.779967 73.046409 
L 194.88876 65.140526 
L 195.997553 53.281703 
L 197.106346 57.234644 
L 198.215139 45.37582 
L 199.323931 69.093467 
L 200.432724 57.234644 
L 202.65031 73.046409 
L 203.759103 61.187585 
L 204.867896 65.140526 
L 205.976688 100.716997 
L 207.085481 65.140526 
L 208.194274 84.905232 
L 209.303067 65.140526 
L 211.520653 65.140526 
L 212.629446 53.281703 
L 213.738238 76.99935 
L 214.847031 61.187585 
L 215.955824 69.093467 
L 217.064617 45.37582 
L 218.17341 76.99935 
L 219.282203 73.046409 
L 220.390995 76.99935 
L 221.499788 61.187585 
L 224.826167 61.187585 
L 225.93496 65.140526 
L 227.043753 80.952291 
L 228.152545 76.99935 
L 229.261338 61.187585 
L 230.370131 49.328761 
L 231.478924 73.046409 
L 232.587717 76.99935 
L 233.69651 73.046409 
L 234.805302 61.187585 
L 235.914095 57.234644 
L 237.022888 96.764056 
L 238.131681 61.187585 
L 239.240474 65.140526 
L 240.349267 73.046409 
L 241.45806 76.99935 
L 242.566852 65.140526 
L 243.675645 61.187585 
L 244.784438 61.187585 
L 245.893231 69.093467 
L 247.002024 53.281703 
L 248.110817 73.046409 
L 249.219609 45.37582 
L 250.328402 49.328761 
L 251.437195 69.093467 
L 252.545988 61.187585 
L 253.654781 88.858173 
L 254.763574 61.187585 
L 255.872367 69.093467 
L 256.981159 88.858173 
L 258.089952 53.281703 
L 259.198745 41.422879 
L 260.307538 73.046409 
L 261.416331 57.234644 
L 262.525124 57.234644 
L 263.633917 69.093467 
L 265.851502 84.905232 
L 266.960295 65.140526 
L 268.069088 73.046409 
L 269.177881 61.187585 
L 271.395466 76.99935 
L 272.504259 57.234644 
L 273.613052 61.187585 
L 274.721845 57.234644 
L 275.830638 65.140526 
L 276.939431 69.093467 
L 278.048224 65.140526 
L 279.157016 41.422879 
L 280.265809 61.187585 
L 281.374602 65.140526 
L 282.483395 88.858173 
L 283.592188 53.281703 
L 284.700981 65.140526 
L 285.809773 65.140526 
L 286.918566 84.905232 
L 288.027359 69.093467 
L 289.136152 69.093467 
L 290.244945 65.140526 
L 291.353738 69.093467 
L 293.571323 69.093467 
L 294.680116 96.764056 
L 295.788909 69.093467 
L 296.897702 80.952291 
L 298.006495 53.281703 
L 299.115288 69.093467 
L 300.22408 69.093467 
L 301.332873 84.905232 
L 302.441666 61.187585 
L 303.550459 57.234644 
L 304.659252 61.187585 
L 305.768045 80.952291 
L 306.876838 49.328761 
L 307.98563 76.99935 
L 309.094423 61.187585 
L 310.203216 73.046409 
L 311.312009 73.046409 
L 312.420802 69.093467 
L 313.529595 69.093467 
L 314.638387 88.858173 
L 315.74718 57.234644 
L 316.855973 57.234644 
L 317.964766 37.469938 
L 319.073559 53.281703 
L 320.182352 57.234644 
L 321.291145 53.281703 
L 322.399937 76.99935 
L 323.50873 80.952291 
L 324.617523 41.422879 
L 325.726316 69.093467 
L 326.835109 53.281703 
L 327.943902 49.328761 
L 329.052694 84.905232 
L 330.161487 33.516997 
L 331.27028 57.234644 
L 332.379073 57.234644 
L 333.487866 53.281703 
L 334.596659 69.093467 
L 336.814244 69.093467 
L 337.923037 53.281703 
L 339.03183 53.281703 
L 340.140623 61.187585 
L 341.249416 41.422879 
L 342.358209 65.140526 
L 343.467001 45.37582 
L 344.575794 33.516997 
L 345.684587 57.234644 
L 346.79338 69.093467 
L 347.902173 57.234644 
L 349.010966 53.281703 
L 350.119759 96.764056 
L 351.228551 61.187585 
L 353.446137 69.093467 
L 354.55493 53.281703 
L 355.663723 57.234644 
L 356.772516 57.234644 
L 357.881308 76.99935 
L 358.990101 33.516997 
L 361.207687 73.046409 
L 362.31648 73.046409 
L 363.425273 76.99935 
L 364.534066 69.093467 
L 365.642858 49.328761 
L 366.751651 73.046409 
L 367.860444 65.140526 
L 368.969237 61.187585 
L 370.07803 73.046409 
L 371.186823 73.046409 
L 372.295615 65.140526 
L 373.404408 96.764056 
L 374.513201 45.37582 
L 375.621994 53.281703 
L 376.730787 80.952291 
L 377.83958 69.093467 
L 378.948373 53.281703 
L 380.057165 65.140526 
L 381.165958 84.905232 
L 382.274751 73.046409 
L 383.383544 57.234644 
L 384.492337 53.281703 
L 385.60113 61.187585 
L 386.709922 61.187585 
L 387.818715 57.234644 
L 388.927508 57.234644 
L 390.036301 61.187585 
L 391.145094 61.187585 
L 393.36268 69.093467 
L 394.471472 49.328761 
L 395.580265 80.952291 
L 396.689058 61.187585 
L 398.906644 61.187585 
L 400.015437 53.281703 
L 401.124229 69.093467 
L 402.233022 88.858173 
L 403.341815 69.093467 
L 404.450608 69.093467 
L 405.559401 61.187585 
L 406.668194 69.093467 
L 407.776987 53.281703 
L 408.885779 84.905232 
L 409.994572 53.281703 
L 411.103365 84.905232 
L 412.212158 88.858173 
L 413.320951 65.140526 
L 414.429744 65.140526 
L 415.538536 45.37582 
L 416.647329 76.99935 
L 417.756122 57.234644 
L 418.864915 41.422879 
L 419.973708 73.046409 
L 421.082501 61.187585 
L 422.191294 37.469938 
L 423.300086 49.328761 
L 425.517672 57.234644 
L 426.626465 65.140526 
L 427.735258 61.187585 
L 428.844051 65.140526 
L 429.952843 96.764056 
L 431.061636 45.37582 
L 432.170429 37.469938 
L 433.279222 65.140526 
L 434.388015 49.328761 
L 435.496808 80.952291 
L 436.605601 53.281703 
L 437.714393 88.858173 
L 438.823186 61.187585 
L 439.931979 53.281703 
L 441.040772 73.046409 
L 442.149565 61.187585 
L 443.258358 76.99935 
L 444.36715 69.093467 
L 445.475943 53.281703 
L 448.802322 65.140526 
L 449.911115 53.281703 
L 451.019908 61.187585 
L 452.1287 65.140526 
L 453.237493 37.469938 
L 454.346286 69.093467 
L 455.455079 69.093467 
L 456.563872 65.140526 
L 457.672665 57.234644 
L 458.781457 53.281703 
L 459.89025 65.140526 
L 460.999043 65.140526 
L 463.216629 57.234644 
L 464.325422 73.046409 
L 465.434215 65.140526 
L 466.543007 61.187585 
L 467.6518 69.093467 
L 467.6518 69.093467 
" style="fill:none;stroke:#0c5da5;stroke-linecap:square;"/>
   </g>
   <g id="patch_3">
    <path d="M 41.542709 245.196997 
L 41.542709 23.436997 
" style="fill:none;stroke:#000000;stroke-linecap:square;stroke-linejoin:miter;stroke-width:0.5;"/>
   </g>
   <g id="patch_4">
    <path d="M 487.942709 245.196997 
L 487.942709 23.436997 
" style="fill:none;stroke:#000000;stroke-linecap:square;stroke-linejoin:miter;stroke-width:0.5;"/>
   </g>
   <g id="patch_5">
    <path d="M 41.542709 245.196997 
L 487.942709 245.196997 
" style="fill:none;stroke:#000000;stroke-linecap:square;stroke-linejoin:miter;stroke-width:0.5;"/>
   </g>
   <g id="patch_6">
    <path d="M 41.542709 23.436997 
L 487.942709 23.436997 
" style="fill:none;stroke:#000000;stroke-linecap:square;stroke-linejoin:miter;stroke-width:0.5;"/>
   </g>
   <g id="text_16">
    <!-- Accuracy on training batch -->
    <g transform="translate(155.580443 17.436997)scale(0.2 -0.2)">
     <defs>
      <path d="M 36.296875 68.40625 
C 35.796875 69.703125 35.59375 70 34.59375 70 
C 33.59375 70 33.40625 69.703125 32.90625 68.40625 
L 11.703125 8.84375 
C 9.796875 3.484375 5.796875 2.390625 2.296875 2.390625 
L 2.296875 -0.203125 
C 4.09375 0 8.09375 0 10 0 
C 12.5 0 16.5 0 18.90625 -0.203125 
L 18.90625 2.390625 
C 14.203125 2.390625 13.5 5.640625 13.5 6.859375 
C 13.5 7.765625 13.703125 8.28125 13.90625 8.890625 
L 19.203125 24 
L 45.40625 24 
L 51.40625 6.90625 
C 51.90625 5.703125 51.90625 5.5 51.90625 5.109375 
C 51.90625 2.390625 47.59375 2.390625 45.703125 2.390625 
L 45.703125 0 
C 48.59375 0 53.796875 0 56.90625 0 
C 59.5 0 64.5 0 66.90625 -0.203125 
L 66.90625 2.390625 
C 61.59375 2.390625 59.796875 2.390625 58.5 6.046875 
z
M 32.296875 60.828125 
L 44.5 26.59375 
L 20.09375 26.59375 
z
" id="CMR17-65"/>
      <path d="M 11.09375 18.1875 
C 13 16.6875 16.296875 15 20.296875 15 
C 28.203125 15 35 21.203125 35 29.5 
C 35 32.09375 34.203125 36.09375 31.203125 39.203125 
C 34 42.0625 38.09375 43 40.40625 43 
C 40.796875 43 41.40625 43 41.90625 42.71875 
C 41.5 42.625 40.59375 42.234375 40.59375 40.703125 
C 40.59375 39.484375 41.5 38.609375 42.796875 38.609375 
C 44.296875 38.609375 45.09375 39.578125 45.09375 40.84375 
C 45.09375 42.671875 43.59375 44.59375 40.40625 44.59375 
C 36.40625 44.59375 32.90625 42.78125 30.09375 40.3125 
C 27.09375 43.015625 23.5 44 20.296875 44 
C 12.40625 44 5.59375 37.796875 5.59375 29.5 
C 5.59375 23.78125 8.90625 20.1875 9.90625 19.1875 
C 6.90625 15.6875 6.90625 11.609375 6.90625 11.109375 
C 6.90625 8.515625 7.90625 4.71875 11.296875 2.625 
C 6.09375 1.328125 2 -2.640625 2 -7.59375 
C 2 -14.734375 11.5 -20 22.90625 -20 
C 33.90625 -20 43.796875 -14.9375 43.796875 -7.484375 
C 43.796875 6 29 6 21.296875 6 
C 19 6 14.90625 6 14.40625 6.109375 
C 11.296875 6.609375 9.203125 9.40625 9.203125 12.90625 
C 9.203125 13.796875 9.203125 16 11.09375 18.1875 
z
M 20.296875 16.6875 
C 11.5 16.6875 11.5 27.5 11.5 29.515625 
C 11.5 31.5 11.5 42.3125 20.296875 42.3125 
C 29.09375 42.3125 29.09375 31.5 29.09375 29.515625 
C 29.09375 27.5 29.09375 16.6875 20.296875 16.6875 
z
M 22.90625 -18.296875 
C 12.90625 -18.296875 6 -13.046875 6 -7.59375 
C 6 -4.515625 7.703125 -1.640625 9.90625 -0.0625 
C 12.40625 1.625 13.40625 1.625 20.203125 1.625 
C 28.40625 1.625 39.796875 1.625 39.796875 -7.59375 
C 39.796875 -13.046875 32.90625 -18.296875 22.90625 -18.296875 
z
" id="CMR17-103"/>
      <path d="M 15 68.6875 
L 3.09375 67.59375 
L 3.09375 65 
C 9 65 9.90625 64.40625 9.90625 59.640625 
L 9.90625 -0.203125 
L 11.703125 -0.203125 
L 14.59375 6.890625 
C 17.5 2.203125 21.796875 -1 27.59375 -1 
C 37.59375 -1 47.703125 7.8125 47.703125 21.40625 
C 47.703125 34.1875 38.703125 43.59375 28.59375 43.59375 
C 22.40625 43.59375 18 40.296875 15 36.40625 
z
M 15.203125 31.3125 
C 15.203125 33.09375 15.203125 33.40625 16.59375 35.5 
C 20.5 41.515625 26.09375 42 28 42 
C 31 42 41.296875 40.390625 41.296875 21.5 
C 41.296875 1.6875 29.5 0.59375 27.09375 0.59375 
C 24 0.59375 19.5 1.78125 16.296875 7.59375 
C 15.203125 9.5 15.203125 9.703125 15.203125 11.484375 
z
" id="CMR17-98"/>
      <path d="M 41.5 30.203125 
C 41.5 35.296875 40.5 43.59375 28.703125 43.59375 
C 20.5 43.59375 16.5 37 15.296875 33.703125 
L 15.203125 33.703125 
L 15.203125 68.6875 
L 3.296875 67.59375 
L 3.296875 65 
C 9.203125 65 10.09375 64.40625 10.09375 59.640625 
L 10.09375 6.65625 
C 10.09375 2.875 9.703125 2.390625 3.296875 2.390625 
L 3.296875 -0.203125 
C 5.703125 0 10.09375 0 12.703125 0 
C 15.296875 0 19.796875 0 22.203125 -0.203125 
L 22.203125 2.390625 
C 15.796875 2.390625 15.40625 2.78125 15.40625 6.6875 
L 15.40625 25.90625 
C 15.40625 35.109375 21 42 28 42 
C 35.40625 42 36.203125 35.40625 36.203125 30.59375 
L 36.203125 6.6875 
C 36.203125 2.875 35.796875 2.390625 29.40625 2.390625 
L 29.40625 -0.203125 
C 31.796875 0 36.203125 0 38.796875 0 
C 41.40625 0 45.90625 0 48.296875 -0.203125 
L 48.296875 2.390625 
C 41.90625 2.390625 41.5 2.78125 41.5 6.6875 
z
" id="CMR17-104"/>
     </defs>
     <use transform="scale(0.996264)" xlink:href="#CMR17-65"/>
     <use transform="translate(69.07243 0)scale(0.996264)" xlink:href="#CMR17-99"/>
     <use transform="translate(109.55809 0)scale(0.996264)" xlink:href="#CMR17-99"/>
     <use transform="translate(150.043751 0)scale(0.996264)" xlink:href="#CMR17-117"/>
     <use transform="translate(200.939121 0)scale(0.996264)" xlink:href="#CMR17-114"/>
     <use transform="translate(236.219888 0)scale(0.996264)" xlink:href="#CMR17-97"/>
     <use transform="translate(281.910365 0)scale(0.996264)" xlink:href="#CMR17-99"/>
     <use transform="translate(322.396026 0)scale(0.996264)" xlink:href="#CMR17-121"/>
     <use transform="translate(400.764908 0)scale(0.996264)" xlink:href="#CMR17-111"/>
     <use transform="translate(446.455385 0)scale(0.996264)" xlink:href="#CMR17-110"/>
     <use transform="translate(527.426721 0)scale(0.996264)" xlink:href="#CMR17-116"/>
     <use transform="translate(562.707489 0)scale(0.996264)" xlink:href="#CMR17-114"/>
     <use transform="translate(597.988257 0)scale(0.996264)" xlink:href="#CMR17-97"/>
     <use transform="translate(643.678734 0)scale(0.996264)" xlink:href="#CMR17-105"/>
     <use transform="translate(668.549793 0)scale(0.996264)" xlink:href="#CMR17-110"/>
     <use transform="translate(719.445162 0)scale(0.996264)" xlink:href="#CMR17-105"/>
     <use transform="translate(744.316221 0)scale(0.996264)" xlink:href="#CMR17-110"/>
     <use transform="translate(795.211591 0)scale(0.996264)" xlink:href="#CMR17-103"/>
     <use transform="translate(870.978034 0)scale(0.996264)" xlink:href="#CMR17-98"/>
     <use transform="translate(921.873404 0)scale(0.996264)" xlink:href="#CMR17-97"/>
     <use transform="translate(967.563881 0)scale(0.996264)" xlink:href="#CMR17-116"/>
     <use transform="translate(1002.844649 0)scale(0.996264)" xlink:href="#CMR17-99"/>
     <use transform="translate(1040.727855 0)scale(0.996264)" xlink:href="#CMR17-104"/>
    </g>
   </g>
  </g>
 </g>
 <defs>
  <clipPath id="pc59a02ecec">
   <rect height="221.76" width="446.4" x="41.542709" y="23.436997"/>
  </clipPath>
 </defs>
</svg>
