<?xml version="1.0" encoding="utf-8" standalone="no"?>
<!DOCTYPE svg PUBLIC "-//W3C//DTD SVG 1.1//EN"
  "http://www.w3.org/Graphics/SVG/1.1/DTD/svg11.dtd">
<svg xmlns:xlink="http://www.w3.org/1999/xlink" width="556.847829pt" height="273.6pt" viewBox="0 0 556.847829 273.6" xmlns="http://www.w3.org/2000/svg" version="1.1">
 <metadata>
  <rdf:RDF xmlns:dc="http://purl.org/dc/elements/1.1/" xmlns:cc="http://creativecommons.org/ns#" xmlns:rdf="http://www.w3.org/1999/02/22-rdf-syntax-ns#">
   <cc:Work>
    <dc:type rdf:resource="http://purl.org/dc/dcmitype/StillImage"/>
    <dc:date>2022-05-29T13:49:02.358027</dc:date>
    <dc:format>image/svg+xml</dc:format>
    <dc:creator>
     <cc:Agent>
      <dc:title>Matplotlib v3.5.1, https://matplotlib.org/</dc:title>
     </cc:Agent>
    </dc:creator>
   </cc:Work>
  </rdf:RDF>
 </metadata>
 <defs>
  <style type="text/css">*{stroke-linejoin: round; stroke-linecap: butt}</style>
 </defs>
 <g id="figure_1">
  <g id="patch_1">
   <path d="M 0 273.6 
L 556.847829 273.6 
L 556.847829 0 
L 0 0 
z
" style="fill: #ffffff"/>
  </g>
  <g id="axes_1">
   <g id="patch_2">
    <path d="M 37.667091 108.656767 
L 533.925016 108.656767 
L 533.925016 17.90218 
L 37.667091 17.90218 
z
" style="fill: #ffffff"/>
   </g>
   <g id="PathCollection_1">
    <defs>
     <path id="m3636cab22f" d="M 0 -3 
L -0.673542 -0.927051 
L -2.85317 -0.927051 
L -1.089814 0.354102 
L -1.763356 2.427051 
L -0 1.145898 
L 1.763356 2.427051 
L 1.089814 0.354102 
L 2.85317 -0.927051 
L 0.673542 -0.927051 
z
" style="stroke: #ff0000"/>
    </defs>
    <g clip-path="url(#p27d39aaa4f)">
     <use xlink:href="#m3636cab22f" x="511.367837" y="22.027388" style="fill: #ff0000; stroke: #ff0000"/>
    </g>
   </g>
   <g id="matplotlib.axis_1">
    <g id="xtick_1">
     <g id="line2d_1">
      <defs>
       <path id="m54f4f20b97" d="M 0 0 
L 0 -3 
" style="stroke: #000000; stroke-width: 0.5"/>
      </defs>
      <g>
       <use xlink:href="#m54f4f20b97" x="60.224269" y="108.656767" style="stroke: #000000; stroke-width: 0.5"/>
      </g>
     </g>
     <g id="line2d_2">
      <defs>
       <path id="m6d51eefed0" d="M 0 0 
L 0 3 
" style="stroke: #000000; stroke-width: 0.5"/>
      </defs>
      <g>
       <use xlink:href="#m6d51eefed0" x="60.224269" y="17.90218" style="stroke: #000000; stroke-width: 0.5"/>
      </g>
     </g>
     <g id="text_1">
      <!-- $\mathdefault{0}$ -->
      <g transform="translate(57.733602 119.075265)scale(0.1 -0.1)">
       <defs>
        <path id="CMR17-30" d="M 2688 2038 
C 2688 2430 2682 3099 2413 3613 
C 2176 4063 1798 4224 1466 4224 
C 1158 4224 768 4082 525 3620 
C 269 3137 243 2539 243 2038 
C 243 1671 250 1112 448 623 
C 723 -39 1216 -128 1466 -128 
C 1760 -128 2208 -7 2470 604 
C 2662 1048 2688 1568 2688 2038 
z
M 1466 -26 
C 1056 -26 813 328 723 816 
C 653 1196 653 1749 653 2109 
C 653 2604 653 3015 736 3407 
C 858 3954 1216 4121 1466 4121 
C 1728 4121 2067 3947 2189 3420 
C 2272 3054 2278 2623 2278 2109 
C 2278 1691 2278 1176 2202 797 
C 2067 96 1690 -26 1466 -26 
z
" transform="scale(0.015625)"/>
       </defs>
       <use xlink:href="#CMR17-30" transform="scale(0.996264)"/>
      </g>
     </g>
    </g>
    <g id="xtick_2">
     <g id="line2d_3">
      <g>
       <use xlink:href="#m54f4f20b97" x="151.364384" y="108.656767" style="stroke: #000000; stroke-width: 0.5"/>
      </g>
     </g>
     <g id="line2d_4">
      <g>
       <use xlink:href="#m6d51eefed0" x="151.364384" y="17.90218" style="stroke: #000000; stroke-width: 0.5"/>
      </g>
     </g>
     <g id="text_2">
      <!-- $\mathdefault{20}$ -->
      <g transform="translate(146.383049 119.075265)scale(0.1 -0.1)">
       <defs>
        <path id="CMR17-32" d="M 2669 990 
L 2554 990 
C 2490 537 2438 460 2413 422 
C 2381 371 1920 371 1830 371 
L 602 371 
C 832 620 1280 1073 1824 1596 
C 2214 1966 2669 2400 2669 3033 
C 2669 3788 2067 4224 1395 4224 
C 691 4224 262 3603 262 3027 
C 262 2777 448 2745 525 2745 
C 589 2745 781 2783 781 3007 
C 781 3206 614 3264 525 3264 
C 486 3264 448 3257 422 3244 
C 544 3788 915 4057 1306 4057 
C 1862 4057 2227 3616 2227 3033 
C 2227 2477 1901 1998 1536 1583 
L 262 147 
L 262 0 
L 2515 0 
L 2669 990 
z
" transform="scale(0.015625)"/>
       </defs>
       <use xlink:href="#CMR17-32" transform="scale(0.996264)"/>
       <use xlink:href="#CMR17-30" transform="translate(45.690477 0)scale(0.996264)"/>
      </g>
     </g>
    </g>
    <g id="xtick_3">
     <g id="line2d_5">
      <g>
       <use xlink:href="#m54f4f20b97" x="242.504499" y="108.656767" style="stroke: #000000; stroke-width: 0.5"/>
      </g>
     </g>
     <g id="line2d_6">
      <g>
       <use xlink:href="#m6d51eefed0" x="242.504499" y="17.90218" style="stroke: #000000; stroke-width: 0.5"/>
      </g>
     </g>
     <g id="text_3">
      <!-- $\mathdefault{40}$ -->
      <g transform="translate(237.523163 119.075265)scale(0.1 -0.1)">
       <defs>
        <path id="CMR17-34" d="M 2150 4147 
C 2150 4281 2144 4288 2029 4288 
L 128 1254 
L 128 1088 
L 1779 1088 
L 1779 460 
C 1779 230 1766 166 1318 166 
L 1197 166 
L 1197 0 
C 1402 12 1747 12 1965 12 
C 2182 12 2528 12 2733 0 
L 2733 166 
L 2611 166 
C 2163 166 2150 230 2150 460 
L 2150 1088 
L 2803 1088 
L 2803 1254 
L 2150 1254 
L 2150 4147 
z
M 1798 3723 
L 1798 1254 
L 256 1254 
L 1798 3723 
z
" transform="scale(0.015625)"/>
       </defs>
       <use xlink:href="#CMR17-34" transform="scale(0.996264)"/>
       <use xlink:href="#CMR17-30" transform="translate(45.690477 0)scale(0.996264)"/>
      </g>
     </g>
    </g>
    <g id="xtick_4">
     <g id="line2d_7">
      <g>
       <use xlink:href="#m54f4f20b97" x="333.644613" y="108.656767" style="stroke: #000000; stroke-width: 0.5"/>
      </g>
     </g>
     <g id="line2d_8">
      <g>
       <use xlink:href="#m6d51eefed0" x="333.644613" y="17.90218" style="stroke: #000000; stroke-width: 0.5"/>
      </g>
     </g>
     <g id="text_4">
      <!-- $\mathdefault{60}$ -->
      <g transform="translate(328.663278 119.075265)scale(0.1 -0.1)">
       <defs>
        <path id="CMR17-36" d="M 678 2198 
C 678 3712 1395 4076 1811 4076 
C 1946 4076 2272 4049 2400 3782 
C 2298 3782 2106 3782 2106 3558 
C 2106 3385 2246 3328 2336 3328 
C 2394 3328 2566 3353 2566 3571 
C 2566 3987 2246 4224 1805 4224 
C 1043 4224 243 3411 243 2011 
C 243 257 966 -128 1478 -128 
C 2099 -128 2688 431 2688 1295 
C 2688 2101 2170 2688 1517 2688 
C 1126 2688 838 2430 678 1979 
L 678 2198 
z
M 1478 25 
C 691 25 691 1212 691 1450 
C 691 1914 909 2585 1504 2585 
C 1613 2585 1926 2585 2138 2140 
C 2253 1889 2253 1624 2253 1302 
C 2253 954 2253 696 2118 438 
C 1978 173 1773 25 1478 25 
z
" transform="scale(0.015625)"/>
       </defs>
       <use xlink:href="#CMR17-36" transform="scale(0.996264)"/>
       <use xlink:href="#CMR17-30" transform="translate(45.690477 0)scale(0.996264)"/>
      </g>
     </g>
    </g>
    <g id="xtick_5">
     <g id="line2d_9">
      <g>
       <use xlink:href="#m54f4f20b97" x="424.784728" y="108.656767" style="stroke: #000000; stroke-width: 0.5"/>
      </g>
     </g>
     <g id="line2d_10">
      <g>
       <use xlink:href="#m6d51eefed0" x="424.784728" y="17.90218" style="stroke: #000000; stroke-width: 0.5"/>
      </g>
     </g>
     <g id="text_5">
      <!-- $\mathdefault{80}$ -->
      <g transform="translate(419.803393 119.075265)scale(0.1 -0.1)">
       <defs>
        <path id="CMR17-38" d="M 1741 2289 
C 2144 2494 2554 2803 2554 3298 
C 2554 3884 1990 4224 1472 4224 
C 890 4224 378 3800 378 3215 
C 378 3054 416 2777 666 2533 
C 730 2469 998 2276 1171 2154 
C 883 2006 211 1652 211 945 
C 211 282 838 -128 1459 -128 
C 2144 -128 2720 366 2720 1022 
C 2720 1607 2330 1877 2074 2051 
L 1741 2289 
z
M 902 2855 
C 851 2887 595 3086 595 3388 
C 595 3781 998 4076 1459 4076 
C 1965 4076 2336 3716 2336 3298 
C 2336 2700 1670 2359 1638 2359 
C 1632 2359 1626 2359 1574 2398 
L 902 2855 
z
M 2080 1536 
C 2176 1466 2483 1253 2483 861 
C 2483 385 2010 25 1472 25 
C 890 25 448 443 448 951 
C 448 1459 838 1884 1280 2083 
L 2080 1536 
z
" transform="scale(0.015625)"/>
       </defs>
       <use xlink:href="#CMR17-38" transform="scale(0.996264)"/>
       <use xlink:href="#CMR17-30" transform="translate(45.690477 0)scale(0.996264)"/>
      </g>
     </g>
    </g>
    <g id="xtick_6">
     <g id="line2d_11">
      <g>
       <use xlink:href="#m54f4f20b97" x="515.924843" y="108.656767" style="stroke: #000000; stroke-width: 0.5"/>
      </g>
     </g>
     <g id="line2d_12">
      <g>
       <use xlink:href="#m6d51eefed0" x="515.924843" y="17.90218" style="stroke: #000000; stroke-width: 0.5"/>
      </g>
     </g>
     <g id="text_6">
      <!-- $\mathdefault{100}$ -->
      <g transform="translate(508.45284 119.075265)scale(0.1 -0.1)">
       <defs>
        <path id="CMR17-31" d="M 1702 4083 
C 1702 4217 1696 4224 1606 4224 
C 1357 3927 979 3833 621 3820 
C 602 3820 570 3820 563 3808 
C 557 3795 557 3782 557 3648 
C 755 3648 1088 3686 1344 3839 
L 1344 467 
C 1344 243 1331 166 781 166 
L 589 166 
L 589 0 
C 896 6 1216 12 1523 12 
C 1830 12 2150 6 2458 0 
L 2458 166 
L 2266 166 
C 1715 166 1702 236 1702 467 
L 1702 4083 
z
" transform="scale(0.015625)"/>
       </defs>
       <use xlink:href="#CMR17-31" transform="scale(0.996264)"/>
       <use xlink:href="#CMR17-30" transform="translate(45.690477 0)scale(0.996264)"/>
       <use xlink:href="#CMR17-30" transform="translate(91.380954 0)scale(0.996264)"/>
      </g>
     </g>
    </g>
    <g id="xtick_7">
     <g id="line2d_13">
      <defs>
       <path id="mb5f1c842db" d="M 0 0 
L 0 -1.5 
" style="stroke: #000000; stroke-width: 0.5"/>
      </defs>
      <g>
       <use xlink:href="#mb5f1c842db" x="83.009298" y="108.656767" style="stroke: #000000; stroke-width: 0.5"/>
      </g>
     </g>
     <g id="line2d_14">
      <defs>
       <path id="mf52843ae58" d="M 0 0 
L 0 1.5 
" style="stroke: #000000; stroke-width: 0.5"/>
      </defs>
      <g>
       <use xlink:href="#mf52843ae58" x="83.009298" y="17.90218" style="stroke: #000000; stroke-width: 0.5"/>
      </g>
     </g>
    </g>
    <g id="xtick_8">
     <g id="line2d_15">
      <g>
       <use xlink:href="#mb5f1c842db" x="105.794327" y="108.656767" style="stroke: #000000; stroke-width: 0.5"/>
      </g>
     </g>
     <g id="line2d_16">
      <g>
       <use xlink:href="#mf52843ae58" x="105.794327" y="17.90218" style="stroke: #000000; stroke-width: 0.5"/>
      </g>
     </g>
    </g>
    <g id="xtick_9">
     <g id="line2d_17">
      <g>
       <use xlink:href="#mb5f1c842db" x="128.579355" y="108.656767" style="stroke: #000000; stroke-width: 0.5"/>
      </g>
     </g>
     <g id="line2d_18">
      <g>
       <use xlink:href="#mf52843ae58" x="128.579355" y="17.90218" style="stroke: #000000; stroke-width: 0.5"/>
      </g>
     </g>
    </g>
    <g id="xtick_10">
     <g id="line2d_19">
      <g>
       <use xlink:href="#mb5f1c842db" x="174.149413" y="108.656767" style="stroke: #000000; stroke-width: 0.5"/>
      </g>
     </g>
     <g id="line2d_20">
      <g>
       <use xlink:href="#mf52843ae58" x="174.149413" y="17.90218" style="stroke: #000000; stroke-width: 0.5"/>
      </g>
     </g>
    </g>
    <g id="xtick_11">
     <g id="line2d_21">
      <g>
       <use xlink:href="#mb5f1c842db" x="196.934441" y="108.656767" style="stroke: #000000; stroke-width: 0.5"/>
      </g>
     </g>
     <g id="line2d_22">
      <g>
       <use xlink:href="#mf52843ae58" x="196.934441" y="17.90218" style="stroke: #000000; stroke-width: 0.5"/>
      </g>
     </g>
    </g>
    <g id="xtick_12">
     <g id="line2d_23">
      <g>
       <use xlink:href="#mb5f1c842db" x="219.71947" y="108.656767" style="stroke: #000000; stroke-width: 0.5"/>
      </g>
     </g>
     <g id="line2d_24">
      <g>
       <use xlink:href="#mf52843ae58" x="219.71947" y="17.90218" style="stroke: #000000; stroke-width: 0.5"/>
      </g>
     </g>
    </g>
    <g id="xtick_13">
     <g id="line2d_25">
      <g>
       <use xlink:href="#mb5f1c842db" x="265.289527" y="108.656767" style="stroke: #000000; stroke-width: 0.5"/>
      </g>
     </g>
     <g id="line2d_26">
      <g>
       <use xlink:href="#mf52843ae58" x="265.289527" y="17.90218" style="stroke: #000000; stroke-width: 0.5"/>
      </g>
     </g>
    </g>
    <g id="xtick_14">
     <g id="line2d_27">
      <g>
       <use xlink:href="#mb5f1c842db" x="288.074556" y="108.656767" style="stroke: #000000; stroke-width: 0.5"/>
      </g>
     </g>
     <g id="line2d_28">
      <g>
       <use xlink:href="#mf52843ae58" x="288.074556" y="17.90218" style="stroke: #000000; stroke-width: 0.5"/>
      </g>
     </g>
    </g>
    <g id="xtick_15">
     <g id="line2d_29">
      <g>
       <use xlink:href="#mb5f1c842db" x="310.859585" y="108.656767" style="stroke: #000000; stroke-width: 0.5"/>
      </g>
     </g>
     <g id="line2d_30">
      <g>
       <use xlink:href="#mf52843ae58" x="310.859585" y="17.90218" style="stroke: #000000; stroke-width: 0.5"/>
      </g>
     </g>
    </g>
    <g id="xtick_16">
     <g id="line2d_31">
      <g>
       <use xlink:href="#mb5f1c842db" x="356.429642" y="108.656767" style="stroke: #000000; stroke-width: 0.5"/>
      </g>
     </g>
     <g id="line2d_32">
      <g>
       <use xlink:href="#mf52843ae58" x="356.429642" y="17.90218" style="stroke: #000000; stroke-width: 0.5"/>
      </g>
     </g>
    </g>
    <g id="xtick_17">
     <g id="line2d_33">
      <g>
       <use xlink:href="#mb5f1c842db" x="379.214671" y="108.656767" style="stroke: #000000; stroke-width: 0.5"/>
      </g>
     </g>
     <g id="line2d_34">
      <g>
       <use xlink:href="#mf52843ae58" x="379.214671" y="17.90218" style="stroke: #000000; stroke-width: 0.5"/>
      </g>
     </g>
    </g>
    <g id="xtick_18">
     <g id="line2d_35">
      <g>
       <use xlink:href="#mb5f1c842db" x="401.999699" y="108.656767" style="stroke: #000000; stroke-width: 0.5"/>
      </g>
     </g>
     <g id="line2d_36">
      <g>
       <use xlink:href="#mf52843ae58" x="401.999699" y="17.90218" style="stroke: #000000; stroke-width: 0.5"/>
      </g>
     </g>
    </g>
    <g id="xtick_19">
     <g id="line2d_37">
      <g>
       <use xlink:href="#mb5f1c842db" x="447.569757" y="108.656767" style="stroke: #000000; stroke-width: 0.5"/>
      </g>
     </g>
     <g id="line2d_38">
      <g>
       <use xlink:href="#mf52843ae58" x="447.569757" y="17.90218" style="stroke: #000000; stroke-width: 0.5"/>
      </g>
     </g>
    </g>
    <g id="xtick_20">
     <g id="line2d_39">
      <g>
       <use xlink:href="#mb5f1c842db" x="470.354786" y="108.656767" style="stroke: #000000; stroke-width: 0.5"/>
      </g>
     </g>
     <g id="line2d_40">
      <g>
       <use xlink:href="#mf52843ae58" x="470.354786" y="17.90218" style="stroke: #000000; stroke-width: 0.5"/>
      </g>
     </g>
    </g>
    <g id="xtick_21">
     <g id="line2d_41">
      <g>
       <use xlink:href="#mb5f1c842db" x="493.139814" y="108.656767" style="stroke: #000000; stroke-width: 0.5"/>
      </g>
     </g>
     <g id="line2d_42">
      <g>
       <use xlink:href="#mf52843ae58" x="493.139814" y="17.90218" style="stroke: #000000; stroke-width: 0.5"/>
      </g>
     </g>
    </g>
    <g id="text_7">
     <!-- Epoch -->
     <g transform="translate(272.028202 131.930942)scale(0.1 -0.1)">
      <defs>
       <path id="CMR17-45" d="M 3885 1614 
L 3770 1614 
C 3629 676 3546 166 2419 166 
L 1530 166 
C 1274 166 1261 198 1261 415 
L 1261 2176 
L 1862 2176 
C 2464 2176 2522 1959 2522 1429 
L 2637 1429 
L 2637 3086 
L 2522 3086 
C 2522 2558 2464 2342 1862 2342 
L 1261 2342 
L 1261 3924 
C 1261 4141 1274 4172 1530 4172 
L 2406 4172 
C 3398 4172 3514 3778 3603 2933 
L 3718 2933 
L 3565 4339 
L 326 4339 
L 326 4172 
C 768 4172 838 4172 838 3886 
L 838 453 
C 838 166 768 166 326 166 
L 326 0 
L 3654 0 
L 3885 1614 
z
" transform="scale(0.015625)"/>
       <path id="CMR17-70" d="M 1408 -1114 
C 998 -1114 973 -1088 973 -834 
L 973 380 
C 1158 109 1427 -64 1766 -64 
C 2406 -64 3053 503 3053 1382 
C 3053 2196 2496 2816 1837 2816 
C 1453 2816 1139 2603 960 2345 
L 960 2816 
L 198 2745 
L 198 2577 
C 576 2577 634 2539 634 2228 
L 634 -834 
C 634 -1081 608 -1114 198 -1114 
L 198 -1280 
C 352 -1268 634 -1268 800 -1268 
C 966 -1268 1254 -1268 1408 -1280 
L 1408 -1114 
z
M 973 2015 
C 973 2106 973 2241 1222 2481 
C 1254 2506 1472 2700 1792 2700 
C 2259 2700 2643 2112 2643 1376 
C 2643 639 2234 38 1728 38 
C 1498 38 1248 148 1056 451 
C 973 594 973 632 973 736 
L 973 2015 
z
" transform="scale(0.015625)"/>
       <path id="CMR17-6f" d="M 2758 1356 
C 2758 2176 2163 2816 1466 2816 
C 768 2816 173 2176 173 1356 
C 173 550 768 -64 1466 -64 
C 2163 -64 2758 550 2758 1356 
z
M 1466 51 
C 1165 51 909 230 762 480 
C 602 768 582 1126 582 1408 
C 582 1676 595 2009 762 2297 
C 890 2508 1139 2713 1466 2713 
C 1754 2713 1997 2553 2150 2329 
C 2349 2028 2349 1606 2349 1408 
C 2349 1158 2336 774 2163 467 
C 1984 172 1709 51 1466 51 
z
" transform="scale(0.015625)"/>
       <path id="CMR17-63" d="M 2234 2240 
C 2112 2240 1933 2240 1933 2015 
C 1933 1836 2080 1785 2163 1785 
C 2208 1785 2394 1804 2394 2028 
C 2394 2476 1958 2816 1466 2816 
C 787 2816 211 2201 211 1379 
C 211 521 813 -64 1466 -64 
C 2259 -64 2458 676 2458 747 
C 2458 773 2451 792 2406 792 
C 2362 792 2355 786 2330 702 
C 2163 180 1798 51 1523 51 
C 1114 51 621 431 621 1385 
C 621 2358 1094 2700 1472 2700 
C 1722 2700 2093 2582 2234 2240 
z
" transform="scale(0.015625)"/>
       <path id="CMR17-68" d="M 2656 1954 
C 2656 2282 2592 2816 1837 2816 
C 1312 2816 1056 2392 979 2179 
L 973 2179 
L 973 4416 
L 211 4345 
L 211 4179 
C 589 4179 646 4141 646 3843 
L 646 443 
C 646 198 621 166 211 166 
L 211 0 
C 365 12 646 12 813 12 
C 979 12 1267 12 1421 0 
L 1421 166 
C 1011 166 986 192 986 443 
L 986 1678 
C 986 2269 1344 2713 1792 2713 
C 2266 2713 2317 2289 2317 1980 
L 2317 443 
C 2317 198 2291 166 1882 166 
L 1882 0 
C 2035 12 2317 12 2483 12 
C 2650 12 2938 12 3091 0 
L 3091 166 
C 2682 166 2656 192 2656 443 
L 2656 1954 
z
" transform="scale(0.015625)"/>
      </defs>
      <use xlink:href="#CMR17-45" transform="scale(0.996264)"/>
      <use xlink:href="#CMR17-70" transform="translate(62.586301 0)scale(0.996264)"/>
      <use xlink:href="#CMR17-6f" transform="translate(116.084109 0)scale(0.996264)"/>
      <use xlink:href="#CMR17-63" transform="translate(164.377025 0)scale(0.996264)"/>
      <use xlink:href="#CMR17-68" transform="translate(202.260231 0)scale(0.996264)"/>
     </g>
    </g>
   </g>
   <g id="matplotlib.axis_2">
    <g id="ytick_1">
     <g id="line2d_43">
      <defs>
       <path id="m93e6115f62" d="M 0 0 
L 3 0 
" style="stroke: #000000; stroke-width: 0.5"/>
      </defs>
      <g>
       <use xlink:href="#m93e6115f62" x="37.667091" y="89.214437" style="stroke: #000000; stroke-width: 0.5"/>
      </g>
     </g>
     <g id="line2d_44">
      <defs>
       <path id="m8e877696db" d="M 0 0 
L -3 0 
" style="stroke: #000000; stroke-width: 0.5"/>
      </defs>
      <g>
       <use xlink:href="#m8e877696db" x="533.925016" y="89.214437" style="stroke: #000000; stroke-width: 0.5"/>
      </g>
     </g>
     <g id="text_8">
      <!-- $\mathdefault{0.88}$ -->
      <g transform="translate(16.455677 92.673686)scale(0.1 -0.1)">
       <defs>
        <path id="CMMI12-3a" d="M 1178 307 
C 1178 492 1024 620 870 620 
C 685 620 557 467 557 313 
C 557 128 710 0 864 0 
C 1050 0 1178 153 1178 307 
z
" transform="scale(0.015625)"/>
       </defs>
       <use xlink:href="#CMR17-30" transform="scale(0.996264)"/>
       <use xlink:href="#CMMI12-3a" transform="translate(45.690477 0)scale(0.996264)"/>
       <use xlink:href="#CMR17-38" transform="translate(72.787654 0)scale(0.996264)"/>
       <use xlink:href="#CMR17-38" transform="translate(118.478131 0)scale(0.996264)"/>
      </g>
     </g>
    </g>
    <g id="ytick_2">
     <g id="line2d_45">
      <g>
       <use xlink:href="#m93e6115f62" x="37.667091" y="64.550376" style="stroke: #000000; stroke-width: 0.5"/>
      </g>
     </g>
     <g id="line2d_46">
      <g>
       <use xlink:href="#m8e877696db" x="533.925016" y="64.550376" style="stroke: #000000; stroke-width: 0.5"/>
      </g>
     </g>
     <g id="text_9">
      <!-- $\mathdefault{0.90}$ -->
      <g transform="translate(16.455677 68.009625)scale(0.1 -0.1)">
       <defs>
        <path id="CMR17-39" d="M 2253 1871 
C 2253 448 1670 25 1190 25 
C 1043 25 685 43 538 281 
C 704 256 826 345 826 505 
C 826 678 685 736 595 736 
C 538 736 365 710 365 492 
C 365 68 742 -128 1203 -128 
C 1939 -128 2688 665 2688 2090 
C 2688 3857 1971 4224 1485 4224 
C 851 4224 243 3664 243 2800 
C 243 2000 762 1408 1414 1408 
C 1952 1408 2189 1910 2253 2122 
L 2253 1871 
z
M 1427 1510 
C 1254 1510 1011 1542 813 1929 
C 678 2181 678 2477 678 2793 
C 678 3174 678 3438 858 3722 
C 947 3857 1114 4076 1485 4076 
C 2240 4076 2240 2909 2240 2651 
C 2240 2193 2035 1510 1427 1510 
z
" transform="scale(0.015625)"/>
       </defs>
       <use xlink:href="#CMR17-30" transform="scale(0.996264)"/>
       <use xlink:href="#CMMI12-3a" transform="translate(45.690477 0)scale(0.996264)"/>
       <use xlink:href="#CMR17-39" transform="translate(72.787654 0)scale(0.996264)"/>
       <use xlink:href="#CMR17-30" transform="translate(118.478131 0)scale(0.996264)"/>
      </g>
     </g>
    </g>
    <g id="ytick_3">
     <g id="line2d_47">
      <g>
       <use xlink:href="#m93e6115f62" x="37.667091" y="39.886314" style="stroke: #000000; stroke-width: 0.5"/>
      </g>
     </g>
     <g id="line2d_48">
      <g>
       <use xlink:href="#m8e877696db" x="533.925016" y="39.886314" style="stroke: #000000; stroke-width: 0.5"/>
      </g>
     </g>
     <g id="text_10">
      <!-- $\mathdefault{0.92}$ -->
      <g transform="translate(16.455677 43.345564)scale(0.1 -0.1)">
       <use xlink:href="#CMR17-30" transform="scale(0.996264)"/>
       <use xlink:href="#CMMI12-3a" transform="translate(45.690477 0)scale(0.996264)"/>
       <use xlink:href="#CMR17-39" transform="translate(72.787654 0)scale(0.996264)"/>
       <use xlink:href="#CMR17-32" transform="translate(118.478131 0)scale(0.996264)"/>
      </g>
     </g>
    </g>
    <g id="ytick_4">
     <g id="line2d_49">
      <defs>
       <path id="m68305e80a5" d="M 0 0 
L 1.5 0 
" style="stroke: #000000; stroke-width: 0.5"/>
      </defs>
      <g>
       <use xlink:href="#m68305e80a5" x="37.667091" y="107.712483" style="stroke: #000000; stroke-width: 0.5"/>
      </g>
     </g>
     <g id="line2d_50">
      <defs>
       <path id="m154331ae7d" d="M 0 0 
L -1.5 0 
" style="stroke: #000000; stroke-width: 0.5"/>
      </defs>
      <g>
       <use xlink:href="#m154331ae7d" x="533.925016" y="107.712483" style="stroke: #000000; stroke-width: 0.5"/>
      </g>
     </g>
    </g>
    <g id="ytick_5">
     <g id="line2d_51">
      <g>
       <use xlink:href="#m68305e80a5" x="37.667091" y="101.546467" style="stroke: #000000; stroke-width: 0.5"/>
      </g>
     </g>
     <g id="line2d_52">
      <g>
       <use xlink:href="#m154331ae7d" x="533.925016" y="101.546467" style="stroke: #000000; stroke-width: 0.5"/>
      </g>
     </g>
    </g>
    <g id="ytick_6">
     <g id="line2d_53">
      <g>
       <use xlink:href="#m68305e80a5" x="37.667091" y="95.380452" style="stroke: #000000; stroke-width: 0.5"/>
      </g>
     </g>
     <g id="line2d_54">
      <g>
       <use xlink:href="#m154331ae7d" x="533.925016" y="95.380452" style="stroke: #000000; stroke-width: 0.5"/>
      </g>
     </g>
    </g>
    <g id="ytick_7">
     <g id="line2d_55">
      <g>
       <use xlink:href="#m68305e80a5" x="37.667091" y="83.048421" style="stroke: #000000; stroke-width: 0.5"/>
      </g>
     </g>
     <g id="line2d_56">
      <g>
       <use xlink:href="#m154331ae7d" x="533.925016" y="83.048421" style="stroke: #000000; stroke-width: 0.5"/>
      </g>
     </g>
    </g>
    <g id="ytick_8">
     <g id="line2d_57">
      <g>
       <use xlink:href="#m68305e80a5" x="37.667091" y="76.882406" style="stroke: #000000; stroke-width: 0.5"/>
      </g>
     </g>
     <g id="line2d_58">
      <g>
       <use xlink:href="#m154331ae7d" x="533.925016" y="76.882406" style="stroke: #000000; stroke-width: 0.5"/>
      </g>
     </g>
    </g>
    <g id="ytick_9">
     <g id="line2d_59">
      <g>
       <use xlink:href="#m68305e80a5" x="37.667091" y="70.716391" style="stroke: #000000; stroke-width: 0.5"/>
      </g>
     </g>
     <g id="line2d_60">
      <g>
       <use xlink:href="#m154331ae7d" x="533.925016" y="70.716391" style="stroke: #000000; stroke-width: 0.5"/>
      </g>
     </g>
    </g>
    <g id="ytick_10">
     <g id="line2d_61">
      <g>
       <use xlink:href="#m68305e80a5" x="37.667091" y="58.38436" style="stroke: #000000; stroke-width: 0.5"/>
      </g>
     </g>
     <g id="line2d_62">
      <g>
       <use xlink:href="#m154331ae7d" x="533.925016" y="58.38436" style="stroke: #000000; stroke-width: 0.5"/>
      </g>
     </g>
    </g>
    <g id="ytick_11">
     <g id="line2d_63">
      <g>
       <use xlink:href="#m68305e80a5" x="37.667091" y="52.218345" style="stroke: #000000; stroke-width: 0.5"/>
      </g>
     </g>
     <g id="line2d_64">
      <g>
       <use xlink:href="#m154331ae7d" x="533.925016" y="52.218345" style="stroke: #000000; stroke-width: 0.5"/>
      </g>
     </g>
    </g>
    <g id="ytick_12">
     <g id="line2d_65">
      <g>
       <use xlink:href="#m68305e80a5" x="37.667091" y="46.05233" style="stroke: #000000; stroke-width: 0.5"/>
      </g>
     </g>
     <g id="line2d_66">
      <g>
       <use xlink:href="#m154331ae7d" x="533.925016" y="46.05233" style="stroke: #000000; stroke-width: 0.5"/>
      </g>
     </g>
    </g>
    <g id="ytick_13">
     <g id="line2d_67">
      <g>
       <use xlink:href="#m68305e80a5" x="37.667091" y="33.720299" style="stroke: #000000; stroke-width: 0.5"/>
      </g>
     </g>
     <g id="line2d_68">
      <g>
       <use xlink:href="#m154331ae7d" x="533.925016" y="33.720299" style="stroke: #000000; stroke-width: 0.5"/>
      </g>
     </g>
    </g>
    <g id="ytick_14">
     <g id="line2d_69">
      <g>
       <use xlink:href="#m68305e80a5" x="37.667091" y="27.554284" style="stroke: #000000; stroke-width: 0.5"/>
      </g>
     </g>
     <g id="line2d_70">
      <g>
       <use xlink:href="#m154331ae7d" x="533.925016" y="27.554284" style="stroke: #000000; stroke-width: 0.5"/>
      </g>
     </g>
    </g>
    <g id="ytick_15">
     <g id="line2d_71">
      <g>
       <use xlink:href="#m68305e80a5" x="37.667091" y="21.388268" style="stroke: #000000; stroke-width: 0.5"/>
      </g>
     </g>
     <g id="line2d_72">
      <g>
       <use xlink:href="#m154331ae7d" x="533.925016" y="21.388268" style="stroke: #000000; stroke-width: 0.5"/>
      </g>
     </g>
    </g>
    <g id="text_11">
     <!-- Acc -->
     <g transform="translate(10.518498 71.443309)rotate(-90)scale(0.1 -0.1)">
      <defs>
       <path id="CMR17-41" d="M 2323 4441 
C 2291 4524 2278 4544 2214 4544 
C 2150 4544 2138 4524 2106 4441 
L 749 580 
C 627 236 371 166 147 166 
L 147 0 
C 262 12 518 12 640 12 
C 800 12 1056 12 1210 0 
L 1210 166 
C 909 179 864 382 864 459 
C 864 516 877 548 890 586 
L 1229 1536 
L 2906 1536 
L 3290 453 
C 3322 376 3322 363 3322 338 
C 3322 166 3046 166 2925 166 
L 2925 0 
C 3110 12 3443 12 3642 12 
C 3808 12 4128 12 4282 0 
L 4282 166 
C 3942 166 3827 166 3744 402 
L 2323 4441 
z
M 2067 3924 
L 2848 1702 
L 1286 1702 
L 2067 3924 
z
" transform="scale(0.015625)"/>
      </defs>
      <use xlink:href="#CMR17-41" transform="scale(0.996264)"/>
      <use xlink:href="#CMR17-63" transform="translate(69.07243 0)scale(0.996264)"/>
      <use xlink:href="#CMR17-63" transform="translate(109.55809 0)scale(0.996264)"/>
     </g>
    </g>
   </g>
   <g id="line2d_73">
    <path d="M 60.224269 104.531558 
L 64.781275 52.277557 
L 69.338281 45.820396 
L 73.895287 41.748607 
L 78.452292 39.219239 
L 83.009298 37.779725 
L 87.566304 36.360791 
L 92.123309 34.016435 
L 96.680315 34.448274 
L 101.237321 33.132174 
L 105.794327 32.412416 
L 110.351332 31.857163 
L 114.908338 30.767236 
L 119.465344 30.849488 
L 124.02235 30.746728 
L 128.579355 29.718472 
L 133.136361 28.998714 
L 137.693367 28.628545 
L 142.250373 27.744284 
L 146.807378 28.751959 
L 151.364384 27.908788 
L 155.92139 27.662033 
L 160.478396 27.435859 
L 165.035401 27.805955 
L 169.592407 27.024527 
L 174.149413 26.818935 
L 178.706418 27.086271 
L 183.263424 26.572106 
L 187.82043 25.996344 
L 192.377436 25.87293 
L 196.934441 26.798353 
L 201.491447 26.263681 
L 206.048453 26.448765 
L 210.605459 26.572106 
L 215.162464 25.87293 
L 219.71947 25.9346 
L 224.276476 25.975763 
L 228.833482 25.44109 
L 233.390487 25.194335 
L 237.947493 24.926999 
L 242.504499 25.543923 
L 247.061504 25.687845 
L 251.61851 25.276587 
L 256.175516 24.474578 
L 260.732522 24.433415 
L 265.289527 25.009251 
L 269.846533 24.659663 
L 274.403539 24.680244 
L 278.960545 24.926999 
L 283.51755 24.824166 
L 288.074556 23.960487 
L 292.631562 24.351164 
L 297.188568 24.18666 
L 301.745573 23.878235 
L 306.302579 24.741914 
L 310.859585 23.672569 
L 315.416591 23.569736 
L 319.973596 23.919324 
L 324.530602 24.474578 
L 329.087608 23.240729 
L 333.644613 23.220148 
L 338.201619 23.569736 
L 342.758625 24.371745 
L 347.315631 23.569736 
L 351.872636 23.508066 
L 356.429642 23.014482 
L 360.986648 22.952812 
L 365.543654 22.87056 
L 370.100659 23.69315 
L 374.657665 23.36407 
L 379.214671 23.281818 
L 383.771677 23.220148 
L 388.328682 22.726564 
L 392.885688 22.623805 
L 397.442694 23.220148 
L 401.999699 23.3024 
L 406.556705 23.343562 
L 411.113711 22.93223 
L 415.670717 22.911649 
L 420.227722 22.952812 
L 424.784728 23.178985 
L 429.341734 23.055645 
L 433.89874 22.993901 
L 438.455745 22.664894 
L 443.012751 22.500391 
L 447.569757 22.562061 
L 452.126763 23.117315 
L 456.683768 22.911649 
L 461.240774 22.541553 
L 465.79778 22.891141 
L 470.354786 22.315306 
L 474.911791 22.294725 
L 479.468797 22.10964 
L 484.025803 22.397558 
L 488.582808 22.10964 
L 493.139814 22.397558 
L 497.69682 22.418139 
L 502.253826 22.191892 
L 506.810831 22.10964 
L 511.367837 22.027388 
" clip-path="url(#p27d39aaa4f)" style="fill: none; stroke: #004488; stroke-linecap: square"/>
   </g>
   <g id="patch_3">
    <path d="M 37.667091 108.656767 
L 37.667091 17.90218 
" style="fill: none; stroke: #000000; stroke-width: 0.5; stroke-linejoin: miter; stroke-linecap: square"/>
   </g>
   <g id="patch_4">
    <path d="M 533.925016 108.656767 
L 533.925016 17.90218 
" style="fill: none; stroke: #000000; stroke-width: 0.5; stroke-linejoin: miter; stroke-linecap: square"/>
   </g>
   <g id="patch_5">
    <path d="M 37.667091 108.656767 
L 533.925016 108.656767 
" style="fill: none; stroke: #000000; stroke-width: 0.5; stroke-linejoin: miter; stroke-linecap: square"/>
   </g>
   <g id="patch_6">
    <path d="M 37.667091 17.90218 
L 533.925016 17.90218 
" style="fill: none; stroke: #000000; stroke-width: 0.5; stroke-linejoin: miter; stroke-linecap: square"/>
   </g>
   <g id="patch_7">
    <path d="M 531.831949 18.668843 
Q 526.599895 21.396431 517.485395 21.852927 
" style="fill: none; stroke: #808080; stroke-linecap: round"/>
    <path d="M 519.942417 22.931372 
L 517.485395 21.852927 
L 519.822364 20.534376 
L 519.942417 22.931372 
z
" style="fill: #808080; stroke: #808080; stroke-linecap: round"/>
   </g>
   <g id="text_12">
    <!-- (99,0.934) -->
    <g transform="translate(521.367837 12.027388)scale(0.06 -0.06)">
     <defs>
      <path id="CMR17-28" d="M 1958 -1562 
C 1958 -1556 1958 -1543 1939 -1524 
C 1645 -1223 858 -403 858 1596 
C 858 3595 1632 4408 1946 4729 
C 1946 4735 1958 4748 1958 4767 
C 1958 4787 1939 4800 1914 4800 
C 1843 4800 1299 4325 986 3620 
C 666 2909 576 2218 576 1603 
C 576 1141 621 360 1005 -467 
C 1312 -1133 1837 -1600 1914 -1600 
C 1946 -1600 1958 -1588 1958 -1562 
z
" transform="scale(0.015625)"/>
      <path id="CMR17-2c" d="M 1011 102 
C 1024 44 1024 25 1024 -76 
C 1024 -451 896 -795 627 -1108 
C 595 -1140 595 -1152 595 -1165 
C 595 -1191 621 -1216 646 -1216 
C 685 -1216 1126 -776 1126 -82 
C 1126 128 1101 524 800 524 
C 659 524 538 428 538 262 
C 538 96 659 0 800 0 
C 877 0 960 32 1011 102 
z
" transform="scale(0.015625)"/>
      <path id="CMR17-2e" d="M 1062 262 
C 1062 422 934 524 800 524 
C 672 524 538 422 538 262 
C 538 102 666 0 800 0 
C 928 0 1062 102 1062 262 
z
" transform="scale(0.015625)"/>
      <path id="CMR17-33" d="M 1414 2176 
C 1984 2176 2234 1673 2234 1094 
C 2234 322 1824 25 1453 25 
C 1114 25 563 193 390 691 
C 422 678 454 678 486 678 
C 640 678 755 780 755 947 
C 755 1132 614 1216 486 1216 
C 378 1216 211 1164 211 927 
C 211 335 787 -128 1466 -128 
C 2176 -128 2720 432 2720 1087 
C 2720 1718 2208 2176 1600 2246 
C 2086 2347 2554 2776 2554 3353 
C 2554 3856 2048 4224 1472 4224 
C 890 4224 378 3862 378 3347 
C 378 3123 544 3084 627 3084 
C 762 3084 877 3167 877 3334 
C 877 3500 762 3584 627 3584 
C 602 3584 570 3584 544 3571 
C 730 3999 1235 4076 1459 4076 
C 1683 4076 2106 3966 2106 3347 
C 2106 3167 2080 2851 1862 2574 
C 1670 2329 1453 2316 1242 2297 
C 1210 2297 1062 2284 1037 2284 
C 992 2278 966 2272 966 2227 
C 966 2182 973 2176 1101 2176 
L 1414 2176 
z
" transform="scale(0.015625)"/>
      <path id="CMR17-29" d="M 1683 1596 
C 1683 2057 1638 2839 1254 3665 
C 947 4332 422 4800 346 4800 
C 326 4800 301 4793 301 4761 
C 301 4748 307 4742 314 4729 
C 621 4408 1402 3595 1402 1603 
C 1402 -396 627 -1210 314 -1530 
C 307 -1543 301 -1549 301 -1562 
C 301 -1594 326 -1600 346 -1600 
C 416 -1600 960 -1127 1274 -422 
C 1594 289 1683 981 1683 1596 
z
" transform="scale(0.015625)"/>
     </defs>
     <use xlink:href="#CMR17-28" transform="scale(0.996264)"/>
     <use xlink:href="#CMR17-39" transform="translate(35.280768 0)scale(0.996264)"/>
     <use xlink:href="#CMR17-39" transform="translate(80.971245 0)scale(0.996264)"/>
     <use xlink:href="#CMR17-2c" transform="translate(126.661722 0)scale(0.996264)"/>
     <use xlink:href="#CMR17-30" transform="translate(151.532781 0)scale(0.996264)"/>
     <use xlink:href="#CMR17-2e" transform="translate(197.223258 0)scale(0.996264)"/>
     <use xlink:href="#CMR17-39" transform="translate(222.094316 0)scale(0.996264)"/>
     <use xlink:href="#CMR17-33" transform="translate(267.784793 0)scale(0.996264)"/>
     <use xlink:href="#CMR17-34" transform="translate(313.47527 0)scale(0.996264)"/>
     <use xlink:href="#CMR17-29" transform="translate(359.165747 0)scale(0.996264)"/>
    </g>
   </g>
   <g id="text_13">
    <!-- Train Acc -->
    <g transform="translate(260.435171 11.90218)scale(0.12 -0.12)">
     <defs>
      <path id="CMR17-54" d="M 3981 4332 
L 288 4332 
L 179 2924 
L 294 2924 
C 378 3981 467 4166 1453 4166 
C 1568 4166 1754 4166 1805 4159 
C 1926 4140 1926 4064 1926 3917 
L 1926 465 
C 1926 236 1907 166 1376 166 
L 1197 166 
L 1197 0 
C 1504 6 1824 12 2138 12 
C 2451 12 2771 6 3078 0 
L 3078 166 
L 2899 166 
C 2368 166 2349 236 2349 465 
L 2349 3917 
C 2349 4057 2349 4134 2464 4159 
C 2515 4166 2701 4166 2816 4166 
C 3795 4166 3891 3981 3974 2924 
L 4090 2924 
L 3981 4332 
z
" transform="scale(0.015625)"/>
      <path id="CMR17-72" d="M 960 1517 
C 960 2134 1222 2713 1702 2713 
C 1747 2713 1792 2707 1837 2687 
C 1837 2687 1696 2642 1696 2475 
C 1696 2321 1818 2257 1914 2257 
C 1990 2257 2131 2302 2131 2482 
C 2131 2687 1926 2816 1709 2816 
C 1222 2816 1011 2340 947 2115 
L 941 2115 
L 941 2816 
L 198 2745 
L 198 2578 
C 576 2578 634 2540 634 2231 
L 634 443 
C 634 198 608 166 198 166 
L 198 0 
C 352 12 646 12 813 12 
C 998 12 1325 12 1498 0 
L 1498 166 
C 1037 166 960 166 960 455 
L 960 1517 
z
" transform="scale(0.015625)"/>
      <path id="CMR17-61" d="M 2304 1656 
C 2304 2048 2304 2275 2035 2534 
C 1798 2751 1523 2816 1306 2816 
C 800 2816 435 2408 435 1977 
C 435 1740 627 1728 666 1728 
C 749 1728 896 1779 896 1958 
C 896 2118 774 2188 666 2188 
C 640 2188 608 2182 589 2176 
C 723 2594 1069 2713 1293 2713 
C 1613 2713 1965 2421 1965 1875 
L 1965 1632 
C 1587 1619 1133 1568 774 1373 
C 371 1147 256 822 256 576 
C 256 77 832 -64 1171 -64 
C 1523 -64 1850 135 1990 505 
C 2003 219 2182 -39 2464 -39 
C 2598 -39 2938 51 2938 563 
L 2938 926 
L 2822 926 
L 2822 557 
C 2822 161 2650 109 2566 109 
C 2304 109 2304 446 2304 732 
L 2304 1656 
z
M 1965 887 
C 1965 323 1568 38 1216 38 
C 896 38 646 278 646 576 
C 646 771 730 1114 1101 1322 
C 1408 1497 1760 1523 1965 1536 
L 1965 887 
z
" transform="scale(0.015625)"/>
      <path id="CMR17-69" d="M 992 3961 
C 992 4102 877 4224 730 4224 
C 589 4224 467 4108 467 3961 
C 467 3820 582 3699 730 3699 
C 870 3699 992 3814 992 3961 
z
M 243 2745 
L 243 2579 
C 602 2579 653 2540 653 2231 
L 653 443 
C 653 198 627 166 218 166 
L 218 0 
C 371 12 646 12 806 12 
C 960 12 1222 12 1370 0 
L 1370 166 
C 992 166 979 205 979 436 
L 979 2816 
L 243 2745 
z
" transform="scale(0.015625)"/>
      <path id="CMR17-6e" d="M 2656 1954 
C 2656 2282 2592 2816 1837 2816 
C 1331 2816 1069 2424 973 2166 
L 966 2166 
L 966 2816 
L 211 2745 
L 211 2578 
C 589 2578 646 2540 646 2231 
L 646 443 
C 646 198 621 166 211 166 
L 211 0 
C 365 12 646 12 813 12 
C 979 12 1267 12 1421 0 
L 1421 166 
C 1011 166 986 192 986 443 
L 986 1678 
C 986 2269 1344 2713 1792 2713 
C 2266 2713 2317 2289 2317 1980 
L 2317 443 
C 2317 198 2291 166 1882 166 
L 1882 0 
C 2035 12 2317 12 2483 12 
C 2650 12 2938 12 3091 0 
L 3091 166 
C 2682 166 2656 192 2656 443 
L 2656 1954 
z
" transform="scale(0.015625)"/>
     </defs>
     <use xlink:href="#CMR17-54" transform="scale(0.996264)"/>
     <use xlink:href="#CMR17-72" transform="translate(58.702625 0)scale(0.996264)"/>
     <use xlink:href="#CMR17-61" transform="translate(93.983393 0)scale(0.996264)"/>
     <use xlink:href="#CMR17-69" transform="translate(139.67387 0)scale(0.996264)"/>
     <use xlink:href="#CMR17-6e" transform="translate(164.544929 0)scale(0.996264)"/>
     <use xlink:href="#CMR17-41" transform="translate(245.516265 0)scale(0.996264)"/>
     <use xlink:href="#CMR17-63" transform="translate(314.588694 0)scale(0.996264)"/>
     <use xlink:href="#CMR17-63" transform="translate(355.074355 0)scale(0.996264)"/>
    </g>
   </g>
  </g>
  <g id="axes_2">
   <g id="patch_8">
    <path d="M 37.667091 244.788647 
L 533.925016 244.788647 
L 533.925016 154.03406 
L 37.667091 154.03406 
z
" style="fill: #ffffff"/>
   </g>
   <g id="PathCollection_2">
    <g clip-path="url(#pa388237c22)">
     <use xlink:href="#m3636cab22f" x="160.478396" y="158.159268" style="fill: #ff0000; stroke: #ff0000"/>
    </g>
   </g>
   <g id="matplotlib.axis_3">
    <g id="xtick_22">
     <g id="line2d_74">
      <g>
       <use xlink:href="#m54f4f20b97" x="60.224269" y="244.788647" style="stroke: #000000; stroke-width: 0.5"/>
      </g>
     </g>
     <g id="line2d_75">
      <g>
       <use xlink:href="#m6d51eefed0" x="60.224269" y="154.03406" style="stroke: #000000; stroke-width: 0.5"/>
      </g>
     </g>
     <g id="text_14">
      <!-- $\mathdefault{0}$ -->
      <g transform="translate(57.733602 255.207145)scale(0.1 -0.1)">
       <use xlink:href="#CMR17-30" transform="scale(0.996264)"/>
      </g>
     </g>
    </g>
    <g id="xtick_23">
     <g id="line2d_76">
      <g>
       <use xlink:href="#m54f4f20b97" x="151.364384" y="244.788647" style="stroke: #000000; stroke-width: 0.5"/>
      </g>
     </g>
     <g id="line2d_77">
      <g>
       <use xlink:href="#m6d51eefed0" x="151.364384" y="154.03406" style="stroke: #000000; stroke-width: 0.5"/>
      </g>
     </g>
     <g id="text_15">
      <!-- $\mathdefault{20}$ -->
      <g transform="translate(146.383049 255.207145)scale(0.1 -0.1)">
       <use xlink:href="#CMR17-32" transform="scale(0.996264)"/>
       <use xlink:href="#CMR17-30" transform="translate(45.690477 0)scale(0.996264)"/>
      </g>
     </g>
    </g>
    <g id="xtick_24">
     <g id="line2d_78">
      <g>
       <use xlink:href="#m54f4f20b97" x="242.504499" y="244.788647" style="stroke: #000000; stroke-width: 0.5"/>
      </g>
     </g>
     <g id="line2d_79">
      <g>
       <use xlink:href="#m6d51eefed0" x="242.504499" y="154.03406" style="stroke: #000000; stroke-width: 0.5"/>
      </g>
     </g>
     <g id="text_16">
      <!-- $\mathdefault{40}$ -->
      <g transform="translate(237.523163 255.207145)scale(0.1 -0.1)">
       <use xlink:href="#CMR17-34" transform="scale(0.996264)"/>
       <use xlink:href="#CMR17-30" transform="translate(45.690477 0)scale(0.996264)"/>
      </g>
     </g>
    </g>
    <g id="xtick_25">
     <g id="line2d_80">
      <g>
       <use xlink:href="#m54f4f20b97" x="333.644613" y="244.788647" style="stroke: #000000; stroke-width: 0.5"/>
      </g>
     </g>
     <g id="line2d_81">
      <g>
       <use xlink:href="#m6d51eefed0" x="333.644613" y="154.03406" style="stroke: #000000; stroke-width: 0.5"/>
      </g>
     </g>
     <g id="text_17">
      <!-- $\mathdefault{60}$ -->
      <g transform="translate(328.663278 255.207145)scale(0.1 -0.1)">
       <use xlink:href="#CMR17-36" transform="scale(0.996264)"/>
       <use xlink:href="#CMR17-30" transform="translate(45.690477 0)scale(0.996264)"/>
      </g>
     </g>
    </g>
    <g id="xtick_26">
     <g id="line2d_82">
      <g>
       <use xlink:href="#m54f4f20b97" x="424.784728" y="244.788647" style="stroke: #000000; stroke-width: 0.5"/>
      </g>
     </g>
     <g id="line2d_83">
      <g>
       <use xlink:href="#m6d51eefed0" x="424.784728" y="154.03406" style="stroke: #000000; stroke-width: 0.5"/>
      </g>
     </g>
     <g id="text_18">
      <!-- $\mathdefault{80}$ -->
      <g transform="translate(419.803393 255.207145)scale(0.1 -0.1)">
       <use xlink:href="#CMR17-38" transform="scale(0.996264)"/>
       <use xlink:href="#CMR17-30" transform="translate(45.690477 0)scale(0.996264)"/>
      </g>
     </g>
    </g>
    <g id="xtick_27">
     <g id="line2d_84">
      <g>
       <use xlink:href="#m54f4f20b97" x="515.924843" y="244.788647" style="stroke: #000000; stroke-width: 0.5"/>
      </g>
     </g>
     <g id="line2d_85">
      <g>
       <use xlink:href="#m6d51eefed0" x="515.924843" y="154.03406" style="stroke: #000000; stroke-width: 0.5"/>
      </g>
     </g>
     <g id="text_19">
      <!-- $\mathdefault{100}$ -->
      <g transform="translate(508.45284 255.207145)scale(0.1 -0.1)">
       <use xlink:href="#CMR17-31" transform="scale(0.996264)"/>
       <use xlink:href="#CMR17-30" transform="translate(45.690477 0)scale(0.996264)"/>
       <use xlink:href="#CMR17-30" transform="translate(91.380954 0)scale(0.996264)"/>
      </g>
     </g>
    </g>
    <g id="xtick_28">
     <g id="line2d_86">
      <g>
       <use xlink:href="#mb5f1c842db" x="83.009298" y="244.788647" style="stroke: #000000; stroke-width: 0.5"/>
      </g>
     </g>
     <g id="line2d_87">
      <g>
       <use xlink:href="#mf52843ae58" x="83.009298" y="154.03406" style="stroke: #000000; stroke-width: 0.5"/>
      </g>
     </g>
    </g>
    <g id="xtick_29">
     <g id="line2d_88">
      <g>
       <use xlink:href="#mb5f1c842db" x="105.794327" y="244.788647" style="stroke: #000000; stroke-width: 0.5"/>
      </g>
     </g>
     <g id="line2d_89">
      <g>
       <use xlink:href="#mf52843ae58" x="105.794327" y="154.03406" style="stroke: #000000; stroke-width: 0.5"/>
      </g>
     </g>
    </g>
    <g id="xtick_30">
     <g id="line2d_90">
      <g>
       <use xlink:href="#mb5f1c842db" x="128.579355" y="244.788647" style="stroke: #000000; stroke-width: 0.5"/>
      </g>
     </g>
     <g id="line2d_91">
      <g>
       <use xlink:href="#mf52843ae58" x="128.579355" y="154.03406" style="stroke: #000000; stroke-width: 0.5"/>
      </g>
     </g>
    </g>
    <g id="xtick_31">
     <g id="line2d_92">
      <g>
       <use xlink:href="#mb5f1c842db" x="174.149413" y="244.788647" style="stroke: #000000; stroke-width: 0.5"/>
      </g>
     </g>
     <g id="line2d_93">
      <g>
       <use xlink:href="#mf52843ae58" x="174.149413" y="154.03406" style="stroke: #000000; stroke-width: 0.5"/>
      </g>
     </g>
    </g>
    <g id="xtick_32">
     <g id="line2d_94">
      <g>
       <use xlink:href="#mb5f1c842db" x="196.934441" y="244.788647" style="stroke: #000000; stroke-width: 0.5"/>
      </g>
     </g>
     <g id="line2d_95">
      <g>
       <use xlink:href="#mf52843ae58" x="196.934441" y="154.03406" style="stroke: #000000; stroke-width: 0.5"/>
      </g>
     </g>
    </g>
    <g id="xtick_33">
     <g id="line2d_96">
      <g>
       <use xlink:href="#mb5f1c842db" x="219.71947" y="244.788647" style="stroke: #000000; stroke-width: 0.5"/>
      </g>
     </g>
     <g id="line2d_97">
      <g>
       <use xlink:href="#mf52843ae58" x="219.71947" y="154.03406" style="stroke: #000000; stroke-width: 0.5"/>
      </g>
     </g>
    </g>
    <g id="xtick_34">
     <g id="line2d_98">
      <g>
       <use xlink:href="#mb5f1c842db" x="265.289527" y="244.788647" style="stroke: #000000; stroke-width: 0.5"/>
      </g>
     </g>
     <g id="line2d_99">
      <g>
       <use xlink:href="#mf52843ae58" x="265.289527" y="154.03406" style="stroke: #000000; stroke-width: 0.5"/>
      </g>
     </g>
    </g>
    <g id="xtick_35">
     <g id="line2d_100">
      <g>
       <use xlink:href="#mb5f1c842db" x="288.074556" y="244.788647" style="stroke: #000000; stroke-width: 0.5"/>
      </g>
     </g>
     <g id="line2d_101">
      <g>
       <use xlink:href="#mf52843ae58" x="288.074556" y="154.03406" style="stroke: #000000; stroke-width: 0.5"/>
      </g>
     </g>
    </g>
    <g id="xtick_36">
     <g id="line2d_102">
      <g>
       <use xlink:href="#mb5f1c842db" x="310.859585" y="244.788647" style="stroke: #000000; stroke-width: 0.5"/>
      </g>
     </g>
     <g id="line2d_103">
      <g>
       <use xlink:href="#mf52843ae58" x="310.859585" y="154.03406" style="stroke: #000000; stroke-width: 0.5"/>
      </g>
     </g>
    </g>
    <g id="xtick_37">
     <g id="line2d_104">
      <g>
       <use xlink:href="#mb5f1c842db" x="356.429642" y="244.788647" style="stroke: #000000; stroke-width: 0.5"/>
      </g>
     </g>
     <g id="line2d_105">
      <g>
       <use xlink:href="#mf52843ae58" x="356.429642" y="154.03406" style="stroke: #000000; stroke-width: 0.5"/>
      </g>
     </g>
    </g>
    <g id="xtick_38">
     <g id="line2d_106">
      <g>
       <use xlink:href="#mb5f1c842db" x="379.214671" y="244.788647" style="stroke: #000000; stroke-width: 0.5"/>
      </g>
     </g>
     <g id="line2d_107">
      <g>
       <use xlink:href="#mf52843ae58" x="379.214671" y="154.03406" style="stroke: #000000; stroke-width: 0.5"/>
      </g>
     </g>
    </g>
    <g id="xtick_39">
     <g id="line2d_108">
      <g>
       <use xlink:href="#mb5f1c842db" x="401.999699" y="244.788647" style="stroke: #000000; stroke-width: 0.5"/>
      </g>
     </g>
     <g id="line2d_109">
      <g>
       <use xlink:href="#mf52843ae58" x="401.999699" y="154.03406" style="stroke: #000000; stroke-width: 0.5"/>
      </g>
     </g>
    </g>
    <g id="xtick_40">
     <g id="line2d_110">
      <g>
       <use xlink:href="#mb5f1c842db" x="447.569757" y="244.788647" style="stroke: #000000; stroke-width: 0.5"/>
      </g>
     </g>
     <g id="line2d_111">
      <g>
       <use xlink:href="#mf52843ae58" x="447.569757" y="154.03406" style="stroke: #000000; stroke-width: 0.5"/>
      </g>
     </g>
    </g>
    <g id="xtick_41">
     <g id="line2d_112">
      <g>
       <use xlink:href="#mb5f1c842db" x="470.354786" y="244.788647" style="stroke: #000000; stroke-width: 0.5"/>
      </g>
     </g>
     <g id="line2d_113">
      <g>
       <use xlink:href="#mf52843ae58" x="470.354786" y="154.03406" style="stroke: #000000; stroke-width: 0.5"/>
      </g>
     </g>
    </g>
    <g id="xtick_42">
     <g id="line2d_114">
      <g>
       <use xlink:href="#mb5f1c842db" x="493.139814" y="244.788647" style="stroke: #000000; stroke-width: 0.5"/>
      </g>
     </g>
     <g id="line2d_115">
      <g>
       <use xlink:href="#mf52843ae58" x="493.139814" y="154.03406" style="stroke: #000000; stroke-width: 0.5"/>
      </g>
     </g>
    </g>
    <g id="text_20">
     <!-- Epoch -->
     <g transform="translate(272.028202 268.062822)scale(0.1 -0.1)">
      <use xlink:href="#CMR17-45" transform="scale(0.996264)"/>
      <use xlink:href="#CMR17-70" transform="translate(62.586301 0)scale(0.996264)"/>
      <use xlink:href="#CMR17-6f" transform="translate(116.084109 0)scale(0.996264)"/>
      <use xlink:href="#CMR17-63" transform="translate(164.377025 0)scale(0.996264)"/>
      <use xlink:href="#CMR17-68" transform="translate(202.260231 0)scale(0.996264)"/>
     </g>
    </g>
   </g>
   <g id="matplotlib.axis_4">
    <g id="ytick_16">
     <g id="line2d_116">
      <g>
       <use xlink:href="#m93e6115f62" x="37.667091" y="200.77134" style="stroke: #000000; stroke-width: 0.5"/>
      </g>
     </g>
     <g id="line2d_117">
      <g>
       <use xlink:href="#m8e877696db" x="533.925016" y="200.77134" style="stroke: #000000; stroke-width: 0.5"/>
      </g>
     </g>
     <g id="text_21">
      <!-- $\mathdefault{0.92}$ -->
      <g transform="translate(16.455677 204.230589)scale(0.1 -0.1)">
       <use xlink:href="#CMR17-30" transform="scale(0.996264)"/>
       <use xlink:href="#CMMI12-3a" transform="translate(45.690477 0)scale(0.996264)"/>
       <use xlink:href="#CMR17-39" transform="translate(72.787654 0)scale(0.996264)"/>
       <use xlink:href="#CMR17-32" transform="translate(118.478131 0)scale(0.996264)"/>
      </g>
     </g>
    </g>
    <g id="ytick_17">
     <g id="line2d_118">
      <g>
       <use xlink:href="#m93e6115f62" x="37.667091" y="155.439478" style="stroke: #000000; stroke-width: 0.5"/>
      </g>
     </g>
     <g id="line2d_119">
      <g>
       <use xlink:href="#m8e877696db" x="533.925016" y="155.439478" style="stroke: #000000; stroke-width: 0.5"/>
      </g>
     </g>
     <g id="text_22">
      <!-- $\mathdefault{0.93}$ -->
      <g transform="translate(16.455677 158.898727)scale(0.1 -0.1)">
       <use xlink:href="#CMR17-30" transform="scale(0.996264)"/>
       <use xlink:href="#CMMI12-3a" transform="translate(45.690477 0)scale(0.996264)"/>
       <use xlink:href="#CMR17-39" transform="translate(72.787654 0)scale(0.996264)"/>
       <use xlink:href="#CMR17-33" transform="translate(118.478131 0)scale(0.996264)"/>
      </g>
     </g>
    </g>
    <g id="ytick_18">
     <g id="line2d_120">
      <g>
       <use xlink:href="#m68305e80a5" x="37.667091" y="237.03683" style="stroke: #000000; stroke-width: 0.5"/>
      </g>
     </g>
     <g id="line2d_121">
      <g>
       <use xlink:href="#m154331ae7d" x="533.925016" y="237.03683" style="stroke: #000000; stroke-width: 0.5"/>
      </g>
     </g>
    </g>
    <g id="ytick_19">
     <g id="line2d_122">
      <g>
       <use xlink:href="#m68305e80a5" x="37.667091" y="227.970457" style="stroke: #000000; stroke-width: 0.5"/>
      </g>
     </g>
     <g id="line2d_123">
      <g>
       <use xlink:href="#m154331ae7d" x="533.925016" y="227.970457" style="stroke: #000000; stroke-width: 0.5"/>
      </g>
     </g>
    </g>
    <g id="ytick_20">
     <g id="line2d_124">
      <g>
       <use xlink:href="#m68305e80a5" x="37.667091" y="218.904085" style="stroke: #000000; stroke-width: 0.5"/>
      </g>
     </g>
     <g id="line2d_125">
      <g>
       <use xlink:href="#m154331ae7d" x="533.925016" y="218.904085" style="stroke: #000000; stroke-width: 0.5"/>
      </g>
     </g>
    </g>
    <g id="ytick_21">
     <g id="line2d_126">
      <g>
       <use xlink:href="#m68305e80a5" x="37.667091" y="209.837713" style="stroke: #000000; stroke-width: 0.5"/>
      </g>
     </g>
     <g id="line2d_127">
      <g>
       <use xlink:href="#m154331ae7d" x="533.925016" y="209.837713" style="stroke: #000000; stroke-width: 0.5"/>
      </g>
     </g>
    </g>
    <g id="ytick_22">
     <g id="line2d_128">
      <g>
       <use xlink:href="#m68305e80a5" x="37.667091" y="191.704968" style="stroke: #000000; stroke-width: 0.5"/>
      </g>
     </g>
     <g id="line2d_129">
      <g>
       <use xlink:href="#m154331ae7d" x="533.925016" y="191.704968" style="stroke: #000000; stroke-width: 0.5"/>
      </g>
     </g>
    </g>
    <g id="ytick_23">
     <g id="line2d_130">
      <g>
       <use xlink:href="#m68305e80a5" x="37.667091" y="182.638595" style="stroke: #000000; stroke-width: 0.5"/>
      </g>
     </g>
     <g id="line2d_131">
      <g>
       <use xlink:href="#m154331ae7d" x="533.925016" y="182.638595" style="stroke: #000000; stroke-width: 0.5"/>
      </g>
     </g>
    </g>
    <g id="ytick_24">
     <g id="line2d_132">
      <g>
       <use xlink:href="#m68305e80a5" x="37.667091" y="173.572223" style="stroke: #000000; stroke-width: 0.5"/>
      </g>
     </g>
     <g id="line2d_133">
      <g>
       <use xlink:href="#m154331ae7d" x="533.925016" y="173.572223" style="stroke: #000000; stroke-width: 0.5"/>
      </g>
     </g>
    </g>
    <g id="ytick_25">
     <g id="line2d_134">
      <g>
       <use xlink:href="#m68305e80a5" x="37.667091" y="164.505851" style="stroke: #000000; stroke-width: 0.5"/>
      </g>
     </g>
     <g id="line2d_135">
      <g>
       <use xlink:href="#m154331ae7d" x="533.925016" y="164.505851" style="stroke: #000000; stroke-width: 0.5"/>
      </g>
     </g>
    </g>
    <g id="text_23">
     <!-- Acc -->
     <g transform="translate(10.518498 207.575189)rotate(-90)scale(0.1 -0.1)">
      <use xlink:href="#CMR17-41" transform="scale(0.996264)"/>
      <use xlink:href="#CMR17-63" transform="translate(69.07243 0)scale(0.996264)"/>
      <use xlink:href="#CMR17-63" transform="translate(109.55809 0)scale(0.996264)"/>
     </g>
    </g>
   </g>
   <g id="line2d_136">
    <path d="M 60.224269 240.663438 
L 64.781275 225.703873 
L 69.338281 200.771265 
L 73.895287 207.571091 
L 78.452292 191.705009 
L 83.009298 194.424832 
L 87.566304 187.625005 
L 92.123309 182.185359 
L 96.680315 184.905182 
L 101.237321 176.29205 
L 105.794327 187.171881 
L 110.351332 181.278572 
L 114.908338 184.905182 
L 119.465344 179.012143 
L 124.02235 179.91866 
L 128.579355 175.385532 
L 133.136361 175.385532 
L 137.693367 181.731965 
L 142.250373 179.465266 
L 146.807378 164.052578 
L 151.364384 172.66571 
L 155.92139 185.358576 
L 160.478396 158.159268 
L 165.035401 166.319007 
L 169.592407 170.399011 
L 174.149413 165.412489 
L 178.706418 168.585706 
L 183.263424 171.305528 
L 187.82043 169.492223 
L 192.377436 169.945617 
L 196.934441 161.332755 
L 201.491447 168.585706 
L 206.048453 160.879361 
L 210.605459 164.505972 
L 215.162464 162.692666 
L 219.71947 160.879361 
L 224.276476 171.305528 
L 228.833482 171.305528 
L 233.390487 171.758922 
L 237.947493 164.959095 
L 242.504499 173.572227 
L 247.061504 167.225794 
L 251.61851 167.679188 
L 256.175516 160.879361 
L 260.732522 170.399011 
L 265.289527 170.399011 
L 269.846533 167.225794 
L 274.403539 165.412489 
L 278.960545 167.225794 
L 283.51755 165.412489 
L 288.074556 171.758922 
L 292.631562 161.332755 
L 297.188568 163.14579 
L 301.745573 177.651961 
L 306.302579 170.852405 
L 310.859585 164.052578 
L 315.416591 159.51945 
L 319.973596 164.505972 
L 324.530602 164.052578 
L 329.087608 163.599184 
L 333.644613 165.412489 
L 338.201619 168.132312 
L 342.758625 162.692666 
L 347.315631 169.945617 
L 351.872636 165.865883 
L 356.429642 170.399011 
L 360.986648 169.492223 
L 365.543654 165.865883 
L 370.100659 166.7724 
L 374.657665 169.492223 
L 379.214671 167.679188 
L 383.771677 170.399011 
L 388.328682 170.399011 
L 392.885688 170.399011 
L 397.442694 169.492223 
L 401.999699 179.012143 
L 406.556705 171.305528 
L 411.113711 164.959095 
L 415.670717 170.852405 
L 420.227722 166.7724 
L 424.784728 164.505972 
L 429.341734 173.572227 
L 433.89874 172.212316 
L 438.455745 168.132312 
L 443.012751 164.052578 
L 447.569757 176.745444 
L 452.126763 176.29205 
L 456.683768 169.039099 
L 461.240774 166.319007 
L 465.79778 171.758922 
L 470.354786 171.758922 
L 474.911791 175.385532 
L 479.468797 167.679188 
L 484.025803 179.012143 
L 488.582808 171.305528 
L 493.139814 166.7724 
L 497.69682 164.959095 
L 502.253826 169.492223 
L 506.810831 158.159268 
L 511.367837 169.492223 
" clip-path="url(#pa388237c22)" style="fill: none; stroke: #004488; stroke-linecap: square"/>
   </g>
   <g id="patch_9">
    <path d="M 37.667091 244.788647 
L 37.667091 154.03406 
" style="fill: none; stroke: #000000; stroke-width: 0.5; stroke-linejoin: miter; stroke-linecap: square"/>
   </g>
   <g id="patch_10">
    <path d="M 533.925016 244.788647 
L 533.925016 154.03406 
" style="fill: none; stroke: #000000; stroke-width: 0.5; stroke-linejoin: miter; stroke-linecap: square"/>
   </g>
   <g id="patch_11">
    <path d="M 37.667091 244.788647 
L 533.925016 244.788647 
" style="fill: none; stroke: #000000; stroke-width: 0.5; stroke-linejoin: miter; stroke-linecap: square"/>
   </g>
   <g id="patch_12">
    <path d="M 37.667091 154.03406 
L 533.925016 154.03406 
" style="fill: none; stroke: #000000; stroke-width: 0.5; stroke-linejoin: miter; stroke-linecap: square"/>
   </g>
   <g id="patch_13">
    <path d="M 180.942507 154.800723 
Q 175.710454 157.528311 166.595953 157.984807 
" style="fill: none; stroke: #808080; stroke-linecap: round"/>
    <path d="M 169.052975 159.063252 
L 166.595953 157.984807 
L 168.932923 156.666257 
L 169.052975 159.063252 
z
" style="fill: #808080; stroke: #808080; stroke-linecap: round"/>
   </g>
   <g id="text_24">
    <!-- (22,0.929) -->
    <g transform="translate(170.478396 148.159268)scale(0.06 -0.06)">
     <use xlink:href="#CMR17-28" transform="scale(0.996264)"/>
     <use xlink:href="#CMR17-32" transform="translate(35.280768 0)scale(0.996264)"/>
     <use xlink:href="#CMR17-32" transform="translate(80.971245 0)scale(0.996264)"/>
     <use xlink:href="#CMR17-2c" transform="translate(126.661722 0)scale(0.996264)"/>
     <use xlink:href="#CMR17-30" transform="translate(151.532781 0)scale(0.996264)"/>
     <use xlink:href="#CMR17-2e" transform="translate(197.223258 0)scale(0.996264)"/>
     <use xlink:href="#CMR17-39" transform="translate(222.094316 0)scale(0.996264)"/>
     <use xlink:href="#CMR17-32" transform="translate(267.784793 0)scale(0.996264)"/>
     <use xlink:href="#CMR17-39" transform="translate(313.47527 0)scale(0.996264)"/>
     <use xlink:href="#CMR17-29" transform="translate(359.165747 0)scale(0.996264)"/>
    </g>
   </g>
   <g id="text_25">
    <!-- Test Acc -->
    <g transform="translate(263.329149 148.03406)scale(0.12 -0.12)">
     <defs>
      <path id="CMR17-65" d="M 2438 1503 
C 2464 1529 2464 1542 2464 1606 
C 2464 2251 2118 2816 1389 2816 
C 710 2816 173 2175 173 1394 
C 173 554 781 -64 1459 -64 
C 2176 -64 2458 619 2458 755 
C 2458 800 2419 800 2406 800 
C 2362 800 2355 787 2330 709 
C 2189 270 1837 51 1504 51 
C 1229 51 954 206 781 490 
C 582 819 582 1200 582 1503 
L 2438 1503 
z
M 589 1600 
C 634 2511 1126 2713 1382 2713 
C 1818 2713 2112 2308 2118 1600 
L 589 1600 
z
" transform="scale(0.015625)"/>
      <path id="CMR17-73" d="M 1978 2688 
C 1978 2803 1971 2809 1933 2809 
C 1907 2809 1901 2803 1824 2707 
C 1805 2681 1747 2617 1728 2592 
C 1523 2809 1235 2816 1126 2816 
C 416 2816 160 2444 160 2073 
C 160 1497 813 1363 998 1324 
C 1402 1241 1542 1216 1677 1100 
C 1760 1024 1901 883 1901 652 
C 1901 384 1747 38 1158 38 
C 602 38 403 460 288 1024 
C 269 1113 269 1120 218 1120 
C 166 1120 160 1113 160 985 
L 160 64 
C 160 -52 166 -58 205 -58 
C 237 -58 243 -52 275 0 
C 314 57 410 211 448 275 
C 576 102 800 -64 1158 -64 
C 1792 -64 2131 281 2131 780 
C 2131 1107 1958 1280 1875 1356 
C 1683 1555 1459 1600 1190 1651 
C 838 1728 390 1817 390 2208 
C 390 2374 480 2726 1126 2726 
C 1811 2726 1850 2086 1862 1881 
C 1869 1849 1901 1843 1920 1843 
C 1978 1843 1978 1862 1978 1971 
L 1978 2688 
z
" transform="scale(0.015625)"/>
      <path id="CMR17-74" d="M 966 2585 
L 1862 2585 
L 1862 2752 
L 966 2752 
L 966 3968 
L 851 3968 
C 838 3292 614 2700 70 2687 
L 70 2585 
L 627 2585 
L 627 778 
C 627 655 627 -64 1370 -64 
C 1747 -64 1965 308 1965 784 
L 1965 1151 
L 1850 1151 
L 1850 790 
C 1850 347 1677 51 1408 51 
C 1222 51 966 179 966 765 
L 966 2585 
z
" transform="scale(0.015625)"/>
     </defs>
     <use xlink:href="#CMR17-54" transform="scale(0.996264)"/>
     <use xlink:href="#CMR17-65" transform="translate(58.702625 0)scale(0.996264)"/>
     <use xlink:href="#CMR17-73" transform="translate(99.188286 0)scale(0.996264)"/>
     <use xlink:href="#CMR17-74" transform="translate(134.989623 0)scale(0.996264)"/>
     <use xlink:href="#CMR17-41" transform="translate(200.346357 0)scale(0.996264)"/>
     <use xlink:href="#CMR17-63" transform="translate(269.418787 0)scale(0.996264)"/>
     <use xlink:href="#CMR17-63" transform="translate(309.904448 0)scale(0.996264)"/>
    </g>
   </g>
  </g>
 </g>
 <defs>
  <clipPath id="p27d39aaa4f">
   <rect x="37.667091" y="17.90218" width="496.257925" height="90.754587"/>
  </clipPath>
  <clipPath id="pa388237c22">
   <rect x="37.667091" y="154.03406" width="496.257925" height="90.754587"/>
  </clipPath>
 </defs>
</svg>
