<?xml version="1.0" encoding="utf-8" standalone="no"?>
<!DOCTYPE svg PUBLIC "-//W3C//DTD SVG 1.1//EN"
  "http://www.w3.org/Graphics/SVG/1.1/DTD/svg11.dtd">
<!-- Created with matplotlib (https://matplotlib.org/) -->
<svg height="504.625304pt" version="1.1" viewBox="0 0 714.742709 504.625304" width="714.742709pt" xmlns="http://www.w3.org/2000/svg" xmlns:xlink="http://www.w3.org/1999/xlink">
 <metadata>
  <rdf:RDF xmlns:cc="http://creativecommons.org/ns#" xmlns:dc="http://purl.org/dc/elements/1.1/" xmlns:rdf="http://www.w3.org/1999/02/22-rdf-syntax-ns#">
   <cc:Work>
    <dc:type rdf:resource="http://purl.org/dc/dcmitype/StillImage"/>
    <dc:date>2020-12-11T20:32:14.919069</dc:date>
    <dc:format>image/svg+xml</dc:format>
    <dc:creator>
     <cc:Agent>
      <dc:title>Matplotlib v3.3.1, https://matplotlib.org/</dc:title>
     </cc:Agent>
    </dc:creator>
   </cc:Work>
  </rdf:RDF>
 </metadata>
 <defs>
  <style type="text/css">*{stroke-linecap:butt;stroke-linejoin:round;}</style>
 </defs>
 <g id="figure_1">
  <g id="patch_1">
   <path d="M 0 504.625304 
L 714.742709 504.625304 
L 714.742709 0 
L 0 0 
z
" style="fill:#ffffff;"/>
  </g>
  <g id="axes_1">
   <g id="patch_2">
    <path d="M 41.542709 466.956997 
L 711.142709 466.956997 
L 711.142709 23.436997 
L 41.542709 23.436997 
z
" style="fill:#ffffff;"/>
   </g>
   <g id="matplotlib.axis_1">
    <g id="xtick_1">
     <g id="line2d_1">
      <path clip-path="url(#pe0884d69de)" d="M 71.979073 466.956997 
L 71.979073 23.436997 
" style="fill:none;stroke:#b0b0b0;stroke-dasharray:3.2,0.8,0.5,0.8;stroke-dashoffset:0;stroke-width:0.5;"/>
     </g>
     <g id="line2d_2">
      <defs>
       <path d="M 0 0 
L 0 -3 
" id="m4bcbd65f98" style="stroke:#000000;stroke-width:0.5;"/>
      </defs>
      <g>
       <use style="stroke:#000000;stroke-width:0.5;" x="71.979073" xlink:href="#m4bcbd65f98" y="466.956997"/>
      </g>
     </g>
     <g id="line2d_3">
      <defs>
       <path d="M 0 0 
L 0 3 
" id="m790ecbf9bb" style="stroke:#000000;stroke-width:0.5;"/>
      </defs>
      <g>
       <use style="stroke:#000000;stroke-width:0.5;" x="71.979073" xlink:href="#m790ecbf9bb" y="23.436997"/>
      </g>
     </g>
     <g id="text_1">
      <!-- $\mathdefault{0}$ -->
      <g transform="translate(69.488405 477.375495)scale(0.1 -0.1)">
       <defs>
        <path d="M 42 31.84375 
C 42 37.96875 41.90625 48.421875 37.703125 56.453125 
C 34 63.484375 28.09375 66 22.90625 66 
C 18.09375 66 12 63.78125 8.203125 56.5625 
C 4.203125 49.015625 3.796875 39.671875 3.796875 31.84375 
C 3.796875 26.109375 3.90625 17.375 7 9.734375 
C 11.296875 -0.609375 19 -2 22.90625 -2 
C 27.5 -2 34.5 -0.109375 38.59375 9.4375 
C 41.59375 16.375 42 24.5 42 31.84375 
z
M 22.90625 -0.40625 
C 16.5 -0.40625 12.703125 5.125 11.296875 12.75 
C 10.203125 18.6875 10.203125 27.328125 10.203125 32.953125 
C 10.203125 40.6875 10.203125 47.109375 11.5 53.234375 
C 13.40625 61.78125 19 64.390625 22.90625 64.390625 
C 27 64.390625 32.296875 61.671875 34.203125 53.4375 
C 35.5 47.71875 35.59375 40.984375 35.59375 32.953125 
C 35.59375 26.421875 35.59375 18.375 34.40625 12.453125 
C 32.296875 1.5 26.40625 -0.40625 22.90625 -0.40625 
z
" id="CMR17-48"/>
       </defs>
       <use transform="scale(0.996264)" xlink:href="#CMR17-48"/>
      </g>
     </g>
    </g>
    <g id="xtick_2">
     <g id="line2d_4">
      <path clip-path="url(#pe0884d69de)" d="M 202.629672 466.956997 
L 202.629672 23.436997 
" style="fill:none;stroke:#b0b0b0;stroke-dasharray:3.2,0.8,0.5,0.8;stroke-dashoffset:0;stroke-width:0.5;"/>
     </g>
     <g id="line2d_5">
      <g>
       <use style="stroke:#000000;stroke-width:0.5;" x="202.629672" xlink:href="#m4bcbd65f98" y="466.956997"/>
      </g>
     </g>
     <g id="line2d_6">
      <g>
       <use style="stroke:#000000;stroke-width:0.5;" x="202.629672" xlink:href="#m790ecbf9bb" y="23.436997"/>
      </g>
     </g>
     <g id="text_2">
      <!-- $\mathdefault{10000}$ -->
      <g transform="translate(190.176334 477.375495)scale(0.1 -0.1)">
       <defs>
        <path d="M 26.59375 63.796875 
C 26.59375 65.890625 26.5 66 25.09375 66 
C 21.203125 61.359375 15.296875 59.890625 9.703125 59.6875 
C 9.40625 59.6875 8.90625 59.6875 8.796875 59.5 
C 8.703125 59.296875 8.703125 59.09375 8.703125 57 
C 11.796875 57 17 57.59375 21 59.984375 
L 21 7.296875 
C 21 3.796875 20.796875 2.59375 12.203125 2.59375 
L 9.203125 2.59375 
L 9.203125 0 
C 14 0.09375 19 0.1875 23.796875 0.1875 
C 28.59375 0.1875 33.59375 0.09375 38.40625 0 
L 38.40625 2.59375 
L 35.40625 2.59375 
C 26.796875 2.59375 26.59375 3.6875 26.59375 7.296875 
z
" id="CMR17-49"/>
       </defs>
       <use transform="scale(0.996264)" xlink:href="#CMR17-49"/>
       <use transform="translate(45.690477 0)scale(0.996264)" xlink:href="#CMR17-48"/>
       <use transform="translate(91.380954 0)scale(0.996264)" xlink:href="#CMR17-48"/>
       <use transform="translate(137.071431 0)scale(0.996264)" xlink:href="#CMR17-48"/>
       <use transform="translate(182.761908 0)scale(0.996264)" xlink:href="#CMR17-48"/>
      </g>
     </g>
    </g>
    <g id="xtick_3">
     <g id="line2d_7">
      <path clip-path="url(#pe0884d69de)" d="M 333.280272 466.956997 
L 333.280272 23.436997 
" style="fill:none;stroke:#b0b0b0;stroke-dasharray:3.2,0.8,0.5,0.8;stroke-dashoffset:0;stroke-width:0.5;"/>
     </g>
     <g id="line2d_8">
      <g>
       <use style="stroke:#000000;stroke-width:0.5;" x="333.280272" xlink:href="#m4bcbd65f98" y="466.956997"/>
      </g>
     </g>
     <g id="line2d_9">
      <g>
       <use style="stroke:#000000;stroke-width:0.5;" x="333.280272" xlink:href="#m790ecbf9bb" y="23.436997"/>
      </g>
     </g>
     <g id="text_3">
      <!-- $\mathdefault{20000}$ -->
      <g transform="translate(320.826934 477.375495)scale(0.1 -0.1)">
       <defs>
        <path d="M 41.703125 15.46875 
L 39.90625 15.46875 
C 38.90625 8.390625 38.09375 7.1875 37.703125 6.59375 
C 37.203125 5.796875 30 5.796875 28.59375 5.796875 
L 9.40625 5.796875 
C 13 9.6875 20 16.765625 28.5 24.9375 
C 34.59375 30.71875 41.703125 37.5 41.703125 47.390625 
C 41.703125 59.1875 32.296875 66 21.796875 66 
C 10.796875 66 4.09375 56.296875 4.09375 47.296875 
C 4.09375 43.390625 7 42.890625 8.203125 42.890625 
C 9.203125 42.890625 12.203125 43.484375 12.203125 46.984375 
C 12.203125 50.09375 9.59375 51 8.203125 51 
C 7.59375 51 7 50.890625 6.59375 50.6875 
C 8.5 59.1875 14.296875 63.390625 20.40625 63.390625 
C 29.09375 63.390625 34.796875 56.5 34.796875 47.390625 
C 34.796875 38.703125 29.703125 31.21875 24 24.734375 
L 4.09375 2.296875 
L 4.09375 0 
L 39.296875 0 
z
" id="CMR17-50"/>
       </defs>
       <use transform="scale(0.996264)" xlink:href="#CMR17-50"/>
       <use transform="translate(45.690477 0)scale(0.996264)" xlink:href="#CMR17-48"/>
       <use transform="translate(91.380954 0)scale(0.996264)" xlink:href="#CMR17-48"/>
       <use transform="translate(137.071431 0)scale(0.996264)" xlink:href="#CMR17-48"/>
       <use transform="translate(182.761908 0)scale(0.996264)" xlink:href="#CMR17-48"/>
      </g>
     </g>
    </g>
    <g id="xtick_4">
     <g id="line2d_10">
      <path clip-path="url(#pe0884d69de)" d="M 463.930871 466.956997 
L 463.930871 23.436997 
" style="fill:none;stroke:#b0b0b0;stroke-dasharray:3.2,0.8,0.5,0.8;stroke-dashoffset:0;stroke-width:0.5;"/>
     </g>
     <g id="line2d_11">
      <g>
       <use style="stroke:#000000;stroke-width:0.5;" x="463.930871" xlink:href="#m4bcbd65f98" y="466.956997"/>
      </g>
     </g>
     <g id="line2d_12">
      <g>
       <use style="stroke:#000000;stroke-width:0.5;" x="463.930871" xlink:href="#m790ecbf9bb" y="23.436997"/>
      </g>
     </g>
     <g id="text_4">
      <!-- $\mathdefault{30000}$ -->
      <g transform="translate(451.477533 477.375495)scale(0.1 -0.1)">
       <defs>
        <path d="M 22.09375 34 
C 31 34 34.90625 26.140625 34.90625 17.09375 
C 34.90625 5.03125 28.5 0.390625 22.703125 0.390625 
C 17.40625 0.390625 8.796875 3.015625 6.09375 10.796875 
C 6.59375 10.59375 7.09375 10.59375 7.59375 10.59375 
C 10 10.59375 11.796875 12.1875 11.796875 14.796875 
C 11.796875 17.6875 9.59375 19 7.59375 19 
C 5.90625 19 3.296875 18.1875 3.296875 14.484375 
C 3.296875 5.234375 12.296875 -2 22.90625 -2 
C 34 -2 42.5 6.75 42.5 16.984375 
C 42.5 26.84375 34.5 34 25 35.09375 
C 32.59375 36.671875 39.90625 43.375 39.90625 52.390625 
C 39.90625 60.25 32 66 23 66 
C 13.90625 66 5.90625 60.34375 5.90625 52.296875 
C 5.90625 48.796875 8.5 48.1875 9.796875 48.1875 
C 11.90625 48.1875 13.703125 49.484375 13.703125 52.09375 
C 13.703125 54.6875 11.90625 56 9.796875 56 
C 9.40625 56 8.90625 56 8.5 55.796875 
C 11.40625 62.484375 19.296875 63.6875 22.796875 63.6875 
C 26.296875 63.6875 32.90625 61.96875 32.90625 52.296875 
C 32.90625 49.484375 32.5 44.546875 29.09375 40.21875 
C 26.09375 36.390625 22.703125 36.1875 19.40625 35.890625 
C 18.90625 35.890625 16.59375 35.6875 16.203125 35.6875 
C 15.5 35.59375 15.09375 35.5 15.09375 34.796875 
C 15.09375 34.09375 15.203125 34 17.203125 34 
z
" id="CMR17-51"/>
       </defs>
       <use transform="scale(0.996264)" xlink:href="#CMR17-51"/>
       <use transform="translate(45.690477 0)scale(0.996264)" xlink:href="#CMR17-48"/>
       <use transform="translate(91.380954 0)scale(0.996264)" xlink:href="#CMR17-48"/>
       <use transform="translate(137.071431 0)scale(0.996264)" xlink:href="#CMR17-48"/>
       <use transform="translate(182.761908 0)scale(0.996264)" xlink:href="#CMR17-48"/>
      </g>
     </g>
    </g>
    <g id="xtick_5">
     <g id="line2d_13">
      <path clip-path="url(#pe0884d69de)" d="M 594.581471 466.956997 
L 594.581471 23.436997 
" style="fill:none;stroke:#b0b0b0;stroke-dasharray:3.2,0.8,0.5,0.8;stroke-dashoffset:0;stroke-width:0.5;"/>
     </g>
     <g id="line2d_14">
      <g>
       <use style="stroke:#000000;stroke-width:0.5;" x="594.581471" xlink:href="#m4bcbd65f98" y="466.956997"/>
      </g>
     </g>
     <g id="line2d_15">
      <g>
       <use style="stroke:#000000;stroke-width:0.5;" x="594.581471" xlink:href="#m790ecbf9bb" y="23.436997"/>
      </g>
     </g>
     <g id="text_5">
      <!-- $\mathdefault{40000}$ -->
      <g transform="translate(582.128132 477.375495)scale(0.1 -0.1)">
       <defs>
        <path d="M 33.59375 64.796875 
C 33.59375 66.890625 33.5 67 31.703125 67 
L 2 19.59375 
L 2 17 
L 27.796875 17 
L 27.796875 7.1875 
C 27.796875 3.59375 27.59375 2.59375 20.59375 2.59375 
L 18.703125 2.59375 
L 18.703125 0 
C 21.90625 0.1875 27.296875 0.1875 30.703125 0.1875 
C 34.09375 0.1875 39.5 0.1875 42.703125 0 
L 42.703125 2.59375 
L 40.796875 2.59375 
C 33.796875 2.59375 33.59375 3.59375 33.59375 7.1875 
L 33.59375 17 
L 43.796875 17 
L 43.796875 19.59375 
L 33.59375 19.59375 
z
M 28.09375 58.171875 
L 28.09375 19.59375 
L 4 19.59375 
z
" id="CMR17-52"/>
       </defs>
       <use transform="scale(0.996264)" xlink:href="#CMR17-52"/>
       <use transform="translate(45.690477 0)scale(0.996264)" xlink:href="#CMR17-48"/>
       <use transform="translate(91.380954 0)scale(0.996264)" xlink:href="#CMR17-48"/>
       <use transform="translate(137.071431 0)scale(0.996264)" xlink:href="#CMR17-48"/>
       <use transform="translate(182.761908 0)scale(0.996264)" xlink:href="#CMR17-48"/>
      </g>
     </g>
    </g>
    <g id="xtick_6">
     <g id="line2d_16">
      <defs>
       <path d="M 0 0 
L 0 -1.5 
" id="m9a6104e431" style="stroke:#000000;stroke-width:0.5;"/>
      </defs>
      <g>
       <use style="stroke:#000000;stroke-width:0.5;" x="45.848953" xlink:href="#m9a6104e431" y="466.956997"/>
      </g>
     </g>
     <g id="line2d_17">
      <defs>
       <path d="M 0 0 
L 0 1.5 
" id="m05b77453f9" style="stroke:#000000;stroke-width:0.5;"/>
      </defs>
      <g>
       <use style="stroke:#000000;stroke-width:0.5;" x="45.848953" xlink:href="#m05b77453f9" y="23.436997"/>
      </g>
     </g>
    </g>
    <g id="xtick_7">
     <g id="line2d_18">
      <g>
       <use style="stroke:#000000;stroke-width:0.5;" x="98.109193" xlink:href="#m9a6104e431" y="466.956997"/>
      </g>
     </g>
     <g id="line2d_19">
      <g>
       <use style="stroke:#000000;stroke-width:0.5;" x="98.109193" xlink:href="#m05b77453f9" y="23.436997"/>
      </g>
     </g>
    </g>
    <g id="xtick_8">
     <g id="line2d_20">
      <g>
       <use style="stroke:#000000;stroke-width:0.5;" x="124.239313" xlink:href="#m9a6104e431" y="466.956997"/>
      </g>
     </g>
     <g id="line2d_21">
      <g>
       <use style="stroke:#000000;stroke-width:0.5;" x="124.239313" xlink:href="#m05b77453f9" y="23.436997"/>
      </g>
     </g>
    </g>
    <g id="xtick_9">
     <g id="line2d_22">
      <g>
       <use style="stroke:#000000;stroke-width:0.5;" x="150.369433" xlink:href="#m9a6104e431" y="466.956997"/>
      </g>
     </g>
     <g id="line2d_23">
      <g>
       <use style="stroke:#000000;stroke-width:0.5;" x="150.369433" xlink:href="#m05b77453f9" y="23.436997"/>
      </g>
     </g>
    </g>
    <g id="xtick_10">
     <g id="line2d_24">
      <g>
       <use style="stroke:#000000;stroke-width:0.5;" x="176.499553" xlink:href="#m9a6104e431" y="466.956997"/>
      </g>
     </g>
     <g id="line2d_25">
      <g>
       <use style="stroke:#000000;stroke-width:0.5;" x="176.499553" xlink:href="#m05b77453f9" y="23.436997"/>
      </g>
     </g>
    </g>
    <g id="xtick_11">
     <g id="line2d_26">
      <g>
       <use style="stroke:#000000;stroke-width:0.5;" x="228.759792" xlink:href="#m9a6104e431" y="466.956997"/>
      </g>
     </g>
     <g id="line2d_27">
      <g>
       <use style="stroke:#000000;stroke-width:0.5;" x="228.759792" xlink:href="#m05b77453f9" y="23.436997"/>
      </g>
     </g>
    </g>
    <g id="xtick_12">
     <g id="line2d_28">
      <g>
       <use style="stroke:#000000;stroke-width:0.5;" x="254.889912" xlink:href="#m9a6104e431" y="466.956997"/>
      </g>
     </g>
     <g id="line2d_29">
      <g>
       <use style="stroke:#000000;stroke-width:0.5;" x="254.889912" xlink:href="#m05b77453f9" y="23.436997"/>
      </g>
     </g>
    </g>
    <g id="xtick_13">
     <g id="line2d_30">
      <g>
       <use style="stroke:#000000;stroke-width:0.5;" x="281.020032" xlink:href="#m9a6104e431" y="466.956997"/>
      </g>
     </g>
     <g id="line2d_31">
      <g>
       <use style="stroke:#000000;stroke-width:0.5;" x="281.020032" xlink:href="#m05b77453f9" y="23.436997"/>
      </g>
     </g>
    </g>
    <g id="xtick_14">
     <g id="line2d_32">
      <g>
       <use style="stroke:#000000;stroke-width:0.5;" x="307.150152" xlink:href="#m9a6104e431" y="466.956997"/>
      </g>
     </g>
     <g id="line2d_33">
      <g>
       <use style="stroke:#000000;stroke-width:0.5;" x="307.150152" xlink:href="#m05b77453f9" y="23.436997"/>
      </g>
     </g>
    </g>
    <g id="xtick_15">
     <g id="line2d_34">
      <g>
       <use style="stroke:#000000;stroke-width:0.5;" x="359.410392" xlink:href="#m9a6104e431" y="466.956997"/>
      </g>
     </g>
     <g id="line2d_35">
      <g>
       <use style="stroke:#000000;stroke-width:0.5;" x="359.410392" xlink:href="#m05b77453f9" y="23.436997"/>
      </g>
     </g>
    </g>
    <g id="xtick_16">
     <g id="line2d_36">
      <g>
       <use style="stroke:#000000;stroke-width:0.5;" x="385.540512" xlink:href="#m9a6104e431" y="466.956997"/>
      </g>
     </g>
     <g id="line2d_37">
      <g>
       <use style="stroke:#000000;stroke-width:0.5;" x="385.540512" xlink:href="#m05b77453f9" y="23.436997"/>
      </g>
     </g>
    </g>
    <g id="xtick_17">
     <g id="line2d_38">
      <g>
       <use style="stroke:#000000;stroke-width:0.5;" x="411.670631" xlink:href="#m9a6104e431" y="466.956997"/>
      </g>
     </g>
     <g id="line2d_39">
      <g>
       <use style="stroke:#000000;stroke-width:0.5;" x="411.670631" xlink:href="#m05b77453f9" y="23.436997"/>
      </g>
     </g>
    </g>
    <g id="xtick_18">
     <g id="line2d_40">
      <g>
       <use style="stroke:#000000;stroke-width:0.5;" x="437.800751" xlink:href="#m9a6104e431" y="466.956997"/>
      </g>
     </g>
     <g id="line2d_41">
      <g>
       <use style="stroke:#000000;stroke-width:0.5;" x="437.800751" xlink:href="#m05b77453f9" y="23.436997"/>
      </g>
     </g>
    </g>
    <g id="xtick_19">
     <g id="line2d_42">
      <g>
       <use style="stroke:#000000;stroke-width:0.5;" x="490.060991" xlink:href="#m9a6104e431" y="466.956997"/>
      </g>
     </g>
     <g id="line2d_43">
      <g>
       <use style="stroke:#000000;stroke-width:0.5;" x="490.060991" xlink:href="#m05b77453f9" y="23.436997"/>
      </g>
     </g>
    </g>
    <g id="xtick_20">
     <g id="line2d_44">
      <g>
       <use style="stroke:#000000;stroke-width:0.5;" x="516.191111" xlink:href="#m9a6104e431" y="466.956997"/>
      </g>
     </g>
     <g id="line2d_45">
      <g>
       <use style="stroke:#000000;stroke-width:0.5;" x="516.191111" xlink:href="#m05b77453f9" y="23.436997"/>
      </g>
     </g>
    </g>
    <g id="xtick_21">
     <g id="line2d_46">
      <g>
       <use style="stroke:#000000;stroke-width:0.5;" x="542.321231" xlink:href="#m9a6104e431" y="466.956997"/>
      </g>
     </g>
     <g id="line2d_47">
      <g>
       <use style="stroke:#000000;stroke-width:0.5;" x="542.321231" xlink:href="#m05b77453f9" y="23.436997"/>
      </g>
     </g>
    </g>
    <g id="xtick_22">
     <g id="line2d_48">
      <g>
       <use style="stroke:#000000;stroke-width:0.5;" x="568.451351" xlink:href="#m9a6104e431" y="466.956997"/>
      </g>
     </g>
     <g id="line2d_49">
      <g>
       <use style="stroke:#000000;stroke-width:0.5;" x="568.451351" xlink:href="#m05b77453f9" y="23.436997"/>
      </g>
     </g>
    </g>
    <g id="xtick_23">
     <g id="line2d_50">
      <g>
       <use style="stroke:#000000;stroke-width:0.5;" x="620.71159" xlink:href="#m9a6104e431" y="466.956997"/>
      </g>
     </g>
     <g id="line2d_51">
      <g>
       <use style="stroke:#000000;stroke-width:0.5;" x="620.71159" xlink:href="#m05b77453f9" y="23.436997"/>
      </g>
     </g>
    </g>
    <g id="xtick_24">
     <g id="line2d_52">
      <g>
       <use style="stroke:#000000;stroke-width:0.5;" x="646.84171" xlink:href="#m9a6104e431" y="466.956997"/>
      </g>
     </g>
     <g id="line2d_53">
      <g>
       <use style="stroke:#000000;stroke-width:0.5;" x="646.84171" xlink:href="#m05b77453f9" y="23.436997"/>
      </g>
     </g>
    </g>
    <g id="xtick_25">
     <g id="line2d_54">
      <g>
       <use style="stroke:#000000;stroke-width:0.5;" x="672.97183" xlink:href="#m9a6104e431" y="466.956997"/>
      </g>
     </g>
     <g id="line2d_55">
      <g>
       <use style="stroke:#000000;stroke-width:0.5;" x="672.97183" xlink:href="#m05b77453f9" y="23.436997"/>
      </g>
     </g>
    </g>
    <g id="xtick_26">
     <g id="line2d_56">
      <g>
       <use style="stroke:#000000;stroke-width:0.5;" x="699.10195" xlink:href="#m9a6104e431" y="466.956997"/>
      </g>
     </g>
     <g id="line2d_57">
      <g>
       <use style="stroke:#000000;stroke-width:0.5;" x="699.10195" xlink:href="#m05b77453f9" y="23.436997"/>
      </g>
     </g>
    </g>
    <g id="text_6">
     <!-- iteration -->
     <g transform="translate(342.508087 497.14967)scale(0.2 -0.2)">
      <defs>
       <path d="M 15.5 61.890625 
C 15.5 64.09375 13.703125 66 11.40625 66 
C 9.203125 66 7.296875 64.1875 7.296875 61.890625 
C 7.296875 59.6875 9.09375 57.796875 11.40625 57.796875 
C 13.59375 57.796875 15.5 59.59375 15.5 61.890625 
z
M 3.796875 42.890625 
L 3.796875 40.296875 
C 9.40625 40.296875 10.203125 39.6875 10.203125 34.859375 
L 10.203125 6.921875 
C 10.203125 3.09375 9.796875 2.59375 3.40625 2.59375 
L 3.40625 0 
C 5.796875 0.1875 10.09375 0.1875 12.59375 0.1875 
C 15 0.1875 19.09375 0.1875 21.40625 0 
L 21.40625 2.59375 
C 15.5 2.59375 15.296875 3.203125 15.296875 6.8125 
L 15.296875 44 
z
" id="CMR17-105"/>
       <path d="M 15.09375 40.390625 
L 29.09375 40.390625 
L 29.09375 43 
L 15.09375 43 
L 15.09375 62 
L 13.296875 62 
C 13.09375 51.4375 9.59375 42.1875 1.09375 41.984375 
L 1.09375 40.390625 
L 9.796875 40.390625 
L 9.796875 12.15625 
C 9.796875 10.234375 9.796875 -1 21.40625 -1 
C 27.296875 -1 30.703125 4.8125 30.703125 12.25 
L 30.703125 17.984375 
L 28.90625 17.984375 
L 28.90625 12.34375 
C 28.90625 5.421875 26.203125 0.796875 22 0.796875 
C 19.09375 0.796875 15.09375 2.796875 15.09375 11.953125 
z
" id="CMR17-116"/>
       <path d="M 38.09375 23.484375 
C 38.5 23.890625 38.5 24.09375 38.5 25.09375 
C 38.5 35.171875 33.09375 44 21.703125 44 
C 11.09375 44 2.703125 33.984375 2.703125 21.78125 
C 2.703125 8.65625 12.203125 -1 22.796875 -1 
C 34 -1 38.40625 9.671875 38.40625 11.796875 
C 38.40625 12.5 37.796875 12.5 37.59375 12.5 
C 36.90625 12.5 36.796875 12.296875 36.40625 11.078125 
C 34.203125 4.21875 28.703125 0.796875 23.5 0.796875 
C 19.203125 0.796875 14.90625 3.21875 12.203125 7.65625 
C 9.09375 12.796875 9.09375 18.75 9.09375 23.484375 
z
M 9.203125 25 
C 9.90625 39.234375 17.59375 42.390625 21.59375 42.390625 
C 28.40625 42.390625 33 36.0625 33.09375 25 
z
" id="CMR17-101"/>
       <path d="M 15 23.703125 
C 15 33.34375 19.09375 42.390625 26.59375 42.390625 
C 27.296875 42.390625 28 42.296875 28.703125 41.984375 
C 28.703125 41.984375 26.5 41.28125 26.5 38.671875 
C 26.5 36.265625 28.40625 35.265625 29.90625 35.265625 
C 31.09375 35.265625 33.296875 35.96875 33.296875 38.78125 
C 33.296875 41.984375 30.09375 44 26.703125 44 
C 19.09375 44 15.796875 36.5625 14.796875 33.046875 
L 14.703125 33.046875 
L 14.703125 44 
L 3.09375 42.890625 
L 3.09375 40.28125 
C 9 40.28125 9.90625 39.6875 9.90625 34.859375 
L 9.90625 6.921875 
C 9.90625 3.09375 9.5 2.59375 3.09375 2.59375 
L 3.09375 0 
C 5.5 0.1875 10.09375 0.1875 12.703125 0.1875 
C 15.59375 0.1875 20.703125 0.1875 23.40625 0 
L 23.40625 2.59375 
C 16.203125 2.59375 15 2.59375 15 7.109375 
z
" id="CMR17-114"/>
       <path d="M 36 25.875 
C 36 32 36 35.546875 31.796875 39.59375 
C 28.09375 42.984375 23.796875 44 20.40625 44 
C 12.5 44 6.796875 37.625 6.796875 30.890625 
C 6.796875 27.1875 9.796875 27 10.40625 27 
C 11.703125 27 14 27.796875 14 30.59375 
C 14 33.09375 12.09375 34.1875 10.40625 34.1875 
C 10 34.1875 9.5 34.09375 9.203125 34 
C 11.296875 40.53125 16.703125 42.390625 20.203125 42.390625 
C 25.203125 42.390625 30.703125 37.828125 30.703125 29.296875 
L 30.703125 25.5 
C 24.796875 25.296875 17.703125 24.5 12.09375 21.453125 
C 5.796875 17.921875 4 12.84375 4 9 
C 4 1.203125 13 -1 18.296875 -1 
C 23.796875 -1 28.90625 2.109375 31.09375 7.890625 
C 31.296875 3.421875 34.09375 -0.609375 38.5 -0.609375 
C 40.59375 -0.609375 45.90625 0.796875 45.90625 8.796875 
L 45.90625 14.46875 
L 44.09375 14.46875 
L 44.09375 8.703125 
C 44.09375 2.515625 41.40625 1.703125 40.09375 1.703125 
C 36 1.703125 36 6.96875 36 11.4375 
z
M 30.703125 13.859375 
C 30.703125 5.046875 24.5 0.59375 19 0.59375 
C 14 0.59375 10.09375 4.34375 10.09375 9 
C 10.09375 12.046875 11.40625 17.40625 17.203125 20.65625 
C 22 23.390625 27.5 23.796875 30.703125 24 
z
" id="CMR17-97"/>
       <path d="M 43.09375 21.1875 
C 43.09375 34 33.796875 44 22.90625 44 
C 12 44 2.703125 34 2.703125 21.1875 
C 2.703125 8.59375 12 -1 22.90625 -1 
C 33.796875 -1 43.09375 8.59375 43.09375 21.1875 
z
M 22.90625 0.796875 
C 18.203125 0.796875 14.203125 3.59375 11.90625 7.5 
C 9.40625 12 9.09375 17.59375 9.09375 22 
C 9.09375 26.1875 9.296875 31.390625 11.90625 35.890625 
C 13.90625 39.1875 17.796875 42.390625 22.90625 42.390625 
C 27.40625 42.390625 31.203125 39.890625 33.59375 36.390625 
C 36.703125 31.6875 36.703125 25.09375 36.703125 22 
C 36.703125 18.09375 36.5 12.09375 33.796875 7.296875 
C 31 2.6875 26.703125 0.796875 22.90625 0.796875 
z
" id="CMR17-111"/>
       <path d="M 41.5 30.53125 
C 41.5 35.65625 40.5 44 28.703125 44 
C 20.796875 44 16.703125 37.875 15.203125 33.84375 
L 15.09375 33.84375 
L 15.09375 44 
L 3.296875 42.890625 
L 3.296875 40.28125 
C 9.203125 40.28125 10.09375 39.6875 10.09375 34.859375 
L 10.09375 6.921875 
C 10.09375 3.09375 9.703125 2.59375 3.296875 2.59375 
L 3.296875 0 
C 5.703125 0.1875 10.09375 0.1875 12.703125 0.1875 
C 15.296875 0.1875 19.796875 0.1875 22.203125 0 
L 22.203125 2.59375 
C 15.796875 2.59375 15.40625 3 15.40625 6.921875 
L 15.40625 26.21875 
C 15.40625 35.453125 21 42.390625 28 42.390625 
C 35.40625 42.390625 36.203125 35.765625 36.203125 30.9375 
L 36.203125 6.921875 
C 36.203125 3.09375 35.796875 2.59375 29.40625 2.59375 
L 29.40625 0 
C 31.796875 0.1875 36.203125 0.1875 38.796875 0.1875 
C 41.40625 0.1875 45.90625 0.1875 48.296875 0 
L 48.296875 2.59375 
C 41.90625 2.59375 41.5 3 41.5 6.921875 
z
" id="CMR17-110"/>
      </defs>
      <use transform="scale(0.996264)" xlink:href="#CMR17-105"/>
      <use transform="translate(24.871058 0)scale(0.996264)" xlink:href="#CMR17-116"/>
      <use transform="translate(60.151826 0)scale(0.996264)" xlink:href="#CMR17-101"/>
      <use transform="translate(100.637487 0)scale(0.996264)" xlink:href="#CMR17-114"/>
      <use transform="translate(135.918255 0)scale(0.996264)" xlink:href="#CMR17-97"/>
      <use transform="translate(181.608732 0)scale(0.996264)" xlink:href="#CMR17-116"/>
      <use transform="translate(216.889499 0)scale(0.996264)" xlink:href="#CMR17-105"/>
      <use transform="translate(241.760558 0)scale(0.996264)" xlink:href="#CMR17-111"/>
      <use transform="translate(287.451035 0)scale(0.996264)" xlink:href="#CMR17-110"/>
     </g>
    </g>
   </g>
   <g id="matplotlib.axis_2">
    <g id="ytick_1">
     <g id="line2d_58">
      <path clip-path="url(#pe0884d69de)" d="M 41.542709 412.236997 
L 711.142709 412.236997 
" style="fill:none;stroke:#b0b0b0;stroke-dasharray:3.2,0.8,0.5,0.8;stroke-dashoffset:0;stroke-width:0.5;"/>
     </g>
     <g id="line2d_59">
      <defs>
       <path d="M 0 0 
L 3 0 
" id="m8223fe8c45" style="stroke:#000000;stroke-width:0.5;"/>
      </defs>
      <g>
       <use style="stroke:#000000;stroke-width:0.5;" x="41.542709" xlink:href="#m8223fe8c45" y="412.236997"/>
      </g>
     </g>
     <g id="line2d_60">
      <defs>
       <path d="M 0 0 
L -3 0 
" id="m511a74903a" style="stroke:#000000;stroke-width:0.5;"/>
      </defs>
      <g>
       <use style="stroke:#000000;stroke-width:0.5;" x="711.142709" xlink:href="#m511a74903a" y="412.236997"/>
      </g>
     </g>
     <g id="text_7">
      <!-- $\mathdefault{0.2}$ -->
      <g transform="translate(25.31263 415.696246)scale(0.1 -0.1)">
       <defs>
        <path d="M 18.40625 4.796875 
C 18.40625 7.6875 16 9.6875 13.59375 9.6875 
C 10.703125 9.6875 8.703125 7.296875 8.703125 4.890625 
C 8.703125 2 11.09375 0 13.5 0 
C 16.40625 0 18.40625 2.390625 18.40625 4.796875 
z
" id="CMMI12-58"/>
       </defs>
       <use transform="scale(0.996264)" xlink:href="#CMR17-48"/>
       <use transform="translate(45.690477 0)scale(0.996264)" xlink:href="#CMMI12-58"/>
       <use transform="translate(72.787654 0)scale(0.996264)" xlink:href="#CMR17-50"/>
      </g>
     </g>
    </g>
    <g id="ytick_2">
     <g id="line2d_61">
      <path clip-path="url(#pe0884d69de)" d="M 41.542709 320.076997 
L 711.142709 320.076997 
" style="fill:none;stroke:#b0b0b0;stroke-dasharray:3.2,0.8,0.5,0.8;stroke-dashoffset:0;stroke-width:0.5;"/>
     </g>
     <g id="line2d_62">
      <g>
       <use style="stroke:#000000;stroke-width:0.5;" x="41.542709" xlink:href="#m8223fe8c45" y="320.076997"/>
      </g>
     </g>
     <g id="line2d_63">
      <g>
       <use style="stroke:#000000;stroke-width:0.5;" x="711.142709" xlink:href="#m511a74903a" y="320.076997"/>
      </g>
     </g>
     <g id="text_8">
      <!-- $\mathdefault{0.4}$ -->
      <g transform="translate(25.31263 323.536246)scale(0.1 -0.1)">
       <use transform="scale(0.996264)" xlink:href="#CMR17-48"/>
       <use transform="translate(45.690477 0)scale(0.996264)" xlink:href="#CMMI12-58"/>
       <use transform="translate(72.787654 0)scale(0.996264)" xlink:href="#CMR17-52"/>
      </g>
     </g>
    </g>
    <g id="ytick_3">
     <g id="line2d_64">
      <path clip-path="url(#pe0884d69de)" d="M 41.542709 227.916997 
L 711.142709 227.916997 
" style="fill:none;stroke:#b0b0b0;stroke-dasharray:3.2,0.8,0.5,0.8;stroke-dashoffset:0;stroke-width:0.5;"/>
     </g>
     <g id="line2d_65">
      <g>
       <use style="stroke:#000000;stroke-width:0.5;" x="41.542709" xlink:href="#m8223fe8c45" y="227.916997"/>
      </g>
     </g>
     <g id="line2d_66">
      <g>
       <use style="stroke:#000000;stroke-width:0.5;" x="711.142709" xlink:href="#m511a74903a" y="227.916997"/>
      </g>
     </g>
     <g id="text_9">
      <!-- $\mathdefault{0.6}$ -->
      <g transform="translate(25.31263 231.376246)scale(0.1 -0.1)">
       <defs>
        <path d="M 10.59375 34.34375 
C 10.59375 58 21.796875 63.6875 28.296875 63.6875 
C 30.40625 63.6875 35.5 63.265625 37.5 59.09375 
C 35.90625 59.09375 32.90625 59.09375 32.90625 55.59375 
C 32.90625 52.890625 35.09375 52 36.5 52 
C 37.40625 52 40.09375 52.390625 40.09375 55.796875 
C 40.09375 62.296875 35.09375 66 28.203125 66 
C 16.296875 66 3.796875 53.296875 3.796875 31.421875 
C 3.796875 4.015625 15.09375 -2 23.09375 -2 
C 32.796875 -2 42 6.734375 42 20.234375 
C 42 32.828125 33.90625 42 23.703125 42 
C 17.59375 42 13.09375 37.96875 10.59375 30.921875 
z
M 23.09375 0.390625 
C 10.796875 0.390625 10.796875 18.9375 10.796875 22.65625 
C 10.796875 29.90625 14.203125 40.390625 23.5 40.390625 
C 25.203125 40.390625 30.09375 40.390625 33.40625 33.4375 
C 35.203125 29.515625 35.203125 25.375 35.203125 20.34375 
C 35.203125 14.90625 35.203125 10.875 33.09375 6.84375 
C 30.90625 2.703125 27.703125 0.390625 23.09375 0.390625 
z
" id="CMR17-54"/>
       </defs>
       <use transform="scale(0.996264)" xlink:href="#CMR17-48"/>
       <use transform="translate(45.690477 0)scale(0.996264)" xlink:href="#CMMI12-58"/>
       <use transform="translate(72.787654 0)scale(0.996264)" xlink:href="#CMR17-54"/>
      </g>
     </g>
    </g>
    <g id="ytick_4">
     <g id="line2d_67">
      <path clip-path="url(#pe0884d69de)" d="M 41.542709 135.756997 
L 711.142709 135.756997 
" style="fill:none;stroke:#b0b0b0;stroke-dasharray:3.2,0.8,0.5,0.8;stroke-dashoffset:0;stroke-width:0.5;"/>
     </g>
     <g id="line2d_68">
      <g>
       <use style="stroke:#000000;stroke-width:0.5;" x="41.542709" xlink:href="#m8223fe8c45" y="135.756997"/>
      </g>
     </g>
     <g id="line2d_69">
      <g>
       <use style="stroke:#000000;stroke-width:0.5;" x="711.142709" xlink:href="#m511a74903a" y="135.756997"/>
      </g>
     </g>
     <g id="text_10">
      <!-- $\mathdefault{0.8}$ -->
      <g transform="translate(25.31263 139.216246)scale(0.1 -0.1)">
       <defs>
        <path d="M 27.203125 35.765625 
C 33.5 38.96875 39.90625 43.796875 39.90625 51.53125 
C 39.90625 60.6875 31.09375 66 23 66 
C 13.90625 66 5.90625 59.375 5.90625 50.234375 
C 5.90625 47.71875 6.5 43.390625 10.40625 39.578125 
C 11.40625 38.578125 15.59375 35.5625 18.296875 33.65625 
C 13.796875 31.34375 3.296875 25.8125 3.296875 14.765625 
C 3.296875 4.40625 13.09375 -2 22.796875 -2 
C 33.5 -2 42.5 5.71875 42.5 15.96875 
C 42.5 25.109375 36.40625 29.328125 32.40625 32.046875 
z
M 14.09375 44.609375 
C 13.296875 45.109375 9.296875 48.21875 9.296875 52.9375 
C 9.296875 59.078125 15.59375 63.6875 22.796875 63.6875 
C 30.703125 63.6875 36.5 58.0625 36.5 51.53125 
C 36.5 42.1875 26.09375 36.859375 25.59375 36.859375 
C 25.5 36.859375 25.40625 36.859375 24.59375 37.46875 
z
M 32.5 24 
C 34 22.90625 38.796875 19.578125 38.796875 13.453125 
C 38.796875 6.015625 31.40625 0.390625 23 0.390625 
C 13.90625 0.390625 7 6.921875 7 14.859375 
C 7 22.796875 13.09375 29.4375 20 32.546875 
z
" id="CMR17-56"/>
       </defs>
       <use transform="scale(0.996264)" xlink:href="#CMR17-48"/>
       <use transform="translate(45.690477 0)scale(0.996264)" xlink:href="#CMMI12-58"/>
       <use transform="translate(72.787654 0)scale(0.996264)" xlink:href="#CMR17-56"/>
      </g>
     </g>
    </g>
    <g id="ytick_5">
     <g id="line2d_70">
      <path clip-path="url(#pe0884d69de)" d="M 41.542709 43.596997 
L 711.142709 43.596997 
" style="fill:none;stroke:#b0b0b0;stroke-dasharray:3.2,0.8,0.5,0.8;stroke-dashoffset:0;stroke-width:0.5;"/>
     </g>
     <g id="line2d_71">
      <g>
       <use style="stroke:#000000;stroke-width:0.5;" x="41.542709" xlink:href="#m8223fe8c45" y="43.596997"/>
      </g>
     </g>
     <g id="line2d_72">
      <g>
       <use style="stroke:#000000;stroke-width:0.5;" x="711.142709" xlink:href="#m511a74903a" y="43.596997"/>
      </g>
     </g>
     <g id="text_11">
      <!-- $\mathdefault{1.0}$ -->
      <g transform="translate(25.31263 47.056246)scale(0.1 -0.1)">
       <use transform="scale(0.996264)" xlink:href="#CMR17-49"/>
       <use transform="translate(45.690477 0)scale(0.996264)" xlink:href="#CMMI12-58"/>
       <use transform="translate(72.787654 0)scale(0.996264)" xlink:href="#CMR17-48"/>
      </g>
     </g>
    </g>
    <g id="ytick_6">
     <g id="line2d_73">
      <defs>
       <path d="M 0 0 
L 1.5 0 
" id="me551bd03fb" style="stroke:#000000;stroke-width:0.5;"/>
      </defs>
      <g>
       <use style="stroke:#000000;stroke-width:0.5;" x="41.542709" xlink:href="#me551bd03fb" y="458.316997"/>
      </g>
     </g>
     <g id="line2d_74">
      <defs>
       <path d="M 0 0 
L -1.5 0 
" id="mb75512b329" style="stroke:#000000;stroke-width:0.5;"/>
      </defs>
      <g>
       <use style="stroke:#000000;stroke-width:0.5;" x="711.142709" xlink:href="#mb75512b329" y="458.316997"/>
      </g>
     </g>
    </g>
    <g id="ytick_7">
     <g id="line2d_75">
      <g>
       <use style="stroke:#000000;stroke-width:0.5;" x="41.542709" xlink:href="#me551bd03fb" y="435.276997"/>
      </g>
     </g>
     <g id="line2d_76">
      <g>
       <use style="stroke:#000000;stroke-width:0.5;" x="711.142709" xlink:href="#mb75512b329" y="435.276997"/>
      </g>
     </g>
    </g>
    <g id="ytick_8">
     <g id="line2d_77">
      <g>
       <use style="stroke:#000000;stroke-width:0.5;" x="41.542709" xlink:href="#me551bd03fb" y="389.196997"/>
      </g>
     </g>
     <g id="line2d_78">
      <g>
       <use style="stroke:#000000;stroke-width:0.5;" x="711.142709" xlink:href="#mb75512b329" y="389.196997"/>
      </g>
     </g>
    </g>
    <g id="ytick_9">
     <g id="line2d_79">
      <g>
       <use style="stroke:#000000;stroke-width:0.5;" x="41.542709" xlink:href="#me551bd03fb" y="366.156997"/>
      </g>
     </g>
     <g id="line2d_80">
      <g>
       <use style="stroke:#000000;stroke-width:0.5;" x="711.142709" xlink:href="#mb75512b329" y="366.156997"/>
      </g>
     </g>
    </g>
    <g id="ytick_10">
     <g id="line2d_81">
      <g>
       <use style="stroke:#000000;stroke-width:0.5;" x="41.542709" xlink:href="#me551bd03fb" y="343.116997"/>
      </g>
     </g>
     <g id="line2d_82">
      <g>
       <use style="stroke:#000000;stroke-width:0.5;" x="711.142709" xlink:href="#mb75512b329" y="343.116997"/>
      </g>
     </g>
    </g>
    <g id="ytick_11">
     <g id="line2d_83">
      <g>
       <use style="stroke:#000000;stroke-width:0.5;" x="41.542709" xlink:href="#me551bd03fb" y="297.036997"/>
      </g>
     </g>
     <g id="line2d_84">
      <g>
       <use style="stroke:#000000;stroke-width:0.5;" x="711.142709" xlink:href="#mb75512b329" y="297.036997"/>
      </g>
     </g>
    </g>
    <g id="ytick_12">
     <g id="line2d_85">
      <g>
       <use style="stroke:#000000;stroke-width:0.5;" x="41.542709" xlink:href="#me551bd03fb" y="273.996997"/>
      </g>
     </g>
     <g id="line2d_86">
      <g>
       <use style="stroke:#000000;stroke-width:0.5;" x="711.142709" xlink:href="#mb75512b329" y="273.996997"/>
      </g>
     </g>
    </g>
    <g id="ytick_13">
     <g id="line2d_87">
      <g>
       <use style="stroke:#000000;stroke-width:0.5;" x="41.542709" xlink:href="#me551bd03fb" y="250.956997"/>
      </g>
     </g>
     <g id="line2d_88">
      <g>
       <use style="stroke:#000000;stroke-width:0.5;" x="711.142709" xlink:href="#mb75512b329" y="250.956997"/>
      </g>
     </g>
    </g>
    <g id="ytick_14">
     <g id="line2d_89">
      <g>
       <use style="stroke:#000000;stroke-width:0.5;" x="41.542709" xlink:href="#me551bd03fb" y="204.876997"/>
      </g>
     </g>
     <g id="line2d_90">
      <g>
       <use style="stroke:#000000;stroke-width:0.5;" x="711.142709" xlink:href="#mb75512b329" y="204.876997"/>
      </g>
     </g>
    </g>
    <g id="ytick_15">
     <g id="line2d_91">
      <g>
       <use style="stroke:#000000;stroke-width:0.5;" x="41.542709" xlink:href="#me551bd03fb" y="181.836997"/>
      </g>
     </g>
     <g id="line2d_92">
      <g>
       <use style="stroke:#000000;stroke-width:0.5;" x="711.142709" xlink:href="#mb75512b329" y="181.836997"/>
      </g>
     </g>
    </g>
    <g id="ytick_16">
     <g id="line2d_93">
      <g>
       <use style="stroke:#000000;stroke-width:0.5;" x="41.542709" xlink:href="#me551bd03fb" y="158.796997"/>
      </g>
     </g>
     <g id="line2d_94">
      <g>
       <use style="stroke:#000000;stroke-width:0.5;" x="711.142709" xlink:href="#mb75512b329" y="158.796997"/>
      </g>
     </g>
    </g>
    <g id="ytick_17">
     <g id="line2d_95">
      <g>
       <use style="stroke:#000000;stroke-width:0.5;" x="41.542709" xlink:href="#me551bd03fb" y="112.716997"/>
      </g>
     </g>
     <g id="line2d_96">
      <g>
       <use style="stroke:#000000;stroke-width:0.5;" x="711.142709" xlink:href="#mb75512b329" y="112.716997"/>
      </g>
     </g>
    </g>
    <g id="ytick_18">
     <g id="line2d_97">
      <g>
       <use style="stroke:#000000;stroke-width:0.5;" x="41.542709" xlink:href="#me551bd03fb" y="89.676997"/>
      </g>
     </g>
     <g id="line2d_98">
      <g>
       <use style="stroke:#000000;stroke-width:0.5;" x="711.142709" xlink:href="#mb75512b329" y="89.676997"/>
      </g>
     </g>
    </g>
    <g id="ytick_19">
     <g id="line2d_99">
      <g>
       <use style="stroke:#000000;stroke-width:0.5;" x="41.542709" xlink:href="#me551bd03fb" y="66.636997"/>
      </g>
     </g>
     <g id="line2d_100">
      <g>
       <use style="stroke:#000000;stroke-width:0.5;" x="711.142709" xlink:href="#mb75512b329" y="66.636997"/>
      </g>
     </g>
    </g>
    <g id="text_12">
     <!-- accuracy -->
     <g transform="translate(17.436997 279.927673)rotate(-90)scale(0.2 -0.2)">
      <defs>
       <path d="M 34.90625 35 
C 33 35 30.203125 35 30.203125 31.484375 
C 30.203125 28.6875 32.5 27.890625 33.796875 27.890625 
C 34.5 27.890625 37.40625 28.1875 37.40625 31.6875 
C 37.40625 38.6875 30.59375 44 22.90625 44 
C 12.296875 44 3.296875 34.390625 3.296875 21.546875 
C 3.296875 8.140625 12.703125 -1 22.90625 -1 
C 35.296875 -1 38.40625 10.5625 38.40625 11.671875 
C 38.40625 12.078125 38.296875 12.375 37.59375 12.375 
C 36.90625 12.375 36.796875 12.28125 36.40625 10.96875 
C 33.796875 2.8125 28.09375 0.796875 23.796875 0.796875 
C 17.40625 0.796875 9.703125 6.734375 9.703125 21.640625 
C 9.703125 36.84375 17.09375 42.1875 23 42.1875 
C 26.90625 42.1875 32.703125 40.34375 34.90625 35 
z
" id="CMR17-99"/>
       <path d="M 29.40625 42.890625 
L 29.40625 40.296875 
C 35.296875 40.296875 36.203125 39.6875 36.203125 34.828125 
L 36.203125 16.453125 
C 36.203125 7.96875 31.703125 0.59375 24.296875 0.59375 
C 16.09375 0.59375 15.40625 5.546875 15.40625 10.796875 
L 15.40625 44 
L 3.296875 42.890625 
L 3.296875 40.296875 
C 7.296875 40.296875 10 40.296875 10.09375 36.25 
L 10.09375 16.859375 
C 10.09375 10.09375 10.09375 5.75 12.703125 2.921875 
C 14 1.609375 16.5 -1 23.703125 -1 
C 32.203125 -1 35.5 6.25 36.296875 8.375 
L 36.40625 8.375 
L 36.40625 -1 
L 48.296875 -0.203125 
L 48.296875 2.40625 
C 42.40625 2.40625 41.5 3.015625 41.5 7.859375 
L 41.5 44 
z
" id="CMR17-117"/>
       <path d="M 39 34.109375 
C 41.5 40.296875 46 40.390625 47.40625 40.390625 
L 47.40625 43 
C 45.5 42.890625 43 42.796875 41.09375 42.796875 
C 39 42.796875 35.703125 42.796875 33.703125 43 
L 33.703125 40.390625 
C 37.5 40.09375 37.59375 37.25 37.59375 36.4375 
C 37.59375 35.4375 37.40625 34.921875 36.90625 33.71875 
L 26 6.390625 
L 14.09375 35.9375 
C 13.59375 37.15625 13.59375 37.859375 13.59375 37.96875 
C 13.59375 40.1875 15.90625 40.390625 18.296875 40.390625 
L 18.296875 43 
C 15.90625 42.796875 11.59375 42.796875 9.09375 42.796875 
C 6.40625 42.796875 3.203125 42.796875 1 43 
L 1 40.390625 
C 6.40625 40.390625 7 39.890625 8.296875 36.640625 
L 23.203125 -0.484375 
C 18.703125 -12.421875 16.09375 -19.40625 9.796875 -19.40625 
C 8.703125 -19.40625 6.203125 -19.109375 4.40625 -17.28125 
C 6.703125 -17.078125 7.703125 -15.65625 7.703125 -13.9375 
C 7.703125 -12.21875 6.5 -10.703125 4.5 -10.703125 
C 2.296875 -10.703125 1.203125 -12.21875 1.203125 -14.046875 
C 1.203125 -18.09375 5.296875 -21 9.796875 -21 
C 15.59375 -21 19.203125 -15.359375 21.203125 -10.296875 
z
" id="CMR17-121"/>
      </defs>
      <use transform="scale(0.996264)" xlink:href="#CMR17-97"/>
      <use transform="translate(45.690477 0)scale(0.996264)" xlink:href="#CMR17-99"/>
      <use transform="translate(86.176138 0)scale(0.996264)" xlink:href="#CMR17-99"/>
      <use transform="translate(126.661798 0)scale(0.996264)" xlink:href="#CMR17-117"/>
      <use transform="translate(177.557168 0)scale(0.996264)" xlink:href="#CMR17-114"/>
      <use transform="translate(212.837936 0)scale(0.996264)" xlink:href="#CMR17-97"/>
      <use transform="translate(258.528413 0)scale(0.996264)" xlink:href="#CMR17-99"/>
      <use transform="translate(299.014073 0)scale(0.996264)" xlink:href="#CMR17-121"/>
     </g>
    </g>
   </g>
   <g id="line2d_101">
    <path clip-path="url(#pe0884d69de)" d="M 71.979073 446.796997 
L 75.323728 119.196997 
L 78.668384 111.996997 
L 82.013039 83.196997 
L 85.357694 65.196997 
L 88.70235 104.796997 
L 92.047005 75.996997 
L 95.39166 101.196997 
L 98.736316 93.996997 
L 102.080971 83.196997 
L 105.425626 79.596997 
L 112.114937 93.996997 
L 115.459592 68.796997 
L 118.804248 68.796997 
L 122.148903 79.596997 
L 125.493558 61.596997 
L 132.182869 83.196997 
L 135.527525 72.396997 
L 138.87218 72.396997 
L 142.216835 104.796997 
L 145.561491 65.196997 
L 148.906146 75.996997 
L 152.250801 57.996997 
L 155.595457 65.196997 
L 158.940112 68.796997 
L 162.284767 79.596997 
L 165.629423 57.996997 
L 168.974078 57.996997 
L 172.318733 72.396997 
L 175.663389 65.196997 
L 179.008044 79.596997 
L 182.352699 68.796997 
L 185.697355 86.796997 
L 189.04201 65.196997 
L 192.386665 72.396997 
L 195.731321 54.396997 
L 199.075976 65.196997 
L 202.420631 65.196997 
L 205.765287 83.196997 
L 209.109942 61.596997 
L 212.454597 72.396997 
L 215.799253 72.396997 
L 219.143908 68.796997 
L 222.488563 50.796997 
L 225.833219 54.396997 
L 232.52253 68.796997 
L 235.867185 79.596997 
L 239.21184 65.196997 
L 249.245806 65.196997 
L 252.590462 68.796997 
L 255.935117 54.396997 
L 262.624428 54.396997 
L 265.969083 65.196997 
L 269.313738 61.596997 
L 272.658394 54.396997 
L 276.003049 54.396997 
L 279.347704 65.196997 
L 282.69236 68.796997 
L 286.037015 54.396997 
L 289.38167 65.196997 
L 292.726326 50.796997 
L 296.070981 65.196997 
L 299.415636 54.396997 
L 302.760292 65.196997 
L 306.104947 54.396997 
L 309.449602 61.596997 
L 312.794258 57.996997 
L 316.138913 50.796997 
L 319.483568 50.796997 
L 322.828224 43.596997 
L 326.172879 54.396997 
L 329.517535 57.996997 
L 332.86219 47.196997 
L 336.206845 47.196997 
L 339.551501 57.996997 
L 342.896156 65.196997 
L 346.240811 65.196997 
L 349.585467 68.796997 
L 352.930122 75.996997 
L 356.274777 54.396997 
L 359.619433 47.196997 
L 362.964088 57.996997 
L 366.308743 54.396997 
L 369.653399 75.996997 
L 372.998054 47.196997 
L 376.342709 47.196997 
L 379.687365 50.796997 
L 383.03202 43.596997 
L 386.376675 57.996997 
L 389.721331 50.796997 
L 396.410641 43.596997 
L 399.755297 54.396997 
L 403.099952 57.996997 
L 406.444607 47.196997 
L 409.789263 50.796997 
L 416.478573 50.796997 
L 419.823229 68.796997 
L 423.167884 57.996997 
L 426.51254 54.396997 
L 429.857195 54.396997 
L 433.20185 47.196997 
L 436.546506 57.996997 
L 439.891161 47.196997 
L 443.235816 50.796997 
L 446.580472 61.596997 
L 449.925127 50.796997 
L 453.269782 50.796997 
L 456.614438 47.196997 
L 459.959093 57.996997 
L 466.648404 43.596997 
L 469.993059 47.196997 
L 473.337714 47.196997 
L 476.68237 54.396997 
L 483.37168 54.396997 
L 486.716336 61.596997 
L 490.060991 47.196997 
L 493.405646 47.196997 
L 496.750302 57.996997 
L 500.094957 47.196997 
L 503.439612 54.396997 
L 506.784268 54.396997 
L 510.128923 47.196997 
L 513.473578 43.596997 
L 516.818234 57.996997 
L 520.162889 54.396997 
L 523.507545 57.996997 
L 526.8522 47.196997 
L 530.196855 54.396997 
L 533.541511 57.996997 
L 536.886166 47.196997 
L 540.230821 47.196997 
L 543.575477 50.796997 
L 546.920132 61.596997 
L 550.264787 43.596997 
L 553.609443 50.796997 
L 556.954098 50.796997 
L 560.298753 43.596997 
L 566.988064 50.796997 
L 570.332719 47.196997 
L 577.02203 54.396997 
L 580.366685 47.196997 
L 587.055996 47.196997 
L 590.400651 54.396997 
L 593.745307 47.196997 
L 597.089962 50.796997 
L 600.434617 43.596997 
L 603.779273 57.996997 
L 610.468583 43.596997 
L 613.813239 43.596997 
L 617.157894 47.196997 
L 620.50255 43.596997 
L 623.847205 47.196997 
L 627.19186 47.196997 
L 630.536516 43.596997 
L 633.881171 50.796997 
L 637.225826 43.596997 
L 643.915137 50.796997 
L 650.604448 43.596997 
L 653.949103 54.396997 
L 657.293758 43.596997 
L 660.638414 50.796997 
L 667.327724 50.796997 
L 670.67238 43.596997 
L 674.017035 50.796997 
L 677.36169 43.596997 
L 680.706346 47.196997 
L 680.706346 47.196997 
" style="fill:none;stroke:#cc6677;stroke-linecap:square;"/>
   </g>
   <g id="line2d_102">
    <path clip-path="url(#pe0884d69de)" d="M 71.979073 446.796997 
L 75.323728 133.596997 
L 78.668384 111.996997 
L 82.013039 83.196997 
L 85.357694 65.196997 
L 88.70235 108.396997 
L 92.047005 86.796997 
L 95.39166 86.796997 
L 98.736316 119.196997 
L 102.080971 86.796997 
L 105.425626 72.396997 
L 108.770282 83.196997 
L 112.114937 90.396997 
L 115.459592 61.596997 
L 118.804248 57.996997 
L 122.148903 68.796997 
L 125.493558 57.996997 
L 128.838214 68.796997 
L 132.182869 86.796997 
L 135.527525 61.596997 
L 138.87218 83.196997 
L 142.216835 90.396997 
L 145.561491 72.396997 
L 148.906146 79.596997 
L 152.250801 72.396997 
L 155.595457 68.796997 
L 158.940112 54.396997 
L 162.284767 75.996997 
L 165.629423 54.396997 
L 168.974078 57.996997 
L 172.318733 68.796997 
L 175.663389 68.796997 
L 179.008044 79.596997 
L 182.352699 72.396997 
L 185.697355 79.596997 
L 189.04201 65.196997 
L 192.386665 72.396997 
L 195.731321 65.196997 
L 199.075976 65.196997 
L 202.420631 75.996997 
L 205.765287 79.596997 
L 209.109942 65.196997 
L 215.799253 72.396997 
L 219.143908 65.196997 
L 222.488563 61.596997 
L 225.833219 65.196997 
L 229.177874 57.996997 
L 232.52253 72.396997 
L 235.867185 57.996997 
L 239.21184 54.396997 
L 245.901151 54.396997 
L 249.245806 72.396997 
L 252.590462 72.396997 
L 255.935117 54.396997 
L 259.279772 61.596997 
L 262.624428 50.796997 
L 265.969083 68.796997 
L 269.313738 61.596997 
L 272.658394 47.196997 
L 276.003049 61.596997 
L 279.347704 50.796997 
L 282.69236 65.196997 
L 286.037015 54.396997 
L 289.38167 72.396997 
L 296.070981 50.796997 
L 299.415636 65.196997 
L 302.760292 43.596997 
L 306.104947 54.396997 
L 309.449602 57.996997 
L 312.794258 50.796997 
L 316.138913 61.596997 
L 319.483568 57.996997 
L 322.828224 47.196997 
L 326.172879 61.596997 
L 329.517535 57.996997 
L 332.86219 43.596997 
L 336.206845 47.196997 
L 339.551501 68.796997 
L 342.896156 72.396997 
L 346.240811 57.996997 
L 349.585467 57.996997 
L 352.930122 72.396997 
L 356.274777 43.596997 
L 359.619433 43.596997 
L 362.964088 54.396997 
L 366.308743 54.396997 
L 369.653399 57.996997 
L 376.342709 50.796997 
L 379.687365 50.796997 
L 383.03202 47.196997 
L 389.721331 47.196997 
L 393.065986 57.996997 
L 396.410641 61.596997 
L 399.755297 61.596997 
L 403.099952 50.796997 
L 406.444607 47.196997 
L 409.789263 47.196997 
L 413.133918 61.596997 
L 416.478573 57.996997 
L 419.823229 47.196997 
L 423.167884 54.396997 
L 429.857195 54.396997 
L 433.20185 47.196997 
L 436.546506 47.196997 
L 439.891161 50.796997 
L 443.235816 43.596997 
L 446.580472 43.596997 
L 449.925127 47.196997 
L 453.269782 54.396997 
L 459.959093 47.196997 
L 466.648404 47.196997 
L 469.993059 54.396997 
L 473.337714 47.196997 
L 480.027025 61.596997 
L 483.37168 50.796997 
L 490.060991 50.796997 
L 493.405646 43.596997 
L 496.750302 50.796997 
L 500.094957 43.596997 
L 503.439612 50.796997 
L 506.784268 50.796997 
L 510.128923 43.596997 
L 513.473578 54.396997 
L 520.162889 47.196997 
L 523.507545 50.796997 
L 526.8522 43.596997 
L 530.196855 47.196997 
L 533.541511 43.596997 
L 536.886166 54.396997 
L 540.230821 54.396997 
L 543.575477 43.596997 
L 546.920132 57.996997 
L 550.264787 47.196997 
L 553.609443 50.796997 
L 556.954098 50.796997 
L 560.298753 47.196997 
L 563.643409 47.196997 
L 566.988064 50.796997 
L 570.332719 47.196997 
L 573.677375 50.796997 
L 577.02203 47.196997 
L 580.366685 47.196997 
L 583.711341 43.596997 
L 587.055996 50.796997 
L 590.400651 47.196997 
L 593.745307 50.796997 
L 597.089962 57.996997 
L 600.434617 43.596997 
L 603.779273 50.796997 
L 610.468583 43.596997 
L 613.813239 43.596997 
L 617.157894 50.796997 
L 620.50255 47.196997 
L 627.19186 47.196997 
L 630.536516 50.796997 
L 637.225826 50.796997 
L 640.570482 54.396997 
L 643.915137 47.196997 
L 647.259792 50.796997 
L 650.604448 47.196997 
L 653.949103 65.196997 
L 657.293758 50.796997 
L 660.638414 47.196997 
L 663.983069 47.196997 
L 667.327724 43.596997 
L 670.67238 47.196997 
L 674.017035 47.196997 
L 677.36169 43.596997 
L 680.706346 50.796997 
L 680.706346 50.796997 
" style="fill:none;stroke:#332288;stroke-linecap:square;"/>
   </g>
   <g id="patch_3">
    <path d="M 41.542709 466.956997 
L 41.542709 23.436997 
" style="fill:none;stroke:#000000;stroke-linecap:square;stroke-linejoin:miter;stroke-width:0.5;"/>
   </g>
   <g id="patch_4">
    <path d="M 711.142709 466.956997 
L 711.142709 23.436997 
" style="fill:none;stroke:#000000;stroke-linecap:square;stroke-linejoin:miter;stroke-width:0.5;"/>
   </g>
   <g id="patch_5">
    <path d="M 41.542709 466.956997 
L 711.142709 466.956997 
" style="fill:none;stroke:#000000;stroke-linecap:square;stroke-linejoin:miter;stroke-width:0.5;"/>
   </g>
   <g id="patch_6">
    <path d="M 41.542709 23.436997 
L 711.142709 23.436997 
" style="fill:none;stroke:#000000;stroke-linecap:square;stroke-linejoin:miter;stroke-width:0.5;"/>
   </g>
   <g id="text_13">
    <!-- Accuracy on train batch -->
    <g transform="translate(279.326128 17.436997)scale(0.2 -0.2)">
     <defs>
      <path d="M 36.296875 69.390625 
C 35.796875 70.6875 35.59375 71 34.59375 71 
C 33.59375 71 33.40625 70.6875 32.90625 69.390625 
L 11.703125 9.0625 
C 9.796875 3.6875 5.796875 2.59375 2.296875 2.59375 
L 2.296875 0 
C 4.09375 0.1875 8.09375 0.1875 10 0.1875 
C 12.5 0.1875 16.5 0.1875 18.90625 0 
L 18.90625 2.59375 
C 14.203125 2.796875 13.5 5.96875 13.5 7.171875 
C 13.5 8.0625 13.703125 8.5625 13.90625 9.15625 
L 19.203125 24 
L 45.40625 24 
L 51.40625 7.078125 
C 51.90625 5.875 51.90625 5.671875 51.90625 5.28125 
C 51.90625 2.59375 47.59375 2.59375 45.703125 2.59375 
L 45.703125 0 
C 48.59375 0.1875 53.796875 0.1875 56.90625 0.1875 
C 59.5 0.1875 64.5 0.1875 66.90625 0 
L 66.90625 2.59375 
C 61.59375 2.59375 59.796875 2.59375 58.5 6.28125 
z
M 32.296875 61.3125 
L 44.5 26.59375 
L 20.09375 26.59375 
z
" id="CMR17-65"/>
      <path d="M 15 69 
L 3.09375 67.890625 
L 3.09375 65.296875 
C 9 65.296875 9.90625 64.703125 9.90625 60.046875 
L 9.90625 -0.203125 
L 11.703125 -0.203125 
L 14.59375 6.953125 
C 17.5 2.203125 21.796875 -1 27.59375 -1 
C 37.59375 -1 47.703125 7.859375 47.703125 21.59375 
C 47.703125 34.515625 38.703125 44 28.59375 44 
C 22.40625 44 18 40.671875 15 36.734375 
z
M 15.203125 31.59375 
C 15.203125 33.40625 15.203125 33.703125 16.59375 35.828125 
C 20.5 41.890625 26.09375 42.390625 28 42.390625 
C 31 42.390625 41.296875 40.78125 41.296875 21.6875 
C 41.296875 1.703125 29.5 0.59375 27.09375 0.59375 
C 24 0.59375 19.5 1.796875 16.296875 7.65625 
C 15.203125 9.578125 15.203125 9.78125 15.203125 11.59375 
z
" id="CMR17-98"/>
      <path d="M 41.5 30.53125 
C 41.5 35.65625 40.5 44 28.703125 44 
C 20.5 44 16.5 37.375 15.296875 34.046875 
L 15.203125 34.046875 
L 15.203125 69 
L 3.296875 67.890625 
L 3.296875 65.296875 
C 9.203125 65.296875 10.09375 64.703125 10.09375 60.046875 
L 10.09375 6.921875 
C 10.09375 3.09375 9.703125 2.59375 3.296875 2.59375 
L 3.296875 0 
C 5.703125 0.1875 10.09375 0.1875 12.703125 0.1875 
C 15.296875 0.1875 19.796875 0.1875 22.203125 0 
L 22.203125 2.59375 
C 15.796875 2.59375 15.40625 3 15.40625 6.921875 
L 15.40625 26.21875 
C 15.40625 35.453125 21 42.390625 28 42.390625 
C 35.40625 42.390625 36.203125 35.765625 36.203125 30.9375 
L 36.203125 6.921875 
C 36.203125 3.09375 35.796875 2.59375 29.40625 2.59375 
L 29.40625 0 
C 31.796875 0.1875 36.203125 0.1875 38.796875 0.1875 
C 41.40625 0.1875 45.90625 0.1875 48.296875 0 
L 48.296875 2.59375 
C 41.90625 2.59375 41.5 3 41.5 6.921875 
z
" id="CMR17-104"/>
     </defs>
     <use transform="scale(0.996264)" xlink:href="#CMR17-65"/>
     <use transform="translate(69.07243 0)scale(0.996264)" xlink:href="#CMR17-99"/>
     <use transform="translate(109.55809 0)scale(0.996264)" xlink:href="#CMR17-99"/>
     <use transform="translate(150.043751 0)scale(0.996264)" xlink:href="#CMR17-117"/>
     <use transform="translate(200.939121 0)scale(0.996264)" xlink:href="#CMR17-114"/>
     <use transform="translate(236.219888 0)scale(0.996264)" xlink:href="#CMR17-97"/>
     <use transform="translate(281.910365 0)scale(0.996264)" xlink:href="#CMR17-99"/>
     <use transform="translate(322.396026 0)scale(0.996264)" xlink:href="#CMR17-121"/>
     <use transform="translate(400.764908 0)scale(0.996264)" xlink:href="#CMR17-111"/>
     <use transform="translate(446.455385 0)scale(0.996264)" xlink:href="#CMR17-110"/>
     <use transform="translate(527.426721 0)scale(0.996264)" xlink:href="#CMR17-116"/>
     <use transform="translate(562.707489 0)scale(0.996264)" xlink:href="#CMR17-114"/>
     <use transform="translate(597.988257 0)scale(0.996264)" xlink:href="#CMR17-97"/>
     <use transform="translate(643.678734 0)scale(0.996264)" xlink:href="#CMR17-105"/>
     <use transform="translate(668.549793 0)scale(0.996264)" xlink:href="#CMR17-110"/>
     <use transform="translate(749.521129 0)scale(0.996264)" xlink:href="#CMR17-98"/>
     <use transform="translate(800.416498 0)scale(0.996264)" xlink:href="#CMR17-97"/>
     <use transform="translate(846.106976 0)scale(0.996264)" xlink:href="#CMR17-116"/>
     <use transform="translate(881.387743 0)scale(0.996264)" xlink:href="#CMR17-99"/>
     <use transform="translate(919.27095 0)scale(0.996264)" xlink:href="#CMR17-104"/>
    </g>
   </g>
   <g id="legend_1">
    <g id="patch_7">
     <path d="M 507.841906 461.956997 
L 704.142709 461.956997 
Q 706.142709 461.956997 706.142709 459.956997 
L 706.142709 432.880756 
Q 706.142709 430.880756 704.142709 430.880756 
L 507.841906 430.880756 
Q 505.841906 430.880756 505.841906 432.880756 
L 505.841906 459.956997 
Q 505.841906 461.956997 507.841906 461.956997 
z
" style="fill:#ffffff;opacity:0.8;stroke:#cccccc;stroke-linejoin:miter;"/>
    </g>
    <g id="line2d_103">
     <path d="M 509.841906 438.380756 
L 529.841906 438.380756 
" style="fill:none;stroke:#cc6677;stroke-linecap:square;"/>
    </g>
    <g id="line2d_104"/>
    <g id="text_14">
     <!-- Naive PyTorch with step-by-step -->
     <g transform="translate(537.841906 441.880756)scale(0.1 -0.1)">
      <defs>
       <path d="M 20.5 66.796875 
C 19.796875 67.890625 19.703125 68 17.796875 68 
L 5.09375 68 
L 5.09375 65.390625 
L 7 65.390625 
C 11 65.390625 12.796875 64.890625 13.09375 64.796875 
L 13.09375 9.75 
C 13.09375 7.265625 13.09375 2.59375 5.09375 2.59375 
L 5.09375 0 
C 7.40625 0.1875 11.59375 0.1875 14.09375 0.1875 
C 16.59375 0.1875 20.796875 0.1875 23.09375 0 
L 23.09375 2.59375 
C 15.09375 2.59375 15.09375 7.265625 15.09375 9.75 
L 15.09375 63.390625 
C 15.796875 62.796875 15.796875 62.609375 16.5 61.609375 
L 53.59375 1.1875 
C 54.296875 0 54.59375 0 55.09375 0 
C 56.09375 0 56.09375 0.296875 56.09375 2.1875 
L 56.09375 58.21875 
C 56.09375 60.703125 56.09375 65.390625 64.09375 65.390625 
L 64.09375 68 
C 61.796875 67.796875 57.59375 67.796875 55.09375 67.796875 
C 52.59375 67.796875 48.40625 67.796875 46.09375 68 
L 46.09375 65.390625 
C 54.09375 65.390625 54.09375 60.703125 54.09375 58.21875 
L 54.09375 12.140625 
z
" id="CMR17-78"/>
       <path d="M 39.09375 33.953125 
C 40 36.171875 41.59375 40.1875 47.40625 40.390625 
L 47.40625 43 
C 45.5 42.890625 43 42.796875 41.09375 42.796875 
C 39 42.796875 35.703125 42.796875 33.703125 43 
L 33.703125 40.390625 
C 36.203125 40.1875 37.59375 38.984375 37.59375 36.375 
C 37.59375 35.46875 37.59375 35.265625 37 33.859375 
L 26 5.921875 
L 14.09375 36.0625 
C 13.5 37.375 13.5 37.578125 13.5 37.984375 
C 13.5 40.390625 16.796875 40.390625 18.296875 40.390625 
L 18.296875 43 
C 15.90625 42.796875 11.5 42.796875 9 42.796875 
C 6.296875 42.796875 3.203125 42.796875 1 43 
L 1 40.390625 
C 4.796875 40.390625 6.90625 40.390625 8.09375 37.28125 
L 22.59375 0.6875 
C 23.203125 -0.8125 23.296875 -1 24.203125 -1 
C 25.09375 -1 25.203125 -0.8125 25.796875 0.6875 
z
" id="CMR17-118"/>
       <path d="M 19.796875 32 
L 35.796875 32 
C 48.703125 32 58.09375 40.359375 58.09375 49.796875 
C 58.09375 59.234375 48.90625 68 35.796875 68 
L 5.203125 68 
L 5.203125 65.390625 
C 12.09375 65.390625 13.203125 65.390625 13.203125 60.921875 
L 13.203125 7.078125 
C 13.203125 2.59375 12.09375 2.59375 5.203125 2.59375 
L 5.203125 0 
C 8.09375 0.1875 13.40625 0.1875 16.5 0.1875 
C 19.59375 0.1875 24.90625 0.1875 27.796875 0 
L 27.796875 2.59375 
C 20.90625 2.59375 19.796875 2.59375 19.796875 7.078125 
z
M 19.59375 34.09375 
L 19.59375 61.515625 
C 19.59375 64.890625 19.796875 65.390625 23.796875 65.390625 
L 33.90625 65.390625 
C 46.796875 65.390625 50.5 58.046875 50.5 49.796875 
C 50.5 40.75 46.09375 34.09375 33.90625 34.09375 
z
" id="CMR17-80"/>
       <path d="M 62.203125 67.6875 
L 4.5 67.6875 
L 2.796875 45.6875 
L 4.59375 45.6875 
C 5.90625 62.203125 7.296875 65.09375 22.703125 65.09375 
C 24.5 65.09375 27.40625 65.09375 28.203125 64.984375 
C 30.09375 64.6875 30.09375 63.5 30.09375 61.203125 
L 30.09375 7.265625 
C 30.09375 3.6875 29.796875 2.59375 21.5 2.59375 
L 18.703125 2.59375 
L 18.703125 0 
C 23.5 0.09375 28.5 0.1875 33.40625 0.1875 
C 38.296875 0.1875 43.296875 0.09375 48.09375 0 
L 48.09375 2.59375 
L 45.296875 2.59375 
C 37 2.59375 36.703125 3.6875 36.703125 7.265625 
L 36.703125 61.203125 
C 36.703125 63.390625 36.703125 64.59375 38.5 64.984375 
C 39.296875 65.09375 42.203125 65.09375 44 65.09375 
C 59.296875 65.09375 60.796875 62.203125 62.09375 45.6875 
L 63.90625 45.6875 
z
" id="CMR17-84"/>
       <path d="M 58.203125 34.15625 
C 60.203125 40.09375 64.203125 40.296875 65.703125 40.390625 
L 65.703125 43 
C 63.703125 42.890625 61.703125 42.796875 59.703125 42.796875 
C 57.796875 42.796875 53.5 42.796875 51.796875 43 
L 51.796875 40.390625 
C 54.90625 40.1875 56.59375 38.375 56.59375 35.875 
C 56.59375 35.171875 56.40625 34.265625 56.203125 33.5625 
L 46.796875 6.21875 
L 36.59375 35.875 
C 36.40625 36.578125 36.09375 37.375 36.09375 37.78125 
C 36.09375 40.390625 39.5 40.390625 41.09375 40.390625 
L 41.09375 43 
C 38.796875 42.796875 34.59375 42.796875 32.203125 42.796875 
C 29.703125 42.796875 27.09375 42.796875 24.796875 43 
L 24.796875 40.390625 
C 30.296875 40.390625 30.296875 40.1875 32.40625 33.859375 
L 23.203125 6.921875 
L 13.296875 35.96875 
C 12.796875 37.28125 12.796875 37.484375 12.796875 37.78125 
C 12.796875 40.390625 16.203125 40.390625 17.796875 40.390625 
L 17.796875 43 
C 15.40625 42.796875 11.203125 42.796875 8.703125 42.796875 
C 6.5 42.796875 3.09375 42.796875 1 43 
L 1 40.390625 
C 5.40625 40.390625 6.5 40.09375 7.59375 36.765625 
L 19.90625 0.59375 
C 20.296875 -0.703125 20.59375 -1 21.40625 -1 
C 22.09375 -1 22.5 -0.8125 23 0.6875 
L 33.296875 31.046875 
L 43.703125 0.6875 
C 44.203125 -0.8125 44.59375 -1 45.296875 -1 
C 46.09375 -1 46.40625 -0.703125 46.796875 0.59375 
z
" id="CMR17-119"/>
       <path d="M 30.90625 42 
C 30.90625 43.796875 30.796875 43.890625 30.203125 43.890625 
C 29.796875 43.890625 29.703125 43.796875 28.5 42.296875 
C 28.203125 41.890625 27.296875 40.890625 27 40.5 
C 23.796875 43.890625 19.296875 44 17.59375 44 
C 6.5 44 2.5 38.1875 2.5 32.390625 
C 2.5 23.390625 12.703125 21.296875 15.59375 20.6875 
C 21.90625 19.390625 24.09375 19 26.203125 17.1875 
C 27.5 16 29.703125 13.796875 29.703125 10.1875 
C 29.703125 6 27.296875 0.59375 18.09375 0.59375 
C 9.40625 0.59375 6.296875 7.1875 4.5 16 
C 4.203125 17.390625 4.203125 17.5 3.40625 17.5 
C 2.59375 17.5 2.5 17.390625 2.5 15.390625 
L 2.5 1 
C 2.5 -0.8125 2.59375 -0.90625 3.203125 -0.90625 
C 3.703125 -0.90625 3.796875 -0.8125 4.296875 0 
C 4.90625 0.890625 6.40625 3.296875 7 4.296875 
C 9 1.59375 12.5 -1 18.09375 -1 
C 28 -1 33.296875 4.390625 33.296875 12.1875 
C 33.296875 17.296875 30.59375 20 29.296875 21.1875 
C 26.296875 24.296875 22.796875 25 18.59375 25.796875 
C 13.09375 27 6.09375 28.390625 6.09375 34.5 
C 6.09375 37.09375 7.5 42.59375 17.59375 42.59375 
C 28.296875 42.59375 28.90625 32.59375 29.09375 29.390625 
C 29.203125 28.890625 29.703125 28.796875 30 28.796875 
C 30.90625 28.796875 30.90625 29.09375 30.90625 30.796875 
z
" id="CMR17-115"/>
       <path d="M 22 -17.40625 
C 15.59375 -17.40625 15.203125 -17 15.203125 -13.03125 
L 15.203125 5.9375 
C 18.09375 1.703125 22.296875 -1 27.59375 -1 
C 37.59375 -1 47.703125 7.859375 47.703125 21.59375 
C 47.703125 34.3125 39 44 28.703125 44 
C 22.703125 44 17.796875 40.671875 15 36.640625 
L 15 44 
L 3.09375 42.890625 
L 3.09375 40.265625 
C 9 40.265625 9.90625 39.671875 9.90625 34.8125 
L 9.90625 -13.03125 
C 9.90625 -16.890625 9.5 -17.40625 3.09375 -17.40625 
L 3.09375 -20 
C 5.5 -19.8125 9.90625 -19.8125 12.5 -19.8125 
C 15.09375 -19.8125 19.59375 -19.8125 22 -20 
z
M 15.203125 31.484375 
C 15.203125 32.90625 15.203125 35.015625 19.09375 38.765625 
C 19.59375 39.15625 23 42.1875 28 42.1875 
C 35.296875 42.1875 41.296875 33 41.296875 21.5 
C 41.296875 9.984375 34.90625 0.59375 27 0.59375 
C 23.40625 0.59375 19.5 2.3125 16.5 7.046875 
C 15.203125 9.28125 15.203125 9.875 15.203125 11.5 
z
" id="CMR17-112"/>
       <path d="M 25.5 19.59375 
L 25.5 24 
L 0.40625 24 
L 0.40625 19.59375 
z
" id="CMR17-45"/>
      </defs>
      <use transform="scale(0.996264)" xlink:href="#CMR17-78"/>
      <use transform="translate(69.07243 0)scale(0.996264)" xlink:href="#CMR17-97"/>
      <use transform="translate(114.762907 0)scale(0.996264)" xlink:href="#CMR17-105"/>
      <use transform="translate(139.633965 0)scale(0.996264)" xlink:href="#CMR17-118"/>
      <use transform="translate(185.324427 0)scale(0.996264)" xlink:href="#CMR17-101"/>
      <use transform="translate(255.886054 0)scale(0.996264)" xlink:href="#CMR17-80"/>
      <use transform="translate(318.472355 0)scale(0.996264)" xlink:href="#CMR17-121"/>
      <use transform="translate(366.76527 0)scale(0.996264)" xlink:href="#CMR17-84"/>
      <use transform="translate(425.467896 0)scale(0.996264)" xlink:href="#CMR17-111"/>
      <use transform="translate(471.158373 0)scale(0.996264)" xlink:href="#CMR17-114"/>
      <use transform="translate(506.439141 0)scale(0.996264)" xlink:href="#CMR17-99"/>
      <use transform="translate(544.322347 0)scale(0.996264)" xlink:href="#CMR17-104"/>
      <use transform="translate(625.293683 0)scale(0.996264)" xlink:href="#CMR17-119"/>
      <use transform="translate(691.803564 0)scale(0.996264)" xlink:href="#CMR17-105"/>
      <use transform="translate(716.674622 0)scale(0.996264)" xlink:href="#CMR17-116"/>
      <use transform="translate(751.95539 0)scale(0.996264)" xlink:href="#CMR17-104"/>
      <use transform="translate(832.926726 0)scale(0.996264)" xlink:href="#CMR17-115"/>
      <use transform="translate(868.728064 0)scale(0.996264)" xlink:href="#CMR17-116"/>
      <use transform="translate(904.008832 0)scale(0.996264)" xlink:href="#CMR17-101"/>
      <use transform="translate(944.494492 0)scale(0.996264)" xlink:href="#CMR17-112"/>
      <use transform="translate(995.389862 0)scale(0.996264)" xlink:href="#CMR17-45"/>
      <use transform="translate(1025.465828 0)scale(0.996264)" xlink:href="#CMR17-98"/>
      <use transform="translate(1073.758744 0)scale(0.996264)" xlink:href="#CMR17-121"/>
      <use transform="translate(1122.05166 0)scale(0.996264)" xlink:href="#CMR17-45"/>
      <use transform="translate(1152.127626 0)scale(0.996264)" xlink:href="#CMR17-115"/>
      <use transform="translate(1187.928964 0)scale(0.996264)" xlink:href="#CMR17-116"/>
      <use transform="translate(1223.209732 0)scale(0.996264)" xlink:href="#CMR17-101"/>
      <use transform="translate(1263.695392 0)scale(0.996264)" xlink:href="#CMR17-112"/>
     </g>
    </g>
    <g id="line2d_105">
     <path d="M 509.841906 452.519818 
L 529.841906 452.519818 
" style="fill:none;stroke:#332288;stroke-linecap:square;"/>
    </g>
    <g id="line2d_106"/>
    <g id="text_15">
     <!-- CUDA Multi-Step with layer-by-layer -->
     <g transform="translate(537.841906 456.019818)scale(0.1 -0.1)">
      <defs>
       <path d="M 62.09375 67.984375 
C 62.09375 69.796875 62 69.890625 61.40625 69.890625 
C 61 69.890625 60.90625 69.796875 60.203125 68.59375 
L 55.796875 60.140625 
C 50.90625 66.390625 44.90625 70 37.203125 70 
C 20.09375 70 4.59375 54.796875 4.59375 34.046875 
C 4.59375 13.078125 20.09375 -2 37.296875 -2 
C 52.59375 -2 62.09375 11.578125 62.09375 23.15625 
C 62.09375 24.171875 62.09375 24.578125 61.203125 24.578125 
C 60.40625 24.578125 60.40625 24.265625 60.296875 23.359375 
C 59.5 9.25 49.5 0.59375 38.703125 0.59375 
C 28.5 0.59375 12.203125 7.84375 12.203125 34.046875 
C 12.203125 60.34375 28.796875 67.390625 38.5 67.390625 
C 49.796875 67.390625 58 57.515625 59.90625 43.515625 
C 60.09375 42.296875 60.09375 42.109375 61 42.109375 
C 62.09375 42.109375 62.09375 42.296875 62.09375 44.125 
z
" id="CMR17-67"/>
       <path d="M 54 22.53125 
C 54 9.109375 45.296875 0.59375 35.796875 0.59375 
C 30.703125 0.59375 26.09375 3.296875 23.296875 7.5 
C 20.09375 12.3125 19.703125 18.515625 19.703125 22.03125 
L 19.703125 60.890625 
C 19.703125 65.390625 20.796875 65.390625 27.703125 65.390625 
L 27.703125 68 
C 24.796875 67.796875 19.5 67.796875 16.40625 67.796875 
C 13.296875 67.796875 8 67.796875 5.09375 68 
L 5.09375 65.390625 
C 12 65.390625 13.09375 65.390625 13.09375 60.890625 
L 13.09375 22.53125 
C 13.09375 8.109375 24 -2 35.59375 -2 
C 48.59375 -2 56.09375 11.3125 56.09375 21.125 
L 56.09375 59.1875 
C 56.09375 64.796875 61.203125 65.390625 64.09375 65.390625 
L 64.09375 68 
C 61.796875 67.796875 57.59375 67.796875 55.09375 67.796875 
C 52.59375 67.796875 48.296875 67.796875 46 68 
L 46 65.390625 
C 54 65.390625 54 60.6875 54 58.1875 
z
" id="CMR17-85"/>
       <path d="M 5.203125 68 
L 5.203125 65.390625 
C 12.09375 65.390625 13.203125 65.390625 13.203125 60.90625 
L 13.203125 7.078125 
C 13.203125 2.59375 12.09375 2.59375 5.203125 2.59375 
L 5.203125 0 
L 37 0 
C 53.09375 0 66 14.734375 66 33.4375 
C 66 52.25 53.296875 68 37 68 
z
M 23.796875 2.59375 
C 19.796875 2.59375 19.59375 3.09375 19.59375 6.46875 
L 19.59375 61.5 
C 19.59375 64.890625 19.796875 65.390625 23.796875 65.390625 
L 35 65.390625 
C 43.296875 65.390625 58.59375 60.515625 58.59375 33.4375 
C 58.59375 19.40625 54.5 13.734375 52.59375 11.046875 
C 50.203125 7.96875 44.5 2.59375 35 2.59375 
z
" id="CMR17-68"/>
       <path d="M 20.90625 66.390625 
C 20.296875 67.890625 20.203125 68 18.09375 68 
L 5.296875 68 
L 5.296875 65.390625 
C 12.203125 65.390625 13.296875 65.390625 13.296875 60.90625 
L 13.296875 9.75 
C 13.296875 7.265625 13.296875 2.59375 5.296875 2.59375 
L 5.296875 0 
C 7.59375 0.1875 11.796875 0.1875 14.296875 0.1875 
C 16.796875 0.1875 21 0.1875 23.296875 0 
L 23.296875 2.59375 
C 15.296875 2.59375 15.296875 7.265625 15.296875 9.75 
L 15.296875 64.984375 
L 15.40625 64.984375 
L 38.90625 1.59375 
C 39.296875 0.59375 39.5 0 40.296875 0 
C 41.09375 0 41.296875 0.59375 41.703125 1.59375 
L 65.40625 65.484375 
L 65.5 65.484375 
L 65.5 7.078125 
C 65.5 2.59375 64.40625 2.59375 57.5 2.59375 
L 57.5 0 
C 60.203125 0.1875 65.59375 0.1875 68.5 0.1875 
C 71.40625 0.1875 76.90625 0.1875 79.59375 0 
L 79.59375 2.59375 
C 72.703125 2.59375 71.59375 2.59375 71.59375 7.078125 
L 71.59375 60.90625 
C 71.59375 65.390625 72.703125 65.390625 79.59375 65.390625 
L 79.59375 68 
L 66.90625 68 
C 64.796875 68 64.703125 67.890625 64.09375 66.390625 
L 42.5 8.0625 
z
" id="CMR17-77"/>
       <path d="M 15.296875 69 
L 3.40625 67.890625 
L 3.40625 65.296875 
C 9.296875 65.296875 10.203125 64.703125 10.203125 59.921875 
L 10.203125 6.859375 
C 10.203125 3.09375 9.796875 2.59375 3.40625 2.59375 
L 3.40625 0 
C 5.796875 0.1875 10.203125 0.1875 12.703125 0.1875 
C 15.296875 0.1875 19.703125 0.1875 22.09375 0 
L 22.09375 2.59375 
C 15.703125 2.59375 15.296875 2.984375 15.296875 6.859375 
z
" id="CMR17-108"/>
       <path d="M 43.796875 67.984375 
C 43.796875 69.796875 43.703125 69.890625 43.09375 69.890625 
C 42.5 69.890625 42.296875 69.484375 41.90625 68.59375 
L 38.90625 61.953125 
C 35.09375 67.5 29.296875 70 23 70 
C 12.796875 70 4.59375 61.84375 4.59375 51.578125 
C 4.59375 48.453125 5.296875 44.015625 8.703125 39.78125 
C 12.40625 35.15625 15.90625 34.34375 23.90625 32.234375 
C 26.90625 31.421875 31.90625 30.109375 32.90625 29.703125 
C 38.59375 27.296875 41.59375 21.25 41.59375 15.609375 
C 41.59375 8.34375 36.5 0.59375 27.796875 0.59375 
C 17.09375 0.59375 7.09375 6.640625 6.40625 20.75 
C 6.296875 22.359375 6.203125 22.453125 5.5 22.453125 
C 4.703125 22.453125 4.59375 22.359375 4.59375 20.34375 
L 4.59375 0 
C 4.59375 -1.8125 4.703125 -1.90625 5.296875 -1.90625 
C 6 -1.90625 6.203125 -1.40625 7.59375 1.703125 
C 7.703125 2 7.703125 2.203125 9.59375 6.03125 
C 14.59375 -0.609375 23 -2 27.796875 -2 
C 38.703125 -2 46.40625 7.140625 46.40625 17.828125 
C 46.40625 23.0625 44.5 27.09375 43.40625 28.90625 
C 39.203125 35.359375 34.703125 36.5625 29.90625 37.765625 
C 29.203125 38.078125 29 38.078125 23.40625 39.484375 
C 18 40.890625 15.703125 41.59375 13.203125 44.3125 
C 10.40625 47.4375 9.40625 50.671875 9.40625 53.890625 
C 9.40625 60.4375 14.59375 67.59375 23.09375 67.59375 
C 33.703125 67.59375 40.296875 60.03125 41.796875 47.4375 
C 42.09375 45.625 42.203125 45.53125 42.90625 45.53125 
C 43.796875 45.53125 43.796875 45.828125 43.796875 47.546875 
z
" id="CMR17-83"/>
      </defs>
      <use transform="scale(0.996264)" xlink:href="#CMR17-67"/>
      <use transform="translate(66.509881 0)scale(0.996264)" xlink:href="#CMR17-85"/>
      <use transform="translate(135.58231 0)scale(0.996264)" xlink:href="#CMR17-68"/>
      <use transform="translate(203.373412 0)scale(0.996264)" xlink:href="#CMR17-65"/>
      <use transform="translate(302.521808 0)scale(0.996264)" xlink:href="#CMR17-77"/>
      <use transform="translate(387.208749 0)scale(0.996264)" xlink:href="#CMR17-117"/>
      <use transform="translate(438.104119 0)scale(0.996264)" xlink:href="#CMR17-108"/>
      <use transform="translate(462.975177 0)scale(0.996264)" xlink:href="#CMR17-116"/>
      <use transform="translate(498.255945 0)scale(0.996264)" xlink:href="#CMR17-105"/>
      <use transform="translate(523.127004 0)scale(0.996264)" xlink:href="#CMR17-45"/>
      <use transform="translate(553.20297 0)scale(0.996264)" xlink:href="#CMR17-83"/>
      <use transform="translate(604.09834 0)scale(0.996264)" xlink:href="#CMR17-116"/>
      <use transform="translate(639.379108 0)scale(0.996264)" xlink:href="#CMR17-101"/>
      <use transform="translate(679.864768 0)scale(0.996264)" xlink:href="#CMR17-112"/>
      <use transform="translate(760.836104 0)scale(0.996264)" xlink:href="#CMR17-119"/>
      <use transform="translate(827.345985 0)scale(0.996264)" xlink:href="#CMR17-105"/>
      <use transform="translate(852.217043 0)scale(0.996264)" xlink:href="#CMR17-116"/>
      <use transform="translate(887.497811 0)scale(0.996264)" xlink:href="#CMR17-104"/>
      <use transform="translate(968.469147 0)scale(0.996264)" xlink:href="#CMR17-108"/>
      <use transform="translate(993.340206 0)scale(0.996264)" xlink:href="#CMR17-97"/>
      <use transform="translate(1036.428229 0)scale(0.996264)" xlink:href="#CMR17-121"/>
      <use transform="translate(1082.118691 0)scale(0.996264)" xlink:href="#CMR17-101"/>
      <use transform="translate(1122.604351 0)scale(0.996264)" xlink:href="#CMR17-114"/>
      <use transform="translate(1157.885119 0)scale(0.996264)" xlink:href="#CMR17-45"/>
      <use transform="translate(1187.961085 0)scale(0.996264)" xlink:href="#CMR17-98"/>
      <use transform="translate(1236.254001 0)scale(0.996264)" xlink:href="#CMR17-121"/>
      <use transform="translate(1284.546917 0)scale(0.996264)" xlink:href="#CMR17-45"/>
      <use transform="translate(1314.622883 0)scale(0.996264)" xlink:href="#CMR17-108"/>
      <use transform="translate(1339.493942 0)scale(0.996264)" xlink:href="#CMR17-97"/>
      <use transform="translate(1382.581965 0)scale(0.996264)" xlink:href="#CMR17-121"/>
      <use transform="translate(1428.272427 0)scale(0.996264)" xlink:href="#CMR17-101"/>
      <use transform="translate(1468.758087 0)scale(0.996264)" xlink:href="#CMR17-114"/>
     </g>
    </g>
   </g>
  </g>
 </g>
 <defs>
  <clipPath id="pe0884d69de">
   <rect height="443.52" width="669.6" x="41.542709" y="23.436997"/>
  </clipPath>
 </defs>
</svg>
