<?xml version="1.0" encoding="utf-8" standalone="no"?>
<!DOCTYPE svg PUBLIC "-//W3C//DTD SVG 1.1//EN"
  "http://www.w3.org/Graphics/SVG/1.1/DTD/svg11.dtd">
<svg height="504.625304pt" version="1.1" viewBox="0 0 724.70538 504.625304" width="724.70538pt" xmlns="http://www.w3.org/2000/svg" xmlns:xlink="http://www.w3.org/1999/xlink">
 <metadata>
  <rdf:RDF xmlns:cc="http://creativecommons.org/ns#" xmlns:dc="http://purl.org/dc/elements/1.1/" xmlns:rdf="http://www.w3.org/1999/02/22-rdf-syntax-ns#">
   <cc:Work>
    <dc:type rdf:resource="http://purl.org/dc/dcmitype/StillImage"/>
    <dc:date>2021-12-18T18:45:31.628770</dc:date>
    <dc:format>image/svg+xml</dc:format>
    <dc:creator>
     <cc:Agent>
      <dc:title>Matplotlib v3.4.1, https://matplotlib.org/</dc:title>
     </cc:Agent>
    </dc:creator>
   </cc:Work>
  </rdf:RDF>
 </metadata>
 <defs>
  <style type="text/css">*{stroke-linecap:butt;stroke-linejoin:round;}</style>
 </defs>
 <g id="figure_1">
  <g id="patch_1">
   <path d="M 0 504.625304 
L 724.70538 504.625304 
L 724.70538 0 
L 0 0 
z
" style="fill:#ffffff;"/>
  </g>
  <g id="axes_1">
   <g id="patch_2">
    <path d="M 51.50538 466.956997 
L 721.10538 466.956997 
L 721.10538 23.436997 
L 51.50538 23.436997 
z
" style="fill:#ffffff;"/>
   </g>
   <g id="matplotlib.axis_1">
    <g id="xtick_1">
     <g id="line2d_1">
      <path clip-path="url(#p51055f9dbf)" d="M 81.941743 466.956997 
L 81.941743 23.436997 
" style="fill:none;stroke:#b0b0b0;stroke-dasharray:3.2,0.8,0.5,0.8;stroke-dashoffset:0;stroke-width:0.5;"/>
     </g>
     <g id="line2d_2">
      <defs>
       <path d="M 0 0 
L 0 -3 
" id="md709ff2a13" style="stroke:#000000;stroke-width:0.5;"/>
      </defs>
      <g>
       <use style="stroke:#000000;stroke-width:0.5;" x="81.941743" xlink:href="#md709ff2a13" y="466.956997"/>
      </g>
     </g>
     <g id="line2d_3">
      <defs>
       <path d="M 0 0 
L 0 3 
" id="ma35459b2ae" style="stroke:#000000;stroke-width:0.5;"/>
      </defs>
      <g>
       <use style="stroke:#000000;stroke-width:0.5;" x="81.941743" xlink:href="#ma35459b2ae" y="23.436997"/>
      </g>
     </g>
     <g id="text_1">
      <!-- $\mathdefault{0}$ -->
      <g transform="translate(79.451076 477.375495)scale(0.1 -0.1)">
       <defs>
        <path d="M 2688 2025 
C 2688 2416 2682 3080 2413 3591 
C 2176 4039 1798 4198 1466 4198 
C 1158 4198 768 4058 525 3597 
C 269 3118 243 2524 243 2025 
C 243 1661 250 1106 448 619 
C 723 -39 1216 -128 1466 -128 
C 1760 -128 2208 -7 2470 600 
C 2662 1042 2688 1559 2688 2025 
z
M 1466 -26 
C 1056 -26 813 325 723 812 
C 653 1188 653 1738 653 2096 
C 653 2588 653 2997 736 3387 
C 858 3929 1216 4096 1466 4096 
C 1728 4096 2067 3923 2189 3400 
C 2272 3036 2278 2607 2278 2096 
C 2278 1680 2278 1169 2202 792 
C 2067 95 1690 -26 1466 -26 
z
" id="CMR17-30" transform="scale(0.015625)"/>
       </defs>
       <use transform="scale(0.996264)" xlink:href="#CMR17-30"/>
      </g>
     </g>
    </g>
    <g id="xtick_2">
     <g id="line2d_4">
      <path clip-path="url(#p51055f9dbf)" d="M 218.734389 466.956997 
L 218.734389 23.436997 
" style="fill:none;stroke:#b0b0b0;stroke-dasharray:3.2,0.8,0.5,0.8;stroke-dashoffset:0;stroke-width:0.5;"/>
     </g>
     <g id="line2d_5">
      <g>
       <use style="stroke:#000000;stroke-width:0.5;" x="218.734389" xlink:href="#md709ff2a13" y="466.956997"/>
      </g>
     </g>
     <g id="line2d_6">
      <g>
       <use style="stroke:#000000;stroke-width:0.5;" x="218.734389" xlink:href="#ma35459b2ae" y="23.436997"/>
      </g>
     </g>
     <g id="text_2">
      <!-- $\mathdefault{20}$ -->
      <g transform="translate(213.753054 477.375495)scale(0.1 -0.1)">
       <defs>
        <path d="M 2669 989 
L 2554 989 
C 2490 536 2438 459 2413 420 
C 2381 369 1920 369 1830 369 
L 602 369 
C 832 619 1280 1072 1824 1597 
C 2214 1967 2669 2402 2669 3035 
C 2669 3790 2067 4224 1395 4224 
C 691 4224 262 3604 262 3030 
C 262 2780 448 2748 525 2748 
C 589 2748 781 2787 781 3010 
C 781 3207 614 3264 525 3264 
C 486 3264 448 3258 422 3245 
C 544 3790 915 4058 1306 4058 
C 1862 4058 2227 3617 2227 3035 
C 2227 2479 1901 2000 1536 1584 
L 262 146 
L 262 0 
L 2515 0 
L 2669 989 
z
" id="CMR17-32" transform="scale(0.015625)"/>
       </defs>
       <use transform="scale(0.996264)" xlink:href="#CMR17-32"/>
       <use transform="translate(45.690477 0)scale(0.996264)" xlink:href="#CMR17-30"/>
      </g>
     </g>
    </g>
    <g id="xtick_3">
     <g id="line2d_7">
      <path clip-path="url(#p51055f9dbf)" d="M 355.527035 466.956997 
L 355.527035 23.436997 
" style="fill:none;stroke:#b0b0b0;stroke-dasharray:3.2,0.8,0.5,0.8;stroke-dashoffset:0;stroke-width:0.5;"/>
     </g>
     <g id="line2d_8">
      <g>
       <use style="stroke:#000000;stroke-width:0.5;" x="355.527035" xlink:href="#md709ff2a13" y="466.956997"/>
      </g>
     </g>
     <g id="line2d_9">
      <g>
       <use style="stroke:#000000;stroke-width:0.5;" x="355.527035" xlink:href="#ma35459b2ae" y="23.436997"/>
      </g>
     </g>
     <g id="text_3">
      <!-- $\mathdefault{40}$ -->
      <g transform="translate(350.545699 477.375495)scale(0.1 -0.1)">
       <defs>
        <path d="M 2150 4122 
C 2150 4256 2144 4256 2029 4256 
L 128 1254 
L 128 1088 
L 1779 1088 
L 1779 457 
C 1779 224 1766 160 1318 160 
L 1197 160 
L 1197 0 
C 1402 0 1747 0 1965 0 
C 2182 0 2528 0 2733 0 
L 2733 160 
L 2611 160 
C 2163 160 2150 224 2150 457 
L 2150 1088 
L 2803 1088 
L 2803 1254 
L 2150 1254 
L 2150 4122 
z
M 1798 3703 
L 1798 1254 
L 256 1254 
L 1798 3703 
z
" id="CMR17-34" transform="scale(0.015625)"/>
       </defs>
       <use transform="scale(0.996264)" xlink:href="#CMR17-34"/>
       <use transform="translate(45.690477 0)scale(0.996264)" xlink:href="#CMR17-30"/>
      </g>
     </g>
    </g>
    <g id="xtick_4">
     <g id="line2d_10">
      <path clip-path="url(#p51055f9dbf)" d="M 492.31968 466.956997 
L 492.31968 23.436997 
" style="fill:none;stroke:#b0b0b0;stroke-dasharray:3.2,0.8,0.5,0.8;stroke-dashoffset:0;stroke-width:0.5;"/>
     </g>
     <g id="line2d_11">
      <g>
       <use style="stroke:#000000;stroke-width:0.5;" x="492.31968" xlink:href="#md709ff2a13" y="466.956997"/>
      </g>
     </g>
     <g id="line2d_12">
      <g>
       <use style="stroke:#000000;stroke-width:0.5;" x="492.31968" xlink:href="#ma35459b2ae" y="23.436997"/>
      </g>
     </g>
     <g id="text_4">
      <!-- $\mathdefault{60}$ -->
      <g transform="translate(487.338345 477.375495)scale(0.1 -0.1)">
       <defs>
        <path d="M 678 2176 
C 678 3690 1395 4032 1811 4032 
C 1946 4032 2272 4009 2400 3776 
C 2298 3776 2106 3776 2106 3553 
C 2106 3381 2246 3323 2336 3323 
C 2394 3323 2566 3348 2566 3560 
C 2566 3954 2246 4179 1805 4179 
C 1043 4179 243 3390 243 1984 
C 243 253 966 -128 1478 -128 
C 2099 -128 2688 427 2688 1283 
C 2688 2081 2170 2662 1517 2662 
C 1126 2662 838 2407 678 1960 
L 678 2176 
z
M 1478 25 
C 691 25 691 1200 691 1436 
C 691 1896 909 2560 1504 2560 
C 1613 2560 1926 2560 2138 2120 
C 2253 1870 2253 1609 2253 1289 
C 2253 944 2253 690 2118 434 
C 1978 171 1773 25 1478 25 
z
" id="CMR17-36" transform="scale(0.015625)"/>
       </defs>
       <use transform="scale(0.996264)" xlink:href="#CMR17-36"/>
       <use transform="translate(45.690477 0)scale(0.996264)" xlink:href="#CMR17-30"/>
      </g>
     </g>
    </g>
    <g id="xtick_5">
     <g id="line2d_13">
      <path clip-path="url(#p51055f9dbf)" d="M 629.112326 466.956997 
L 629.112326 23.436997 
" style="fill:none;stroke:#b0b0b0;stroke-dasharray:3.2,0.8,0.5,0.8;stroke-dashoffset:0;stroke-width:0.5;"/>
     </g>
     <g id="line2d_14">
      <g>
       <use style="stroke:#000000;stroke-width:0.5;" x="629.112326" xlink:href="#md709ff2a13" y="466.956997"/>
      </g>
     </g>
     <g id="line2d_15">
      <g>
       <use style="stroke:#000000;stroke-width:0.5;" x="629.112326" xlink:href="#ma35459b2ae" y="23.436997"/>
      </g>
     </g>
     <g id="text_5">
      <!-- $\mathdefault{80}$ -->
      <g transform="translate(624.13099 477.375495)scale(0.1 -0.1)">
       <defs>
        <path d="M 1741 2264 
C 2144 2467 2554 2773 2554 3263 
C 2554 3841 1990 4179 1472 4179 
C 890 4179 378 3759 378 3180 
C 378 3021 416 2747 666 2505 
C 730 2442 998 2251 1171 2130 
C 883 1983 211 1634 211 934 
C 211 279 838 -128 1459 -128 
C 2144 -128 2720 362 2720 1010 
C 2720 1590 2330 1857 2074 2029 
L 1741 2264 
z
M 902 2822 
C 851 2854 595 3051 595 3351 
C 595 3739 998 4032 1459 4032 
C 1965 4032 2336 3676 2336 3262 
C 2336 2669 1670 2331 1638 2331 
C 1632 2331 1626 2331 1574 2370 
L 902 2822 
z
M 2080 1519 
C 2176 1449 2483 1240 2483 851 
C 2483 381 2010 25 1472 25 
C 890 25 448 438 448 940 
C 448 1443 838 1862 1280 2060 
L 2080 1519 
z
" id="CMR17-38" transform="scale(0.015625)"/>
       </defs>
       <use transform="scale(0.996264)" xlink:href="#CMR17-38"/>
       <use transform="translate(45.690477 0)scale(0.996264)" xlink:href="#CMR17-30"/>
      </g>
     </g>
    </g>
    <g id="xtick_6">
     <g id="line2d_16">
      <defs>
       <path d="M 0 0 
L 0 -1.5 
" id="m08026dbb5d" style="stroke:#000000;stroke-width:0.5;"/>
      </defs>
      <g>
       <use style="stroke:#000000;stroke-width:0.5;" x="116.139905" xlink:href="#m08026dbb5d" y="466.956997"/>
      </g>
     </g>
     <g id="line2d_17">
      <defs>
       <path d="M 0 0 
L 0 1.5 
" id="ma1282bcd4f" style="stroke:#000000;stroke-width:0.5;"/>
      </defs>
      <g>
       <use style="stroke:#000000;stroke-width:0.5;" x="116.139905" xlink:href="#ma1282bcd4f" y="23.436997"/>
      </g>
     </g>
    </g>
    <g id="xtick_7">
     <g id="line2d_18">
      <g>
       <use style="stroke:#000000;stroke-width:0.5;" x="150.338066" xlink:href="#m08026dbb5d" y="466.956997"/>
      </g>
     </g>
     <g id="line2d_19">
      <g>
       <use style="stroke:#000000;stroke-width:0.5;" x="150.338066" xlink:href="#ma1282bcd4f" y="23.436997"/>
      </g>
     </g>
    </g>
    <g id="xtick_8">
     <g id="line2d_20">
      <g>
       <use style="stroke:#000000;stroke-width:0.5;" x="184.536228" xlink:href="#m08026dbb5d" y="466.956997"/>
      </g>
     </g>
     <g id="line2d_21">
      <g>
       <use style="stroke:#000000;stroke-width:0.5;" x="184.536228" xlink:href="#ma1282bcd4f" y="23.436997"/>
      </g>
     </g>
    </g>
    <g id="xtick_9">
     <g id="line2d_22">
      <g>
       <use style="stroke:#000000;stroke-width:0.5;" x="252.93255" xlink:href="#m08026dbb5d" y="466.956997"/>
      </g>
     </g>
     <g id="line2d_23">
      <g>
       <use style="stroke:#000000;stroke-width:0.5;" x="252.93255" xlink:href="#ma1282bcd4f" y="23.436997"/>
      </g>
     </g>
    </g>
    <g id="xtick_10">
     <g id="line2d_24">
      <g>
       <use style="stroke:#000000;stroke-width:0.5;" x="287.130712" xlink:href="#m08026dbb5d" y="466.956997"/>
      </g>
     </g>
     <g id="line2d_25">
      <g>
       <use style="stroke:#000000;stroke-width:0.5;" x="287.130712" xlink:href="#ma1282bcd4f" y="23.436997"/>
      </g>
     </g>
    </g>
    <g id="xtick_11">
     <g id="line2d_26">
      <g>
       <use style="stroke:#000000;stroke-width:0.5;" x="321.328873" xlink:href="#m08026dbb5d" y="466.956997"/>
      </g>
     </g>
     <g id="line2d_27">
      <g>
       <use style="stroke:#000000;stroke-width:0.5;" x="321.328873" xlink:href="#ma1282bcd4f" y="23.436997"/>
      </g>
     </g>
    </g>
    <g id="xtick_12">
     <g id="line2d_28">
      <g>
       <use style="stroke:#000000;stroke-width:0.5;" x="389.725196" xlink:href="#m08026dbb5d" y="466.956997"/>
      </g>
     </g>
     <g id="line2d_29">
      <g>
       <use style="stroke:#000000;stroke-width:0.5;" x="389.725196" xlink:href="#ma1282bcd4f" y="23.436997"/>
      </g>
     </g>
    </g>
    <g id="xtick_13">
     <g id="line2d_30">
      <g>
       <use style="stroke:#000000;stroke-width:0.5;" x="423.923357" xlink:href="#m08026dbb5d" y="466.956997"/>
      </g>
     </g>
     <g id="line2d_31">
      <g>
       <use style="stroke:#000000;stroke-width:0.5;" x="423.923357" xlink:href="#ma1282bcd4f" y="23.436997"/>
      </g>
     </g>
    </g>
    <g id="xtick_14">
     <g id="line2d_32">
      <g>
       <use style="stroke:#000000;stroke-width:0.5;" x="458.121519" xlink:href="#m08026dbb5d" y="466.956997"/>
      </g>
     </g>
     <g id="line2d_33">
      <g>
       <use style="stroke:#000000;stroke-width:0.5;" x="458.121519" xlink:href="#ma1282bcd4f" y="23.436997"/>
      </g>
     </g>
    </g>
    <g id="xtick_15">
     <g id="line2d_34">
      <g>
       <use style="stroke:#000000;stroke-width:0.5;" x="526.517842" xlink:href="#m08026dbb5d" y="466.956997"/>
      </g>
     </g>
     <g id="line2d_35">
      <g>
       <use style="stroke:#000000;stroke-width:0.5;" x="526.517842" xlink:href="#ma1282bcd4f" y="23.436997"/>
      </g>
     </g>
    </g>
    <g id="xtick_16">
     <g id="line2d_36">
      <g>
       <use style="stroke:#000000;stroke-width:0.5;" x="560.716003" xlink:href="#m08026dbb5d" y="466.956997"/>
      </g>
     </g>
     <g id="line2d_37">
      <g>
       <use style="stroke:#000000;stroke-width:0.5;" x="560.716003" xlink:href="#ma1282bcd4f" y="23.436997"/>
      </g>
     </g>
    </g>
    <g id="xtick_17">
     <g id="line2d_38">
      <g>
       <use style="stroke:#000000;stroke-width:0.5;" x="594.914164" xlink:href="#m08026dbb5d" y="466.956997"/>
      </g>
     </g>
     <g id="line2d_39">
      <g>
       <use style="stroke:#000000;stroke-width:0.5;" x="594.914164" xlink:href="#ma1282bcd4f" y="23.436997"/>
      </g>
     </g>
    </g>
    <g id="xtick_18">
     <g id="line2d_40">
      <g>
       <use style="stroke:#000000;stroke-width:0.5;" x="663.310487" xlink:href="#m08026dbb5d" y="466.956997"/>
      </g>
     </g>
     <g id="line2d_41">
      <g>
       <use style="stroke:#000000;stroke-width:0.5;" x="663.310487" xlink:href="#ma1282bcd4f" y="23.436997"/>
      </g>
     </g>
    </g>
    <g id="xtick_19">
     <g id="line2d_42">
      <g>
       <use style="stroke:#000000;stroke-width:0.5;" x="697.508648" xlink:href="#m08026dbb5d" y="466.956997"/>
      </g>
     </g>
     <g id="line2d_43">
      <g>
       <use style="stroke:#000000;stroke-width:0.5;" x="697.508648" xlink:href="#ma1282bcd4f" y="23.436997"/>
      </g>
     </g>
    </g>
    <g id="text_6">
     <!-- iteration -->
     <g transform="translate(352.470758 497.14967)scale(0.2 -0.2)">
      <defs>
       <path d="M 992 3909 
C 992 4049 877 4170 730 4170 
C 589 4170 467 4056 467 3909 
C 467 3769 582 3648 730 3648 
C 870 3648 992 3763 992 3909 
z
M 243 2706 
L 243 2541 
C 602 2541 653 2502 653 2197 
L 653 427 
C 653 184 627 153 218 153 
L 218 -13 
C 371 0 646 0 806 0 
C 960 0 1222 0 1370 -13 
L 1370 153 
C 992 153 979 191 979 420 
L 979 2776 
L 243 2706 
z
" id="CMR17-69" transform="scale(0.015625)"/>
       <path d="M 966 2560 
L 1862 2560 
L 1862 2725 
L 966 2725 
L 966 3904 
L 851 3904 
C 838 3245 614 2668 70 2668 
L 70 2560 
L 627 2560 
L 627 771 
C 627 650 627 -64 1370 -64 
C 1747 -64 1965 306 1965 777 
L 1965 1140 
L 1850 1140 
L 1850 783 
C 1850 344 1677 51 1408 51 
C 1222 51 966 178 966 758 
L 966 2560 
z
" id="CMR17-74" transform="scale(0.015625)"/>
       <path d="M 2438 1472 
C 2464 1498 2464 1511 2464 1576 
C 2464 2238 2118 2816 1389 2816 
C 710 2816 173 2169 173 1383 
C 173 551 781 -64 1459 -64 
C 2176 -64 2458 607 2458 740 
C 2458 784 2419 784 2406 784 
C 2362 784 2355 771 2330 696 
C 2189 265 1837 51 1504 51 
C 1229 51 954 203 781 480 
C 582 803 582 1176 582 1472 
L 2438 1472 
z
M 589 1568 
C 634 2505 1126 2714 1382 2714 
C 1818 2714 2112 2297 2118 1568 
L 589 1568 
z
" id="CMR17-65" transform="scale(0.015625)"/>
       <path d="M 960 1497 
C 960 2112 1222 2688 1702 2688 
C 1747 2688 1792 2682 1837 2662 
C 1837 2662 1696 2617 1696 2452 
C 1696 2298 1818 2234 1914 2234 
C 1990 2234 2131 2279 2131 2458 
C 2131 2663 1926 2790 1709 2790 
C 1222 2790 1011 2317 947 2093 
L 941 2093 
L 941 2790 
L 198 2720 
L 198 2554 
C 576 2554 634 2515 634 2208 
L 634 428 
C 634 184 608 153 198 153 
L 198 -13 
C 352 0 646 0 813 0 
C 998 0 1325 0 1498 -13 
L 1498 153 
C 1037 153 960 153 960 440 
L 960 1497 
z
" id="CMR17-72" transform="scale(0.015625)"/>
       <path d="M 2304 1653 
C 2304 2072 2304 2294 2035 2543 
C 1798 2752 1523 2816 1306 2816 
C 800 2816 435 2407 435 1971 
C 435 1728 627 1728 666 1728 
C 749 1728 896 1778 896 1954 
C 896 2112 774 2181 666 2181 
C 640 2181 608 2174 589 2168 
C 723 2592 1069 2714 1293 2714 
C 1613 2714 1965 2429 1965 1885 
L 1965 1600 
C 1587 1600 1133 1549 774 1357 
C 371 1133 256 813 256 570 
C 256 77 832 -64 1171 -64 
C 1523 -64 1850 139 1990 511 
C 2003 233 2182 -18 2464 -18 
C 2598 -18 2938 70 2938 567 
L 2938 920 
L 2822 920 
L 2822 562 
C 2822 178 2650 128 2566 128 
C 2304 128 2304 458 2304 738 
L 2304 1653 
z
M 1965 870 
C 1965 317 1568 38 1216 38 
C 896 38 646 275 646 570 
C 646 761 730 1100 1101 1305 
C 1408 1478 1760 1504 1965 1504 
L 1965 870 
z
" id="CMR17-61" transform="scale(0.015625)"/>
       <path d="M 2758 1356 
C 2758 2176 2163 2816 1466 2816 
C 768 2816 173 2176 173 1356 
C 173 551 768 -64 1466 -64 
C 2163 -64 2758 551 2758 1356 
z
M 1466 51 
C 1165 51 909 230 762 480 
C 602 767 582 1126 582 1408 
C 582 1677 595 2010 762 2298 
C 890 2509 1139 2714 1466 2714 
C 1754 2714 1997 2554 2150 2330 
C 2349 2029 2349 1607 2349 1408 
C 2349 1158 2336 775 2163 467 
C 1984 173 1709 51 1466 51 
z
" id="CMR17-6f" transform="scale(0.015625)"/>
       <path d="M 2656 1933 
C 2656 2259 2592 2790 1837 2790 
C 1331 2790 1069 2400 973 2144 
L 966 2144 
L 966 2790 
L 211 2720 
L 211 2554 
C 589 2554 646 2515 646 2208 
L 646 428 
C 646 184 621 153 211 153 
L 211 -13 
C 365 0 646 0 813 0 
C 979 0 1267 0 1421 -13 
L 1421 153 
C 1011 153 986 178 986 428 
L 986 1658 
C 986 2247 1344 2688 1792 2688 
C 2266 2688 2317 2266 2317 1958 
L 2317 428 
C 2317 184 2291 153 1882 153 
L 1882 -13 
C 2035 0 2317 0 2483 0 
C 2650 0 2938 0 3091 -13 
L 3091 153 
C 2682 153 2656 178 2656 428 
L 2656 1933 
z
" id="CMR17-6e" transform="scale(0.015625)"/>
      </defs>
      <use transform="scale(0.996264)" xlink:href="#CMR17-69"/>
      <use transform="translate(24.871058 0)scale(0.996264)" xlink:href="#CMR17-74"/>
      <use transform="translate(60.151826 0)scale(0.996264)" xlink:href="#CMR17-65"/>
      <use transform="translate(100.637487 0)scale(0.996264)" xlink:href="#CMR17-72"/>
      <use transform="translate(135.918255 0)scale(0.996264)" xlink:href="#CMR17-61"/>
      <use transform="translate(181.608732 0)scale(0.996264)" xlink:href="#CMR17-74"/>
      <use transform="translate(216.889499 0)scale(0.996264)" xlink:href="#CMR17-69"/>
      <use transform="translate(241.760558 0)scale(0.996264)" xlink:href="#CMR17-6f"/>
      <use transform="translate(287.451035 0)scale(0.996264)" xlink:href="#CMR17-6e"/>
     </g>
    </g>
   </g>
   <g id="matplotlib.axis_2">
    <g id="ytick_1">
     <g id="line2d_44">
      <path clip-path="url(#p51055f9dbf)" d="M 51.50538 450.954698 
L 721.10538 450.954698 
" style="fill:none;stroke:#b0b0b0;stroke-dasharray:3.2,0.8,0.5,0.8;stroke-dashoffset:0;stroke-width:0.5;"/>
     </g>
     <g id="line2d_45">
      <defs>
       <path d="M 0 0 
L 3 0 
" id="m8a118f9668" style="stroke:#000000;stroke-width:0.5;"/>
      </defs>
      <g>
       <use style="stroke:#000000;stroke-width:0.5;" x="51.50538" xlink:href="#m8a118f9668" y="450.954698"/>
      </g>
     </g>
     <g id="line2d_46">
      <defs>
       <path d="M 0 0 
L -3 0 
" id="m729b123725" style="stroke:#000000;stroke-width:0.5;"/>
      </defs>
      <g>
       <use style="stroke:#000000;stroke-width:0.5;" x="721.10538" xlink:href="#m729b123725" y="450.954698"/>
      </g>
     </g>
     <g id="text_7">
      <!-- $\mathdefault{0.030}$ -->
      <g transform="translate(25.31263 454.413947)scale(0.1 -0.1)">
       <defs>
        <path d="M 1178 307 
C 1178 492 1024 619 870 619 
C 685 619 557 466 557 313 
C 557 128 710 0 864 0 
C 1050 0 1178 153 1178 307 
z
" id="CMMI12-3a" transform="scale(0.015625)"/>
        <path d="M 1414 2157 
C 1984 2157 2234 1662 2234 1090 
C 2234 320 1824 25 1453 25 
C 1114 25 563 194 390 693 
C 422 680 454 680 486 680 
C 640 680 755 782 755 948 
C 755 1133 614 1216 486 1216 
C 378 1216 211 1165 211 926 
C 211 335 787 -128 1466 -128 
C 2176 -128 2720 430 2720 1085 
C 2720 1707 2208 2157 1600 2227 
C 2086 2328 2554 2756 2554 3329 
C 2554 3820 2048 4179 1472 4179 
C 890 4179 378 3829 378 3329 
C 378 3110 544 3072 627 3072 
C 762 3072 877 3155 877 3321 
C 877 3486 762 3569 627 3569 
C 602 3569 570 3569 544 3557 
C 730 3959 1235 4032 1459 4032 
C 1683 4032 2106 3925 2106 3320 
C 2106 3143 2080 2828 1862 2550 
C 1670 2304 1453 2304 1242 2284 
C 1210 2284 1062 2269 1037 2269 
C 992 2263 966 2257 966 2208 
C 966 2163 973 2157 1101 2157 
L 1414 2157 
z
" id="CMR17-33" transform="scale(0.015625)"/>
       </defs>
       <use transform="scale(0.996264)" xlink:href="#CMR17-30"/>
       <use transform="translate(45.690477 0)scale(0.996264)" xlink:href="#CMMI12-3a"/>
       <use transform="translate(72.787654 0)scale(0.996264)" xlink:href="#CMR17-30"/>
       <use transform="translate(118.478131 0)scale(0.996264)" xlink:href="#CMR17-33"/>
       <use transform="translate(164.168608 0)scale(0.996264)" xlink:href="#CMR17-30"/>
      </g>
     </g>
    </g>
    <g id="ytick_2">
     <g id="line2d_47">
      <path clip-path="url(#p51055f9dbf)" d="M 51.50538 386.506788 
L 721.10538 386.506788 
" style="fill:none;stroke:#b0b0b0;stroke-dasharray:3.2,0.8,0.5,0.8;stroke-dashoffset:0;stroke-width:0.5;"/>
     </g>
     <g id="line2d_48">
      <g>
       <use style="stroke:#000000;stroke-width:0.5;" x="51.50538" xlink:href="#m8a118f9668" y="386.506788"/>
      </g>
     </g>
     <g id="line2d_49">
      <g>
       <use style="stroke:#000000;stroke-width:0.5;" x="721.10538" xlink:href="#m729b123725" y="386.506788"/>
      </g>
     </g>
     <g id="text_8">
      <!-- $\mathdefault{0.035}$ -->
      <g transform="translate(25.31263 389.966037)scale(0.1 -0.1)">
       <defs>
        <path d="M 730 3692 
C 794 3666 1056 3584 1325 3584 
C 1920 3584 2246 3911 2432 4100 
C 2432 4157 2432 4192 2394 4192 
C 2387 4192 2374 4192 2323 4163 
C 2099 4058 1837 3973 1517 3973 
C 1325 3973 1037 3999 723 4139 
C 653 4171 640 4171 634 4171 
C 602 4171 595 4164 595 4037 
L 595 2203 
C 595 2089 595 2057 659 2057 
C 691 2057 704 2070 736 2114 
C 941 2401 1222 2522 1542 2522 
C 1766 2522 2246 2382 2246 1289 
C 2246 1085 2246 715 2054 421 
C 1894 159 1645 25 1370 25 
C 947 25 518 320 403 814 
C 429 807 480 795 506 795 
C 589 795 749 840 749 1038 
C 749 1210 627 1280 506 1280 
C 358 1280 262 1190 262 1011 
C 262 454 704 -128 1382 -128 
C 2042 -128 2669 440 2669 1264 
C 2669 2030 2170 2624 1549 2624 
C 1222 2624 947 2503 730 2274 
L 730 3692 
z
" id="CMR17-35" transform="scale(0.015625)"/>
       </defs>
       <use transform="scale(0.996264)" xlink:href="#CMR17-30"/>
       <use transform="translate(45.690477 0)scale(0.996264)" xlink:href="#CMMI12-3a"/>
       <use transform="translate(72.787654 0)scale(0.996264)" xlink:href="#CMR17-30"/>
       <use transform="translate(118.478131 0)scale(0.996264)" xlink:href="#CMR17-33"/>
       <use transform="translate(164.168608 0)scale(0.996264)" xlink:href="#CMR17-35"/>
      </g>
     </g>
    </g>
    <g id="ytick_3">
     <g id="line2d_50">
      <path clip-path="url(#p51055f9dbf)" d="M 51.50538 322.058877 
L 721.10538 322.058877 
" style="fill:none;stroke:#b0b0b0;stroke-dasharray:3.2,0.8,0.5,0.8;stroke-dashoffset:0;stroke-width:0.5;"/>
     </g>
     <g id="line2d_51">
      <g>
       <use style="stroke:#000000;stroke-width:0.5;" x="51.50538" xlink:href="#m8a118f9668" y="322.058877"/>
      </g>
     </g>
     <g id="line2d_52">
      <g>
       <use style="stroke:#000000;stroke-width:0.5;" x="721.10538" xlink:href="#m729b123725" y="322.058877"/>
      </g>
     </g>
     <g id="text_9">
      <!-- $\mathdefault{0.040}$ -->
      <g transform="translate(25.31263 325.518127)scale(0.1 -0.1)">
       <use transform="scale(0.996264)" xlink:href="#CMR17-30"/>
       <use transform="translate(45.690477 0)scale(0.996264)" xlink:href="#CMMI12-3a"/>
       <use transform="translate(72.787654 0)scale(0.996264)" xlink:href="#CMR17-30"/>
       <use transform="translate(118.478131 0)scale(0.996264)" xlink:href="#CMR17-34"/>
       <use transform="translate(164.168608 0)scale(0.996264)" xlink:href="#CMR17-30"/>
      </g>
     </g>
    </g>
    <g id="ytick_4">
     <g id="line2d_53">
      <path clip-path="url(#p51055f9dbf)" d="M 51.50538 257.610967 
L 721.10538 257.610967 
" style="fill:none;stroke:#b0b0b0;stroke-dasharray:3.2,0.8,0.5,0.8;stroke-dashoffset:0;stroke-width:0.5;"/>
     </g>
     <g id="line2d_54">
      <g>
       <use style="stroke:#000000;stroke-width:0.5;" x="51.50538" xlink:href="#m8a118f9668" y="257.610967"/>
      </g>
     </g>
     <g id="line2d_55">
      <g>
       <use style="stroke:#000000;stroke-width:0.5;" x="721.10538" xlink:href="#m729b123725" y="257.610967"/>
      </g>
     </g>
     <g id="text_10">
      <!-- $\mathdefault{0.045}$ -->
      <g transform="translate(25.31263 261.070216)scale(0.1 -0.1)">
       <use transform="scale(0.996264)" xlink:href="#CMR17-30"/>
       <use transform="translate(45.690477 0)scale(0.996264)" xlink:href="#CMMI12-3a"/>
       <use transform="translate(72.787654 0)scale(0.996264)" xlink:href="#CMR17-30"/>
       <use transform="translate(118.478131 0)scale(0.996264)" xlink:href="#CMR17-34"/>
       <use transform="translate(164.168608 0)scale(0.996264)" xlink:href="#CMR17-35"/>
      </g>
     </g>
    </g>
    <g id="ytick_5">
     <g id="line2d_56">
      <path clip-path="url(#p51055f9dbf)" d="M 51.50538 193.163057 
L 721.10538 193.163057 
" style="fill:none;stroke:#b0b0b0;stroke-dasharray:3.2,0.8,0.5,0.8;stroke-dashoffset:0;stroke-width:0.5;"/>
     </g>
     <g id="line2d_57">
      <g>
       <use style="stroke:#000000;stroke-width:0.5;" x="51.50538" xlink:href="#m8a118f9668" y="193.163057"/>
      </g>
     </g>
     <g id="line2d_58">
      <g>
       <use style="stroke:#000000;stroke-width:0.5;" x="721.10538" xlink:href="#m729b123725" y="193.163057"/>
      </g>
     </g>
     <g id="text_11">
      <!-- $\mathdefault{0.050}$ -->
      <g transform="translate(25.31263 196.622306)scale(0.1 -0.1)">
       <use transform="scale(0.996264)" xlink:href="#CMR17-30"/>
       <use transform="translate(45.690477 0)scale(0.996264)" xlink:href="#CMMI12-3a"/>
       <use transform="translate(72.787654 0)scale(0.996264)" xlink:href="#CMR17-30"/>
       <use transform="translate(118.478131 0)scale(0.996264)" xlink:href="#CMR17-35"/>
       <use transform="translate(164.168608 0)scale(0.996264)" xlink:href="#CMR17-30"/>
      </g>
     </g>
    </g>
    <g id="ytick_6">
     <g id="line2d_59">
      <path clip-path="url(#p51055f9dbf)" d="M 51.50538 128.715147 
L 721.10538 128.715147 
" style="fill:none;stroke:#b0b0b0;stroke-dasharray:3.2,0.8,0.5,0.8;stroke-dashoffset:0;stroke-width:0.5;"/>
     </g>
     <g id="line2d_60">
      <g>
       <use style="stroke:#000000;stroke-width:0.5;" x="51.50538" xlink:href="#m8a118f9668" y="128.715147"/>
      </g>
     </g>
     <g id="line2d_61">
      <g>
       <use style="stroke:#000000;stroke-width:0.5;" x="721.10538" xlink:href="#m729b123725" y="128.715147"/>
      </g>
     </g>
     <g id="text_12">
      <!-- $\mathdefault{0.055}$ -->
      <g transform="translate(25.31263 132.174396)scale(0.1 -0.1)">
       <use transform="scale(0.996264)" xlink:href="#CMR17-30"/>
       <use transform="translate(45.690477 0)scale(0.996264)" xlink:href="#CMMI12-3a"/>
       <use transform="translate(72.787654 0)scale(0.996264)" xlink:href="#CMR17-30"/>
       <use transform="translate(118.478131 0)scale(0.996264)" xlink:href="#CMR17-35"/>
       <use transform="translate(164.168608 0)scale(0.996264)" xlink:href="#CMR17-35"/>
      </g>
     </g>
    </g>
    <g id="ytick_7">
     <g id="line2d_62">
      <path clip-path="url(#p51055f9dbf)" d="M 51.50538 64.267237 
L 721.10538 64.267237 
" style="fill:none;stroke:#b0b0b0;stroke-dasharray:3.2,0.8,0.5,0.8;stroke-dashoffset:0;stroke-width:0.5;"/>
     </g>
     <g id="line2d_63">
      <g>
       <use style="stroke:#000000;stroke-width:0.5;" x="51.50538" xlink:href="#m8a118f9668" y="64.267237"/>
      </g>
     </g>
     <g id="line2d_64">
      <g>
       <use style="stroke:#000000;stroke-width:0.5;" x="721.10538" xlink:href="#m729b123725" y="64.267237"/>
      </g>
     </g>
     <g id="text_13">
      <!-- $\mathdefault{0.060}$ -->
      <g transform="translate(25.31263 67.726486)scale(0.1 -0.1)">
       <use transform="scale(0.996264)" xlink:href="#CMR17-30"/>
       <use transform="translate(45.690477 0)scale(0.996264)" xlink:href="#CMMI12-3a"/>
       <use transform="translate(72.787654 0)scale(0.996264)" xlink:href="#CMR17-30"/>
       <use transform="translate(118.478131 0)scale(0.996264)" xlink:href="#CMR17-36"/>
       <use transform="translate(164.168608 0)scale(0.996264)" xlink:href="#CMR17-30"/>
      </g>
     </g>
    </g>
    <g id="ytick_8">
     <g id="line2d_65">
      <defs>
       <path d="M 0 0 
L 1.5 0 
" id="m496f9a69c1" style="stroke:#000000;stroke-width:0.5;"/>
      </defs>
      <g>
       <use style="stroke:#000000;stroke-width:0.5;" x="51.50538" xlink:href="#m496f9a69c1" y="463.84428"/>
      </g>
     </g>
     <g id="line2d_66">
      <defs>
       <path d="M 0 0 
L -1.5 0 
" id="m275804f33b" style="stroke:#000000;stroke-width:0.5;"/>
      </defs>
      <g>
       <use style="stroke:#000000;stroke-width:0.5;" x="721.10538" xlink:href="#m275804f33b" y="463.84428"/>
      </g>
     </g>
    </g>
    <g id="ytick_9">
     <g id="line2d_67">
      <g>
       <use style="stroke:#000000;stroke-width:0.5;" x="51.50538" xlink:href="#m496f9a69c1" y="438.065116"/>
      </g>
     </g>
     <g id="line2d_68">
      <g>
       <use style="stroke:#000000;stroke-width:0.5;" x="721.10538" xlink:href="#m275804f33b" y="438.065116"/>
      </g>
     </g>
    </g>
    <g id="ytick_10">
     <g id="line2d_69">
      <g>
       <use style="stroke:#000000;stroke-width:0.5;" x="51.50538" xlink:href="#m496f9a69c1" y="425.175534"/>
      </g>
     </g>
     <g id="line2d_70">
      <g>
       <use style="stroke:#000000;stroke-width:0.5;" x="721.10538" xlink:href="#m275804f33b" y="425.175534"/>
      </g>
     </g>
    </g>
    <g id="ytick_11">
     <g id="line2d_71">
      <g>
       <use style="stroke:#000000;stroke-width:0.5;" x="51.50538" xlink:href="#m496f9a69c1" y="412.285952"/>
      </g>
     </g>
     <g id="line2d_72">
      <g>
       <use style="stroke:#000000;stroke-width:0.5;" x="721.10538" xlink:href="#m275804f33b" y="412.285952"/>
      </g>
     </g>
    </g>
    <g id="ytick_12">
     <g id="line2d_73">
      <g>
       <use style="stroke:#000000;stroke-width:0.5;" x="51.50538" xlink:href="#m496f9a69c1" y="399.39637"/>
      </g>
     </g>
     <g id="line2d_74">
      <g>
       <use style="stroke:#000000;stroke-width:0.5;" x="721.10538" xlink:href="#m275804f33b" y="399.39637"/>
      </g>
     </g>
    </g>
    <g id="ytick_13">
     <g id="line2d_75">
      <g>
       <use style="stroke:#000000;stroke-width:0.5;" x="51.50538" xlink:href="#m496f9a69c1" y="373.617206"/>
      </g>
     </g>
     <g id="line2d_76">
      <g>
       <use style="stroke:#000000;stroke-width:0.5;" x="721.10538" xlink:href="#m275804f33b" y="373.617206"/>
      </g>
     </g>
    </g>
    <g id="ytick_14">
     <g id="line2d_77">
      <g>
       <use style="stroke:#000000;stroke-width:0.5;" x="51.50538" xlink:href="#m496f9a69c1" y="360.727624"/>
      </g>
     </g>
     <g id="line2d_78">
      <g>
       <use style="stroke:#000000;stroke-width:0.5;" x="721.10538" xlink:href="#m275804f33b" y="360.727624"/>
      </g>
     </g>
    </g>
    <g id="ytick_15">
     <g id="line2d_79">
      <g>
       <use style="stroke:#000000;stroke-width:0.5;" x="51.50538" xlink:href="#m496f9a69c1" y="347.838041"/>
      </g>
     </g>
     <g id="line2d_80">
      <g>
       <use style="stroke:#000000;stroke-width:0.5;" x="721.10538" xlink:href="#m275804f33b" y="347.838041"/>
      </g>
     </g>
    </g>
    <g id="ytick_16">
     <g id="line2d_81">
      <g>
       <use style="stroke:#000000;stroke-width:0.5;" x="51.50538" xlink:href="#m496f9a69c1" y="334.948459"/>
      </g>
     </g>
     <g id="line2d_82">
      <g>
       <use style="stroke:#000000;stroke-width:0.5;" x="721.10538" xlink:href="#m275804f33b" y="334.948459"/>
      </g>
     </g>
    </g>
    <g id="ytick_17">
     <g id="line2d_83">
      <g>
       <use style="stroke:#000000;stroke-width:0.5;" x="51.50538" xlink:href="#m496f9a69c1" y="309.169295"/>
      </g>
     </g>
     <g id="line2d_84">
      <g>
       <use style="stroke:#000000;stroke-width:0.5;" x="721.10538" xlink:href="#m275804f33b" y="309.169295"/>
      </g>
     </g>
    </g>
    <g id="ytick_18">
     <g id="line2d_85">
      <g>
       <use style="stroke:#000000;stroke-width:0.5;" x="51.50538" xlink:href="#m496f9a69c1" y="296.279713"/>
      </g>
     </g>
     <g id="line2d_86">
      <g>
       <use style="stroke:#000000;stroke-width:0.5;" x="721.10538" xlink:href="#m275804f33b" y="296.279713"/>
      </g>
     </g>
    </g>
    <g id="ytick_19">
     <g id="line2d_87">
      <g>
       <use style="stroke:#000000;stroke-width:0.5;" x="51.50538" xlink:href="#m496f9a69c1" y="283.390131"/>
      </g>
     </g>
     <g id="line2d_88">
      <g>
       <use style="stroke:#000000;stroke-width:0.5;" x="721.10538" xlink:href="#m275804f33b" y="283.390131"/>
      </g>
     </g>
    </g>
    <g id="ytick_20">
     <g id="line2d_89">
      <g>
       <use style="stroke:#000000;stroke-width:0.5;" x="51.50538" xlink:href="#m496f9a69c1" y="270.500549"/>
      </g>
     </g>
     <g id="line2d_90">
      <g>
       <use style="stroke:#000000;stroke-width:0.5;" x="721.10538" xlink:href="#m275804f33b" y="270.500549"/>
      </g>
     </g>
    </g>
    <g id="ytick_21">
     <g id="line2d_91">
      <g>
       <use style="stroke:#000000;stroke-width:0.5;" x="51.50538" xlink:href="#m496f9a69c1" y="244.721385"/>
      </g>
     </g>
     <g id="line2d_92">
      <g>
       <use style="stroke:#000000;stroke-width:0.5;" x="721.10538" xlink:href="#m275804f33b" y="244.721385"/>
      </g>
     </g>
    </g>
    <g id="ytick_22">
     <g id="line2d_93">
      <g>
       <use style="stroke:#000000;stroke-width:0.5;" x="51.50538" xlink:href="#m496f9a69c1" y="231.831803"/>
      </g>
     </g>
     <g id="line2d_94">
      <g>
       <use style="stroke:#000000;stroke-width:0.5;" x="721.10538" xlink:href="#m275804f33b" y="231.831803"/>
      </g>
     </g>
    </g>
    <g id="ytick_23">
     <g id="line2d_95">
      <g>
       <use style="stroke:#000000;stroke-width:0.5;" x="51.50538" xlink:href="#m496f9a69c1" y="218.942221"/>
      </g>
     </g>
     <g id="line2d_96">
      <g>
       <use style="stroke:#000000;stroke-width:0.5;" x="721.10538" xlink:href="#m275804f33b" y="218.942221"/>
      </g>
     </g>
    </g>
    <g id="ytick_24">
     <g id="line2d_97">
      <g>
       <use style="stroke:#000000;stroke-width:0.5;" x="51.50538" xlink:href="#m496f9a69c1" y="206.052639"/>
      </g>
     </g>
     <g id="line2d_98">
      <g>
       <use style="stroke:#000000;stroke-width:0.5;" x="721.10538" xlink:href="#m275804f33b" y="206.052639"/>
      </g>
     </g>
    </g>
    <g id="ytick_25">
     <g id="line2d_99">
      <g>
       <use style="stroke:#000000;stroke-width:0.5;" x="51.50538" xlink:href="#m496f9a69c1" y="180.273475"/>
      </g>
     </g>
     <g id="line2d_100">
      <g>
       <use style="stroke:#000000;stroke-width:0.5;" x="721.10538" xlink:href="#m275804f33b" y="180.273475"/>
      </g>
     </g>
    </g>
    <g id="ytick_26">
     <g id="line2d_101">
      <g>
       <use style="stroke:#000000;stroke-width:0.5;" x="51.50538" xlink:href="#m496f9a69c1" y="167.383893"/>
      </g>
     </g>
     <g id="line2d_102">
      <g>
       <use style="stroke:#000000;stroke-width:0.5;" x="721.10538" xlink:href="#m275804f33b" y="167.383893"/>
      </g>
     </g>
    </g>
    <g id="ytick_27">
     <g id="line2d_103">
      <g>
       <use style="stroke:#000000;stroke-width:0.5;" x="51.50538" xlink:href="#m496f9a69c1" y="154.494311"/>
      </g>
     </g>
     <g id="line2d_104">
      <g>
       <use style="stroke:#000000;stroke-width:0.5;" x="721.10538" xlink:href="#m275804f33b" y="154.494311"/>
      </g>
     </g>
    </g>
    <g id="ytick_28">
     <g id="line2d_105">
      <g>
       <use style="stroke:#000000;stroke-width:0.5;" x="51.50538" xlink:href="#m496f9a69c1" y="141.604729"/>
      </g>
     </g>
     <g id="line2d_106">
      <g>
       <use style="stroke:#000000;stroke-width:0.5;" x="721.10538" xlink:href="#m275804f33b" y="141.604729"/>
      </g>
     </g>
    </g>
    <g id="ytick_29">
     <g id="line2d_107">
      <g>
       <use style="stroke:#000000;stroke-width:0.5;" x="51.50538" xlink:href="#m496f9a69c1" y="115.825565"/>
      </g>
     </g>
     <g id="line2d_108">
      <g>
       <use style="stroke:#000000;stroke-width:0.5;" x="721.10538" xlink:href="#m275804f33b" y="115.825565"/>
      </g>
     </g>
    </g>
    <g id="ytick_30">
     <g id="line2d_109">
      <g>
       <use style="stroke:#000000;stroke-width:0.5;" x="51.50538" xlink:href="#m496f9a69c1" y="102.935983"/>
      </g>
     </g>
     <g id="line2d_110">
      <g>
       <use style="stroke:#000000;stroke-width:0.5;" x="721.10538" xlink:href="#m275804f33b" y="102.935983"/>
      </g>
     </g>
    </g>
    <g id="ytick_31">
     <g id="line2d_111">
      <g>
       <use style="stroke:#000000;stroke-width:0.5;" x="51.50538" xlink:href="#m496f9a69c1" y="90.046401"/>
      </g>
     </g>
     <g id="line2d_112">
      <g>
       <use style="stroke:#000000;stroke-width:0.5;" x="721.10538" xlink:href="#m275804f33b" y="90.046401"/>
      </g>
     </g>
    </g>
    <g id="ytick_32">
     <g id="line2d_113">
      <g>
       <use style="stroke:#000000;stroke-width:0.5;" x="51.50538" xlink:href="#m496f9a69c1" y="77.156819"/>
      </g>
     </g>
     <g id="line2d_114">
      <g>
       <use style="stroke:#000000;stroke-width:0.5;" x="721.10538" xlink:href="#m275804f33b" y="77.156819"/>
      </g>
     </g>
    </g>
    <g id="ytick_33">
     <g id="line2d_115">
      <g>
       <use style="stroke:#000000;stroke-width:0.5;" x="51.50538" xlink:href="#m496f9a69c1" y="51.377655"/>
      </g>
     </g>
     <g id="line2d_116">
      <g>
       <use style="stroke:#000000;stroke-width:0.5;" x="721.10538" xlink:href="#m275804f33b" y="51.377655"/>
      </g>
     </g>
    </g>
    <g id="ytick_34">
     <g id="line2d_117">
      <g>
       <use style="stroke:#000000;stroke-width:0.5;" x="51.50538" xlink:href="#m496f9a69c1" y="38.488073"/>
      </g>
     </g>
     <g id="line2d_118">
      <g>
       <use style="stroke:#000000;stroke-width:0.5;" x="721.10538" xlink:href="#m275804f33b" y="38.488073"/>
      </g>
     </g>
    </g>
    <g id="ytick_35">
     <g id="line2d_119">
      <g>
       <use style="stroke:#000000;stroke-width:0.5;" x="51.50538" xlink:href="#m496f9a69c1" y="25.598491"/>
      </g>
     </g>
     <g id="line2d_120">
      <g>
       <use style="stroke:#000000;stroke-width:0.5;" x="721.10538" xlink:href="#m275804f33b" y="25.598491"/>
      </g>
     </g>
    </g>
    <g id="text_14">
     <!-- accuracy -->
     <g transform="translate(17.436997 279.927673)rotate(-90)scale(0.2 -0.2)">
      <defs>
       <path d="M 2234 2240 
C 2112 2240 1933 2240 1933 2017 
C 1933 1838 2080 1787 2163 1787 
C 2208 1787 2394 1807 2394 2024 
C 2394 2467 1958 2803 1466 2803 
C 787 2803 211 2178 211 1363 
C 211 516 813 -64 1466 -64 
C 2259 -64 2458 677 2458 748 
C 2458 774 2451 793 2406 793 
C 2362 793 2355 787 2330 703 
C 2163 180 1798 51 1523 51 
C 1114 51 621 427 621 1369 
C 621 2338 1094 2688 1472 2688 
C 1722 2688 2093 2573 2234 2240 
z
" id="CMR17-63" transform="scale(0.015625)"/>
       <path d="M 1882 2693 
L 1882 2528 
C 2259 2528 2317 2489 2317 2186 
L 2317 1032 
C 2317 500 2029 38 1555 38 
C 1030 38 986 348 986 678 
L 986 2763 
L 211 2693 
L 211 2528 
C 467 2528 640 2528 646 2274 
L 646 1058 
C 646 633 646 361 813 183 
C 896 101 1056 -64 1517 -64 
C 2061 -64 2272 377 2323 506 
L 2330 506 
L 2330 -63 
L 3091 -63 
L 3091 128 
C 2714 128 2656 166 2656 473 
L 2656 2763 
L 1882 2693 
z
" id="CMR17-75" transform="scale(0.015625)"/>
       <path d="M 2496 2197 
C 2656 2586 2944 2586 3034 2586 
L 3034 2752 
C 2912 2752 2752 2752 2630 2752 
C 2496 2752 2285 2752 2157 2758 
L 2157 2592 
C 2400 2573 2406 2394 2406 2343 
C 2406 2280 2394 2248 2362 2171 
L 1664 449 
L 902 2306 
C 870 2382 870 2426 870 2433 
C 870 2573 1018 2586 1171 2586 
L 1171 2758 
C 1018 2752 742 2752 582 2752 
C 410 2752 205 2752 64 2758 
L 64 2586 
C 410 2586 448 2554 531 2350 
L 1485 15 
C 1197 -738 1030 -1178 627 -1178 
C 557 -1178 397 -1159 282 -1044 
C 429 -1031 493 -942 493 -833 
C 493 -725 416 -629 288 -629 
C 147 -629 77 -725 77 -840 
C 77 -1095 339 -1280 627 -1280 
C 998 -1280 1229 -922 1357 -604 
L 2496 2197 
z
" id="CMR17-79" transform="scale(0.015625)"/>
      </defs>
      <use transform="scale(0.996264)" xlink:href="#CMR17-61"/>
      <use transform="translate(45.690477 0)scale(0.996264)" xlink:href="#CMR17-63"/>
      <use transform="translate(86.176138 0)scale(0.996264)" xlink:href="#CMR17-63"/>
      <use transform="translate(126.661798 0)scale(0.996264)" xlink:href="#CMR17-75"/>
      <use transform="translate(177.557168 0)scale(0.996264)" xlink:href="#CMR17-72"/>
      <use transform="translate(212.837936 0)scale(0.996264)" xlink:href="#CMR17-61"/>
      <use transform="translate(258.528413 0)scale(0.996264)" xlink:href="#CMR17-63"/>
      <use transform="translate(299.014073 0)scale(0.996264)" xlink:href="#CMR17-79"/>
     </g>
    </g>
   </g>
   <g id="line2d_121">
    <path clip-path="url(#p51055f9dbf)" d="M 81.941743 43.596997 
L 88.781376 168.947951 
L 95.621008 211.981176 
L 102.46064 236.344791 
L 109.300273 252.634033 
L 116.139905 263.13463 
L 122.979537 273.119471 
L 129.819169 279.950047 
L 136.658802 284.829099 
L 143.498434 289.572357 
L 150.338066 295.270202 
L 157.177699 298.773794 
L 164.017331 302.078546 
L 170.856963 304.752253 
L 177.696595 307.788443 
L 184.536228 309.837876 
L 191.37586 312.932983 
L 198.215492 317.411137 
L 205.055124 319.896376 
L 211.894757 322.229303 
L 218.734389 324.560885 
L 225.574021 325.678491 
L 232.413654 327.391753 
L 239.253286 328.806347 
L 246.092918 328.898396 
L 252.93255 330.528828 
L 259.772183 332.430895 
L 266.611815 333.26563 
L 273.451447 334.043464 
L 280.29108 335.237898 
L 287.130712 336.028025 
L 293.970344 337.169928 
L 300.809976 338.081395 
L 307.649609 338.722139 
L 314.489241 339.228531 
L 321.328873 340.329523 
L 328.168505 340.591362 
L 335.008138 341.271433 
L 341.84777 341.869058 
L 348.687402 342.397682 
L 355.527035 343.075448 
L 362.366667 343.764402 
L 369.206299 344.790151 
L 376.045931 344.416335 
L 382.885564 345.243771 
L 389.725196 346.047103 
L 396.564828 346.36277 
L 403.404461 347.081254 
L 410.244093 347.694725 
L 417.083725 347.578475 
L 423.923357 347.909699 
L 430.76299 348.285484 
L 437.602622 348.883061 
L 444.442254 349.475788 
L 451.281886 349.494995 
L 458.121519 351.047735 
L 464.961151 350.636801 
L 471.800783 351.079282 
L 478.640416 350.860083 
L 485.480048 351.20067 
L 492.31968 351.991037 
L 499.159312 351.704901 
L 505.998945 351.996031 
L 512.838577 352.197992 
L 519.678209 352.012837 
L 526.517842 352.740973 
L 533.357474 353.358238 
L 540.197106 353.324337 
L 547.036738 353.22643 
L 553.876371 353.339271 
L 560.716003 352.70496 
L 567.555635 353.728692 
L 574.395267 353.310748 
L 581.2349 353.48678 
L 588.074532 353.752173 
L 594.914164 354.102988 
L 601.753797 354.034563 
L 608.593429 353.927004 
L 615.433061 354.33424 
L 622.272693 353.920954 
L 629.112326 354.535145 
L 635.951958 354.511184 
L 642.79159 354.408187 
L 649.631223 354.399832 
L 656.470855 354.402569 
L 663.310487 354.480117 
L 670.150119 354.397623 
L 676.989752 354.589261 
L 683.829384 354.672907 
L 690.669016 354.760155 
" style="fill:none;stroke:#0c5da5;stroke-linecap:square;"/>
   </g>
   <g id="line2d_122">
    <path clip-path="url(#p51055f9dbf)" d="M 81.941743 57.407339 
L 88.781376 202.686297 
L 95.621008 246.335058 
L 102.46064 292.74242 
L 109.300273 308.17628 
L 116.139905 327.3216 
L 122.979537 333.371845 
L 129.819169 344.799706 
L 136.658802 349.72471 
L 143.498434 347.345975 
L 150.338066 362.331592 
L 157.177699 334.510002 
L 164.017331 333.791229 
L 170.856963 331.518948 
L 177.696595 334.573721 
L 184.536228 298.52953 
L 191.37586 344.71702 
L 198.215492 365.115787 
L 205.055124 365.84013 
L 211.894757 369.036938 
L 218.734389 378.733627 
L 225.574021 378.551737 
L 232.413654 381.491269 
L 239.253286 383.270026 
L 246.092918 388.674677 
L 252.93255 382.429673 
L 259.772183 377.557872 
L 266.611815 339.508281 
L 273.451447 299.738561 
L 280.29108 339.973762 
L 287.130712 365.017351 
L 293.970344 353.783528 
L 300.809976 380.688513 
L 307.649609 367.158256 
L 314.489241 357.792023 
L 321.328873 380.091128 
L 328.168505 389.435129 
L 335.008138 396.233533 
L 341.84777 392.420661 
L 348.687402 364.778704 
L 355.527035 393.565301 
L 362.366667 397.739936 
L 369.206299 407.649823 
L 376.045931 408.010578 
L 382.885564 406.146445 
L 389.725196 409.463009 
L 396.564828 418.436699 
L 403.404461 397.031199 
L 410.244093 409.254421 
L 417.083725 411.186883 
L 423.923357 419.57356 
L 430.76299 351.148619 
L 437.602622 412.929964 
L 444.442254 401.597081 
L 451.281886 408.218013 
L 458.121519 425.23688 
L 464.961151 426.857517 
L 471.800783 426.392804 
L 478.640416 412.385398 
L 485.480048 414.080606 
L 492.31968 417.167887 
L 499.159312 426.67894 
L 505.998945 422.580364 
L 512.838577 429.739859 
L 519.678209 430.281304 
L 526.517842 428.646742 
L 533.357474 427.416344 
L 540.197106 434.83038 
L 547.036738 433.50966 
L 553.876371 422.372208 
L 560.716003 428.959576 
L 567.555635 433.998814 
L 574.395267 439.723476 
L 581.2349 440.407413 
L 588.074532 440.335459 
L 594.914164 440.163724 
L 601.753797 442.169773 
L 608.593429 443.125608 
L 615.433061 443.572698 
L 622.272693 442.40357 
L 629.112326 443.246564 
L 635.951958 444.78389 
L 642.79159 443.596107 
L 649.631223 444.264005 
L 656.470855 445.661456 
L 663.310487 446.046484 
L 670.150119 446.796997 
L 676.989752 446.718224 
L 683.829384 446.42575 
L 690.669016 446.343904 
" style="fill:none;stroke:#00b945;stroke-linecap:square;"/>
   </g>
   <g id="line2d_123">
    <path clip-path="url(#p51055f9dbf)" d="M 81.941743 107.225236 
L 88.781376 258.66363 
L 95.621008 288.588432 
L 102.46064 307.699707 
L 109.300273 317.672736 
L 116.139905 326.02148 
L 122.979537 329.844244 
L 129.819169 336.229794 
L 136.658802 339.861353 
L 143.498434 346.34846 
L 150.338066 347.280383 
L 157.177699 351.060555 
L 164.017331 356.491039 
L 170.856963 359.281812 
L 177.696595 357.629436 
L 184.536228 362.514202 
L 191.37586 365.487826 
L 198.215492 367.213524 
L 205.055124 369.762098 
L 211.894757 369.993782 
L 218.734389 374.722155 
L 225.574021 373.69098 
L 232.413654 374.651665 
L 239.253286 373.743607 
L 246.092918 376.275999 
L 252.93255 379.875194 
L 259.772183 380.316906 
L 266.611815 383.347911 
L 273.451447 383.336579 
L 280.29108 379.914616 
L 287.130712 384.29808 
L 293.970344 385.176127 
L 300.809976 386.460833 
L 307.649609 386.935485 
L 314.489241 386.417521 
L 321.328873 385.101796 
L 328.168505 389.86138 
L 335.008138 389.65937 
L 341.84777 390.652179 
L 348.687402 391.057014 
L 355.527035 391.784478 
L 362.366667 393.425618 
L 369.206299 392.850945 
L 376.045931 394.561134 
L 382.885564 395.957049 
L 389.725196 395.576559 
L 396.564828 397.112829 
L 403.404461 398.47782 
L 410.244093 399.669181 
L 417.083725 399.945521 
L 423.923357 399.38002 
L 430.76299 399.883531 
L 437.602622 403.462558 
L 444.442254 404.041793 
L 451.281886 403.544092 
L 458.121519 405.817429 
L 464.961151 406.699462 
L 471.800783 406.23326 
L 478.640416 407.439698 
L 485.480048 407.805879 
L 492.31968 409.482792 
L 499.159312 409.801148 
L 505.998945 408.729879 
L 512.838577 410.786514 
L 519.678209 411.26131 
L 526.517842 413.140088 
L 533.357474 413.865584 
L 540.197106 413.446055 
L 547.036738 415.714063 
L 553.876371 414.479342 
L 560.716003 416.70375 
L 567.555635 416.256228 
L 574.395267 416.375983 
L 581.2349 417.654111 
L 588.074532 417.871246 
L 594.914164 417.950427 
L 601.753797 418.48414 
L 608.593429 419.237246 
L 615.433061 419.547247 
L 622.272693 419.702007 
L 629.112326 420.540919 
L 635.951958 420.62639 
L 642.79159 419.743158 
L 649.631223 421.244039 
L 656.470855 421.50703 
L 663.310487 421.402976 
L 670.150119 422.007948 
L 676.989752 422.342966 
L 683.829384 422.705833 
L 690.669016 423.068605 
" style="fill:none;stroke:#ff9500;stroke-linecap:square;"/>
   </g>
   <g id="patch_3">
    <path d="M 51.50538 466.956997 
L 51.50538 23.436997 
" style="fill:none;stroke:#000000;stroke-linecap:square;stroke-linejoin:miter;stroke-width:0.5;"/>
   </g>
   <g id="patch_4">
    <path d="M 721.10538 466.956997 
L 721.10538 23.436997 
" style="fill:none;stroke:#000000;stroke-linecap:square;stroke-linejoin:miter;stroke-width:0.5;"/>
   </g>
   <g id="patch_5">
    <path d="M 51.50538 466.956997 
L 721.10538 466.956997 
" style="fill:none;stroke:#000000;stroke-linecap:square;stroke-linejoin:miter;stroke-width:0.5;"/>
   </g>
   <g id="patch_6">
    <path d="M 51.50538 23.436997 
L 721.10538 23.436997 
" style="fill:none;stroke:#000000;stroke-linecap:square;stroke-linejoin:miter;stroke-width:0.5;"/>
   </g>
   <g id="text_15">
    <!-- Train loss -->
    <g transform="translate(347.537346 17.436997)scale(0.2 -0.2)">
     <defs>
      <path d="M 3981 4326 
L 288 4326 
L 179 2918 
L 294 2918 
C 378 3976 467 4160 1453 4160 
C 1568 4160 1754 4160 1805 4154 
C 1926 4135 1926 4058 1926 3912 
L 1926 459 
C 1926 230 1907 160 1376 160 
L 1197 160 
L 1197 0 
C 1504 0 1824 0 2138 0 
C 2451 0 2771 0 3078 0 
L 3078 160 
L 2899 160 
C 2368 160 2349 230 2349 459 
L 2349 3912 
C 2349 4052 2349 4129 2464 4154 
C 2515 4160 2701 4160 2816 4160 
C 3795 4160 3891 3976 3974 2918 
L 4090 2918 
L 3981 4326 
z
" id="CMR17-54" transform="scale(0.015625)"/>
      <path d="M 979 4396 
L 218 4326 
L 218 4160 
C 595 4160 653 4122 653 3817 
L 653 426 
C 653 184 627 153 218 153 
L 218 -13 
C 371 0 653 0 813 0 
C 979 0 1261 0 1414 -13 
L 1414 153 
C 1005 153 979 178 979 426 
L 979 4396 
z
" id="CMR17-6c" transform="scale(0.015625)"/>
      <path d="M 1978 2697 
C 1978 2813 1971 2819 1933 2819 
C 1907 2819 1901 2813 1824 2717 
C 1805 2691 1747 2626 1728 2601 
C 1523 2819 1235 2819 1126 2819 
C 416 2819 160 2447 160 2076 
C 160 1498 813 1365 998 1325 
C 1402 1243 1542 1217 1677 1101 
C 1760 1025 1901 884 1901 654 
C 1901 384 1747 38 1158 38 
C 602 38 403 460 288 1021 
C 269 1110 269 1117 218 1117 
C 166 1117 160 1110 160 983 
L 160 63 
C 160 -51 166 -58 205 -58 
C 237 -58 243 -51 275 0 
C 314 57 410 211 448 276 
C 576 103 800 -64 1158 -64 
C 1792 -64 2131 283 2131 784 
C 2131 1112 1958 1285 1875 1362 
C 1683 1561 1459 1606 1190 1657 
C 838 1735 390 1825 390 2217 
C 390 2383 480 2737 1126 2737 
C 1811 2737 1850 2094 1862 1888 
C 1869 1856 1901 1849 1920 1849 
C 1978 1849 1978 1869 1978 1978 
L 1978 2697 
z
" id="CMR17-73" transform="scale(0.015625)"/>
     </defs>
     <use transform="scale(0.996264)" xlink:href="#CMR17-54"/>
     <use transform="translate(58.702625 0)scale(0.996264)" xlink:href="#CMR17-72"/>
     <use transform="translate(93.983393 0)scale(0.996264)" xlink:href="#CMR17-61"/>
     <use transform="translate(139.67387 0)scale(0.996264)" xlink:href="#CMR17-69"/>
     <use transform="translate(164.544929 0)scale(0.996264)" xlink:href="#CMR17-6e"/>
     <use transform="translate(245.516265 0)scale(0.996264)" xlink:href="#CMR17-6c"/>
     <use transform="translate(270.387323 0)scale(0.996264)" xlink:href="#CMR17-6f"/>
     <use transform="translate(316.0778 0)scale(0.996264)" xlink:href="#CMR17-73"/>
     <use transform="translate(351.879138 0)scale(0.996264)" xlink:href="#CMR17-73"/>
    </g>
   </g>
   <g id="legend_1">
    <g id="patch_7">
     <path d="M 516.361963 123.063898 
L 707.10538 123.063898 
Q 711.10538 123.063898 711.10538 119.063898 
L 711.10538 37.436997 
Q 711.10538 33.436997 707.10538 33.436997 
L 516.361963 33.436997 
Q 512.361963 33.436997 512.361963 37.436997 
L 512.361963 119.063898 
Q 512.361963 123.063898 516.361963 123.063898 
z
" style="fill:#ffffff;opacity:0.8;stroke:#cccccc;stroke-linejoin:miter;"/>
    </g>
    <g id="line2d_124">
     <path d="M 520.361963 48.436997 
L 560.361963 48.436997 
" style="fill:none;stroke:#0c5da5;stroke-linecap:square;"/>
    </g>
    <g id="line2d_125"/>
    <g id="text_16">
     <!-- plain -->
     <g transform="translate(576.361963 55.436997)scale(0.2 -0.2)">
      <defs>
       <path d="M 1408 -1063 
C 998 -1063 973 -1037 973 -789 
L 973 402 
C 1158 134 1427 -38 1766 -38 
C 2406 -38 3053 523 3053 1388 
C 3053 2191 2496 2802 1837 2802 
C 1453 2802 1139 2592 960 2338 
L 960 2802 
L 198 2732 
L 198 2567 
C 576 2567 634 2528 634 2223 
L 634 -789 
C 634 -1031 608 -1063 198 -1063 
L 198 -1228 
C 352 -1216 634 -1216 800 -1216 
C 966 -1216 1254 -1216 1408 -1228 
L 1408 -1063 
z
M 973 2012 
C 973 2102 973 2235 1222 2471 
C 1254 2497 1472 2688 1792 2688 
C 2259 2688 2643 2108 2643 1382 
C 2643 656 2234 64 1728 64 
C 1498 64 1248 172 1056 472 
C 973 612 973 650 973 752 
L 973 2012 
z
" id="CMR17-70" transform="scale(0.015625)"/>
      </defs>
      <use transform="scale(0.996264)" xlink:href="#CMR17-70"/>
      <use transform="translate(50.89537 0)scale(0.996264)" xlink:href="#CMR17-6c"/>
      <use transform="translate(75.766428 0)scale(0.996264)" xlink:href="#CMR17-61"/>
      <use transform="translate(121.456905 0)scale(0.996264)" xlink:href="#CMR17-69"/>
      <use transform="translate(146.327964 0)scale(0.996264)" xlink:href="#CMR17-6e"/>
     </g>
    </g>
    <g id="line2d_126">
     <path d="M 520.361963 76.31263 
L 560.361963 76.31263 
" style="fill:none;stroke:#00b945;stroke-linecap:square;"/>
    </g>
    <g id="line2d_127"/>
    <g id="text_17">
     <!-- feedback -->
     <g transform="translate(576.361963 83.31263)scale(0.2 -0.2)">
      <defs>
       <path d="M 979 2560 
L 1709 2560 
L 1709 2725 
L 966 2725 
L 966 3494 
C 966 4022 1235 4352 1510 4352 
C 1594 4352 1690 4327 1754 4282 
C 1702 4269 1568 4225 1568 4067 
C 1568 3901 1696 3850 1786 3850 
C 1875 3850 2003 3901 2003 4067 
C 2003 4308 1773 4454 1517 4454 
C 1152 4454 653 4156 653 3481 
L 653 2725 
L 141 2725 
L 141 2560 
L 653 2560 
L 653 427 
C 653 184 627 153 218 153 
L 218 -13 
C 371 0 666 0 832 0 
C 1018 0 1344 0 1517 -13 
L 1517 153 
C 1056 153 979 153 979 439 
L 979 2560 
z
" id="CMR17-66" transform="scale(0.015625)"/>
       <path d="M 1869 4326 
L 1869 4160 
C 2246 4160 2304 4122 2304 3820 
L 2304 2345 
C 2278 2377 2016 2790 1498 2790 
C 845 2790 211 2208 211 1364 
C 211 525 806 -64 1434 -64 
C 1978 -64 2259 337 2291 380 
L 2291 -63 
L 3066 -63 
L 3066 128 
C 2688 128 2630 166 2630 473 
L 2630 4396 
L 1869 4326 
z
M 2291 755 
C 2291 563 2176 390 2029 262 
C 1811 70 1594 38 1472 38 
C 1286 38 621 134 621 1356 
C 621 2612 1363 2688 1530 2688 
C 1824 2688 2061 2522 2208 2291 
C 2291 2157 2291 2138 2291 2023 
L 2291 755 
z
" id="CMR17-64" transform="scale(0.015625)"/>
       <path d="M 960 4396 
L 198 4326 
L 198 4160 
C 576 4160 634 4122 634 3817 
L 634 -13 
L 749 -13 
L 934 441 
C 1120 141 1395 -64 1766 -64 
C 2406 -64 3053 500 3053 1370 
C 3053 2188 2477 2790 1830 2790 
C 1434 2790 1152 2579 960 2330 
L 960 4396 
z
M 973 2004 
C 973 2118 973 2138 1062 2272 
C 1312 2657 1670 2688 1792 2688 
C 1984 2688 2643 2585 2643 1376 
C 2643 108 1888 38 1734 38 
C 1536 38 1248 114 1043 486 
C 973 608 973 621 973 735 
L 973 2004 
z
" id="CMR17-62" transform="scale(0.015625)"/>
       <path d="M 1670 1673 
C 1664 1686 1632 1724 1632 1743 
C 1632 1756 2086 2171 2144 2222 
C 2509 2528 2739 2560 2906 2560 
L 2906 2733 
C 2867 2733 2854 2733 2848 2720 
L 2534 2720 
C 2355 2720 2080 2720 1907 2733 
L 1907 2566 
C 1997 2559 2061 2508 2061 2419 
C 2061 2291 1933 2170 1926 2170 
L 960 1289 
L 960 4396 
L 198 4326 
L 198 4160 
C 576 4160 634 4122 634 3817 
L 634 426 
C 634 184 608 153 198 153 
L 198 -13 
C 352 0 634 0 794 0 
C 954 0 1235 0 1389 -13 
L 1389 153 
C 979 153 954 178 954 428 
L 954 1130 
L 1395 1532 
L 2042 574 
C 2118 459 2182 369 2182 286 
C 2182 172 2067 153 1990 153 
L 1990 -13 
C 2144 0 2419 0 2579 0 
C 2694 0 2931 0 3040 0 
L 3040 153 
C 2739 153 2669 210 2477 491 
L 1670 1673 
z
" id="CMR17-6b" transform="scale(0.015625)"/>
      </defs>
      <use transform="scale(0.996264)" xlink:href="#CMR17-66"/>
      <use transform="translate(27.473512 0)scale(0.996264)" xlink:href="#CMR17-65"/>
      <use transform="translate(67.959173 0)scale(0.996264)" xlink:href="#CMR17-65"/>
      <use transform="translate(108.444833 0)scale(0.996264)" xlink:href="#CMR17-64"/>
      <use transform="translate(159.340203 0)scale(0.996264)" xlink:href="#CMR17-62"/>
      <use transform="translate(210.235573 0)scale(0.996264)" xlink:href="#CMR17-61"/>
      <use transform="translate(255.92605 0)scale(0.996264)" xlink:href="#CMR17-63"/>
      <use transform="translate(293.809257 0)scale(0.996264)" xlink:href="#CMR17-6b"/>
     </g>
    </g>
    <g id="line2d_128">
     <path d="M 520.361963 104.188264 
L 560.361963 104.188264 
" style="fill:none;stroke:#ff9500;stroke-linecap:square;"/>
    </g>
    <g id="line2d_129"/>
    <g id="text_18">
     <!-- stateful-synapse -->
     <g transform="translate(576.361963 111.188264)scale(0.2 -0.2)">
      <defs>
       <path d="M 1632 1216 
L 1632 1496 
L 26 1496 
L 26 1216 
L 1632 1216 
z
" id="CMR17-2d" transform="scale(0.015625)"/>
      </defs>
      <use transform="scale(0.996264)" xlink:href="#CMR17-73"/>
      <use transform="translate(35.801338 0)scale(0.996264)" xlink:href="#CMR17-74"/>
      <use transform="translate(71.082105 0)scale(0.996264)" xlink:href="#CMR17-61"/>
      <use transform="translate(116.772583 0)scale(0.996264)" xlink:href="#CMR17-74"/>
      <use transform="translate(152.05335 0)scale(0.996264)" xlink:href="#CMR17-65"/>
      <use transform="translate(192.539011 0)scale(0.996264)" xlink:href="#CMR17-66"/>
      <use transform="translate(220.012523 0)scale(0.996264)" xlink:href="#CMR17-75"/>
      <use transform="translate(270.907893 0)scale(0.996264)" xlink:href="#CMR17-6c"/>
      <use transform="translate(295.778951 0)scale(0.996264)" xlink:href="#CMR17-2d"/>
      <use transform="translate(325.854918 0)scale(0.996264)" xlink:href="#CMR17-73"/>
      <use transform="translate(361.656255 0)scale(0.996264)" xlink:href="#CMR17-79"/>
      <use transform="translate(409.949171 0)scale(0.996264)" xlink:href="#CMR17-6e"/>
      <use transform="translate(460.844541 0)scale(0.996264)" xlink:href="#CMR17-61"/>
      <use transform="translate(506.535018 0)scale(0.996264)" xlink:href="#CMR17-70"/>
      <use transform="translate(557.430388 0)scale(0.996264)" xlink:href="#CMR17-73"/>
      <use transform="translate(593.231726 0)scale(0.996264)" xlink:href="#CMR17-65"/>
     </g>
    </g>
   </g>
  </g>
 </g>
 <defs>
  <clipPath id="p51055f9dbf">
   <rect height="443.52" width="669.6" x="51.50538" y="23.436997"/>
  </clipPath>
 </defs>
</svg>
